G04*
G04 #@! TF.GenerationSoftware,Altium Limited,Altium Designer,19.1.8 (144)*
G04*
G04 Layer_Physical_Order=1*
G04 Layer_Color=255*
%FSLAX44Y44*%
%MOMM*%
G71*
G01*
G75*
%ADD12C,0.2000*%
%ADD19R,1.5000X1.5000*%
%ADD20R,0.9500X1.3000*%
%ADD21R,0.6000X0.8500*%
G04:AMPARAMS|DCode=22|XSize=0.76mm|YSize=0.32mm|CornerRadius=0.04mm|HoleSize=0mm|Usage=FLASHONLY|Rotation=270.000|XOffset=0mm|YOffset=0mm|HoleType=Round|Shape=RoundedRectangle|*
%AMROUNDEDRECTD22*
21,1,0.7600,0.2400,0,0,270.0*
21,1,0.6800,0.3200,0,0,270.0*
1,1,0.0800,-0.1200,-0.3400*
1,1,0.0800,-0.1200,0.3400*
1,1,0.0800,0.1200,0.3400*
1,1,0.0800,0.1200,-0.3400*
%
%ADD22ROUNDEDRECTD22*%
%ADD23R,0.8500X0.6000*%
%ADD24R,0.5008X1.2112*%
%ADD25R,1.2112X0.5008*%
%ADD26R,1.0000X0.8000*%
%ADD27R,0.8000X0.8000*%
G04:AMPARAMS|DCode=29|XSize=1.37mm|YSize=0.46mm|CornerRadius=0.115mm|HoleSize=0mm|Usage=FLASHONLY|Rotation=180.000|XOffset=0mm|YOffset=0mm|HoleType=Round|Shape=RoundedRectangle|*
%AMROUNDEDRECTD29*
21,1,1.3700,0.2300,0,0,180.0*
21,1,1.1400,0.4600,0,0,180.0*
1,1,0.2300,-0.5700,0.1150*
1,1,0.2300,0.5700,0.1150*
1,1,0.2300,0.5700,-0.1150*
1,1,0.2300,-0.5700,-0.1150*
%
%ADD29ROUNDEDRECTD29*%
%ADD30R,1.3208X0.5588*%
%ADD31R,0.5250X0.3000*%
%ADD32R,0.9000X0.7000*%
%ADD33R,0.8000X1.0000*%
%ADD34R,0.7000X0.9000*%
%ADD35R,1.0800X0.2600*%
%ADD36R,0.2600X1.0800*%
%ADD37R,3.7000X3.7000*%
%ADD38R,2.0000X0.4000*%
%ADD39R,2.2000X2.3000*%
%ADD40R,1.9050X2.7940*%
%ADD41R,1.3800X1.8200*%
%ADD42R,0.9300X0.8900*%
%ADD43R,2.1300X3.0000*%
%ADD44R,1.9700X0.6000*%
%ADD45R,1.7200X1.0500*%
%ADD46R,1.5000X1.3000*%
%ADD47R,1.8000X3.8000*%
%ADD48R,1.0000X2.7000*%
%ADD49R,0.5588X1.3208*%
%ADD50R,1.8200X1.1500*%
%ADD51R,2.3700X1.6000*%
%ADD52R,0.4200X0.6600*%
%ADD53R,0.6000X2.2000*%
%ADD54R,0.9144X0.8128*%
%ADD55R,0.9144X3.0988*%
%ADD56R,2.7000X1.1000*%
%ADD96C,1.2700*%
%ADD97R,1.2700X1.2700*%
%ADD100C,1.0000*%
%ADD101C,0.7500*%
%ADD102R,2.3000X1.5000*%
%ADD103O,1.4000X0.3500*%
%ADD104R,1.7300X2.3600*%
%ADD105R,1.6500X2.4500*%
%ADD106C,0.4000*%
%ADD107C,0.3000*%
%ADD108C,0.5000*%
%ADD109C,0.9000*%
%ADD110C,1.7780*%
%ADD111C,0.4000*%
%ADD112C,0.7000*%
G36*
X1709170Y1113648D02*
X1710769D01*
Y1107522D01*
X1707078D01*
Y1090522D01*
X1710555D01*
Y1083416D01*
X1706614D01*
Y1070916D01*
X1708773D01*
Y1066700D01*
X1706832D01*
Y1054200D01*
X1716832D01*
Y1066700D01*
X1714891D01*
Y1070916D01*
X1716614D01*
Y1078870D01*
X1716673Y1079166D01*
Y1090522D01*
X1720578D01*
Y1092951D01*
X1727408D01*
X1728134Y1091864D01*
X1730036Y1090594D01*
X1732280Y1090147D01*
X1734523Y1090594D01*
X1736425Y1091864D01*
X1737696Y1093766D01*
X1738143Y1096010D01*
X1737696Y1098253D01*
X1736425Y1100155D01*
X1734523Y1101426D01*
X1732280Y1101873D01*
X1730036Y1101426D01*
X1728134Y1100155D01*
X1727408Y1099069D01*
X1720578D01*
Y1107522D01*
X1716887D01*
Y1113648D01*
X1728170D01*
Y1125002D01*
X1729290Y1125600D01*
X1729500Y1125460D01*
X1731010Y1123950D01*
X1756591Y1098370D01*
X1756591Y1098370D01*
X1758360Y1096600D01*
X1761139Y1092440D01*
X1763054Y1087818D01*
X1764030Y1082911D01*
Y1080409D01*
Y528410D01*
Y526275D01*
X1763197Y522086D01*
X1761562Y518141D01*
X1759190Y514590D01*
X1757680Y513080D01*
X1736770Y492170D01*
X1735702Y491102D01*
X1733192Y489425D01*
X1730402Y488269D01*
X1727440Y487680D01*
X1460899D01*
X1455992Y488656D01*
X1451370Y490571D01*
X1447209Y493350D01*
X1445441Y495120D01*
X1429839Y510720D01*
X1428071Y512490D01*
X1425291Y516650D01*
X1423376Y521272D01*
X1422400Y526179D01*
Y528681D01*
Y987076D01*
X1433290D01*
Y997510D01*
X1501248D01*
X1502970Y995788D01*
Y979840D01*
X1503210Y978013D01*
X1503916Y976310D01*
X1505030Y974857D01*
Y966840D01*
X1515030D01*
Y972780D01*
X1517730D01*
Y966840D01*
X1527730D01*
Y972780D01*
X1530430D01*
Y966840D01*
X1540430D01*
Y972780D01*
X1543130D01*
Y966840D01*
X1553130D01*
Y971279D01*
X1554400Y971805D01*
X1560120Y966086D01*
Y889502D01*
X1560360Y887675D01*
X1561066Y885972D01*
X1562188Y884510D01*
X1574496Y872202D01*
X1574010Y871029D01*
X1571148D01*
X1558273Y883903D01*
X1557116Y884677D01*
X1555750Y884949D01*
X1529079D01*
X1527965Y886615D01*
X1526146Y887831D01*
X1524000Y888258D01*
X1521854Y887831D01*
X1520035Y886615D01*
X1518819Y884796D01*
X1518392Y882650D01*
X1518819Y880504D01*
X1520035Y878685D01*
X1521854Y877469D01*
X1524000Y877042D01*
X1526146Y877469D01*
X1526658Y877811D01*
X1554272D01*
X1567147Y864937D01*
X1568304Y864163D01*
X1569670Y863891D01*
X1606292D01*
X1609925Y860258D01*
X1609832Y859790D01*
X1610259Y857644D01*
X1611475Y855825D01*
X1613294Y854609D01*
X1615440Y854182D01*
X1617586Y854609D01*
X1619405Y855825D01*
X1620621Y857644D01*
X1620902Y859057D01*
X1622280Y859475D01*
X1633298Y848457D01*
X1632772Y847187D01*
X1572961D01*
X1568490Y851659D01*
Y859170D01*
X1559786D01*
X1559490Y859229D01*
X1559490Y859229D01*
X1558757D01*
X1554883Y863103D01*
X1553891Y863766D01*
X1552720Y863999D01*
X1552720Y863999D01*
X1535580D01*
Y866440D01*
X1522580D01*
Y863999D01*
X1516530D01*
Y866440D01*
X1514808D01*
X1513829Y867710D01*
X1514079Y868968D01*
X1513652Y871114D01*
X1512437Y872934D01*
X1510618Y874149D01*
X1508472Y874576D01*
X1506326Y874149D01*
X1504506Y872934D01*
X1503291Y871114D01*
X1502864Y868968D01*
X1503146Y867551D01*
X1503291Y866822D01*
X1503530Y866440D01*
D01*
X1503530Y866440D01*
Y857499D01*
X1485132D01*
X1484534Y858619D01*
X1484731Y858914D01*
X1485158Y861060D01*
X1484731Y863206D01*
X1483515Y865025D01*
X1482355Y865801D01*
X1482246Y867251D01*
X1482259Y867276D01*
X1483461Y869074D01*
X1483888Y871220D01*
X1483461Y873366D01*
X1482245Y875185D01*
X1480426Y876401D01*
X1478280Y876828D01*
X1476134Y876401D01*
X1474315Y875185D01*
X1474050Y874789D01*
X1440600D01*
X1440335Y875185D01*
X1439811Y875536D01*
Y898490D01*
X1441081Y898875D01*
X1441115Y898824D01*
X1443017Y897554D01*
X1445260Y897107D01*
X1447504Y897554D01*
X1449406Y898824D01*
X1450676Y900726D01*
X1451458Y900834D01*
X1452617Y899919D01*
Y896520D01*
X1450676D01*
Y884020D01*
X1460676D01*
Y896520D01*
X1458735D01*
Y905610D01*
X1461690D01*
Y913565D01*
X1461749Y913860D01*
Y924418D01*
X1464820D01*
X1466049Y924663D01*
X1467091Y925359D01*
X1467787Y926401D01*
X1468032Y927630D01*
Y929930D01*
X1467787Y931159D01*
X1467205Y932030D01*
X1467787Y932901D01*
X1468032Y934130D01*
Y936430D01*
X1467787Y937659D01*
X1467205Y938530D01*
X1467787Y939401D01*
X1468032Y940630D01*
Y942930D01*
X1467787Y944159D01*
X1467205Y945030D01*
X1467787Y945901D01*
X1468032Y947130D01*
Y949430D01*
X1467787Y950659D01*
X1467262Y951445D01*
Y953666D01*
X1468321Y954725D01*
X1469390Y954512D01*
X1471536Y954939D01*
X1473355Y956155D01*
X1473961Y957061D01*
X1484863D01*
X1488421Y953503D01*
X1487935Y952330D01*
X1470170D01*
Y924730D01*
X1491470D01*
Y948795D01*
X1492643Y949281D01*
X1493608Y948316D01*
Y947130D01*
X1493853Y945901D01*
X1494549Y944859D01*
X1495591Y944163D01*
X1496820Y943918D01*
X1508220D01*
X1509449Y944163D01*
X1510491Y944859D01*
X1511187Y945901D01*
X1511432Y947130D01*
Y949430D01*
X1511187Y950659D01*
X1510491Y951701D01*
X1509449Y952397D01*
X1508220Y952642D01*
X1497934D01*
X1489189Y961387D01*
Y972913D01*
X1491782Y975506D01*
X1500092D01*
Y987634D01*
X1486948D01*
Y979324D01*
X1483967Y976343D01*
X1483304Y975350D01*
X1483071Y974180D01*
X1483071Y974180D01*
Y963179D01*
X1473961D01*
X1473355Y964085D01*
X1471536Y965301D01*
X1469390Y965728D01*
X1467244Y965301D01*
X1465425Y964085D01*
X1464209Y962266D01*
X1463782Y960120D01*
X1463995Y959051D01*
X1462040Y957096D01*
X1461377Y956104D01*
X1461144Y954933D01*
X1461144Y954933D01*
Y952642D01*
X1453420D01*
X1452191Y952397D01*
X1451149Y951701D01*
X1450453Y950659D01*
X1450208Y949430D01*
Y947130D01*
X1450228Y947030D01*
X1449422Y946049D01*
X1441242D01*
Y951130D01*
X1431242D01*
Y938630D01*
X1432673D01*
Y929540D01*
X1431242D01*
Y917040D01*
X1432673D01*
Y875365D01*
X1432405Y875185D01*
X1431189Y873366D01*
X1430762Y871220D01*
X1431189Y869074D01*
X1432405Y867255D01*
X1434224Y866039D01*
X1436370Y865612D01*
X1438516Y866039D01*
X1440335Y867255D01*
X1440600Y867651D01*
X1474050D01*
X1474315Y867255D01*
X1475475Y866479D01*
X1475584Y865029D01*
X1475571Y865004D01*
X1474369Y863206D01*
X1473942Y861060D01*
X1474155Y859991D01*
X1466853Y852689D01*
X1455950D01*
Y856630D01*
X1443950D01*
Y842630D01*
X1446891D01*
Y839860D01*
X1446891Y839860D01*
X1447124Y838689D01*
X1447787Y837697D01*
X1448461Y837023D01*
X1447975Y835850D01*
X1429450D01*
Y827850D01*
X1446286D01*
X1447391Y827392D01*
X1447624Y826221D01*
X1448287Y825229D01*
X1460658Y812859D01*
X1460131Y811589D01*
X1453450D01*
Y811850D01*
X1429450D01*
Y803850D01*
X1453450D01*
Y805471D01*
X1461306D01*
X1461792Y804298D01*
X1450124Y792630D01*
X1443450D01*
Y781615D01*
X1442277Y781129D01*
X1439450Y783956D01*
Y792630D01*
X1428450D01*
Y779630D01*
X1435124D01*
X1442621Y772133D01*
Y770080D01*
X1442621Y770080D01*
X1442680Y769784D01*
Y760080D01*
X1445621D01*
Y700160D01*
X1445621Y700160D01*
X1445854Y698989D01*
X1446517Y697997D01*
X1455528Y688986D01*
X1455437Y688767D01*
X1455214Y687070D01*
X1455437Y685373D01*
X1456092Y683792D01*
X1457134Y682434D01*
X1458492Y681392D01*
X1460073Y680737D01*
X1461770Y680514D01*
X1463467Y680737D01*
X1465048Y681392D01*
X1466406Y682434D01*
X1467448Y683792D01*
X1468103Y685373D01*
X1468326Y687070D01*
X1468103Y688767D01*
X1467448Y690348D01*
X1466406Y691706D01*
X1465243Y692598D01*
X1465134Y693320D01*
X1465243Y694042D01*
X1466406Y694934D01*
X1467448Y696292D01*
X1468103Y697873D01*
X1468326Y699570D01*
X1468103Y701267D01*
X1467448Y702848D01*
X1466406Y704206D01*
X1465243Y705098D01*
X1465134Y705820D01*
X1465243Y706542D01*
X1466406Y707434D01*
X1467448Y708792D01*
X1468103Y710373D01*
X1468326Y712070D01*
X1468103Y713767D01*
X1467448Y715348D01*
X1466406Y716706D01*
X1465048Y717748D01*
X1463467Y718403D01*
X1461770Y718626D01*
X1460073Y718403D01*
X1458492Y717748D01*
X1457134Y716706D01*
X1456092Y715348D01*
X1455437Y713767D01*
X1455214Y712070D01*
X1455437Y710373D01*
X1456092Y708792D01*
X1457134Y707434D01*
X1458297Y706542D01*
X1458406Y705820D01*
X1458297Y705098D01*
X1457134Y704206D01*
X1456092Y702848D01*
X1455437Y701267D01*
X1455235Y699727D01*
X1454785Y699435D01*
X1453984Y699182D01*
X1451739Y701427D01*
Y760080D01*
X1454680D01*
Y769754D01*
X1459126Y774200D01*
X1459755D01*
X1459755Y774200D01*
X1460378Y774324D01*
X1461425Y773450D01*
X1461478Y773346D01*
X1461242Y772160D01*
X1461669Y770014D01*
X1462885Y768195D01*
X1464704Y766979D01*
X1466850Y766552D01*
X1468996Y766979D01*
X1470815Y768195D01*
X1472031Y770014D01*
X1472458Y772160D01*
X1472185Y773531D01*
X1472963Y774309D01*
X1473737Y775467D01*
X1473750Y775530D01*
X1484190D01*
Y772030D01*
X1483921Y770680D01*
Y759728D01*
X1482727Y758533D01*
X1481953Y757375D01*
X1481681Y756010D01*
Y653485D01*
X1481362Y652348D01*
X1471774D01*
Y640187D01*
X1466337Y634750D01*
X1465563Y633592D01*
X1465291Y632226D01*
Y594760D01*
X1465563Y593395D01*
X1466337Y592237D01*
X1473087Y585487D01*
X1474245Y584713D01*
X1475610Y584441D01*
X1514690D01*
X1514955Y584045D01*
X1516774Y582829D01*
X1518920Y582402D01*
X1521066Y582829D01*
X1522885Y584045D01*
X1524101Y585864D01*
X1524528Y588010D01*
X1524101Y590156D01*
X1522885Y591975D01*
X1521066Y593191D01*
X1518920Y593618D01*
X1516774Y593191D01*
X1514955Y591975D01*
X1514690Y591579D01*
X1477088D01*
X1475630Y593037D01*
X1476116Y594210D01*
X1481360D01*
Y607210D01*
X1480292D01*
Y611772D01*
X1481362D01*
Y621325D01*
X1481430Y621670D01*
Y629212D01*
X1485571Y633353D01*
X1486344Y634510D01*
X1486616Y635876D01*
Y641471D01*
X1487286Y642000D01*
X1487631Y641977D01*
X1488666Y641621D01*
X1489249Y640214D01*
X1490371Y638751D01*
X1490569Y638599D01*
Y635140D01*
X1500157D01*
Y638288D01*
X1507099D01*
X1508150Y637760D01*
Y620760D01*
X1527150D01*
Y626311D01*
X1527794Y627300D01*
X1529910D01*
Y627110D01*
X1551110D01*
Y641610D01*
X1529910D01*
Y641420D01*
X1527794D01*
Y641468D01*
X1525016Y641194D01*
X1524075Y642047D01*
Y654310D01*
X1527480D01*
Y655000D01*
X1529410D01*
Y654310D01*
X1536418D01*
X1536935Y653060D01*
X1538058Y651598D01*
X1539520Y650475D01*
X1541223Y649770D01*
X1543050Y649530D01*
X1557395D01*
X1558400Y648890D01*
X1558400Y648260D01*
Y638890D01*
X1582100D01*
Y648890D01*
X1573271D01*
X1573018Y650160D01*
X1573780Y650475D01*
X1575233Y651590D01*
X1582100D01*
Y661590D01*
X1575233D01*
X1573780Y662704D01*
X1573018Y663020D01*
X1573271Y664290D01*
X1582100D01*
Y674290D01*
X1577170D01*
Y685800D01*
X1576930Y687627D01*
X1576225Y689330D01*
X1576110Y689479D01*
Y692800D01*
X1570569D01*
X1570110Y692860D01*
X1569651Y692800D01*
X1564110D01*
Y689479D01*
X1563996Y689330D01*
X1563290Y687627D01*
X1563050Y685800D01*
Y674290D01*
X1558400D01*
Y664920D01*
X1558400Y664290D01*
X1557395Y663650D01*
X1551610D01*
Y669810D01*
X1529410D01*
Y669120D01*
X1527480D01*
Y669810D01*
X1505280D01*
Y654310D01*
X1509955D01*
Y652408D01*
X1496967D01*
X1496509Y652348D01*
X1490569D01*
Y649507D01*
X1490089Y649114D01*
X1488819Y649717D01*
Y728391D01*
X1489939Y728990D01*
X1490104Y728879D01*
X1492250Y728452D01*
X1494396Y728879D01*
X1496215Y730095D01*
X1496480Y730491D01*
X1507120D01*
X1508486Y730763D01*
X1509644Y731537D01*
X1509977Y731870D01*
X1511150Y731384D01*
Y726140D01*
X1515171D01*
X1516774Y725069D01*
X1518920Y724642D01*
X1521066Y725069D01*
X1522669Y726140D01*
X1524150D01*
Y728351D01*
X1524528Y730250D01*
X1524150Y732149D01*
Y735071D01*
X1586459D01*
X1587824Y735343D01*
X1588982Y736117D01*
X1608757Y755891D01*
X1632800D01*
X1633065Y755495D01*
X1634884Y754279D01*
X1637030Y753852D01*
X1639176Y754279D01*
X1639322Y754377D01*
X1640442Y753778D01*
Y749455D01*
X1634446Y743459D01*
X1633451Y741971D01*
X1633102Y740215D01*
Y722630D01*
X1633451Y720874D01*
X1634446Y719386D01*
X1640190Y713641D01*
Y708130D01*
X1643511D01*
X1643660Y708016D01*
X1645363Y707310D01*
X1647190Y707070D01*
X1663842D01*
X1665429Y706412D01*
X1667256Y706172D01*
X1669083Y706412D01*
X1670786Y707117D01*
X1672248Y708240D01*
X1672401Y708438D01*
X1675860D01*
Y718026D01*
X1672401D01*
X1672248Y718224D01*
X1671351Y719122D01*
X1669888Y720245D01*
X1668185Y720950D01*
X1666358Y721190D01*
X1647190D01*
X1645801Y721008D01*
X1642278Y724530D01*
Y738315D01*
X1648274Y744311D01*
X1649269Y745799D01*
X1649618Y747555D01*
Y756240D01*
X1669215D01*
X1687460Y737995D01*
X1686974Y736822D01*
X1682020D01*
Y727234D01*
X1697168D01*
Y719896D01*
X1692228D01*
X1690401Y719656D01*
X1688698Y718951D01*
X1687493Y718026D01*
X1682020D01*
Y708438D01*
X1686779D01*
X1687236Y707843D01*
X1688698Y706721D01*
X1690401Y706016D01*
X1692228Y705776D01*
X1697168D01*
Y678180D01*
X1696694Y677640D01*
X1689005D01*
Y645700D01*
X1693470D01*
Y626999D01*
X1682444D01*
Y604799D01*
X1700244D01*
Y608864D01*
X1701717D01*
Y597629D01*
X1700244D01*
Y601687D01*
X1682444D01*
Y586297D01*
X1682378Y586284D01*
X1681221Y585511D01*
X1677128Y581419D01*
X1645628D01*
X1626963Y600083D01*
X1625806Y600857D01*
X1624440Y601129D01*
X1621940D01*
Y605060D01*
X1608940D01*
Y605060D01*
X1607670Y605006D01*
X1603465Y609212D01*
X1603990Y610482D01*
X1608940D01*
Y609060D01*
X1621940D01*
Y620060D01*
X1619518D01*
Y626190D01*
X1631600D01*
Y636190D01*
X1607900D01*
Y626190D01*
X1611362D01*
Y620060D01*
X1608940D01*
Y618638D01*
X1601620D01*
Y620060D01*
X1588620D01*
Y610629D01*
X1578760D01*
Y620060D01*
X1576338D01*
Y626190D01*
X1582100D01*
Y636190D01*
X1558400D01*
Y626190D01*
X1568182D01*
Y620060D01*
X1565760D01*
Y610420D01*
X1565445Y610357D01*
X1564287Y609583D01*
X1552237Y597533D01*
X1551210Y598152D01*
X1551110Y598305D01*
Y612410D01*
X1539895D01*
X1538552Y613752D01*
X1537090Y614874D01*
X1535387Y615580D01*
X1533560Y615820D01*
X1527150D01*
Y618760D01*
X1508150D01*
Y613829D01*
X1503148D01*
X1500157Y616819D01*
Y628980D01*
X1490569D01*
Y611772D01*
X1495111D01*
X1499146Y607737D01*
X1500304Y606963D01*
X1501669Y606691D01*
X1508150D01*
Y601760D01*
X1518691D01*
X1519150Y601700D01*
X1529910D01*
Y597910D01*
X1533450D01*
Y572380D01*
X1533690Y570553D01*
X1534395Y568850D01*
X1535518Y567388D01*
X1542340Y560565D01*
Y554990D01*
X1542400Y554531D01*
Y539490D01*
X1556400D01*
Y539490D01*
X1557400D01*
Y539490D01*
X1571130D01*
X1571400Y539490D01*
X1572400D01*
X1572670Y539490D01*
X1582074D01*
X1589521Y532043D01*
Y529081D01*
X1588615Y528475D01*
X1587399Y526656D01*
X1586972Y524510D01*
X1587399Y522364D01*
X1588615Y520545D01*
X1590434Y519329D01*
X1592580Y518902D01*
X1594726Y519329D01*
X1596545Y520545D01*
X1597761Y522364D01*
X1598188Y524510D01*
X1597761Y526656D01*
X1596545Y528475D01*
X1595639Y529081D01*
Y533310D01*
X1595639Y533310D01*
X1595406Y534481D01*
X1594743Y535473D01*
X1594743Y535473D01*
X1591899Y538317D01*
X1592385Y539490D01*
X1601400D01*
Y570490D01*
X1587400D01*
Y570490D01*
X1586400D01*
Y570490D01*
X1572670D01*
X1572400Y570490D01*
X1571400D01*
X1571130Y570490D01*
X1557400D01*
X1557400Y570490D01*
X1556400D01*
Y570490D01*
X1556130Y570490D01*
X1552385D01*
X1547570Y575304D01*
Y588075D01*
X1548840Y588460D01*
X1549245Y587855D01*
X1551064Y586639D01*
X1553210Y586212D01*
X1555356Y586639D01*
X1557175Y587855D01*
X1558391Y589674D01*
X1558818Y591820D01*
X1558453Y593656D01*
X1568288Y603491D01*
X1599092D01*
X1603917Y598666D01*
X1605074Y597893D01*
X1606440Y597621D01*
X1608940D01*
Y594060D01*
X1617095D01*
X1617440Y593991D01*
X1622962D01*
X1641627Y575327D01*
X1642784Y574553D01*
X1644150Y574281D01*
X1678607D01*
X1679972Y574553D01*
X1681130Y575327D01*
X1685222Y579419D01*
X1685944D01*
X1686289Y579487D01*
X1700244D01*
Y583508D01*
X1717310D01*
Y579450D01*
X1735110D01*
Y601650D01*
X1717310D01*
Y597629D01*
X1715837D01*
Y608864D01*
X1717310D01*
Y604850D01*
X1735110D01*
Y627050D01*
X1717310D01*
Y622985D01*
X1711702D01*
X1707590Y627096D01*
Y644740D01*
X1717310D01*
Y636600D01*
X1735110D01*
Y658800D01*
X1724769D01*
X1724310Y658860D01*
X1712055D01*
Y671120D01*
X1717310D01*
Y664540D01*
X1735110D01*
Y686740D01*
X1717310D01*
Y685240D01*
X1711288D01*
Y705776D01*
X1717016D01*
X1718843Y706016D01*
X1720546Y706721D01*
X1722008Y707843D01*
X1722295Y708130D01*
X1725310D01*
Y710426D01*
X1729590D01*
Y708360D01*
X1742590D01*
Y719360D01*
X1729590D01*
Y717564D01*
X1725310D01*
Y720130D01*
X1721989D01*
X1721840Y720245D01*
X1720137Y720950D01*
X1718310Y721190D01*
X1716483Y720950D01*
X1714780Y720245D01*
X1714631Y720130D01*
X1711310D01*
X1711288Y721391D01*
Y731212D01*
Y837154D01*
X1711048Y838981D01*
X1710343Y840684D01*
X1709496Y841788D01*
X1709910Y842858D01*
X1710105Y843058D01*
X1725898D01*
Y852646D01*
X1708690D01*
Y844473D01*
X1707420Y843947D01*
X1702530Y848837D01*
Y852646D01*
X1698661D01*
X1697456Y853570D01*
X1695753Y854276D01*
X1693926Y854516D01*
X1692099Y854276D01*
X1690396Y853570D01*
X1689191Y852646D01*
X1685322D01*
Y843058D01*
X1688477D01*
X1688934Y842464D01*
X1697168Y834230D01*
Y749917D01*
X1695994Y749431D01*
X1679200Y766225D01*
Y771240D01*
X1648200D01*
Y767752D01*
X1647027Y767266D01*
X1642998Y771294D01*
Y836961D01*
X1644268Y837487D01*
X1653119Y828636D01*
Y798240D01*
X1648200D01*
Y783240D01*
X1679200D01*
Y798240D01*
X1667240D01*
Y831561D01*
X1666999Y833388D01*
X1666294Y835091D01*
X1665172Y836553D01*
X1620773Y880952D01*
X1619310Y882074D01*
X1617607Y882780D01*
X1615780Y883020D01*
X1602054D01*
X1601455Y884140D01*
X1601571Y884314D01*
X1601998Y886460D01*
X1601571Y888606D01*
X1600355Y890425D01*
X1600350Y890428D01*
X1600189Y892064D01*
X1603012Y894887D01*
X1613010D01*
X1614473Y895178D01*
X1615714Y896006D01*
X1616542Y897247D01*
X1616833Y898710D01*
X1616542Y900173D01*
X1616069Y900881D01*
X1616721Y902151D01*
X1619960D01*
X1620365Y901545D01*
X1622184Y900329D01*
X1624330Y899902D01*
X1626476Y900329D01*
X1628295Y901545D01*
X1629511Y903364D01*
X1629938Y905510D01*
X1629511Y907656D01*
X1628295Y909475D01*
X1626476Y910691D01*
X1624330Y911118D01*
X1622184Y910691D01*
X1620365Y909475D01*
X1619559Y908269D01*
X1616722D01*
X1616069Y909539D01*
X1616542Y910247D01*
X1616833Y911710D01*
X1616542Y913173D01*
X1615914Y914113D01*
X1615792Y914960D01*
X1615914Y915807D01*
X1616542Y916747D01*
X1616833Y918210D01*
X1616542Y919673D01*
X1616069Y920381D01*
X1616722Y921651D01*
X1617760D01*
X1617760Y921651D01*
X1617788Y921657D01*
X1619149Y921144D01*
X1620365Y919325D01*
X1622184Y918109D01*
X1624330Y917682D01*
X1626476Y918109D01*
X1628295Y919325D01*
X1629511Y921144D01*
X1629938Y923290D01*
X1629511Y925436D01*
X1628295Y927255D01*
X1626476Y928471D01*
X1624330Y928898D01*
X1622184Y928471D01*
X1621378Y927932D01*
X1617923D01*
X1617102Y927769D01*
X1616721D01*
X1616069Y929039D01*
X1616542Y929747D01*
X1616833Y931210D01*
X1616542Y932673D01*
X1615714Y933913D01*
Y935006D01*
X1616542Y936247D01*
X1616833Y937710D01*
X1616542Y939173D01*
X1615714Y940414D01*
X1614473Y941242D01*
X1613010Y941533D01*
X1602510D01*
X1601047Y941242D01*
X1599806Y940414D01*
X1598978Y939173D01*
X1598687Y937710D01*
X1598978Y936247D01*
X1599451Y935539D01*
X1598798Y934269D01*
X1597814D01*
X1597747Y934282D01*
X1597747Y934282D01*
X1595022D01*
X1593851Y934049D01*
X1593294Y933677D01*
X1591704Y933361D01*
X1589885Y932145D01*
X1588669Y930326D01*
X1588242Y928180D01*
X1588669Y926034D01*
X1589783Y924367D01*
X1589885Y924215D01*
X1589633Y922856D01*
X1588615Y922175D01*
X1587399Y920356D01*
X1586972Y918210D01*
X1587399Y916064D01*
X1588615Y914245D01*
X1589775Y913469D01*
X1589884Y912019D01*
X1589871Y911994D01*
X1588669Y910196D01*
X1588242Y908050D01*
X1588669Y905904D01*
X1589885Y904085D01*
X1591704Y902869D01*
X1593850Y902442D01*
X1595996Y902869D01*
X1597639Y903967D01*
X1598570Y903814D01*
X1599047Y903643D01*
X1599606Y902807D01*
X1599728Y901960D01*
X1599606Y901113D01*
X1598978Y900173D01*
X1598811Y899337D01*
X1594227Y894753D01*
X1593564Y893761D01*
X1593331Y892590D01*
X1593331Y892590D01*
Y891031D01*
X1592425Y890425D01*
X1591209Y888606D01*
X1590782Y886460D01*
X1591209Y884314D01*
X1591325Y884140D01*
X1590726Y883020D01*
X1583647D01*
X1574240Y892427D01*
Y966086D01*
X1577663Y969508D01*
X1578784Y970970D01*
X1579490Y972673D01*
X1579730Y974500D01*
Y1000590D01*
X1583070D01*
X1584897Y1000830D01*
X1586038Y1001303D01*
X1587161Y1000437D01*
X1586972Y999490D01*
X1587399Y997344D01*
X1588615Y995525D01*
X1590434Y994309D01*
X1592580Y993882D01*
X1594726Y994309D01*
X1596545Y995525D01*
X1597761Y997344D01*
X1598188Y999490D01*
X1597761Y1001636D01*
X1596545Y1003455D01*
X1596270Y1003639D01*
Y1012950D01*
X1587662D01*
X1586600Y1013764D01*
X1585933Y1014041D01*
X1586186Y1015311D01*
X1594270D01*
X1594467Y1015350D01*
X1596270D01*
Y1017111D01*
X1599720D01*
X1600500Y1017266D01*
X1601162Y1017708D01*
X1601604Y1018370D01*
X1601759Y1019150D01*
Y1024850D01*
X1601604Y1025630D01*
X1601162Y1026292D01*
X1600500Y1026734D01*
X1599720Y1026889D01*
X1596309D01*
Y1040350D01*
X1596154Y1041130D01*
X1595712Y1041792D01*
X1595050Y1042234D01*
X1594270Y1042389D01*
X1590070D01*
X1589480Y1042873D01*
Y1048350D01*
X1589240Y1050177D01*
X1588535Y1051880D01*
X1587412Y1053342D01*
X1582545Y1058210D01*
X1597572Y1073238D01*
X1598694Y1074700D01*
X1599400Y1076403D01*
X1599640Y1078230D01*
X1599400Y1080057D01*
X1598694Y1081760D01*
X1597572Y1083222D01*
X1596110Y1084344D01*
X1594407Y1085050D01*
X1592580Y1085290D01*
X1590753Y1085050D01*
X1589050Y1084344D01*
X1587588Y1083222D01*
X1572560Y1068195D01*
X1571502Y1069252D01*
X1570040Y1070375D01*
X1568337Y1071080D01*
X1566510Y1071320D01*
X1547570D01*
Y1104195D01*
X1547804Y1104499D01*
X1548645Y1106530D01*
X1548932Y1108710D01*
X1548645Y1110890D01*
X1547804Y1112921D01*
X1546465Y1114665D01*
X1544721Y1116004D01*
X1542690Y1116845D01*
X1540510Y1117132D01*
X1538330Y1116845D01*
X1536299Y1116004D01*
X1534555Y1114665D01*
X1533216Y1112921D01*
X1532375Y1110890D01*
X1532088Y1108710D01*
X1532375Y1106530D01*
X1533216Y1104499D01*
X1533450Y1104195D01*
Y1071320D01*
X1507490D01*
X1505663Y1071080D01*
X1503960Y1070375D01*
X1502498Y1069252D01*
X1488528Y1055282D01*
X1487406Y1053820D01*
X1486700Y1052117D01*
X1486460Y1050290D01*
Y1027570D01*
X1486700Y1025743D01*
X1486948Y1025144D01*
Y1021506D01*
X1489924D01*
X1489990Y1021456D01*
X1491693Y1020750D01*
X1493520Y1020510D01*
X1495347Y1020750D01*
X1497050Y1021456D01*
X1497116Y1021506D01*
X1500092D01*
Y1025144D01*
X1500340Y1025743D01*
X1500580Y1027570D01*
Y1047365D01*
X1510414Y1057200D01*
X1535990D01*
Y1044840D01*
X1530430D01*
Y1037030D01*
X1527730D01*
Y1044840D01*
X1517730D01*
Y1036823D01*
X1516615Y1035370D01*
X1516300Y1034608D01*
X1515030Y1034861D01*
Y1044840D01*
X1505030D01*
Y1033657D01*
X1504849Y1033386D01*
X1504422Y1031240D01*
X1504849Y1029094D01*
X1505030Y1028823D01*
Y1018840D01*
X1515030D01*
Y1028173D01*
X1515251Y1028285D01*
X1516615Y1028310D01*
X1517730Y1026857D01*
Y1018840D01*
X1527730D01*
Y1022910D01*
X1530430D01*
Y1018840D01*
X1540430D01*
Y1025763D01*
X1541957Y1027290D01*
X1543130Y1026804D01*
Y1018840D01*
X1553130D01*
Y1044840D01*
X1550110D01*
Y1057200D01*
X1563586D01*
X1569473Y1051313D01*
X1575360Y1045425D01*
Y1042873D01*
X1574770Y1042389D01*
X1570570D01*
X1569790Y1042234D01*
X1569128Y1041792D01*
X1568686Y1041130D01*
X1568531Y1040350D01*
Y1026889D01*
X1565120D01*
X1564340Y1026734D01*
X1563678Y1026292D01*
X1563236Y1025630D01*
X1563081Y1024850D01*
Y1019150D01*
X1563236Y1018370D01*
X1563678Y1017708D01*
X1564340Y1017266D01*
X1565120Y1017111D01*
X1568570D01*
Y1015350D01*
X1569649D01*
X1569902Y1014080D01*
X1569140Y1013764D01*
X1567678Y1012643D01*
X1566555Y1011180D01*
X1565850Y1009477D01*
X1565610Y1007650D01*
Y982225D01*
X1564436Y981739D01*
X1561342Y984832D01*
X1559880Y985955D01*
X1558177Y986660D01*
X1556350Y986900D01*
X1553130D01*
Y992840D01*
X1543130D01*
Y986900D01*
X1540430D01*
Y992840D01*
X1530430D01*
Y986900D01*
X1527730D01*
Y992840D01*
X1517730D01*
X1517090Y993845D01*
Y998712D01*
X1516850Y1000539D01*
X1516145Y1002242D01*
X1515022Y1003705D01*
X1509165Y1009562D01*
X1507702Y1010685D01*
X1505999Y1011390D01*
X1504172Y1011630D01*
X1433778D01*
Y1051684D01*
X1455332Y1073238D01*
X1456454Y1074700D01*
X1457160Y1076403D01*
X1457400Y1078230D01*
X1457160Y1080057D01*
X1456454Y1081760D01*
X1455332Y1083222D01*
X1453870Y1084344D01*
X1452167Y1085050D01*
X1450340Y1085290D01*
X1448513Y1085050D01*
X1446810Y1084344D01*
X1445348Y1083222D01*
X1423573Y1061448D01*
X1422400Y1061934D01*
Y1090096D01*
Y1091804D01*
X1423067Y1095155D01*
X1424374Y1098311D01*
X1426272Y1101152D01*
X1427480Y1102360D01*
X1447980Y1122860D01*
X1447980Y1122860D01*
Y1122860D01*
X1449749Y1124629D01*
X1453910Y1127409D01*
X1458532Y1129324D01*
X1463439Y1130300D01*
X1685530D01*
Y1126259D01*
X1673110D01*
X1673110Y1126259D01*
X1671940Y1126026D01*
X1670947Y1125363D01*
X1670947Y1125363D01*
X1665166Y1119582D01*
X1662733Y1120590D01*
X1659890Y1120964D01*
X1657047Y1120590D01*
X1654398Y1119492D01*
X1652123Y1117747D01*
X1650378Y1115472D01*
X1649280Y1112823D01*
X1648906Y1109980D01*
X1649280Y1107137D01*
X1650378Y1104488D01*
X1652123Y1102213D01*
X1654398Y1100468D01*
X1655601Y1099969D01*
Y1071691D01*
X1654424Y1070974D01*
X1654331Y1070987D01*
X1653723Y1071898D01*
X1637549Y1088072D01*
Y1099460D01*
X1639982Y1100468D01*
X1642257Y1102213D01*
X1644002Y1104488D01*
X1645100Y1107137D01*
X1645474Y1109980D01*
X1645100Y1112823D01*
X1644002Y1115472D01*
X1642257Y1117747D01*
X1639982Y1119492D01*
X1637333Y1120590D01*
X1634490Y1120964D01*
X1631647Y1120590D01*
X1628998Y1119492D01*
X1626723Y1117747D01*
X1624978Y1115472D01*
X1623880Y1112823D01*
X1623506Y1109980D01*
X1623880Y1107137D01*
X1624978Y1104488D01*
X1626723Y1102213D01*
X1628998Y1100468D01*
X1631431Y1099460D01*
Y1086805D01*
X1631431Y1086805D01*
X1631664Y1085634D01*
X1632327Y1084642D01*
X1648501Y1068468D01*
Y1054946D01*
X1647649Y1054384D01*
X1647231Y1054367D01*
X1646813Y1054993D01*
X1646813Y1054993D01*
X1644273Y1057533D01*
X1643280Y1058196D01*
X1642110Y1058429D01*
X1642110Y1058429D01*
X1628042D01*
X1628042Y1058429D01*
X1626871Y1058196D01*
X1625879Y1057533D01*
X1625879Y1057533D01*
X1624707Y1056361D01*
X1624044Y1055369D01*
X1623811Y1054198D01*
X1623811Y1054198D01*
Y1046400D01*
X1620620D01*
Y1036400D01*
X1624453D01*
X1624724Y1036219D01*
X1626870Y1035792D01*
X1629016Y1036219D01*
X1629287Y1036400D01*
X1633120D01*
Y1046400D01*
X1629929D01*
Y1052311D01*
X1640843D01*
X1641413Y1051741D01*
Y1045230D01*
X1641599Y1044294D01*
X1642130Y1043500D01*
X1642924Y1042969D01*
X1643860Y1042783D01*
X1646260D01*
X1647196Y1042969D01*
X1647376Y1043090D01*
X1648310Y1043395D01*
X1649244Y1043090D01*
X1649424Y1042969D01*
X1650360Y1042783D01*
X1652760D01*
X1653696Y1042969D01*
X1653876Y1043090D01*
X1654810Y1043395D01*
X1655744Y1043090D01*
X1655924Y1042969D01*
X1656860Y1042783D01*
X1659260D01*
X1660196Y1042969D01*
X1660376Y1043090D01*
X1661310Y1043395D01*
X1662244Y1043090D01*
X1662424Y1042969D01*
X1663360Y1042783D01*
X1665760D01*
X1666696Y1042969D01*
X1667490Y1043500D01*
X1668021Y1044294D01*
X1668207Y1045230D01*
Y1050151D01*
X1672427Y1054371D01*
X1672984Y1053999D01*
X1675130Y1053572D01*
X1677276Y1053999D01*
X1679095Y1055215D01*
X1680311Y1057034D01*
X1680738Y1059180D01*
X1680311Y1061326D01*
X1679095Y1063145D01*
X1677276Y1064361D01*
X1676873Y1064441D01*
X1676504Y1065656D01*
X1681705Y1070857D01*
X1697170D01*
X1697170Y1070857D01*
X1697466Y1070916D01*
X1704170D01*
Y1083416D01*
X1694170D01*
Y1076975D01*
X1680438D01*
X1680438Y1076975D01*
X1679267Y1076742D01*
X1678275Y1076079D01*
X1678275Y1076079D01*
X1662892Y1060696D01*
X1661719Y1061182D01*
Y1099237D01*
X1662733Y1099370D01*
X1665166Y1100378D01*
X1668685Y1096859D01*
X1668685Y1096859D01*
X1669677Y1096196D01*
X1670848Y1095963D01*
X1670848Y1095963D01*
X1686331D01*
X1686849Y1094738D01*
X1686237Y1094064D01*
X1685290Y1094253D01*
X1683047Y1093806D01*
X1681145Y1092535D01*
X1679874Y1090633D01*
X1679427Y1088390D01*
X1679874Y1086146D01*
X1681145Y1084245D01*
X1683047Y1082974D01*
X1685290Y1082527D01*
X1687534Y1082974D01*
X1689435Y1084245D01*
X1690706Y1086146D01*
X1691153Y1088390D01*
X1690930Y1089507D01*
X1691780Y1090463D01*
X1693578D01*
X1693578Y1090463D01*
X1693874Y1090522D01*
X1704078D01*
Y1107522D01*
X1690578D01*
Y1102081D01*
X1672115D01*
X1669492Y1104704D01*
X1670500Y1107137D01*
X1670874Y1109980D01*
X1670500Y1112823D01*
X1669492Y1115256D01*
X1674377Y1120141D01*
X1685530D01*
Y1113700D01*
X1704530D01*
Y1130300D01*
X1709170D01*
Y1113648D01*
D02*
G37*
G36*
X1594270Y1024850D02*
X1599720D01*
Y1019150D01*
X1594270D01*
Y1017350D01*
X1570570D01*
Y1019150D01*
X1565120D01*
Y1024850D01*
X1570570D01*
Y1040350D01*
X1574770D01*
Y1035650D01*
X1577070D01*
Y1040350D01*
X1581270D01*
Y1035650D01*
X1583570D01*
Y1040350D01*
X1587770D01*
Y1035650D01*
X1590070D01*
Y1040350D01*
X1594270D01*
Y1024850D01*
D02*
G37*
G36*
X1567817Y839355D02*
X1569305Y838360D01*
X1571061Y838011D01*
X1632001D01*
X1633822Y836189D01*
Y834690D01*
X1628015D01*
X1626870Y834918D01*
X1625725Y834690D01*
X1622910D01*
Y833279D01*
X1622905Y833275D01*
X1621689Y831456D01*
X1621262Y829310D01*
X1621540Y827915D01*
X1620353Y826729D01*
X1615910D01*
Y827170D01*
X1606660D01*
Y820170D01*
Y813670D01*
Y807170D01*
X1608084D01*
Y799480D01*
X1606020D01*
Y785480D01*
X1612531D01*
X1623629Y774382D01*
X1625117Y773388D01*
X1626873Y773039D01*
X1628276D01*
X1635425Y765890D01*
X1635056Y764675D01*
X1634884Y764641D01*
X1633065Y763425D01*
X1632800Y763029D01*
X1607279D01*
X1605913Y762757D01*
X1604755Y761983D01*
X1584981Y742209D01*
X1541930D01*
Y752140D01*
X1528930D01*
Y750209D01*
X1524150D01*
Y752140D01*
X1521869D01*
Y758549D01*
X1521597Y759915D01*
X1521059Y760721D01*
Y770680D01*
X1520790Y772030D01*
Y778080D01*
X1486740D01*
Y785530D01*
Y797130D01*
X1471940D01*
Y796359D01*
X1471927Y796356D01*
X1470934Y795693D01*
X1470934Y795693D01*
X1464837Y789595D01*
X1464174Y788603D01*
X1463941Y787433D01*
X1463941Y787432D01*
Y785771D01*
X1458488Y780318D01*
X1457859D01*
X1456688Y780085D01*
X1455696Y779422D01*
X1455696Y779422D01*
X1455590Y779315D01*
X1454450Y779972D01*
Y788304D01*
X1466917Y800771D01*
X1471940D01*
Y800530D01*
X1486740D01*
Y810530D01*
Y822130D01*
X1471940D01*
Y821889D01*
X1465936D01*
X1463963Y823861D01*
X1464382Y825239D01*
X1465186Y825399D01*
X1467005Y826615D01*
X1468221Y828434D01*
X1468648Y830580D01*
X1468403Y831810D01*
X1469396Y833080D01*
X1473678D01*
X1473678Y833080D01*
X1474849Y833312D01*
X1475841Y833976D01*
X1478481Y836615D01*
X1479550Y836402D01*
X1481696Y836829D01*
X1483515Y838045D01*
X1484731Y839864D01*
X1484845Y840440D01*
X1489431D01*
Y834380D01*
X1489190D01*
Y819580D01*
X1528240D01*
Y815530D01*
X1542818D01*
X1543558Y814475D01*
X1541272Y812189D01*
X1535940D01*
X1535645Y812130D01*
X1528240D01*
Y805530D01*
Y795530D01*
Y785530D01*
Y775530D01*
X1534180D01*
X1534474Y775333D01*
X1535840Y775061D01*
X1539032D01*
X1556490Y757603D01*
Y748650D01*
X1568490D01*
Y762650D01*
X1561537D01*
X1545099Y779088D01*
X1545585Y780261D01*
X1548860D01*
X1550226Y780533D01*
X1551383Y781307D01*
X1554718Y784641D01*
X1562760D01*
X1563105Y784710D01*
X1570260D01*
Y795771D01*
X1572260D01*
X1572260Y795771D01*
X1572990Y795916D01*
X1574260Y795147D01*
Y784710D01*
X1575556D01*
Y779430D01*
X1572490D01*
Y767430D01*
X1584490D01*
Y779430D01*
X1582694D01*
Y784710D01*
X1585260D01*
Y797710D01*
X1577125D01*
X1576639Y798883D01*
X1584926Y807170D01*
X1588660D01*
Y813670D01*
Y820670D01*
X1584380D01*
X1584035Y820739D01*
X1582910D01*
X1582565Y820670D01*
X1579410D01*
Y819239D01*
X1578725D01*
X1577359Y818967D01*
X1576284Y818249D01*
X1571075D01*
X1570537Y819519D01*
X1570904Y820239D01*
X1571154Y820406D01*
X1573533Y822784D01*
X1573533Y822785D01*
X1574196Y823777D01*
X1574289Y824246D01*
X1577155Y827111D01*
X1579410D01*
Y826670D01*
X1588660D01*
Y833670D01*
X1579410D01*
Y833229D01*
X1575888D01*
X1574717Y832996D01*
X1573725Y832333D01*
X1573725Y832333D01*
X1569207Y827815D01*
X1568544Y826823D01*
X1568451Y826354D01*
X1567724Y825628D01*
X1559506D01*
X1559506Y825628D01*
X1558336Y825395D01*
X1557689Y824962D01*
X1556558Y825406D01*
X1556419Y825525D01*
Y832978D01*
X1556626Y833019D01*
X1558445Y834235D01*
X1559661Y836054D01*
X1560088Y838200D01*
X1559661Y840346D01*
X1558445Y842165D01*
X1557090Y843071D01*
X1556773Y844409D01*
X1556806Y844640D01*
X1557180Y845111D01*
X1559490D01*
X1559490Y845111D01*
X1559786Y845170D01*
X1562001D01*
X1567817Y839355D01*
D02*
G37*
G36*
X1622910Y811094D02*
Y808690D01*
X1633822D01*
Y782131D01*
X1632552Y781452D01*
X1631933Y781866D01*
X1630177Y782215D01*
X1628774D01*
X1618020Y792969D01*
Y799480D01*
X1615221D01*
Y807170D01*
X1615910D01*
Y810763D01*
X1616958Y811415D01*
X1617180Y811414D01*
X1619250Y811002D01*
X1621396Y811429D01*
X1621790Y811692D01*
X1622910Y811094D01*
D02*
G37*
%LPC*%
G36*
X1659260Y1024777D02*
X1656860D01*
X1655924Y1024591D01*
X1655744Y1024471D01*
X1654810Y1024165D01*
X1653876Y1024471D01*
X1653696Y1024591D01*
X1652760Y1024777D01*
X1650360D01*
X1649424Y1024591D01*
X1648630Y1024060D01*
X1648099Y1023266D01*
X1647913Y1022330D01*
Y1015530D01*
X1648099Y1014594D01*
X1648501Y1013992D01*
Y1006141D01*
X1645737Y1003377D01*
X1645461Y1002964D01*
X1638400D01*
Y992964D01*
X1648981D01*
X1649467Y991791D01*
X1648255Y990579D01*
X1646650D01*
X1646355Y990520D01*
X1638400D01*
Y986039D01*
X1609090D01*
X1607919Y985806D01*
X1606927Y985143D01*
X1594919Y973135D01*
X1593850Y973348D01*
X1591704Y972921D01*
X1589885Y971705D01*
X1588669Y969886D01*
X1588242Y967740D01*
X1588669Y965594D01*
X1589885Y963775D01*
X1591704Y962559D01*
X1593850Y962132D01*
X1595996Y962559D01*
X1597815Y963775D01*
X1599031Y965594D01*
X1599458Y967740D01*
X1599245Y968809D01*
X1610357Y979921D01*
X1640079D01*
X1640685Y979015D01*
X1642504Y977799D01*
X1644650Y977372D01*
X1646796Y977799D01*
X1648615Y979015D01*
X1649621Y980520D01*
X1650900D01*
Y984833D01*
X1651685Y985357D01*
X1657413Y991085D01*
X1658586Y990599D01*
Y990234D01*
X1667594D01*
Y1005291D01*
X1668864Y1005817D01*
X1673498Y1001183D01*
X1673498Y1001183D01*
X1674490Y1000520D01*
X1675661Y1000287D01*
X1677586D01*
Y990234D01*
X1686594D01*
Y1006346D01*
X1685479D01*
Y1013448D01*
X1686895Y1014395D01*
X1688166Y1016296D01*
X1688613Y1018540D01*
X1688166Y1020783D01*
X1686895Y1022685D01*
X1684993Y1023956D01*
X1682750Y1024403D01*
X1680506Y1023956D01*
X1678604Y1022685D01*
X1677334Y1020783D01*
X1676887Y1018540D01*
X1677334Y1016296D01*
X1678604Y1014395D01*
X1679361Y1013889D01*
Y1006405D01*
X1676928D01*
X1671520Y1011813D01*
X1670527Y1012476D01*
X1669357Y1012709D01*
X1669357Y1012709D01*
X1665699D01*
X1662880Y1015527D01*
X1662786Y1016001D01*
X1662123Y1016993D01*
X1662123Y1016993D01*
X1661707Y1017409D01*
Y1022330D01*
X1661521Y1023266D01*
X1660990Y1024060D01*
X1660196Y1024591D01*
X1659260Y1024777D01*
D02*
G37*
G36*
X1730930Y1003200D02*
X1720930D01*
Y995246D01*
X1720871Y994950D01*
X1720871Y994950D01*
Y994927D01*
X1716607Y990663D01*
X1715434Y991149D01*
Y1001930D01*
X1705434D01*
Y993976D01*
X1705375Y993680D01*
X1705375Y993680D01*
Y991875D01*
X1698920Y985420D01*
X1693246D01*
Y980229D01*
X1686594D01*
Y983346D01*
X1677586D01*
Y967234D01*
X1686594D01*
Y974111D01*
X1693246D01*
Y972920D01*
X1703246D01*
Y981094D01*
X1704517Y982365D01*
X1705690Y981879D01*
Y972920D01*
X1715690D01*
Y981094D01*
X1721698Y987102D01*
X1722871Y986616D01*
Y985420D01*
X1722200D01*
Y972920D01*
X1732200D01*
Y985420D01*
X1728989D01*
Y990700D01*
X1730930D01*
Y1003200D01*
D02*
G37*
G36*
X1738630Y1003828D02*
X1736484Y1003401D01*
X1736183Y1003200D01*
X1733374D01*
Y999988D01*
X1733022Y998220D01*
X1733374Y996452D01*
Y990700D01*
X1741824D01*
X1750811Y981713D01*
Y968733D01*
X1750695Y968607D01*
X1749897Y968697D01*
X1749323Y968993D01*
X1749126Y969984D01*
X1747856Y971886D01*
X1745954Y973156D01*
X1744644Y973417D01*
Y976370D01*
X1745081Y977024D01*
X1745508Y979170D01*
X1745081Y981316D01*
X1744644Y981970D01*
Y985420D01*
X1734644D01*
Y980938D01*
X1734292Y979170D01*
X1734644Y977402D01*
Y972920D01*
X1739001D01*
X1739407Y971650D01*
X1738294Y969984D01*
X1737847Y967740D01*
X1738294Y965497D01*
X1739565Y963595D01*
X1741113Y962560D01*
X1740728Y961290D01*
X1735914D01*
Y948790D01*
X1739855D01*
Y946881D01*
X1739855Y946881D01*
X1740088Y945710D01*
X1740751Y944718D01*
X1746173Y939296D01*
Y935224D01*
X1739962Y929013D01*
X1731657D01*
Y931010D01*
X1733598D01*
Y943510D01*
X1723598D01*
Y937169D01*
X1717546D01*
Y938614D01*
X1701434D01*
Y929606D01*
X1717546D01*
Y931051D01*
X1723598D01*
Y931010D01*
X1725539D01*
Y921920D01*
X1723726D01*
Y909420D01*
X1725667D01*
Y899060D01*
X1723726D01*
Y886560D01*
X1729464D01*
X1729950Y885387D01*
X1728242Y883679D01*
X1711198D01*
X1709832Y883407D01*
X1708675Y882633D01*
X1697708Y871667D01*
X1696326Y872591D01*
X1694180Y873018D01*
X1692034Y872591D01*
X1690315Y871442D01*
X1685322D01*
Y869768D01*
X1680860D01*
Y871750D01*
X1666860D01*
Y859750D01*
X1680860D01*
Y862630D01*
X1685322D01*
Y861854D01*
X1693920D01*
X1694180Y861802D01*
X1694440Y861854D01*
X1702530D01*
Y866395D01*
X1707420Y871285D01*
X1708690Y870759D01*
X1708690Y870465D01*
X1708690Y870465D01*
X1708690Y870455D01*
Y861854D01*
X1725898D01*
Y863589D01*
X1732900D01*
Y859750D01*
X1746900D01*
Y868424D01*
X1756033Y877557D01*
X1756033Y877557D01*
X1756696Y878549D01*
X1756929Y879720D01*
X1756929Y879720D01*
Y929620D01*
X1756929Y929620D01*
X1756929Y929620D01*
Y982980D01*
X1756696Y984150D01*
X1756033Y985143D01*
X1744025Y997151D01*
X1744238Y998220D01*
X1743811Y1000366D01*
X1743374Y1001020D01*
Y1003200D01*
X1741077D01*
X1740776Y1003401D01*
X1738630Y1003828D01*
D02*
G37*
G36*
X1733470Y961290D02*
X1723470D01*
Y956169D01*
X1717546D01*
Y957614D01*
X1701434D01*
Y948606D01*
X1717546D01*
Y950051D01*
X1723470D01*
Y948790D01*
X1733470D01*
Y961290D01*
D02*
G37*
G36*
X1545382Y943510D02*
X1535382D01*
Y939485D01*
X1535329Y939406D01*
X1534902Y937260D01*
X1535329Y935114D01*
X1535382Y935035D01*
Y931010D01*
X1545382D01*
Y934652D01*
X1545691Y935114D01*
X1546118Y937260D01*
X1545691Y939406D01*
X1545382Y939868D01*
Y943510D01*
D02*
G37*
G36*
X1493440Y918110D02*
X1483440D01*
Y905610D01*
X1493440D01*
Y918110D01*
D02*
G37*
G36*
X1474134D02*
X1464134D01*
Y913372D01*
X1463782Y911604D01*
X1464134Y909836D01*
Y905610D01*
X1474134D01*
Y908804D01*
X1474571Y909458D01*
X1474998Y911604D01*
X1474571Y913750D01*
X1474134Y914404D01*
Y918110D01*
D02*
G37*
G36*
X1667594Y983346D02*
X1658586D01*
Y971560D01*
X1647567Y960541D01*
X1646904Y959549D01*
X1646671Y958378D01*
X1646671Y958378D01*
Y922020D01*
X1646671Y922020D01*
X1646904Y920850D01*
X1647490Y919973D01*
X1647374Y919498D01*
X1646940Y918688D01*
X1645044Y918311D01*
X1643225Y917095D01*
X1642009Y915276D01*
X1641582Y913130D01*
X1642009Y910984D01*
X1643225Y909165D01*
X1645044Y907949D01*
X1647190Y907522D01*
X1649336Y907949D01*
X1650816Y908938D01*
X1655080D01*
X1655354Y908551D01*
X1655643Y907668D01*
X1654978Y906673D01*
X1654687Y905210D01*
X1654978Y903747D01*
X1655606Y902807D01*
X1655728Y901960D01*
X1655606Y901113D01*
X1654978Y900173D01*
X1654687Y898710D01*
X1654978Y897247D01*
X1655806Y896006D01*
X1657047Y895178D01*
X1658510Y894887D01*
X1669010D01*
X1670473Y895178D01*
X1671714Y896006D01*
X1672542Y897247D01*
X1672833Y898710D01*
X1672542Y900173D01*
X1672069Y900881D01*
X1672722Y902151D01*
X1690490D01*
X1691660Y902384D01*
X1692653Y903047D01*
X1693316Y904040D01*
X1693549Y905210D01*
Y908400D01*
X1699030D01*
Y920400D01*
X1687030D01*
Y914827D01*
X1685760Y914702D01*
X1685626Y915374D01*
X1684355Y917275D01*
X1683144Y918085D01*
Y919605D01*
X1684355Y920415D01*
X1685626Y922317D01*
X1686073Y924560D01*
X1685626Y926804D01*
X1684602Y928336D01*
X1685120Y929606D01*
X1694546D01*
Y938614D01*
X1678434D01*
Y936937D01*
X1678430Y936936D01*
X1677437Y936273D01*
X1677437Y936273D01*
X1673755Y932591D01*
X1672342Y932973D01*
X1671714Y933914D01*
X1670473Y934742D01*
X1669010Y935033D01*
X1658510D01*
X1657047Y934742D01*
X1655806Y933914D01*
X1654978Y932673D01*
X1654687Y931210D01*
X1654978Y929747D01*
X1655606Y928807D01*
X1655728Y927960D01*
X1655606Y927113D01*
X1654978Y926173D01*
X1654687Y924710D01*
X1654895Y923664D01*
X1654333Y922505D01*
X1654114Y922254D01*
X1653862Y922214D01*
X1652789Y923287D01*
Y957111D01*
X1662912Y967234D01*
X1667594D01*
Y983346D01*
D02*
G37*
G36*
X1714030Y920400D02*
X1702030D01*
Y908400D01*
X1704835D01*
Y899060D01*
X1702894D01*
Y886560D01*
X1712894D01*
Y899060D01*
X1710953D01*
Y908400D01*
X1714030D01*
Y920400D01*
D02*
G37*
G36*
X1551940Y955568D02*
X1549794Y955141D01*
X1547975Y953925D01*
X1546759Y952106D01*
X1546332Y949960D01*
X1546759Y947814D01*
X1547975Y945995D01*
X1548881Y945389D01*
Y931015D01*
X1541056Y923190D01*
X1535382D01*
Y910690D01*
X1537323D01*
Y899060D01*
X1535382D01*
Y895035D01*
X1535329Y894956D01*
X1534902Y892810D01*
X1535329Y890664D01*
X1535382Y890585D01*
Y886560D01*
X1545382D01*
Y890202D01*
X1545691Y890664D01*
X1546118Y892810D01*
X1545691Y894956D01*
X1545382Y895418D01*
Y899060D01*
X1543441D01*
Y910690D01*
X1545382D01*
Y918864D01*
X1554103Y927585D01*
X1554103Y927585D01*
X1554766Y928577D01*
X1554999Y929748D01*
X1554999Y929748D01*
Y945389D01*
X1555905Y945995D01*
X1557121Y947814D01*
X1557548Y949960D01*
X1557121Y952106D01*
X1555905Y953925D01*
X1554086Y955141D01*
X1551940Y955568D01*
D02*
G37*
G36*
X1508220Y933142D02*
X1496820D01*
X1495591Y932897D01*
X1494549Y932201D01*
X1493853Y931159D01*
X1493608Y929930D01*
Y927630D01*
X1493853Y926401D01*
X1494549Y925359D01*
X1495591Y924663D01*
X1496820Y924418D01*
X1499461D01*
Y918110D01*
X1495884D01*
Y905610D01*
X1497825D01*
Y897790D01*
X1495884D01*
Y885290D01*
X1505884D01*
Y897790D01*
X1503943D01*
Y905610D01*
X1505884D01*
Y918110D01*
X1505579D01*
Y924418D01*
X1508220D01*
X1509449Y924663D01*
X1510491Y925359D01*
X1511187Y926401D01*
X1511432Y927630D01*
Y929930D01*
X1511187Y931159D01*
X1510491Y932201D01*
X1509449Y932897D01*
X1508220Y933142D01*
D02*
G37*
G36*
X1473120Y896520D02*
X1463120D01*
Y892687D01*
X1462939Y892416D01*
X1462512Y890270D01*
X1462939Y888124D01*
X1463120Y887853D01*
Y884020D01*
X1473120D01*
Y887853D01*
X1473301Y888124D01*
X1473728Y890270D01*
X1473301Y892416D01*
X1473120Y892687D01*
Y896520D01*
D02*
G37*
G36*
X1675860Y736822D02*
X1658652D01*
Y727234D01*
X1675860D01*
Y736822D01*
D02*
G37*
G36*
X1736090Y734468D02*
X1735548Y734360D01*
X1729590D01*
Y723360D01*
X1735548D01*
X1736090Y723252D01*
X1736632Y723360D01*
X1742590D01*
Y725291D01*
X1747370D01*
Y723360D01*
X1760370D01*
Y734360D01*
X1747370D01*
Y732429D01*
X1742590D01*
Y734360D01*
X1736632D01*
X1736090Y734468D01*
D02*
G37*
G36*
X1628810Y729780D02*
X1602810D01*
Y702780D01*
X1615100D01*
Y693685D01*
X1614377Y692860D01*
X1587110D01*
X1586651Y692800D01*
X1581110D01*
Y689479D01*
X1580995Y689330D01*
X1580290Y687627D01*
X1580050Y685800D01*
X1580290Y683973D01*
X1580995Y682270D01*
X1581110Y682121D01*
Y678800D01*
X1586651D01*
X1587110Y678740D01*
X1627121D01*
X1628336Y677524D01*
X1627850Y676350D01*
X1619750D01*
X1617923Y676110D01*
X1616220Y675405D01*
X1614767Y674290D01*
X1607900D01*
Y664290D01*
X1614767D01*
X1616220Y663176D01*
X1617923Y662470D01*
X1619750Y662230D01*
X1638205D01*
Y647234D01*
X1637261Y646729D01*
X1636935Y646681D01*
X1635490Y646968D01*
X1635490Y646968D01*
X1631600D01*
Y648890D01*
X1607900D01*
Y638890D01*
X1620356D01*
X1620750Y638812D01*
X1620750Y638812D01*
X1633801D01*
X1634222Y638391D01*
Y621210D01*
X1631650D01*
Y608310D01*
X1644950D01*
Y621210D01*
X1642378D01*
Y640080D01*
X1642068Y641641D01*
X1641184Y642964D01*
X1641184Y642964D01*
X1639621Y644527D01*
X1640107Y645700D01*
X1661255D01*
Y677640D01*
X1648190D01*
X1635037Y690792D01*
X1629220Y696609D01*
Y717550D01*
X1628980Y719377D01*
X1628810Y719787D01*
Y729780D01*
D02*
G37*
%LPD*%
D12*
X1676782Y911710D02*
G03*
X1680210Y913130I0J4848D01*
G01*
X1664880Y918210D02*
G03*
X1680210Y924560I0J21680D01*
G01*
X1663760Y911710D02*
X1676782D01*
X1663760Y918210D02*
X1664880D01*
X1713614Y1098808D02*
X1716412Y1096010D01*
X1732280D01*
X1697328Y1097272D02*
Y1099022D01*
X1693578Y1093522D02*
X1697328Y1097272D01*
X1690422Y1093522D02*
X1693578D01*
X1685290Y1088390D02*
X1690422Y1093522D01*
X1682090Y1000066D02*
Y1001842D01*
Y1000066D02*
X1682420Y1000396D01*
Y1018210D01*
X1682750Y1018540D01*
X1697990D02*
Y1059052D01*
Y995680D02*
Y1018540D01*
X1718310D01*
X1423798Y960248D02*
X1431290Y967740D01*
X1423798Y944880D02*
Y960248D01*
X1455676Y890270D02*
Y909596D01*
X1456690Y910610D01*
X1450102Y904022D02*
X1455676Y909596D01*
X1445260Y902970D02*
X1446312Y904022D01*
X1450102D01*
X1456690Y910610D02*
Y911860D01*
X1717430Y731130D02*
X1725930Y739630D01*
Y760730D01*
X1690490Y905210D02*
Y914400D01*
X1663760Y905210D02*
X1690490D01*
X1698490Y936009D02*
X1700434Y934065D01*
Y928466D02*
Y934065D01*
Y928466D02*
X1700530Y928370D01*
X1527938Y892810D02*
Y937260D01*
X1423798Y857782D02*
X1432950Y848630D01*
X1558170Y731640D02*
X1572960Y716850D01*
X1563160Y707050D02*
X1572960Y716850D01*
X1700530Y908050D02*
Y928370D01*
X1697450Y904970D02*
X1700530Y908050D01*
X1697450Y894810D02*
Y904970D01*
X1698490Y936009D02*
X1702803Y940322D01*
X1527938Y937260D02*
Y938510D01*
X1679600Y934110D02*
X1686490D01*
X1670422Y924932D02*
X1679600Y934110D01*
X1663982Y924932D02*
X1670422D01*
X1663760Y924710D02*
X1663982Y924932D01*
X1491480Y860940D02*
X1491980D01*
X1477010Y828152D02*
X1478182Y826980D01*
X1487490D01*
X1491360Y861060D02*
X1491480Y860940D01*
X1464669Y818830D02*
X1479340D01*
X1464012Y813830D02*
X1479340D01*
X1450450Y827392D02*
X1464012Y813830D01*
X1450450Y827392D02*
Y830850D01*
X1477010Y828152D02*
X1478168Y829310D01*
X1459108Y842010D02*
X1470358D01*
X1459010Y841912D02*
X1459108Y842010D01*
X1449950Y839860D02*
X1455846Y833964D01*
Y827653D02*
Y833964D01*
Y827653D02*
X1464669Y818830D01*
X1449450Y831850D02*
X1450450Y830850D01*
X1448730Y831850D02*
X1449450D01*
X1459846Y829310D02*
X1461116Y830580D01*
X1473678Y836138D02*
X1479550Y842010D01*
X1482788Y854440D02*
X1519580D01*
X1470358Y842010D02*
X1482788Y854440D01*
X1466674Y836138D02*
X1473678D01*
X1462386Y831850D02*
X1466674Y836138D01*
X1502410Y847090D02*
X1506530D01*
X1507610Y848170D01*
Y848360D01*
X1510030Y845940D01*
X1468120Y849630D02*
X1479550Y861060D01*
X1519580Y854440D02*
X1528080Y845940D01*
X1663964Y618099D02*
X1677670Y631805D01*
X1663964Y615899D02*
Y618099D01*
X1677670Y631805D02*
Y722630D01*
X1579490Y756650D02*
X1597660Y774820D01*
X1579490Y755650D02*
Y756650D01*
X1597660Y774820D02*
Y820420D01*
X1588770Y755650D02*
X1590040Y756920D01*
X1579490Y755650D02*
X1588770D01*
X1597660Y820420D02*
Y822920D01*
X1604910Y830170D01*
X1611285D01*
X1661160Y861450D02*
Y872490D01*
Y861450D02*
X1669860Y852750D01*
Y851750D02*
Y852750D01*
Y851750D02*
X1672860Y848750D01*
X1673860D01*
X1661160Y872490D02*
X1681480Y892810D01*
X1695450D01*
X1677670Y722630D02*
X1690624D01*
X1656690D02*
X1677670D01*
X1717430Y731130D02*
X1718310D01*
X1753590Y675640D02*
Y713580D01*
X1753870Y713860D01*
X1507490Y798830D02*
X1522490Y783830D01*
Y770680D02*
Y783830D01*
X1487740Y818580D02*
X1507490Y798830D01*
X1487740Y818580D02*
Y826730D01*
X1487490Y826980D02*
X1487740Y826730D01*
X1479340Y798830D02*
X1507490D01*
X1522490Y813830D01*
X1535640D01*
X1423670Y775090D02*
Y810070D01*
Y775090D02*
X1431680Y767080D01*
X1423670Y810070D02*
X1433450Y819850D01*
X1508472Y862498D02*
Y868968D01*
Y862498D02*
X1510030Y860940D01*
X1501972Y871661D02*
X1519461Y889150D01*
X1501972Y870931D02*
Y871661D01*
X1491980Y860940D02*
X1501972Y870931D01*
X1524150Y889150D02*
X1527810Y892810D01*
X1519461Y889150D02*
X1524150D01*
X1449950Y849630D02*
X1468120D01*
X1448680Y700160D02*
X1461770Y687070D01*
X1448680Y700160D02*
Y767080D01*
X1550985Y745490D02*
X1569330D01*
X1575490Y751650D01*
X1576490D01*
X1579490Y754650D01*
Y755650D01*
X1537335Y759140D02*
X1550985Y745490D01*
X1527490Y759140D02*
X1537335D01*
X1563490Y773430D02*
X1566490Y770430D01*
Y769650D02*
Y770430D01*
Y769650D02*
X1579490Y756650D01*
X1566610Y715580D02*
X1567180Y715010D01*
X1535430Y731640D02*
X1558170D01*
X1467000Y784504D02*
Y787433D01*
X1459755Y777259D02*
X1467000Y784504D01*
X1459230Y787400D02*
X1470360Y798530D01*
X1479040D01*
X1457859Y777259D02*
X1459755D01*
X1752870Y713860D02*
X1753870D01*
X1744485Y722245D02*
X1752870Y713860D01*
X1728195Y722245D02*
X1744485D01*
X1719310Y731130D02*
X1728195Y722245D01*
X1718310Y731130D02*
X1719310D01*
X1648190D02*
X1656690Y722630D01*
X1647190Y731130D02*
X1648190D01*
X1516380Y691760D02*
X1540510D01*
X1545260Y696510D01*
X1552120D01*
X1562660Y707050D01*
X1563160D01*
X1526098Y757748D02*
X1527490Y759140D01*
X1524442Y757748D02*
X1526098D01*
X1522790Y759400D02*
X1524442Y757748D01*
X1522790Y759400D02*
Y770380D01*
X1527490Y759140D02*
Y770680D01*
X1504800Y744370D02*
X1504950Y744220D01*
X1510343Y756607D02*
X1511300Y755650D01*
X1492490Y755410D02*
X1493520Y754380D01*
X1502490Y761056D02*
X1504800Y758746D01*
Y744370D02*
Y758746D01*
X1497490Y760399D02*
X1500020Y757869D01*
Y749450D02*
Y757869D01*
X1494790Y744220D02*
X1500020Y749450D01*
X1624030Y905210D02*
X1624330Y905510D01*
X1607760Y905210D02*
X1624030D01*
X1623158Y924462D02*
X1624330Y923290D01*
X1594807Y931008D02*
X1595022Y931223D01*
X1594807Y929137D02*
Y931008D01*
X1593850Y928180D02*
X1594807Y929137D01*
X1623158Y924462D02*
Y924873D01*
X1617923D02*
X1623158D01*
X1595022Y931223D02*
X1597747D01*
X1540382Y937260D02*
X1540510D01*
X1423798Y923290D02*
Y944880D01*
X1469134Y911860D02*
X1469390Y911604D01*
X1540382Y892810D02*
Y916940D01*
X1596390Y886460D02*
Y892590D01*
X1602510Y898710D01*
X1607760D01*
X1609090Y982980D02*
X1644650D01*
X1540382Y918190D02*
X1551940Y929748D01*
X1540382Y916940D02*
Y918190D01*
X1551940Y929748D02*
Y949960D01*
X1593850Y967740D02*
X1609090Y982980D01*
X1739002Y866648D02*
X1739900Y865750D01*
X1717294Y866648D02*
X1739002D01*
X1753870Y879720D02*
Y929620D01*
X1743900Y869750D02*
X1753870Y879720D01*
X1743900Y868750D02*
Y869750D01*
X1740900Y865750D02*
X1743900Y868750D01*
X1739900Y865750D02*
X1740900D01*
X1738630Y998220D02*
X1753870Y982980D01*
Y929620D02*
Y982980D01*
X1741170Y916920D02*
X1753870Y929620D01*
X1741170Y915670D02*
Y916920D01*
X1649522Y987520D02*
X1661820Y999818D01*
X1672910Y1059180D02*
X1675130D01*
X1664560Y1050830D02*
X1672910Y1059180D01*
X1664560Y1048630D02*
Y1050830D01*
X1697990Y1059052D02*
X1699388Y1060450D01*
X1673760Y937710D02*
X1681434Y945384D01*
Y951606D01*
X1682938Y953110D01*
X1686490D01*
X1663760Y937710D02*
X1673760D01*
X1700434Y943610D02*
X1705938D01*
X1709490D01*
X1702803Y940475D02*
X1705938Y943610D01*
X1702803Y940322D02*
Y940475D01*
X1695450Y892810D02*
X1697450Y894810D01*
X1693926Y857250D02*
X1721537D01*
X1727037Y851750D01*
X1736900D01*
X1739900Y848750D01*
X1683360Y857250D02*
X1693926D01*
X1674860Y848750D02*
X1683360Y857250D01*
X1673860Y848750D02*
X1674860D01*
X1423798Y857782D02*
Y923290D01*
X1527810Y938638D02*
X1527938Y938510D01*
X1524668Y941780D02*
X1527810Y938638D01*
Y948690D01*
X1525958Y935280D02*
X1527810Y937132D01*
X1486130Y974180D02*
X1489948Y977998D01*
X1486130Y960120D02*
Y974180D01*
X1489948Y978506D02*
X1493012Y981570D01*
X1489948Y977998D02*
Y978506D01*
X1493012Y981570D02*
X1493520D01*
X1502520Y935280D02*
X1525958D01*
X1469390Y960120D02*
X1486130D01*
X1592580Y999490D02*
Y1007240D01*
X1592170Y1007650D02*
X1592580Y1007240D01*
X1500884Y891540D02*
Y911860D01*
X1502520Y913496D01*
Y928780D01*
Y941780D02*
X1524668D01*
X1488480Y863440D02*
Y891500D01*
X1488440Y891540D02*
X1488480Y891500D01*
X1581022Y937260D02*
Y960120D01*
Y916940D02*
Y937260D01*
Y892810D02*
Y916940D01*
X1611765Y816690D02*
X1625640D01*
X1553210Y816273D02*
X1559506Y822569D01*
X1575888Y830170D02*
X1580225D01*
X1571370Y825652D02*
X1575888Y830170D01*
X1568991Y822569D02*
X1571370Y824947D01*
X1559506Y822569D02*
X1568991D01*
X1571370Y824947D02*
Y825652D01*
X1553210Y811530D02*
Y816273D01*
X1545510Y803830D02*
X1553210Y811530D01*
X1535640Y803830D02*
X1545510D01*
X1554480Y837900D02*
Y838200D01*
X1540040Y832952D02*
X1555258Y848170D01*
X1584035Y810605D02*
Y810670D01*
X1572260Y798830D02*
X1584035Y810605D01*
X1535640Y798830D02*
X1572260D01*
X1580930Y821690D02*
X1582910Y823670D01*
X1584035D01*
X1465650Y803830D02*
X1479340D01*
X1448680Y768080D02*
X1457859Y777259D01*
X1448950Y787130D02*
X1465650Y803830D01*
X1467000Y787433D02*
X1473097Y793530D01*
X1479040Y798530D02*
X1479340Y798830D01*
X1428450Y844130D02*
X1432950Y848630D01*
X1428450Y824850D02*
Y844130D01*
Y824850D02*
X1433450Y819850D01*
X1441450D01*
X1553360Y836780D02*
X1554480Y837900D01*
X1548040Y816759D02*
X1553360Y822079D01*
X1544040Y823950D02*
X1546860Y826770D01*
X1553360Y822079D02*
Y836780D01*
X1544040Y816287D02*
Y823950D01*
X1541883Y814130D02*
X1544040Y816287D01*
X1535940Y814130D02*
X1541883D01*
X1535640Y813830D02*
X1535940Y814130D01*
X1540040Y819130D02*
Y832952D01*
X1539740Y818830D02*
X1540040Y819130D01*
X1538860Y818830D02*
X1539740D01*
X1542540Y809130D02*
X1548040Y814631D01*
X1535940Y809130D02*
X1542540D01*
X1548040Y814631D02*
Y816759D01*
X1522490Y770680D02*
X1522790Y770380D01*
X1617760Y924710D02*
X1617923Y924873D01*
X1607760Y924710D02*
X1617760D01*
X1510343Y756607D02*
Y759532D01*
X1507595Y762280D02*
X1510343Y759532D01*
X1507595Y762280D02*
Y770575D01*
X1507490Y770680D02*
X1507595Y770575D01*
X1597747Y931223D02*
X1597760Y931210D01*
X1607760D01*
X1502490Y761056D02*
Y770680D01*
X1594100Y908050D02*
X1597760Y911710D01*
X1593850Y908050D02*
X1594100D01*
X1597760Y911710D02*
X1607760D01*
X1497490Y760399D02*
Y770680D01*
X1592580Y918210D02*
X1607760D01*
X1492490Y755410D02*
Y770680D01*
X1562490Y852170D02*
Y853170D01*
Y851170D02*
Y852170D01*
X1529080Y860940D02*
X1552720D01*
X1557490Y856170D01*
X1559490D01*
X1562490Y853170D01*
X1510030Y860940D02*
X1529080D01*
X1559490Y848170D02*
X1562490Y851170D01*
X1555258Y848170D02*
X1559490D01*
X1535640Y808830D02*
X1535940Y809130D01*
X1593850Y554990D02*
X1594400D01*
X1621620Y823670D02*
X1626430Y828480D01*
X1592580Y524510D02*
Y533310D01*
X1579400Y546490D02*
X1592580Y533310D01*
X1579400Y546490D02*
Y554990D01*
X1728598Y925954D02*
Y936110D01*
Y915798D02*
Y925954D01*
X1741229D01*
X1749232Y933957D01*
Y940563D01*
X1742914Y946881D02*
X1749232Y940563D01*
X1742914Y946881D02*
Y953040D01*
X1740914Y955040D02*
X1742914Y953040D01*
X1707894Y892810D02*
Y911996D01*
X1705490Y914400D02*
X1707894Y911996D01*
X1741042Y937260D02*
Y938510D01*
X1735042Y944510D02*
X1741042Y938510D01*
X1710390Y944510D02*
X1735042D01*
X1709490Y943610D02*
X1710390Y944510D01*
X1700152Y943892D02*
X1700434Y943610D01*
X1699260Y943892D02*
X1700152D01*
X1690042Y953110D02*
X1699260Y943892D01*
X1686490Y953110D02*
X1690042D01*
X1653540Y918210D02*
X1663760D01*
X1649730Y922020D02*
X1653540Y918210D01*
X1649730Y922020D02*
Y958378D01*
X1663090Y971738D01*
Y975290D01*
X1728726Y892810D02*
Y915670D01*
X1728598Y936110D02*
Y937260D01*
Y915798D02*
X1728726Y915670D01*
X1726598Y934110D02*
X1728598Y936110D01*
X1709490Y934110D02*
X1726598D01*
X1726540Y953110D02*
X1728470Y955040D01*
X1709490Y953110D02*
X1726540D01*
X1725930Y980440D02*
X1727200Y979170D01*
X1725930Y980440D02*
Y996950D01*
X1723930Y994950D02*
X1725930Y996950D01*
X1723930Y993660D02*
Y994950D01*
X1710690Y980420D02*
X1723930Y993660D01*
X1710690Y979170D02*
Y980420D01*
X1708434Y993680D02*
X1710434Y995680D01*
X1708434Y990608D02*
Y993680D01*
X1698246Y980420D02*
X1708434Y990608D01*
X1698246Y979170D02*
Y980420D01*
X1696246Y977170D02*
X1698246Y979170D01*
X1683594Y977170D02*
X1696246D01*
X1682090Y975666D02*
X1683594Y977170D01*
X1682090Y975290D02*
Y975666D01*
X1672590Y963458D02*
X1682938Y953110D01*
X1672590Y963458D02*
Y975290D01*
X1673956Y984346D02*
X1676400Y986790D01*
X1673956Y976656D02*
Y984346D01*
X1676400Y986790D02*
X1689100D01*
X1694740Y992430D01*
X1695990D01*
X1697990Y994430D01*
Y995680D01*
X1626870Y1028956D02*
X1646736D01*
X1651560Y1033780D01*
X1645060Y1027280D02*
X1646736Y1028956D01*
X1651560Y1033780D02*
X1654810D01*
X1645060Y1018930D02*
Y1027280D01*
X1654810Y1033780D02*
X1658060D01*
X1664560Y1027280D01*
Y1018930D02*
Y1027280D01*
X1664432Y1009650D02*
X1669357D01*
X1675661Y1003346D01*
X1680586D01*
X1682090Y1001842D01*
X1659960Y1014122D02*
X1664432Y1009650D01*
X1659960Y1014122D02*
Y1014830D01*
X1658060Y1016730D02*
X1659960Y1014830D01*
X1658060Y1016730D02*
Y1018930D01*
X1646650Y987520D02*
X1649522D01*
X1661820Y999818D02*
Y1003370D01*
X1647900Y1001214D02*
X1651560Y1004874D01*
X1647900Y999964D02*
Y1001214D01*
X1645900Y997964D02*
X1647900Y999964D01*
X1644650Y997964D02*
X1645900D01*
X1651560Y1004874D02*
Y1018930D01*
X1486130Y960120D02*
X1497970Y948280D01*
X1502520D01*
X1464203Y954933D02*
X1469390Y960120D01*
X1464203Y949569D02*
Y954933D01*
X1462914Y948280D02*
X1464203Y949569D01*
X1459120Y948280D02*
X1462914D01*
X1647190Y913130D02*
X1648323Y911997D01*
X1663473D01*
X1663760Y911710D01*
X1458690Y928350D02*
X1459120Y928780D01*
X1458690Y913860D02*
Y928350D01*
X1456690Y911860D02*
X1458690Y913860D01*
X1625640Y816690D02*
X1628140Y814190D01*
X1611285Y817170D02*
X1611765Y816690D01*
X1611285Y823670D02*
X1621620D01*
X1449950Y839860D02*
Y849630D01*
X1445680Y770080D02*
X1448680Y767080D01*
X1445680Y770080D02*
Y773400D01*
X1433950Y785130D02*
X1445680Y773400D01*
X1433950Y785130D02*
Y786130D01*
X1473097Y793530D02*
X1479040D01*
X1479340Y793830D01*
X1448680Y767080D02*
Y768080D01*
X1448950Y786130D02*
Y787130D01*
X1479040Y808530D02*
X1479340Y808830D01*
X1442130Y808530D02*
X1479040D01*
X1441450Y807850D02*
X1442130Y808530D01*
X1490980Y845940D02*
X1492490Y844430D01*
Y826980D02*
Y844430D01*
X1520471Y838331D02*
X1528080Y845940D01*
X1507899Y838331D02*
X1520471D01*
X1502790Y833223D02*
X1507899Y838331D01*
X1502790Y827280D02*
Y833223D01*
X1502490Y826980D02*
X1502790Y827280D01*
X1509030Y845940D02*
X1510030D01*
X1497790Y834700D02*
X1509030Y845940D01*
X1497790Y827280D02*
Y834700D01*
X1497490Y826980D02*
X1497790Y827280D01*
X1644650Y1049040D02*
Y1052830D01*
Y1049040D02*
X1645060Y1048630D01*
X1642110Y1055370D02*
X1644650Y1052830D01*
X1628042Y1055370D02*
X1642110D01*
X1626870Y1054198D02*
X1628042Y1055370D01*
X1626870Y1041400D02*
Y1054198D01*
X1713828Y1099022D02*
Y1118306D01*
X1711614Y1077166D02*
X1713614Y1079166D01*
Y1098808D01*
X1713828Y1099022D01*
X1711614Y1077166D02*
X1711832Y1076948D01*
Y1060450D02*
Y1076948D01*
X1658660Y1052138D02*
Y1108750D01*
Y1049230D02*
Y1052138D01*
X1658060Y1048630D02*
X1658660Y1049230D01*
Y1052138D02*
X1680438Y1073916D01*
X1697170D01*
X1699170Y1075916D01*
Y1077166D01*
X1659890Y1109980D02*
X1670848Y1099022D01*
X1697328D01*
X1659890Y1109980D02*
X1673110Y1123200D01*
X1695030D01*
X1658660Y1108750D02*
X1659890Y1109980D01*
X1651560Y1048630D02*
Y1069735D01*
X1634490Y1086805D02*
X1651560Y1069735D01*
X1634490Y1086805D02*
Y1109980D01*
D19*
X1695030Y1123200D02*
D03*
X1718670Y1123148D02*
D03*
D20*
X1713828Y1099022D02*
D03*
X1697328D02*
D03*
D21*
X1699170Y1077166D02*
D03*
X1711614D02*
D03*
X1699388Y1060450D02*
D03*
X1711832D02*
D03*
X1710690Y979170D02*
D03*
X1698246D02*
D03*
X1738374Y996950D02*
D03*
X1725930D02*
D03*
X1739644Y979170D02*
D03*
X1727200D02*
D03*
X1740914Y955040D02*
D03*
X1728470D02*
D03*
X1741042Y937260D02*
D03*
X1728598D02*
D03*
X1741170Y915670D02*
D03*
X1728726D02*
D03*
X1581022Y892810D02*
D03*
X1568578D02*
D03*
X1581022Y916940D02*
D03*
X1568578D02*
D03*
X1581022Y937260D02*
D03*
X1568578D02*
D03*
X1540382D02*
D03*
X1527938D02*
D03*
X1527938Y916940D02*
D03*
X1540382D02*
D03*
X1527938Y892810D02*
D03*
X1540382D02*
D03*
X1500884Y891540D02*
D03*
X1488440D02*
D03*
Y911860D02*
D03*
X1500884D02*
D03*
X1456690D02*
D03*
X1469134D02*
D03*
X1423798Y944880D02*
D03*
X1436242D02*
D03*
X1423798Y923290D02*
D03*
X1436242D02*
D03*
X1455676Y890270D02*
D03*
X1468120D02*
D03*
X1695450Y892810D02*
D03*
X1707894D02*
D03*
X1741170D02*
D03*
X1728726D02*
D03*
X1581022Y960120D02*
D03*
X1568578D02*
D03*
X1710434Y995680D02*
D03*
X1697990D02*
D03*
D22*
X1664560Y1048630D02*
D03*
X1658060D02*
D03*
X1651560D02*
D03*
X1645060D02*
D03*
Y1018930D02*
D03*
X1651560D02*
D03*
X1658060D02*
D03*
X1664560D02*
D03*
D23*
X1644650Y985520D02*
D03*
Y997964D02*
D03*
X1626870Y1028956D02*
D03*
Y1041400D02*
D03*
D24*
X1663090Y998290D02*
D03*
X1682090D02*
D03*
Y975290D02*
D03*
X1672590D02*
D03*
X1663090D02*
D03*
D25*
X1686490Y934110D02*
D03*
Y953110D02*
D03*
X1709490D02*
D03*
Y943610D02*
D03*
Y934110D02*
D03*
D26*
X1673860Y865750D02*
D03*
Y848750D02*
D03*
X1563370Y813190D02*
D03*
Y830190D02*
D03*
X1718310Y714130D02*
D03*
Y731130D02*
D03*
X1647190Y714130D02*
D03*
Y731130D02*
D03*
X1739900Y865750D02*
D03*
Y848750D02*
D03*
D27*
X1693030Y914400D02*
D03*
X1708030D02*
D03*
X1578490Y773430D02*
D03*
X1563490D02*
D03*
D29*
X1502520Y948280D02*
D03*
Y941780D02*
D03*
Y935280D02*
D03*
Y928780D02*
D03*
X1459120D02*
D03*
Y935280D02*
D03*
Y941780D02*
D03*
Y948280D02*
D03*
D30*
X1693926Y866648D02*
D03*
Y857250D02*
D03*
Y847852D02*
D03*
X1717294D02*
D03*
Y866648D02*
D03*
X1690624Y713232D02*
D03*
Y722630D02*
D03*
Y732028D02*
D03*
X1667256D02*
D03*
Y713232D02*
D03*
D31*
X1584035Y810670D02*
D03*
Y817170D02*
D03*
Y823670D02*
D03*
Y830170D02*
D03*
X1611285Y810670D02*
D03*
Y830170D02*
D03*
Y817170D02*
D03*
Y823670D02*
D03*
D32*
X1629410Y814190D02*
D03*
Y829190D02*
D03*
X1529080Y845940D02*
D03*
Y860940D02*
D03*
X1490980Y860940D02*
D03*
Y845940D02*
D03*
X1535430Y731640D02*
D03*
Y746640D02*
D03*
X1517650Y746640D02*
D03*
Y731640D02*
D03*
X1753870Y713860D02*
D03*
Y728860D02*
D03*
X1736090Y728860D02*
D03*
Y713860D02*
D03*
X1572260Y599560D02*
D03*
Y614560D02*
D03*
X1595120Y599560D02*
D03*
Y614560D02*
D03*
X1615440Y614560D02*
D03*
Y599560D02*
D03*
X1510030Y845940D02*
D03*
Y860940D02*
D03*
D33*
X1612020Y792480D02*
D03*
X1629020D02*
D03*
X1562490Y755650D02*
D03*
X1579490D02*
D03*
X1449950Y849630D02*
D03*
X1432950D02*
D03*
X1448680Y767080D02*
D03*
X1431680D02*
D03*
X1587110Y685800D02*
D03*
X1570110D02*
D03*
X1562490Y852170D02*
D03*
X1579490D02*
D03*
D34*
X1564760Y791210D02*
D03*
X1579760D02*
D03*
X1433950Y786130D02*
D03*
X1448950D02*
D03*
X1490860Y600710D02*
D03*
X1475860D02*
D03*
D35*
X1479340Y818830D02*
D03*
Y813830D02*
D03*
Y808830D02*
D03*
Y803830D02*
D03*
Y798830D02*
D03*
Y793830D02*
D03*
Y788830D02*
D03*
Y783830D02*
D03*
Y778830D02*
D03*
X1535640D02*
D03*
Y783830D02*
D03*
Y788830D02*
D03*
Y793830D02*
D03*
Y798830D02*
D03*
Y803830D02*
D03*
Y808830D02*
D03*
Y813830D02*
D03*
Y818830D02*
D03*
D36*
X1492490Y770680D02*
D03*
X1497490D02*
D03*
X1502490D02*
D03*
X1507490D02*
D03*
X1512490D02*
D03*
X1517490D02*
D03*
X1522490D02*
D03*
X1527490D02*
D03*
Y826980D02*
D03*
X1522490D02*
D03*
X1517490D02*
D03*
X1512490D02*
D03*
X1507490D02*
D03*
X1502490D02*
D03*
X1497490D02*
D03*
X1492490D02*
D03*
X1487490Y770680D02*
D03*
Y826980D02*
D03*
D37*
X1507490Y798830D02*
D03*
D38*
X1441450Y807850D02*
D03*
Y819850D02*
D03*
Y831850D02*
D03*
D39*
X1566810Y716280D02*
D03*
X1615810D02*
D03*
D40*
X1649730Y661670D02*
D03*
X1700530D02*
D03*
D41*
X1753590Y675640D02*
D03*
X1726210D02*
D03*
X1753590Y647700D02*
D03*
X1726210D02*
D03*
X1753590Y615950D02*
D03*
X1726210D02*
D03*
X1663964Y615899D02*
D03*
X1691344D02*
D03*
X1663964Y590587D02*
D03*
X1691344D02*
D03*
X1753590Y590550D02*
D03*
X1726210D02*
D03*
D42*
X1638300Y599360D02*
D03*
Y614760D02*
D03*
D43*
X1595000Y650240D02*
D03*
D44*
X1619750Y669290D02*
D03*
Y656590D02*
D03*
Y643890D02*
D03*
Y631190D02*
D03*
X1570250D02*
D03*
Y643890D02*
D03*
Y656590D02*
D03*
Y669290D02*
D03*
D45*
X1540510Y605160D02*
D03*
Y634360D02*
D03*
D46*
X1517650Y610260D02*
D03*
Y629260D02*
D03*
D47*
X1646900Y507990D02*
D03*
X1526900D02*
D03*
D48*
X1624400Y554990D02*
D03*
X1609400D02*
D03*
X1594400D02*
D03*
X1579400D02*
D03*
X1564400D02*
D03*
X1549400D02*
D03*
D49*
X1476568Y620376D02*
D03*
X1485966D02*
D03*
X1495363D02*
D03*
Y643744D02*
D03*
X1476568D02*
D03*
D50*
X1540510Y662060D02*
D03*
Y691760D02*
D03*
X1516380Y662060D02*
D03*
Y691760D02*
D03*
D51*
X1582420Y1025350D02*
D03*
D52*
X1572670Y1007650D02*
D03*
X1592170D02*
D03*
X1579170D02*
D03*
X1585670D02*
D03*
D53*
X1510030Y979840D02*
D03*
X1522730D02*
D03*
X1548130D02*
D03*
X1510030Y1031840D02*
D03*
X1522730D02*
D03*
X1548130D02*
D03*
X1535430Y979840D02*
D03*
Y1031840D02*
D03*
D54*
X1493520Y981570D02*
D03*
Y1004570D02*
D03*
Y1027570D02*
D03*
D55*
X1426718Y1004570D02*
D03*
D56*
X1663700Y763740D02*
D03*
Y790740D02*
D03*
D96*
X1540510Y1108710D02*
D03*
D97*
X1508760Y1107440D02*
D03*
D100*
X1527794Y634360D02*
G03*
X1517015Y629895I0J-15244D01*
G01*
Y645660D01*
X1527794Y634360D02*
X1540510D01*
X1516380Y662060D02*
X1540510D01*
X1543050Y1064260D02*
X1566510D01*
X1540510D02*
X1543050D01*
X1507490D02*
X1540510D01*
X1534652Y1029970D02*
X1543050Y1038368D01*
Y1064260D01*
X1574465Y1056305D02*
X1582420Y1048350D01*
X1566510Y1064260D02*
X1574465Y1056305D01*
Y1060115D01*
X1592580Y1078230D01*
X1426718Y1004570D02*
Y1054608D01*
X1450340Y1078230D01*
X1600650Y656240D02*
X1609350D01*
X1595000Y650590D02*
X1600650Y656240D01*
X1580723Y875960D02*
X1615780D01*
X1567180Y889502D02*
X1580723Y875960D01*
X1622160Y693685D02*
Y717550D01*
Y693685D02*
X1630045Y685800D01*
X1649730Y666115D01*
X1587110Y685800D02*
X1630045D01*
X1645205Y669290D02*
X1649730Y664765D01*
Y666115D01*
Y661670D02*
Y664765D01*
X1671700Y763740D02*
X1704228Y731212D01*
Y837154D01*
X1693926Y847456D02*
X1704228Y837154D01*
X1615780Y875960D02*
X1660179Y831561D01*
X1567180Y889502D02*
Y969010D01*
X1582420Y1025350D02*
Y1048350D01*
X1504172Y1004570D02*
X1510030Y998712D01*
X1493520Y1004570D02*
X1504172D01*
X1493520Y1050290D02*
X1507490Y1064260D01*
X1493520Y1027570D02*
Y1050290D01*
X1510030Y979840D02*
Y998712D01*
X1540510Y1064260D02*
Y1108710D01*
X1691363Y590569D02*
X1708777D01*
X1572670Y974500D02*
Y1007650D01*
X1660179Y791240D02*
Y831561D01*
X1540510Y572380D02*
Y605160D01*
Y572380D02*
X1549400Y563490D01*
X1496967Y645348D02*
X1516703D01*
X1691369Y615925D02*
X1708777D01*
X1691344Y615899D02*
X1691369Y615925D01*
X1647190Y714130D02*
X1666358D01*
X1667256Y713232D01*
X1609350Y656240D02*
X1609700Y656590D01*
X1595000Y650240D02*
Y650590D01*
X1609700Y656590D02*
X1619750D01*
Y669290D02*
X1645205D01*
X1570110Y671830D02*
Y685800D01*
X1543050Y656590D02*
X1570250D01*
X1517015Y645660D02*
Y661425D01*
X1516703Y645348D02*
X1517015Y645660D01*
X1495363Y643744D02*
X1496967Y645348D01*
X1516380Y662060D02*
X1517015Y661425D01*
X1549400Y554990D02*
X1564400D01*
X1537160Y605160D02*
X1540510D01*
X1533560Y608760D02*
X1537160Y605160D01*
X1519150Y608760D02*
X1533560D01*
X1517650Y610260D02*
X1519150Y608760D01*
X1549400Y554990D02*
Y563490D01*
X1524600Y1029970D02*
X1534652D01*
X1522730Y1031840D02*
X1524600Y1029970D01*
X1579170Y1007650D02*
X1583070D01*
X1572670D02*
X1579170D01*
X1567180Y969010D02*
X1572670Y974500D01*
X1426718Y1004570D02*
X1493520D01*
X1548130Y979840D02*
X1556350D01*
X1535430D02*
X1548130D01*
X1522730D02*
X1535430D01*
X1510030D02*
X1522730D01*
X1556350D02*
X1567180Y969010D01*
X1660179Y791240D02*
X1660679Y790740D01*
X1663700D01*
X1700530Y624172D02*
X1708777Y615925D01*
X1700530Y624172D02*
Y657225D01*
X1708777Y590569D02*
X1726191D01*
X1708777Y615925D02*
X1726185D01*
X1708777Y590569D02*
Y615925D01*
X1700530Y657225D02*
Y661670D01*
X1726191Y590569D02*
X1726210Y590550D01*
X1691344Y590587D02*
X1691363Y590569D01*
X1726185Y615925D02*
X1726210Y615950D01*
X1700530Y657225D02*
X1705955Y651800D01*
X1724310D01*
X1726210Y649900D01*
Y647700D02*
Y649900D01*
X1704228Y678180D02*
Y712836D01*
Y678180D02*
X1724310D01*
X1726210Y676280D01*
Y675640D02*
Y676280D01*
X1704228Y712836D02*
Y731212D01*
Y712836D02*
X1717016D01*
X1692228D02*
X1704228D01*
X1717016D02*
X1718310Y714130D01*
X1663700Y763740D02*
X1671700D01*
D101*
X1732280Y1096010D02*
D03*
X1685290Y1088390D02*
D03*
X1743710Y967740D02*
D03*
X1680210Y924560D02*
D03*
Y913130D02*
D03*
X1431290Y967740D02*
D03*
X1445260Y902970D02*
D03*
X1725930Y760730D02*
D03*
X1718310Y1018540D02*
D03*
X1682750D02*
D03*
X1450340Y1078230D02*
D03*
X1592580D02*
D03*
D102*
X1654810Y1033780D02*
D03*
D103*
X1663760Y898710D02*
D03*
Y905210D02*
D03*
Y911710D02*
D03*
Y918210D02*
D03*
Y924710D02*
D03*
Y931210D02*
D03*
Y937710D02*
D03*
X1607760D02*
D03*
Y931210D02*
D03*
Y924710D02*
D03*
Y918210D02*
D03*
Y911710D02*
D03*
Y905210D02*
D03*
Y898710D02*
D03*
D104*
X1480820Y938530D02*
D03*
D105*
X1597660Y820420D02*
D03*
D106*
X1624330Y554990D02*
Y571350D01*
Y540560D02*
Y554990D01*
X1572260Y599440D02*
X1572380Y599560D01*
X1753590Y647700D02*
Y675640D01*
Y615950D02*
Y647700D01*
Y590550D02*
Y615950D01*
X1596120Y599560D02*
X1624330Y571350D01*
X1595120Y599560D02*
X1596120D01*
X1485966Y606604D02*
X1490860Y601710D01*
X1485966Y606604D02*
Y620376D01*
X1490860Y600710D02*
Y601710D01*
X1572380Y599560D02*
X1595120D01*
X1533900Y491240D02*
X1549080D01*
X1526900Y498240D02*
X1533900Y491240D01*
X1526900Y498240D02*
Y507990D01*
X1623580Y491240D02*
X1639900D01*
X1646900Y498240D01*
Y507990D01*
X1526900D02*
X1646900D01*
Y517990D01*
X1624330Y540560D02*
X1646900Y517990D01*
X1663964Y590587D02*
Y615899D01*
X1639490Y599360D02*
X1648263Y590587D01*
X1663964D01*
X1609400Y554990D02*
X1624330D01*
X1638300Y599360D02*
X1639490D01*
X1475860Y600710D02*
X1476214Y601064D01*
Y620022D01*
X1476568Y620376D01*
X1572260Y614560D02*
Y630190D01*
X1571260Y631190D02*
X1572260Y630190D01*
X1570250Y631190D02*
X1571260D01*
X1635490Y642890D02*
X1638300Y640080D01*
X1620750Y642890D02*
X1635490D01*
X1619750Y643890D02*
X1620750Y642890D01*
X1638300Y614760D02*
Y640080D01*
X1615440Y614560D02*
X1615440Y614560D01*
X1595120Y614560D02*
X1615440D01*
X1615440Y614560D02*
Y630190D01*
X1616440Y631190D01*
X1619750D01*
D107*
X1718310Y714130D02*
X1718445Y713995D01*
X1735955D01*
X1736090Y713860D01*
X1569670Y867460D02*
X1607770D01*
X1555750Y881380D02*
X1569670Y867460D01*
X1607770D02*
X1615440Y859790D01*
X1611653Y792848D02*
Y810670D01*
X1607279Y759460D02*
X1637030D01*
X1611653Y792848D02*
X1612020Y792480D01*
X1611285Y810670D02*
X1611653D01*
X1526352Y881380D02*
X1555750D01*
X1525082Y882650D02*
X1526352Y881380D01*
X1524000Y882650D02*
X1525082D01*
X1436370Y871220D02*
X1478280D01*
X1466850Y772160D02*
Y773242D01*
X1470440Y776832D01*
Y781580D01*
X1472490Y783630D01*
X1479140D01*
X1479340Y783830D01*
X1492250Y734060D02*
X1507120D01*
X1485250Y756010D02*
X1487490Y758250D01*
X1485250Y645651D02*
Y756010D01*
X1483047Y643448D02*
X1485250Y645651D01*
X1507120Y734060D02*
X1511700Y738640D01*
X1586459D01*
X1607279Y759460D01*
X1548860Y783830D02*
X1553240Y788210D01*
X1535640Y783830D02*
X1548860D01*
X1540510Y778630D02*
X1562490Y756650D01*
X1553240Y788210D02*
X1562760D01*
X1535640Y778830D02*
X1535840Y778630D01*
X1540510D01*
X1736090Y728860D02*
X1736090Y728860D01*
X1753870D01*
X1563370Y813190D02*
X1564860Y814680D01*
X1517490Y759360D02*
X1518300Y758549D01*
Y747290D02*
Y758549D01*
X1487490Y758250D02*
Y770680D01*
X1517650Y746640D02*
X1517650Y746640D01*
X1518300Y747290D01*
X1517490Y759360D02*
Y770680D01*
X1436242Y871348D02*
X1436370Y871220D01*
X1436242Y871348D02*
Y923290D01*
X1673860Y865750D02*
X1674309Y866199D01*
X1693477D01*
X1711198Y880110D02*
X1729720D01*
X1741170Y891560D01*
Y892810D01*
X1697736Y866648D02*
X1711198Y880110D01*
X1577735Y814680D02*
X1578725Y815670D01*
X1581410D01*
X1582910Y817170D01*
X1584035D01*
X1543050Y846240D02*
Y847090D01*
X1527490Y830680D02*
X1543050Y846240D01*
X1564860Y814680D02*
X1577735D01*
X1691344Y588387D02*
Y590587D01*
X1517650Y746640D02*
X1535430D01*
X1527490Y826980D02*
Y830680D01*
X1477861Y630690D02*
X1483047Y635876D01*
X1477861Y621670D02*
Y630690D01*
X1476568Y620376D02*
X1477861Y621670D01*
X1483047Y635876D02*
Y643448D01*
X1468860Y594760D02*
X1475610Y588010D01*
X1468860Y594760D02*
Y632226D01*
X1476568Y639934D01*
X1475610Y588010D02*
X1518920D01*
X1501669Y610260D02*
X1517650D01*
X1495363Y616566D02*
X1501669Y610260D01*
X1495363Y616566D02*
Y620376D01*
X1476568Y639934D02*
Y643744D01*
X1553210Y591820D02*
Y593460D01*
X1566810Y607060D01*
X1600570D01*
X1606440Y601190D01*
X1613810D01*
X1615440Y599560D01*
X1644150Y577850D02*
X1678607D01*
X1691363Y589003D02*
Y590569D01*
X1678607Y577850D02*
X1683744Y582987D01*
X1685944D01*
X1691344Y588387D01*
X1624440Y597560D02*
X1644150Y577850D01*
X1617440Y597560D02*
X1624440D01*
X1615440Y599560D02*
X1617440Y597560D01*
X1436242Y943980D02*
Y944880D01*
Y923290D02*
Y943980D01*
X1458420Y942480D02*
X1459120Y941780D01*
X1437742Y942480D02*
X1458420D01*
X1436242Y943980D02*
X1437742Y942480D01*
X1579125Y790575D02*
X1579760Y791210D01*
X1579125Y774065D02*
Y790575D01*
X1578490Y773430D02*
X1579125Y774065D01*
X1562490Y755650D02*
Y756650D01*
X1562760Y788210D02*
X1564760Y790210D01*
Y791210D01*
D108*
X1637603Y770200D02*
X1645030Y762774D01*
X1630177Y777627D02*
X1637603Y770200D01*
X1633901Y842599D02*
X1638410Y838090D01*
X1571061Y842599D02*
X1633901D01*
X1562490Y851170D02*
X1571061Y842599D01*
X1638410Y771007D02*
Y838090D01*
X1637603Y770200D02*
X1638410Y771007D01*
X1637690Y740215D02*
X1645030Y747555D01*
Y762774D01*
X1626873Y777627D02*
X1630177D01*
X1612020Y792480D02*
X1626873Y777627D01*
X1637690Y722630D02*
Y740215D01*
Y722630D02*
X1646190Y714130D01*
X1647190D01*
D109*
X1461770Y687070D02*
D03*
Y699570D02*
D03*
Y712070D02*
D03*
Y724570D02*
D03*
D110*
X1634490Y1109980D02*
D03*
X1659890D02*
D03*
D111*
X1587500Y635240D02*
D03*
X1602500D02*
D03*
Y665240D02*
D03*
X1587500D02*
D03*
Y650240D02*
D03*
X1602500D02*
D03*
D112*
X1750001Y1080001D02*
D03*
X1740001Y1060001D02*
D03*
X1750001Y1040001D02*
D03*
X1740001Y1020001D02*
D03*
Y820000D02*
D03*
X1750001Y800000D02*
D03*
X1740001Y780000D02*
D03*
X1750001Y760000D02*
D03*
X1740001Y740000D02*
D03*
Y700000D02*
D03*
Y660000D02*
D03*
Y620000D02*
D03*
Y580000D02*
D03*
X1750001Y560000D02*
D03*
X1740001Y540000D02*
D03*
X1750001Y520000D02*
D03*
X1730001Y1080001D02*
D03*
Y1040001D02*
D03*
X1720001Y900001D02*
D03*
Y820000D02*
D03*
X1730001Y800000D02*
D03*
X1720001Y780000D02*
D03*
Y700000D02*
D03*
X1730001Y560000D02*
D03*
X1720001Y540000D02*
D03*
X1730001Y520000D02*
D03*
X1720001Y500000D02*
D03*
X1700001Y1020001D02*
D03*
X1710001Y560000D02*
D03*
X1700001Y540000D02*
D03*
X1710001Y520000D02*
D03*
X1700001Y500000D02*
D03*
X1690001Y880001D02*
D03*
X1680001Y820000D02*
D03*
X1690001Y800000D02*
D03*
X1680001Y740000D02*
D03*
Y700000D02*
D03*
Y660000D02*
D03*
X1690001Y560000D02*
D03*
X1680001Y540000D02*
D03*
X1690001Y520000D02*
D03*
X1680001Y500000D02*
D03*
X1670001Y1080001D02*
D03*
Y960001D02*
D03*
Y880001D02*
D03*
X1660001Y860001D02*
D03*
Y700000D02*
D03*
X1670001Y680000D02*
D03*
Y640000D02*
D03*
X1660001Y540000D02*
D03*
X1670001Y520000D02*
D03*
X1640001Y940001D02*
D03*
Y900001D02*
D03*
X1650001Y880001D02*
D03*
X1640001Y700000D02*
D03*
X1650001Y640000D02*
D03*
Y600000D02*
D03*
X1620001Y1100001D02*
D03*
X1630001Y1080001D02*
D03*
X1620001Y1060001D02*
D03*
X1630001Y1000001D02*
D03*
Y960001D02*
D03*
Y880001D02*
D03*
X1620001Y580000D02*
D03*
X1610001Y1120001D02*
D03*
X1600001Y1100001D02*
D03*
X1610001Y1080001D02*
D03*
X1600001Y1060001D02*
D03*
X1610001Y1040001D02*
D03*
Y1000001D02*
D03*
Y960001D02*
D03*
X1600001Y860001D02*
D03*
Y740000D02*
D03*
Y700000D02*
D03*
Y500000D02*
D03*
X1590001Y1120001D02*
D03*
X1580001Y1100001D02*
D03*
X1590001Y800000D02*
D03*
Y720000D02*
D03*
X1580001Y580000D02*
D03*
Y500000D02*
D03*
X1570001Y1120001D02*
D03*
X1560001Y1100001D02*
D03*
X1570001Y1080001D02*
D03*
X1560001Y620000D02*
D03*
Y580000D02*
D03*
X1550001Y1120001D02*
D03*
Y1000001D02*
D03*
Y960001D02*
D03*
X1540001Y620000D02*
D03*
X1550001Y520000D02*
D03*
X1530001Y1120001D02*
D03*
Y1000001D02*
D03*
Y960001D02*
D03*
Y720000D02*
D03*
Y560000D02*
D03*
X1520001Y540000D02*
D03*
X1510001Y1120001D02*
D03*
Y1080001D02*
D03*
Y960001D02*
D03*
Y920001D02*
D03*
X1500001Y700000D02*
D03*
Y660000D02*
D03*
Y580000D02*
D03*
X1510001Y560000D02*
D03*
X1500001Y540000D02*
D03*
X1510001Y520000D02*
D03*
X1500001Y500000D02*
D03*
X1490001Y1120001D02*
D03*
X1480001Y1100001D02*
D03*
X1490001Y1080001D02*
D03*
X1480001Y1060001D02*
D03*
Y1020001D02*
D03*
Y980001D02*
D03*
Y580000D02*
D03*
X1490001Y560000D02*
D03*
X1480001Y540000D02*
D03*
X1490001Y520000D02*
D03*
X1480001Y500000D02*
D03*
X1470001Y1120001D02*
D03*
X1460001Y1100001D02*
D03*
X1470001Y1080001D02*
D03*
X1460001Y1060001D02*
D03*
X1470001Y1040001D02*
D03*
X1460001Y1020001D02*
D03*
Y980001D02*
D03*
X1470001Y880001D02*
D03*
X1460001Y740000D02*
D03*
Y660000D02*
D03*
Y620000D02*
D03*
Y580000D02*
D03*
X1470001Y560000D02*
D03*
X1460001Y540000D02*
D03*
X1470001Y520000D02*
D03*
X1460001Y500000D02*
D03*
X1440001Y1100001D02*
D03*
X1450001Y1040001D02*
D03*
X1440001Y1020001D02*
D03*
Y980001D02*
D03*
X1450001Y960001D02*
D03*
X1440001Y740000D02*
D03*
Y700000D02*
D03*
Y660000D02*
D03*
X1450001Y640000D02*
D03*
X1440001Y620000D02*
D03*
X1450001Y600000D02*
D03*
X1440001Y580000D02*
D03*
X1450001Y560000D02*
D03*
X1440001Y540000D02*
D03*
X1450001Y520000D02*
D03*
X1491360Y861060D02*
D03*
X1479550Y842010D02*
D03*
X1463040Y830580D02*
D03*
X1459010Y841912D02*
D03*
X1502410Y847090D02*
D03*
X1479550Y861060D02*
D03*
X1590040Y756920D02*
D03*
X1629020Y792480D02*
D03*
X1677670Y722630D02*
D03*
X1717430Y731130D02*
D03*
X1431680Y767080D02*
D03*
X1508472Y868968D02*
D03*
X1637030Y759460D02*
D03*
X1612020Y792480D02*
D03*
X1615440Y859790D02*
D03*
X1524000Y882650D02*
D03*
X1478280Y871220D02*
D03*
X1562490Y755650D02*
D03*
X1518920Y730250D02*
D03*
X1459230Y787400D02*
D03*
X1466850Y772160D02*
D03*
X1492250Y734060D02*
D03*
X1736090Y728860D02*
D03*
X1567180Y715010D02*
D03*
X1564860Y814680D02*
D03*
X1504950Y744220D02*
D03*
X1511300Y755650D02*
D03*
X1493520Y754380D02*
D03*
X1436370Y871220D02*
D03*
X1527810Y892810D02*
D03*
X1581022Y916940D02*
D03*
X1624330Y905510D02*
D03*
Y923290D02*
D03*
X1593850Y928180D02*
D03*
X1540510Y937260D02*
D03*
X1469390Y911604D02*
D03*
X1540510Y892810D02*
D03*
X1596390Y886460D02*
D03*
X1551940Y949960D02*
D03*
X1593850Y967740D02*
D03*
X1694180Y867410D02*
D03*
X1693926Y847852D02*
D03*
X1672590Y975360D02*
D03*
X1654810Y1033780D02*
D03*
X1510030Y1031240D02*
D03*
X1644650Y982980D02*
D03*
X1738630Y998220D02*
D03*
X1675130Y1059180D02*
D03*
X1739900Y979170D02*
D03*
X1626870Y1041400D02*
D03*
X1527810Y948690D02*
D03*
X1592580Y999490D02*
D03*
X1493520Y981570D02*
D03*
X1563370Y830580D02*
D03*
X1577870Y822960D02*
D03*
X1554480Y838200D02*
D03*
X1543050Y847090D02*
D03*
X1432950Y848630D02*
D03*
X1579880Y853440D02*
D03*
X1546860Y826770D02*
D03*
X1593850Y908050D02*
D03*
X1494790Y744220D02*
D03*
X1592580Y918210D02*
D03*
X1518920Y588010D02*
D03*
X1490860Y601710D02*
D03*
X1553210Y591820D02*
D03*
X1572260Y599440D02*
D03*
X1691363Y589003D02*
D03*
X1549080Y491240D02*
D03*
X1623580D02*
D03*
X1624330Y554990D02*
D03*
X1639490Y599360D02*
D03*
X1619250Y816610D02*
D03*
X1593850Y554990D02*
D03*
X1626870Y829310D02*
D03*
X1592580Y524510D02*
D03*
X1469390Y960120D02*
D03*
X1647190Y913130D02*
D03*
X1468120Y890270D02*
D03*
X1717040Y1122680D02*
D03*
M02*
