G04*
G04 #@! TF.GenerationSoftware,Altium Limited,Altium Designer,19.1.8 (144)*
G04*
G04 Layer_Color=8421504*
%FSLAX44Y44*%
%MOMM*%
G71*
G01*
G75*
%ADD19R,1.5000X1.5000*%
%ADD20R,0.9500X1.3000*%
%ADD21R,0.6000X0.8500*%
G04:AMPARAMS|DCode=22|XSize=0.76mm|YSize=0.32mm|CornerRadius=0.04mm|HoleSize=0mm|Usage=FLASHONLY|Rotation=270.000|XOffset=0mm|YOffset=0mm|HoleType=Round|Shape=RoundedRectangle|*
%AMROUNDEDRECTD22*
21,1,0.7600,0.2400,0,0,270.0*
21,1,0.6800,0.3200,0,0,270.0*
1,1,0.0800,-0.1200,-0.3400*
1,1,0.0800,-0.1200,0.3400*
1,1,0.0800,0.1200,0.3400*
1,1,0.0800,0.1200,-0.3400*
%
%ADD22ROUNDEDRECTD22*%
%ADD23R,0.8500X0.6000*%
%ADD24R,0.5008X1.2112*%
%ADD25R,1.2112X0.5008*%
%ADD26R,1.0000X0.8000*%
%ADD27R,0.8000X0.8000*%
%ADD28O,1.1968X0.1468*%
G04:AMPARAMS|DCode=29|XSize=1.37mm|YSize=0.46mm|CornerRadius=0.115mm|HoleSize=0mm|Usage=FLASHONLY|Rotation=180.000|XOffset=0mm|YOffset=0mm|HoleType=Round|Shape=RoundedRectangle|*
%AMROUNDEDRECTD29*
21,1,1.3700,0.2300,0,0,180.0*
21,1,1.1400,0.4600,0,0,180.0*
1,1,0.2300,-0.5700,0.1150*
1,1,0.2300,0.5700,0.1150*
1,1,0.2300,0.5700,-0.1150*
1,1,0.2300,-0.5700,-0.1150*
%
%ADD29ROUNDEDRECTD29*%
%ADD30R,1.3208X0.5588*%
%ADD31R,0.5250X0.3000*%
%ADD32R,0.9000X0.7000*%
%ADD33R,0.8000X1.0000*%
%ADD34R,0.7000X0.9000*%
%ADD35R,1.0800X0.2600*%
%ADD36R,0.2600X1.0800*%
%ADD37R,3.7000X3.7000*%
%ADD38R,2.0000X0.4000*%
%ADD39R,2.2000X2.3000*%
%ADD40R,1.9050X2.7940*%
%ADD41R,1.3800X1.8200*%
%ADD42R,0.9300X0.8900*%
%ADD43R,2.1300X3.0000*%
%ADD44R,1.9700X0.6000*%
%ADD45R,1.7200X1.0500*%
%ADD46R,1.5000X1.3000*%
%ADD47R,1.8000X3.8000*%
%ADD48R,1.0000X2.7000*%
%ADD49R,0.5588X1.3208*%
%ADD50R,1.8200X1.1500*%
%ADD51R,2.3700X1.6000*%
%ADD52R,0.4200X0.6600*%
%ADD53R,0.6000X2.2000*%
%ADD54R,0.9144X0.8128*%
%ADD55R,0.9144X3.0988*%
%ADD56R,2.7000X1.1000*%
G36*
X1586800Y649040D02*
X1593800D01*
Y637640D01*
X1586800D01*
Y649040D01*
D02*
G37*
G36*
X1596200D02*
X1603200D01*
Y637640D01*
X1596200D01*
Y649040D01*
D02*
G37*
G36*
X1586800Y662840D02*
X1593800D01*
Y651440D01*
X1586800D01*
Y662840D01*
D02*
G37*
G36*
X1596200D02*
X1603200D01*
Y651440D01*
X1596200D01*
Y662840D01*
D02*
G37*
G36*
X1495220Y810530D02*
X1519190D01*
Y786560D01*
X1495220D01*
Y810530D01*
D02*
G37*
G36*
X1594410Y814920D02*
Y825920D01*
X1600910D01*
Y814920D01*
X1594410D01*
D02*
G37*
G36*
X1479870Y928680D02*
X1474170D01*
Y937580D01*
X1479870D01*
Y928680D01*
D02*
G37*
G36*
X1487470D02*
X1481770D01*
Y937580D01*
X1487470D01*
Y928680D01*
D02*
G37*
G36*
X1595470Y1034900D02*
X1569370D01*
Y1039200D01*
X1595470D01*
Y1034900D01*
D02*
G37*
G36*
X1599945Y1019275D02*
X1594145D01*
Y1024725D01*
X1599945D01*
Y1019275D01*
D02*
G37*
G36*
X1570695D02*
X1564895D01*
Y1024725D01*
X1570695D01*
Y1019275D01*
D02*
G37*
G36*
X1587520Y1017850D02*
X1577320D01*
Y1032850D01*
X1587520D01*
Y1017850D01*
D02*
G37*
G36*
X1487470Y939480D02*
X1481770D01*
Y948380D01*
X1487470D01*
Y939480D01*
D02*
G37*
G36*
X1479870D02*
X1474170D01*
Y948380D01*
X1479870D01*
Y939480D01*
D02*
G37*
D19*
X1695030Y1123200D02*
D03*
X1718670Y1123148D02*
D03*
D20*
X1713828Y1099022D02*
D03*
X1697328D02*
D03*
D21*
X1699170Y1077166D02*
D03*
X1711614D02*
D03*
X1699388Y1060450D02*
D03*
X1711832D02*
D03*
X1710690Y979170D02*
D03*
X1698246D02*
D03*
X1738374Y996950D02*
D03*
X1725930D02*
D03*
X1739644Y979170D02*
D03*
X1727200D02*
D03*
X1740914Y955040D02*
D03*
X1728470D02*
D03*
X1741042Y937260D02*
D03*
X1728598D02*
D03*
X1741170Y915670D02*
D03*
X1728726D02*
D03*
X1581022Y892810D02*
D03*
X1568578D02*
D03*
X1581022Y916940D02*
D03*
X1568578D02*
D03*
X1581022Y937260D02*
D03*
X1568578D02*
D03*
X1540382D02*
D03*
X1527938D02*
D03*
X1527938Y916940D02*
D03*
X1540382D02*
D03*
X1527938Y892810D02*
D03*
X1540382D02*
D03*
X1500884Y891540D02*
D03*
X1488440D02*
D03*
Y911860D02*
D03*
X1500884D02*
D03*
X1456690D02*
D03*
X1469134D02*
D03*
X1423798Y944880D02*
D03*
X1436242D02*
D03*
X1423798Y923290D02*
D03*
X1436242D02*
D03*
X1455676Y890270D02*
D03*
X1468120D02*
D03*
X1695450Y892810D02*
D03*
X1707894D02*
D03*
X1741170D02*
D03*
X1728726D02*
D03*
X1581022Y960120D02*
D03*
X1568578D02*
D03*
X1710434Y995680D02*
D03*
X1697990D02*
D03*
D22*
X1664560Y1048630D02*
D03*
X1658060D02*
D03*
X1651560D02*
D03*
X1645060D02*
D03*
Y1018930D02*
D03*
X1651560D02*
D03*
X1658060D02*
D03*
X1664560D02*
D03*
D23*
X1644650Y985520D02*
D03*
Y997964D02*
D03*
X1626870Y1028956D02*
D03*
Y1041400D02*
D03*
D24*
X1663090Y998290D02*
D03*
X1682090D02*
D03*
Y975290D02*
D03*
X1672590D02*
D03*
X1663090D02*
D03*
D25*
X1686490Y934110D02*
D03*
Y953110D02*
D03*
X1709490D02*
D03*
Y943610D02*
D03*
Y934110D02*
D03*
D26*
X1673860Y865750D02*
D03*
Y848750D02*
D03*
X1563370Y813190D02*
D03*
Y830190D02*
D03*
X1718310Y714130D02*
D03*
Y731130D02*
D03*
X1647190Y714130D02*
D03*
Y731130D02*
D03*
X1739900Y865750D02*
D03*
Y848750D02*
D03*
D27*
X1693030Y914400D02*
D03*
X1708030D02*
D03*
X1578490Y773430D02*
D03*
X1563490D02*
D03*
D28*
X1663760Y898710D02*
D03*
Y905210D02*
D03*
Y911710D02*
D03*
Y918210D02*
D03*
Y924710D02*
D03*
Y931210D02*
D03*
Y937710D02*
D03*
X1607760D02*
D03*
Y931210D02*
D03*
Y924710D02*
D03*
Y918210D02*
D03*
Y911710D02*
D03*
Y905210D02*
D03*
Y898710D02*
D03*
D29*
X1502520Y948280D02*
D03*
Y941780D02*
D03*
Y935280D02*
D03*
Y928780D02*
D03*
X1459120D02*
D03*
Y935280D02*
D03*
Y941780D02*
D03*
Y948280D02*
D03*
D30*
X1693926Y866648D02*
D03*
Y857250D02*
D03*
Y847852D02*
D03*
X1717294D02*
D03*
Y866648D02*
D03*
X1690624Y713232D02*
D03*
Y722630D02*
D03*
Y732028D02*
D03*
X1667256D02*
D03*
Y713232D02*
D03*
D31*
X1584035Y810670D02*
D03*
Y817170D02*
D03*
Y823670D02*
D03*
Y830170D02*
D03*
X1611285Y810670D02*
D03*
Y830170D02*
D03*
Y817170D02*
D03*
Y823670D02*
D03*
D32*
X1629410Y814190D02*
D03*
Y829190D02*
D03*
X1529080Y845940D02*
D03*
Y860940D02*
D03*
X1490980Y860940D02*
D03*
Y845940D02*
D03*
X1535430Y731640D02*
D03*
Y746640D02*
D03*
X1517650Y746640D02*
D03*
Y731640D02*
D03*
X1753870Y713860D02*
D03*
Y728860D02*
D03*
X1736090Y728860D02*
D03*
Y713860D02*
D03*
X1572260Y599560D02*
D03*
Y614560D02*
D03*
X1595120Y599560D02*
D03*
Y614560D02*
D03*
X1615440Y614560D02*
D03*
Y599560D02*
D03*
X1510030Y845940D02*
D03*
Y860940D02*
D03*
D33*
X1612020Y792480D02*
D03*
X1629020D02*
D03*
X1562490Y755650D02*
D03*
X1579490D02*
D03*
X1449950Y849630D02*
D03*
X1432950D02*
D03*
X1448680Y767080D02*
D03*
X1431680D02*
D03*
X1587110Y685800D02*
D03*
X1570110D02*
D03*
X1562490Y852170D02*
D03*
X1579490D02*
D03*
D34*
X1564760Y791210D02*
D03*
X1579760D02*
D03*
X1433950Y786130D02*
D03*
X1448950D02*
D03*
X1490860Y600710D02*
D03*
X1475860D02*
D03*
D35*
X1479340Y818830D02*
D03*
Y813830D02*
D03*
Y808830D02*
D03*
Y803830D02*
D03*
Y798830D02*
D03*
Y793830D02*
D03*
Y788830D02*
D03*
Y783830D02*
D03*
Y778830D02*
D03*
X1535640D02*
D03*
Y783830D02*
D03*
Y788830D02*
D03*
Y793830D02*
D03*
Y798830D02*
D03*
Y803830D02*
D03*
Y808830D02*
D03*
Y813830D02*
D03*
Y818830D02*
D03*
D36*
X1492490Y770680D02*
D03*
X1497490D02*
D03*
X1502490D02*
D03*
X1507490D02*
D03*
X1512490D02*
D03*
X1517490D02*
D03*
X1522490D02*
D03*
X1527490D02*
D03*
Y826980D02*
D03*
X1522490D02*
D03*
X1517490D02*
D03*
X1512490D02*
D03*
X1507490D02*
D03*
X1502490D02*
D03*
X1497490D02*
D03*
X1492490D02*
D03*
X1487490Y770680D02*
D03*
Y826980D02*
D03*
D37*
X1507490Y798830D02*
D03*
D38*
X1441450Y807850D02*
D03*
Y819850D02*
D03*
Y831850D02*
D03*
D39*
X1566810Y716280D02*
D03*
X1615810D02*
D03*
D40*
X1649730Y661670D02*
D03*
X1700530D02*
D03*
D41*
X1753590Y675640D02*
D03*
X1726210D02*
D03*
X1753590Y647700D02*
D03*
X1726210D02*
D03*
X1753590Y615950D02*
D03*
X1726210D02*
D03*
X1663964Y615899D02*
D03*
X1691344D02*
D03*
X1663964Y590587D02*
D03*
X1691344D02*
D03*
X1753590Y590550D02*
D03*
X1726210D02*
D03*
D42*
X1638300Y599360D02*
D03*
Y614760D02*
D03*
D43*
X1595000Y650240D02*
D03*
D44*
X1619750Y669290D02*
D03*
Y656590D02*
D03*
Y643890D02*
D03*
Y631190D02*
D03*
X1570250D02*
D03*
Y643890D02*
D03*
Y656590D02*
D03*
Y669290D02*
D03*
D45*
X1540510Y605160D02*
D03*
Y634360D02*
D03*
D46*
X1517650Y610260D02*
D03*
Y629260D02*
D03*
D47*
X1646900Y507990D02*
D03*
X1526900D02*
D03*
D48*
X1624400Y554990D02*
D03*
X1609400D02*
D03*
X1594400D02*
D03*
X1579400D02*
D03*
X1564400D02*
D03*
X1549400D02*
D03*
D49*
X1476568Y620376D02*
D03*
X1485966D02*
D03*
X1495363D02*
D03*
Y643744D02*
D03*
X1476568D02*
D03*
D50*
X1540510Y662060D02*
D03*
Y691760D02*
D03*
X1516380Y662060D02*
D03*
Y691760D02*
D03*
D51*
X1582420Y1025350D02*
D03*
D52*
X1572670Y1007650D02*
D03*
X1592170D02*
D03*
X1579170D02*
D03*
X1585670D02*
D03*
D53*
X1510030Y979840D02*
D03*
X1522730D02*
D03*
X1548130D02*
D03*
X1510030Y1031840D02*
D03*
X1522730D02*
D03*
X1548130D02*
D03*
X1535430Y979840D02*
D03*
Y1031840D02*
D03*
D54*
X1493520Y981570D02*
D03*
Y1004570D02*
D03*
Y1027570D02*
D03*
D55*
X1426718Y1004570D02*
D03*
D56*
X1663700Y763740D02*
D03*
Y790740D02*
D03*
M02*
