G04*
G04 #@! TF.GenerationSoftware,Altium Limited,Altium Designer,19.1.8 (144)*
G04*
G04 Layer_Color=32896*
%FSLAX44Y44*%
%MOMM*%
G71*
G01*
G75*
%ADD11C,0.1270*%
%ADD12C,0.2000*%
%ADD18C,0.1700*%
D11*
X1417270Y676820D02*
Y734820D01*
X1445470Y747070D02*
X1459770D01*
Y730820D02*
Y747070D01*
Y664570D02*
Y680820D01*
X1445470Y664570D02*
X1459770D01*
X1555830Y480240D02*
X1616730D01*
X1545080Y520740D02*
X1562730D01*
X1545080Y506440D02*
Y520740D01*
X1609930D02*
X1627580D01*
Y506540D02*
Y520740D01*
D12*
X1477270Y724570D02*
G03*
X1477270Y724570I-1000J0D01*
G01*
X1605330Y537240D02*
G03*
X1605330Y537240I-1000J0D01*
G01*
D18*
X1561599Y551787D02*
X1562765Y552954D01*
X1565098D01*
X1566264Y551787D01*
Y547122D01*
X1565098Y545956D01*
X1562765D01*
X1561599Y547122D01*
X1559266Y545956D02*
Y550621D01*
X1556934Y552954D01*
X1554601Y550621D01*
Y545956D01*
Y549455D01*
X1559266D01*
X1552269Y545956D02*
Y552954D01*
X1547603Y545956D01*
Y552954D01*
X1545271Y545956D02*
X1542938D01*
X1544104D01*
Y552954D01*
X1545271Y551787D01*
X1470660Y814070D02*
Y818735D01*
X1468327Y821068D01*
X1465995Y818735D01*
Y814070D01*
Y817569D01*
X1470660D01*
X1458997Y814070D02*
X1463662D01*
X1458997Y818735D01*
Y819902D01*
X1460163Y821068D01*
X1462496D01*
X1463662Y819902D01*
X1468120Y892810D02*
Y897475D01*
X1465787Y899808D01*
X1463455Y897475D01*
Y892810D01*
Y896309D01*
X1468120D01*
X1461122Y892810D02*
X1458790D01*
X1459956D01*
Y899808D01*
X1461122Y898642D01*
X1502825Y727191D02*
X1503991Y728358D01*
X1506324D01*
X1507490Y727191D01*
Y726025D01*
X1506324Y724859D01*
X1503991D01*
X1502825Y723693D01*
Y722526D01*
X1503991Y721360D01*
X1506324D01*
X1507490Y722526D01*
X1500492Y728358D02*
Y721360D01*
X1498160Y723693D01*
X1495827Y721360D01*
Y728358D01*
X1493495D02*
Y721360D01*
X1489996D01*
X1488829Y722526D01*
Y727191D01*
X1489996Y728358D01*
X1493495D01*
X1486497Y721360D02*
X1484164D01*
X1485331D01*
Y728358D01*
X1486497Y727191D01*
M02*
