G04*
G04 #@! TF.GenerationSoftware,Altium Limited,Altium Designer,19.1.8 (144)*
G04*
G04 Layer_Color=16711935*
%FSLAX44Y44*%
%MOMM*%
G71*
G01*
G75*
%ADD96C,1.2700*%
%ADD98C,1.9812*%
%ADD99C,0.6032*%
G04:AMPARAMS|DCode=118|XSize=1.4032mm|YSize=3.7032mm|CornerRadius=0.4016mm|HoleSize=0mm|Usage=FLASHONLY|Rotation=90.000|XOffset=0mm|YOffset=0mm|HoleType=Round|Shape=RoundedRectangle|*
%AMROUNDEDRECTD118*
21,1,1.4032,2.9000,0,0,90.0*
21,1,0.6000,3.7032,0,0,90.0*
1,1,0.8032,1.4500,0.3000*
1,1,0.8032,1.4500,-0.3000*
1,1,0.8032,-1.4500,-0.3000*
1,1,0.8032,-1.4500,0.3000*
%
%ADD118ROUNDEDRECTD118*%
%ADD119R,3.7032X1.4032*%
%ADD120R,1.2032X2.9032*%
%ADD121R,0.8032X1.9032*%
%ADD122R,1.9032X0.9032*%
D96*
X1540510Y1108710D02*
D03*
X1508760Y1107440D02*
D03*
D98*
X1634490Y1109980D02*
D03*
X1659890D02*
D03*
D99*
X1587500Y635240D02*
D03*
X1602500D02*
D03*
Y665240D02*
D03*
X1587500D02*
D03*
Y650240D02*
D03*
X1602500D02*
D03*
D118*
X1435100Y844550D02*
D03*
Y767080D02*
D03*
D119*
Y895350D02*
D03*
Y869950D02*
D03*
Y817880D02*
D03*
Y792480D02*
D03*
D120*
X1549080Y491240D02*
D03*
X1623580D02*
D03*
D121*
X1567580Y523240D02*
D03*
X1580080D02*
D03*
X1605080D02*
D03*
X1592580D02*
D03*
D122*
X1461770Y687070D02*
D03*
Y699570D02*
D03*
Y712070D02*
D03*
Y724570D02*
D03*
M02*
