G04*
G04 #@! TF.GenerationSoftware,Altium Limited,Altium Designer,19.1.8 (144)*
G04*
G04 Layer_Color=65535*
%FSLAX44Y44*%
%MOMM*%
G71*
G01*
G75*
%ADD10C,0.1524*%
%ADD11C,0.1270*%
%ADD12C,0.2000*%
%ADD13C,0.0000*%
%ADD14C,0.2540*%
%ADD15C,0.1000*%
%ADD16C,0.1500*%
%ADD17C,0.0762*%
%ADD18C,0.1700*%
D10*
X1554734Y1107440D02*
G03*
X1554734Y1107440I-30734J0D01*
G01*
X1703832Y869442D02*
G03*
X1707388Y869442I1778J2276D01*
G01*
X1703832D02*
G03*
X1707388Y869442I1778J2276D01*
G01*
X1680718Y710438D02*
G03*
X1677162Y710438I-1778J-2276D01*
G01*
X1680718D02*
G03*
X1677162Y710438I-1778J-2276D01*
G01*
X1473774Y630282D02*
G03*
X1473774Y633838I-2276J1778D01*
G01*
Y630282D02*
G03*
X1473774Y633838I-2276J1778D01*
G01*
X1497838Y958342D02*
G03*
X1497838Y958342I-1270J0D01*
G01*
X1528186Y1101090D02*
Y1113790D01*
X1520566Y1107440D02*
X1528186Y1106170D01*
X1520566Y1107440D02*
X1528186Y1104900D01*
X1520566Y1107440D02*
X1528186Y1103630D01*
X1520566Y1107440D02*
X1528186Y1102360D01*
X1520566Y1107440D02*
X1528186Y1101090D01*
X1520566Y1107440D02*
X1528186Y1108710D01*
X1520566Y1107440D02*
X1528186Y1109980D01*
X1520566Y1107440D02*
X1528186Y1111250D01*
X1520566Y1107440D02*
X1528186Y1112520D01*
X1520566Y1107440D02*
X1528186Y1113790D01*
X1520566Y1101090D02*
Y1113790D01*
X1518026Y1107440D02*
X1530726D01*
X1656820Y976770D02*
Y996810D01*
X1668921D02*
X1676259D01*
X1688360Y976770D02*
Y996810D01*
X1687970Y927840D02*
X1708010D01*
X1687970Y939941D02*
Y947279D01*
Y959380D02*
X1708010D01*
X1479931Y969772D02*
Y1039368D01*
X1440307D02*
X1479931D01*
X1440307Y969772D02*
Y1039368D01*
Y969772D02*
X1479931D01*
D11*
X1671320Y1187450D02*
G03*
X1623060Y1187450I-24130J0D01*
G01*
X1470330Y819410D02*
G03*
X1470330Y819410I-1270J0D01*
G01*
X1677670Y1071880D02*
Y1162050D01*
X1616710D02*
X1677670D01*
X1616710Y1071880D02*
Y1162050D01*
X1671320D02*
Y1187450D01*
X1623060Y1162050D02*
Y1187450D01*
X1666240Y1071880D02*
X1677670D01*
X1666240D02*
Y1097280D01*
X1628140D02*
X1666240D01*
X1628140Y1071880D02*
Y1097280D01*
X1616710Y1071880D02*
X1628140D01*
X1670310Y1018280D02*
Y1049280D01*
X1639310Y1018280D02*
Y1049280D01*
X1678360Y855750D02*
Y858750D01*
X1669360Y855750D02*
Y858750D01*
X1465320Y923030D02*
X1496320D01*
X1465320Y954030D02*
X1496320D01*
X1582660Y805420D02*
X1612660D01*
X1582660Y835420D02*
X1612660D01*
X1619020Y796980D02*
X1622020D01*
X1619020Y787980D02*
X1622020D01*
X1569490Y760150D02*
X1572490D01*
X1569490Y751150D02*
X1572490D01*
X1558870Y820190D02*
Y823190D01*
X1567870Y820190D02*
Y823190D01*
X1439950Y845130D02*
X1442950D01*
X1439950Y854130D02*
X1442950D01*
X1438680Y762580D02*
X1441680D01*
X1438680Y771580D02*
X1441680D01*
X1713810Y721130D02*
Y724130D01*
X1722810Y721130D02*
Y724130D01*
X1642690Y721130D02*
Y724130D01*
X1651690Y721130D02*
Y724130D01*
X1736300Y666640D02*
X1743500D01*
X1736300Y684640D02*
X1743500D01*
X1736300Y638700D02*
X1743500D01*
X1736300Y656700D02*
X1743500D01*
X1736300Y606950D02*
X1743500D01*
X1736300Y624950D02*
X1743500D01*
X1674054Y624899D02*
X1681254D01*
X1674054Y606899D02*
X1681254D01*
X1674054Y599587D02*
X1681254D01*
X1674054Y581587D02*
X1681254D01*
X1736300Y581550D02*
X1743500D01*
X1736300Y599550D02*
X1743500D01*
X1577110Y681300D02*
X1580110D01*
X1577110Y690300D02*
X1580110D01*
X1575000Y624990D02*
X1615000D01*
X1575000Y675490D02*
X1615000D01*
X1532010Y613560D02*
Y625960D01*
X1549010Y613560D02*
Y625960D01*
X1511150Y618260D02*
Y621260D01*
X1524150Y618260D02*
Y621260D01*
X1655900Y541990D02*
Y562990D01*
X1633400D02*
X1655900D01*
X1518400Y542490D02*
Y563490D01*
X1540900D01*
X1517900Y473990D02*
Y483490D01*
X1656400Y473990D02*
X1656900Y474490D01*
Y483490D01*
X1517900Y473990D02*
X1656400D01*
X1744400Y855750D02*
Y858750D01*
X1735400Y855750D02*
Y858750D01*
X1569490Y856670D02*
X1572490D01*
X1569490Y847670D02*
X1572490D01*
X1598170Y1006600D02*
Y1015350D01*
Y1029350D02*
Y1038100D01*
X1566670Y1029350D02*
Y1038100D01*
Y1006600D02*
Y1015350D01*
D12*
X1665560Y1058230D02*
G03*
X1665560Y1058230I-1000J0D01*
G01*
X1446820Y948530D02*
G03*
X1446820Y948530I-1000J0D01*
G01*
X1580880Y834390D02*
G03*
X1580880Y834390I-1000J0D01*
G01*
X1552800Y675290D02*
G03*
X1552800Y675290I-1000J0D01*
G01*
X1537900Y571990D02*
G03*
X1537900Y571990I-1000J0D01*
G01*
X1572420Y999350D02*
G03*
X1572420Y999350I-1000J0D01*
G01*
X1704078Y1093522D02*
X1707078D01*
X1704078Y1104522D02*
X1707078D01*
X1704392Y1080416D02*
X1706392D01*
X1704392Y1073916D02*
X1706392D01*
X1704610Y1063700D02*
X1706610D01*
X1704610Y1057200D02*
X1706610D01*
X1641400Y990742D02*
Y992742D01*
X1647900Y990742D02*
Y992742D01*
X1703468Y975920D02*
X1705468D01*
X1703468Y982420D02*
X1705468D01*
X1731152Y993700D02*
X1733152D01*
X1731152Y1000200D02*
X1733152D01*
X1732422Y975920D02*
X1734422D01*
X1732422Y982420D02*
X1734422D01*
X1733692Y951790D02*
X1735692D01*
X1733692Y958290D02*
X1735692D01*
X1733820Y934010D02*
X1735820D01*
X1733820Y940510D02*
X1735820D01*
X1733948Y912420D02*
X1735948D01*
X1733948Y918920D02*
X1735948D01*
X1715030Y909900D02*
Y918150D01*
X1699030Y911150D02*
X1702280Y914400D01*
X1698905Y917775D02*
X1702280Y914400D01*
X1618760Y892710D02*
Y943710D01*
X1652760D01*
Y904210D02*
Y943710D01*
X1641260Y892710D02*
X1652760Y904210D01*
X1618760Y892710D02*
X1641260D01*
X1573800Y889560D02*
X1575800D01*
X1573800Y896060D02*
X1575800D01*
X1573800Y913690D02*
X1575800D01*
X1573800Y920190D02*
X1575800D01*
X1573800Y934010D02*
X1575800D01*
X1573800Y940510D02*
X1575800D01*
X1533160Y934010D02*
X1535160D01*
X1533160Y940510D02*
X1535160D01*
X1533160Y920190D02*
X1535160D01*
X1533160Y913690D02*
X1535160D01*
X1533160Y896060D02*
X1535160D01*
X1533160Y889560D02*
X1535160D01*
X1493662Y888290D02*
X1495662D01*
X1493662Y894790D02*
X1495662D01*
X1493662Y915110D02*
X1495662D01*
X1493662Y908610D02*
X1495662D01*
X1461912Y915110D02*
X1463912D01*
X1461912Y908610D02*
X1463912D01*
X1429020Y948130D02*
X1431020D01*
X1429020Y941630D02*
X1431020D01*
X1429020Y926540D02*
X1431020D01*
X1429020Y920040D02*
X1431020D01*
X1460898Y893520D02*
X1462898D01*
X1460898Y887020D02*
X1462898D01*
X1700672Y896060D02*
X1702672D01*
X1700672Y889560D02*
X1702672D01*
X1733948D02*
X1735948D01*
X1733948Y896060D02*
X1735948D01*
X1625910Y819690D02*
Y823690D01*
X1632910Y819690D02*
Y823690D01*
X1556490Y769680D02*
Y777930D01*
X1569240Y773430D02*
X1572490Y776680D01*
X1569240Y773430D02*
X1572615Y770055D01*
X1570260Y794710D02*
X1574260D01*
X1570260Y787710D02*
X1574260D01*
X1525580Y851440D02*
Y855440D01*
X1532580Y851440D02*
Y855440D01*
X1494480Y851440D02*
Y855440D01*
X1487480Y851440D02*
Y855440D01*
X1477490Y822830D02*
Y828830D01*
X1483490D01*
X1531490D02*
X1537490D01*
Y822830D02*
Y828830D01*
X1477490Y768830D02*
Y774830D01*
Y768830D02*
X1483490D01*
X1531490D02*
X1537490D01*
Y774830D01*
X1439450Y789630D02*
X1443450D01*
X1439450Y782630D02*
X1443450D01*
X1531930Y737140D02*
Y741140D01*
X1538930Y737140D02*
Y741140D01*
X1521150Y737140D02*
Y741140D01*
X1514150Y737140D02*
Y741140D01*
X1750370Y719360D02*
Y723360D01*
X1757370Y719360D02*
Y723360D01*
X1739590Y719360D02*
Y723360D01*
X1732590Y719360D02*
Y723360D01*
X1568760Y605060D02*
Y609060D01*
X1575760Y605060D02*
Y609060D01*
X1591620Y605060D02*
Y609060D01*
X1598620Y605060D02*
Y609060D01*
X1618940Y605060D02*
Y609060D01*
X1611940Y605060D02*
Y609060D01*
X1481360Y597210D02*
X1485360D01*
X1481360Y604210D02*
X1485360D01*
X1573800Y956870D02*
X1575800D01*
X1573800Y963370D02*
X1575800D01*
X1506530Y851440D02*
Y855440D01*
X1513530Y851440D02*
Y855440D01*
X1623620Y1034178D02*
Y1036178D01*
X1630120Y1034178D02*
Y1036178D01*
X1703212Y992430D02*
X1705212D01*
X1703212Y998930D02*
X1705212D01*
X1651200Y773240D02*
Y781240D01*
X1676200Y773240D02*
Y781240D01*
D13*
X1432720Y836850D02*
G03*
X1432720Y836850I-1270J0D01*
G01*
D14*
X1555480Y1046480D02*
G03*
X1555480Y1046480I-1000J0D01*
G01*
D15*
X1685280Y1113700D02*
Y1121450D01*
Y1113700D02*
X1685530Y1113450D01*
X1693530D01*
X1691360Y1091050D02*
X1695110D01*
X1691110Y1091300D02*
X1691360Y1091050D01*
X1691110Y1091300D02*
Y1094800D01*
X1694110Y1070960D02*
Y1073710D01*
Y1070960D02*
X1696860D01*
D16*
X1564310Y733780D02*
X1598810D01*
X1600310D01*
X1601810D02*
X1618310D01*
X1601810Y698780D02*
X1618310D01*
X1600310D02*
X1601810D01*
X1564310D02*
X1598810D01*
Y733780D01*
Y698780D02*
X1600310D01*
Y733780D02*
X1601810D01*
X1564310Y698780D02*
Y702780D01*
X1618310Y698780D02*
Y702780D01*
Y729780D02*
Y733780D01*
X1564310Y729780D02*
Y733780D01*
D17*
X1652546Y969575D02*
X1661010Y978039D01*
Y969575D02*
X1652546Y978039D01*
X1656778Y969575D02*
Y978039D01*
X1661010Y973807D02*
X1652546D01*
X1715205Y923566D02*
X1706741Y932030D01*
X1715205D02*
X1706741Y923566D01*
X1715205Y927798D02*
X1706741D01*
X1710973Y932030D02*
Y923566D01*
D18*
X1715643Y1036587D02*
X1720308D01*
X1717976D01*
Y1029589D01*
X1722641D02*
Y1036587D01*
X1726140D01*
X1727306Y1035421D01*
Y1033088D01*
X1726140Y1031922D01*
X1722641D01*
X1729639Y1029589D02*
X1731971D01*
X1730805D01*
Y1036587D01*
X1729639Y1035421D01*
X1740135Y1029589D02*
X1735470D01*
X1740135Y1034254D01*
Y1035421D01*
X1738969Y1036587D01*
X1736636D01*
X1735470Y1035421D01*
X1723263Y778777D02*
X1727928D01*
X1725596D01*
Y771779D01*
X1730261D02*
Y778777D01*
X1733760D01*
X1734926Y777610D01*
Y775278D01*
X1733760Y774112D01*
X1730261D01*
X1737258Y771779D02*
X1739591D01*
X1738425D01*
Y778777D01*
X1737258Y777610D01*
X1743090Y771779D02*
X1745423D01*
X1744256D01*
Y778777D01*
X1743090Y777610D01*
X1414780Y981088D02*
X1419445D01*
X1417113D01*
Y974090D01*
X1421778D02*
Y981088D01*
X1425277D01*
X1426443Y979921D01*
Y977589D01*
X1425277Y976423D01*
X1421778D01*
X1428775Y974090D02*
X1431108D01*
X1429942D01*
Y981088D01*
X1428775Y979921D01*
X1434607D02*
X1435773Y981088D01*
X1438106D01*
X1439272Y979921D01*
Y975256D01*
X1438106Y974090D01*
X1435773D01*
X1434607Y975256D01*
Y979921D01*
X1589913Y1096277D02*
X1594578D01*
X1592246D01*
Y1089279D01*
X1596911D02*
Y1096277D01*
X1600410D01*
X1601576Y1095110D01*
Y1092778D01*
X1600410Y1091612D01*
X1596911D01*
X1603909Y1090445D02*
X1605075Y1089279D01*
X1607407D01*
X1608574Y1090445D01*
Y1095110D01*
X1607407Y1096277D01*
X1605075D01*
X1603909Y1095110D01*
Y1093944D01*
X1605075Y1092778D01*
X1608574D01*
X1427480Y895998D02*
X1432145D01*
X1429813D01*
Y889000D01*
X1434478D02*
Y895998D01*
X1437977D01*
X1439143Y894831D01*
Y892499D01*
X1437977Y891333D01*
X1434478D01*
X1441476Y894831D02*
X1442642Y895998D01*
X1444974D01*
X1446141Y894831D01*
Y893665D01*
X1444974Y892499D01*
X1446141Y891333D01*
Y890166D01*
X1444974Y889000D01*
X1442642D01*
X1441476Y890166D01*
Y891333D01*
X1442642Y892499D01*
X1441476Y893665D01*
Y894831D01*
X1442642Y892499D02*
X1444974D01*
X1447673Y1096277D02*
X1452338D01*
X1450006D01*
Y1089279D01*
X1454671D02*
Y1096277D01*
X1458170D01*
X1459336Y1095110D01*
Y1092778D01*
X1458170Y1091612D01*
X1454671D01*
X1461669Y1096277D02*
X1466334D01*
Y1095110D01*
X1461669Y1090445D01*
Y1089279D01*
X1680083Y1036587D02*
X1684748D01*
X1682416D01*
Y1029589D01*
X1687081D02*
Y1036587D01*
X1690580D01*
X1691746Y1035421D01*
Y1033088D01*
X1690580Y1031922D01*
X1687081D01*
X1698744Y1036587D02*
X1696411Y1035421D01*
X1694079Y1033088D01*
Y1030755D01*
X1695245Y1029589D01*
X1697577D01*
X1698744Y1030755D01*
Y1031922D01*
X1697577Y1033088D01*
X1694079D01*
X1673212Y930910D02*
Y935575D01*
Y933243D01*
X1680210D01*
Y937908D02*
X1673212D01*
Y941407D01*
X1674379Y942573D01*
X1676711D01*
X1677877Y941407D01*
Y937908D01*
X1673212Y949571D02*
Y944905D01*
X1676711D01*
X1675545Y947238D01*
Y948404D01*
X1676711Y949571D01*
X1679044D01*
X1680210Y948404D01*
Y946072D01*
X1679044Y944905D01*
X1677022Y887730D02*
Y892395D01*
Y890063D01*
X1684020D01*
Y894728D02*
X1677022D01*
Y898227D01*
X1678188Y899393D01*
X1680521D01*
X1681687Y898227D01*
Y894728D01*
X1684020Y905224D02*
X1677022D01*
X1680521Y901725D01*
Y906391D01*
X1732280Y1111898D02*
X1736945D01*
X1734613D01*
Y1104900D01*
X1739278D02*
Y1111898D01*
X1742777D01*
X1743943Y1110732D01*
Y1108399D01*
X1742777Y1107233D01*
X1739278D01*
X1746275Y1110732D02*
X1747442Y1111898D01*
X1749774D01*
X1750941Y1110732D01*
Y1109565D01*
X1749774Y1108399D01*
X1748608D01*
X1749774D01*
X1750941Y1107233D01*
Y1106066D01*
X1749774Y1104900D01*
X1747442D01*
X1746275Y1106066D01*
X1680832Y1060450D02*
Y1065115D01*
Y1062783D01*
X1687830D01*
Y1067448D02*
X1680832D01*
Y1070947D01*
X1681998Y1072113D01*
X1684331D01*
X1685497Y1070947D01*
Y1067448D01*
X1687830Y1079111D02*
Y1074445D01*
X1683165Y1079111D01*
X1681998D01*
X1680832Y1077944D01*
Y1075612D01*
X1681998Y1074445D01*
X1751330Y972198D02*
X1755995D01*
X1753663D01*
Y965200D01*
X1758328D02*
Y972198D01*
X1761827D01*
X1762993Y971031D01*
Y968699D01*
X1761827Y967533D01*
X1758328D01*
X1765325Y965200D02*
X1767658D01*
X1766492D01*
Y972198D01*
X1765325Y971031D01*
X1473200Y665112D02*
Y659280D01*
X1474366Y658114D01*
X1476699D01*
X1477865Y659280D01*
Y665112D01*
X1480198D02*
X1484863D01*
Y663945D01*
X1480198Y659280D01*
Y658114D01*
X1531620Y643890D02*
Y650888D01*
X1535119D01*
X1536285Y649722D01*
Y647389D01*
X1535119Y646223D01*
X1531620D01*
X1533953D02*
X1536285Y643890D01*
X1538618D02*
X1540950D01*
X1539784D01*
Y650888D01*
X1538618Y649722D01*
X1544449D02*
X1545616Y650888D01*
X1547948D01*
X1549114Y649722D01*
Y648555D01*
X1547948Y647389D01*
X1549114Y646223D01*
Y645056D01*
X1547948Y643890D01*
X1545616D01*
X1544449Y645056D01*
Y646223D01*
X1545616Y647389D01*
X1544449Y648555D01*
Y649722D01*
X1545616Y647389D02*
X1547948D01*
X1510030Y641350D02*
Y648348D01*
X1513529D01*
X1514695Y647181D01*
Y644849D01*
X1513529Y643683D01*
X1510030D01*
X1512363D02*
X1514695Y641350D01*
X1517028D02*
X1519360D01*
X1518194D01*
Y648348D01*
X1517028Y647181D01*
X1522859Y648348D02*
X1527524D01*
Y647181D01*
X1522859Y642516D01*
Y641350D01*
X1449070Y596900D02*
Y603898D01*
X1452569D01*
X1453735Y602732D01*
Y600399D01*
X1452569Y599233D01*
X1449070D01*
X1451403D02*
X1453735Y596900D01*
X1456068D02*
X1458400D01*
X1457234D01*
Y603898D01*
X1456068Y602732D01*
X1466564Y603898D02*
X1464232Y602732D01*
X1461899Y600399D01*
Y598066D01*
X1463065Y596900D01*
X1465398D01*
X1466564Y598066D01*
Y599233D01*
X1465398Y600399D01*
X1461899D01*
X1508345Y574791D02*
X1507179Y575958D01*
X1504846D01*
X1503680Y574791D01*
Y570126D01*
X1504846Y568960D01*
X1507179D01*
X1508345Y570126D01*
X1510678Y568960D02*
Y573625D01*
X1513010Y575958D01*
X1515343Y573625D01*
Y568960D01*
Y572459D01*
X1510678D01*
X1517675Y568960D02*
Y575958D01*
X1522341Y568960D01*
Y575958D01*
X1529338Y568960D02*
X1524673D01*
X1529338Y573625D01*
Y574791D01*
X1528172Y575958D01*
X1525840D01*
X1524673Y574791D01*
X1455420Y822338D02*
Y821171D01*
X1457753Y818839D01*
X1460085Y821171D01*
Y822338D01*
X1457753Y818839D02*
Y815340D01*
X1462418D02*
X1464750D01*
X1463584D01*
Y822338D01*
X1462418Y821171D01*
X1661160Y725818D02*
Y719986D01*
X1662326Y718820D01*
X1664659D01*
X1665825Y719986D01*
Y725818D01*
X1668158Y718820D02*
X1670490D01*
X1669324D01*
Y725818D01*
X1668158Y724651D01*
X1673989D02*
X1675155Y725818D01*
X1677488D01*
X1678654Y724651D01*
Y719986D01*
X1677488Y718820D01*
X1675155D01*
X1673989Y719986D01*
Y724651D01*
X1590040Y847738D02*
Y841906D01*
X1591206Y840740D01*
X1593539D01*
X1594705Y841906D01*
Y847738D01*
X1597038Y841906D02*
X1598204Y840740D01*
X1600537D01*
X1601703Y841906D01*
Y846572D01*
X1600537Y847738D01*
X1598204D01*
X1597038Y846572D01*
Y845405D01*
X1598204Y844239D01*
X1601703D01*
X1621790Y685178D02*
Y679346D01*
X1622956Y678180D01*
X1625289D01*
X1626455Y679346D01*
Y685178D01*
X1628788Y684012D02*
X1629954Y685178D01*
X1632287D01*
X1633453Y684012D01*
Y682845D01*
X1632287Y681679D01*
X1633453Y680513D01*
Y679346D01*
X1632287Y678180D01*
X1629954D01*
X1628788Y679346D01*
Y680513D01*
X1629954Y681679D01*
X1628788Y682845D01*
Y684012D01*
X1629954Y681679D02*
X1632287D01*
X1700530Y882028D02*
Y876196D01*
X1701696Y875030D01*
X1704029D01*
X1705195Y876196D01*
Y882028D01*
X1707528Y875030D02*
X1709860D01*
X1708694D01*
Y882028D01*
X1707528Y880862D01*
X1756410Y736600D02*
X1749412D01*
Y740099D01*
X1750578Y741265D01*
X1752911D01*
X1754077Y740099D01*
Y736600D01*
Y738933D02*
X1756410Y741265D01*
X1750578Y743598D02*
X1749412Y744764D01*
Y747097D01*
X1750578Y748263D01*
X1751745D01*
X1752911Y747097D01*
Y745930D01*
Y747097D01*
X1754077Y748263D01*
X1755244D01*
X1756410Y747097D01*
Y744764D01*
X1755244Y743598D01*
X1756410Y750595D02*
Y752928D01*
Y751762D01*
X1749412D01*
X1750578Y750595D01*
X1738630Y736600D02*
X1731632D01*
Y740099D01*
X1732798Y741265D01*
X1735131D01*
X1736297Y740099D01*
Y736600D01*
Y738933D02*
X1738630Y741265D01*
X1732798Y743598D02*
X1731632Y744764D01*
Y747097D01*
X1732798Y748263D01*
X1733965D01*
X1735131Y747097D01*
Y745930D01*
Y747097D01*
X1736297Y748263D01*
X1737464D01*
X1738630Y747097D01*
Y744764D01*
X1737464Y743598D01*
X1732798Y750595D02*
X1731632Y751762D01*
Y754094D01*
X1732798Y755261D01*
X1737464D01*
X1738630Y754094D01*
Y751762D01*
X1737464Y750595D01*
X1732798D01*
X1586230Y787400D02*
Y794398D01*
X1589729D01*
X1590895Y793232D01*
Y790899D01*
X1589729Y789733D01*
X1586230D01*
X1588563D02*
X1590895Y787400D01*
X1597893D02*
X1593228D01*
X1597893Y792065D01*
Y793232D01*
X1596727Y794398D01*
X1594394D01*
X1593228Y793232D01*
X1600226Y788566D02*
X1601392Y787400D01*
X1603724D01*
X1604891Y788566D01*
Y793232D01*
X1603724Y794398D01*
X1601392D01*
X1600226Y793232D01*
Y792065D01*
X1601392Y790899D01*
X1604891D01*
X1431290Y793750D02*
Y800748D01*
X1434789D01*
X1435955Y799582D01*
Y797249D01*
X1434789Y796083D01*
X1431290D01*
X1433623D02*
X1435955Y793750D01*
X1442953D02*
X1438288D01*
X1442953Y798415D01*
Y799582D01*
X1441787Y800748D01*
X1439454D01*
X1438288Y799582D01*
X1445285D02*
X1446452Y800748D01*
X1448784D01*
X1449951Y799582D01*
Y798415D01*
X1448784Y797249D01*
X1449951Y796083D01*
Y794916D01*
X1448784Y793750D01*
X1446452D01*
X1445285Y794916D01*
Y796083D01*
X1446452Y797249D01*
X1445285Y798415D01*
Y799582D01*
X1446452Y797249D02*
X1448784D01*
X1478280Y871220D02*
Y878218D01*
X1481779D01*
X1482945Y877051D01*
Y874719D01*
X1481779Y873553D01*
X1478280D01*
X1480613D02*
X1482945Y871220D01*
X1489943D02*
X1485278D01*
X1489943Y875885D01*
Y877051D01*
X1488777Y878218D01*
X1486444D01*
X1485278Y877051D01*
X1492276Y878218D02*
X1496941D01*
Y877051D01*
X1492276Y872386D01*
Y871220D01*
X1623060Y838200D02*
Y845198D01*
X1626559D01*
X1627725Y844032D01*
Y841699D01*
X1626559Y840533D01*
X1623060D01*
X1625393D02*
X1627725Y838200D01*
X1634723D02*
X1630058D01*
X1634723Y842865D01*
Y844032D01*
X1633557Y845198D01*
X1631224D01*
X1630058Y844032D01*
X1641721Y845198D02*
X1639388Y844032D01*
X1637056Y841699D01*
Y839366D01*
X1638222Y838200D01*
X1640554D01*
X1641721Y839366D01*
Y840533D01*
X1640554Y841699D01*
X1637056D01*
X1505712Y872744D02*
Y879742D01*
X1509211D01*
X1510377Y878576D01*
Y876243D01*
X1509211Y875077D01*
X1505712D01*
X1508045D02*
X1510377Y872744D01*
X1517375D02*
X1512710D01*
X1517375Y877409D01*
Y878576D01*
X1516209Y879742D01*
X1513876D01*
X1512710Y878576D01*
X1524373Y879742D02*
X1519707D01*
Y876243D01*
X1522040Y877409D01*
X1523206D01*
X1524373Y876243D01*
Y873910D01*
X1523206Y872744D01*
X1520874D01*
X1519707Y873910D01*
X1530350Y872490D02*
Y879488D01*
X1533849D01*
X1535015Y878322D01*
Y875989D01*
X1533849Y874823D01*
X1530350D01*
X1532683D02*
X1535015Y872490D01*
X1542013D02*
X1537348D01*
X1542013Y877155D01*
Y878322D01*
X1540847Y879488D01*
X1538514D01*
X1537348Y878322D01*
X1547844Y872490D02*
Y879488D01*
X1544346Y875989D01*
X1549011D01*
X1551940Y728980D02*
X1544942D01*
Y732479D01*
X1546109Y733645D01*
X1548441D01*
X1549607Y732479D01*
Y728980D01*
Y731313D02*
X1551940Y733645D01*
Y740643D02*
Y735978D01*
X1547275Y740643D01*
X1546109D01*
X1544942Y739477D01*
Y737144D01*
X1546109Y735978D01*
Y742975D02*
X1544942Y744142D01*
Y746474D01*
X1546109Y747641D01*
X1547275D01*
X1548441Y746474D01*
Y745308D01*
Y746474D01*
X1549607Y747641D01*
X1550774D01*
X1551940Y746474D01*
Y744142D01*
X1550774Y742975D01*
X1507490Y732790D02*
X1500492D01*
Y736289D01*
X1501658Y737455D01*
X1503991D01*
X1505157Y736289D01*
Y732790D01*
Y735123D02*
X1507490Y737455D01*
Y744453D02*
Y739788D01*
X1502825Y744453D01*
X1501658D01*
X1500492Y743287D01*
Y740954D01*
X1501658Y739788D01*
X1507490Y751451D02*
Y746786D01*
X1502825Y751451D01*
X1501658D01*
X1500492Y750284D01*
Y747952D01*
X1501658Y746786D01*
X1586230Y584200D02*
Y591198D01*
X1589729D01*
X1590895Y590032D01*
Y587699D01*
X1589729Y586533D01*
X1586230D01*
X1588563D02*
X1590895Y584200D01*
X1597893D02*
X1593228D01*
X1597893Y588865D01*
Y590032D01*
X1596727Y591198D01*
X1594394D01*
X1593228Y590032D01*
X1600226Y584200D02*
X1602558D01*
X1601392D01*
Y591198D01*
X1600226Y590032D01*
X1560830Y584200D02*
Y591198D01*
X1564329D01*
X1565495Y590032D01*
Y587699D01*
X1564329Y586533D01*
X1560830D01*
X1563163D02*
X1565495Y584200D01*
X1572493D02*
X1567828D01*
X1572493Y588865D01*
Y590032D01*
X1571327Y591198D01*
X1568994D01*
X1567828Y590032D01*
X1574825D02*
X1575992Y591198D01*
X1578324D01*
X1579491Y590032D01*
Y585366D01*
X1578324Y584200D01*
X1575992D01*
X1574825Y585366D01*
Y590032D01*
X1607820Y584200D02*
Y591198D01*
X1611319D01*
X1612485Y590032D01*
Y587699D01*
X1611319Y586533D01*
X1607820D01*
X1610153D02*
X1612485Y584200D01*
X1614818D02*
X1617150D01*
X1615984D01*
Y591198D01*
X1614818Y590032D01*
X1620649Y585366D02*
X1621815Y584200D01*
X1624148D01*
X1625314Y585366D01*
Y590032D01*
X1624148Y591198D01*
X1621815D01*
X1620649Y590032D01*
Y588865D01*
X1621815Y587699D01*
X1625314D01*
X1452880Y918210D02*
Y925208D01*
X1456379D01*
X1457545Y924042D01*
Y921709D01*
X1456379Y920543D01*
X1452880D01*
X1455213D02*
X1457545Y918210D01*
X1459878D02*
X1462210D01*
X1461044D01*
Y925208D01*
X1459878Y924042D01*
X1470374Y925208D02*
X1465709D01*
Y921709D01*
X1468042Y922875D01*
X1469208D01*
X1470374Y921709D01*
Y919376D01*
X1469208Y918210D01*
X1466875D01*
X1465709Y919376D01*
X1454150Y897890D02*
Y904888D01*
X1457649D01*
X1458815Y903721D01*
Y901389D01*
X1457649Y900223D01*
X1454150D01*
X1456483D02*
X1458815Y897890D01*
X1461148D02*
X1463480D01*
X1462314D01*
Y904888D01*
X1461148Y903721D01*
X1470478Y897890D02*
Y904888D01*
X1466979Y901389D01*
X1471644D01*
X1728470Y900430D02*
Y907428D01*
X1731969D01*
X1733135Y906262D01*
Y903929D01*
X1731969Y902763D01*
X1728470D01*
X1730803D02*
X1733135Y900430D01*
X1735468Y906262D02*
X1736634Y907428D01*
X1738967D01*
X1740133Y906262D01*
Y905095D01*
X1738967Y903929D01*
X1740133Y902763D01*
Y901596D01*
X1738967Y900430D01*
X1736634D01*
X1735468Y901596D01*
Y902763D01*
X1736634Y903929D01*
X1735468Y905095D01*
Y906262D01*
X1736634Y903929D02*
X1738967D01*
X1729740Y922020D02*
Y929018D01*
X1733239D01*
X1734405Y927851D01*
Y925519D01*
X1733239Y924353D01*
X1729740D01*
X1732073D02*
X1734405Y922020D01*
X1741403Y929018D02*
X1739070Y927851D01*
X1736738Y925519D01*
Y923186D01*
X1737904Y922020D01*
X1740237D01*
X1741403Y923186D01*
Y924353D01*
X1740237Y925519D01*
X1736738D01*
X1672590Y664858D02*
Y657860D01*
X1677255D01*
X1684253D02*
X1679588D01*
X1684253Y662525D01*
Y663691D01*
X1683087Y664858D01*
X1680754D01*
X1679588Y663691D01*
X1466850Y842658D02*
Y835660D01*
X1470349D01*
X1471515Y836826D01*
Y841491D01*
X1470349Y842658D01*
X1466850D01*
X1473848D02*
Y835660D01*
X1477347D01*
X1478513Y836826D01*
Y841491D01*
X1477347Y842658D01*
X1473848D01*
X1480845Y835660D02*
X1483178D01*
X1482012D01*
Y842658D01*
X1480845Y841491D01*
X1588770Y777888D02*
Y770890D01*
X1592269D01*
X1593435Y772056D01*
Y776721D01*
X1592269Y777888D01*
X1588770D01*
X1599267Y770890D02*
Y777888D01*
X1595768Y774389D01*
X1600433D01*
X1583690Y723278D02*
Y716280D01*
X1587189D01*
X1588355Y717446D01*
Y722112D01*
X1587189Y723278D01*
X1583690D01*
X1590688Y722112D02*
X1591854Y723278D01*
X1594187D01*
X1595353Y722112D01*
Y720945D01*
X1594187Y719779D01*
X1593020D01*
X1594187D01*
X1595353Y718613D01*
Y717446D01*
X1594187Y716280D01*
X1591854D01*
X1590688Y717446D01*
X1639155Y744971D02*
X1637989Y746138D01*
X1635656D01*
X1634490Y744971D01*
Y740306D01*
X1635656Y739140D01*
X1637989D01*
X1639155Y740306D01*
X1641488Y744971D02*
X1642654Y746138D01*
X1644987D01*
X1646153Y744971D01*
Y743805D01*
X1644987Y742639D01*
X1643820D01*
X1644987D01*
X1646153Y741473D01*
Y740306D01*
X1644987Y739140D01*
X1642654D01*
X1641488Y740306D01*
X1648486Y739140D02*
X1650818D01*
X1649652D01*
Y746138D01*
X1648486Y744971D01*
X1712478Y743805D02*
X1711312Y742639D01*
Y740306D01*
X1712478Y739140D01*
X1717144D01*
X1718310Y740306D01*
Y742639D01*
X1717144Y743805D01*
X1712478Y746138D02*
X1711312Y747304D01*
Y749637D01*
X1712478Y750803D01*
X1713645D01*
X1714811Y749637D01*
Y748470D01*
Y749637D01*
X1715977Y750803D01*
X1717144D01*
X1718310Y749637D01*
Y747304D01*
X1717144Y746138D01*
X1712478Y753136D02*
X1711312Y754302D01*
Y756634D01*
X1712478Y757801D01*
X1717144D01*
X1718310Y756634D01*
Y754302D01*
X1717144Y753136D01*
X1712478D01*
X1437225Y864352D02*
X1436059Y865518D01*
X1433726D01*
X1432560Y864352D01*
Y859686D01*
X1433726Y858520D01*
X1436059D01*
X1437225Y859686D01*
X1444223Y858520D02*
X1439558D01*
X1444223Y863185D01*
Y864352D01*
X1443057Y865518D01*
X1440724D01*
X1439558Y864352D01*
X1446555Y859686D02*
X1447722Y858520D01*
X1450054D01*
X1451221Y859686D01*
Y864352D01*
X1450054Y865518D01*
X1447722D01*
X1446555Y864352D01*
Y863185D01*
X1447722Y862019D01*
X1451221D01*
X1563844Y870828D02*
X1562678Y871995D01*
X1560345D01*
X1559179Y870828D01*
Y866163D01*
X1560345Y864997D01*
X1562678D01*
X1563844Y866163D01*
X1570842Y864997D02*
X1566177D01*
X1570842Y869662D01*
Y870828D01*
X1569676Y871995D01*
X1567343D01*
X1566177Y870828D01*
X1573174D02*
X1574341Y871995D01*
X1576673D01*
X1577840Y870828D01*
Y869662D01*
X1576673Y868496D01*
X1577840Y867330D01*
Y866163D01*
X1576673Y864997D01*
X1574341D01*
X1573174Y866163D01*
Y867330D01*
X1574341Y868496D01*
X1573174Y869662D01*
Y870828D01*
X1574341Y868496D02*
X1576673D01*
X1592165Y757672D02*
X1590999Y758838D01*
X1588666D01*
X1587500Y757672D01*
Y753006D01*
X1588666Y751840D01*
X1590999D01*
X1592165Y753006D01*
X1599163Y751840D02*
X1594498D01*
X1599163Y756505D01*
Y757672D01*
X1597997Y758838D01*
X1595664D01*
X1594498Y757672D01*
X1601496Y758838D02*
X1606161D01*
Y757672D01*
X1601496Y753006D01*
Y751840D01*
X1461355Y769101D02*
X1460189Y770268D01*
X1457856D01*
X1456690Y769101D01*
Y764436D01*
X1457856Y763270D01*
X1460189D01*
X1461355Y764436D01*
X1468353Y763270D02*
X1463688D01*
X1468353Y767935D01*
Y769101D01*
X1467187Y770268D01*
X1464854D01*
X1463688Y769101D01*
X1475351Y770268D02*
X1473018Y769101D01*
X1470685Y766769D01*
Y764436D01*
X1471852Y763270D01*
X1474184D01*
X1475351Y764436D01*
Y765603D01*
X1474184Y766769D01*
X1470685D01*
X1617565Y783072D02*
X1616399Y784238D01*
X1614066D01*
X1612900Y783072D01*
Y778406D01*
X1614066Y777240D01*
X1616399D01*
X1617565Y778406D01*
X1624563Y777240D02*
X1619898D01*
X1624563Y781905D01*
Y783072D01*
X1623397Y784238D01*
X1621064D01*
X1619898Y783072D01*
X1631561Y784238D02*
X1626895D01*
Y780739D01*
X1629228Y781905D01*
X1630394D01*
X1631561Y780739D01*
Y778406D01*
X1630394Y777240D01*
X1628062D01*
X1626895Y778406D01*
X1548649Y817465D02*
X1547482Y816299D01*
Y813966D01*
X1548649Y812800D01*
X1553314D01*
X1554480Y813966D01*
Y816299D01*
X1553314Y817465D01*
X1554480Y824463D02*
Y819798D01*
X1549815Y824463D01*
X1548649D01*
X1547482Y823297D01*
Y820964D01*
X1548649Y819798D01*
X1554480Y830294D02*
X1547482D01*
X1550981Y826796D01*
Y831461D01*
X1636615Y590032D02*
X1635449Y591198D01*
X1633116D01*
X1631950Y590032D01*
Y585366D01*
X1633116Y584200D01*
X1635449D01*
X1636615Y585366D01*
X1643613Y584200D02*
X1638948D01*
X1643613Y588865D01*
Y590032D01*
X1642447Y591198D01*
X1640114D01*
X1638948Y590032D01*
X1645945D02*
X1647112Y591198D01*
X1649444D01*
X1650611Y590032D01*
Y588865D01*
X1649444Y587699D01*
X1648278D01*
X1649444D01*
X1650611Y586533D01*
Y585366D01*
X1649444Y584200D01*
X1647112D01*
X1645945Y585366D01*
X1737668Y611615D02*
X1736502Y610449D01*
Y608116D01*
X1737668Y606950D01*
X1742334D01*
X1743500Y608116D01*
Y610449D01*
X1742334Y611615D01*
X1743500Y618613D02*
Y613948D01*
X1738835Y618613D01*
X1737668D01*
X1736502Y617447D01*
Y615114D01*
X1737668Y613948D01*
X1743500Y625611D02*
Y620946D01*
X1738835Y625611D01*
X1737668D01*
X1736502Y624444D01*
Y622112D01*
X1737668Y620946D01*
Y671305D02*
X1736502Y670139D01*
Y667806D01*
X1737668Y666640D01*
X1742334D01*
X1743500Y667806D01*
Y670139D01*
X1742334Y671305D01*
X1743500Y678303D02*
Y673638D01*
X1738835Y678303D01*
X1737668D01*
X1736502Y677137D01*
Y674804D01*
X1737668Y673638D01*
X1743500Y680636D02*
Y682968D01*
Y681802D01*
X1736502D01*
X1737668Y680636D01*
X1675423Y611564D02*
X1674256Y610398D01*
Y608066D01*
X1675423Y606899D01*
X1680088D01*
X1681254Y608066D01*
Y610398D01*
X1680088Y611564D01*
X1681254Y618562D02*
Y613897D01*
X1676589Y618562D01*
X1675423D01*
X1674256Y617396D01*
Y615063D01*
X1675423Y613897D01*
Y620895D02*
X1674256Y622061D01*
Y624394D01*
X1675423Y625560D01*
X1680088D01*
X1681254Y624394D01*
Y622061D01*
X1680088Y620895D01*
X1675423D01*
Y586253D02*
X1674256Y585086D01*
Y582754D01*
X1675423Y581587D01*
X1680088D01*
X1681254Y582754D01*
Y585086D01*
X1680088Y586253D01*
X1681254Y588585D02*
Y590918D01*
Y589751D01*
X1674256D01*
X1675423Y588585D01*
X1680088Y594417D02*
X1681254Y595583D01*
Y597915D01*
X1680088Y599082D01*
X1675423D01*
X1674256Y597915D01*
Y595583D01*
X1675423Y594417D01*
X1676589D01*
X1677755Y595583D01*
Y599082D01*
X1737668Y586215D02*
X1736502Y585049D01*
Y582716D01*
X1737668Y581550D01*
X1742334D01*
X1743500Y582716D01*
Y585049D01*
X1742334Y586215D01*
X1743500Y588548D02*
Y590880D01*
Y589714D01*
X1736502D01*
X1737668Y588548D01*
Y594379D02*
X1736502Y595546D01*
Y597878D01*
X1737668Y599044D01*
X1738835D01*
X1740001Y597878D01*
X1741167Y599044D01*
X1742334D01*
X1743500Y597878D01*
Y595546D01*
X1742334Y594379D01*
X1741167D01*
X1740001Y595546D01*
X1738835Y594379D01*
X1737668D01*
X1740001Y595546D02*
Y597878D01*
X1737668Y643365D02*
X1736502Y642199D01*
Y639866D01*
X1737668Y638700D01*
X1742334D01*
X1743500Y639866D01*
Y642199D01*
X1742334Y643365D01*
X1743500Y645698D02*
Y648030D01*
Y646864D01*
X1736502D01*
X1737668Y645698D01*
X1736502Y651529D02*
Y656194D01*
X1737668D01*
X1742334Y651529D01*
X1743500D01*
X1535523Y712713D02*
X1534357Y713880D01*
X1532024D01*
X1530858Y712713D01*
Y708048D01*
X1532024Y706882D01*
X1534357D01*
X1535523Y708048D01*
X1537856Y706882D02*
X1540188D01*
X1539022D01*
Y713880D01*
X1537856Y712713D01*
X1548352Y713880D02*
X1546020Y712713D01*
X1543687Y710381D01*
Y708048D01*
X1544854Y706882D01*
X1547186D01*
X1548352Y708048D01*
Y709215D01*
X1547186Y710381D01*
X1543687D01*
X1511393Y712713D02*
X1510227Y713880D01*
X1507894D01*
X1506728Y712713D01*
Y708048D01*
X1507894Y706882D01*
X1510227D01*
X1511393Y708048D01*
X1513726Y706882D02*
X1516058D01*
X1514892D01*
Y713880D01*
X1513726Y712713D01*
X1524222Y713880D02*
X1519557D01*
Y710381D01*
X1521890Y711547D01*
X1523056D01*
X1524222Y710381D01*
Y708048D01*
X1523056Y706882D01*
X1520724D01*
X1519557Y708048D01*
X1599785Y690361D02*
X1598619Y691528D01*
X1596286D01*
X1595120Y690361D01*
Y685696D01*
X1596286Y684530D01*
X1598619D01*
X1599785Y685696D01*
X1602118Y684530D02*
X1604450D01*
X1603284D01*
Y691528D01*
X1602118Y690361D01*
X1611448Y684530D02*
Y691528D01*
X1607949Y688029D01*
X1612614D01*
X1740247Y883401D02*
X1739081Y884568D01*
X1736748D01*
X1735582Y883401D01*
Y878736D01*
X1736748Y877570D01*
X1739081D01*
X1740247Y878736D01*
X1747245Y877570D02*
X1742580D01*
X1747245Y882235D01*
Y883401D01*
X1746079Y884568D01*
X1743746D01*
X1742580Y883401D01*
X1658205Y861812D02*
X1657039Y862978D01*
X1654706D01*
X1653540Y861812D01*
Y857146D01*
X1654706Y855980D01*
X1657039D01*
X1658205Y857146D01*
X1660538Y855980D02*
X1662870D01*
X1661704D01*
Y862978D01*
X1660538Y861812D01*
X1468120Y965848D02*
Y960016D01*
X1469286Y958850D01*
X1471619D01*
X1472785Y960016D01*
Y965848D01*
X1479783D02*
X1477450Y964681D01*
X1475118Y962349D01*
Y960016D01*
X1476284Y958850D01*
X1478617D01*
X1479783Y960016D01*
Y961183D01*
X1478617Y962349D01*
X1475118D01*
X1643380Y1067448D02*
Y1061616D01*
X1644546Y1060450D01*
X1646879D01*
X1648045Y1061616D01*
Y1067448D01*
X1650378Y1066282D02*
X1651544Y1067448D01*
X1653877D01*
X1655043Y1066282D01*
Y1065115D01*
X1653877Y1063949D01*
X1652710D01*
X1653877D01*
X1655043Y1062783D01*
Y1061616D01*
X1653877Y1060450D01*
X1651544D01*
X1650378Y1061616D01*
X1505551Y1056790D02*
Y1061456D01*
X1504385Y1062622D01*
X1502052D01*
X1500886Y1061456D01*
Y1056790D01*
X1502052Y1055624D01*
X1504385D01*
X1503219Y1057957D02*
X1505551Y1055624D01*
X1504385D02*
X1505551Y1056790D01*
X1512549Y1055624D02*
X1507884D01*
X1512549Y1060289D01*
Y1061456D01*
X1511383Y1062622D01*
X1509050D01*
X1507884Y1061456D01*
X1568797Y1050948D02*
Y1055613D01*
X1567631Y1056780D01*
X1565298D01*
X1564132Y1055613D01*
Y1050948D01*
X1565298Y1049782D01*
X1567631D01*
X1566465Y1052115D02*
X1568797Y1049782D01*
X1567631D02*
X1568797Y1050948D01*
X1571130Y1049782D02*
X1573462D01*
X1572296D01*
Y1056780D01*
X1571130Y1055613D01*
X1687970Y946939D02*
Y941108D01*
X1689136Y939941D01*
X1691469D01*
X1692635Y941108D01*
Y946939D01*
X1699633D02*
X1694968D01*
Y943440D01*
X1697300Y944607D01*
X1698467D01*
X1699633Y943440D01*
Y941108D01*
X1698467Y939941D01*
X1696134D01*
X1694968Y941108D01*
X1667510Y993788D02*
Y987956D01*
X1668676Y986790D01*
X1671009D01*
X1672175Y987956D01*
Y993788D01*
X1678007Y986790D02*
Y993788D01*
X1674508Y990289D01*
X1679173D01*
X1628140Y955688D02*
Y949856D01*
X1629306Y948690D01*
X1631639D01*
X1632805Y949856D01*
Y955688D01*
X1639803Y948690D02*
X1635138D01*
X1639803Y953355D01*
Y954521D01*
X1638637Y955688D01*
X1636304D01*
X1635138Y954521D01*
X1423797Y1046988D02*
Y1053986D01*
X1426130Y1051653D01*
X1428462Y1053986D01*
Y1046988D01*
X1430795D02*
X1433127D01*
X1431961D01*
Y1053986D01*
X1430795Y1052820D01*
X1485900Y1128408D02*
Y1121410D01*
X1490565D01*
X1492898D02*
X1495230D01*
X1494064D01*
Y1128408D01*
X1492898Y1127242D01*
X1691640Y927748D02*
Y920750D01*
X1695139D01*
X1696305Y921916D01*
Y926581D01*
X1695139Y927748D01*
X1691640D01*
X1703303Y920750D02*
X1698638D01*
X1703303Y925415D01*
Y926581D01*
X1702137Y927748D01*
X1699804D01*
X1698638Y926581D01*
X1485900Y897890D02*
Y904888D01*
X1489399D01*
X1490565Y903721D01*
Y901389D01*
X1489399Y900223D01*
X1485900D01*
X1488233D02*
X1490565Y897890D01*
X1492898D02*
X1495230D01*
X1494064D01*
Y904888D01*
X1492898Y903721D01*
X1498729D02*
X1499895Y904888D01*
X1502228D01*
X1503394Y903721D01*
Y902555D01*
X1502228Y901389D01*
X1501062D01*
X1502228D01*
X1503394Y900223D01*
Y899056D01*
X1502228Y897890D01*
X1499895D01*
X1498729Y899056D01*
X1485900Y916940D02*
Y923938D01*
X1489399D01*
X1490565Y922772D01*
Y920439D01*
X1489399Y919273D01*
X1485900D01*
X1488233D02*
X1490565Y916940D01*
X1492898D02*
X1495230D01*
X1494064D01*
Y923938D01*
X1492898Y922772D01*
X1503394Y916940D02*
X1498729D01*
X1503394Y921605D01*
Y922772D01*
X1502228Y923938D01*
X1499895D01*
X1498729Y922772D01*
X1651000Y803910D02*
Y810908D01*
X1654499D01*
X1655665Y809742D01*
Y807409D01*
X1654499Y806243D01*
X1651000D01*
X1653333D02*
X1655665Y803910D01*
X1657998D02*
X1660330D01*
X1659164D01*
Y810908D01*
X1657998Y809742D01*
X1663829Y803910D02*
X1666162D01*
X1664996D01*
Y810908D01*
X1663829Y809742D01*
X1748790Y949960D02*
Y956958D01*
X1752289D01*
X1753455Y955791D01*
Y953459D01*
X1752289Y952293D01*
X1748790D01*
X1751123D02*
X1753455Y949960D01*
X1755788D02*
X1758120D01*
X1756954D01*
Y956958D01*
X1755788Y955791D01*
X1761619D02*
X1762785Y956958D01*
X1765118D01*
X1766284Y955791D01*
Y951126D01*
X1765118Y949960D01*
X1762785D01*
X1761619Y951126D01*
Y955791D01*
X1695704Y1007618D02*
Y1014616D01*
X1699203D01*
X1700369Y1013449D01*
Y1011117D01*
X1699203Y1009951D01*
X1695704D01*
X1698037D02*
X1700369Y1007618D01*
X1702702Y1014616D02*
X1707367D01*
Y1013449D01*
X1702702Y1008784D01*
Y1007618D01*
X1623314Y1052322D02*
Y1059320D01*
X1626813D01*
X1627979Y1058154D01*
Y1055821D01*
X1626813Y1054655D01*
X1623314D01*
X1625647D02*
X1627979Y1052322D01*
X1630312Y1053488D02*
X1631478Y1052322D01*
X1633811D01*
X1634977Y1053488D01*
Y1058154D01*
X1633811Y1059320D01*
X1631478D01*
X1630312Y1058154D01*
Y1056987D01*
X1631478Y1055821D01*
X1634977D01*
X1625600Y989330D02*
Y996328D01*
X1629099D01*
X1630265Y995162D01*
Y992829D01*
X1629099Y991663D01*
X1625600D01*
X1627933D02*
X1630265Y989330D01*
X1637263Y996328D02*
X1632598D01*
Y992829D01*
X1634930Y993995D01*
X1636097D01*
X1637263Y992829D01*
Y990496D01*
X1636097Y989330D01*
X1633764D01*
X1632598Y990496D01*
X1700530Y963930D02*
Y970928D01*
X1704029D01*
X1705195Y969762D01*
Y967429D01*
X1704029Y966263D01*
X1700530D01*
X1702863D02*
X1705195Y963930D01*
X1711027D02*
Y970928D01*
X1707528Y967429D01*
X1712193D01*
X1748790Y979170D02*
Y986168D01*
X1752289D01*
X1753455Y985002D01*
Y982669D01*
X1752289Y981503D01*
X1748790D01*
X1751123D02*
X1753455Y979170D01*
X1755788Y985002D02*
X1756954Y986168D01*
X1759287D01*
X1760453Y985002D01*
Y983835D01*
X1759287Y982669D01*
X1758120D01*
X1759287D01*
X1760453Y981503D01*
Y980336D01*
X1759287Y979170D01*
X1756954D01*
X1755788Y980336D01*
X1695450Y900430D02*
Y907428D01*
X1698949D01*
X1700115Y906262D01*
Y903929D01*
X1698949Y902763D01*
X1695450D01*
X1697783D02*
X1700115Y900430D01*
X1707113D02*
X1702448D01*
X1707113Y905095D01*
Y906262D01*
X1705947Y907428D01*
X1703614D01*
X1702448Y906262D01*
X1727200Y1005840D02*
Y1012838D01*
X1730699D01*
X1731865Y1011672D01*
Y1009339D01*
X1730699Y1008173D01*
X1727200D01*
X1729533D02*
X1731865Y1005840D01*
X1734198D02*
X1736530D01*
X1735364D01*
Y1012838D01*
X1734198Y1011672D01*
X1722120Y1080148D02*
Y1073150D01*
X1726785D01*
X1733783Y1080148D02*
X1729118D01*
Y1073150D01*
X1733783D01*
X1729118Y1076649D02*
X1731450D01*
X1736116Y1080148D02*
Y1073150D01*
X1739614D01*
X1740781Y1074316D01*
Y1078981D01*
X1739614Y1080148D01*
X1736116D01*
X1743113Y1078981D02*
X1744279Y1080148D01*
X1746612D01*
X1747778Y1078981D01*
Y1077815D01*
X1746612Y1076649D01*
X1745446D01*
X1746612D01*
X1747778Y1075483D01*
Y1074316D01*
X1746612Y1073150D01*
X1744279D01*
X1743113Y1074316D01*
X1694180Y1113168D02*
Y1106170D01*
X1698845D01*
X1705843Y1113168D02*
X1701178D01*
Y1106170D01*
X1705843D01*
X1701178Y1109669D02*
X1703510D01*
X1708176Y1113168D02*
Y1106170D01*
X1711674D01*
X1712841Y1107336D01*
Y1112001D01*
X1711674Y1113168D01*
X1708176D01*
X1719838Y1106170D02*
X1715173D01*
X1719838Y1110835D01*
Y1112001D01*
X1718672Y1113168D01*
X1716340D01*
X1715173Y1112001D01*
X1652270Y1133488D02*
Y1126490D01*
X1656935D01*
X1663933Y1133488D02*
X1659268D01*
Y1126490D01*
X1663933D01*
X1659268Y1129989D02*
X1661600D01*
X1666266Y1133488D02*
Y1126490D01*
X1669764D01*
X1670931Y1127656D01*
Y1132321D01*
X1669764Y1133488D01*
X1666266D01*
X1673263Y1126490D02*
X1675596D01*
X1674429D01*
Y1133488D01*
X1673263Y1132321D01*
X1623060Y1132218D02*
Y1125220D01*
X1626559D01*
X1627725Y1126386D01*
Y1131051D01*
X1626559Y1132218D01*
X1623060D01*
X1630058Y1125220D02*
X1632390D01*
X1631224D01*
Y1132218D01*
X1630058Y1131051D01*
X1425795Y936741D02*
X1424629Y937908D01*
X1422296D01*
X1421130Y936741D01*
Y932076D01*
X1422296Y930910D01*
X1424629D01*
X1425795Y932076D01*
X1428128Y930910D02*
X1430460D01*
X1429294D01*
Y937908D01*
X1428128Y936741D01*
X1433959D02*
X1435125Y937908D01*
X1437458D01*
X1438624Y936741D01*
Y935575D01*
X1437458Y934409D01*
X1436292D01*
X1437458D01*
X1438624Y933243D01*
Y932076D01*
X1437458Y930910D01*
X1435125D01*
X1433959Y932076D01*
X1427065Y959602D02*
X1425899Y960768D01*
X1423566D01*
X1422400Y959602D01*
Y954936D01*
X1423566Y953770D01*
X1425899D01*
X1427065Y954936D01*
X1429398Y953770D02*
X1431730D01*
X1430564D01*
Y960768D01*
X1429398Y959602D01*
X1439894Y953770D02*
X1435229D01*
X1439894Y958435D01*
Y959602D01*
X1438728Y960768D01*
X1436396D01*
X1435229Y959602D01*
X1570575Y929121D02*
X1569409Y930288D01*
X1567076D01*
X1565910Y929121D01*
Y924456D01*
X1567076Y923290D01*
X1569409D01*
X1570575Y924456D01*
X1572908Y923290D02*
X1575240D01*
X1574074D01*
Y930288D01*
X1572908Y929121D01*
X1578739Y923290D02*
X1581072D01*
X1579906D01*
Y930288D01*
X1578739Y929121D01*
X1570575Y974842D02*
X1569409Y976008D01*
X1567076D01*
X1565910Y974842D01*
Y970176D01*
X1567076Y969010D01*
X1569409D01*
X1570575Y970176D01*
X1572908Y969010D02*
X1575240D01*
X1574074D01*
Y976008D01*
X1572908Y974842D01*
X1578739D02*
X1579906Y976008D01*
X1582238D01*
X1583404Y974842D01*
Y970176D01*
X1582238Y969010D01*
X1579906D01*
X1578739Y970176D01*
Y974842D01*
X1574385Y950712D02*
X1573219Y951878D01*
X1570886D01*
X1569720Y950712D01*
Y946046D01*
X1570886Y944880D01*
X1573219D01*
X1574385Y946046D01*
X1576718D02*
X1577884Y944880D01*
X1580217D01*
X1581383Y946046D01*
Y950712D01*
X1580217Y951878D01*
X1577884D01*
X1576718Y950712D01*
Y949545D01*
X1577884Y948379D01*
X1581383D01*
X1573115Y906262D02*
X1571949Y907428D01*
X1569616D01*
X1568450Y906262D01*
Y901596D01*
X1569616Y900430D01*
X1571949D01*
X1573115Y901596D01*
X1575448Y906262D02*
X1576614Y907428D01*
X1578947D01*
X1580113Y906262D01*
Y905095D01*
X1578947Y903929D01*
X1580113Y902763D01*
Y901596D01*
X1578947Y900430D01*
X1576614D01*
X1575448Y901596D01*
Y902763D01*
X1576614Y903929D01*
X1575448Y905095D01*
Y906262D01*
X1576614Y903929D02*
X1578947D01*
X1753455Y939281D02*
X1752289Y940448D01*
X1749956D01*
X1748790Y939281D01*
Y934616D01*
X1749956Y933450D01*
X1752289D01*
X1753455Y934616D01*
X1755788Y940448D02*
X1760453D01*
Y939281D01*
X1755788Y934616D01*
Y933450D01*
X1726785Y1063742D02*
X1725619Y1064908D01*
X1723286D01*
X1722120Y1063742D01*
Y1059076D01*
X1723286Y1057910D01*
X1725619D01*
X1726785Y1059076D01*
X1733783Y1064908D02*
X1731450Y1063742D01*
X1729118Y1061409D01*
Y1059076D01*
X1730284Y1057910D01*
X1732617D01*
X1733783Y1059076D01*
Y1060243D01*
X1732617Y1061409D01*
X1729118D01*
X1532475Y950712D02*
X1531309Y951878D01*
X1528976D01*
X1527810Y950712D01*
Y946046D01*
X1528976Y944880D01*
X1531309D01*
X1532475Y946046D01*
X1539473Y951878D02*
X1534808D01*
Y948379D01*
X1537140Y949545D01*
X1538307D01*
X1539473Y948379D01*
Y946046D01*
X1538307Y944880D01*
X1535974D01*
X1534808Y946046D01*
X1532475Y927851D02*
X1531309Y929018D01*
X1528976D01*
X1527810Y927851D01*
Y923186D01*
X1528976Y922020D01*
X1531309D01*
X1532475Y923186D01*
X1538307Y922020D02*
Y929018D01*
X1534808Y925519D01*
X1539473D01*
X1533745Y906262D02*
X1532579Y907428D01*
X1530246D01*
X1529080Y906262D01*
Y901596D01*
X1530246Y900430D01*
X1532579D01*
X1533745Y901596D01*
X1536078Y906262D02*
X1537244Y907428D01*
X1539577D01*
X1540743Y906262D01*
Y905095D01*
X1539577Y903929D01*
X1538410D01*
X1539577D01*
X1540743Y902763D01*
Y901596D01*
X1539577Y900430D01*
X1537244D01*
X1536078Y901596D01*
M02*
