G04*
G04 #@! TF.GenerationSoftware,Altium Limited,Altium Designer,21.4.1 (30)*
G04*
G04 Layer_Color=32896*
%FSLAX44Y44*%
%MOMM*%
G71*
G04*
G04 #@! TF.SameCoordinates,D2FBEB8F-326A-44D8-8F55-22F389190F62*
G04*
G04*
G04 #@! TF.FilePolarity,Positive*
G04*
G01*
G75*
%ADD20C,0.2000*%
%ADD39C,0.2500*%
%ADD45C,0.2540*%
D20*
X286310Y91295D02*
Y162295D01*
X215310D02*
X286310D01*
X215310Y91295D02*
Y162295D01*
Y91295D02*
X286310D01*
X367336D02*
Y162295D01*
X296336D02*
X367336D01*
X296336Y91295D02*
Y162295D01*
Y91295D02*
X367336D01*
X286310Y341295D02*
Y412295D01*
X215310D02*
X286310D01*
X215310Y341295D02*
Y412295D01*
Y341295D02*
X286310D01*
X367336D02*
Y412295D01*
X296336D02*
X367336D01*
X296336Y341295D02*
Y412295D01*
Y341295D02*
X367336D01*
X286310Y591295D02*
Y662295D01*
X215310D02*
X286310D01*
X215310Y591295D02*
Y662295D01*
Y591295D02*
X286310D01*
X367336D02*
Y662295D01*
X296336D02*
X367336D01*
X296336Y591295D02*
Y662295D01*
Y591295D02*
X367336D01*
X286310Y841295D02*
Y912295D01*
X215310D02*
X286310D01*
X215310Y841295D02*
Y912295D01*
Y841295D02*
X286310D01*
X367336D02*
Y912295D01*
X296336D02*
X367336D01*
X296336Y841295D02*
Y912295D01*
Y841295D02*
X367336D01*
D39*
X264760Y85295D02*
G03*
X264760Y85295I-1250J0D01*
G01*
X345786D02*
G03*
X345786Y85295I-1250J0D01*
G01*
X264760Y335295D02*
G03*
X264760Y335295I-1250J0D01*
G01*
X345786D02*
G03*
X345786Y335295I-1250J0D01*
G01*
X264760Y585295D02*
G03*
X264760Y585295I-1250J0D01*
G01*
X345786D02*
G03*
X345786Y585295I-1250J0D01*
G01*
X264760Y835295D02*
G03*
X264760Y835295I-1250J0D01*
G01*
X345786D02*
G03*
X345786Y835295I-1250J0D01*
G01*
D45*
X253353Y118412D02*
Y128569D01*
X255892Y131108D01*
X260971D01*
X263510Y128569D01*
Y118412D01*
X260971Y115873D01*
X255892D01*
X258431Y120951D02*
X253353Y115873D01*
X255892D02*
X253353Y118412D01*
X238118Y115873D02*
X248275D01*
X238118Y126030D01*
Y128569D01*
X240657Y131108D01*
X245736D01*
X248275Y128569D01*
X331839Y118412D02*
Y128569D01*
X334378Y131108D01*
X339457D01*
X341996Y128569D01*
Y118412D01*
X339457Y115873D01*
X334378D01*
X336917Y120951D02*
X331839Y115873D01*
X334378D02*
X331839Y118412D01*
X326761Y115873D02*
X321683D01*
X324222D01*
Y131108D01*
X326761Y128569D01*
X253353Y368412D02*
Y378569D01*
X255892Y381108D01*
X260971D01*
X263510Y378569D01*
Y368412D01*
X260971Y365873D01*
X255892D01*
X258431Y370951D02*
X253353Y365873D01*
X255892D02*
X253353Y368412D01*
X238118Y365873D02*
X248275D01*
X238118Y376030D01*
Y378569D01*
X240657Y381108D01*
X245736D01*
X248275Y378569D01*
X331839Y368412D02*
Y378569D01*
X334378Y381108D01*
X339457D01*
X341996Y378569D01*
Y368412D01*
X339457Y365873D01*
X334378D01*
X336917Y370951D02*
X331839Y365873D01*
X334378D02*
X331839Y368412D01*
X326761Y365873D02*
X321683D01*
X324222D01*
Y381108D01*
X326761Y378569D01*
X253353Y618412D02*
Y628569D01*
X255892Y631108D01*
X260971D01*
X263510Y628569D01*
Y618412D01*
X260971Y615873D01*
X255892D01*
X258431Y620951D02*
X253353Y615873D01*
X255892D02*
X253353Y618412D01*
X238118Y615873D02*
X248275D01*
X238118Y626030D01*
Y628569D01*
X240657Y631108D01*
X245736D01*
X248275Y628569D01*
X331839Y618412D02*
Y628569D01*
X334378Y631108D01*
X339457D01*
X341996Y628569D01*
Y618412D01*
X339457Y615873D01*
X334378D01*
X336917Y620951D02*
X331839Y615873D01*
X334378D02*
X331839Y618412D01*
X326761Y615873D02*
X321683D01*
X324222D01*
Y631108D01*
X326761Y628569D01*
X253353Y868412D02*
Y878569D01*
X255892Y881108D01*
X260971D01*
X263510Y878569D01*
Y868412D01*
X260971Y865873D01*
X255892D01*
X258431Y870951D02*
X253353Y865873D01*
X255892D02*
X253353Y868412D01*
X238118Y865873D02*
X248275D01*
X238118Y876030D01*
Y878569D01*
X240657Y881108D01*
X245736D01*
X248275Y878569D01*
X331839Y868412D02*
Y878569D01*
X334378Y881108D01*
X339457D01*
X341996Y878569D01*
Y868412D01*
X339457Y865873D01*
X334378D01*
X336917Y870951D02*
X331839Y865873D01*
X334378D02*
X331839Y868412D01*
X326761Y865873D02*
X321683D01*
X324222D01*
Y881108D01*
X326761Y878569D01*
M02*
