G04*
G04 #@! TF.GenerationSoftware,Altium Limited,Altium Designer,21.4.1 (30)*
G04*
G04 Layer_Color=65535*
%FSLAX44Y44*%
%MOMM*%
G71*
G04*
G04 #@! TF.SameCoordinates,D2FBEB8F-326A-44D8-8F55-22F389190F62*
G04*
G04*
G04 #@! TF.FilePolarity,Positive*
G04*
G01*
G75*
%ADD10C,0.5000*%
%ADD20C,0.2000*%
%ADD39C,0.2500*%
%ADD40C,0.6000*%
%ADD41C,0.0762*%
%ADD42C,0.1270*%
%ADD43C,0.0000*%
%ADD44C,0.2032*%
%ADD45C,0.2540*%
%ADD46C,0.1800*%
%ADD47C,0.1000*%
%ADD48C,0.1700*%
D10*
X193180Y1190D02*
X993180D01*
X193180Y251190D02*
X993180D01*
Y1190D02*
Y251190D01*
X193180Y1190D02*
Y251190D01*
Y251190D02*
X993180D01*
X193180Y501190D02*
X993180D01*
Y251190D02*
Y501190D01*
X193180Y251190D02*
Y501190D01*
Y501190D02*
X993180D01*
X193180Y751190D02*
X993180D01*
Y501190D02*
Y751190D01*
X193180Y501190D02*
Y751190D01*
Y751190D02*
X993180D01*
X193180Y1001190D02*
X993180D01*
Y751190D02*
Y1001190D01*
X193180Y751190D02*
Y1001190D01*
D20*
X574482Y117695D02*
G03*
X574482Y130395I0J6350D01*
G01*
X214018Y117195D02*
G03*
X214018Y129895I0J6350D01*
G01*
X574482Y97045D02*
X774482D01*
X574482Y151045D02*
X774482D01*
X574482Y97045D02*
Y117695D01*
Y130395D02*
Y151045D01*
X774482Y97045D02*
Y151045D01*
X808382Y71823D02*
X855382D01*
X808382Y178823D02*
X855382D01*
X808382Y71823D02*
Y178823D01*
X855382Y71823D02*
Y178823D01*
X850382Y71823D02*
Y178823D01*
X976184Y71981D02*
Y176231D01*
X214018Y97045D02*
X568018D01*
X214018Y150045D02*
X568018D01*
X214018Y97045D02*
Y117195D01*
Y129895D02*
Y150045D01*
X568018Y97045D02*
Y150045D01*
X751206Y110643D02*
X753206D01*
X751206Y117143D02*
X753206D01*
X471044Y124867D02*
X473044D01*
X471044Y131367D02*
X473044D01*
X471044Y106325D02*
X473044D01*
X471044Y112825D02*
X473044D01*
X830552Y194463D02*
X832552D01*
X830552Y200963D02*
X832552D01*
X751206Y131979D02*
X753206D01*
X751206Y138479D02*
X753206D01*
X574482Y367695D02*
G03*
X574482Y380395I0J6350D01*
G01*
X214018Y367195D02*
G03*
X214018Y379895I0J6350D01*
G01*
X574482Y347045D02*
X774482D01*
X574482Y401045D02*
X774482D01*
X574482Y347045D02*
Y367695D01*
Y380395D02*
Y401045D01*
X774482Y347045D02*
Y401045D01*
X808382Y321823D02*
X855382D01*
X808382Y428823D02*
X855382D01*
X808382Y321823D02*
Y428823D01*
X855382Y321823D02*
Y428823D01*
X850382Y321823D02*
Y428823D01*
X976184Y321981D02*
Y426231D01*
X214018Y347045D02*
X568018D01*
X214018Y400045D02*
X568018D01*
X214018Y347045D02*
Y367195D01*
Y379895D02*
Y400045D01*
X568018Y347045D02*
Y400045D01*
X751206Y360643D02*
X753206D01*
X751206Y367143D02*
X753206D01*
X471044Y374867D02*
X473044D01*
X471044Y381367D02*
X473044D01*
X471044Y356325D02*
X473044D01*
X471044Y362825D02*
X473044D01*
X830552Y444463D02*
X832552D01*
X830552Y450963D02*
X832552D01*
X751206Y381979D02*
X753206D01*
X751206Y388479D02*
X753206D01*
X574482Y617695D02*
G03*
X574482Y630395I0J6350D01*
G01*
X214018Y617195D02*
G03*
X214018Y629895I0J6350D01*
G01*
X574482Y597045D02*
X774482D01*
X574482Y651045D02*
X774482D01*
X574482Y597045D02*
Y617695D01*
Y630395D02*
Y651045D01*
X774482Y597045D02*
Y651045D01*
X808382Y571823D02*
X855382D01*
X808382Y678823D02*
X855382D01*
X808382Y571823D02*
Y678823D01*
X855382Y571823D02*
Y678823D01*
X850382Y571823D02*
Y678823D01*
X976184Y571981D02*
Y676231D01*
X214018Y597045D02*
X568018D01*
X214018Y650045D02*
X568018D01*
X214018Y597045D02*
Y617195D01*
Y629895D02*
Y650045D01*
X568018Y597045D02*
Y650045D01*
X751206Y610643D02*
X753206D01*
X751206Y617143D02*
X753206D01*
X471044Y624867D02*
X473044D01*
X471044Y631367D02*
X473044D01*
X471044Y606325D02*
X473044D01*
X471044Y612825D02*
X473044D01*
X830552Y694463D02*
X832552D01*
X830552Y700963D02*
X832552D01*
X751206Y631979D02*
X753206D01*
X751206Y638479D02*
X753206D01*
X574482Y867695D02*
G03*
X574482Y880395I0J6350D01*
G01*
X214018Y867195D02*
G03*
X214018Y879895I0J6350D01*
G01*
X574482Y847045D02*
X774482D01*
X574482Y901045D02*
X774482D01*
X574482Y847045D02*
Y867695D01*
Y880395D02*
Y901045D01*
X774482Y847045D02*
Y901045D01*
X808382Y821823D02*
X855382D01*
X808382Y928823D02*
X855382D01*
X808382Y821823D02*
Y928823D01*
X855382Y821823D02*
Y928823D01*
X850382Y821823D02*
Y928823D01*
X976184Y821981D02*
Y926231D01*
X214018Y847045D02*
X568018D01*
X214018Y900045D02*
X568018D01*
X214018Y847045D02*
Y867195D01*
Y879895D02*
Y900045D01*
X568018Y847045D02*
Y900045D01*
X751206Y860643D02*
X753206D01*
X751206Y867143D02*
X753206D01*
X471044Y874867D02*
X473044D01*
X471044Y881367D02*
X473044D01*
X471044Y856325D02*
X473044D01*
X471044Y862825D02*
X473044D01*
X830552Y944463D02*
X832552D01*
X830552Y950963D02*
X832552D01*
X751206Y881979D02*
X753206D01*
X751206Y888479D02*
X753206D01*
D39*
X574332Y85945D02*
G03*
X574332Y85945I-1250J0D01*
G01*
X214168Y85445D02*
G03*
X214168Y85445I-1250J0D01*
G01*
X574332Y335945D02*
G03*
X574332Y335945I-1250J0D01*
G01*
X214168Y335445D02*
G03*
X214168Y335445I-1250J0D01*
G01*
X574332Y585945D02*
G03*
X574332Y585945I-1250J0D01*
G01*
X214168Y585445D02*
G03*
X214168Y585445I-1250J0D01*
G01*
X574332Y835945D02*
G03*
X574332Y835945I-1250J0D01*
G01*
X214168Y835445D02*
G03*
X214168Y835445I-1250J0D01*
G01*
D40*
X587482Y107045D02*
G03*
X587482Y107045I-3000J0D01*
G01*
X227018D02*
G03*
X227018Y107045I-3000J0D01*
G01*
X587482Y357045D02*
G03*
X587482Y357045I-3000J0D01*
G01*
X227018D02*
G03*
X227018Y357045I-3000J0D01*
G01*
X587482Y607045D02*
G03*
X587482Y607045I-3000J0D01*
G01*
X227018D02*
G03*
X227018Y607045I-3000J0D01*
G01*
X587482Y857045D02*
G03*
X587482Y857045I-3000J0D01*
G01*
X227018D02*
G03*
X227018Y857045I-3000J0D01*
G01*
D41*
X935168Y168529D02*
G03*
X935168Y168529I-42500J0D01*
G01*
X935650Y81381D02*
G03*
X935650Y81381I-42500J0D01*
G01*
X935168Y418529D02*
G03*
X935168Y418529I-42500J0D01*
G01*
X935650Y331381D02*
G03*
X935650Y331381I-42500J0D01*
G01*
X935168Y668529D02*
G03*
X935168Y668529I-42500J0D01*
G01*
X935650Y581381D02*
G03*
X935650Y581381I-42500J0D01*
G01*
X935168Y918529D02*
G03*
X935168Y918529I-42500J0D01*
G01*
X935650Y831381D02*
G03*
X935650Y831381I-42500J0D01*
G01*
D42*
X562858Y32083D02*
G03*
X562858Y61083I0J14500D01*
G01*
X643032Y223836D02*
X703032D01*
Y176836D02*
Y223836D01*
X643032Y176836D02*
Y223836D01*
Y176836D02*
X703032D01*
X884668Y221029D02*
X900668D01*
X892668Y213029D02*
Y229029D01*
X551858Y32083D02*
X562858D01*
X551858Y61083D02*
X562858D01*
X487858Y24583D02*
X551858D01*
Y68583D01*
X487858D02*
X551858D01*
X487858Y24583D02*
Y68583D01*
X643032Y24449D02*
X703032D01*
X643032D02*
Y71449D01*
X703032Y24449D02*
Y71449D01*
X643032D02*
X703032D01*
X885150Y28881D02*
X901150D01*
X893150Y20881D02*
Y36881D01*
X562858Y282083D02*
G03*
X562858Y311083I0J14500D01*
G01*
X643032Y473836D02*
X703032D01*
Y426836D02*
Y473836D01*
X643032Y426836D02*
Y473836D01*
Y426836D02*
X703032D01*
X884668Y471029D02*
X900668D01*
X892668Y463029D02*
Y479029D01*
X551858Y282083D02*
X562858D01*
X551858Y311083D02*
X562858D01*
X487858Y274583D02*
X551858D01*
Y318583D01*
X487858D02*
X551858D01*
X487858Y274583D02*
Y318583D01*
X643032Y274449D02*
X703032D01*
X643032D02*
Y321449D01*
X703032Y274449D02*
Y321449D01*
X643032D02*
X703032D01*
X885150Y278881D02*
X901150D01*
X893150Y270881D02*
Y286881D01*
X562858Y532083D02*
G03*
X562858Y561083I0J14500D01*
G01*
X643032Y723836D02*
X703032D01*
Y676836D02*
Y723836D01*
X643032Y676836D02*
Y723836D01*
Y676836D02*
X703032D01*
X884668Y721029D02*
X900668D01*
X892668Y713029D02*
Y729029D01*
X551858Y532083D02*
X562858D01*
X551858Y561083D02*
X562858D01*
X487858Y524583D02*
X551858D01*
Y568583D01*
X487858D02*
X551858D01*
X487858Y524583D02*
Y568583D01*
X643032Y524449D02*
X703032D01*
X643032D02*
Y571449D01*
X703032Y524449D02*
Y571449D01*
X643032D02*
X703032D01*
X885150Y528881D02*
X901150D01*
X893150Y520881D02*
Y536881D01*
X562858Y782083D02*
G03*
X562858Y811083I0J14500D01*
G01*
X643032Y973836D02*
X703032D01*
Y926836D02*
Y973836D01*
X643032Y926836D02*
Y973836D01*
Y926836D02*
X703032D01*
X884668Y971029D02*
X900668D01*
X892668Y963029D02*
Y979029D01*
X551858Y782083D02*
X562858D01*
X551858Y811083D02*
X562858D01*
X487858Y774583D02*
X551858D01*
Y818583D01*
X487858D02*
X551858D01*
X487858Y774583D02*
Y818583D01*
X643032Y774449D02*
X703032D01*
X643032D02*
Y821449D01*
X703032Y774449D02*
Y821449D01*
X643032D02*
X703032D01*
X885150Y778881D02*
X901150D01*
X893150Y770881D02*
Y786881D01*
D43*
X425834Y49537D02*
G03*
X425834Y49537I-1270J0D01*
G01*
Y299537D02*
G03*
X425834Y299537I-1270J0D01*
G01*
Y549537D02*
G03*
X425834Y549537I-1270J0D01*
G01*
Y799537D02*
G03*
X425834Y799537I-1270J0D01*
G01*
D44*
X435718Y186187D02*
X560718Y186052D01*
X449835Y176685D02*
Y186052D01*
X547201Y176685D02*
Y186052D01*
X434968Y176185D02*
Y234185D01*
X561468D01*
Y176185D02*
Y234185D01*
X434968Y176185D02*
X561468D01*
X211434D02*
Y234935D01*
X312934D01*
Y176185D02*
Y234935D01*
X211434Y176185D02*
X312934D01*
X224134Y185752D02*
X224181Y176435D01*
X299934Y177085D02*
Y186185D01*
X312934Y12809D02*
Y71559D01*
X211434Y12809D02*
X312934D01*
X211434D02*
Y71559D01*
X312934D01*
X300186Y71309D02*
X300234Y61992D01*
X224434Y61559D02*
Y70659D01*
X435718Y436187D02*
X560718Y436052D01*
X449835Y426685D02*
Y436052D01*
X547201Y426685D02*
Y436052D01*
X434968Y426185D02*
Y484185D01*
X561468D01*
Y426185D02*
Y484185D01*
X434968Y426185D02*
X561468D01*
X211434D02*
Y484935D01*
X312934D01*
Y426185D02*
Y484935D01*
X211434Y426185D02*
X312934D01*
X224134Y435752D02*
X224181Y426435D01*
X299934Y427085D02*
Y436185D01*
X312934Y262809D02*
Y321559D01*
X211434Y262809D02*
X312934D01*
X211434D02*
Y321559D01*
X312934D01*
X300186Y321309D02*
X300234Y311992D01*
X224434Y311559D02*
Y320659D01*
X435718Y686187D02*
X560718Y686052D01*
X449835Y676685D02*
Y686052D01*
X547201Y676685D02*
Y686052D01*
X434968Y676185D02*
Y734185D01*
X561468D01*
Y676185D02*
Y734185D01*
X434968Y676185D02*
X561468D01*
X211434D02*
Y734935D01*
X312934D01*
Y676185D02*
Y734935D01*
X211434Y676185D02*
X312934D01*
X224134Y685752D02*
X224181Y676435D01*
X299934Y677085D02*
Y686185D01*
X312934Y512809D02*
Y571559D01*
X211434Y512809D02*
X312934D01*
X211434D02*
Y571559D01*
X312934D01*
X300186Y571309D02*
X300234Y561992D01*
X224434Y561559D02*
Y570659D01*
X435718Y936187D02*
X560718Y936052D01*
X449835Y926685D02*
Y936052D01*
X547201Y926685D02*
Y936052D01*
X434968Y926185D02*
Y984185D01*
X561468D01*
Y926185D02*
Y984185D01*
X434968Y926185D02*
X561468D01*
X211434D02*
Y984935D01*
X312934D01*
Y926185D02*
Y984935D01*
X211434Y926185D02*
X312934D01*
X224134Y935752D02*
X224181Y926435D01*
X299934Y927085D02*
Y936185D01*
X312934Y762809D02*
Y821559D01*
X211434Y762809D02*
X312934D01*
X211434D02*
Y821559D01*
X312934D01*
X300186Y821309D02*
X300234Y811992D01*
X224434Y811559D02*
Y820659D01*
D45*
X212684Y186185D02*
X311934D01*
X212434Y61559D02*
X311684D01*
X570088Y197471D02*
Y212706D01*
X577705D01*
X580245Y210167D01*
Y205089D01*
X577705Y202549D01*
X570088D01*
X585323Y210167D02*
X587862Y212706D01*
X592940D01*
X595480Y210167D01*
Y207628D01*
X592940Y205089D01*
X590401D01*
X592940D01*
X595480Y202549D01*
Y200010D01*
X592940Y197471D01*
X587862D01*
X585323Y200010D01*
X595490Y111611D02*
X608186D01*
X610725Y114150D01*
Y119229D01*
X608186Y121768D01*
X595490D01*
X610725Y137003D02*
Y126846D01*
X600569Y137003D01*
X598030D01*
X595490Y134464D01*
Y129385D01*
X598030Y126846D01*
X609422Y192887D02*
Y208122D01*
X617039D01*
X619579Y205583D01*
Y200504D01*
X617039Y197965D01*
X609422D01*
X634814Y192887D02*
X624657D01*
X634814Y203044D01*
Y205583D01*
X632274Y208122D01*
X627196D01*
X624657Y205583D01*
X917815Y226159D02*
X915275Y228699D01*
X910197D01*
X907658Y226159D01*
Y216003D01*
X910197Y213463D01*
X915275D01*
X917815Y216003D01*
X933050Y213463D02*
X922893D01*
X933050Y223620D01*
Y226159D01*
X930511Y228699D01*
X925432D01*
X922893Y226159D01*
X321676Y197967D02*
Y213202D01*
X329293D01*
X331833Y210663D01*
Y205585D01*
X329293Y203045D01*
X321676D01*
X344529Y197967D02*
Y213202D01*
X336911Y205585D01*
X347068D01*
X374254Y192860D02*
Y208095D01*
X381871D01*
X384411Y205556D01*
Y200478D01*
X381871Y197938D01*
X374254D01*
X379332D02*
X384411Y192860D01*
X397107D02*
Y208095D01*
X389489Y200478D01*
X399646D01*
X374254Y173529D02*
Y188764D01*
X381871D01*
X384411Y186225D01*
Y181147D01*
X381871Y178607D01*
X374254D01*
X379332D02*
X384411Y173529D01*
X389489Y186225D02*
X392028Y188764D01*
X397107D01*
X399646Y186225D01*
Y183686D01*
X397107Y181147D01*
X394567D01*
X397107D01*
X399646Y178607D01*
Y176068D01*
X397107Y173529D01*
X392028D01*
X389489Y176068D01*
X374254Y212191D02*
Y227426D01*
X381871D01*
X384411Y224887D01*
Y219809D01*
X381871Y217269D01*
X374254D01*
X379332D02*
X384411Y212191D01*
X399646Y227426D02*
X394567Y224887D01*
X389489Y219809D01*
Y214730D01*
X392028Y212191D01*
X397107D01*
X399646Y214730D01*
Y217269D01*
X397107Y219809D01*
X389489D01*
X321676Y34645D02*
Y49880D01*
X329293D01*
X331833Y47341D01*
Y42263D01*
X329293Y39723D01*
X321676D01*
X347068Y49880D02*
X336911D01*
Y42263D01*
X341989Y44802D01*
X344529D01*
X347068Y42263D01*
Y37184D01*
X344529Y34645D01*
X339450D01*
X336911Y37184D01*
X428046Y27025D02*
Y42260D01*
X435664D01*
X438203Y39721D01*
Y34643D01*
X435664Y32103D01*
X428046D01*
X433125D02*
X438203Y27025D01*
X453438Y42260D02*
X443282D01*
Y34643D01*
X448360Y37182D01*
X450899D01*
X453438Y34643D01*
Y29564D01*
X450899Y27025D01*
X445821D01*
X443282Y29564D01*
X522336Y54198D02*
Y38963D01*
X529953D01*
X532493Y41502D01*
Y51659D01*
X529953Y54198D01*
X522336D01*
X537571Y38963D02*
X542649D01*
X540110D01*
Y54198D01*
X537571Y51659D01*
X614518Y40233D02*
Y55468D01*
X622136D01*
X624675Y52929D01*
Y47850D01*
X622136Y45311D01*
X614518D01*
X629753Y40233D02*
X634831D01*
X632292D01*
Y55468D01*
X629753Y52929D01*
X821294Y63088D02*
Y50392D01*
X823833Y47853D01*
X828911D01*
X831451Y50392D01*
Y63088D01*
X836529Y47853D02*
X841607D01*
X839068D01*
Y63088D01*
X836529Y60549D01*
X917815Y33119D02*
X915275Y35659D01*
X910197D01*
X907658Y33119D01*
Y22963D01*
X910197Y20423D01*
X915275D01*
X917815Y22963D01*
X922893Y33119D02*
X925432Y35659D01*
X930511D01*
X933050Y33119D01*
Y30580D01*
X930511Y28041D01*
X927971D01*
X930511D01*
X933050Y25502D01*
Y22963D01*
X930511Y20423D01*
X925432D01*
X922893Y22963D01*
X948291Y199994D02*
X943212D01*
X945751D01*
Y187298D01*
X943212Y184759D01*
X940673D01*
X938134Y187298D01*
X953369Y184759D02*
X958447D01*
X955908D01*
Y199994D01*
X953369Y197455D01*
X542150Y112119D02*
X554846D01*
X557385Y114658D01*
Y119737D01*
X554846Y122276D01*
X542150D01*
X544689Y127354D02*
X542150Y129893D01*
Y134972D01*
X544689Y137511D01*
X547229D01*
X549768Y134972D01*
Y132432D01*
Y134972D01*
X552307Y137511D01*
X554846D01*
X557385Y134972D01*
Y129893D01*
X554846Y127354D01*
X400924Y106019D02*
Y121254D01*
X408541D01*
X411081Y118715D01*
Y113637D01*
X408541Y111097D01*
X400924D01*
X406002D02*
X411081Y106019D01*
X426316D02*
X416159D01*
X426316Y116176D01*
Y118715D01*
X423777Y121254D01*
X418698D01*
X416159Y118715D01*
X403464Y126339D02*
Y141574D01*
X411081D01*
X413621Y139035D01*
Y133956D01*
X411081Y131417D01*
X403464D01*
X408542D02*
X413621Y126339D01*
X418699D02*
X423777D01*
X421238D01*
Y141574D01*
X418699Y139035D01*
X719183Y118969D02*
X716643Y121508D01*
X711565D01*
X709026Y118969D01*
Y108812D01*
X711565Y106273D01*
X716643D01*
X719183Y108812D01*
X731879Y106273D02*
Y121508D01*
X724261Y113890D01*
X734418D01*
X499981Y133193D02*
X497441Y135732D01*
X492363D01*
X489824Y133193D01*
Y123036D01*
X492363Y120497D01*
X497441D01*
X499981Y123036D01*
X505059Y135732D02*
X515216D01*
Y133193D01*
X505059Y123036D01*
Y120497D01*
X499981Y114651D02*
X497441Y117190D01*
X492363D01*
X489824Y114651D01*
Y104494D01*
X492363Y101955D01*
X497441D01*
X499981Y104494D01*
X515216Y117190D02*
X510137Y114651D01*
X505059Y109572D01*
Y104494D01*
X507598Y101955D01*
X512677D01*
X515216Y104494D01*
Y107033D01*
X512677Y109572D01*
X505059D01*
X393558Y67152D02*
Y64613D01*
X398636Y59535D01*
X403715Y64613D01*
Y67152D01*
X398636Y59535D02*
Y51917D01*
X408793D02*
X413871D01*
X411332D01*
Y67152D01*
X408793Y64613D01*
X803454Y202789D02*
X800914Y205328D01*
X795836D01*
X793297Y202789D01*
Y192632D01*
X795836Y190093D01*
X800914D01*
X803454Y192632D01*
X808532Y190093D02*
X813610D01*
X811071D01*
Y205328D01*
X808532Y202789D01*
X719183Y140305D02*
X716643Y142844D01*
X711565D01*
X709026Y140305D01*
Y130148D01*
X711565Y127609D01*
X716643D01*
X719183Y130148D01*
X734418Y142844D02*
X724261D01*
Y135226D01*
X729339Y137766D01*
X731879D01*
X734418Y135226D01*
Y130148D01*
X731879Y127609D01*
X726800D01*
X724261Y130148D01*
X212684Y436185D02*
X311934D01*
X212434Y311559D02*
X311684D01*
X570088Y447471D02*
Y462706D01*
X577705D01*
X580245Y460167D01*
Y455089D01*
X577705Y452549D01*
X570088D01*
X585323Y460167D02*
X587862Y462706D01*
X592940D01*
X595480Y460167D01*
Y457628D01*
X592940Y455089D01*
X590401D01*
X592940D01*
X595480Y452549D01*
Y450010D01*
X592940Y447471D01*
X587862D01*
X585323Y450010D01*
X595490Y361611D02*
X608186D01*
X610725Y364150D01*
Y369229D01*
X608186Y371768D01*
X595490D01*
X610725Y387003D02*
Y376846D01*
X600569Y387003D01*
X598030D01*
X595490Y384464D01*
Y379385D01*
X598030Y376846D01*
X609422Y442887D02*
Y458122D01*
X617039D01*
X619579Y455583D01*
Y450504D01*
X617039Y447965D01*
X609422D01*
X634814Y442887D02*
X624657D01*
X634814Y453044D01*
Y455583D01*
X632274Y458122D01*
X627196D01*
X624657Y455583D01*
X917815Y476159D02*
X915275Y478699D01*
X910197D01*
X907658Y476159D01*
Y466003D01*
X910197Y463463D01*
X915275D01*
X917815Y466003D01*
X933050Y463463D02*
X922893D01*
X933050Y473620D01*
Y476159D01*
X930511Y478699D01*
X925432D01*
X922893Y476159D01*
X321676Y447967D02*
Y463202D01*
X329293D01*
X331833Y460663D01*
Y455584D01*
X329293Y453045D01*
X321676D01*
X344529Y447967D02*
Y463202D01*
X336911Y455584D01*
X347068D01*
X374254Y442860D02*
Y458095D01*
X381871D01*
X384411Y455556D01*
Y450477D01*
X381871Y447938D01*
X374254D01*
X379332D02*
X384411Y442860D01*
X397107D02*
Y458095D01*
X389489Y450477D01*
X399646D01*
X374254Y423529D02*
Y438764D01*
X381871D01*
X384411Y436225D01*
Y431147D01*
X381871Y428607D01*
X374254D01*
X379332D02*
X384411Y423529D01*
X389489Y436225D02*
X392028Y438764D01*
X397107D01*
X399646Y436225D01*
Y433686D01*
X397107Y431147D01*
X394567D01*
X397107D01*
X399646Y428607D01*
Y426068D01*
X397107Y423529D01*
X392028D01*
X389489Y426068D01*
X374254Y462191D02*
Y477426D01*
X381871D01*
X384411Y474887D01*
Y469809D01*
X381871Y467269D01*
X374254D01*
X379332D02*
X384411Y462191D01*
X399646Y477426D02*
X394567Y474887D01*
X389489Y469809D01*
Y464730D01*
X392028Y462191D01*
X397107D01*
X399646Y464730D01*
Y467269D01*
X397107Y469809D01*
X389489D01*
X321676Y284645D02*
Y299880D01*
X329293D01*
X331833Y297341D01*
Y292262D01*
X329293Y289723D01*
X321676D01*
X347068Y299880D02*
X336911D01*
Y292262D01*
X341989Y294802D01*
X344529D01*
X347068Y292262D01*
Y287184D01*
X344529Y284645D01*
X339450D01*
X336911Y287184D01*
X428046Y277025D02*
Y292260D01*
X435664D01*
X438203Y289721D01*
Y284643D01*
X435664Y282103D01*
X428046D01*
X433125D02*
X438203Y277025D01*
X453438Y292260D02*
X443282D01*
Y284643D01*
X448360Y287182D01*
X450899D01*
X453438Y284643D01*
Y279564D01*
X450899Y277025D01*
X445821D01*
X443282Y279564D01*
X522336Y304198D02*
Y288963D01*
X529953D01*
X532493Y291502D01*
Y301659D01*
X529953Y304198D01*
X522336D01*
X537571Y288963D02*
X542649D01*
X540110D01*
Y304198D01*
X537571Y301659D01*
X614518Y290233D02*
Y305468D01*
X622136D01*
X624675Y302929D01*
Y297850D01*
X622136Y295311D01*
X614518D01*
X629753Y290233D02*
X634831D01*
X632292D01*
Y305468D01*
X629753Y302929D01*
X821294Y313088D02*
Y300392D01*
X823833Y297853D01*
X828911D01*
X831451Y300392D01*
Y313088D01*
X836529Y297853D02*
X841607D01*
X839068D01*
Y313088D01*
X836529Y310549D01*
X917815Y283119D02*
X915275Y285658D01*
X910197D01*
X907658Y283119D01*
Y272963D01*
X910197Y270423D01*
X915275D01*
X917815Y272963D01*
X922893Y283119D02*
X925432Y285658D01*
X930511D01*
X933050Y283119D01*
Y280580D01*
X930511Y278041D01*
X927971D01*
X930511D01*
X933050Y275502D01*
Y272963D01*
X930511Y270423D01*
X925432D01*
X922893Y272963D01*
X948291Y449994D02*
X943212D01*
X945751D01*
Y437298D01*
X943212Y434759D01*
X940673D01*
X938134Y437298D01*
X953369Y434759D02*
X958447D01*
X955908D01*
Y449994D01*
X953369Y447455D01*
X542150Y362119D02*
X554846D01*
X557385Y364658D01*
Y369737D01*
X554846Y372276D01*
X542150D01*
X544689Y377354D02*
X542150Y379893D01*
Y384972D01*
X544689Y387511D01*
X547229D01*
X549768Y384972D01*
Y382433D01*
Y384972D01*
X552307Y387511D01*
X554846D01*
X557385Y384972D01*
Y379893D01*
X554846Y377354D01*
X400924Y356019D02*
Y371254D01*
X408541D01*
X411081Y368715D01*
Y363637D01*
X408541Y361097D01*
X400924D01*
X406002D02*
X411081Y356019D01*
X426316D02*
X416159D01*
X426316Y366176D01*
Y368715D01*
X423777Y371254D01*
X418698D01*
X416159Y368715D01*
X403464Y376339D02*
Y391574D01*
X411081D01*
X413621Y389035D01*
Y383956D01*
X411081Y381417D01*
X403464D01*
X408542D02*
X413621Y376339D01*
X418699D02*
X423777D01*
X421238D01*
Y391574D01*
X418699Y389035D01*
X719183Y368969D02*
X716643Y371508D01*
X711565D01*
X709026Y368969D01*
Y358812D01*
X711565Y356273D01*
X716643D01*
X719183Y358812D01*
X731879Y356273D02*
Y371508D01*
X724261Y363890D01*
X734418D01*
X499981Y383193D02*
X497441Y385732D01*
X492363D01*
X489824Y383193D01*
Y373036D01*
X492363Y370497D01*
X497441D01*
X499981Y373036D01*
X505059Y385732D02*
X515216D01*
Y383193D01*
X505059Y373036D01*
Y370497D01*
X499981Y364651D02*
X497441Y367190D01*
X492363D01*
X489824Y364651D01*
Y354494D01*
X492363Y351955D01*
X497441D01*
X499981Y354494D01*
X515216Y367190D02*
X510137Y364651D01*
X505059Y359572D01*
Y354494D01*
X507598Y351955D01*
X512677D01*
X515216Y354494D01*
Y357033D01*
X512677Y359572D01*
X505059D01*
X393558Y317152D02*
Y314613D01*
X398636Y309534D01*
X403715Y314613D01*
Y317152D01*
X398636Y309534D02*
Y301917D01*
X408793D02*
X413871D01*
X411332D01*
Y317152D01*
X408793Y314613D01*
X803454Y452789D02*
X800914Y455328D01*
X795836D01*
X793297Y452789D01*
Y442632D01*
X795836Y440093D01*
X800914D01*
X803454Y442632D01*
X808532Y440093D02*
X813610D01*
X811071D01*
Y455328D01*
X808532Y452789D01*
X719183Y390305D02*
X716643Y392844D01*
X711565D01*
X709026Y390305D01*
Y380148D01*
X711565Y377609D01*
X716643D01*
X719183Y380148D01*
X734418Y392844D02*
X724261D01*
Y385227D01*
X729339Y387766D01*
X731879D01*
X734418Y385227D01*
Y380148D01*
X731879Y377609D01*
X726800D01*
X724261Y380148D01*
X212684Y686185D02*
X311934D01*
X212434Y561559D02*
X311684D01*
X570088Y697471D02*
Y712706D01*
X577705D01*
X580245Y710167D01*
Y705089D01*
X577705Y702549D01*
X570088D01*
X585323Y710167D02*
X587862Y712706D01*
X592940D01*
X595480Y710167D01*
Y707628D01*
X592940Y705089D01*
X590401D01*
X592940D01*
X595480Y702549D01*
Y700010D01*
X592940Y697471D01*
X587862D01*
X585323Y700010D01*
X595490Y611611D02*
X608186D01*
X610725Y614150D01*
Y619229D01*
X608186Y621768D01*
X595490D01*
X610725Y637003D02*
Y626846D01*
X600569Y637003D01*
X598030D01*
X595490Y634464D01*
Y629385D01*
X598030Y626846D01*
X609422Y692887D02*
Y708122D01*
X617039D01*
X619579Y705583D01*
Y700505D01*
X617039Y697965D01*
X609422D01*
X634814Y692887D02*
X624657D01*
X634814Y703044D01*
Y705583D01*
X632274Y708122D01*
X627196D01*
X624657Y705583D01*
X917815Y726159D02*
X915275Y728699D01*
X910197D01*
X907658Y726159D01*
Y716003D01*
X910197Y713463D01*
X915275D01*
X917815Y716003D01*
X933050Y713463D02*
X922893D01*
X933050Y723620D01*
Y726159D01*
X930511Y728699D01*
X925432D01*
X922893Y726159D01*
X321676Y697967D02*
Y713202D01*
X329293D01*
X331833Y710663D01*
Y705584D01*
X329293Y703045D01*
X321676D01*
X344529Y697967D02*
Y713202D01*
X336911Y705584D01*
X347068D01*
X374254Y692860D02*
Y708095D01*
X381871D01*
X384411Y705556D01*
Y700478D01*
X381871Y697938D01*
X374254D01*
X379332D02*
X384411Y692860D01*
X397107D02*
Y708095D01*
X389489Y700478D01*
X399646D01*
X374254Y673529D02*
Y688764D01*
X381871D01*
X384411Y686225D01*
Y681146D01*
X381871Y678607D01*
X374254D01*
X379332D02*
X384411Y673529D01*
X389489Y686225D02*
X392028Y688764D01*
X397107D01*
X399646Y686225D01*
Y683686D01*
X397107Y681146D01*
X394567D01*
X397107D01*
X399646Y678607D01*
Y676068D01*
X397107Y673529D01*
X392028D01*
X389489Y676068D01*
X374254Y712191D02*
Y727426D01*
X381871D01*
X384411Y724887D01*
Y719809D01*
X381871Y717269D01*
X374254D01*
X379332D02*
X384411Y712191D01*
X399646Y727426D02*
X394567Y724887D01*
X389489Y719809D01*
Y714730D01*
X392028Y712191D01*
X397107D01*
X399646Y714730D01*
Y717269D01*
X397107Y719809D01*
X389489D01*
X321676Y534645D02*
Y549880D01*
X329293D01*
X331833Y547341D01*
Y542262D01*
X329293Y539723D01*
X321676D01*
X347068Y549880D02*
X336911D01*
Y542262D01*
X341989Y544802D01*
X344529D01*
X347068Y542262D01*
Y537184D01*
X344529Y534645D01*
X339450D01*
X336911Y537184D01*
X428046Y527025D02*
Y542260D01*
X435664D01*
X438203Y539721D01*
Y534642D01*
X435664Y532103D01*
X428046D01*
X433125D02*
X438203Y527025D01*
X453438Y542260D02*
X443282D01*
Y534642D01*
X448360Y537182D01*
X450899D01*
X453438Y534642D01*
Y529564D01*
X450899Y527025D01*
X445821D01*
X443282Y529564D01*
X522336Y554198D02*
Y538963D01*
X529953D01*
X532493Y541502D01*
Y551659D01*
X529953Y554198D01*
X522336D01*
X537571Y538963D02*
X542649D01*
X540110D01*
Y554198D01*
X537571Y551659D01*
X614518Y540233D02*
Y555468D01*
X622136D01*
X624675Y552929D01*
Y547850D01*
X622136Y545311D01*
X614518D01*
X629753Y540233D02*
X634831D01*
X632292D01*
Y555468D01*
X629753Y552929D01*
X821294Y563088D02*
Y550392D01*
X823833Y547853D01*
X828911D01*
X831451Y550392D01*
Y563088D01*
X836529Y547853D02*
X841607D01*
X839068D01*
Y563088D01*
X836529Y560549D01*
X917815Y533119D02*
X915275Y535658D01*
X910197D01*
X907658Y533119D01*
Y522963D01*
X910197Y520423D01*
X915275D01*
X917815Y522963D01*
X922893Y533119D02*
X925432Y535658D01*
X930511D01*
X933050Y533119D01*
Y530580D01*
X930511Y528041D01*
X927971D01*
X930511D01*
X933050Y525502D01*
Y522963D01*
X930511Y520423D01*
X925432D01*
X922893Y522963D01*
X948291Y699994D02*
X943212D01*
X945751D01*
Y687298D01*
X943212Y684759D01*
X940673D01*
X938134Y687298D01*
X953369Y684759D02*
X958447D01*
X955908D01*
Y699994D01*
X953369Y697455D01*
X542150Y612119D02*
X554846D01*
X557385Y614658D01*
Y619737D01*
X554846Y622276D01*
X542150D01*
X544689Y627354D02*
X542150Y629893D01*
Y634972D01*
X544689Y637511D01*
X547229D01*
X549768Y634972D01*
Y632433D01*
Y634972D01*
X552307Y637511D01*
X554846D01*
X557385Y634972D01*
Y629893D01*
X554846Y627354D01*
X400924Y606019D02*
Y621254D01*
X408541D01*
X411081Y618715D01*
Y613637D01*
X408541Y611097D01*
X400924D01*
X406002D02*
X411081Y606019D01*
X426316D02*
X416159D01*
X426316Y616176D01*
Y618715D01*
X423777Y621254D01*
X418698D01*
X416159Y618715D01*
X403464Y626339D02*
Y641574D01*
X411081D01*
X413621Y639035D01*
Y633956D01*
X411081Y631417D01*
X403464D01*
X408542D02*
X413621Y626339D01*
X418699D02*
X423777D01*
X421238D01*
Y641574D01*
X418699Y639035D01*
X719183Y618969D02*
X716643Y621508D01*
X711565D01*
X709026Y618969D01*
Y608812D01*
X711565Y606273D01*
X716643D01*
X719183Y608812D01*
X731879Y606273D02*
Y621508D01*
X724261Y613890D01*
X734418D01*
X499981Y633193D02*
X497441Y635732D01*
X492363D01*
X489824Y633193D01*
Y623036D01*
X492363Y620497D01*
X497441D01*
X499981Y623036D01*
X505059Y635732D02*
X515216D01*
Y633193D01*
X505059Y623036D01*
Y620497D01*
X499981Y614651D02*
X497441Y617190D01*
X492363D01*
X489824Y614651D01*
Y604494D01*
X492363Y601955D01*
X497441D01*
X499981Y604494D01*
X515216Y617190D02*
X510137Y614651D01*
X505059Y609572D01*
Y604494D01*
X507598Y601955D01*
X512677D01*
X515216Y604494D01*
Y607033D01*
X512677Y609572D01*
X505059D01*
X393558Y567152D02*
Y564613D01*
X398636Y559534D01*
X403715Y564613D01*
Y567152D01*
X398636Y559534D02*
Y551917D01*
X408793D02*
X413871D01*
X411332D01*
Y567152D01*
X408793Y564613D01*
X803454Y702789D02*
X800914Y705328D01*
X795836D01*
X793297Y702789D01*
Y692632D01*
X795836Y690093D01*
X800914D01*
X803454Y692632D01*
X808532Y690093D02*
X813610D01*
X811071D01*
Y705328D01*
X808532Y702789D01*
X719183Y640305D02*
X716643Y642844D01*
X711565D01*
X709026Y640305D01*
Y630148D01*
X711565Y627609D01*
X716643D01*
X719183Y630148D01*
X734418Y642844D02*
X724261D01*
Y635227D01*
X729339Y637766D01*
X731879D01*
X734418Y635227D01*
Y630148D01*
X731879Y627609D01*
X726800D01*
X724261Y630148D01*
X212684Y936185D02*
X311934D01*
X212434Y811559D02*
X311684D01*
X570088Y947471D02*
Y962706D01*
X577705D01*
X580245Y960167D01*
Y955089D01*
X577705Y952549D01*
X570088D01*
X585323Y960167D02*
X587862Y962706D01*
X592940D01*
X595480Y960167D01*
Y957628D01*
X592940Y955089D01*
X590401D01*
X592940D01*
X595480Y952549D01*
Y950010D01*
X592940Y947471D01*
X587862D01*
X585323Y950010D01*
X595490Y861611D02*
X608186D01*
X610725Y864150D01*
Y869229D01*
X608186Y871768D01*
X595490D01*
X610725Y887003D02*
Y876846D01*
X600569Y887003D01*
X598030D01*
X595490Y884464D01*
Y879385D01*
X598030Y876846D01*
X609422Y942887D02*
Y958122D01*
X617039D01*
X619579Y955583D01*
Y950505D01*
X617039Y947965D01*
X609422D01*
X634814Y942887D02*
X624657D01*
X634814Y953044D01*
Y955583D01*
X632274Y958122D01*
X627196D01*
X624657Y955583D01*
X917815Y976159D02*
X915275Y978699D01*
X910197D01*
X907658Y976159D01*
Y966003D01*
X910197Y963463D01*
X915275D01*
X917815Y966003D01*
X933050Y963463D02*
X922893D01*
X933050Y973620D01*
Y976159D01*
X930511Y978699D01*
X925432D01*
X922893Y976159D01*
X321676Y947967D02*
Y963202D01*
X329293D01*
X331833Y960663D01*
Y955584D01*
X329293Y953045D01*
X321676D01*
X344529Y947967D02*
Y963202D01*
X336911Y955584D01*
X347068D01*
X374254Y942860D02*
Y958095D01*
X381871D01*
X384411Y955556D01*
Y950478D01*
X381871Y947938D01*
X374254D01*
X379332D02*
X384411Y942860D01*
X397107D02*
Y958095D01*
X389489Y950478D01*
X399646D01*
X374254Y923529D02*
Y938764D01*
X381871D01*
X384411Y936225D01*
Y931146D01*
X381871Y928607D01*
X374254D01*
X379332D02*
X384411Y923529D01*
X389489Y936225D02*
X392028Y938764D01*
X397107D01*
X399646Y936225D01*
Y933686D01*
X397107Y931146D01*
X394567D01*
X397107D01*
X399646Y928607D01*
Y926068D01*
X397107Y923529D01*
X392028D01*
X389489Y926068D01*
X374254Y962191D02*
Y977426D01*
X381871D01*
X384411Y974887D01*
Y969809D01*
X381871Y967269D01*
X374254D01*
X379332D02*
X384411Y962191D01*
X399646Y977426D02*
X394567Y974887D01*
X389489Y969809D01*
Y964730D01*
X392028Y962191D01*
X397107D01*
X399646Y964730D01*
Y967269D01*
X397107Y969809D01*
X389489D01*
X321676Y784645D02*
Y799880D01*
X329293D01*
X331833Y797341D01*
Y792262D01*
X329293Y789723D01*
X321676D01*
X347068Y799880D02*
X336911D01*
Y792262D01*
X341989Y794802D01*
X344529D01*
X347068Y792262D01*
Y787184D01*
X344529Y784645D01*
X339450D01*
X336911Y787184D01*
X428046Y777025D02*
Y792260D01*
X435664D01*
X438203Y789721D01*
Y784642D01*
X435664Y782103D01*
X428046D01*
X433125D02*
X438203Y777025D01*
X453438Y792260D02*
X443282D01*
Y784642D01*
X448360Y787182D01*
X450899D01*
X453438Y784642D01*
Y779564D01*
X450899Y777025D01*
X445821D01*
X443282Y779564D01*
X522336Y804198D02*
Y788963D01*
X529953D01*
X532493Y791502D01*
Y801659D01*
X529953Y804198D01*
X522336D01*
X537571Y788963D02*
X542649D01*
X540110D01*
Y804198D01*
X537571Y801659D01*
X614518Y790233D02*
Y805468D01*
X622136D01*
X624675Y802929D01*
Y797850D01*
X622136Y795311D01*
X614518D01*
X629753Y790233D02*
X634831D01*
X632292D01*
Y805468D01*
X629753Y802929D01*
X821294Y813088D02*
Y800392D01*
X823833Y797853D01*
X828911D01*
X831451Y800392D01*
Y813088D01*
X836529Y797853D02*
X841607D01*
X839068D01*
Y813088D01*
X836529Y810549D01*
X917815Y783119D02*
X915275Y785658D01*
X910197D01*
X907658Y783119D01*
Y772963D01*
X910197Y770423D01*
X915275D01*
X917815Y772963D01*
X922893Y783119D02*
X925432Y785658D01*
X930511D01*
X933050Y783119D01*
Y780580D01*
X930511Y778041D01*
X927971D01*
X930511D01*
X933050Y775502D01*
Y772963D01*
X930511Y770423D01*
X925432D01*
X922893Y772963D01*
X948291Y949994D02*
X943212D01*
X945751D01*
Y937298D01*
X943212Y934759D01*
X940673D01*
X938134Y937298D01*
X953369Y934759D02*
X958447D01*
X955908D01*
Y949994D01*
X953369Y947455D01*
X542150Y862119D02*
X554846D01*
X557385Y864658D01*
Y869737D01*
X554846Y872276D01*
X542150D01*
X544689Y877354D02*
X542150Y879893D01*
Y884972D01*
X544689Y887511D01*
X547229D01*
X549768Y884972D01*
Y882432D01*
Y884972D01*
X552307Y887511D01*
X554846D01*
X557385Y884972D01*
Y879893D01*
X554846Y877354D01*
X400924Y856019D02*
Y871254D01*
X408541D01*
X411081Y868715D01*
Y863636D01*
X408541Y861097D01*
X400924D01*
X406002D02*
X411081Y856019D01*
X426316D02*
X416159D01*
X426316Y866176D01*
Y868715D01*
X423777Y871254D01*
X418698D01*
X416159Y868715D01*
X403464Y876339D02*
Y891574D01*
X411081D01*
X413621Y889035D01*
Y883957D01*
X411081Y881417D01*
X403464D01*
X408542D02*
X413621Y876339D01*
X418699D02*
X423777D01*
X421238D01*
Y891574D01*
X418699Y889035D01*
X719183Y868969D02*
X716643Y871508D01*
X711565D01*
X709026Y868969D01*
Y858812D01*
X711565Y856273D01*
X716643D01*
X719183Y858812D01*
X731879Y856273D02*
Y871508D01*
X724261Y863891D01*
X734418D01*
X499981Y883193D02*
X497441Y885732D01*
X492363D01*
X489824Y883193D01*
Y873036D01*
X492363Y870497D01*
X497441D01*
X499981Y873036D01*
X505059Y885732D02*
X515216D01*
Y883193D01*
X505059Y873036D01*
Y870497D01*
X499981Y864651D02*
X497441Y867190D01*
X492363D01*
X489824Y864651D01*
Y854494D01*
X492363Y851955D01*
X497441D01*
X499981Y854494D01*
X515216Y867190D02*
X510137Y864651D01*
X505059Y859573D01*
Y854494D01*
X507598Y851955D01*
X512677D01*
X515216Y854494D01*
Y857033D01*
X512677Y859573D01*
X505059D01*
X393558Y817152D02*
Y814613D01*
X398636Y809535D01*
X403715Y814613D01*
Y817152D01*
X398636Y809535D02*
Y801917D01*
X408793D02*
X413871D01*
X411332D01*
Y817152D01*
X408793Y814613D01*
X803454Y952789D02*
X800914Y955328D01*
X795836D01*
X793297Y952789D01*
Y942632D01*
X795836Y940093D01*
X800914D01*
X803454Y942632D01*
X808532Y940093D02*
X813610D01*
X811071D01*
Y955328D01*
X808532Y952789D01*
X719183Y890305D02*
X716643Y892844D01*
X711565D01*
X709026Y890305D01*
Y880148D01*
X711565Y877609D01*
X716643D01*
X719183Y880148D01*
X734418Y892844D02*
X724261D01*
Y885227D01*
X729339Y887766D01*
X731879D01*
X734418Y885227D01*
Y880148D01*
X731879Y877609D01*
X726800D01*
X724261Y880148D01*
D46*
X366634Y210640D02*
X407274D01*
X366634Y190320D02*
Y210640D01*
Y190320D02*
X407274D01*
Y210640D01*
X366634Y170989D02*
X407274D01*
Y191309D01*
X366634D02*
X407274D01*
X366634Y170989D02*
Y191309D01*
Y229971D02*
X407274D01*
X366634Y209651D02*
Y229971D01*
Y209651D02*
X407274D01*
Y229971D01*
X420426Y24485D02*
X461066D01*
Y44805D01*
X420426D02*
X461066D01*
X420426Y24485D02*
Y44805D01*
X393304Y123799D02*
X433944D01*
X393304Y103479D02*
Y123799D01*
Y103479D02*
X433944D01*
Y123799D01*
X393304Y144119D02*
X433944D01*
X393304Y123799D02*
Y144119D01*
Y123799D02*
X433944D01*
Y144119D01*
X366634Y460640D02*
X407274D01*
X366634Y440320D02*
Y460640D01*
Y440320D02*
X407274D01*
Y460640D01*
X366634Y420989D02*
X407274D01*
Y441309D01*
X366634D02*
X407274D01*
X366634Y420989D02*
Y441309D01*
Y479971D02*
X407274D01*
X366634Y459651D02*
Y479971D01*
Y459651D02*
X407274D01*
Y479971D01*
X420426Y274485D02*
X461066D01*
Y294805D01*
X420426D02*
X461066D01*
X420426Y274485D02*
Y294805D01*
X393304Y373799D02*
X433944D01*
X393304Y353479D02*
Y373799D01*
Y353479D02*
X433944D01*
Y373799D01*
X393304Y394119D02*
X433944D01*
X393304Y373799D02*
Y394119D01*
Y373799D02*
X433944D01*
Y394119D01*
X366634Y710640D02*
X407274D01*
X366634Y690320D02*
Y710640D01*
Y690320D02*
X407274D01*
Y710640D01*
X366634Y670989D02*
X407274D01*
Y691309D01*
X366634D02*
X407274D01*
X366634Y670989D02*
Y691309D01*
Y729971D02*
X407274D01*
X366634Y709651D02*
Y729971D01*
Y709651D02*
X407274D01*
Y729971D01*
X420426Y524485D02*
X461066D01*
Y544805D01*
X420426D02*
X461066D01*
X420426Y524485D02*
Y544805D01*
X393304Y623799D02*
X433944D01*
X393304Y603479D02*
Y623799D01*
Y603479D02*
X433944D01*
Y623799D01*
X393304Y644119D02*
X433944D01*
X393304Y623799D02*
Y644119D01*
Y623799D02*
X433944D01*
Y644119D01*
X366634Y960640D02*
X407274D01*
X366634Y940320D02*
Y960640D01*
Y940320D02*
X407274D01*
Y960640D01*
X366634Y920989D02*
X407274D01*
Y941309D01*
X366634D02*
X407274D01*
X366634Y920989D02*
Y941309D01*
Y979971D02*
X407274D01*
X366634Y959651D02*
Y979971D01*
Y959651D02*
X407274D01*
Y979971D01*
X420426Y774485D02*
X461066D01*
Y794805D01*
X420426D02*
X461066D01*
X420426Y774485D02*
Y794805D01*
X393304Y873799D02*
X433944D01*
X393304Y853479D02*
Y873799D01*
Y853479D02*
X433944D01*
Y873799D01*
X393304Y894119D02*
X433944D01*
X393304Y873799D02*
Y894119D01*
Y873799D02*
X433944D01*
Y894119D01*
D47*
X780538Y98298D02*
X803238D01*
X790888Y109598D02*
Y113398D01*
X791088Y113598D01*
X797588D01*
X790788Y116298D02*
Y120048D01*
Y116298D02*
X797838D01*
X791538Y137348D02*
X798588D01*
X791538D02*
Y141098D01*
X791838Y134648D02*
X798338D01*
X791638Y134448D02*
X791838Y134648D01*
X791638Y130648D02*
Y134448D01*
X780538Y152448D02*
X803238D01*
Y98248D02*
Y152448D01*
X780538Y98198D02*
Y152248D01*
Y348298D02*
X803238D01*
X790888Y359598D02*
Y363398D01*
X791088Y363598D01*
X797588D01*
X790788Y366298D02*
Y370048D01*
Y366298D02*
X797838D01*
X791538Y387348D02*
X798588D01*
X791538D02*
Y391098D01*
X791838Y384648D02*
X798338D01*
X791638Y384448D02*
X791838Y384648D01*
X791638Y380648D02*
Y384448D01*
X780538Y402448D02*
X803238D01*
Y348248D02*
Y402448D01*
X780538Y348198D02*
Y402248D01*
Y598298D02*
X803238D01*
X790888Y609598D02*
Y613398D01*
X791088Y613598D01*
X797588D01*
X790788Y616298D02*
Y620048D01*
Y616298D02*
X797838D01*
X791538Y637348D02*
X798588D01*
X791538D02*
Y641098D01*
X791838Y634648D02*
X798338D01*
X791638Y634448D02*
X791838Y634648D01*
X791638Y630648D02*
Y634448D01*
X780538Y652448D02*
X803238D01*
Y598248D02*
Y652448D01*
X780538Y598198D02*
Y652248D01*
Y848298D02*
X803238D01*
X790888Y859598D02*
Y863398D01*
X791088Y863598D01*
X797588D01*
X790788Y866298D02*
Y870048D01*
Y866298D02*
X797838D01*
X791538Y887348D02*
X798588D01*
X791538D02*
Y891098D01*
X791838Y884648D02*
X798338D01*
X791638Y884448D02*
X791838Y884648D01*
X791638Y880648D02*
Y884448D01*
X780538Y902448D02*
X803238D01*
Y848248D02*
Y902448D01*
X780538Y848198D02*
Y902248D01*
D48*
X940883Y138281D02*
Y133616D01*
X943215Y135948D02*
X938550D01*
X940883Y124285D02*
Y119620D01*
Y388281D02*
Y383616D01*
X943215Y385948D02*
X938550D01*
X940883Y374286D02*
Y369620D01*
Y638281D02*
Y633616D01*
X943215Y635948D02*
X938550D01*
X940883Y624286D02*
Y619620D01*
Y888281D02*
Y883616D01*
X943215Y885948D02*
X938550D01*
X940883Y874286D02*
Y869620D01*
M02*
