G04*
G04 #@! TF.GenerationSoftware,Altium Limited,Altium Designer,21.4.1 (30)*
G04*
G04 Layer_Physical_Order=2*
G04 Layer_Color=16711680*
%FSLAX44Y44*%
%MOMM*%
G71*
G04*
G04 #@! TF.SameCoordinates,BDAD26CE-3B89-4697-9247-DFE5EB3C9538*
G04*
G04*
G04 #@! TF.FilePolarity,Positive*
G04*
G01*
G75*
%ADD46C,1.3000*%
%ADD47R,1.3000X1.3000*%
%ADD51C,1.0000*%
%ADD52C,2.0000*%
%ADD56C,1.2000*%
%ADD57C,1.3970*%
%ADD58O,1.6000X2.6000*%
%ADD59R,1.6000X2.6000*%
%ADD60C,1.4000*%
%ADD61R,1.4000X1.4000*%
%ADD62R,1.3000X1.3000*%
%ADD63R,2.5000X1.8000*%
%ADD64O,2.5000X1.6000*%
G04:AMPARAMS|DCode=65|XSize=2mm|YSize=2mm|CornerRadius=0.25mm|HoleSize=0mm|Usage=FLASHONLY|Rotation=270.000|XOffset=0mm|YOffset=0mm|HoleType=Round|Shape=RoundedRectangle|*
%AMROUNDEDRECTD65*
21,1,2.0000,1.5000,0,0,270.0*
21,1,1.5000,2.0000,0,0,270.0*
1,1,0.5000,-0.7500,-0.7500*
1,1,0.5000,-0.7500,0.7500*
1,1,0.5000,0.7500,0.7500*
1,1,0.5000,0.7500,-0.7500*
%
%ADD65ROUNDEDRECTD65*%
%ADD66C,2.0000*%
%ADD67C,1.5000*%
%ADD68R,1.5000X1.5000*%
%ADD69C,1.6000*%
%ADD70C,1.2700*%
G36*
X1236499Y1047226D02*
X1237274Y1046479D01*
X1238756Y1045224D01*
X1239463Y1044715D01*
X1240147Y1044285D01*
X1240809Y1043934D01*
X1241448Y1043663D01*
X1242065Y1043471D01*
X1242659Y1043357D01*
X1243230Y1043324D01*
X1233331Y1033424D01*
X1233297Y1033995D01*
X1233183Y1034589D01*
X1232991Y1035206D01*
X1232720Y1035845D01*
X1232369Y1036507D01*
X1231939Y1037191D01*
X1231430Y1037898D01*
X1230842Y1038628D01*
X1229428Y1040155D01*
X1236499Y1047226D01*
D02*
G37*
D46*
X1013694Y936244D02*
D03*
X1033694Y1076631D02*
D03*
X669798Y1023090D02*
D03*
Y995090D02*
D03*
X695198Y1023090D02*
D03*
X588772D02*
D03*
Y995090D02*
D03*
X614172Y1023090D02*
D03*
D47*
X695198Y995090D02*
D03*
X614172D02*
D03*
D51*
X797052Y1061212D02*
X899247D01*
X779780Y1043940D02*
X797052Y1061212D01*
X769366Y1063444D02*
X770126Y1062684D01*
X788599Y1108273D02*
X1168381D01*
X779686Y1117186D02*
X788599Y1108273D01*
X761365Y1117186D02*
X779686D01*
X739340Y1095161D02*
X761365Y1117186D01*
X739340Y1037710D02*
Y1095161D01*
X737275Y1035645D02*
X754380Y1018540D01*
X899515Y1061480D02*
X914045D01*
X960505Y1061212D02*
X989965Y1090671D01*
X914313Y1061212D02*
X960505D01*
X914045Y1061480D02*
X914313Y1061212D01*
X899247D02*
X899515Y1061480D01*
X989965Y1090671D02*
X1162055D01*
X728980Y1043940D02*
X737275Y1035645D01*
X1162055Y1090671D02*
X1200658Y1052068D01*
X754380Y967740D02*
Y1018540D01*
X1177544Y982218D02*
X1182878D01*
X1200658Y999998D02*
Y1052068D01*
X1182878Y982218D02*
X1200658Y999998D01*
X1168381Y1108273D02*
X1243330Y1033324D01*
D52*
X1101090Y1009396D02*
X1114044Y996442D01*
Y968240D02*
Y996442D01*
X956056Y1009396D02*
X1101090D01*
X906780Y1015492D02*
X936244Y986028D01*
Y968240D02*
Y986028D01*
X906780Y1015492D02*
Y1043940D01*
D56*
X1307592Y1101852D02*
D03*
Y913130D02*
D03*
X1084326D02*
D03*
X713232D02*
D03*
D57*
X705866Y1063444D02*
D03*
X769366D02*
D03*
Y1082775D02*
D03*
X705866D02*
D03*
X769366Y1102106D02*
D03*
X705866D02*
D03*
X796036Y1016254D02*
D03*
X732536D02*
D03*
X796036Y995934D02*
D03*
X732536D02*
D03*
X759659Y916940D02*
D03*
X823158D02*
D03*
D58*
X798380Y1085280D02*
D03*
X823780D02*
D03*
X849180D02*
D03*
X874580D02*
D03*
X574796Y1084980D02*
D03*
X600196D02*
D03*
X625596D02*
D03*
X650896Y927354D02*
D03*
X625496D02*
D03*
X600096D02*
D03*
D59*
X899980Y1085280D02*
D03*
X650996Y1084980D02*
D03*
X574696Y927354D02*
D03*
D60*
X1114044Y1044440D02*
D03*
X1088644D02*
D03*
X1063244D02*
D03*
X1037844D02*
D03*
X1012444D02*
D03*
X987044D02*
D03*
X961644D02*
D03*
X936244D02*
D03*
X1114044Y968240D02*
D03*
X1088644D02*
D03*
X1063244D02*
D03*
X1037844D02*
D03*
X1012444D02*
D03*
X987044D02*
D03*
X961644D02*
D03*
D61*
X936244D02*
D03*
D62*
X1033694Y936244D02*
D03*
X1013694Y1076631D02*
D03*
D63*
X1177544Y1033018D02*
D03*
D64*
Y1007618D02*
D03*
Y982218D02*
D03*
D65*
X1243330Y1068324D02*
D03*
X1243812Y946176D02*
D03*
D66*
X1243330Y1033324D02*
D03*
X1243812Y981176D02*
D03*
D67*
X906780Y1043940D02*
D03*
X881380D02*
D03*
X855980D02*
D03*
X830580D02*
D03*
X805180D02*
D03*
X779780D02*
D03*
X754380D02*
D03*
X728980D02*
D03*
X703580D02*
D03*
X678180D02*
D03*
X652780D02*
D03*
X627380D02*
D03*
X601980D02*
D03*
X576580D02*
D03*
X906780Y967740D02*
D03*
X881380D02*
D03*
X855980D02*
D03*
X830580D02*
D03*
X805180D02*
D03*
X779780D02*
D03*
X754380D02*
D03*
X728980D02*
D03*
X703580D02*
D03*
X678180D02*
D03*
X652780D02*
D03*
X627380D02*
D03*
X601980D02*
D03*
D68*
X576580D02*
D03*
D69*
X858520Y941578D02*
D03*
Y916178D02*
D03*
D70*
X956056Y1009396D02*
D03*
X1144199Y1108273D02*
D03*
M02*
