G04*
G04 #@! TF.GenerationSoftware,Altium Limited,Altium Designer,21.4.1 (30)*
G04*
G04 Layer_Color=32896*
%FSLAX44Y44*%
%MOMM*%
G71*
G04*
G04 #@! TF.SameCoordinates,BDAD26CE-3B89-4697-9247-DFE5EB3C9538*
G04*
G04*
G04 #@! TF.FilePolarity,Positive*
G04*
G01*
G75*
%ADD11C,0.2500*%
%ADD12C,0.2000*%
%ADD19C,0.2540*%
D11*
X696448Y967590D02*
G03*
X696448Y967590I-1250J0D01*
G01*
X615422D02*
G03*
X615422Y967590I-1250J0D01*
G01*
D12*
X646998Y973590D02*
X717998D01*
X646998D02*
Y1044590D01*
X717998D01*
Y973590D02*
Y1044590D01*
X565972Y973590D02*
X636972D01*
X565972D02*
Y1044590D01*
X636972D01*
Y973590D02*
Y1044590D01*
D19*
X682501Y1000707D02*
Y1010864D01*
X685041Y1013403D01*
X690119D01*
X692658Y1010864D01*
Y1000707D01*
X690119Y998168D01*
X685041D01*
X687580Y1003246D02*
X682501Y998168D01*
X685041D02*
X682501Y1000707D01*
X677423Y998168D02*
X672345D01*
X674884D01*
Y1013403D01*
X677423Y1010864D01*
X604015Y1000707D02*
Y1010864D01*
X606554Y1013403D01*
X611633D01*
X614172Y1010864D01*
Y1000707D01*
X611633Y998168D01*
X606554D01*
X609094Y1003246D02*
X604015Y998168D01*
X606554D02*
X604015Y1000707D01*
X588780Y998168D02*
X598937D01*
X588780Y1008325D01*
Y1010864D01*
X591319Y1013403D01*
X596398D01*
X598937Y1010864D01*
M02*
