G04*
G04 #@! TF.GenerationSoftware,Altium Limited,Altium Designer,21.4.1 (30)*
G04*
G04 Layer_Color=255*
%FSLAX44Y44*%
%MOMM*%
G71*
G04*
G04 #@! TF.SameCoordinates,FEFE2146-3251-4914-805E-4425F9BEF9EB*
G04*
G04*
G04 #@! TF.FilePolarity,Positive*
G04*
G01*
G75*
%ADD11C,3.4000*%
G04:AMPARAMS|DCode=12|XSize=3.4mm|YSize=3.4mm|CornerRadius=0.85mm|HoleSize=0mm|Usage=FLASHONLY|Rotation=0.000|XOffset=0mm|YOffset=0mm|HoleType=Round|Shape=RoundedRectangle|*
%AMROUNDEDRECTD12*
21,1,3.4000,1.7000,0,0,0.0*
21,1,1.7000,3.4000,0,0,0.0*
1,1,1.7000,0.8500,-0.8500*
1,1,1.7000,-0.8500,-0.8500*
1,1,1.7000,-0.8500,0.8500*
1,1,1.7000,0.8500,0.8500*
%
%ADD12ROUNDEDRECTD12*%
%ADD13R,0.6000X0.8500*%
%ADD14R,2.0000X1.5000*%
%ADD15R,0.4000X2.0000*%
%ADD22R,1.6000X2.6000*%
%ADD23O,1.6000X2.6000*%
%ADD24R,1.4000X1.4000*%
%ADD25C,1.4000*%
%ADD26R,1.3000X1.3000*%
%ADD27C,1.3000*%
%ADD28C,2.0000*%
G04:AMPARAMS|DCode=29|XSize=2mm|YSize=2mm|CornerRadius=0.25mm|HoleSize=0mm|Usage=FLASHONLY|Rotation=270.000|XOffset=0mm|YOffset=0mm|HoleType=Round|Shape=RoundedRectangle|*
%AMROUNDEDRECTD29*
21,1,2.0000,1.5000,0,0,270.0*
21,1,1.5000,2.0000,0,0,270.0*
1,1,0.5000,-0.7500,-0.7500*
1,1,0.5000,-0.7500,0.7500*
1,1,0.5000,0.7500,0.7500*
1,1,0.5000,0.7500,-0.7500*
%
%ADD29ROUNDEDRECTD29*%
%ADD30C,1.2000*%
%ADD31C,1.3970*%
%ADD32C,1.6000*%
%ADD33O,2.5000X1.6000*%
%ADD34R,2.5000X1.8000*%
%ADD35R,1.5000X1.5000*%
%ADD36C,1.5000*%
%ADD37R,1.3000X1.3000*%
D11*
X957184Y151231D02*
D03*
Y401231D02*
D03*
Y651231D02*
D03*
Y901231D02*
D03*
D12*
Y102231D02*
D03*
Y352231D02*
D03*
Y602231D02*
D03*
Y852231D02*
D03*
D13*
X758428Y113893D02*
D03*
X745984D02*
D03*
X478266Y128117D02*
D03*
X465822D02*
D03*
X478266Y109575D02*
D03*
X465822D02*
D03*
X837774Y197713D02*
D03*
X825330D02*
D03*
X758428Y135229D02*
D03*
X745984D02*
D03*
X758428Y363893D02*
D03*
X745984D02*
D03*
X478266Y378117D02*
D03*
X465822D02*
D03*
X478266Y359575D02*
D03*
X465822D02*
D03*
X837774Y447713D02*
D03*
X825330D02*
D03*
X758428Y385229D02*
D03*
X745984D02*
D03*
X758428Y613893D02*
D03*
X745984D02*
D03*
X478266Y628117D02*
D03*
X465822D02*
D03*
X478266Y609575D02*
D03*
X465822D02*
D03*
X837774Y697713D02*
D03*
X825330D02*
D03*
X758428Y635229D02*
D03*
X745984D02*
D03*
X758428Y863893D02*
D03*
X745984D02*
D03*
X478266Y878117D02*
D03*
X465822D02*
D03*
X478266Y859575D02*
D03*
X465822D02*
D03*
X837774Y947713D02*
D03*
X825330D02*
D03*
X758428Y885229D02*
D03*
X745984D02*
D03*
D14*
X791830Y107196D02*
D03*
Y144026D02*
D03*
X792084Y125738D02*
D03*
X791830Y357196D02*
D03*
Y394026D02*
D03*
X792084Y375738D02*
D03*
X791830Y607196D02*
D03*
Y644026D02*
D03*
X792084Y625738D02*
D03*
X791830Y857196D02*
D03*
Y894026D02*
D03*
X792084Y875738D02*
D03*
D15*
X429564Y59537D02*
D03*
X441564D02*
D03*
X453564D02*
D03*
X429564Y309537D02*
D03*
X441564D02*
D03*
X453564D02*
D03*
X429564Y559537D02*
D03*
X441564D02*
D03*
X453564D02*
D03*
X429564Y809537D02*
D03*
X441564D02*
D03*
X453564D02*
D03*
D22*
X549318Y202985D02*
D03*
X300334Y202685D02*
D03*
X224034Y45059D02*
D03*
X549318Y452985D02*
D03*
X300334Y452685D02*
D03*
X224034Y295059D02*
D03*
X549318Y702985D02*
D03*
X300334Y702685D02*
D03*
X224034Y545059D02*
D03*
X549318Y952985D02*
D03*
X300334Y952685D02*
D03*
X224034Y795059D02*
D03*
D23*
X523918Y202985D02*
D03*
X498518D02*
D03*
X473118D02*
D03*
X447718D02*
D03*
X274934Y202685D02*
D03*
X249534D02*
D03*
X224134D02*
D03*
X249434Y45059D02*
D03*
X274834D02*
D03*
X300234D02*
D03*
X523918Y452985D02*
D03*
X498518D02*
D03*
X473118D02*
D03*
X447718D02*
D03*
X274934Y452685D02*
D03*
X249534D02*
D03*
X224134D02*
D03*
X249434Y295059D02*
D03*
X274834D02*
D03*
X300234D02*
D03*
X523918Y702985D02*
D03*
X498518D02*
D03*
X473118D02*
D03*
X447718D02*
D03*
X274934Y702685D02*
D03*
X249534D02*
D03*
X224134D02*
D03*
X249434Y545059D02*
D03*
X274834D02*
D03*
X300234D02*
D03*
X523918Y952985D02*
D03*
X498518D02*
D03*
X473118D02*
D03*
X447718D02*
D03*
X274934Y952685D02*
D03*
X249534D02*
D03*
X224134D02*
D03*
X249434Y795059D02*
D03*
X274834D02*
D03*
X300234D02*
D03*
D24*
X585582Y85945D02*
D03*
Y335945D02*
D03*
Y585945D02*
D03*
Y835945D02*
D03*
D25*
X610982Y85945D02*
D03*
X636382D02*
D03*
X661782D02*
D03*
X687182D02*
D03*
X712582D02*
D03*
X737982D02*
D03*
X763382D02*
D03*
X585582Y162145D02*
D03*
X610982D02*
D03*
X636382D02*
D03*
X661782D02*
D03*
X687182D02*
D03*
X712582D02*
D03*
X737982D02*
D03*
X763382D02*
D03*
X610982Y335945D02*
D03*
X636382D02*
D03*
X661782D02*
D03*
X687182D02*
D03*
X712582D02*
D03*
X737982D02*
D03*
X763382D02*
D03*
X585582Y412145D02*
D03*
X610982D02*
D03*
X636382D02*
D03*
X661782D02*
D03*
X687182D02*
D03*
X712582D02*
D03*
X737982D02*
D03*
X763382D02*
D03*
X610982Y585945D02*
D03*
X636382D02*
D03*
X661782D02*
D03*
X687182D02*
D03*
X712582D02*
D03*
X737982D02*
D03*
X763382D02*
D03*
X585582Y662145D02*
D03*
X610982D02*
D03*
X636382D02*
D03*
X661782D02*
D03*
X687182D02*
D03*
X712582D02*
D03*
X737982D02*
D03*
X763382D02*
D03*
X610982Y835945D02*
D03*
X636382D02*
D03*
X661782D02*
D03*
X687182D02*
D03*
X712582D02*
D03*
X737982D02*
D03*
X763382D02*
D03*
X585582Y912145D02*
D03*
X610982D02*
D03*
X636382D02*
D03*
X661782D02*
D03*
X687182D02*
D03*
X712582D02*
D03*
X737982D02*
D03*
X763382D02*
D03*
D26*
X663032Y194336D02*
D03*
X683032Y53949D02*
D03*
X663032Y444336D02*
D03*
X683032Y303949D02*
D03*
X663032Y694336D02*
D03*
X683032Y553949D02*
D03*
X663032Y944336D02*
D03*
X683032Y803949D02*
D03*
D27*
X683032Y194336D02*
D03*
X663032Y53949D02*
D03*
X263510Y140795D02*
D03*
X238110Y112795D02*
D03*
Y140795D02*
D03*
X344536D02*
D03*
X319136Y112795D02*
D03*
Y140795D02*
D03*
X683032Y444336D02*
D03*
X663032Y303949D02*
D03*
X263510Y390795D02*
D03*
X238110Y362795D02*
D03*
Y390795D02*
D03*
X344536D02*
D03*
X319136Y362795D02*
D03*
Y390795D02*
D03*
X683032Y694336D02*
D03*
X663032Y553949D02*
D03*
X263510Y640795D02*
D03*
X238110Y612795D02*
D03*
Y640795D02*
D03*
X344536D02*
D03*
X319136Y612795D02*
D03*
Y640795D02*
D03*
X683032Y944336D02*
D03*
X663032Y803949D02*
D03*
X263510Y890795D02*
D03*
X238110Y862795D02*
D03*
Y890795D02*
D03*
X344536D02*
D03*
X319136Y862795D02*
D03*
Y890795D02*
D03*
D28*
X892668Y151029D02*
D03*
X893150Y98881D02*
D03*
X892668Y401029D02*
D03*
X893150Y348881D02*
D03*
X892668Y651029D02*
D03*
X893150Y598881D02*
D03*
X892668Y901029D02*
D03*
X893150Y848881D02*
D03*
D29*
X892668Y186029D02*
D03*
X893150Y63881D02*
D03*
X892668Y436029D02*
D03*
X893150Y313881D02*
D03*
X892668Y686029D02*
D03*
X893150Y563881D02*
D03*
X892668Y936029D02*
D03*
X893150Y813881D02*
D03*
D30*
X957692Y219557D02*
D03*
X733664Y30835D02*
D03*
X362570D02*
D03*
X957692D02*
D03*
Y469557D02*
D03*
X733664Y280835D02*
D03*
X362570D02*
D03*
X957692D02*
D03*
Y719557D02*
D03*
X733664Y530835D02*
D03*
X362570D02*
D03*
X957692D02*
D03*
Y969557D02*
D03*
X733664Y780835D02*
D03*
X362570D02*
D03*
X957692D02*
D03*
D31*
X355204Y200480D02*
D03*
X418704D02*
D03*
Y181149D02*
D03*
X355204D02*
D03*
Y219811D02*
D03*
X418704D02*
D03*
X472496Y34645D02*
D03*
X408996D02*
D03*
X381874Y113639D02*
D03*
X445374D02*
D03*
X381874Y133959D02*
D03*
X445374D02*
D03*
X355204Y450480D02*
D03*
X418704D02*
D03*
Y431149D02*
D03*
X355204D02*
D03*
Y469811D02*
D03*
X418704D02*
D03*
X472496Y284645D02*
D03*
X408996D02*
D03*
X381874Y363639D02*
D03*
X445374D02*
D03*
X381874Y383959D02*
D03*
X445374D02*
D03*
X355204Y700480D02*
D03*
X418704D02*
D03*
Y681149D02*
D03*
X355204D02*
D03*
Y719811D02*
D03*
X418704D02*
D03*
X472496Y534645D02*
D03*
X408996D02*
D03*
X381874Y613639D02*
D03*
X445374D02*
D03*
X381874Y633959D02*
D03*
X445374D02*
D03*
X355204Y950480D02*
D03*
X418704D02*
D03*
Y931149D02*
D03*
X355204D02*
D03*
Y969811D02*
D03*
X418704D02*
D03*
X472496Y784645D02*
D03*
X408996D02*
D03*
X381874Y863639D02*
D03*
X445374D02*
D03*
X381874Y883959D02*
D03*
X445374D02*
D03*
D32*
X507858Y33883D02*
D03*
Y59283D02*
D03*
Y283883D02*
D03*
Y309283D02*
D03*
Y533883D02*
D03*
Y559283D02*
D03*
Y783883D02*
D03*
Y809283D02*
D03*
D33*
X826882Y99923D02*
D03*
Y125323D02*
D03*
Y349923D02*
D03*
Y375323D02*
D03*
Y599923D02*
D03*
Y625323D02*
D03*
Y849923D02*
D03*
Y875323D02*
D03*
D34*
Y150723D02*
D03*
Y400723D02*
D03*
Y650723D02*
D03*
Y900723D02*
D03*
D35*
X225918Y85445D02*
D03*
Y335445D02*
D03*
Y585445D02*
D03*
Y835445D02*
D03*
D36*
X251318Y85445D02*
D03*
X276718D02*
D03*
X302118D02*
D03*
X327518D02*
D03*
X352918D02*
D03*
X378318D02*
D03*
X403718D02*
D03*
X429118D02*
D03*
X454518D02*
D03*
X479918D02*
D03*
X505318D02*
D03*
X530718D02*
D03*
X556118D02*
D03*
X225918Y161645D02*
D03*
X251318D02*
D03*
X276718D02*
D03*
X302118D02*
D03*
X327518D02*
D03*
X352918D02*
D03*
X378318D02*
D03*
X403718D02*
D03*
X429118D02*
D03*
X454518D02*
D03*
X479918D02*
D03*
X505318D02*
D03*
X530718D02*
D03*
X556118D02*
D03*
X251318Y335445D02*
D03*
X276718D02*
D03*
X302118D02*
D03*
X327518D02*
D03*
X352918D02*
D03*
X378318D02*
D03*
X403718D02*
D03*
X429118D02*
D03*
X454518D02*
D03*
X479918D02*
D03*
X505318D02*
D03*
X530718D02*
D03*
X556118D02*
D03*
X225918Y411645D02*
D03*
X251318D02*
D03*
X276718D02*
D03*
X302118D02*
D03*
X327518D02*
D03*
X352918D02*
D03*
X378318D02*
D03*
X403718D02*
D03*
X429118D02*
D03*
X454518D02*
D03*
X479918D02*
D03*
X505318D02*
D03*
X530718D02*
D03*
X556118D02*
D03*
X251318Y585445D02*
D03*
X276718D02*
D03*
X302118D02*
D03*
X327518D02*
D03*
X352918D02*
D03*
X378318D02*
D03*
X403718D02*
D03*
X429118D02*
D03*
X454518D02*
D03*
X479918D02*
D03*
X505318D02*
D03*
X530718D02*
D03*
X556118D02*
D03*
X225918Y661645D02*
D03*
X251318D02*
D03*
X276718D02*
D03*
X302118D02*
D03*
X327518D02*
D03*
X352918D02*
D03*
X378318D02*
D03*
X403718D02*
D03*
X429118D02*
D03*
X454518D02*
D03*
X479918D02*
D03*
X505318D02*
D03*
X530718D02*
D03*
X556118D02*
D03*
X251318Y835445D02*
D03*
X276718D02*
D03*
X302118D02*
D03*
X327518D02*
D03*
X352918D02*
D03*
X378318D02*
D03*
X403718D02*
D03*
X429118D02*
D03*
X454518D02*
D03*
X479918D02*
D03*
X505318D02*
D03*
X530718D02*
D03*
X556118D02*
D03*
X225918Y911645D02*
D03*
X251318D02*
D03*
X276718D02*
D03*
X302118D02*
D03*
X327518D02*
D03*
X352918D02*
D03*
X378318D02*
D03*
X403718D02*
D03*
X429118D02*
D03*
X454518D02*
D03*
X479918D02*
D03*
X505318D02*
D03*
X530718D02*
D03*
X556118D02*
D03*
D37*
X263510Y112795D02*
D03*
X344536D02*
D03*
X263510Y362795D02*
D03*
X344536D02*
D03*
X263510Y612795D02*
D03*
X344536D02*
D03*
X263510Y862795D02*
D03*
X344536D02*
D03*
M02*
