G04*
G04 #@! TF.GenerationSoftware,Altium Limited,Altium Designer,21.4.1 (30)*
G04*
G04 Layer_Color=8388736*
%FSLAX44Y44*%
%MOMM*%
G71*
G04*
G04 #@! TF.SameCoordinates,BDAD26CE-3B89-4697-9247-DFE5EB3C9538*
G04*
G04*
G04 #@! TF.FilePolarity,Negative*
G04*
G01*
G75*
G04:AMPARAMS|DCode=27|XSize=3.6032mm|YSize=3.6032mm|CornerRadius=0.9516mm|HoleSize=0mm|Usage=FLASHONLY|Rotation=0.000|XOffset=0mm|YOffset=0mm|HoleType=Round|Shape=RoundedRectangle|*
%AMROUNDEDRECTD27*
21,1,3.6032,1.7000,0,0,0.0*
21,1,1.7000,3.6032,0,0,0.0*
1,1,1.9032,0.8500,-0.8500*
1,1,1.9032,-0.8500,-0.8500*
1,1,1.9032,-0.8500,0.8500*
1,1,1.9032,0.8500,0.8500*
%
%ADD27ROUNDEDRECTD27*%
%ADD28C,3.6032*%
%ADD29R,0.8032X1.0532*%
%ADD30R,0.6032X2.2032*%
%ADD31R,2.2032X1.7032*%
%ADD32C,1.4032*%
%ADD33C,1.6002*%
%ADD34O,1.8032X2.8032*%
%ADD35R,1.8032X2.8032*%
%ADD36C,1.6032*%
%ADD37R,1.6032X1.6032*%
%ADD38C,1.5032*%
%ADD39R,1.5032X1.5032*%
%ADD40R,2.7032X2.0032*%
%ADD41O,2.7032X1.8032*%
G04:AMPARAMS|DCode=42|XSize=2.2032mm|YSize=2.2032mm|CornerRadius=0.3516mm|HoleSize=0mm|Usage=FLASHONLY|Rotation=270.000|XOffset=0mm|YOffset=0mm|HoleType=Round|Shape=RoundedRectangle|*
%AMROUNDEDRECTD42*
21,1,2.2032,1.5000,0,0,270.0*
21,1,1.5000,2.2032,0,0,270.0*
1,1,0.7032,-0.7500,-0.7500*
1,1,0.7032,-0.7500,0.7500*
1,1,0.7032,0.7500,0.7500*
1,1,0.7032,0.7500,-0.7500*
%
%ADD42ROUNDEDRECTD42*%
%ADD43C,2.2032*%
%ADD44C,1.7032*%
%ADD45R,1.7032X1.7032*%
%ADD46C,1.3000*%
%ADD47R,1.3000X1.3000*%
%ADD48C,1.8032*%
%ADD49C,1.4732*%
D27*
X1307084Y984526D02*
D03*
D28*
Y1033526D02*
D03*
D29*
X816484Y1010412D02*
D03*
X828928D02*
D03*
X816484Y991870D02*
D03*
X828928D02*
D03*
X1175993Y1080008D02*
D03*
X1188437D02*
D03*
X1096646Y996188D02*
D03*
X1109090D02*
D03*
X1096646Y1017524D02*
D03*
X1109090D02*
D03*
D30*
X804226Y941832D02*
D03*
X792226D02*
D03*
X780226D02*
D03*
D31*
X1142746Y1008033D02*
D03*
X1142492Y1026321D02*
D03*
Y989491D02*
D03*
D32*
X1307592Y1101852D02*
D03*
Y913130D02*
D03*
X1084326D02*
D03*
X713232D02*
D03*
D33*
X705866Y1063444D02*
D03*
X769366D02*
D03*
Y1082775D02*
D03*
X705866D02*
D03*
X769366Y1102106D02*
D03*
X705866D02*
D03*
X796036Y1016254D02*
D03*
X732536D02*
D03*
X796036Y995934D02*
D03*
X732536D02*
D03*
X759659Y916940D02*
D03*
X823158D02*
D03*
D34*
X798380Y1085280D02*
D03*
X823780D02*
D03*
X849180D02*
D03*
X874580D02*
D03*
X574796Y1084980D02*
D03*
X600196D02*
D03*
X625596D02*
D03*
X650896Y927354D02*
D03*
X625496D02*
D03*
X600096D02*
D03*
D35*
X899980Y1085280D02*
D03*
X650996Y1084980D02*
D03*
X574696Y927354D02*
D03*
D36*
X1114044Y1044440D02*
D03*
X1088644D02*
D03*
X1063244D02*
D03*
X1037844D02*
D03*
X1012444D02*
D03*
X987044D02*
D03*
X961644D02*
D03*
X936244D02*
D03*
X1114044Y968240D02*
D03*
X1088644D02*
D03*
X1063244D02*
D03*
X1037844D02*
D03*
X1012444D02*
D03*
X987044D02*
D03*
X961644D02*
D03*
D37*
X936244D02*
D03*
D38*
X1013694Y936244D02*
D03*
X1033694Y1076631D02*
D03*
D39*
X1033694Y936244D02*
D03*
X1013694Y1076631D02*
D03*
D40*
X1177544Y1033018D02*
D03*
D41*
Y1007618D02*
D03*
Y982218D02*
D03*
D42*
X1243330Y1068324D02*
D03*
X1243812Y946176D02*
D03*
D43*
X1243330Y1033324D02*
D03*
X1243812Y981176D02*
D03*
D44*
X906780Y1043940D02*
D03*
X881380D02*
D03*
X855980D02*
D03*
X830580D02*
D03*
X805180D02*
D03*
X779780D02*
D03*
X754380D02*
D03*
X728980D02*
D03*
X703580D02*
D03*
X678180D02*
D03*
X652780D02*
D03*
X627380D02*
D03*
X601980D02*
D03*
X576580D02*
D03*
X906780Y967740D02*
D03*
X881380D02*
D03*
X855980D02*
D03*
X830580D02*
D03*
X805180D02*
D03*
X779780D02*
D03*
X754380D02*
D03*
X728980D02*
D03*
X703580D02*
D03*
X678180D02*
D03*
X652780D02*
D03*
X627380D02*
D03*
X601980D02*
D03*
D45*
X576580D02*
D03*
D46*
X669798Y1023090D02*
D03*
Y995090D02*
D03*
X695198Y1023090D02*
D03*
X588772D02*
D03*
Y995090D02*
D03*
X614172Y1023090D02*
D03*
D47*
X695198Y995090D02*
D03*
X614172D02*
D03*
D48*
X858520Y941578D02*
D03*
Y916178D02*
D03*
D49*
X956056Y1009396D02*
D03*
X1144199Y1108273D02*
D03*
M02*
