G04*
G04 #@! TF.GenerationSoftware,Altium Limited,Altium Designer,21.4.1 (30)*
G04*
G04 Layer_Physical_Order=2*
G04 Layer_Color=16711680*
%FSLAX44Y44*%
%MOMM*%
G71*
G04*
G04 #@! TF.SameCoordinates,D2FBEB8F-326A-44D8-8F55-22F389190F62*
G04*
G04*
G04 #@! TF.FilePolarity,Positive*
G04*
G01*
G75*
%ADD16C,1.0000*%
%ADD18C,2.0000*%
%ADD22R,1.6000X2.6000*%
%ADD23O,1.6000X2.6000*%
%ADD24R,1.4000X1.4000*%
%ADD25C,1.4000*%
%ADD26R,1.3000X1.3000*%
%ADD27C,1.3000*%
%ADD28C,2.0000*%
G04:AMPARAMS|DCode=29|XSize=2mm|YSize=2mm|CornerRadius=0.25mm|HoleSize=0mm|Usage=FLASHONLY|Rotation=270.000|XOffset=0mm|YOffset=0mm|HoleType=Round|Shape=RoundedRectangle|*
%AMROUNDEDRECTD29*
21,1,2.0000,1.5000,0,0,270.0*
21,1,1.5000,2.0000,0,0,270.0*
1,1,0.5000,-0.7500,-0.7500*
1,1,0.5000,-0.7500,0.7500*
1,1,0.5000,0.7500,0.7500*
1,1,0.5000,0.7500,-0.7500*
%
%ADD29ROUNDEDRECTD29*%
%ADD30C,1.2000*%
%ADD31C,1.3970*%
%ADD32C,1.6000*%
%ADD33O,2.5000X1.6000*%
%ADD34R,2.5000X1.8000*%
%ADD35R,1.5000X1.5000*%
%ADD36C,1.5000*%
%ADD37R,1.3000X1.3000*%
%ADD38C,1.2700*%
D16*
X849996Y117703D02*
Y169773D01*
X826882Y99923D02*
X832216D01*
X849996Y117703D01*
X437937Y225978D02*
X817719D01*
X639302Y208376D02*
X811393D01*
X388678Y212866D02*
X410703Y234891D01*
X429024D02*
X437937Y225978D01*
X609843Y178917D02*
X639302Y208376D01*
X817719Y225978D02*
X892668Y151029D01*
X811393Y208376D02*
X849996Y169773D01*
X403718Y85445D02*
Y136245D01*
X386613Y153350D02*
X403718Y136245D01*
X446390Y178917D02*
X548585D01*
X429118Y161645D02*
X446390Y178917D01*
X548585D02*
X548853Y179185D01*
X563651Y178917D02*
X609843D01*
X548853Y179185D02*
X563383D01*
X563651Y178917D01*
X418704Y181149D02*
X419464Y180389D01*
X388678Y155415D02*
Y212866D01*
X378318Y161645D02*
X386613Y153350D01*
X410703Y234891D02*
X429024D01*
X849996Y367703D02*
Y419773D01*
X826882Y349923D02*
X832216D01*
X849996Y367703D01*
X437937Y475978D02*
X817719D01*
X639302Y458376D02*
X811393D01*
X388678Y462866D02*
X410703Y484891D01*
X429024D02*
X437937Y475978D01*
X609843Y428917D02*
X639302Y458376D01*
X817719Y475978D02*
X892668Y401029D01*
X811393Y458376D02*
X849996Y419773D01*
X403718Y335445D02*
Y386245D01*
X386613Y403350D02*
X403718Y386245D01*
X446390Y428917D02*
X548585D01*
X429118Y411645D02*
X446390Y428917D01*
X548585D02*
X548853Y429185D01*
X563651Y428917D02*
X609843D01*
X548853Y429185D02*
X563383D01*
X563651Y428917D01*
X418704Y431149D02*
X419464Y430389D01*
X388678Y405415D02*
Y462866D01*
X378318Y411645D02*
X386613Y403350D01*
X410703Y484891D02*
X429024D01*
X849996Y617703D02*
Y669773D01*
X826882Y599923D02*
X832216D01*
X849996Y617703D01*
X437937Y725978D02*
X817719D01*
X639302Y708376D02*
X811393D01*
X388678Y712866D02*
X410703Y734891D01*
X429024D02*
X437937Y725978D01*
X609843Y678917D02*
X639302Y708376D01*
X817719Y725978D02*
X892668Y651029D01*
X811393Y708376D02*
X849996Y669773D01*
X403718Y585445D02*
Y636245D01*
X386613Y653350D02*
X403718Y636245D01*
X446390Y678917D02*
X548585D01*
X429118Y661645D02*
X446390Y678917D01*
X548585D02*
X548853Y679185D01*
X563651Y678917D02*
X609843D01*
X548853Y679185D02*
X563383D01*
X563651Y678917D01*
X418704Y681149D02*
X419464Y680389D01*
X388678Y655415D02*
Y712866D01*
X378318Y661645D02*
X386613Y653350D01*
X410703Y734891D02*
X429024D01*
X849996Y867703D02*
Y919773D01*
X826882Y849923D02*
X832216D01*
X849996Y867703D01*
X437937Y975978D02*
X817719D01*
X639302Y958376D02*
X811393D01*
X388678Y962866D02*
X410703Y984891D01*
X429024D02*
X437937Y975978D01*
X609843Y928917D02*
X639302Y958376D01*
X817719Y975978D02*
X892668Y901029D01*
X811393Y958376D02*
X849996Y919773D01*
X403718Y835445D02*
Y886245D01*
X386613Y903350D02*
X403718Y886245D01*
X446390Y928917D02*
X548585D01*
X429118Y911645D02*
X446390Y928917D01*
X548585D02*
X548853Y929185D01*
X563651Y928917D02*
X609843D01*
X548853Y929185D02*
X563383D01*
X563651Y928917D01*
X418704Y931149D02*
X419464Y930389D01*
X388678Y905415D02*
Y962866D01*
X378318Y911645D02*
X386613Y903350D01*
X410703Y984891D02*
X429024D01*
D18*
X750428Y127101D02*
X763382Y114147D01*
Y85945D02*
Y114147D01*
X605394Y127101D02*
X750428D01*
X556118Y133197D02*
Y161645D01*
Y133197D02*
X585582Y103733D01*
Y85945D02*
Y103733D01*
X750428Y377101D02*
X763382Y364147D01*
Y335945D02*
Y364147D01*
X605394Y377101D02*
X750428D01*
X556118Y383197D02*
Y411645D01*
Y383197D02*
X585582Y353733D01*
Y335945D02*
Y353733D01*
X750428Y627101D02*
X763382Y614147D01*
Y585945D02*
Y614147D01*
X605394Y627101D02*
X750428D01*
X556118Y633197D02*
Y661645D01*
Y633197D02*
X585582Y603733D01*
Y585945D02*
Y603733D01*
X750428Y877101D02*
X763382Y864147D01*
Y835945D02*
Y864147D01*
X605394Y877101D02*
X750428D01*
X556118Y883197D02*
Y911645D01*
Y883197D02*
X585582Y853733D01*
Y835945D02*
Y853733D01*
D22*
X549318Y202985D02*
D03*
X300334Y202685D02*
D03*
X224034Y45059D02*
D03*
X549318Y452985D02*
D03*
X300334Y452685D02*
D03*
X224034Y295059D02*
D03*
X549318Y702985D02*
D03*
X300334Y702685D02*
D03*
X224034Y545059D02*
D03*
X549318Y952985D02*
D03*
X300334Y952685D02*
D03*
X224034Y795059D02*
D03*
D23*
X523918Y202985D02*
D03*
X498518D02*
D03*
X473118D02*
D03*
X447718D02*
D03*
X274934Y202685D02*
D03*
X249534D02*
D03*
X224134D02*
D03*
X249434Y45059D02*
D03*
X274834D02*
D03*
X300234D02*
D03*
X523918Y452985D02*
D03*
X498518D02*
D03*
X473118D02*
D03*
X447718D02*
D03*
X274934Y452685D02*
D03*
X249534D02*
D03*
X224134D02*
D03*
X249434Y295059D02*
D03*
X274834D02*
D03*
X300234D02*
D03*
X523918Y702985D02*
D03*
X498518D02*
D03*
X473118D02*
D03*
X447718D02*
D03*
X274934Y702685D02*
D03*
X249534D02*
D03*
X224134D02*
D03*
X249434Y545059D02*
D03*
X274834D02*
D03*
X300234D02*
D03*
X523918Y952985D02*
D03*
X498518D02*
D03*
X473118D02*
D03*
X447718D02*
D03*
X274934Y952685D02*
D03*
X249534D02*
D03*
X224134D02*
D03*
X249434Y795059D02*
D03*
X274834D02*
D03*
X300234D02*
D03*
D24*
X585582Y85945D02*
D03*
Y335945D02*
D03*
Y585945D02*
D03*
Y835945D02*
D03*
D25*
X610982Y85945D02*
D03*
X636382D02*
D03*
X661782D02*
D03*
X687182D02*
D03*
X712582D02*
D03*
X737982D02*
D03*
X763382D02*
D03*
X585582Y162145D02*
D03*
X610982D02*
D03*
X636382D02*
D03*
X661782D02*
D03*
X687182D02*
D03*
X712582D02*
D03*
X737982D02*
D03*
X763382D02*
D03*
X610982Y335945D02*
D03*
X636382D02*
D03*
X661782D02*
D03*
X687182D02*
D03*
X712582D02*
D03*
X737982D02*
D03*
X763382D02*
D03*
X585582Y412145D02*
D03*
X610982D02*
D03*
X636382D02*
D03*
X661782D02*
D03*
X687182D02*
D03*
X712582D02*
D03*
X737982D02*
D03*
X763382D02*
D03*
X610982Y585945D02*
D03*
X636382D02*
D03*
X661782D02*
D03*
X687182D02*
D03*
X712582D02*
D03*
X737982D02*
D03*
X763382D02*
D03*
X585582Y662145D02*
D03*
X610982D02*
D03*
X636382D02*
D03*
X661782D02*
D03*
X687182D02*
D03*
X712582D02*
D03*
X737982D02*
D03*
X763382D02*
D03*
X610982Y835945D02*
D03*
X636382D02*
D03*
X661782D02*
D03*
X687182D02*
D03*
X712582D02*
D03*
X737982D02*
D03*
X763382D02*
D03*
X585582Y912145D02*
D03*
X610982D02*
D03*
X636382D02*
D03*
X661782D02*
D03*
X687182D02*
D03*
X712582D02*
D03*
X737982D02*
D03*
X763382D02*
D03*
D26*
X663032Y194336D02*
D03*
X683032Y53949D02*
D03*
X663032Y444336D02*
D03*
X683032Y303949D02*
D03*
X663032Y694336D02*
D03*
X683032Y553949D02*
D03*
X663032Y944336D02*
D03*
X683032Y803949D02*
D03*
D27*
X683032Y194336D02*
D03*
X663032Y53949D02*
D03*
X263510Y140795D02*
D03*
X238110Y112795D02*
D03*
Y140795D02*
D03*
X344536D02*
D03*
X319136Y112795D02*
D03*
Y140795D02*
D03*
X683032Y444336D02*
D03*
X663032Y303949D02*
D03*
X263510Y390795D02*
D03*
X238110Y362795D02*
D03*
Y390795D02*
D03*
X344536D02*
D03*
X319136Y362795D02*
D03*
Y390795D02*
D03*
X683032Y694336D02*
D03*
X663032Y553949D02*
D03*
X263510Y640795D02*
D03*
X238110Y612795D02*
D03*
Y640795D02*
D03*
X344536D02*
D03*
X319136Y612795D02*
D03*
Y640795D02*
D03*
X683032Y944336D02*
D03*
X663032Y803949D02*
D03*
X263510Y890795D02*
D03*
X238110Y862795D02*
D03*
Y890795D02*
D03*
X344536D02*
D03*
X319136Y862795D02*
D03*
Y890795D02*
D03*
D28*
X892668Y151029D02*
D03*
X893150Y98881D02*
D03*
X892668Y401029D02*
D03*
X893150Y348881D02*
D03*
X892668Y651029D02*
D03*
X893150Y598881D02*
D03*
X892668Y901029D02*
D03*
X893150Y848881D02*
D03*
D29*
X892668Y186029D02*
D03*
X893150Y63881D02*
D03*
X892668Y436029D02*
D03*
X893150Y313881D02*
D03*
X892668Y686029D02*
D03*
X893150Y563881D02*
D03*
X892668Y936029D02*
D03*
X893150Y813881D02*
D03*
D30*
X957692Y219557D02*
D03*
X733664Y30835D02*
D03*
X362570D02*
D03*
X957692D02*
D03*
Y469557D02*
D03*
X733664Y280835D02*
D03*
X362570D02*
D03*
X957692D02*
D03*
Y719557D02*
D03*
X733664Y530835D02*
D03*
X362570D02*
D03*
X957692D02*
D03*
Y969557D02*
D03*
X733664Y780835D02*
D03*
X362570D02*
D03*
X957692D02*
D03*
D31*
X355204Y200480D02*
D03*
X418704D02*
D03*
Y181149D02*
D03*
X355204D02*
D03*
Y219811D02*
D03*
X418704D02*
D03*
X472496Y34645D02*
D03*
X408996D02*
D03*
X381874Y113639D02*
D03*
X445374D02*
D03*
X381874Y133959D02*
D03*
X445374D02*
D03*
X355204Y450480D02*
D03*
X418704D02*
D03*
Y431149D02*
D03*
X355204D02*
D03*
Y469811D02*
D03*
X418704D02*
D03*
X472496Y284645D02*
D03*
X408996D02*
D03*
X381874Y363639D02*
D03*
X445374D02*
D03*
X381874Y383959D02*
D03*
X445374D02*
D03*
X355204Y700480D02*
D03*
X418704D02*
D03*
Y681149D02*
D03*
X355204D02*
D03*
Y719811D02*
D03*
X418704D02*
D03*
X472496Y534645D02*
D03*
X408996D02*
D03*
X381874Y613639D02*
D03*
X445374D02*
D03*
X381874Y633959D02*
D03*
X445374D02*
D03*
X355204Y950480D02*
D03*
X418704D02*
D03*
Y931149D02*
D03*
X355204D02*
D03*
Y969811D02*
D03*
X418704D02*
D03*
X472496Y784645D02*
D03*
X408996D02*
D03*
X381874Y863639D02*
D03*
X445374D02*
D03*
X381874Y883959D02*
D03*
X445374D02*
D03*
D32*
X507858Y33883D02*
D03*
Y59283D02*
D03*
Y283883D02*
D03*
Y309283D02*
D03*
Y533883D02*
D03*
Y559283D02*
D03*
Y783883D02*
D03*
Y809283D02*
D03*
D33*
X826882Y99923D02*
D03*
Y125323D02*
D03*
Y349923D02*
D03*
Y375323D02*
D03*
Y599923D02*
D03*
Y625323D02*
D03*
Y849923D02*
D03*
Y875323D02*
D03*
D34*
Y150723D02*
D03*
Y400723D02*
D03*
Y650723D02*
D03*
Y900723D02*
D03*
D35*
X225918Y85445D02*
D03*
Y335445D02*
D03*
Y585445D02*
D03*
Y835445D02*
D03*
D36*
X251318Y85445D02*
D03*
X276718D02*
D03*
X302118D02*
D03*
X327518D02*
D03*
X352918D02*
D03*
X378318D02*
D03*
X403718D02*
D03*
X429118D02*
D03*
X454518D02*
D03*
X479918D02*
D03*
X505318D02*
D03*
X530718D02*
D03*
X556118D02*
D03*
X225918Y161645D02*
D03*
X251318D02*
D03*
X276718D02*
D03*
X302118D02*
D03*
X327518D02*
D03*
X352918D02*
D03*
X378318D02*
D03*
X403718D02*
D03*
X429118D02*
D03*
X454518D02*
D03*
X479918D02*
D03*
X505318D02*
D03*
X530718D02*
D03*
X556118D02*
D03*
X251318Y335445D02*
D03*
X276718D02*
D03*
X302118D02*
D03*
X327518D02*
D03*
X352918D02*
D03*
X378318D02*
D03*
X403718D02*
D03*
X429118D02*
D03*
X454518D02*
D03*
X479918D02*
D03*
X505318D02*
D03*
X530718D02*
D03*
X556118D02*
D03*
X225918Y411645D02*
D03*
X251318D02*
D03*
X276718D02*
D03*
X302118D02*
D03*
X327518D02*
D03*
X352918D02*
D03*
X378318D02*
D03*
X403718D02*
D03*
X429118D02*
D03*
X454518D02*
D03*
X479918D02*
D03*
X505318D02*
D03*
X530718D02*
D03*
X556118D02*
D03*
X251318Y585445D02*
D03*
X276718D02*
D03*
X302118D02*
D03*
X327518D02*
D03*
X352918D02*
D03*
X378318D02*
D03*
X403718D02*
D03*
X429118D02*
D03*
X454518D02*
D03*
X479918D02*
D03*
X505318D02*
D03*
X530718D02*
D03*
X556118D02*
D03*
X225918Y661645D02*
D03*
X251318D02*
D03*
X276718D02*
D03*
X302118D02*
D03*
X327518D02*
D03*
X352918D02*
D03*
X378318D02*
D03*
X403718D02*
D03*
X429118D02*
D03*
X454518D02*
D03*
X479918D02*
D03*
X505318D02*
D03*
X530718D02*
D03*
X556118D02*
D03*
X251318Y835445D02*
D03*
X276718D02*
D03*
X302118D02*
D03*
X327518D02*
D03*
X352918D02*
D03*
X378318D02*
D03*
X403718D02*
D03*
X429118D02*
D03*
X454518D02*
D03*
X479918D02*
D03*
X505318D02*
D03*
X530718D02*
D03*
X556118D02*
D03*
X225918Y911645D02*
D03*
X251318D02*
D03*
X276718D02*
D03*
X302118D02*
D03*
X327518D02*
D03*
X352918D02*
D03*
X378318D02*
D03*
X403718D02*
D03*
X429118D02*
D03*
X454518D02*
D03*
X479918D02*
D03*
X505318D02*
D03*
X530718D02*
D03*
X556118D02*
D03*
D37*
X263510Y112795D02*
D03*
X344536D02*
D03*
X263510Y362795D02*
D03*
X344536D02*
D03*
X263510Y612795D02*
D03*
X344536D02*
D03*
X263510Y862795D02*
D03*
X344536D02*
D03*
D38*
X793537Y225978D02*
D03*
X605394Y127101D02*
D03*
X793537Y475978D02*
D03*
X605394Y377101D02*
D03*
X793537Y725978D02*
D03*
X605394Y627101D02*
D03*
X793537Y975978D02*
D03*
X605394Y877101D02*
D03*
M02*
