G04*
G04 #@! TF.GenerationSoftware,Altium Limited,Altium Designer,21.6.1 (37)*
G04*
G04 Layer_Color=8421504*
%FSLAX44Y44*%
%MOMM*%
G71*
G04*
G04 #@! TF.SameCoordinates,7EFE7859-96A0-42E5-BE75-6E9A05A26FBA*
G04*
G04*
G04 #@! TF.FilePolarity,Positive*
G04*
G01*
G75*
%ADD16R,1.3208X0.5588*%
%ADD17R,2.0000X0.4000*%
%ADD18R,1.0800X0.2600*%
%ADD19R,0.2600X1.0800*%
%ADD20R,3.7000X3.7000*%
%ADD21R,0.7000X0.9000*%
%ADD22R,1.0000X0.8000*%
%ADD23R,1.0000X2.7000*%
%ADD24R,0.6000X1.7000*%
%ADD25R,0.8000X1.0000*%
%ADD26R,0.8000X0.8000*%
%ADD27R,0.3000X0.5250*%
%ADD28R,1.8200X1.3800*%
%ADD29R,1.0000X2.7000*%
%ADD30R,1.8000X3.8000*%
%ADD31R,0.6000X0.8500*%
%ADD32R,1.8200X1.1500*%
%ADD33R,2.1300X3.0000*%
%ADD34R,1.9700X0.6000*%
%ADD35R,2.7940X1.9050*%
%ADD36R,2.3000X2.2000*%
%ADD37R,0.8900X0.9300*%
G36*
X909500Y438553D02*
X898500D01*
Y445052D01*
X909500D01*
Y438553D01*
D02*
G37*
G36*
X1187570Y436810D02*
X1180570D01*
Y448210D01*
X1187570D01*
Y436810D01*
D02*
G37*
G36*
X1178170D02*
X1171170D01*
Y448210D01*
X1178170D01*
Y436810D01*
D02*
G37*
G36*
X839100Y429533D02*
X815130D01*
Y453503D01*
X839100D01*
Y429533D01*
D02*
G37*
G36*
X1187570Y423010D02*
X1180570D01*
Y434410D01*
X1187570D01*
Y423010D01*
D02*
G37*
G36*
X1178170D02*
X1171170D01*
Y434410D01*
X1178170D01*
Y423010D01*
D02*
G37*
D16*
X1003084Y337502D02*
D03*
Y346900D02*
D03*
Y356298D02*
D03*
X979716D02*
D03*
Y337502D02*
D03*
X934016Y404902D02*
D03*
Y423698D02*
D03*
X957384D02*
D03*
Y414300D02*
D03*
Y404902D02*
D03*
D17*
X765900Y429803D02*
D03*
Y441802D02*
D03*
Y453802D02*
D03*
D18*
X799250Y461802D02*
D03*
Y456802D02*
D03*
Y451802D02*
D03*
Y446802D02*
D03*
Y441802D02*
D03*
Y436802D02*
D03*
Y431802D02*
D03*
Y426802D02*
D03*
Y421802D02*
D03*
X855550D02*
D03*
Y426802D02*
D03*
Y431802D02*
D03*
Y436802D02*
D03*
Y441802D02*
D03*
Y446802D02*
D03*
Y451802D02*
D03*
Y456802D02*
D03*
Y461802D02*
D03*
D19*
X812400Y413652D02*
D03*
X817400D02*
D03*
X822400D02*
D03*
X827400D02*
D03*
X832400D02*
D03*
X837400D02*
D03*
X842400D02*
D03*
X847400D02*
D03*
Y469953D02*
D03*
X842400D02*
D03*
X837400D02*
D03*
X832400D02*
D03*
X827400D02*
D03*
X822400D02*
D03*
X817400D02*
D03*
X812400D02*
D03*
X807400Y413652D02*
D03*
Y469953D02*
D03*
D20*
X827400Y441802D02*
D03*
D21*
X758265Y367200D02*
D03*
X773265D02*
D03*
X758265Y381650D02*
D03*
X773265D02*
D03*
X758265Y396100D02*
D03*
X773265D02*
D03*
Y473500D02*
D03*
X758265D02*
D03*
X773265Y504500D02*
D03*
X758265D02*
D03*
X1019900Y393100D02*
D03*
X1034900D02*
D03*
X989900D02*
D03*
X1004900D02*
D03*
X911667Y391800D02*
D03*
X896667D02*
D03*
X911667Y418300D02*
D03*
X896667D02*
D03*
X1090480Y452503D02*
D03*
X1105480D02*
D03*
Y473170D02*
D03*
X1090480D02*
D03*
X1163270Y473170D02*
D03*
X1148270D02*
D03*
D22*
X1029500Y337800D02*
D03*
Y354800D02*
D03*
X959300Y354100D02*
D03*
Y337100D02*
D03*
X944900Y354300D02*
D03*
Y337300D02*
D03*
X972900Y422800D02*
D03*
Y405800D02*
D03*
D23*
X1100850Y289650D02*
D03*
X1026350D02*
D03*
D24*
X1082350Y321650D02*
D03*
X1069850D02*
D03*
X1044850D02*
D03*
X1057350D02*
D03*
D25*
X806030Y490100D02*
D03*
X789030D02*
D03*
X806065Y504000D02*
D03*
X789065D02*
D03*
X960800Y393100D02*
D03*
X977800D02*
D03*
X841550Y380600D02*
D03*
X858550D02*
D03*
X841550Y394100D02*
D03*
X858550D02*
D03*
X913400Y465500D02*
D03*
X896400D02*
D03*
X895667Y405200D02*
D03*
X912667D02*
D03*
X1107980Y411670D02*
D03*
X1090980D02*
D03*
D26*
X946000Y393350D02*
D03*
X931000D02*
D03*
D27*
X907250Y428177D02*
D03*
X900750D02*
D03*
X913750D02*
D03*
X894250D02*
D03*
X913750Y455428D02*
D03*
X907250D02*
D03*
X900750D02*
D03*
X894250D02*
D03*
D28*
X938190Y470195D02*
D03*
Y442815D02*
D03*
X964860Y470195D02*
D03*
Y442815D02*
D03*
D29*
X1143300Y356785D02*
D03*
X1158300D02*
D03*
X1173300D02*
D03*
X1188300D02*
D03*
X1203300D02*
D03*
X1218300D02*
D03*
D30*
X1120800Y309785D02*
D03*
X1240800D02*
D03*
D31*
X1239544Y404400D02*
D03*
X1227100D02*
D03*
Y420700D02*
D03*
X1239544D02*
D03*
D32*
X1230290Y472320D02*
D03*
Y442620D02*
D03*
X1255690Y472320D02*
D03*
Y442620D02*
D03*
D33*
X1179370Y435610D02*
D03*
D34*
X1154620Y416560D02*
D03*
Y429260D02*
D03*
Y441960D02*
D03*
Y454660D02*
D03*
X1204120D02*
D03*
Y441960D02*
D03*
Y429260D02*
D03*
Y416560D02*
D03*
D35*
X1006010Y417668D02*
D03*
Y468467D02*
D03*
D36*
X1060110Y466670D02*
D03*
Y417670D02*
D03*
D37*
X1091430Y431987D02*
D03*
X1106830D02*
D03*
M02*
