G04*
G04 #@! TF.GenerationSoftware,Altium Limited,Altium Designer,21.4.1 (30)*
G04*
G04 Layer_Color=65535*
%FSLAX44Y44*%
%MOMM*%
G71*
G04*
G04 #@! TF.SameCoordinates,6553DB82-75CC-4EFF-9F5A-153A9019480B*
G04*
G04*
G04 #@! TF.FilePolarity,Positive*
G04*
G01*
G75*
%ADD10C,0.5000*%
%ADD11C,0.1524*%
%ADD12C,0.0000*%
%ADD13C,0.1270*%
%ADD14C,0.2000*%
%ADD15C,0.1500*%
D10*
X761000Y517900D02*
G03*
X747002Y512102I0J-19797D01*
G01*
X745200Y510300D02*
G03*
X740100Y497988I12313J-12313D01*
G01*
Y290371D02*
G03*
X745100Y278300I17071J0D01*
G01*
D02*
G03*
X759585Y272300I14485J14485D01*
G01*
X1253946D02*
G03*
X1266500Y277500I0J17754D01*
G01*
D02*
G03*
X1273400Y294158I-16658J16658D01*
G01*
Y497832D02*
G03*
X1267200Y512800I-21168J0D01*
G01*
D02*
G03*
X1254646Y518000I-12554J-12554D01*
G01*
X761000D02*
X1240376D01*
X745200Y510300D02*
X747002Y512102D01*
X740100Y290371D02*
Y497988D01*
X759585Y272300D02*
X1253946D01*
X1273400Y294158D02*
Y497832D01*
X1235600Y518000D02*
X1254646D01*
D11*
X993178Y334708D02*
G03*
X989622Y334708I-1778J-2276D01*
G01*
X993178D02*
G03*
X989622Y334708I-1778J-2276D01*
G01*
X947478Y402108D02*
G03*
X943922Y402108I-1778J-2276D01*
G01*
X947478D02*
G03*
X943922Y402108I-1778J-2276D01*
G01*
D12*
X757170Y458802D02*
G03*
X757170Y458802I-1270J0D01*
G01*
D13*
X790240Y462383D02*
G03*
X790240Y462383I-1270J0D01*
G01*
X1025000Y344800D02*
Y347800D01*
X1034000Y344800D02*
Y347800D01*
X963800Y344100D02*
Y347100D01*
X954800Y344100D02*
Y347100D01*
X949400Y344300D02*
Y347300D01*
X940400Y344300D02*
Y347300D01*
X1033200Y278650D02*
X1094100D01*
X1087200Y319150D02*
X1104850D01*
Y304850D02*
Y319150D01*
X1022350D02*
X1040000D01*
X1022350Y304950D02*
Y319150D01*
X796030Y485600D02*
X799030D01*
X796030Y494600D02*
X799030D01*
X796065Y499500D02*
X799065D01*
X796065Y508500D02*
X799065D01*
X967800Y397600D02*
X970800D01*
X967800Y388600D02*
X970800D01*
X848550Y385100D02*
X851550D01*
X848550Y376100D02*
X851550D01*
X848550Y398600D02*
X851550D01*
X848550Y389600D02*
X851550D01*
X903400Y461000D02*
X906400D01*
X903400Y470000D02*
X906400D01*
X919000Y426802D02*
Y456802D01*
X889000Y426802D02*
Y456802D01*
X902667Y409700D02*
X905667D01*
X902667Y400700D02*
X905667D01*
X977400Y412800D02*
Y415800D01*
X968400Y412800D02*
Y415800D01*
X947190Y452905D02*
Y460105D01*
X929190Y452905D02*
Y460105D01*
X973860Y452905D02*
Y460105D01*
X955860Y452905D02*
Y460105D01*
X1111800Y275785D02*
X1250300D01*
X1250800Y276285D02*
Y285285D01*
X1250300Y275785D02*
X1250800Y276285D01*
X1111800Y275785D02*
Y285285D01*
X1112300Y365285D02*
X1134800D01*
X1112300Y344285D02*
Y365285D01*
X1227300Y364785D02*
X1249800D01*
Y343785D02*
Y364785D01*
X1097980Y407170D02*
X1100980D01*
X1097980Y416170D02*
X1100980D01*
X1159370Y460860D02*
X1199370D01*
X1159370Y410360D02*
X1199370D01*
D14*
X1046600Y335650D02*
G03*
X1046600Y335650I-1000J0D01*
G01*
X918970Y459582D02*
G03*
X918970Y459582I-1000J0D01*
G01*
X1131800Y373785D02*
G03*
X1131800Y373785I-1000J0D01*
G01*
X1223570Y410560D02*
G03*
X1223570Y410560I-1000J0D01*
G01*
X797400Y465802D02*
Y471802D01*
X803400D01*
X851400D02*
X857400D01*
Y465802D02*
Y471802D01*
X797400Y411802D02*
Y417803D01*
Y411802D02*
X803400D01*
X851400D02*
X857400D01*
Y417803D01*
X763765Y370700D02*
X767765D01*
X763765Y363700D02*
X767765D01*
X763765Y385150D02*
X767765D01*
X763765Y378150D02*
X767765D01*
X763765Y399600D02*
X767765D01*
X763765Y392600D02*
X767765D01*
X763765Y470000D02*
X767765D01*
X763765Y477000D02*
X767765D01*
X763765Y501000D02*
X767765D01*
X763765Y508000D02*
X767765D01*
X1025400Y396600D02*
X1029400D01*
X1025400Y389600D02*
X1029400D01*
X995400Y396600D02*
X999400D01*
X995400Y389600D02*
X999400D01*
X936875Y396725D02*
X940250Y393350D01*
X937000Y390100D02*
X940250Y393350D01*
X953000Y388850D02*
Y397100D01*
X902168Y388300D02*
X906168D01*
X902168Y395300D02*
X906168D01*
X902168Y414800D02*
X906168D01*
X902168Y421800D02*
X906168D01*
X1232322Y401150D02*
X1234322D01*
X1232322Y407650D02*
X1234322D01*
X1232322Y423950D02*
X1234322D01*
X1232322Y417450D02*
X1234322D01*
X1095980Y456003D02*
X1099980D01*
X1095980Y449003D02*
X1099980D01*
X1095980Y469670D02*
X1099980D01*
X1095980Y476670D02*
X1099980D01*
X1153770Y469670D02*
X1157770D01*
X1153770Y476670D02*
X1157770D01*
X963420Y348549D02*
X962087Y349881D01*
X959421D01*
X958088Y348549D01*
Y343217D01*
X959421Y341884D01*
X962087D01*
X963420Y343217D01*
X966085Y341884D02*
X968751D01*
X967418D01*
Y349881D01*
X966085Y348549D01*
X972750Y341884D02*
X975416D01*
X974083D01*
Y349881D01*
X972750Y348549D01*
X974136Y372199D02*
Y365534D01*
X975468Y364201D01*
X978134D01*
X979467Y365534D01*
Y372199D01*
X986132Y364201D02*
Y372199D01*
X982133Y368200D01*
X987465D01*
X785415Y392176D02*
Y400173D01*
X789414D01*
X790747Y398840D01*
Y396175D01*
X789414Y394842D01*
X785415D01*
X788081D02*
X790747Y392176D01*
X793412D02*
X796078D01*
X794745D01*
Y400173D01*
X793412Y398840D01*
X804076Y392176D02*
Y400173D01*
X800077Y396175D01*
X805409D01*
X785261Y377632D02*
Y385629D01*
X789260D01*
X790593Y384296D01*
Y381631D01*
X789260Y380298D01*
X785261D01*
X787927D02*
X790593Y377632D01*
X793258D02*
X795924D01*
X794591D01*
Y385629D01*
X793258Y384296D01*
X799923D02*
X801256Y385629D01*
X803922D01*
X805255Y384296D01*
Y382964D01*
X803922Y381631D01*
X802589D01*
X803922D01*
X805255Y380298D01*
Y378965D01*
X803922Y377632D01*
X801256D01*
X799923Y378965D01*
X785277Y363220D02*
Y371217D01*
X789276D01*
X790609Y369884D01*
Y367219D01*
X789276Y365886D01*
X785277D01*
X787943D02*
X790609Y363220D01*
X798606Y371217D02*
X795940Y369884D01*
X793274Y367219D01*
Y364553D01*
X794607Y363220D01*
X797273D01*
X798606Y364553D01*
Y365886D01*
X797273Y367219D01*
X793274D01*
X977644Y348294D02*
X976311Y349627D01*
X973645D01*
X972312Y348294D01*
Y342963D01*
X973645Y341630D01*
X976311D01*
X977644Y342963D01*
X980309Y341630D02*
X982975D01*
X981642D01*
Y349627D01*
X980309Y348294D01*
X986974D02*
X988307Y349627D01*
X990973D01*
X992306Y348294D01*
Y342963D01*
X990973Y341630D01*
X988307D01*
X986974Y342963D01*
Y348294D01*
X1048002Y349057D02*
X1046669Y350389D01*
X1044003D01*
X1042670Y349057D01*
Y343725D01*
X1044003Y342392D01*
X1046669D01*
X1048002Y343725D01*
X1050667D02*
X1052000Y342392D01*
X1054666D01*
X1055999Y343725D01*
Y349057D01*
X1054666Y350389D01*
X1052000D01*
X1050667Y349057D01*
Y347724D01*
X1052000Y346391D01*
X1055999D01*
X750068Y422499D02*
Y421166D01*
X752734Y418500D01*
X755400Y421166D01*
Y422499D01*
X752734Y418500D02*
Y414501D01*
X758066D02*
X760732D01*
X759399D01*
Y422499D01*
X758066Y421166D01*
X869635Y436799D02*
Y430134D01*
X870968Y428801D01*
X873634D01*
X874967Y430134D01*
Y436799D01*
X882964Y428801D02*
X877633D01*
X882964Y434133D01*
Y435466D01*
X881632Y436799D01*
X878966D01*
X877633Y435466D01*
X931168Y418399D02*
Y411734D01*
X932501Y410401D01*
X935167D01*
X936500Y411734D01*
Y418399D01*
X939166Y410401D02*
X941832D01*
X940499D01*
Y418399D01*
X939166Y417066D01*
X1249219Y416632D02*
Y424629D01*
X1253218D01*
X1254551Y423296D01*
Y420630D01*
X1253218Y419297D01*
X1249219D01*
X1251885D02*
X1254551Y416632D01*
X1257217D02*
X1259882D01*
X1258549D01*
Y424629D01*
X1257217Y423296D01*
X1269213Y416632D02*
X1263881D01*
X1269213Y421963D01*
Y423296D01*
X1267880Y424629D01*
X1265214D01*
X1263881Y423296D01*
X1248786Y400500D02*
Y408497D01*
X1252785D01*
X1254118Y407164D01*
Y404498D01*
X1252785Y403166D01*
X1248786D01*
X1251452D02*
X1254118Y400500D01*
X1256783D02*
X1259449D01*
X1258116D01*
Y408497D01*
X1256783Y407164D01*
X1263448Y400500D02*
X1266114D01*
X1264781D01*
Y408497D01*
X1263448Y407164D01*
X867771Y387901D02*
Y395899D01*
X871769D01*
X873102Y394566D01*
Y391900D01*
X871769Y390567D01*
X867771D01*
X870436D02*
X873102Y387901D01*
X875768D02*
X878434D01*
X877101D01*
Y395899D01*
X875768Y394566D01*
X882433D02*
X883766Y395899D01*
X886431D01*
X887764Y394566D01*
Y389234D01*
X886431Y387901D01*
X883766D01*
X882433Y389234D01*
Y394566D01*
X869635Y414901D02*
Y422899D01*
X873634D01*
X874967Y421566D01*
Y418900D01*
X873634Y417567D01*
X869635D01*
X872301D02*
X874967Y414901D01*
X877633Y416234D02*
X878966Y414901D01*
X881632D01*
X882964Y416234D01*
Y421566D01*
X881632Y422899D01*
X878966D01*
X877633Y421566D01*
Y420233D01*
X878966Y418900D01*
X882964D01*
X1020790Y375030D02*
Y383027D01*
X1024789D01*
X1026122Y381694D01*
Y379029D01*
X1024789Y377696D01*
X1020790D01*
X1023456D02*
X1026122Y375030D01*
X1028788Y381694D02*
X1030120Y383027D01*
X1032786D01*
X1034119Y381694D01*
Y380361D01*
X1032786Y379029D01*
X1034119Y377696D01*
Y376363D01*
X1032786Y375030D01*
X1030120D01*
X1028788Y376363D01*
Y377696D01*
X1030120Y379029D01*
X1028788Y380361D01*
Y381694D01*
X1030120Y379029D02*
X1032786D01*
X781500Y469401D02*
Y477399D01*
X785499D01*
X786832Y476066D01*
Y473400D01*
X785499Y472067D01*
X781500D01*
X784166D02*
X786832Y469401D01*
X789498Y477399D02*
X794830D01*
Y476066D01*
X789498Y470734D01*
Y469401D01*
X759100Y487101D02*
Y495099D01*
X763099D01*
X764432Y493766D01*
Y491100D01*
X763099Y489767D01*
X759100D01*
X761766D02*
X764432Y487101D01*
X772430Y495099D02*
X767098D01*
Y491100D01*
X769764Y492433D01*
X771097D01*
X772430Y491100D01*
Y488434D01*
X771097Y487101D01*
X768431D01*
X767098Y488434D01*
X990818Y375122D02*
Y383119D01*
X994817D01*
X996150Y381786D01*
Y379120D01*
X994817Y377788D01*
X990818D01*
X993484D02*
X996150Y375122D01*
X1002814D02*
Y383119D01*
X998816Y379120D01*
X1004147D01*
X774170Y415099D02*
Y407101D01*
X778168D01*
X779501Y408434D01*
Y413766D01*
X778168Y415099D01*
X774170D01*
X782167D02*
Y407101D01*
X786166D01*
X787499Y408434D01*
Y413766D01*
X786166Y415099D01*
X782167D01*
X790164Y407101D02*
X792830D01*
X791497D01*
Y415099D01*
X790164Y413766D01*
X934783Y383451D02*
Y375454D01*
X938782D01*
X940115Y376787D01*
Y382118D01*
X938782Y383451D01*
X934783D01*
X942780Y375454D02*
X945446D01*
X944113D01*
Y383451D01*
X942780Y382118D01*
X1043693Y308303D02*
X1042360Y309636D01*
X1039695D01*
X1038362Y308303D01*
Y302971D01*
X1039695Y301638D01*
X1042360D01*
X1043693Y302971D01*
X1046359Y301638D02*
Y306970D01*
X1049025Y309636D01*
X1051691Y306970D01*
Y301638D01*
Y305637D01*
X1046359D01*
X1054356Y301638D02*
Y309636D01*
X1059688Y301638D01*
Y309636D01*
X1062354Y305637D02*
X1067685D01*
X1070351Y301638D02*
Y306970D01*
X1073017Y309636D01*
X1075683Y306970D01*
Y301638D01*
Y305637D01*
X1070351D01*
X1078349Y301638D02*
Y309636D01*
X1082347D01*
X1083680Y308303D01*
Y305637D01*
X1082347Y304304D01*
X1078349D01*
X1086346Y301638D02*
X1089012D01*
X1087679D01*
Y309636D01*
X1086346Y308303D01*
X1171450Y294551D02*
X1170117Y295884D01*
X1167451D01*
X1166118Y294551D01*
Y289219D01*
X1167451Y287886D01*
X1170117D01*
X1171450Y289219D01*
X1174116Y287886D02*
Y293218D01*
X1176782Y295884D01*
X1179447Y293218D01*
Y287886D01*
Y291885D01*
X1174116D01*
X1182113Y287886D02*
Y295884D01*
X1187445Y287886D01*
Y295884D01*
X1190111Y287886D02*
X1192776D01*
X1191444D01*
Y295884D01*
X1190111Y294551D01*
X875067Y407966D02*
X873734Y409299D01*
X871068D01*
X869735Y407966D01*
Y402634D01*
X871068Y401301D01*
X873734D01*
X875067Y402634D01*
X877733Y407966D02*
X879066Y409299D01*
X881732D01*
X883064Y407966D01*
Y406633D01*
X881732Y405300D01*
X883064Y403967D01*
Y402634D01*
X881732Y401301D01*
X879066D01*
X877733Y402634D01*
Y403967D01*
X879066Y405300D01*
X877733Y406633D01*
Y407966D01*
X879066Y405300D02*
X881732D01*
X875567Y468066D02*
X874234Y469399D01*
X871568D01*
X870236Y468066D01*
Y462734D01*
X871568Y461401D01*
X874234D01*
X875567Y462734D01*
X878233Y469399D02*
X883565D01*
Y468066D01*
X878233Y462734D01*
Y461401D01*
X823584Y396856D02*
X822251Y398189D01*
X819585D01*
X818252Y396856D01*
Y391525D01*
X819585Y390192D01*
X822251D01*
X823584Y391525D01*
X831581Y398189D02*
X828915Y396856D01*
X826249Y394190D01*
Y391525D01*
X827582Y390192D01*
X830248D01*
X831581Y391525D01*
Y392858D01*
X830248Y394190D01*
X826249D01*
X823567Y383266D02*
X822234Y384599D01*
X819568D01*
X818235Y383266D01*
Y377934D01*
X819568Y376601D01*
X822234D01*
X823567Y377934D01*
X831564Y384599D02*
X826233D01*
Y380600D01*
X828899Y381933D01*
X830232D01*
X831564Y380600D01*
Y377934D01*
X830232Y376601D01*
X827566D01*
X826233Y377934D01*
X820367Y509666D02*
X819034Y510999D01*
X816368D01*
X815035Y509666D01*
Y504334D01*
X816368Y503001D01*
X819034D01*
X820367Y504334D01*
X827032Y503001D02*
Y510999D01*
X823033Y507000D01*
X828364D01*
X820467Y487466D02*
X819134Y488799D01*
X816468D01*
X815135Y487466D01*
Y482134D01*
X816468Y480801D01*
X819134D01*
X820467Y482134D01*
X823133Y487466D02*
X824466Y488799D01*
X827132D01*
X828465Y487466D01*
Y486133D01*
X827132Y484800D01*
X825799D01*
X827132D01*
X828465Y483467D01*
Y482134D01*
X827132Y480801D01*
X824466D01*
X823133Y482134D01*
X967867Y382166D02*
X966534Y383499D01*
X963868D01*
X962535Y382166D01*
Y376834D01*
X963868Y375501D01*
X966534D01*
X967867Y376834D01*
X975864Y375501D02*
X970533D01*
X975864Y380833D01*
Y382166D01*
X974532Y383499D01*
X971866D01*
X970533Y382166D01*
X987400Y410366D02*
X986067Y411699D01*
X983401D01*
X982068Y410366D01*
Y405034D01*
X983401Y403701D01*
X986067D01*
X987400Y405034D01*
X990066Y403701D02*
X992732D01*
X991399D01*
Y411699D01*
X990066Y410366D01*
X1199568Y477099D02*
Y470434D01*
X1200901Y469101D01*
X1203567D01*
X1204900Y470434D01*
Y477099D01*
X1207566Y469101D02*
X1210232D01*
X1208899D01*
Y477099D01*
X1207566Y475766D01*
X1117600Y448564D02*
Y456561D01*
X1121599D01*
X1122932Y455229D01*
Y452563D01*
X1121599Y451230D01*
X1117600D01*
X1120266D02*
X1122932Y448564D01*
X1125597Y455229D02*
X1126930Y456561D01*
X1129596D01*
X1130929Y455229D01*
Y453896D01*
X1129596Y452563D01*
X1128263D01*
X1129596D01*
X1130929Y451230D01*
Y449897D01*
X1129596Y448564D01*
X1126930D01*
X1125597Y449897D01*
X1117600Y469138D02*
Y477135D01*
X1121599D01*
X1122932Y475802D01*
Y473137D01*
X1121599Y471804D01*
X1117600D01*
X1120266D02*
X1122932Y469138D01*
X1130929D02*
X1125597D01*
X1130929Y474470D01*
Y475802D01*
X1129596Y477135D01*
X1126930D01*
X1125597Y475802D01*
X1175258Y469138D02*
Y477135D01*
X1179257D01*
X1180590Y475802D01*
Y473137D01*
X1179257Y471804D01*
X1175258D01*
X1177924D02*
X1180590Y469138D01*
X1183255D02*
X1185921D01*
X1184588D01*
Y477135D01*
X1183255Y475802D01*
X1000760Y447163D02*
Y439166D01*
X1006092D01*
X1008757D02*
X1011423D01*
X1010090D01*
Y447163D01*
X1008757Y445830D01*
X1054778Y448709D02*
Y440711D01*
X1058777D01*
X1060110Y442044D01*
Y447376D01*
X1058777Y448709D01*
X1054778D01*
X1062776Y440711D02*
X1065442D01*
X1064109D01*
Y448709D01*
X1062776Y447376D01*
X963420Y459292D02*
X962087Y460625D01*
X959421D01*
X958088Y459292D01*
Y453961D01*
X959421Y452628D01*
X962087D01*
X963420Y453961D01*
X971417Y460625D02*
X968751Y459292D01*
X966085Y456627D01*
Y453961D01*
X967418Y452628D01*
X970084D01*
X971417Y453961D01*
Y455294D01*
X970084Y456627D01*
X966085D01*
X936750Y459292D02*
X935417Y460625D01*
X932751D01*
X931418Y459292D01*
Y453961D01*
X932751Y452628D01*
X935417D01*
X936750Y453961D01*
X944747Y460625D02*
X939415D01*
Y456627D01*
X942081Y457960D01*
X943414D01*
X944747Y456627D01*
Y453961D01*
X943414Y452628D01*
X940748D01*
X939415Y453961D01*
X1125267Y414466D02*
X1123934Y415799D01*
X1121268D01*
X1119936Y414466D01*
Y409134D01*
X1121268Y407801D01*
X1123934D01*
X1125267Y409134D01*
X1131932Y407801D02*
Y415799D01*
X1127933Y411800D01*
X1133264D01*
X1124817Y434676D02*
X1123484Y436009D01*
X1120818D01*
X1119485Y434676D01*
Y429344D01*
X1120818Y428011D01*
X1123484D01*
X1124817Y429344D01*
X1127483Y434676D02*
X1128816Y436009D01*
X1131482D01*
X1132814Y434676D01*
Y433343D01*
X1131482Y432010D01*
X1130149D01*
X1131482D01*
X1132814Y430677D01*
Y429344D01*
X1131482Y428011D01*
X1128816D01*
X1127483Y429344D01*
X1254250Y460055D02*
X1252917Y461387D01*
X1250251D01*
X1248918Y460055D01*
Y454723D01*
X1250251Y453390D01*
X1252917D01*
X1254250Y454723D01*
X1262247Y453390D02*
X1256915D01*
X1262247Y458722D01*
Y460055D01*
X1260914Y461387D01*
X1258248D01*
X1256915Y460055D01*
X1230374D02*
X1229041Y461387D01*
X1226375D01*
X1225042Y460055D01*
Y454723D01*
X1226375Y453390D01*
X1229041D01*
X1230374Y454723D01*
X1233039Y453390D02*
X1235705D01*
X1234372D01*
Y461387D01*
X1233039Y460055D01*
D15*
X1077610Y434670D02*
Y469170D01*
Y433170D02*
Y434670D01*
Y415170D02*
Y431670D01*
X1042610Y415170D02*
Y431670D01*
Y433170D01*
Y434670D02*
Y469170D01*
Y434670D02*
X1077610D01*
X1042610Y433170D02*
Y434670D01*
X1077610Y431670D02*
Y433170D01*
X1042610Y469170D02*
X1046610D01*
X1042610Y415170D02*
X1046610D01*
X1073610D02*
X1077610D01*
X1073610Y469170D02*
X1077610D01*
M02*
