G04*
G04 #@! TF.GenerationSoftware,Altium Limited,Altium Designer,21.4.1 (30)*
G04*
G04 Layer_Color=255*
%FSLAX44Y44*%
%MOMM*%
G71*
G04*
G04 #@! TF.SameCoordinates,4CB8062D-C9E7-4AB4-8A21-2F76EA793763*
G04*
G04*
G04 #@! TF.FilePolarity,Positive*
G04*
G01*
G75*
%ADD73C,3.5000*%
%ADD75C,0.4000*%
%ADD79R,2.4500X1.0000*%
%ADD80R,1.0000X2.4500*%
%ADD81R,0.7000X1.7000*%
D73*
X945700Y497687D02*
D03*
X1253290D02*
D03*
X945700Y294950D02*
D03*
D75*
X1186870Y450610D02*
D03*
X1171870D02*
D03*
Y420610D02*
D03*
X1186870D02*
D03*
Y435610D02*
D03*
X1171870D02*
D03*
D79*
X759850Y280950D02*
D03*
Y294950D02*
D03*
Y308950D02*
D03*
Y322950D02*
D03*
Y336950D02*
D03*
Y350950D02*
D03*
Y364950D02*
D03*
Y378950D02*
D03*
X885750D02*
D03*
Y364950D02*
D03*
Y350950D02*
D03*
Y336950D02*
D03*
Y322950D02*
D03*
Y308950D02*
D03*
Y294950D02*
D03*
Y280950D02*
D03*
D80*
X871800Y401900D02*
D03*
X857800D02*
D03*
X843800D02*
D03*
X829800D02*
D03*
X815800D02*
D03*
X801800D02*
D03*
X787800D02*
D03*
X773800D02*
D03*
D81*
X825750Y495988D02*
D03*
X838250D02*
D03*
X850750D02*
D03*
X863250D02*
D03*
M02*
