G04*
G04 #@! TF.GenerationSoftware,Altium Limited,Altium Designer,21.4.1 (30)*
G04*
G04 Layer_Color=32896*
%FSLAX44Y44*%
%MOMM*%
G71*
G04*
G04 #@! TF.SameCoordinates,4CB8062D-C9E7-4AB4-8A21-2F76EA793763*
G04*
G04*
G04 #@! TF.FilePolarity,Positive*
G04*
G01*
G75*
%ADD12C,0.0000*%
%ADD13C,0.1270*%
%ADD14C,0.2000*%
%ADD15C,0.1500*%
%ADD87C,0.1016*%
%ADD88C,0.0508*%
G36*
X794184Y499299D02*
X789179D01*
Y508801D01*
X794184D01*
Y499299D01*
D02*
G37*
G36*
X805868Y499291D02*
X800874D01*
Y508801D01*
X805868D01*
Y499291D01*
D02*
G37*
G36*
X794149Y485399D02*
X789144D01*
Y494901D01*
X794149D01*
Y485399D01*
D02*
G37*
G36*
X805833Y485391D02*
X800839D01*
Y494901D01*
X805833D01*
Y485391D01*
D02*
G37*
G36*
X901519Y460799D02*
X896514D01*
Y470301D01*
X901519D01*
Y460799D01*
D02*
G37*
G36*
X913203Y460791D02*
X908209D01*
Y470301D01*
X913203D01*
Y460791D01*
D02*
G37*
G36*
X912553Y400399D02*
X907549D01*
Y409901D01*
X912553D01*
Y400399D01*
D02*
G37*
G36*
X900859D02*
X895864D01*
Y409908D01*
X900859D01*
Y400399D01*
D02*
G37*
G36*
X858436Y389299D02*
X853431D01*
Y398801D01*
X858436D01*
Y389299D01*
D02*
G37*
G36*
X846741D02*
X841747D01*
Y398809D01*
X846741D01*
Y389299D01*
D02*
G37*
G36*
X933500Y394475D02*
X936625D01*
Y392225D01*
X933500D01*
Y387350D01*
X931500D01*
Y392225D01*
X931125D01*
Y394475D01*
X931500D01*
Y399350D01*
X933500D01*
Y394475D01*
D02*
G37*
G36*
X858436Y375799D02*
X853431D01*
Y385301D01*
X858436D01*
Y375799D01*
D02*
G37*
G36*
X846741D02*
X841747D01*
Y385309D01*
X846741D01*
Y375799D01*
D02*
G37*
G36*
X977609Y417608D02*
X968099D01*
Y422603D01*
X977609D01*
Y417608D01*
D02*
G37*
G36*
X1107866Y406869D02*
X1102861D01*
Y416371D01*
X1107866D01*
Y406869D01*
D02*
G37*
G36*
X1096171D02*
X1091177D01*
Y416379D01*
X1096171D01*
Y406869D01*
D02*
G37*
G36*
X977601Y405914D02*
X968099D01*
Y410919D01*
X977601D01*
Y405914D01*
D02*
G37*
G36*
X947250Y396100D02*
X945250D01*
Y397600D01*
X947250D01*
Y396100D01*
D02*
G37*
G36*
X944125D02*
X944500D01*
Y395600D01*
X944000D01*
Y395725D01*
X943625D01*
Y399475D01*
X944125D01*
Y396100D01*
D02*
G37*
G36*
X947625Y392225D02*
X938625D01*
Y394475D01*
X947625D01*
Y392225D01*
D02*
G37*
G36*
X946500Y388350D02*
X944500D01*
Y391350D01*
X946500D01*
Y388350D01*
D02*
G37*
G36*
X977686Y388299D02*
X972681D01*
Y397801D01*
X977686D01*
Y388299D01*
D02*
G37*
G36*
X965991D02*
X960997D01*
Y397809D01*
X965991D01*
Y388299D01*
D02*
G37*
G36*
X1034209Y349609D02*
X1024699D01*
Y354603D01*
X1034209D01*
Y349609D01*
D02*
G37*
G36*
X949701Y349181D02*
X940199D01*
Y354186D01*
X949701D01*
Y349181D01*
D02*
G37*
G36*
X964101Y348981D02*
X954599D01*
Y353986D01*
X964101D01*
Y348981D01*
D02*
G37*
G36*
X1034201Y337914D02*
X1024699D01*
Y342919D01*
X1034201D01*
Y337914D01*
D02*
G37*
G36*
X949701Y337497D02*
X940191D01*
Y342491D01*
X949701D01*
Y337497D01*
D02*
G37*
G36*
X964101Y337297D02*
X954591D01*
Y342291D01*
X964101D01*
Y337297D01*
D02*
G37*
D12*
X994448Y332422D02*
G03*
X988352Y332422I-3048J0D01*
G01*
X994448D02*
G03*
X988352Y332422I-3048J0D01*
G01*
X994448D02*
G03*
X988352Y332422I-3048J0D01*
G01*
X994448D02*
G03*
X988352Y332422I-3048J0D01*
G01*
X948748Y399822D02*
G03*
X942652Y399822I-3048J0D01*
G01*
X948748D02*
G03*
X942652Y399822I-3048J0D01*
G01*
X948748D02*
G03*
X942652Y399822I-3048J0D01*
G01*
X948748D02*
G03*
X942652Y399822I-3048J0D01*
G01*
X983526Y358838D02*
Y361378D01*
X999274Y332422D02*
Y334962D01*
Y339788D02*
Y344360D01*
Y349440D02*
Y354012D01*
Y358838D02*
Y361378D01*
X983526Y332422D02*
Y334962D01*
Y361378D02*
X999274D01*
X983526Y339788D02*
Y354012D01*
Y332422D02*
X988352D01*
X994448D01*
X999274D01*
Y334962D02*
Y339788D01*
Y334962D02*
X1005370D01*
Y339788D01*
X999274D02*
X1005370D01*
X999274Y344360D02*
Y349440D01*
Y344360D02*
X1005370D01*
Y349440D01*
X999274D02*
X1005370D01*
X999274Y354012D02*
Y358838D01*
Y354012D02*
X1005370D01*
Y358838D01*
X999274D02*
X1005370D01*
X983526Y354012D02*
Y358838D01*
X977430D02*
X983526D01*
X977430Y354012D02*
Y358838D01*
Y354012D02*
X983526D01*
Y334962D02*
Y339788D01*
X977430D02*
X983526D01*
X977430Y334962D02*
Y339788D01*
Y334962D02*
X983526D01*
Y358838D02*
Y361378D01*
X999274Y332422D02*
Y334962D01*
Y339788D02*
Y344360D01*
Y349440D02*
Y354012D01*
Y358838D02*
Y361378D01*
X983526Y332422D02*
Y334962D01*
Y361378D02*
X999274D01*
X983526Y339788D02*
Y354012D01*
Y332422D02*
X988352D01*
X994448D01*
X999274D01*
Y334962D02*
Y339788D01*
Y334962D02*
X1005370D01*
Y339788D01*
X999274D02*
X1005370D01*
X999274Y344360D02*
Y349440D01*
Y344360D02*
X1005370D01*
Y349440D01*
X999274D02*
X1005370D01*
X999274Y354012D02*
Y358838D01*
Y354012D02*
X1005370D01*
Y358838D01*
X999274D02*
X1005370D01*
X983526Y354012D02*
Y358838D01*
X977430D02*
X983526D01*
X977430Y354012D02*
Y358838D01*
Y354012D02*
X983526D01*
Y334962D02*
Y339788D01*
X977430D02*
X983526D01*
X977430Y334962D02*
Y339788D01*
Y334962D02*
X983526D01*
X931730Y402362D02*
X937826D01*
X931730D02*
Y407188D01*
X937826D01*
Y402362D02*
Y407188D01*
X931730Y421412D02*
X937826D01*
X931730D02*
Y426238D01*
X937826D01*
Y421412D02*
Y426238D01*
X953574D02*
X959670D01*
Y421412D02*
Y426238D01*
X953574Y421412D02*
X959670D01*
X953574D02*
Y426238D01*
Y416840D02*
X959670D01*
Y411760D02*
Y416840D01*
X953574Y411760D02*
X959670D01*
X953574D02*
Y416840D01*
Y407188D02*
X959670D01*
Y402362D02*
Y407188D01*
X953574Y402362D02*
X959670D01*
X953574D02*
Y407188D01*
X948748Y399822D02*
X953574D01*
X942652D02*
X948748D01*
X937826D02*
X942652D01*
X937826Y407188D02*
Y421412D01*
Y428778D02*
X953574D01*
X937826Y399822D02*
Y402362D01*
X953574Y426238D02*
Y428778D01*
Y416840D02*
Y421412D01*
Y407188D02*
Y411760D01*
Y399822D02*
Y402362D01*
X937826Y426238D02*
Y428778D01*
X931730Y402362D02*
X937826D01*
X931730D02*
Y407188D01*
X937826D01*
Y402362D02*
Y407188D01*
X931730Y421412D02*
X937826D01*
X931730D02*
Y426238D01*
X937826D01*
Y421412D02*
Y426238D01*
X953574D02*
X959670D01*
Y421412D02*
Y426238D01*
X953574Y421412D02*
X959670D01*
X953574D02*
Y426238D01*
Y416840D02*
X959670D01*
Y411760D02*
Y416840D01*
X953574Y411760D02*
X959670D01*
X953574D02*
Y416840D01*
Y407188D02*
X959670D01*
Y402362D02*
Y407188D01*
X953574Y402362D02*
X959670D01*
X953574D02*
Y407188D01*
X948748Y399822D02*
X953574D01*
X942652D02*
X948748D01*
X937826D02*
X942652D01*
X937826Y407188D02*
Y421412D01*
Y428778D02*
X953574D01*
X937826Y399822D02*
Y402362D01*
X953574Y426238D02*
Y428778D01*
Y416840D02*
Y421412D01*
Y407188D02*
Y411760D01*
Y399822D02*
Y402362D01*
X937826Y426238D02*
Y428778D01*
D13*
X759400Y425802D02*
Y457803D01*
X772400Y425802D02*
Y457803D01*
X759400Y425802D02*
Y457803D01*
X772400Y425802D02*
Y457803D01*
X797400Y411802D02*
Y471802D01*
Y411802D02*
Y471802D01*
X929190Y439505D02*
X947190D01*
X929190Y473505D02*
X947190D01*
X929190Y439505D02*
Y473505D01*
X947190Y439505D02*
Y473505D01*
X929190Y439505D02*
X947190D01*
X929190Y473505D02*
X947190D01*
X929190Y439505D02*
Y473505D01*
X947190Y439505D02*
Y473505D01*
X955860Y439505D02*
X973860D01*
X955860Y473505D02*
X973860D01*
X955860Y439505D02*
Y473505D01*
X973860Y439505D02*
Y473505D01*
X955860Y439505D02*
X973860D01*
X955860Y473505D02*
X973860D01*
X955860Y439505D02*
Y473505D01*
X973860Y439505D02*
Y473505D01*
X885750Y451488D02*
Y493988D01*
X803250D02*
X885750D01*
X803250Y451488D02*
Y493988D01*
Y451488D02*
X885750D01*
Y493988D01*
X803250D02*
X885750D01*
X803250Y451488D02*
Y493988D01*
Y451488D02*
X885750D01*
X1222290Y441470D02*
Y473470D01*
X1238290D01*
Y441470D02*
Y473470D01*
X1222290Y441470D02*
X1238290D01*
X1222290D02*
Y473470D01*
X1238290D01*
Y441470D02*
Y473470D01*
X1222290Y441470D02*
X1238290D01*
X1247690D02*
Y473470D01*
X1263690D01*
Y441470D02*
Y473470D01*
X1247690Y441470D02*
X1263690D01*
X1247690D02*
Y473470D01*
X1263690D01*
Y441470D02*
Y473470D01*
X1247690Y441470D02*
X1263690D01*
X1159370Y410610D02*
Y460610D01*
X1199370Y410610D02*
Y460610D01*
X1159370D02*
X1199370D01*
X1159370Y410610D02*
X1199370D01*
X1159370D02*
Y460610D01*
X1199370Y410610D02*
Y460610D01*
X1159370D02*
X1199370D01*
X1159370Y410610D02*
X1199370D01*
D14*
X826750Y510488D02*
G03*
X826750Y510488I-1000J0D01*
G01*
D02*
G03*
X826750Y510488I-1000J0D01*
G01*
X1223570Y410560D02*
G03*
X1223570Y410560I-1000J0D01*
G01*
D02*
G03*
X1223570Y410560I-1000J0D01*
G01*
X857400Y411802D02*
Y471802D01*
X797400Y411802D02*
X857400D01*
X797400D02*
Y471802D01*
X857400D01*
Y411802D02*
Y471802D01*
X797400Y411802D02*
X857400D01*
X797400D02*
Y471802D01*
X857400D01*
D15*
X1042610Y415170D02*
X1077610D01*
X1042610Y469170D02*
X1077610D01*
X1042610Y415170D02*
X1077610D01*
X1042610Y469170D02*
X1077610D01*
D87*
X946498Y396350D02*
G03*
X946498Y390350I262J-3000D01*
G01*
Y396350D02*
G03*
X946498Y390350I262J-3000D01*
G01*
X1025180Y342740D02*
Y349860D01*
X1033690Y342740D02*
Y349860D01*
X1025180Y342740D02*
Y349860D01*
X1033690Y342740D02*
Y349860D01*
X963620Y342040D02*
Y349160D01*
X955110Y342040D02*
Y349160D01*
X963620Y342040D02*
Y349160D01*
X955110Y342040D02*
Y349160D01*
X949220Y342240D02*
Y349360D01*
X940710Y342240D02*
Y349360D01*
X949220Y342240D02*
Y349360D01*
X940710Y342240D02*
Y349360D01*
X793970Y485910D02*
X801090D01*
X793970Y494420D02*
X801090D01*
X793970Y485910D02*
X801090D01*
X793970Y494420D02*
X801090D01*
X794005Y499810D02*
X801125D01*
X794005Y508320D02*
X801125D01*
X794005Y499810D02*
X801125D01*
X794005Y508320D02*
X801125D01*
X965740Y397290D02*
X972860D01*
X965740Y388780D02*
X972860D01*
X965740Y397290D02*
X972860D01*
X965740Y388780D02*
X972860D01*
X935000Y397350D02*
X942250D01*
X935000Y389350D02*
X942000D01*
X935000Y397350D02*
X942250D01*
X935000Y389350D02*
X942000D01*
X846490Y384790D02*
X853610D01*
X846490Y376280D02*
X853610D01*
X846490Y384790D02*
X853610D01*
X846490Y376280D02*
X853610D01*
X846490Y398290D02*
X853610D01*
X846490Y389780D02*
X853610D01*
X846490Y398290D02*
X853610D01*
X846490Y389780D02*
X853610D01*
X901340Y461310D02*
X908460D01*
X901340Y469820D02*
X908460D01*
X901340Y461310D02*
X908460D01*
X901340Y469820D02*
X908460D01*
X900608Y409390D02*
X907728D01*
X900608Y400880D02*
X907728D01*
X900608Y409390D02*
X907728D01*
X900608Y400880D02*
X907728D01*
X977090Y410740D02*
Y417860D01*
X968580Y410740D02*
Y417860D01*
X977090Y410740D02*
Y417860D01*
X968580Y410740D02*
Y417860D01*
X1095920Y407350D02*
X1103040D01*
X1095920Y415860D02*
X1103040D01*
X1095920Y407350D02*
X1103040D01*
X1095920Y415860D02*
X1103040D01*
D88*
X930250Y390600D02*
G03*
X930250Y396100I0J2750D01*
G01*
X945500Y396850D02*
G03*
X945500Y396850I-750J0D01*
G01*
X930250Y390600D02*
G03*
X930250Y396100I0J2750D01*
G01*
X945500Y396850D02*
G03*
X945500Y396850I-750J0D01*
G01*
M02*
