G04*
G04 #@! TF.GenerationSoftware,Altium Limited,Altium Designer,21.4.1 (30)*
G04*
G04 Layer_Physical_Order=1*
G04 Layer_Color=255*
%FSLAX44Y44*%
%MOMM*%
G71*
G04*
G04 #@! TF.SameCoordinates,55B94D97-2DA6-48D6-997F-8BE97AF1AB5C*
G04*
G04*
G04 #@! TF.FilePolarity,Positive*
G04*
G01*
G75*
%ADD10C,0.5000*%
%ADD16R,1.3208X0.5588*%
%ADD17R,2.0000X0.4000*%
%ADD18R,1.0800X0.2600*%
%ADD19R,0.2600X1.0800*%
%ADD20R,3.7000X3.7000*%
%ADD21R,0.7000X0.9000*%
%ADD22R,1.0000X0.8000*%
%ADD23R,1.0000X2.7000*%
%ADD24R,0.6000X1.7000*%
%ADD25R,0.8000X1.0000*%
%ADD26R,0.8000X0.8000*%
%ADD27R,0.3000X0.5250*%
%ADD28R,1.8200X1.3800*%
%ADD29R,1.0000X2.7000*%
%ADD30R,1.8000X3.8000*%
%ADD31R,0.6000X0.8500*%
%ADD32R,1.8200X1.1500*%
%ADD33R,2.1300X3.0000*%
%ADD34R,1.9700X0.6000*%
%ADD35R,2.7940X1.9050*%
%ADD36R,2.3000X2.2000*%
%ADD37R,0.8900X0.9300*%
%ADD64C,2.0000*%
%ADD65R,2.4500X1.6500*%
%ADD66C,0.7000*%
%ADD67C,1.0000*%
%ADD68C,0.4000*%
%ADD69C,0.3000*%
%ADD70C,0.2500*%
%ADD71C,0.8000*%
%ADD72C,1.5000*%
%ADD73C,3.5000*%
%ADD74C,0.9000*%
%ADD75C,0.4000*%
%ADD76C,0.7000*%
%ADD77C,0.8000*%
%ADD78C,1.2000*%
G36*
X1257669Y521415D02*
X1260829Y520569D01*
X1263851Y519317D01*
X1266684Y517681D01*
X1269279Y515690D01*
X1271592Y513377D01*
X1273584Y510782D01*
X1275219Y507948D01*
X1276471Y504926D01*
X1277318Y501766D01*
X1277745Y498523D01*
Y496948D01*
X1277742Y496877D01*
X1277727Y496811D01*
X1277726Y496693D01*
X1277689Y496581D01*
X1277670Y496420D01*
X1277684Y496236D01*
X1277653Y496054D01*
X1277655Y495958D01*
X1277655Y292231D01*
X1277654Y292211D01*
X1277646Y292114D01*
X1277654Y292041D01*
X1277637Y291969D01*
X1277554Y289528D01*
X1276495Y284855D01*
X1274567Y280472D01*
X1271840Y276534D01*
X1268415Y273188D01*
X1264416Y270553D01*
X1259989Y268727D01*
X1255295Y267777D01*
X1252901Y267756D01*
X1252828Y267741D01*
X1252755Y267751D01*
X1252692Y267746D01*
X761266Y267745D01*
X760990Y267690D01*
X760707Y267683D01*
X760594Y267658D01*
X758975D01*
X755731Y268085D01*
X752571Y268931D01*
X749549Y270183D01*
X746716Y271819D01*
X744121Y273810D01*
X741808Y276123D01*
X739816Y278718D01*
X738181Y281551D01*
X736929Y284574D01*
X736082Y287734D01*
X735655Y290977D01*
Y292556D01*
X735658Y292623D01*
X735671Y292686D01*
X735672Y292943D01*
X735723Y293196D01*
X735745Y496660D01*
X735749Y496784D01*
X735745Y496806D01*
X735750Y496829D01*
X735774Y498532D01*
X736215Y501706D01*
X737056Y504793D01*
X738284Y507747D01*
X739879Y510521D01*
X741816Y513068D01*
X744062Y515346D01*
X746580Y517320D01*
X749330Y518955D01*
X752266Y520226D01*
X755340Y521112D01*
X758503Y521598D01*
X760102Y521637D01*
X760391Y521702D01*
X760688Y521720D01*
X760819Y521755D01*
X1251857Y521755D01*
X1251957Y521752D01*
X1252131Y521782D01*
X1252308Y521768D01*
X1252471Y521786D01*
X1252589Y521824D01*
X1252714Y521825D01*
X1252795Y521842D01*
X1254426Y521842D01*
X1257669Y521415D01*
D02*
G37*
%LPC*%
G36*
X752225Y508712D02*
Y506987D01*
X751910Y505811D01*
Y504089D01*
X752225Y502913D01*
Y500289D01*
X756437Y504500D01*
X752225Y508712D01*
D02*
G37*
G36*
X864483Y502188D02*
X862017D01*
X859738Y501244D01*
X857994Y499500D01*
X857687Y498759D01*
X856313D01*
X856006Y499500D01*
X854262Y501244D01*
X851983Y502188D01*
X849517D01*
X847238Y501244D01*
X845494Y499500D01*
X845187Y498759D01*
X843813D01*
X843506Y499500D01*
X841762Y501244D01*
X839483Y502188D01*
X837017D01*
X834738Y501244D01*
X833199Y499705D01*
X832244Y499653D01*
X828578Y495988D01*
X832244Y492322D01*
X833199Y492270D01*
X834738Y490731D01*
X837017Y489787D01*
X839483D01*
X841762Y490731D01*
X843506Y492476D01*
X843813Y493216D01*
X845187D01*
X845494Y492476D01*
X847238Y490731D01*
X849517Y489787D01*
X851983D01*
X854262Y490731D01*
X856006Y492476D01*
X856313Y493216D01*
X857687D01*
X857994Y492476D01*
X859738Y490731D01*
X862017Y489787D01*
X864483D01*
X866762Y490731D01*
X868506Y492476D01*
X869450Y494754D01*
Y497221D01*
X868506Y499500D01*
X866762Y501244D01*
X864483Y502188D01*
D02*
G37*
G36*
X758265Y500672D02*
X755053Y497460D01*
X761477D01*
X758265Y500672D01*
D02*
G37*
G36*
X1255181Y516888D02*
X1251399D01*
X1247690Y516150D01*
X1244195Y514702D01*
X1241051Y512601D01*
X1238376Y509927D01*
X1236275Y506782D01*
X1234828Y503288D01*
X1234090Y499579D01*
Y495797D01*
X1234828Y492087D01*
X1236275Y488593D01*
X1238376Y485448D01*
X1241051Y482774D01*
X1243107Y481400D01*
X1243131Y481380D01*
X1242590Y480176D01*
X1241930Y480274D01*
Y480610D01*
X1218650D01*
Y479928D01*
X1180372D01*
X1179090Y480096D01*
X1177809Y479928D01*
X1169310D01*
Y480210D01*
X1160059D01*
X1164684Y475584D01*
X1162270Y473170D01*
X1164684Y470756D01*
X1160059Y466130D01*
X1167299D01*
Y459700D01*
X1166170Y459360D01*
Y459360D01*
X1164339D01*
X1164278Y459439D01*
X1162879Y460512D01*
X1161249Y461188D01*
X1159500Y461418D01*
X1112238D01*
Y473170D01*
X1112008Y474919D01*
X1111332Y476549D01*
X1110680Y477399D01*
Y479370D01*
X1108020D01*
X1107229Y479697D01*
X1105480Y479928D01*
X1103731Y479697D01*
X1102940Y479370D01*
X1100280D01*
Y477399D01*
X1099628Y476549D01*
X1098952Y474919D01*
X1098722Y473170D01*
Y452930D01*
X1097573Y452210D01*
X1097300Y452420D01*
X1096520Y452743D01*
Y456715D01*
X1091894Y452089D01*
X1090480Y453503D01*
X1089066Y452089D01*
X1084440Y456715D01*
Y454001D01*
X1074150D01*
Y477382D01*
X1062024Y465256D01*
X1060110Y467170D01*
X1058196Y465256D01*
X1046070Y477382D01*
Y453971D01*
X1002768D01*
X1002685Y455241D01*
X1003902Y455401D01*
X1005810Y456191D01*
X1006793D01*
X1009847Y456594D01*
X1011413Y457243D01*
X1021680D01*
Y479692D01*
X1007559D01*
X1006793Y479794D01*
X1002040D01*
X1001273Y479692D01*
X990340D01*
Y478601D01*
X975660D01*
Y478795D01*
X954060D01*
X954060Y478795D01*
X954060Y478795D01*
X953824Y478896D01*
X953832Y480274D01*
X954795Y480673D01*
X957939Y482774D01*
X960614Y485448D01*
X962715Y488593D01*
X964162Y492087D01*
X964900Y495797D01*
Y499579D01*
X964162Y503288D01*
X962715Y506782D01*
X960614Y509927D01*
X957939Y512601D01*
X954795Y514702D01*
X951301Y516150D01*
X947591Y516888D01*
X943809D01*
X940100Y516150D01*
X936605Y514702D01*
X933461Y512601D01*
X930786Y509927D01*
X928685Y506782D01*
X927238Y503288D01*
X926500Y499579D01*
Y495797D01*
X927238Y492087D01*
X928685Y488593D01*
X930786Y485448D01*
X933461Y482774D01*
X936605Y480673D01*
X938073Y480065D01*
X937820Y478795D01*
X927390D01*
Y478763D01*
X906400D01*
X905151Y478514D01*
X904093Y477807D01*
X898486Y472200D01*
X890700D01*
Y463351D01*
X890376Y463173D01*
X889430Y462962D01*
X888027Y464365D01*
X887774Y464470D01*
X887526Y465715D01*
X887782Y465971D01*
X888650Y468066D01*
Y470334D01*
X887782Y472429D01*
X886179Y474032D01*
X884084Y474900D01*
X881816D01*
X879721Y474032D01*
X878649Y472960D01*
X850400D01*
Y477052D01*
X818225D01*
X817973Y478322D01*
X818829Y478677D01*
X820432Y480280D01*
X821300Y482375D01*
Y484643D01*
X820432Y486738D01*
X818829Y488341D01*
X816733Y489209D01*
X814466D01*
X813895Y488973D01*
X812837Y489731D01*
X812960Y490686D01*
X821096D01*
X821427Y490354D01*
X823033Y489427D01*
X824823Y488947D01*
X826677D01*
X828467Y489427D01*
X829110Y489799D01*
X824336Y494573D01*
X825750Y495988D01*
X824336Y497402D01*
X829110Y502177D01*
X828467Y502548D01*
X826677Y503027D01*
X824823D01*
X823033Y502548D01*
X821427Y501621D01*
X821096Y501289D01*
X812605D01*
Y508712D01*
X807479Y503586D01*
X804651Y506414D01*
X809777Y511540D01*
X803779D01*
X801242Y514077D01*
X800266Y514729D01*
X799115Y514958D01*
X764715D01*
X764715Y514958D01*
X763564Y514729D01*
X762588Y514077D01*
X762588Y514077D01*
X760051Y511540D01*
X755053D01*
X759679Y506914D01*
X757265Y504500D01*
X758265Y503500D01*
X759679Y504914D01*
X764305Y500288D01*
Y502011D01*
X764544Y502426D01*
X764990Y504089D01*
Y505811D01*
X764544Y507474D01*
X764526Y507507D01*
X765961Y508942D01*
X768065D01*
Y507239D01*
X767400Y505634D01*
Y503366D01*
X768065Y501761D01*
Y498300D01*
X778465D01*
Y502557D01*
X778800Y503366D01*
Y505634D01*
X778465Y506442D01*
Y508942D01*
X783365D01*
Y498226D01*
X783348Y498184D01*
Y496800D01*
X783330D01*
Y483400D01*
X786331D01*
X786903Y482543D01*
X796242Y473204D01*
Y464810D01*
X770208D01*
X768989Y466030D01*
X769515Y467300D01*
X778465D01*
Y470004D01*
X778632Y470171D01*
X779500Y472266D01*
Y474534D01*
X778632Y476629D01*
X778465Y476796D01*
Y479700D01*
X768065D01*
Y468750D01*
X766795Y468224D01*
X763465Y471554D01*
Y479700D01*
X753065D01*
Y467300D01*
X759211D01*
X766836Y459676D01*
X766836Y459676D01*
X767812Y459024D01*
X768963Y458795D01*
X771378D01*
X772057Y457525D01*
X772042Y457503D01*
X754200D01*
Y450488D01*
X753649Y450379D01*
X752673Y449727D01*
X752673Y449727D01*
X750373Y447427D01*
X749721Y446451D01*
X749492Y445300D01*
Y435600D01*
X749721Y434449D01*
X750373Y433473D01*
X754200Y429646D01*
Y426102D01*
X761930D01*
X762611Y424832D01*
X761950Y423236D01*
Y420969D01*
X762818Y418874D01*
X764421Y417270D01*
X766516Y416403D01*
X768784D01*
X770879Y417270D01*
X772482Y418874D01*
X772904Y419892D01*
X776868D01*
X778019Y420121D01*
X778995Y420773D01*
X790880Y432658D01*
X792150Y432132D01*
Y418802D01*
X796242D01*
Y382796D01*
X785845Y372398D01*
X784634Y372900D01*
X782366D01*
X781405Y372502D01*
X778465D01*
Y373400D01*
X768065D01*
Y367712D01*
X767963Y367200D01*
X768065Y366688D01*
Y361000D01*
X778465D01*
Y361898D01*
X781405D01*
X782366Y361500D01*
X784634D01*
X786729Y362368D01*
X788332Y363971D01*
X789200Y366066D01*
Y367246D01*
X801377Y379423D01*
X802029Y380399D01*
X802258Y381550D01*
Y418802D01*
X804400D01*
Y406553D01*
X809392D01*
Y385200D01*
X809316D01*
X807221Y384332D01*
X805618Y382729D01*
X804750Y380634D01*
Y378366D01*
X805618Y376271D01*
X807221Y374668D01*
X809316Y373800D01*
X811584D01*
X813122Y374437D01*
X814392Y373722D01*
Y362900D01*
X814621Y361749D01*
X815273Y360773D01*
X840973Y335073D01*
X841949Y334421D01*
X843100Y334192D01*
X881676D01*
X881768Y333971D01*
X882767Y332972D01*
X882241Y331702D01*
X786596D01*
X765080Y353218D01*
X764682Y354179D01*
X763079Y355782D01*
X760984Y356650D01*
X758716D01*
X756621Y355782D01*
X755018Y354179D01*
X754150Y352084D01*
Y349816D01*
X755018Y347721D01*
X756621Y346118D01*
X757582Y345720D01*
X780651Y322651D01*
X782371Y321502D01*
X784400Y321098D01*
X897500D01*
X899529Y321502D01*
X901249Y322651D01*
X927596Y348998D01*
X938200D01*
Y348600D01*
X951600D01*
Y348600D01*
X952600Y348400D01*
X952600Y348400D01*
X952787Y348400D01*
X957502D01*
X961089Y344813D01*
X960603Y343640D01*
X952440D01*
Y343840D01*
X940189D01*
X945314Y338714D01*
X943900Y337300D01*
X945314Y335886D01*
X940189Y330760D01*
X951760D01*
Y330560D01*
X959784D01*
X965472Y324872D01*
X966861Y323944D01*
X968500Y323618D01*
X987400D01*
X989039Y323944D01*
X990428Y324872D01*
X994728Y329172D01*
X995656Y330561D01*
X995982Y332200D01*
Y333008D01*
X1000450D01*
X1001055Y332604D01*
X1003084Y332200D01*
X1022800D01*
Y332100D01*
X1029488D01*
X1030000Y331998D01*
X1031504D01*
X1040150Y323352D01*
Y311450D01*
X1049550D01*
Y326138D01*
X1049652Y326650D01*
X1049550Y327162D01*
Y331850D01*
X1046648D01*
X1037449Y341049D01*
X1036200Y341884D01*
Y343500D01*
X1024002D01*
Y348260D01*
X1034212D01*
X1029086Y353386D01*
X1030500Y354800D01*
X1029500Y355800D01*
X1027086Y353386D01*
X1021960Y358512D01*
Y355997D01*
X1020787Y355511D01*
X1016251Y360047D01*
X1014531Y361196D01*
X1014058Y361290D01*
Y364300D01*
X1013828Y366049D01*
X1013152Y367679D01*
X1012078Y369078D01*
X1010679Y370152D01*
X1009049Y370827D01*
X1007300Y371058D01*
X1005551Y370827D01*
X1005156Y370664D01*
X1004437Y371741D01*
X1012924Y380228D01*
X1045500D01*
X1045500Y380228D01*
X1046944Y380515D01*
X1048168Y381332D01*
X1061063Y394227D01*
X1211900D01*
X1211900Y394227D01*
X1213344Y394515D01*
X1214567Y395332D01*
X1220080Y400845D01*
X1221597Y400566D01*
X1222321Y399622D01*
X1222400Y399561D01*
Y398450D01*
X1223957D01*
X1225351Y397873D01*
X1227100Y397642D01*
X1228849Y397873D01*
X1230243Y398450D01*
X1231800D01*
Y399561D01*
X1231879Y399622D01*
X1232553Y400500D01*
X1232687Y400562D01*
X1233957Y400562D01*
X1234091Y400500D01*
X1234765Y399622D01*
X1234844Y399561D01*
Y398450D01*
X1236401D01*
X1237795Y397873D01*
X1239544Y397642D01*
X1242326D01*
X1242812Y396469D01*
X1235301Y388958D01*
X1156015D01*
X1154266Y388727D01*
X1152636Y388052D01*
X1151236Y386978D01*
X1146021Y381763D01*
X1144948Y380364D01*
X1144273Y378734D01*
X1144042Y376985D01*
Y371985D01*
X1136600D01*
Y341585D01*
X1150000D01*
Y348666D01*
X1150800Y349150D01*
X1151600Y348666D01*
Y341585D01*
X1165000D01*
Y371985D01*
X1157558D01*
Y374186D01*
X1158814Y375442D01*
X1238100D01*
X1239849Y375672D01*
X1241479Y376348D01*
X1242878Y377421D01*
X1259178Y393722D01*
X1260252Y395121D01*
X1260928Y396751D01*
X1261158Y398500D01*
Y405600D01*
Y432251D01*
X1261517Y432400D01*
X1263961Y434275D01*
X1264647Y435170D01*
X1266490D01*
Y438298D01*
X1267015Y439566D01*
X1267417Y442620D01*
X1267015Y445674D01*
X1266490Y446942D01*
Y450070D01*
X1264647D01*
X1263961Y450965D01*
X1261517Y452840D01*
X1258671Y454019D01*
X1255616Y454421D01*
X1230290D01*
X1227236Y454019D01*
X1224389Y452840D01*
X1221945Y450965D01*
X1221259Y450070D01*
X1219490D01*
Y447120D01*
X1218891Y445674D01*
X1218489Y442620D01*
X1218750Y440637D01*
X1216843Y438730D01*
X1215670Y439216D01*
Y446660D01*
X1205879D01*
X1205441Y447930D01*
X1205584Y448042D01*
X1208800D01*
X1210549Y448273D01*
X1212179Y448948D01*
X1213498Y449960D01*
X1215670D01*
Y459360D01*
X1213746D01*
X1213578Y459579D01*
X1212179Y460652D01*
X1210549Y461328D01*
X1208800Y461558D01*
X1199400D01*
X1197651Y461328D01*
X1196021Y460652D01*
X1195157Y459989D01*
X1194749Y460066D01*
X1194325Y461438D01*
X1199299Y466412D01*
X1218204D01*
X1225526Y473734D01*
X1228354Y470906D01*
X1221479Y464030D01*
X1239102D01*
X1232226Y470906D01*
X1235054Y473734D01*
X1242447Y466341D01*
X1243533D01*
X1250926Y473734D01*
X1253754Y470906D01*
X1246879Y464030D01*
X1264502D01*
X1257626Y470906D01*
X1259040Y472320D01*
X1257626Y473734D01*
X1264559Y480668D01*
X1264191Y481880D01*
X1265529Y482774D01*
X1268204Y485448D01*
X1270305Y488593D01*
X1271752Y492087D01*
X1272490Y495797D01*
Y499579D01*
X1271752Y503288D01*
X1270305Y506782D01*
X1268204Y509927D01*
X1265529Y512601D01*
X1262385Y514702D01*
X1258890Y516150D01*
X1255181Y516888D01*
D02*
G37*
G36*
X1071321Y480210D02*
X1048898D01*
X1060110Y468998D01*
X1071321Y480210D01*
D02*
G37*
G36*
X1157230Y477382D02*
Y476096D01*
X1156742Y474919D01*
X1156512Y473170D01*
X1156742Y471421D01*
X1157230Y470244D01*
Y468958D01*
X1161442Y473170D01*
X1157230Y477382D01*
D02*
G37*
G36*
X1095680Y479370D02*
X1085280D01*
Y475834D01*
X1084700Y474434D01*
Y472166D01*
X1085280Y470766D01*
Y466970D01*
X1095680D01*
Y471152D01*
X1096100Y472166D01*
Y474434D01*
X1095680Y475448D01*
Y479370D01*
D02*
G37*
G36*
X1153470Y479370D02*
X1143070D01*
Y475851D01*
X1142400Y474234D01*
Y471966D01*
X1143070Y470349D01*
Y466970D01*
X1153470D01*
Y471170D01*
X1153800Y471966D01*
Y474234D01*
X1153470Y475031D01*
Y479370D01*
D02*
G37*
G36*
X1268192Y478643D02*
X1261869Y472320D01*
X1267330Y466859D01*
Y467107D01*
X1267598Y467218D01*
X1268997Y468292D01*
X1269076Y468370D01*
X1269100Y468389D01*
X1270174Y469788D01*
X1270849Y471418D01*
X1271079Y473167D01*
X1270849Y474916D01*
X1270174Y476546D01*
X1269100Y477946D01*
X1269097Y477948D01*
X1268192Y478643D01*
D02*
G37*
G36*
X1093692Y459543D02*
X1087269D01*
X1090480Y456332D01*
X1093692Y459543D01*
D02*
G37*
G36*
X761477Y403140D02*
X755053D01*
X758265Y399928D01*
X761477Y403140D01*
D02*
G37*
G36*
X764305Y400312D02*
X759679Y395686D01*
X758265Y397100D01*
X756851Y395686D01*
X752225Y400312D01*
Y389060D01*
X752225D01*
Y388690D01*
X752225D01*
Y380987D01*
X751910Y379811D01*
Y378089D01*
X752225Y376913D01*
Y374610D01*
X752225D01*
Y374240D01*
X752225D01*
Y362989D01*
X756851Y367614D01*
X758265Y366200D01*
X759679Y367614D01*
X764305Y362989D01*
Y374240D01*
X764305D01*
Y374610D01*
X764305D01*
Y376011D01*
X764544Y376426D01*
X764990Y378089D01*
Y379811D01*
X764544Y381474D01*
X764305Y381889D01*
Y388690D01*
X764305D01*
Y389060D01*
X764305D01*
Y400312D01*
D02*
G37*
G36*
X774399Y402465D02*
X772131D01*
X771733Y402300D01*
X768065D01*
Y399106D01*
X767565Y397899D01*
Y395631D01*
X768065Y394424D01*
Y389900D01*
X778465D01*
Y394424D01*
X778965Y395631D01*
Y397899D01*
X778465Y399106D01*
Y402300D01*
X774797D01*
X774399Y402465D01*
D02*
G37*
G36*
X788634Y409200D02*
X786366D01*
X784271Y408332D01*
X782668Y406729D01*
X781800Y404634D01*
Y402366D01*
X782198Y401405D01*
Y388667D01*
X780933Y387402D01*
X778465D01*
Y387850D01*
X768065D01*
Y382612D01*
X767963Y382100D01*
Y381650D01*
X768065Y381138D01*
Y375450D01*
X778465D01*
Y376798D01*
X783129D01*
X785158Y377202D01*
X786878Y378351D01*
X791249Y382722D01*
X792398Y384442D01*
X792802Y386471D01*
Y401405D01*
X793200Y402366D01*
Y404634D01*
X792332Y406729D01*
X790729Y408332D01*
X788634Y409200D01*
D02*
G37*
G36*
X758265Y363372D02*
X755053Y360160D01*
X761477D01*
X758265Y363372D01*
D02*
G37*
G36*
X1034212Y361340D02*
X1024789D01*
X1029500Y356628D01*
X1034212Y361340D01*
D02*
G37*
G36*
X1037040Y358512D02*
X1033328Y354800D01*
X1037040Y351088D01*
Y358512D01*
D02*
G37*
G36*
X1195760Y372825D02*
X1194838Y371985D01*
X1194490Y371985D01*
X1181600D01*
Y341585D01*
X1194838Y341585D01*
X1195760Y340745D01*
X1195922Y340745D01*
X1223012D01*
X1216886Y346871D01*
X1219714Y349699D01*
X1225840Y343573D01*
Y369997D01*
X1219714Y363871D01*
X1216886Y366699D01*
X1223011Y372825D01*
X1195760Y372825D01*
D02*
G37*
G36*
X1180000Y371985D02*
X1166600D01*
Y341585D01*
X1180000D01*
Y371985D01*
D02*
G37*
G36*
X937360Y341012D02*
Y333588D01*
X941072Y337300D01*
X937360Y341012D01*
D02*
G37*
G36*
X1085061Y332690D02*
X1079638D01*
X1082350Y329978D01*
X1085061Y332690D01*
D02*
G37*
G36*
X1249511Y331325D02*
X1232088D01*
X1240800Y322613D01*
X1249511Y331325D01*
D02*
G37*
G36*
X1129511D02*
X1112088D01*
X1120800Y322613D01*
X1129511Y331325D01*
D02*
G37*
G36*
X1076810Y329861D02*
Y313438D01*
X1080936Y317564D01*
X1082350Y316150D01*
X1083764Y317564D01*
X1087890Y313438D01*
Y329861D01*
X1083764Y325736D01*
X1082350Y327150D01*
X1080936Y325736D01*
X1076810Y329861D01*
D02*
G37*
G36*
X1071234Y350600D02*
X1068966D01*
X1066871Y349732D01*
X1065268Y348129D01*
X1064400Y346034D01*
Y343766D01*
X1065268Y341671D01*
X1065568Y341371D01*
Y331850D01*
X1065150D01*
Y311450D01*
X1074550D01*
Y331850D01*
X1074132D01*
Y340871D01*
X1074932Y341671D01*
X1075800Y343766D01*
Y346034D01*
X1074932Y348129D01*
X1073329Y349732D01*
X1071234Y350600D01*
D02*
G37*
G36*
X1058934Y359100D02*
X1056666D01*
X1054571Y358232D01*
X1052968Y356629D01*
X1052100Y354534D01*
Y352266D01*
X1052968Y350171D01*
X1053068Y350071D01*
Y331850D01*
X1052650D01*
Y311450D01*
X1062050D01*
Y331850D01*
X1061632D01*
Y349171D01*
X1062632Y350171D01*
X1063500Y352266D01*
Y354534D01*
X1062632Y356629D01*
X1061029Y358232D01*
X1058934Y359100D01*
D02*
G37*
G36*
X1082350Y313321D02*
X1079638Y310610D01*
X1085061D01*
X1082350Y313321D01*
D02*
G37*
G36*
X1031061Y305690D02*
X1021638D01*
X1026350Y300978D01*
X1031061Y305690D01*
D02*
G37*
G36*
X1109260Y328497D02*
Y306600D01*
X1108390Y305690D01*
X1107990Y305690D01*
X1096138D01*
X1102264Y299564D01*
X1099436Y296736D01*
X1093310Y302862D01*
Y276439D01*
X1099436Y282564D01*
X1100850Y281150D01*
X1102264Y282564D01*
X1108390Y276439D01*
Y287335D01*
X1109260Y288245D01*
X1109660Y288245D01*
X1129512D01*
X1119386Y298371D01*
X1122214Y301199D01*
X1132340Y291073D01*
Y328497D01*
X1122214Y318371D01*
X1120800Y319785D01*
X1119386Y318371D01*
X1109260Y328497D01*
D02*
G37*
G36*
X1229260D02*
Y291073D01*
X1239386Y301199D01*
X1240800Y299785D01*
X1242214Y301199D01*
X1252340Y291073D01*
Y328497D01*
X1242214Y318371D01*
X1240800Y319785D01*
X1239386Y318371D01*
X1229260Y328497D01*
D02*
G37*
G36*
X1240800Y296957D02*
X1232088Y288245D01*
X1249512D01*
X1240800Y296957D01*
D02*
G37*
G36*
X1018810Y302862D02*
Y276438D01*
X1024936Y282564D01*
X1026350Y281150D01*
X1027764Y282564D01*
X1033890Y276439D01*
Y302861D01*
X1027764Y296736D01*
X1026350Y298150D01*
X1024936Y296736D01*
X1018810Y302862D01*
D02*
G37*
G36*
X947591Y314150D02*
X943809D01*
X940100Y313412D01*
X936605Y311965D01*
X933461Y309864D01*
X930786Y307189D01*
X928685Y304045D01*
X927238Y300550D01*
X926500Y296841D01*
Y293059D01*
X927238Y289350D01*
X928685Y285855D01*
X930786Y282711D01*
X933461Y280036D01*
X936605Y277935D01*
X940100Y276488D01*
X943809Y275750D01*
X947591D01*
X951301Y276488D01*
X954795Y277935D01*
X957939Y280036D01*
X960614Y282711D01*
X962715Y285855D01*
X964162Y289350D01*
X964900Y293059D01*
Y296841D01*
X964162Y300550D01*
X962715Y304045D01*
X960614Y307189D01*
X957939Y309864D01*
X954795Y311965D01*
X951301Y313412D01*
X947591Y314150D01*
D02*
G37*
G36*
X1100850Y278322D02*
X1096138Y273610D01*
X1105562D01*
X1100850Y278322D01*
D02*
G37*
G36*
X1026350Y278321D02*
X1021638Y273610D01*
X1031061D01*
X1026350Y278321D01*
D02*
G37*
%LPD*%
G36*
X799525Y507286D02*
Y497640D01*
X799490D01*
Y485388D01*
X804616Y490514D01*
X807444Y487686D01*
X802319Y482560D01*
X804392D01*
Y479889D01*
X808814Y475467D01*
X805986Y472638D01*
X803560Y475064D01*
Y464803D01*
X802258D01*
Y474450D01*
X802029Y475601D01*
X801377Y476577D01*
X795470Y482484D01*
X794730Y483400D01*
X794730D01*
X794730Y483400D01*
Y495874D01*
X794748Y495916D01*
Y497300D01*
X794765D01*
Y508942D01*
X797869D01*
X799525Y507286D01*
D02*
G37*
G36*
X927390Y461595D02*
X931992D01*
X932280Y460900D01*
X934156Y458456D01*
X936600Y456580D01*
X939446Y455401D01*
X940807Y455222D01*
Y453941D01*
X937981Y453569D01*
X935135Y452390D01*
X934959Y452255D01*
X927066D01*
X926148Y453359D01*
X926400Y453966D01*
Y456234D01*
X925532Y458329D01*
X923929Y459932D01*
X921834Y460800D01*
X919940D01*
Y472237D01*
X927390D01*
Y461595D01*
D02*
G37*
G36*
X1142230Y434800D02*
Y423720D01*
X1141127Y423318D01*
X1140011D01*
X1138872Y423975D01*
X1136914Y424500D01*
X1134886D01*
X1132928Y423975D01*
X1132205Y423558D01*
X1126668D01*
X1125772Y424075D01*
X1123814Y424600D01*
X1121786D01*
X1119828Y424075D01*
X1118516Y423318D01*
X1112870D01*
X1111121Y423088D01*
X1109491Y422412D01*
X1108092Y421339D01*
X1105123Y418370D01*
X1102280D01*
Y415247D01*
X1102128Y415049D01*
X1101452Y413419D01*
X1101222Y411670D01*
X1101452Y409921D01*
X1102128Y408291D01*
X1102280Y408092D01*
Y404970D01*
X1107541D01*
X1107980Y404912D01*
X1108419Y404970D01*
X1113680D01*
Y407813D01*
X1115669Y409802D01*
X1119694D01*
X1119828Y409725D01*
X1121786Y409200D01*
X1123814D01*
X1125772Y409725D01*
X1126322Y410042D01*
X1132205D01*
X1132928Y409625D01*
X1134886Y409100D01*
X1136914D01*
X1138872Y409625D01*
X1139179Y409802D01*
X1159400D01*
X1161149Y410033D01*
X1162779Y410708D01*
X1164178Y411782D01*
X1164239Y411860D01*
X1166170D01*
Y416804D01*
X1166180Y418070D01*
X1168008D01*
X1168021Y418038D01*
X1169298Y416761D01*
X1170967Y416070D01*
X1172773D01*
X1173345Y416307D01*
X1170456Y419196D01*
X1173284Y422024D01*
X1177238Y418070D01*
X1181501D01*
X1185456Y422024D01*
X1188284Y419196D01*
X1185395Y416307D01*
X1185967Y416070D01*
X1187773D01*
X1189442Y416761D01*
X1190719Y418038D01*
X1190732Y418070D01*
X1192560D01*
X1192570Y416804D01*
Y414403D01*
X1192038Y413709D01*
X1191363Y412079D01*
X1191132Y410330D01*
X1191363Y408581D01*
X1192038Y406951D01*
X1193112Y405552D01*
X1194511Y404478D01*
X1196141Y403802D01*
X1197890Y403572D01*
X1199639Y403802D01*
X1201269Y404478D01*
X1202669Y405552D01*
X1206559Y409442D01*
X1208900D01*
X1210649Y409673D01*
X1212279Y410348D01*
X1213679Y411422D01*
X1214015Y411860D01*
X1215670D01*
Y421260D01*
X1215670D01*
X1215737Y422502D01*
X1216930D01*
X1218679Y422733D01*
X1219447Y423051D01*
X1219878Y422820D01*
X1220530Y422124D01*
X1220342Y420700D01*
Y411777D01*
X1210337Y401772D01*
X1059500D01*
X1059500Y401772D01*
X1058056Y401485D01*
X1056832Y400668D01*
X1056832Y400667D01*
X1043937Y387772D01*
X1040940D01*
Y397312D01*
X1036314Y392686D01*
X1033486Y395514D01*
X1038111Y400140D01*
X1032114D01*
X1027755Y404499D01*
X1028281Y405769D01*
X1046910D01*
Y404970D01*
X1057930D01*
X1057937Y404969D01*
Y404970D01*
X1073310D01*
Y430370D01*
X1074568Y430399D01*
X1084440D01*
Y427625D01*
X1090016Y433201D01*
X1091430Y431787D01*
X1092844Y433201D01*
X1098420Y427625D01*
Y432032D01*
X1098828Y432268D01*
X1099177Y432189D01*
X1100129Y431553D01*
X1100303Y430238D01*
X1100680Y429326D01*
Y425637D01*
X1104652D01*
X1105081Y425459D01*
X1106830Y425229D01*
X1108579Y425459D01*
X1109008Y425637D01*
X1112980D01*
Y428580D01*
X1119667Y435267D01*
X1141153D01*
X1142230Y434800D01*
D02*
G37*
G36*
X920189Y432442D02*
X934494D01*
X935135Y431950D01*
X937981Y430771D01*
X941035Y430369D01*
X941424D01*
Y428192D01*
X925712D01*
Y419204D01*
X941424D01*
Y409396D01*
X938625D01*
X938178Y409978D01*
X936779Y411052D01*
X935149Y411727D01*
X933400Y411958D01*
X918079D01*
X916868Y412100D01*
Y413707D01*
X918232Y415071D01*
X919100Y417166D01*
Y419434D01*
X918232Y421529D01*
X917952Y421809D01*
X917790Y423013D01*
X917790D01*
Y429184D01*
X906586Y440388D01*
X909414Y443217D01*
X920189Y432442D01*
D02*
G37*
G36*
X852542Y416350D02*
X852771Y415199D01*
X853423Y414223D01*
X855542Y412104D01*
Y400800D01*
X852850D01*
Y388570D01*
X852850Y387400D01*
X852850D01*
Y387300D01*
X852850D01*
Y373900D01*
X851633Y373773D01*
X848090D01*
Y386560D01*
Y398811D01*
X842964Y393686D01*
X840136Y396514D01*
X845408Y401786D01*
Y405713D01*
X848411D01*
X845986Y408138D01*
X848814Y410967D01*
X851240Y408541D01*
Y418802D01*
X852542D01*
Y416350D01*
D02*
G37*
G36*
X871992Y408222D02*
X872221Y407071D01*
X872873Y406095D01*
X885143Y393825D01*
X884617Y392555D01*
X864250D01*
Y400800D01*
X861558D01*
Y413350D01*
X861558Y413350D01*
X861329Y414501D01*
X860677Y415477D01*
X858621Y417533D01*
X858711Y418802D01*
X862650D01*
Y423795D01*
X871992D01*
Y408222D01*
D02*
G37*
G36*
X939460Y399890D02*
Y389638D01*
X944586Y394764D01*
X947414Y391936D01*
X942289Y386810D01*
X952540D01*
Y389068D01*
X954260D01*
Y388388D01*
X959386Y393514D01*
X960800Y392100D01*
X962214Y393514D01*
X967340Y388388D01*
Y399988D01*
X970908D01*
X972100Y399800D01*
X972100Y398718D01*
Y388473D01*
X972002Y388237D01*
Y385969D01*
X972870Y383874D01*
X974473Y382271D01*
X976568Y381403D01*
X978836D01*
X980931Y382271D01*
X982534Y383874D01*
X983402Y385969D01*
Y386400D01*
X983500D01*
Y386731D01*
X984700Y386900D01*
X984770Y386900D01*
X995100D01*
Y399300D01*
X996042Y400092D01*
X998758D01*
X999700Y399300D01*
Y386900D01*
X999700D01*
X1000041Y386076D01*
X987737Y373773D01*
X937720D01*
X937039Y375042D01*
X937700Y376639D01*
Y378906D01*
X936832Y381001D01*
X935229Y382605D01*
X933134Y383473D01*
X931467D01*
X929112Y385827D01*
X929041Y387402D01*
X929241Y387650D01*
X936700D01*
Y399050D01*
X937575Y399958D01*
X938161Y400408D01*
X938405D01*
X939460Y399890D01*
D02*
G37*
G36*
X890573Y375042D02*
X890047Y373773D01*
X865467D01*
X864250Y373900D01*
Y381951D01*
X883665D01*
X890573Y375042D01*
D02*
G37*
G36*
X994780Y360407D02*
Y352234D01*
X993940D01*
Y350656D01*
X993467Y350562D01*
X992078Y349634D01*
X988672Y346228D01*
X987744Y344839D01*
X987418Y343200D01*
Y341996D01*
X982350D01*
X981745Y342400D01*
X979716Y342804D01*
X978094D01*
X966000Y354898D01*
Y359800D01*
X966969Y360527D01*
X971412D01*
Y351804D01*
X988020D01*
Y360527D01*
X991661D01*
X991661Y360527D01*
X993105Y360815D01*
X993678Y361198D01*
X994780Y360407D01*
D02*
G37*
G36*
X850056Y360615D02*
X851500Y360327D01*
X852506Y360527D01*
X923544D01*
X923669Y359258D01*
X923371Y359198D01*
X921651Y358049D01*
X895304Y331702D01*
X890959D01*
X890433Y332972D01*
X891432Y333971D01*
X892300Y336066D01*
Y338334D01*
X891432Y340429D01*
X889829Y342032D01*
X887734Y342900D01*
X885466D01*
X883371Y342032D01*
X881768Y340429D01*
X881676Y340208D01*
X844346D01*
X838535Y346019D01*
X839021Y347192D01*
X881747D01*
X882821Y346118D01*
X884916Y345250D01*
X887184D01*
X889279Y346118D01*
X890882Y347721D01*
X891750Y349816D01*
Y352084D01*
X890882Y354179D01*
X889279Y355782D01*
X887184Y356650D01*
X884916D01*
X882821Y355782D01*
X881218Y354179D01*
X880816Y353208D01*
X845278D01*
X844563Y354478D01*
X845200Y356016D01*
Y358284D01*
X844563Y359822D01*
X845278Y361092D01*
X849342D01*
X850056Y360615D01*
D02*
G37*
%LPC*%
G36*
X1091430Y428958D02*
X1087268Y424797D01*
X1095592D01*
X1091430Y428958D01*
D02*
G37*
G36*
X1096680Y418370D02*
X1085280D01*
Y413993D01*
X1084800Y412834D01*
Y410566D01*
X1085280Y409408D01*
Y404970D01*
X1096680D01*
Y418370D01*
D02*
G37*
G36*
X960800Y389272D02*
X957088Y385560D01*
X964512D01*
X960800Y389272D01*
D02*
G37*
%LPD*%
D10*
X959100Y337300D02*
X960100D01*
X961800Y335600D01*
Y334600D02*
Y335600D01*
Y334600D02*
X968500Y327900D01*
X987400D01*
X991700Y332200D01*
Y343200D01*
X995106Y346606D01*
X1002790D01*
X1003084Y346900D01*
X1057350Y352950D02*
X1057800Y353400D01*
X1057350Y321650D02*
Y352950D01*
X1069850Y344650D02*
X1070100Y344900D01*
X1069850Y321650D02*
Y344650D01*
X1173400Y363100D02*
X1173500Y363200D01*
X911667Y418300D02*
X913400D01*
X945706Y414594D02*
Y435299D01*
X944790Y436215D02*
Y438415D01*
X941035Y442170D02*
X944790Y438415D01*
Y436215D02*
X945706Y435299D01*
X938190Y442815D02*
X940390D01*
X941035Y442170D01*
X945706Y393350D02*
Y414594D01*
X957090D01*
X957384Y414300D01*
X911667Y391800D02*
Y392300D01*
X912667Y393300D02*
X929500D01*
X911667Y392300D02*
X912667Y393300D01*
X929550Y393350D02*
X931000D01*
X929500Y393300D02*
X929550Y393350D01*
X946000D02*
X960550D01*
X960800Y393100D01*
X970400Y420300D02*
Y421300D01*
X964694Y414594D02*
X970400Y420300D01*
X957678Y414594D02*
X964694D01*
X957384Y414300D02*
X957678Y414594D01*
X970400Y421300D02*
X971900Y422800D01*
X972900D01*
D16*
X1003084Y337502D02*
D03*
Y346900D02*
D03*
Y356298D02*
D03*
X979716D02*
D03*
Y337502D02*
D03*
X934016Y404902D02*
D03*
Y423698D02*
D03*
X957384D02*
D03*
Y414300D02*
D03*
Y404902D02*
D03*
D17*
X765900Y429803D02*
D03*
Y441802D02*
D03*
Y453802D02*
D03*
D18*
X799250Y461802D02*
D03*
Y456802D02*
D03*
Y451802D02*
D03*
Y446802D02*
D03*
Y441802D02*
D03*
Y436802D02*
D03*
Y431802D02*
D03*
Y426802D02*
D03*
Y421802D02*
D03*
X855550D02*
D03*
Y426802D02*
D03*
Y431802D02*
D03*
Y436802D02*
D03*
Y441802D02*
D03*
Y446802D02*
D03*
Y451802D02*
D03*
Y456802D02*
D03*
Y461802D02*
D03*
D19*
X812400Y413652D02*
D03*
X817400D02*
D03*
X822400D02*
D03*
X827400D02*
D03*
X832400D02*
D03*
X837400D02*
D03*
X842400D02*
D03*
X847400D02*
D03*
Y469953D02*
D03*
X842400D02*
D03*
X837400D02*
D03*
X832400D02*
D03*
X827400D02*
D03*
X822400D02*
D03*
X817400D02*
D03*
X812400D02*
D03*
X807400Y413652D02*
D03*
Y469953D02*
D03*
D20*
X827400Y441802D02*
D03*
D21*
X758265Y367200D02*
D03*
X773265D02*
D03*
X758265Y381650D02*
D03*
X773265D02*
D03*
X758265Y396100D02*
D03*
X773265D02*
D03*
Y473500D02*
D03*
X758265D02*
D03*
X773265Y504500D02*
D03*
X758265D02*
D03*
X1019900Y393100D02*
D03*
X1034900D02*
D03*
X989900D02*
D03*
X1004900D02*
D03*
X911667Y391800D02*
D03*
X896667D02*
D03*
X911667Y418300D02*
D03*
X896667D02*
D03*
X1090480Y452503D02*
D03*
X1105480D02*
D03*
Y473170D02*
D03*
X1090480D02*
D03*
X1163270Y473170D02*
D03*
X1148270D02*
D03*
D22*
X1029500Y337800D02*
D03*
Y354800D02*
D03*
X959300Y354100D02*
D03*
Y337100D02*
D03*
X944900Y354300D02*
D03*
Y337300D02*
D03*
X972900Y422800D02*
D03*
Y405800D02*
D03*
D23*
X1100850Y289650D02*
D03*
X1026350D02*
D03*
D24*
X1082350Y321650D02*
D03*
X1069850D02*
D03*
X1044850D02*
D03*
X1057350D02*
D03*
D25*
X806030Y490100D02*
D03*
X789030D02*
D03*
X806065Y504000D02*
D03*
X789065D02*
D03*
X960800Y393100D02*
D03*
X977800D02*
D03*
X841550Y380600D02*
D03*
X858550D02*
D03*
X841550Y394100D02*
D03*
X858550D02*
D03*
X913400Y465500D02*
D03*
X896400D02*
D03*
X895667Y405200D02*
D03*
X912667D02*
D03*
X1107980Y411670D02*
D03*
X1090980D02*
D03*
D26*
X946000Y393350D02*
D03*
X931000D02*
D03*
D27*
X907250Y428177D02*
D03*
X900750D02*
D03*
X913750D02*
D03*
X894250D02*
D03*
X913750Y455428D02*
D03*
X907250D02*
D03*
X900750D02*
D03*
X894250D02*
D03*
D28*
X938190Y470195D02*
D03*
Y442815D02*
D03*
X964860Y470195D02*
D03*
Y442815D02*
D03*
D29*
X1143300Y356785D02*
D03*
X1158300D02*
D03*
X1173300D02*
D03*
X1188300D02*
D03*
X1203300D02*
D03*
X1218300D02*
D03*
D30*
X1120800Y309785D02*
D03*
X1240800D02*
D03*
D31*
X1239544Y404400D02*
D03*
X1227100D02*
D03*
Y420700D02*
D03*
X1239544D02*
D03*
D32*
X1230290Y472320D02*
D03*
Y442620D02*
D03*
X1255690Y472320D02*
D03*
Y442620D02*
D03*
D33*
X1179370Y435610D02*
D03*
D34*
X1154620Y416560D02*
D03*
Y429260D02*
D03*
Y441960D02*
D03*
Y454660D02*
D03*
X1204120D02*
D03*
Y441960D02*
D03*
Y429260D02*
D03*
Y416560D02*
D03*
D35*
X1006010Y417668D02*
D03*
Y468467D02*
D03*
D36*
X1060110Y466670D02*
D03*
Y417670D02*
D03*
D37*
X1091430Y431987D02*
D03*
X1106830D02*
D03*
D64*
X1057937Y416770D02*
G03*
X1060110Y417670I0J3073D01*
G01*
X1002040Y467993D02*
X1006793D01*
X942500Y466800D02*
X1000847D01*
X1230290Y442620D02*
X1243100D01*
X1255616D01*
X1000847Y466800D02*
X1002040Y467993D01*
X941035Y442170D02*
X984700D01*
X1060110Y442200D02*
Y465670D01*
X1077900Y442200D02*
X1091400D01*
X1179100Y440200D02*
Y468286D01*
X1064200Y442200D02*
X1077900D01*
X1091400D02*
X1091430Y442170D01*
X984700D02*
X1058840D01*
X1009310Y417570D02*
X1057937D01*
X1179090Y468296D02*
X1179100Y468286D01*
X1058840Y465670D02*
X1059840Y466670D01*
X1060110D01*
D65*
X904000Y441802D02*
D03*
D66*
X944900Y337300D02*
X959100D01*
X1003084Y356298D02*
X1012502D01*
X903509Y377964D02*
X903700Y377772D01*
X895150Y377964D02*
X903509D01*
X1018700Y337502D02*
X1029798D01*
X1003084D02*
X1018700D01*
X1012502Y356298D02*
X1018700Y350100D01*
Y337502D02*
Y350100D01*
X1030000Y337300D02*
X1033700D01*
X1044350Y326650D01*
X1029798Y337502D02*
X1030000Y337300D01*
X1029500Y337800D02*
X1030500D01*
X758265Y367200D02*
Y379135D01*
X783129Y382100D02*
X787500Y386471D01*
Y403500D01*
X773265Y382100D02*
X783129D01*
X773265Y381650D02*
Y382100D01*
X897500Y326400D02*
X925400Y354300D01*
X944900D01*
X784400Y326400D02*
X897500D01*
X759850Y350950D02*
X784400Y326400D01*
X960300Y354100D02*
X960800Y353600D01*
Y352600D02*
Y353600D01*
X975898Y337502D02*
X979716D01*
X959300Y354100D02*
X960300D01*
X960800Y352600D02*
X975898Y337502D01*
X959100Y354300D02*
X959300Y354100D01*
X944900Y354300D02*
X959100D01*
X885861Y387253D02*
X895150Y377964D01*
X841550Y380600D02*
Y394100D01*
X858550Y387350D02*
Y394100D01*
Y380600D02*
Y387350D01*
X758400Y505000D02*
X758450Y504950D01*
X758265Y379135D02*
Y381650D01*
Y379135D02*
X758450Y378950D01*
X757900Y379500D02*
X758265Y379135D01*
X773265Y367200D02*
X783500D01*
X773265Y396100D02*
Y396765D01*
X758265Y381650D02*
Y396100D01*
X858647Y387253D02*
X885861D01*
X858550Y387350D02*
X858647Y387253D01*
X806048Y490118D02*
Y503983D01*
X806030Y490100D02*
X806048Y490118D01*
Y503983D02*
X806065Y504000D01*
X809535Y495988D02*
X825750D01*
D67*
X1007300Y358008D02*
Y364300D01*
X1227100Y413200D02*
Y420700D01*
Y404400D02*
Y413200D01*
X1238100Y382200D02*
X1254400Y398500D01*
X1150800Y356785D02*
Y376985D01*
X1156015Y382200D01*
X1238100D01*
X1254400Y405600D02*
Y441870D01*
Y398500D02*
Y405600D01*
X1253200Y404400D02*
X1254400Y405600D01*
X1239544Y404400D02*
X1253200D01*
X1254871Y442341D02*
X1255895D01*
X1254400Y441870D02*
X1254871Y442341D01*
X1264319Y473170D02*
X1264322Y473167D01*
X1256440Y473070D02*
X1264219D01*
X1238848Y473099D02*
X1251561D01*
X1238819Y473070D02*
X1238848Y473099D01*
X1264219Y473070D02*
X1264319Y473170D01*
X1230290Y473070D02*
X1238819D01*
X1255690Y472320D02*
X1256440Y473070D01*
X1197890Y410330D02*
X1203760Y416200D01*
X1208900D01*
X1203980Y454800D02*
X1204120Y454660D01*
X1199400Y454800D02*
X1203980D01*
X1196500Y473170D02*
X1230290D01*
X1154620Y429260D02*
X1173720D01*
X1091430Y431987D02*
Y442170D01*
X912667Y405200D02*
X933400D01*
X1135900Y416560D02*
X1154620D01*
X1112870D02*
X1122800D01*
X1122900Y416800D02*
X1135900D01*
X1122800Y416900D02*
X1122900Y416800D01*
X1154620Y416560D02*
X1159400D01*
X1150000Y429260D02*
X1154620D01*
Y454660D02*
X1159500D01*
X1107637D02*
X1154620D01*
X1116868Y442024D02*
X1159400D01*
X1203980Y454800D02*
X1208800D01*
X1185503Y462173D02*
X1196500Y473170D01*
X1163270D02*
X1196500D01*
X1198683Y429245D02*
X1204103D01*
X1216930Y429260D02*
X1230290Y442620D01*
X1204120Y429260D02*
X1216930D01*
X1255895Y442341D02*
X1257529D01*
X1258000Y441870D01*
X1180961Y462173D02*
X1185503D01*
X1107980Y411670D02*
X1112870Y416560D01*
X1106830Y431987D02*
X1116868Y442024D01*
X1105480Y452503D02*
X1107637Y454660D01*
X1105480Y452503D02*
Y473170D01*
D68*
X989300Y370000D02*
X1012400Y393100D01*
X1227100Y413200D02*
X1227200Y413300D01*
X991661Y364300D02*
X1011361Y384000D01*
X840262Y370000D02*
X989300D01*
X851700Y364300D02*
X991661D01*
X1011361Y384000D02*
X1045500D01*
X1059500Y398000D01*
X851500Y364100D02*
X851700Y364300D01*
X1059500Y398000D02*
X1211900D01*
X1227100Y413200D01*
X1004900Y393100D02*
X1012400D01*
X1019900D01*
D69*
X900750Y417294D02*
Y428177D01*
X896667Y418300D02*
X897674Y417294D01*
X900750D01*
X902191Y415852D02*
X902614Y415429D01*
X900750Y417294D02*
X902191Y415852D01*
X911667Y418300D02*
Y419300D01*
X932885Y475500D02*
X938190Y470195D01*
X899900Y469000D02*
X906400Y475500D01*
X932885D01*
X909007Y421300D02*
X909668D01*
X907250Y423057D02*
X909007Y421300D01*
X909668D02*
X911667Y419300D01*
X908750Y441721D02*
X913750Y436721D01*
X896400Y465500D02*
Y466500D01*
X898900Y469000D01*
X899900D01*
X913750Y428177D02*
Y436721D01*
X907250Y423057D02*
Y428177D01*
X900750Y455428D02*
Y460243D01*
X898993Y462000D02*
X900750Y460243D01*
X898900Y462000D02*
X898993D01*
X896400Y464500D02*
X898900Y462000D01*
X896400Y464500D02*
Y465500D01*
X907250Y459350D02*
X909900Y462000D01*
X913400Y464500D02*
Y465500D01*
X910900Y462000D02*
X913400Y464500D01*
X909900Y462000D02*
X910900D01*
X907250Y455428D02*
Y459350D01*
Y443221D02*
X908750Y441721D01*
X907250Y443221D02*
Y455428D01*
D70*
X902191Y415852D02*
X902553D01*
X904717Y413687D01*
X885300Y350200D02*
X886050Y350950D01*
X836360Y350200D02*
X885300D01*
X834600Y374300D02*
X839538Y369362D01*
X837000Y364100D02*
X851500D01*
X830115Y370985D02*
X837000Y364100D01*
X830115Y370985D02*
Y403154D01*
X834600Y374300D02*
Y400322D01*
X834298Y358202D02*
X838448D01*
X821650Y364910D02*
Y408802D01*
X838448Y358202D02*
X839500Y357150D01*
X825915Y366585D02*
X834298Y358202D01*
X843100Y337200D02*
X886600D01*
X817400Y362900D02*
X843100Y337200D01*
X817400Y362900D02*
Y413652D01*
X821650Y364910D02*
X836360Y350200D01*
X932000Y377772D02*
Y378685D01*
X926985Y383700D02*
X932000Y378685D01*
X905007Y386021D02*
Y401617D01*
Y386021D02*
X907329Y383700D01*
X926985D01*
X812400Y382938D02*
Y413652D01*
X810450Y379500D02*
Y380988D01*
X812400Y382938D01*
X825915Y366585D02*
Y404894D01*
X821650Y408802D02*
X822400Y409552D01*
Y413652D01*
X837400Y403122D02*
Y413652D01*
X834600Y400322D02*
X837400Y403122D01*
X825915Y404894D02*
X827400Y406379D01*
Y413652D01*
X758265Y505000D02*
Y505500D01*
X767650Y422103D02*
X768447Y422900D01*
X776868D01*
X790721Y436753D01*
X783500Y367200D02*
X784900D01*
X799250Y381550D02*
Y421802D01*
X784900Y367200D02*
X799250Y381550D01*
X830115Y403154D02*
X832400Y405440D01*
Y413652D01*
X904717Y401907D02*
Y413687D01*
Y401907D02*
X905007Y401617D01*
X888172Y395050D02*
X894417D01*
X896667Y392800D01*
X875000Y408222D02*
Y425338D01*
X896667Y391800D02*
Y392800D01*
X875000Y408222D02*
X888172Y395050D01*
X883609Y454448D02*
X883745Y454585D01*
Y458481D02*
X884798Y459533D01*
X883609Y449480D02*
Y454448D01*
X871786Y451802D02*
X875431Y455448D01*
X876000D01*
X883745Y454585D02*
Y458481D01*
X855550Y451802D02*
X871786D01*
X855600Y461852D02*
X865464D01*
X865612Y462000D01*
X887809Y446309D02*
Y452709D01*
X855550Y441802D02*
X883303D01*
X887809Y446309D01*
X881200Y433000D02*
X889464Y441264D01*
X903462D01*
X881200Y412813D02*
Y433000D01*
X903462Y441264D02*
X904000Y441802D01*
X881200Y412813D02*
X888814Y405200D01*
X895667D01*
X873536Y426802D02*
X875000Y425338D01*
X855550Y426802D02*
X873536D01*
X913750Y455428D02*
X913914Y455264D01*
X920536D02*
X920700Y455100D01*
X913914Y455264D02*
X920536D01*
X827400Y441802D02*
X827400D01*
X799250D02*
X827400D01*
X984271Y405800D02*
X989900Y400171D01*
Y393100D02*
Y400171D01*
X992911Y403100D02*
X1024900D01*
X972900Y405800D02*
X984271D01*
X984700Y411311D02*
Y442170D01*
Y411311D02*
X992911Y403100D01*
X1024900D02*
X1031650Y396350D01*
X1034900Y393100D02*
Y394100D01*
X1032650Y396350D02*
X1034900Y394100D01*
X1031650Y396350D02*
X1032650D01*
X785931Y437902D02*
X789831Y441802D01*
X777800Y437902D02*
X785931D01*
X790721Y436753D02*
X799200D01*
X786491Y446802D02*
X799250D01*
X784541Y444852D02*
X786491Y446802D01*
X789831Y441802D02*
X799250D01*
X783053Y444852D02*
X784541D01*
X773900Y441802D02*
X777800Y437902D01*
X799200Y436753D02*
X799250Y436802D01*
X780174Y451802D02*
X799250D01*
X775971Y447600D02*
X780174Y451802D01*
X754800Y447600D02*
X775971D01*
X815600Y482356D02*
Y483509D01*
X812400Y479157D02*
X815600Y482356D01*
X765900Y441802D02*
X773900D01*
X880931Y446802D02*
X883609Y449480D01*
X855550Y446802D02*
X880931D01*
X855550Y461802D02*
X855600Y461852D01*
X882197Y469953D02*
X882950Y469200D01*
X847400Y469953D02*
X882197D01*
X803315Y507750D02*
X803315D01*
X764715Y511950D02*
X799115D01*
X803315Y507750D01*
X758265Y505500D02*
X764715Y511950D01*
X803315Y507750D02*
X806065Y505000D01*
Y504000D02*
Y505000D01*
X812400Y469953D02*
Y479157D01*
X807400Y469953D02*
Y488470D01*
Y469953D02*
X807450Y469902D01*
X789030Y484670D02*
Y490100D01*
Y484670D02*
X799250Y474450D01*
X807450Y464474D02*
Y469902D01*
X811585Y457617D02*
X827400Y441802D01*
X807600Y461603D02*
Y464324D01*
Y461603D02*
X810150Y459053D01*
X811585Y457617D02*
Y457617D01*
X807450Y464474D02*
X807600Y464324D01*
X810150Y459053D02*
X810150D01*
X811585Y457617D01*
X799250Y461802D02*
Y474450D01*
X773100Y504500D02*
X773265D01*
X887809Y452709D02*
X890464Y455364D01*
X894187D02*
X894250Y455428D01*
X890464Y455364D02*
X894187D01*
X758265Y472500D02*
X768963Y461802D01*
X799250D01*
X758265Y472500D02*
Y473500D01*
X752500Y445300D02*
X754800Y447600D01*
X752500Y435600D02*
Y445300D01*
X855550Y416350D02*
X858550Y413350D01*
Y394100D02*
Y413350D01*
X855550Y416350D02*
Y421802D01*
X842400Y394950D02*
Y413652D01*
X841550Y394100D02*
X842400Y394950D01*
X827400Y441802D02*
X842400Y426802D01*
Y413652D02*
Y426802D01*
Y413652D02*
X847400D01*
X827400Y441802D02*
X842400Y456802D01*
X855550D01*
X774650Y454650D02*
X776803Y456802D01*
X773900Y453802D02*
X774650Y454552D01*
Y454650D01*
X776803Y456802D02*
X799250D01*
X765900Y453802D02*
X773900D01*
X752500Y435600D02*
X757150Y430950D01*
X757900Y429803D02*
X765900D01*
X757150Y430552D02*
X757900Y429803D01*
X757150Y430552D02*
Y430950D01*
D71*
X954300Y423800D02*
X961397D01*
X955300Y405800D02*
X972900D01*
X961331Y423733D02*
X961397Y423800D01*
X957384Y423698D02*
X961295D01*
D72*
X936096Y441721D02*
X936590Y442215D01*
X937590D01*
X938190Y442815D01*
X908750Y441721D02*
X936096D01*
D73*
X945700Y497687D02*
D03*
X1253290D02*
D03*
X945700Y294950D02*
D03*
D74*
X825750Y495988D02*
D03*
X838250D02*
D03*
X850750D02*
D03*
X863250D02*
D03*
D75*
X1186870Y450610D02*
D03*
X1171870D02*
D03*
Y420610D02*
D03*
X1186870D02*
D03*
Y435610D02*
D03*
X1171870D02*
D03*
D76*
X1267000Y406000D02*
D03*
Y378000D02*
D03*
X1260000Y364000D02*
D03*
X1267000Y350000D02*
D03*
X1260000Y336000D02*
D03*
X1267000Y322000D02*
D03*
X1260000Y308000D02*
D03*
X1267000Y294000D02*
D03*
X1260000Y280000D02*
D03*
X1253000Y378000D02*
D03*
X1246000Y364000D02*
D03*
X1253000Y350000D02*
D03*
X1246000Y336000D02*
D03*
Y280000D02*
D03*
X1232000Y364000D02*
D03*
X1239000Y350000D02*
D03*
X1232000Y336000D02*
D03*
Y280000D02*
D03*
X1218000Y504000D02*
D03*
X1225000Y490000D02*
D03*
X1218000Y336000D02*
D03*
X1225000Y322000D02*
D03*
X1218000Y308000D02*
D03*
X1225000Y294000D02*
D03*
X1218000Y280000D02*
D03*
X1204000Y504000D02*
D03*
X1211000Y490000D02*
D03*
X1204000Y336000D02*
D03*
X1211000Y322000D02*
D03*
X1204000Y308000D02*
D03*
X1211000Y294000D02*
D03*
X1204000Y280000D02*
D03*
X1190000Y504000D02*
D03*
X1197000Y490000D02*
D03*
X1190000Y336000D02*
D03*
X1197000Y322000D02*
D03*
X1190000Y308000D02*
D03*
X1197000Y294000D02*
D03*
X1190000Y280000D02*
D03*
X1176000Y504000D02*
D03*
X1183000Y490000D02*
D03*
X1176000Y336000D02*
D03*
X1183000Y322000D02*
D03*
X1176000Y308000D02*
D03*
X1183000Y294000D02*
D03*
X1176000Y280000D02*
D03*
X1162000Y504000D02*
D03*
X1169000Y490000D02*
D03*
X1162000Y336000D02*
D03*
X1169000Y322000D02*
D03*
X1162000Y308000D02*
D03*
X1169000Y294000D02*
D03*
X1162000Y280000D02*
D03*
X1148000Y504000D02*
D03*
X1155000Y490000D02*
D03*
X1148000Y336000D02*
D03*
X1155000Y322000D02*
D03*
X1148000Y308000D02*
D03*
X1155000Y294000D02*
D03*
X1148000Y280000D02*
D03*
X1134000Y504000D02*
D03*
X1141000Y490000D02*
D03*
X1134000Y476000D02*
D03*
Y336000D02*
D03*
X1141000Y322000D02*
D03*
Y294000D02*
D03*
X1134000Y280000D02*
D03*
X1120000Y504000D02*
D03*
X1127000Y490000D02*
D03*
X1120000Y476000D02*
D03*
X1127000Y378000D02*
D03*
X1120000Y364000D02*
D03*
Y336000D02*
D03*
Y280000D02*
D03*
X1106000Y504000D02*
D03*
X1113000Y490000D02*
D03*
Y378000D02*
D03*
X1106000Y364000D02*
D03*
Y336000D02*
D03*
X1092000Y504000D02*
D03*
X1099000Y490000D02*
D03*
Y378000D02*
D03*
X1092000Y364000D02*
D03*
Y336000D02*
D03*
X1099000Y322000D02*
D03*
X1092000Y308000D02*
D03*
X1078000Y504000D02*
D03*
X1085000Y490000D02*
D03*
Y378000D02*
D03*
X1078000Y364000D02*
D03*
Y336000D02*
D03*
X1085000Y294000D02*
D03*
X1078000Y280000D02*
D03*
X1064000Y504000D02*
D03*
X1071000Y490000D02*
D03*
Y378000D02*
D03*
X1064000Y364000D02*
D03*
Y308000D02*
D03*
X1071000Y294000D02*
D03*
X1064000Y280000D02*
D03*
X1050000Y504000D02*
D03*
X1057000Y490000D02*
D03*
Y378000D02*
D03*
X1050000Y364000D02*
D03*
X1057000Y294000D02*
D03*
X1050000Y280000D02*
D03*
X1036000Y504000D02*
D03*
X1043000Y490000D02*
D03*
X1036000Y308000D02*
D03*
X1043000Y294000D02*
D03*
X1022000Y504000D02*
D03*
X1029000Y490000D02*
D03*
Y462000D02*
D03*
X1022000Y364000D02*
D03*
X1029000Y322000D02*
D03*
X1008000Y504000D02*
D03*
X1015000Y490000D02*
D03*
Y322000D02*
D03*
X1008000Y308000D02*
D03*
X1015000Y294000D02*
D03*
X1008000Y280000D02*
D03*
X994000Y504000D02*
D03*
X1001000Y490000D02*
D03*
Y322000D02*
D03*
X994000Y308000D02*
D03*
X1001000Y294000D02*
D03*
X994000Y280000D02*
D03*
X980000Y504000D02*
D03*
X987000Y490000D02*
D03*
X980000Y308000D02*
D03*
X987000Y294000D02*
D03*
X980000Y280000D02*
D03*
X973000Y490000D02*
D03*
Y378000D02*
D03*
X966000Y308000D02*
D03*
X973000Y294000D02*
D03*
X966000Y280000D02*
D03*
X959000Y378000D02*
D03*
Y322000D02*
D03*
X945000Y378000D02*
D03*
Y322000D02*
D03*
X924000Y336000D02*
D03*
X931000Y322000D02*
D03*
X924000Y308000D02*
D03*
Y280000D02*
D03*
X910000Y504000D02*
D03*
X917000Y490000D02*
D03*
Y322000D02*
D03*
X910000Y308000D02*
D03*
X917000Y294000D02*
D03*
X910000Y280000D02*
D03*
X896000Y504000D02*
D03*
X903000Y490000D02*
D03*
X896000Y476000D02*
D03*
X854000Y280000D02*
D03*
X840000Y308000D02*
D03*
X847000Y294000D02*
D03*
X840000Y280000D02*
D03*
X826000Y336000D02*
D03*
Y308000D02*
D03*
X833000Y294000D02*
D03*
X826000Y280000D02*
D03*
X812000Y336000D02*
D03*
Y308000D02*
D03*
X819000Y294000D02*
D03*
X812000Y280000D02*
D03*
X798000Y364000D02*
D03*
X805000Y350000D02*
D03*
X798000Y336000D02*
D03*
Y308000D02*
D03*
X805000Y294000D02*
D03*
X798000Y280000D02*
D03*
X784000Y476000D02*
D03*
Y420000D02*
D03*
X777000Y490000D02*
D03*
X763000D02*
D03*
X756000Y420000D02*
D03*
X742000Y504000D02*
D03*
X749000Y490000D02*
D03*
X742000Y476000D02*
D03*
X749000Y462000D02*
D03*
X742000Y448000D02*
D03*
Y420000D02*
D03*
X749000Y406000D02*
D03*
X742000Y392000D02*
D03*
Y364000D02*
D03*
Y336000D02*
D03*
Y308000D02*
D03*
D77*
X1007300Y364300D02*
D03*
X977702Y387103D02*
D03*
X1057800Y353400D02*
D03*
X1070100Y344900D02*
D03*
X1173400Y363100D02*
D03*
X1187600Y355000D02*
D03*
X839500Y357150D02*
D03*
X903700Y377772D02*
D03*
X932000D02*
D03*
X787500Y403500D02*
D03*
X886600Y337200D02*
D03*
X759850Y350950D02*
D03*
X810450Y379500D02*
D03*
X886050Y350950D02*
D03*
X758450Y504950D02*
D03*
X767650Y422103D02*
D03*
X758450Y378950D02*
D03*
X783500Y367200D02*
D03*
X773265Y396765D02*
D03*
X1197890Y410330D02*
D03*
X876000Y455448D02*
D03*
X884798Y459533D02*
D03*
X890430Y428007D02*
D03*
X895667Y405200D02*
D03*
X865612Y462000D02*
D03*
X1148100Y473100D02*
D03*
X1204120Y454660D02*
D03*
X1007300Y468500D02*
D03*
X913400Y418300D02*
D03*
X920700Y455100D02*
D03*
X912667Y405200D02*
D03*
X773800Y473400D02*
D03*
X783053Y444852D02*
D03*
X815600Y483509D02*
D03*
X789048Y497050D02*
D03*
X882950Y469200D02*
D03*
X773100Y504500D02*
D03*
X957384Y404902D02*
D03*
Y423698D02*
D03*
X1239600Y420800D02*
D03*
X1204120Y416560D02*
D03*
X1090500Y411700D02*
D03*
X1090400Y473300D02*
D03*
D78*
X827400Y441802D02*
D03*
X1179100Y440200D02*
D03*
X1064200Y442200D02*
D03*
X1077900D02*
D03*
X1091430Y442170D02*
D03*
X1060110Y417670D02*
D03*
X1122800Y416900D02*
D03*
X1135900Y416800D02*
D03*
X1204120Y429260D02*
D03*
X1243100Y442700D02*
D03*
X1230290Y442620D02*
D03*
X1255895Y442341D02*
D03*
M02*
