G04*
G04 #@! TF.GenerationSoftware,Altium Limited,Altium Designer,21.4.1 (30)*
G04*
G04 Layer_Color=32768*
%FSLAX44Y44*%
%MOMM*%
G71*
G04*
G04 #@! TF.SameCoordinates,4CB8062D-C9E7-4AB4-8A21-2F76EA793763*
G04*
G04*
G04 #@! TF.FilePolarity,Positive*
G04*
G01*
G75*
%ADD89C,0.1000*%
%ADD91C,0.0500*%
D89*
X753765Y361700D02*
Y372700D01*
X777765Y361700D02*
Y372700D01*
X753765D02*
X777765D01*
X753765Y361700D02*
X777765D01*
X761015Y367200D02*
X770515D01*
X765765Y362450D02*
Y371950D01*
X753765Y376150D02*
Y387150D01*
X777765Y376150D02*
Y387150D01*
X753765D02*
X777765D01*
X753765Y376150D02*
X777765D01*
X761015Y381650D02*
X770515D01*
X765765Y376900D02*
Y386400D01*
X753765Y390600D02*
Y401600D01*
X777765Y390600D02*
Y401600D01*
X753765D02*
X777765D01*
X753765Y390600D02*
X777765D01*
X761015Y396100D02*
X770515D01*
X765765Y391350D02*
Y400850D01*
Y468750D02*
Y478250D01*
X761015Y473500D02*
X770515D01*
X753765Y468000D02*
X777765D01*
X753765Y479000D02*
X777765D01*
Y468000D02*
Y479000D01*
X753765Y468000D02*
Y479000D01*
X765765Y499750D02*
Y509250D01*
X761015Y504500D02*
X770515D01*
X753765Y499000D02*
X777765D01*
X753765Y510000D02*
X777765D01*
Y499000D02*
Y510000D01*
X753765Y499000D02*
Y510000D01*
X1027400Y388350D02*
Y397850D01*
X1022650Y393100D02*
X1032150D01*
X1015400Y398600D02*
X1039400D01*
X1015400Y387600D02*
X1039400D01*
X1015400D02*
Y398600D01*
X1039400Y387600D02*
Y398600D01*
X997400Y388350D02*
Y397850D01*
X992650Y393100D02*
X1002150D01*
X985400Y398600D02*
X1009400D01*
X985400Y387600D02*
X1009400D01*
X985400D02*
Y398600D01*
X1009400Y387600D02*
Y398600D01*
X904167Y387050D02*
Y396550D01*
X899417Y391800D02*
X908917D01*
X892168Y386300D02*
X916168D01*
X892168Y397300D02*
X916168D01*
Y386300D02*
Y397300D01*
X892168Y386300D02*
Y397300D01*
X904167Y413550D02*
Y423050D01*
X899417Y418300D02*
X908917D01*
X892168Y412800D02*
X916168D01*
X892168Y423800D02*
X916168D01*
Y412800D02*
Y423800D01*
X892168Y412800D02*
Y423800D01*
X1085980Y447003D02*
Y458003D01*
X1109980Y447003D02*
Y458003D01*
X1085980D02*
X1109980D01*
X1085980Y447003D02*
X1109980D01*
X1093230Y452503D02*
X1102730D01*
X1097980Y447753D02*
Y457253D01*
X1109980Y467670D02*
Y478670D01*
X1085980Y467670D02*
Y478670D01*
Y467670D02*
X1109980D01*
X1085980Y478670D02*
X1109980D01*
X1093230Y473170D02*
X1102730D01*
X1097980Y468420D02*
Y477920D01*
X1167770Y467670D02*
Y478670D01*
X1143770Y467670D02*
Y478670D01*
Y467670D02*
X1167770D01*
X1143770Y478670D02*
X1167770D01*
X1151020Y473170D02*
X1160520D01*
X1155770Y468420D02*
Y477920D01*
D91*
X1018850Y273650D02*
X1108350D01*
Y332650D01*
X1018850D02*
X1108350D01*
X1018850Y273650D02*
Y332650D01*
X822800Y283950D02*
Y293950D01*
X817800Y288950D02*
X827800D01*
X822800Y283950D02*
Y293950D01*
X817800Y288950D02*
X827800D01*
X746600Y172950D02*
Y415400D01*
X899000Y172950D02*
Y415400D01*
X746600Y172950D02*
X899000D01*
X746600Y415400D02*
X899000D01*
X1084480Y424837D02*
X1113780D01*
X1084480Y439137D02*
X1113780D01*
X1084480Y424837D02*
Y439137D01*
X1113780Y424837D02*
Y439137D01*
M02*
