G04*
G04 #@! TF.GenerationSoftware,Altium Limited,Altium Designer,21.4.1 (30)*
G04*
G04 Layer_Color=16711935*
%FSLAX44Y44*%
%MOMM*%
G71*
G04*
G04 #@! TF.SameCoordinates,2D50AE42-1DF2-48DA-B060-BAF50E4618A4*
G04*
G04*
G04 #@! TF.FilePolarity,Negative*
G04*
G01*
G75*
%ADD44R,2.0032X4.0032*%
%ADD45R,1.2032X2.9032*%
%ADD66C,4.2032*%
%ADD86R,1.7032X1.2032*%
G04:AMPARAMS|DCode=87|XSize=1.7032mm|YSize=1.2032mm|CornerRadius=0.3516mm|HoleSize=0mm|Usage=FLASHONLY|Rotation=180.000|XOffset=0mm|YOffset=0mm|HoleType=Round|Shape=RoundedRectangle|*
%AMROUNDEDRECTD87*
21,1,1.7032,0.5000,0,0,180.0*
21,1,1.0000,1.2032,0,0,180.0*
1,1,0.7032,-0.5000,0.2500*
1,1,0.7032,0.5000,0.2500*
1,1,0.7032,0.5000,-0.2500*
1,1,0.7032,-0.5000,-0.2500*
%
%ADD87ROUNDEDRECTD87*%
%ADD88R,0.9032X1.9032*%
D44*
X871121Y379595D02*
D03*
X751121D02*
D03*
D45*
X848621Y332595D02*
D03*
X833621D02*
D03*
X818621D02*
D03*
X803621D02*
D03*
X788621D02*
D03*
X773621D02*
D03*
D66*
X25000Y25000D02*
D03*
Y375000D02*
D03*
X975000Y25000D02*
D03*
Y375000D02*
D03*
D86*
X109500Y44000D02*
D03*
X60500D02*
D03*
Y76000D02*
D03*
X939500Y324000D02*
D03*
X890500D02*
D03*
Y356000D02*
D03*
X60500Y216000D02*
D03*
Y184000D02*
D03*
X109500D02*
D03*
X683000Y216000D02*
D03*
Y184000D02*
D03*
X732000D02*
D03*
X60500Y356000D02*
D03*
Y324000D02*
D03*
X109500D02*
D03*
X475500Y356000D02*
D03*
Y324000D02*
D03*
X524500D02*
D03*
X683000Y356000D02*
D03*
Y324000D02*
D03*
X732000D02*
D03*
X268000Y356000D02*
D03*
Y324000D02*
D03*
X317000D02*
D03*
X890500Y216000D02*
D03*
Y184000D02*
D03*
X939500D02*
D03*
X475500Y216000D02*
D03*
Y184000D02*
D03*
X524500D02*
D03*
X890500Y76000D02*
D03*
Y44000D02*
D03*
X939500D02*
D03*
X683000Y76000D02*
D03*
Y44000D02*
D03*
X732000D02*
D03*
X475500Y76000D02*
D03*
Y44000D02*
D03*
X524500D02*
D03*
X268000Y216000D02*
D03*
Y184000D02*
D03*
X317000D02*
D03*
X268000Y76000D02*
D03*
Y44000D02*
D03*
X317000D02*
D03*
D87*
X109500Y76000D02*
D03*
X939500Y356000D02*
D03*
X109500Y216000D02*
D03*
X732000D02*
D03*
X109500Y356000D02*
D03*
X524500D02*
D03*
X732000D02*
D03*
X317000D02*
D03*
X939500Y216000D02*
D03*
X524500D02*
D03*
X939500Y76000D02*
D03*
X732000D02*
D03*
X524500D02*
D03*
X317000Y216000D02*
D03*
Y76000D02*
D03*
D88*
X769121Y165595D02*
D03*
X781621D02*
D03*
X794121D02*
D03*
X806621D02*
D03*
M02*
