G04*
G04 #@! TF.GenerationSoftware,Altium Limited,Altium Designer,21.4.1 (30)*
G04*
G04 Layer_Physical_Order=2*
G04 Layer_Color=16711680*
%FSLAX44Y44*%
%MOMM*%
G71*
G04*
G04 #@! TF.SameCoordinates,2D50AE42-1DF2-48DA-B060-BAF50E4618A4*
G04*
G04*
G04 #@! TF.FilePolarity,Positive*
G04*
G01*
G75*
%ADD10C,0.2000*%
%ADD17C,0.3000*%
%ADD21R,1.8000X3.8000*%
%ADD22R,1.0000X2.7000*%
%ADD67C,0.1700*%
%ADD69C,0.7000*%
%ADD70C,0.5000*%
%ADD71C,1.0000*%
%ADD72C,0.8000*%
%ADD74C,0.2500*%
%ADD75C,0.4000*%
%ADD79C,4.0000*%
%ADD80C,0.7000*%
%ADD81C,1.2700*%
%ADD82R,1.5000X1.0000*%
G04:AMPARAMS|DCode=83|XSize=1.5mm|YSize=1mm|CornerRadius=0.25mm|HoleSize=0mm|Usage=FLASHONLY|Rotation=180.000|XOffset=0mm|YOffset=0mm|HoleType=Round|Shape=RoundedRectangle|*
%AMROUNDEDRECTD83*
21,1,1.5000,0.5000,0,0,180.0*
21,1,1.0000,1.0000,0,0,180.0*
1,1,0.5000,-0.5000,0.2500*
1,1,0.5000,0.5000,0.2500*
1,1,0.5000,0.5000,-0.2500*
1,1,0.5000,-0.5000,-0.2500*
%
%ADD83ROUNDEDRECTD83*%
%ADD84C,1.5000*%
%ADD85R,0.7000X1.7000*%
G36*
X859581Y386240D02*
X859527Y386190D01*
X858891Y385802D01*
X858017Y385446D01*
X856899Y385146D01*
X855544Y384921D01*
X853959Y384781D01*
X853062Y384758D01*
X844810D01*
X841589Y387979D01*
X840190Y389052D01*
X838560Y389728D01*
X836811Y389958D01*
X780189D01*
X778440Y389728D01*
X776810Y389052D01*
X775411Y387979D01*
X763853Y376420D01*
X762661Y377612D01*
Y378325D01*
X739581D01*
Y363451D01*
X738311Y362920D01*
X728697Y372426D01*
X720562Y380561D01*
X718640Y382036D01*
X716402Y382963D01*
X715201Y383121D01*
X714000Y383279D01*
X714000Y383279D01*
X524000D01*
X524000Y383279D01*
X524000Y383279D01*
X127500D01*
X125098Y382963D01*
X122860Y382036D01*
X120939Y380561D01*
X120938Y380561D01*
X109948Y369571D01*
X106387Y366037D01*
X84997D01*
X82595Y365721D01*
X80357Y364794D01*
X78435Y363319D01*
X76961Y361397D01*
X76034Y359159D01*
X75717Y356758D01*
X76034Y354356D01*
X76961Y352118D01*
X78435Y350196D01*
X79274Y349552D01*
X78843Y348282D01*
X73444D01*
X71708Y350018D01*
X70699Y351093D01*
X69979Y351973D01*
X69700Y352363D01*
Y362700D01*
X51300D01*
Y349300D01*
X59348D01*
X59849Y349080D01*
X60438Y348747D01*
X61075Y348314D01*
X62392Y347222D01*
X68642Y340972D01*
X70031Y340044D01*
X71670Y339718D01*
X94560D01*
X95046Y338544D01*
X87260Y330758D01*
X70540D01*
Y331540D01*
X61770D01*
Y324000D01*
Y316460D01*
X70540D01*
Y317242D01*
X88000D01*
X89749Y317472D01*
X91379Y318148D01*
X92779Y319221D01*
X93852Y320621D01*
X94528Y322251D01*
X94646Y323148D01*
X99127Y327629D01*
X100300Y327143D01*
Y321231D01*
X99945Y320732D01*
X98537Y319093D01*
X57472Y278028D01*
X56544Y276639D01*
X56218Y275000D01*
Y224824D01*
X56179Y224389D01*
X56079Y223788D01*
X55954Y223325D01*
X55823Y223005D01*
X55712Y222822D01*
X55644Y222749D01*
X55619Y222732D01*
X55591Y222722D01*
X55382Y222700D01*
X51300D01*
Y209300D01*
X69700D01*
Y222700D01*
X65618D01*
X65409Y222722D01*
X65381Y222732D01*
X65356Y222749D01*
X65288Y222822D01*
X65177Y223005D01*
X65045Y223325D01*
X64921Y223788D01*
X64821Y224389D01*
X64782Y224824D01*
Y273226D01*
X106916Y315360D01*
X107425Y315807D01*
X108166Y316391D01*
X108835Y316848D01*
X109423Y317182D01*
X109693Y317300D01*
X118700D01*
Y330698D01*
X122804D01*
X146354Y307148D01*
X146473Y306251D01*
X147148Y304621D01*
X148222Y303221D01*
X149621Y302148D01*
X151251Y301472D01*
X153000Y301242D01*
X760401D01*
X760662Y300981D01*
X762690Y299811D01*
X764851Y299232D01*
Y308095D01*
X767391D01*
Y299232D01*
X769552Y299811D01*
X771580Y300981D01*
X771840Y301242D01*
X814000D01*
X815749Y301472D01*
X817379Y302148D01*
X818096Y302698D01*
X820000D01*
X820312Y302760D01*
X820938Y301590D01*
X766627Y247279D01*
X315000D01*
X315000Y247279D01*
X315000Y247279D01*
X131500D01*
X131500Y247279D01*
X130299Y247121D01*
X129098Y246963D01*
X126860Y246036D01*
X124938Y244562D01*
X124938Y244561D01*
X109948Y229571D01*
X105624Y225279D01*
X84958D01*
X82557Y224963D01*
X80319Y224036D01*
X78397Y222561D01*
X78397Y222561D01*
X78300Y222464D01*
X76825Y220542D01*
X75898Y218304D01*
X75582Y215903D01*
X75898Y213501D01*
X76825Y211263D01*
X78300Y209341D01*
X80222Y207867D01*
X82459Y206940D01*
X84861Y206623D01*
X85600Y206721D01*
X109500D01*
X109500Y206721D01*
X110701Y206879D01*
X111902Y207037D01*
X114140Y207964D01*
X116061Y209438D01*
X116223Y209600D01*
X117528Y210472D01*
X118166Y211427D01*
X124921Y218298D01*
X135344Y228721D01*
X307721D01*
Y222960D01*
X297614Y222758D01*
X293000D01*
X291251Y222528D01*
X289621Y221852D01*
X288221Y220779D01*
X287222Y219778D01*
X286148Y218379D01*
X285473Y216749D01*
X285242Y215000D01*
X285473Y213251D01*
X286148Y211621D01*
X287222Y210222D01*
X288621Y209148D01*
X290251Y208472D01*
X292000Y208242D01*
X293749Y208472D01*
X295379Y209148D01*
X295502Y209242D01*
X299220D01*
X309059Y209157D01*
X310861Y209075D01*
X310921Y209068D01*
X312360Y207964D01*
X314598Y207037D01*
X317000Y206721D01*
X319402Y207037D01*
X321640Y207964D01*
X323562Y209438D01*
X323646Y209548D01*
X325028Y210472D01*
X325956Y211861D01*
X326282Y213500D01*
Y218500D01*
X326279Y218514D01*
Y228721D01*
X515221D01*
Y222758D01*
X505065D01*
X503316Y222528D01*
X501686Y221852D01*
X500286Y220779D01*
X495688Y216180D01*
X494614Y214780D01*
X493939Y213150D01*
X493709Y211401D01*
X493939Y209652D01*
X494614Y208022D01*
X495336Y207082D01*
X494747Y205812D01*
X471213D01*
X469712Y206110D01*
X469712Y206110D01*
X469691D01*
X467467Y205668D01*
X465581Y204408D01*
X464321Y202523D01*
X463879Y200299D01*
X464321Y198074D01*
X465581Y196189D01*
X465647Y196145D01*
X465901Y195891D01*
X465901Y195891D01*
X467787Y194631D01*
X470011Y194188D01*
X470011Y194188D01*
X636069D01*
X636555Y193015D01*
X631823Y188282D01*
X535816D01*
X535386Y188320D01*
X534784Y188419D01*
X534319Y188543D01*
X533997Y188673D01*
X533814Y188783D01*
X533742Y188849D01*
X533728Y188869D01*
X533721Y188889D01*
X533700Y189088D01*
Y190700D01*
X531984D01*
X531969Y190703D01*
X531955Y190700D01*
X515300D01*
Y177300D01*
X531955D01*
X531969Y177297D01*
X531984Y177300D01*
X533700D01*
Y178912D01*
X533721Y179111D01*
X533728Y179131D01*
X533742Y179151D01*
X533814Y179217D01*
X533997Y179327D01*
X534319Y179457D01*
X534784Y179581D01*
X535386Y179680D01*
X535816Y179718D01*
X633596D01*
X635235Y180044D01*
X636625Y180972D01*
X667370Y211718D01*
X671684D01*
X672114Y211680D01*
X672716Y211581D01*
X673181Y211458D01*
X673503Y211327D01*
X673687Y211217D01*
X673758Y211151D01*
X673772Y211131D01*
X673779Y211111D01*
X673800Y210912D01*
Y209300D01*
X675516D01*
X675530Y209297D01*
X675545Y209300D01*
X692200D01*
Y222700D01*
X675545D01*
X675530Y222703D01*
X675516Y222700D01*
X673800D01*
Y221088D01*
X673779Y220889D01*
X673772Y220869D01*
X673758Y220849D01*
X673687Y220783D01*
X673503Y220673D01*
X673181Y220543D01*
X672716Y220419D01*
X672114Y220320D01*
X671684Y220282D01*
X667718D01*
X667120Y221402D01*
X667369Y221776D01*
X667812Y224000D01*
X667369Y226224D01*
X666550Y227451D01*
X667228Y228721D01*
X737721D01*
Y222875D01*
X734405D01*
X733705Y222782D01*
X727000D01*
X726877Y222758D01*
X710502D01*
X710379Y222852D01*
X708749Y223528D01*
X707000Y223758D01*
X705251Y223528D01*
X703621Y222852D01*
X702222Y221779D01*
X701148Y220379D01*
X700472Y218749D01*
X700242Y217000D01*
X700472Y215251D01*
X701148Y213621D01*
X702222Y212222D01*
X703222Y211222D01*
X704621Y210148D01*
X706251Y209473D01*
X708000Y209242D01*
X726250D01*
X726369Y208955D01*
X727843Y207034D01*
X729765Y205559D01*
X732003Y204632D01*
X734405Y204316D01*
X766121D01*
X768523Y204632D01*
X770761Y205559D01*
X772682Y207034D01*
X774157Y208955D01*
X775084Y211193D01*
X775400Y213595D01*
X775084Y215997D01*
X774157Y218235D01*
X772682Y220157D01*
X770761Y221631D01*
X768523Y222558D01*
X766121Y222875D01*
X756279D01*
Y228721D01*
X770471D01*
X770471Y228721D01*
X771672Y228879D01*
X772873Y229037D01*
X775111Y229964D01*
X777032Y231439D01*
X794293Y248699D01*
X795563Y248173D01*
Y220187D01*
X795447Y220109D01*
X795302Y220028D01*
X795156Y219963D01*
X795006Y219910D01*
X794848Y219870D01*
X794680Y219842D01*
X794499Y219827D01*
X794237Y219827D01*
X794082Y219795D01*
X793087D01*
X791176Y219004D01*
X789713Y217541D01*
X788922Y215630D01*
Y213561D01*
X789713Y211650D01*
X790438Y210925D01*
X791103Y210096D01*
X790438Y209266D01*
X789713Y208541D01*
X788922Y206630D01*
Y204561D01*
X789713Y202650D01*
X791176Y201187D01*
X793087Y200396D01*
X795156D01*
X797067Y201187D01*
X798530Y202650D01*
X799322Y204561D01*
Y205449D01*
X799354Y205600D01*
X799360Y205945D01*
X799381Y206216D01*
X799416Y206458D01*
X799462Y206674D01*
X799518Y206862D01*
X799583Y207028D01*
X799654Y207172D01*
X799732Y207299D01*
X799771Y207352D01*
X804717Y212298D01*
X804722Y212305D01*
X805992Y211920D01*
Y196663D01*
X805987Y196616D01*
X805953Y196434D01*
X805907Y196261D01*
X805849Y196096D01*
X805777Y195936D01*
X805691Y195779D01*
X805589Y195623D01*
X805469Y195466D01*
X805290Y195264D01*
X805231Y195165D01*
X804713Y194646D01*
X803921Y192734D01*
Y190666D01*
X804382Y189552D01*
X803533Y188282D01*
X743316D01*
X742886Y188320D01*
X742284Y188419D01*
X741819Y188542D01*
X741497Y188673D01*
X741313Y188783D01*
X741242Y188849D01*
X741228Y188869D01*
X741221Y188889D01*
X741200Y189088D01*
Y190700D01*
X739484D01*
X739470Y190703D01*
X739455Y190700D01*
X722800D01*
Y177300D01*
X739455D01*
X739470Y177297D01*
X739484Y177300D01*
X741200D01*
Y178912D01*
X741221Y179111D01*
X741228Y179131D01*
X741242Y179151D01*
X741313Y179217D01*
X741497Y179327D01*
X741819Y179457D01*
X742284Y179581D01*
X742886Y179680D01*
X743316Y179718D01*
X853631D01*
X856386Y176963D01*
X856394Y176314D01*
X856031Y175521D01*
X855891Y175493D01*
X855457Y175203D01*
X854975Y175003D01*
X854605Y174634D01*
X854171Y174344D01*
X853881Y173910D01*
X853512Y173541D01*
X853312Y173058D01*
X853022Y172624D01*
X852920Y172112D01*
X852720Y171629D01*
Y171107D01*
X852618Y170595D01*
X852720Y170083D01*
Y169561D01*
X852920Y169078D01*
X853022Y168566D01*
X853312Y168132D01*
X853512Y167649D01*
X853881Y167280D01*
X854171Y166846D01*
X873766Y147251D01*
X875486Y146102D01*
X877515Y145698D01*
X946000D01*
X948029Y146102D01*
X949749Y147251D01*
X950749Y148251D01*
X951039Y148685D01*
X951408Y149054D01*
X951448Y149150D01*
X952718Y148897D01*
Y74774D01*
X949738Y71794D01*
X948567Y72419D01*
X948782Y73500D01*
Y78500D01*
X948456Y80139D01*
X947528Y81528D01*
X946500Y82215D01*
X946499Y82216D01*
X946495Y82218D01*
X946477Y82230D01*
X946471Y82236D01*
X946460Y82241D01*
X946139Y82456D01*
X945890Y82506D01*
X945888Y82507D01*
X945021Y82726D01*
X944185Y83022D01*
X943292Y83423D01*
X942348Y83932D01*
X941352Y84551D01*
X940340Y85260D01*
X936896Y88161D01*
X936864Y88193D01*
X925278Y99778D01*
X923879Y100852D01*
X922249Y101528D01*
X920500Y101758D01*
X128500D01*
X126751Y101528D01*
X125121Y100852D01*
X123722Y99778D01*
X112137Y88194D01*
X112080Y88139D01*
X110921Y87086D01*
X108675Y85270D01*
X107648Y84551D01*
X106653Y83932D01*
X105707Y83423D01*
X104815Y83022D01*
X104069Y82758D01*
X85167D01*
X83418Y82528D01*
X81788Y81852D01*
X80388Y80779D01*
X80183Y80574D01*
X79110Y79174D01*
X78435Y77544D01*
X78204Y75795D01*
X78435Y74046D01*
X79110Y72416D01*
X80183Y71017D01*
X81583Y69943D01*
X83213Y69268D01*
X84962Y69037D01*
X86517Y69242D01*
X104377D01*
X104500Y69218D01*
X114500D01*
X116139Y69544D01*
X117528Y70472D01*
X118215Y71500D01*
X118216Y71501D01*
X118218Y71505D01*
X118289Y71610D01*
X118297Y71619D01*
X118300Y71627D01*
X118456Y71861D01*
X118506Y72110D01*
X118507Y72112D01*
X118726Y72979D01*
X119022Y73815D01*
X119423Y74707D01*
X119932Y75652D01*
X120551Y76648D01*
X121259Y77660D01*
X124162Y81104D01*
X124193Y81136D01*
X131299Y88242D01*
X308919D01*
X310060Y86972D01*
X309910Y85533D01*
X309719Y84437D01*
X309486Y83425D01*
X309287Y82758D01*
X293206D01*
X291457Y82528D01*
X289827Y81852D01*
X288427Y80779D01*
X287830Y80181D01*
X286756Y78781D01*
X286081Y77151D01*
X285851Y75402D01*
X286081Y73653D01*
X286756Y72024D01*
X287830Y70624D01*
X289229Y69550D01*
X290859Y68875D01*
X292608Y68645D01*
X294357Y68875D01*
X295244Y69242D01*
X311877D01*
X312000Y69218D01*
X322000D01*
X323639Y69544D01*
X325028Y70472D01*
X325956Y71861D01*
X326282Y73500D01*
Y78500D01*
X326041Y79711D01*
X326041Y79713D01*
X326040Y79716D01*
X325956Y80139D01*
X325816Y80349D01*
X325816Y80350D01*
X325415Y81022D01*
X325085Y81718D01*
X324784Y82519D01*
X324514Y83425D01*
X324281Y84437D01*
X324093Y85516D01*
X323942Y87307D01*
X324802Y88242D01*
X516419D01*
X517560Y86972D01*
X517410Y85533D01*
X517219Y84437D01*
X516986Y83425D01*
X516787Y82758D01*
X500564D01*
X498815Y82528D01*
X497185Y81852D01*
X495785Y80779D01*
X495686Y80679D01*
X494612Y79279D01*
X493937Y77649D01*
X493706Y75900D01*
X493937Y74151D01*
X494612Y72521D01*
X494818Y72252D01*
X494192Y70982D01*
X489074D01*
X486842Y73214D01*
X485973Y74149D01*
X485338Y74940D01*
X484846Y75645D01*
X484700Y75899D01*
Y82700D01*
X466300D01*
Y69300D01*
X478101D01*
X478355Y69154D01*
X479040Y68675D01*
X480542Y67402D01*
X482488Y65456D01*
X482002Y64282D01*
X285774D01*
X279242Y70814D01*
X278267Y71856D01*
X277568Y72713D01*
X277200Y73231D01*
Y82700D01*
X258800D01*
Y69300D01*
X267807D01*
X268077Y69182D01*
X268665Y68848D01*
X269314Y68405D01*
X270677Y67267D01*
X279188Y58756D01*
X278702Y57582D01*
X84974D01*
X71742Y70814D01*
X70767Y71856D01*
X70068Y72713D01*
X69700Y73231D01*
Y82700D01*
X51300D01*
Y69300D01*
X60307D01*
X60577Y69182D01*
X61165Y68848D01*
X61814Y68405D01*
X63177Y67267D01*
X79872Y50572D01*
X79477Y49388D01*
X79409Y49302D01*
X72658D01*
X71543Y49360D01*
X70734Y49452D01*
X70540Y49485D01*
Y51540D01*
X61770D01*
Y44845D01*
X64033Y46351D01*
Y47538D01*
X64141Y47531D01*
X65658Y47514D01*
X65781Y47513D01*
X67969Y48969D01*
X68039Y48690D01*
X68250Y48440D01*
X68600Y48220D01*
X69089Y48029D01*
X69720Y47867D01*
X70490Y47735D01*
X71399Y47632D01*
X73639Y47515D01*
X74970Y47500D01*
Y40500D01*
X73639Y40485D01*
X71653Y40346D01*
X72495Y39291D01*
X75041Y36530D01*
X65469Y31959D01*
X64072Y33303D01*
X61380Y35566D01*
X60085Y36485D01*
X58824Y37263D01*
X57597Y37899D01*
X56405Y38394D01*
X55246Y38748D01*
X54121Y38960D01*
X53031Y39030D01*
X58591Y42730D01*
X50460D01*
Y38611D01*
X49190Y38253D01*
X47357Y41244D01*
X44541Y44541D01*
X41244Y47357D01*
X37546Y49623D01*
X33540Y51283D01*
X29323Y52295D01*
X25000Y52635D01*
X20677Y52295D01*
X16460Y51283D01*
X12454Y49623D01*
X8756Y47357D01*
X5459Y44541D01*
X2643Y41244D01*
X1270Y39004D01*
X0Y39362D01*
Y360638D01*
X1270Y360997D01*
X2643Y358756D01*
X5459Y355459D01*
X8756Y352643D01*
X12454Y350377D01*
X16460Y348717D01*
X20677Y347705D01*
X25000Y347365D01*
X29323Y347705D01*
X33540Y348717D01*
X37546Y350377D01*
X41244Y352643D01*
X44541Y355459D01*
X47357Y358756D01*
X49623Y362454D01*
X51283Y366460D01*
X52295Y370677D01*
X52635Y375000D01*
X52295Y379323D01*
X51283Y383540D01*
X49623Y387546D01*
X47357Y391244D01*
X44541Y394541D01*
X41244Y397357D01*
X39004Y398730D01*
X39362Y400000D01*
X739581D01*
Y380865D01*
X762661D01*
Y400000D01*
X859581D01*
Y386240D01*
D02*
G37*
G36*
X862182Y368000D02*
X862082Y368950D01*
X861781Y369800D01*
X861279Y370550D01*
X860577Y371200D01*
X859674Y371750D01*
X858571Y372200D01*
X857267Y372550D01*
X855762Y372800D01*
X854057Y372950D01*
X852151Y373000D01*
Y383000D01*
X854057Y383050D01*
X855762Y383200D01*
X857267Y383450D01*
X858571Y383800D01*
X859674Y384250D01*
X860577Y384800D01*
X861279Y385450D01*
X861781Y386200D01*
X862082Y387050D01*
X862182Y388000D01*
Y368000D01*
D02*
G37*
G36*
X339107Y366500D02*
X331294Y366338D01*
X327406Y366049D01*
X325857Y365851D01*
X324573Y365616D01*
X323553Y365346D01*
X322796Y365039D01*
X322303Y364697D01*
X321000Y374000D01*
Y381500D01*
X339107Y366500D01*
D02*
G37*
G36*
X829095Y362076D02*
X828889Y362241D01*
X828666Y362389D01*
X828427Y362520D01*
X828171Y362633D01*
X827898Y362729D01*
X827608Y362808D01*
X827301Y362869D01*
X826978Y362912D01*
X826638Y362938D01*
X826281Y362947D01*
X826040Y365947D01*
X826398Y365957D01*
X826737Y365988D01*
X827056Y366039D01*
X827355Y366110D01*
X827635Y366201D01*
X827895Y366313D01*
X828136Y366445D01*
X828357Y366597D01*
X828559Y366770D01*
X828740Y366963D01*
X829095Y362076D01*
D02*
G37*
G36*
X800402Y366575D02*
X800629Y366437D01*
X800872Y366315D01*
X801132Y366209D01*
X801407Y366119D01*
X801699Y366046D01*
X802007Y365989D01*
X802332Y365948D01*
X802672Y365924D01*
X803029Y365916D01*
X803428Y362916D01*
X803069Y362905D01*
X802731Y362874D01*
X802414Y362821D01*
X802117Y362748D01*
X801842Y362653D01*
X801586Y362537D01*
X801352Y362401D01*
X801138Y362243D01*
X800945Y362064D01*
X800773Y361864D01*
X800191Y366730D01*
X800402Y366575D01*
D02*
G37*
G36*
X902919Y363470D02*
X901421Y361922D01*
X899093Y359198D01*
X898263Y358022D01*
X897657Y356970D01*
X897273Y356042D01*
X897113Y355238D01*
X897176Y354558D01*
X897461Y354002D01*
X897970Y353570D01*
X885570Y360970D01*
X886227Y360686D01*
X886958Y360575D01*
X887763Y360638D01*
X888642Y360873D01*
X889595Y361282D01*
X890622Y361864D01*
X891723Y362618D01*
X892898Y363545D01*
X894146Y364646D01*
X895470Y365919D01*
X902919Y363470D01*
D02*
G37*
G36*
X851136Y349808D02*
X850650Y348635D01*
X849891D01*
Y332595D01*
X847351D01*
Y348635D01*
X834891D01*
Y332595D01*
X832351D01*
Y348635D01*
X826081D01*
Y348635D01*
X825321Y347795D01*
X821976D01*
X821952Y347884D01*
X821902Y348191D01*
X821884Y348400D01*
Y361184D01*
X826821D01*
X827016Y361158D01*
X827212Y361119D01*
X827383Y361073D01*
X827532Y361021D01*
X827660Y360964D01*
X827769Y360904D01*
X827863Y360841D01*
X828008Y360725D01*
X828057Y360700D01*
X828465Y360292D01*
X830376Y359500D01*
X832445D01*
X834356Y360292D01*
X835819Y361754D01*
X836280Y362868D01*
X837778Y363166D01*
X851136Y349808D01*
D02*
G37*
G36*
X714630Y360247D02*
X713820Y359261D01*
X712779Y359956D01*
X711141Y360282D01*
X694316D01*
X693886Y360320D01*
X693284Y360419D01*
X692819Y360542D01*
X692497Y360673D01*
X692314Y360783D01*
X692242Y360849D01*
X692228Y360869D01*
X692221Y360889D01*
X692200Y361088D01*
Y362700D01*
X690484D01*
X690470Y362703D01*
X690455Y362700D01*
X673800D01*
Y349300D01*
X690455D01*
X690470Y349297D01*
X690484Y349300D01*
X692200D01*
Y350912D01*
X692221Y351111D01*
X692228Y351131D01*
X692242Y351151D01*
X692314Y351217D01*
X692497Y351327D01*
X692819Y351457D01*
X693284Y351581D01*
X693886Y351680D01*
X694316Y351718D01*
X709367D01*
X714532Y346552D01*
X714006Y345282D01*
X499774D01*
X495941Y349115D01*
X496621Y350148D01*
X498251Y349473D01*
X500000Y349242D01*
X506723D01*
X516559Y349157D01*
X518361Y349075D01*
X518421Y349068D01*
X519860Y347964D01*
X522098Y347037D01*
X524500Y346721D01*
X526902Y347037D01*
X529140Y347964D01*
X531062Y349439D01*
X531146Y349548D01*
X532528Y350472D01*
X533456Y351861D01*
X533782Y353500D01*
Y358500D01*
X533779Y358515D01*
Y364721D01*
X710156D01*
X714630Y360247D01*
D02*
G37*
G36*
X737963Y360826D02*
X724674Y352537D01*
X724559Y352686D01*
X724233Y353043D01*
X714022Y363372D01*
X721682Y376925D01*
X737963Y360826D01*
D02*
G37*
G36*
X127478Y363372D02*
X116826Y352537D01*
X103537Y360826D01*
X103741Y360995D01*
X104261Y361485D01*
X119818Y376925D01*
X127478Y363372D01*
D02*
G37*
G36*
X809358Y353818D02*
X809099Y353780D01*
X808840Y353719D01*
X808581Y353634D01*
X808322Y353527D01*
X808063Y353396D01*
X807805Y353242D01*
X807546Y353065D01*
X807288Y352865D01*
X807030Y352641D01*
X806772Y352395D01*
X804384Y354250D01*
X804631Y354511D01*
X804847Y354772D01*
X805035Y355034D01*
X805193Y355296D01*
X805322Y355558D01*
X805421Y355820D01*
X805492Y356083D01*
X805533Y356346D01*
X805544Y356609D01*
X805526Y356872D01*
X809358Y353818D01*
D02*
G37*
G36*
X515221Y362961D02*
X505115Y362758D01*
X500000D01*
X498251Y362528D01*
X496621Y361852D01*
X495221Y360779D01*
X494148Y359379D01*
X493473Y357749D01*
X493242Y356000D01*
X493473Y354251D01*
X494148Y352621D01*
X493115Y351941D01*
X486028Y359028D01*
X484700Y359915D01*
Y362700D01*
X466300D01*
Y349300D01*
X465691Y348282D01*
X323954D01*
X323832Y348643D01*
X323646Y349548D01*
X325028Y350472D01*
X325956Y351861D01*
X326282Y353500D01*
Y358500D01*
X326279Y358515D01*
Y364157D01*
X327580Y364324D01*
X331377Y364606D01*
X336907Y364721D01*
X515221D01*
Y362961D01*
D02*
G37*
G36*
X690519Y360500D02*
X690669Y360080D01*
X690919Y359710D01*
X691270Y359389D01*
X691720Y359117D01*
X692270Y358895D01*
X692919Y358722D01*
X693670Y358599D01*
X694520Y358525D01*
X695470Y358500D01*
Y353500D01*
X694520Y353475D01*
X693670Y353401D01*
X692919Y353278D01*
X692270Y353105D01*
X691720Y352883D01*
X691270Y352611D01*
X690919Y352290D01*
X690669Y351920D01*
X690519Y351500D01*
X690470Y351031D01*
Y360970D01*
X690519Y360500D01*
D02*
G37*
G36*
X879336Y360528D02*
X878661Y360236D01*
X878066Y359748D01*
X877550Y359066D01*
X877113Y358189D01*
X876756Y357117D01*
X876478Y355850D01*
X876280Y354388D01*
X876161Y352731D01*
X876121Y350879D01*
X866121D01*
X866081Y352731D01*
X865764Y355850D01*
X865486Y357117D01*
X865128Y358189D01*
X864692Y359066D01*
X864176Y359748D01*
X863580Y360236D01*
X862906Y360528D01*
X862151Y360626D01*
X880090D01*
X879336Y360528D01*
D02*
G37*
G36*
X519200Y350693D02*
X518992Y350752D01*
X518490Y350804D01*
X516606Y350890D01*
X503910Y351000D01*
Y361000D01*
X519200Y361307D01*
Y350693D01*
D02*
G37*
G36*
X311700D02*
X311492Y350752D01*
X310990Y350804D01*
X309106Y350890D01*
X296410Y351000D01*
Y361000D01*
X311700Y361307D01*
Y350693D01*
D02*
G37*
G36*
X853959Y371219D02*
X855544Y371079D01*
X856899Y370854D01*
X858017Y370554D01*
X858891Y370198D01*
X859527Y369810D01*
X859581Y369760D01*
Y358055D01*
X863259D01*
X863523Y357525D01*
X863812Y356656D01*
X864049Y355575D01*
X864350Y352624D01*
X864363Y352004D01*
Y350879D01*
X864422Y350430D01*
X863219Y349837D01*
X843084Y369972D01*
X843610Y371242D01*
X853062D01*
X853959Y371219D01*
D02*
G37*
G36*
X307721Y362961D02*
X297615Y362758D01*
X292619D01*
X290870Y362528D01*
X289241Y361852D01*
X287841Y360779D01*
X286767Y359379D01*
X286092Y357749D01*
X285862Y356000D01*
X286092Y354251D01*
X286767Y352621D01*
X287841Y351222D01*
X289241Y350148D01*
X290870Y349473D01*
X290585Y348282D01*
X285177D01*
X279048Y354411D01*
X278559Y354963D01*
X277936Y355745D01*
X277456Y356437D01*
X277200Y356885D01*
Y362700D01*
X258800D01*
Y349300D01*
X258191Y348282D01*
X116454D01*
X116266Y348836D01*
X116175Y349552D01*
X116223Y349600D01*
X117528Y350472D01*
X118166Y351427D01*
X124921Y358298D01*
X131344Y364721D01*
X307721D01*
Y362961D01*
D02*
G37*
G36*
X275200Y358578D02*
X275093Y358090D01*
X275118Y357538D01*
X275276Y356925D01*
X275567Y356249D01*
X275989Y355510D01*
X276545Y354710D01*
X277232Y353847D01*
X278053Y352922D01*
X279005Y351934D01*
X276373Y347495D01*
X275305Y348528D01*
X273409Y350144D01*
X272581Y350726D01*
X271834Y351158D01*
X271167Y351440D01*
X270580Y351571D01*
X270074Y351551D01*
X269648Y351381D01*
X269302Y351061D01*
X275439Y359005D01*
X275200Y358578D01*
D02*
G37*
G36*
X67510Y354534D02*
X67256Y354193D01*
X67176Y353747D01*
X67270Y353197D01*
X67540Y352542D01*
X67984Y351782D01*
X68602Y350919D01*
X69395Y349950D01*
X71505Y347700D01*
X64639Y347495D01*
X63760Y348339D01*
X62117Y349701D01*
X61353Y350220D01*
X60627Y350631D01*
X59939Y350934D01*
X59289Y351128D01*
X58677Y351214D01*
X58104Y351192D01*
X57568Y351061D01*
X67939Y354771D01*
X67510Y354534D01*
D02*
G37*
G36*
X820136Y348489D02*
X820181Y347974D01*
X820256Y347519D01*
X820361Y347125D01*
X820496Y346792D01*
X820661Y346519D01*
X820856Y346307D01*
X821081Y346155D01*
X821336Y346064D01*
X821621Y346034D01*
X815621D01*
X815906Y346064D01*
X816161Y346155D01*
X816386Y346307D01*
X816581Y346519D01*
X816746Y346792D01*
X816881Y347125D01*
X816986Y347519D01*
X817061Y347974D01*
X817106Y348489D01*
X817121Y349065D01*
X820121D01*
X820136Y348489D01*
D02*
G37*
G36*
X805136D02*
X805181Y347974D01*
X805256Y347519D01*
X805361Y347125D01*
X805496Y346792D01*
X805661Y346519D01*
X805856Y346307D01*
X806081Y346155D01*
X806336Y346064D01*
X806621Y346034D01*
X800621D01*
X800906Y346064D01*
X801161Y346155D01*
X801386Y346307D01*
X801581Y346519D01*
X801746Y346792D01*
X801881Y347125D01*
X801986Y347519D01*
X802061Y347974D01*
X802106Y348489D01*
X802121Y349065D01*
X805121D01*
X805136Y348489D01*
D02*
G37*
G36*
X783682Y336758D02*
X783699Y336755D01*
X785065Y336635D01*
X786590Y336595D01*
Y328595D01*
X785065Y328555D01*
X783699Y328435D01*
X783682Y328432D01*
Y324595D01*
X783602Y325355D01*
X783361Y326035D01*
X782959Y326635D01*
X782397Y327155D01*
X781674Y327595D01*
X781121Y327821D01*
X780568Y327595D01*
X779845Y327155D01*
X779283Y326635D01*
X778881Y326035D01*
X778640Y325355D01*
X778560Y324595D01*
Y328432D01*
X778542Y328435D01*
X777177Y328555D01*
X775651Y328595D01*
Y336595D01*
X777177Y336635D01*
X778542Y336755D01*
X778560Y336758D01*
Y340595D01*
X778640Y339835D01*
X778881Y339155D01*
X779283Y338555D01*
X779845Y338035D01*
X780568Y337595D01*
X781121Y337370D01*
X781674Y337595D01*
X782397Y338035D01*
X782959Y338555D01*
X783361Y339155D01*
X783602Y339835D01*
X783682Y340595D01*
Y336758D01*
D02*
G37*
G36*
X843682Y336180D02*
X844255Y336130D01*
X845590Y336095D01*
Y329095D01*
X844255Y329060D01*
X843682Y329010D01*
Y325595D01*
X843612Y326260D01*
X843401Y326855D01*
X843049Y327380D01*
X842557Y327835D01*
X841924Y328220D01*
X841151Y328535D01*
X841121Y328543D01*
X841091Y328535D01*
X840318Y328220D01*
X839685Y327835D01*
X839193Y327380D01*
X838841Y326855D01*
X838630Y326260D01*
X838560Y325595D01*
Y329010D01*
X837987Y329060D01*
X836651Y329095D01*
Y336095D01*
X837987Y336130D01*
X838560Y336180D01*
Y339595D01*
X838630Y338930D01*
X838841Y338335D01*
X839193Y337810D01*
X839685Y337355D01*
X840318Y336970D01*
X841091Y336655D01*
X841121Y336647D01*
X841151Y336655D01*
X841924Y336970D01*
X842557Y337355D01*
X843049Y337810D01*
X843401Y338335D01*
X843612Y338930D01*
X843682Y339595D01*
Y336180D01*
D02*
G37*
G36*
X934200Y351588D02*
X946826Y359464D01*
X946941Y359314D01*
X947267Y358957D01*
X957478Y348628D01*
X949818Y335075D01*
X933960Y350755D01*
X933490Y350804D01*
X931606Y350890D01*
X918910Y351000D01*
Y361000D01*
X934200Y361307D01*
Y351588D01*
D02*
G37*
G36*
X853630Y338930D02*
X853841Y338335D01*
X854193Y337810D01*
X854685Y337355D01*
X855318Y336970D01*
X856091Y336655D01*
X857005Y336410D01*
X858059Y336235D01*
X859255Y336130D01*
X860590Y336095D01*
Y329095D01*
X859255Y329060D01*
X858059Y328955D01*
X857005Y328780D01*
X856091Y328535D01*
X855318Y328220D01*
X854685Y327835D01*
X854193Y327380D01*
X853841Y326855D01*
X853630Y326260D01*
X853560Y325595D01*
Y339595D01*
X853630Y338930D01*
D02*
G37*
G36*
X935443Y331628D02*
X937132Y330222D01*
X937907Y329694D01*
X938637Y329282D01*
X939322Y328987D01*
X939960Y328808D01*
X940553Y328745D01*
X941100Y328799D01*
X941601Y328969D01*
X932030Y324398D01*
X932426Y324675D01*
X932655Y325047D01*
X932717Y325515D01*
X932613Y326078D01*
X932343Y326738D01*
X931906Y327493D01*
X931303Y328343D01*
X930533Y329290D01*
X928495Y331469D01*
X934530Y332505D01*
X935443Y331628D01*
D02*
G37*
G36*
X727943D02*
X729632Y330222D01*
X730407Y329694D01*
X731137Y329282D01*
X731822Y328987D01*
X732460Y328808D01*
X733053Y328745D01*
X733600Y328799D01*
X734101Y328969D01*
X724530Y324398D01*
X724926Y324675D01*
X725155Y325047D01*
X725217Y325515D01*
X725113Y326078D01*
X724843Y326738D01*
X724406Y327493D01*
X723803Y328343D01*
X723033Y329290D01*
X720995Y331469D01*
X727030Y332505D01*
X727943Y331628D01*
D02*
G37*
G36*
X520443D02*
X522132Y330222D01*
X522907Y329694D01*
X523637Y329282D01*
X524322Y328987D01*
X524960Y328808D01*
X525553Y328745D01*
X526100Y328799D01*
X526601Y328969D01*
X517030Y324398D01*
X517426Y324675D01*
X517655Y325047D01*
X517717Y325515D01*
X517613Y326078D01*
X517343Y326738D01*
X516906Y327493D01*
X516303Y328343D01*
X515533Y329290D01*
X513495Y331469D01*
X519530Y332505D01*
X520443Y331628D01*
D02*
G37*
G36*
X312943D02*
X314632Y330222D01*
X315407Y329694D01*
X316137Y329282D01*
X316822Y328987D01*
X317460Y328808D01*
X318053Y328745D01*
X318600Y328799D01*
X319102Y328969D01*
X309531Y324398D01*
X309926Y324675D01*
X310155Y325047D01*
X310217Y325515D01*
X310113Y326078D01*
X309843Y326738D01*
X309406Y327492D01*
X308803Y328343D01*
X308033Y329290D01*
X305995Y331469D01*
X312031Y332505D01*
X312943Y331628D01*
D02*
G37*
G36*
X100071Y331121D02*
X93000Y323997D01*
X87997Y329000D01*
X88078Y329071D01*
X89162Y330131D01*
X95121Y336071D01*
X100071Y331121D01*
D02*
G37*
G36*
X111602Y319061D02*
X111103Y319229D01*
X110559Y319280D01*
X109968Y319215D01*
X109330Y319033D01*
X108646Y318735D01*
X107916Y318320D01*
X107139Y317788D01*
X106316Y317140D01*
X105447Y316376D01*
X104530Y315495D01*
X98495Y316530D01*
X99600Y317671D01*
X101311Y319662D01*
X101917Y320513D01*
X102357Y321269D01*
X102630Y321928D01*
X102738Y322491D01*
X102678Y322957D01*
X102453Y323327D01*
X102061Y323602D01*
X111602Y319061D01*
D02*
G37*
G36*
X915011Y362428D02*
X913621Y361852D01*
X912222Y360779D01*
X910221Y358778D01*
X909148Y357379D01*
X908473Y355749D01*
X908242Y354000D01*
X908473Y352251D01*
X909148Y350621D01*
X910221Y349221D01*
X911621Y348148D01*
X913251Y347472D01*
X915000Y347242D01*
X916749Y347472D01*
X918379Y348148D01*
X919779Y349221D01*
X919799Y349242D01*
X921723D01*
X931559Y349157D01*
X933186Y349082D01*
X942805Y339572D01*
X950721Y331656D01*
Y318229D01*
X949970Y317673D01*
X948700Y318312D01*
Y330700D01*
X941513D01*
X941510Y330700D01*
X941508Y330700D01*
X939726D01*
X939409Y330837D01*
X938823Y331168D01*
X938176Y331608D01*
X936815Y332741D01*
X931528Y338028D01*
X930139Y338956D01*
X928500Y339282D01*
X883514D01*
X883028Y340456D01*
X883114Y340541D01*
X884284Y342569D01*
X884863Y344730D01*
X876000D01*
Y347270D01*
X884863D01*
X884589Y348292D01*
X885362Y349300D01*
X899700D01*
Y357043D01*
X899726Y357088D01*
X900463Y358133D01*
X902415Y360417D01*
X905696Y363698D01*
X914758D01*
X915011Y362428D01*
D02*
G37*
G36*
X795150Y368448D02*
X795054Y368408D01*
X793592Y366946D01*
X792800Y365034D01*
Y362966D01*
X793592Y361054D01*
X795054Y359592D01*
X796966Y358800D01*
X799034D01*
X800946Y359592D01*
X802300Y360946D01*
X802306Y360950D01*
X802383Y360995D01*
X802482Y361040D01*
X802609Y361084D01*
X802765Y361122D01*
X802950Y361153D01*
X803840D01*
X804442Y359883D01*
X803800Y358334D01*
Y356780D01*
X803797Y356756D01*
X803800Y356709D01*
Y356485D01*
X803793Y356441D01*
X803770Y356353D01*
X803730Y356249D01*
X803671Y356128D01*
X803587Y355989D01*
X803477Y355835D01*
X801314Y353672D01*
X800607Y352614D01*
X800358Y351365D01*
Y348400D01*
X800340Y348191D01*
X800289Y347884D01*
X800266Y347795D01*
X796921D01*
Y317395D01*
X810321D01*
Y347795D01*
X806976D01*
X806952Y347884D01*
X806902Y348191D01*
X806884Y348400D01*
Y350014D01*
X808414Y351545D01*
X808568Y351664D01*
X808739Y351781D01*
X808899Y351876D01*
X809047Y351951D01*
X809184Y352008D01*
X809309Y352049D01*
X809425Y352076D01*
X809587Y352100D01*
X810034D01*
X811946Y352892D01*
X813408Y354354D01*
X814088Y355996D01*
X815358Y355743D01*
Y348400D01*
X815340Y348191D01*
X815289Y347884D01*
X815266Y347795D01*
X811921D01*
Y317395D01*
X820238D01*
X820724Y316222D01*
X817931Y313429D01*
X817379Y313852D01*
X815749Y314527D01*
X814000Y314758D01*
X772030D01*
X771580Y315209D01*
X769992Y316125D01*
X770333Y317395D01*
X780321D01*
Y324181D01*
X780975Y324668D01*
X781503Y324481D01*
X781921Y324181D01*
Y317395D01*
X795321D01*
Y347795D01*
X781921D01*
Y341009D01*
X781266Y340522D01*
X780739Y340709D01*
X780321Y341009D01*
Y347795D01*
X766921D01*
Y318255D01*
X766921Y317395D01*
X765821Y316985D01*
X764950D01*
X762690Y316379D01*
X760662Y315209D01*
X760211Y314758D01*
X689758D01*
Y316460D01*
X693040D01*
Y322730D01*
X683000D01*
X672960D01*
Y316460D01*
X676242D01*
Y314758D01*
X493758D01*
Y317242D01*
X496498D01*
X496621Y317148D01*
X498251Y316472D01*
X500000Y316242D01*
X501749Y316472D01*
X503379Y317148D01*
X504779Y318221D01*
X505852Y319621D01*
X506527Y321251D01*
X506758Y323000D01*
X506527Y324749D01*
X505852Y326379D01*
X504779Y327779D01*
X504109Y328448D01*
X504577Y329718D01*
X512726D01*
X513247Y329197D01*
X514226Y328149D01*
X514922Y327294D01*
X515300Y326761D01*
Y324310D01*
X515300Y324307D01*
X515300Y324305D01*
Y317300D01*
X533700D01*
Y330700D01*
X526513D01*
X526510Y330700D01*
X526508Y330700D01*
X524726D01*
X524409Y330837D01*
X523823Y331168D01*
X523176Y331608D01*
X521815Y332741D01*
X519012Y335544D01*
X519498Y336718D01*
X713226D01*
X720747Y329197D01*
X721727Y328149D01*
X722422Y327294D01*
X722800Y326761D01*
Y324310D01*
X722800Y324307D01*
X722800Y324305D01*
Y317300D01*
X741200D01*
Y330700D01*
X734013D01*
X734010Y330700D01*
X734008Y330700D01*
X732226D01*
X731909Y330837D01*
X731323Y331168D01*
X730676Y331608D01*
X729315Y332741D01*
X723833Y338223D01*
X724359Y339493D01*
X753776D01*
X755414Y339819D01*
X756804Y340748D01*
X785774Y369718D01*
X794897D01*
X795150Y368448D01*
D02*
G37*
G36*
X479170Y332713D02*
X478684Y331540D01*
X476770D01*
Y324000D01*
Y316460D01*
X480242D01*
Y314758D01*
X286758D01*
Y317242D01*
X292000D01*
X293749Y317472D01*
X295379Y318148D01*
X296779Y319221D01*
X297852Y320621D01*
X298528Y322251D01*
X298758Y324000D01*
X298528Y325749D01*
X297852Y327379D01*
X296779Y328778D01*
X295906Y329448D01*
X296337Y330718D01*
X304226D01*
X305747Y329197D01*
X306726Y328149D01*
X307422Y327294D01*
X307800Y326761D01*
Y324310D01*
X307800Y324307D01*
X307800Y324305D01*
Y317300D01*
X326200D01*
Y330700D01*
X319013D01*
X319010Y330700D01*
X319008Y330700D01*
X317226D01*
X316909Y330837D01*
X316323Y331168D01*
X315676Y331608D01*
X314315Y332741D01*
X309028Y338028D01*
X308400Y338448D01*
X308785Y339718D01*
X472166D01*
X479170Y332713D01*
D02*
G37*
G36*
X277134Y332810D02*
X276608Y331540D01*
X269270D01*
Y324000D01*
Y316460D01*
X273242D01*
Y314758D01*
X153740D01*
X129954Y338544D01*
X130440Y339718D01*
X270226D01*
X277134Y332810D01*
D02*
G37*
G36*
X838590Y319126D02*
X838063Y319076D01*
X837487Y318928D01*
X836862Y318680D01*
X836189Y318334D01*
X835467Y317888D01*
X834696Y317344D01*
X833008Y315958D01*
X832091Y315116D01*
X831126Y314176D01*
X823702Y316651D01*
X825152Y318151D01*
X827416Y320811D01*
X828229Y321971D01*
X828830Y323018D01*
X829219Y323951D01*
X829396Y324771D01*
X829360Y325478D01*
X829112Y326071D01*
X828651Y326551D01*
X838590Y319126D01*
D02*
G37*
G36*
X153003Y313000D02*
X148000Y307997D01*
X147929Y308078D01*
X146869Y309162D01*
X140929Y315121D01*
X145879Y320071D01*
X153003Y313000D01*
D02*
G37*
G36*
X866097Y293692D02*
X865666Y292593D01*
X865561Y292255D01*
X865407Y291620D01*
X865359Y291324D01*
X865331Y291041D01*
X865321Y290773D01*
X863321Y290001D01*
X863305Y290324D01*
X863255Y290629D01*
X863173Y290915D01*
X863058Y291183D01*
X862910Y291433D01*
X862729Y291665D01*
X862515Y291878D01*
X862268Y292073D01*
X861989Y292249D01*
X861676Y292407D01*
X866280Y294087D01*
X866097Y293692D01*
D02*
G37*
G36*
X858501Y298030D02*
X857921Y296630D01*
Y294561D01*
X858713Y292650D01*
X860176Y291187D01*
X860570Y291024D01*
X860716Y290523D01*
X860289Y289988D01*
X859566Y289649D01*
X859516Y289646D01*
X859155Y289795D01*
X857087D01*
X855175Y289003D01*
X854553Y288381D01*
X854429Y288303D01*
X854236Y288120D01*
X854090Y288001D01*
X853944Y287900D01*
X853797Y287816D01*
X853646Y287746D01*
X853490Y287688D01*
X853325Y287642D01*
X853149Y287608D01*
X853101Y287603D01*
X834993D01*
X834467Y288873D01*
X835682Y290088D01*
X837157Y292010D01*
X837174Y292051D01*
X844423Y299300D01*
X857813D01*
X858501Y298030D01*
D02*
G37*
G36*
X855621Y282145D02*
X855381Y282373D01*
X855130Y282577D01*
X854869Y282757D01*
X854598Y282913D01*
X854316Y283045D01*
X854024Y283153D01*
X853721Y283237D01*
X853408Y283297D01*
X853085Y283333D01*
X852752Y283345D01*
Y285845D01*
X853085Y285857D01*
X853408Y285893D01*
X853721Y285953D01*
X854024Y286037D01*
X854316Y286145D01*
X854598Y286277D01*
X854869Y286433D01*
X855130Y286613D01*
X855381Y286817D01*
X855621Y287045D01*
Y282145D01*
D02*
G37*
G36*
X909043Y283479D02*
X908839Y283228D01*
X908659Y282967D01*
X908503Y282695D01*
X908371Y282414D01*
X908263Y282121D01*
X908179Y281819D01*
X908119Y281506D01*
X908083Y281183D01*
X908071Y280849D01*
X905571D01*
X905559Y281183D01*
X905523Y281506D01*
X905463Y281819D01*
X905379Y282121D01*
X905271Y282414D01*
X905139Y282695D01*
X904983Y282967D01*
X904803Y283228D01*
X904599Y283479D01*
X904371Y283719D01*
X909271D01*
X909043Y283479D01*
D02*
G37*
G36*
X897086Y270095D02*
X896755Y270086D01*
X896433Y270053D01*
X896121Y269996D01*
X895819Y269914D01*
X895526Y269809D01*
X895243Y269678D01*
X894970Y269524D01*
X894706Y269345D01*
X894453Y269142D01*
X894208Y268915D01*
X892440Y270682D01*
X892668Y270927D01*
X892871Y271181D01*
X893050Y271444D01*
X893204Y271718D01*
X893334Y272001D01*
X893440Y272293D01*
X893522Y272595D01*
X893579Y272907D01*
X893612Y273229D01*
X893621Y273560D01*
X897086Y270095D01*
D02*
G37*
G36*
X859739Y271817D02*
X859990Y271613D01*
X860251Y271433D01*
X860523Y271277D01*
X860804Y271145D01*
X861096Y271037D01*
X861399Y270953D01*
X861712Y270893D01*
X862035Y270857D01*
X862368Y270845D01*
Y268345D01*
X862035Y268333D01*
X861712Y268297D01*
X861399Y268237D01*
X861096Y268153D01*
X860804Y268045D01*
X860523Y267913D01*
X860251Y267757D01*
X859990Y267577D01*
X859739Y267373D01*
X859499Y267145D01*
Y272045D01*
X859739Y271817D01*
D02*
G37*
G36*
X888801Y251508D02*
X888574Y251264D01*
X888371Y251010D01*
X888192Y250746D01*
X888038Y250473D01*
X887907Y250190D01*
X887802Y249897D01*
X887720Y249595D01*
X887663Y249283D01*
X887629Y248961D01*
X887621Y248630D01*
X884156Y252095D01*
X884487Y252104D01*
X884809Y252137D01*
X885121Y252194D01*
X885423Y252276D01*
X885715Y252382D01*
X885998Y252512D01*
X886272Y252666D01*
X886535Y252845D01*
X886789Y253048D01*
X887034Y253276D01*
X888801Y251508D01*
D02*
G37*
G36*
X884086Y245095D02*
X883755Y245086D01*
X883433Y245053D01*
X883121Y244996D01*
X882819Y244914D01*
X882526Y244809D01*
X882243Y244678D01*
X881970Y244524D01*
X881706Y244345D01*
X881452Y244142D01*
X881208Y243915D01*
X879440Y245682D01*
X879668Y245927D01*
X879871Y246181D01*
X880050Y246444D01*
X880204Y246718D01*
X880334Y247001D01*
X880440Y247293D01*
X880522Y247595D01*
X880579Y247907D01*
X880612Y248229D01*
X880621Y248560D01*
X884086Y245095D01*
D02*
G37*
G36*
X811553Y243514D02*
X811306Y243307D01*
X811084Y243085D01*
X810889Y242849D01*
X810719Y242598D01*
X810576Y242333D01*
X810459Y242054D01*
X810367Y241760D01*
X810302Y241451D01*
X810263Y241128D01*
X810250Y240790D01*
X807750Y241118D01*
X807739Y241447D01*
X807708Y241769D01*
X807654Y242085D01*
X807580Y242394D01*
X807485Y242696D01*
X807368Y242992D01*
X807230Y243281D01*
X807071Y243563D01*
X806891Y243839D01*
X806689Y244108D01*
X811553Y243514D01*
D02*
G37*
G36*
X63025Y225019D02*
X63100Y224170D01*
X63225Y223419D01*
X63400Y222770D01*
X63625Y222220D01*
X63900Y221770D01*
X64225Y221420D01*
X64600Y221169D01*
X65025Y221019D01*
X65500Y220970D01*
X55500D01*
X55975Y221019D01*
X56400Y221169D01*
X56775Y221420D01*
X57100Y221770D01*
X57375Y222220D01*
X57600Y222770D01*
X57775Y223419D01*
X57900Y224170D01*
X57975Y225019D01*
X58000Y225970D01*
X63000D01*
X63025Y225019D01*
D02*
G37*
G36*
X798839Y217423D02*
X798612Y217180D01*
X798408Y216926D01*
X798228Y216663D01*
X798071Y216390D01*
X797938Y216107D01*
X797828Y215814D01*
X797741Y215512D01*
X797678Y215199D01*
X797638Y214877D01*
X797621Y214545D01*
X794242Y218093D01*
X794572Y218094D01*
X794893Y218121D01*
X795204Y218172D01*
X795505Y218249D01*
X795798Y218351D01*
X796080Y218477D01*
X796354Y218630D01*
X796618Y218807D01*
X796872Y219010D01*
X797117Y219237D01*
X798839Y217423D01*
D02*
G37*
G36*
X876354Y299964D02*
X877665Y299421D01*
X878592Y299037D01*
X879793Y298879D01*
X880994Y298721D01*
X880994Y298721D01*
X950721D01*
Y240344D01*
X939948Y229571D01*
X933351Y223023D01*
X920114Y222758D01*
X915000D01*
X913251Y222528D01*
X911621Y221852D01*
X910221Y220779D01*
X909148Y219379D01*
X908473Y217749D01*
X908242Y216000D01*
X908453Y214399D01*
X908168Y214121D01*
X907305Y213751D01*
X902028Y219028D01*
X900639Y219956D01*
X899700Y220143D01*
Y222700D01*
X881300D01*
Y209300D01*
X899644D01*
X914718Y194226D01*
Y173774D01*
X908226Y167282D01*
X905498D01*
X905032Y168552D01*
X905852Y169621D01*
X906527Y171251D01*
X906758Y173000D01*
Y174500D01*
X906527Y176249D01*
X905852Y177879D01*
X904779Y179279D01*
X903704Y180353D01*
X902393Y181706D01*
X901490Y182730D01*
X899197D01*
X899353Y182531D01*
X901121Y180529D01*
X903536Y178036D01*
X895470Y171959D01*
X893973Y173436D01*
X888459Y178265D01*
X887749Y178719D01*
X887171Y179004D01*
X886724Y179118D01*
X886408Y179061D01*
X892887Y182730D01*
X890500D01*
Y184000D01*
X889230D01*
Y191540D01*
X880460D01*
Y183281D01*
X879287Y182795D01*
X877127Y184955D01*
X877127Y184955D01*
X869008Y193074D01*
Y229228D01*
X882698Y242919D01*
X882736Y242949D01*
X882885Y243050D01*
X883034Y243134D01*
X883185Y243203D01*
X883341Y243260D01*
X883504Y243304D01*
X883679Y243336D01*
X883867Y243356D01*
X884132Y243363D01*
X884275Y243395D01*
X885155D01*
X887066Y244187D01*
X888529Y245650D01*
X889321Y247561D01*
Y248441D01*
X889353Y248584D01*
X889360Y248850D01*
X889380Y249037D01*
X889412Y249211D01*
X889456Y249375D01*
X889512Y249531D01*
X889582Y249683D01*
X889666Y249832D01*
X889767Y249980D01*
X889797Y250018D01*
X908948Y269168D01*
X908948Y269168D01*
X909600Y270144D01*
X909829Y271295D01*
Y281199D01*
X909834Y281246D01*
X909868Y281423D01*
X909914Y281588D01*
X909971Y281744D01*
X910042Y281895D01*
X910126Y282041D01*
X910227Y282188D01*
X910346Y282334D01*
X910528Y282526D01*
X910607Y282651D01*
X911229Y283273D01*
X912021Y285184D01*
Y287253D01*
X911229Y289164D01*
X909766Y290627D01*
X907855Y291419D01*
X905787D01*
X903875Y290627D01*
X902412Y289164D01*
X901621Y287253D01*
Y285184D01*
X902412Y283273D01*
X903035Y282651D01*
X903113Y282526D01*
X903296Y282334D01*
X903415Y282188D01*
X903515Y282041D01*
X903600Y281895D01*
X903670Y281744D01*
X903728Y281588D01*
X903774Y281423D01*
X903808Y281246D01*
X903813Y281199D01*
Y273452D01*
X903769Y273378D01*
X903591Y273280D01*
X902321Y274031D01*
Y274629D01*
X901529Y276541D01*
X900066Y278003D01*
X898155Y278795D01*
X896087D01*
X894175Y278003D01*
X892712Y276541D01*
X891921Y274629D01*
Y273750D01*
X891888Y273606D01*
X891881Y273341D01*
X891862Y273153D01*
X891830Y272979D01*
X891786Y272815D01*
X891729Y272659D01*
X891703Y272603D01*
X862019D01*
X861971Y272608D01*
X861795Y272642D01*
X861630Y272688D01*
X861474Y272746D01*
X861323Y272816D01*
X861176Y272900D01*
X861030Y273001D01*
X861005Y273022D01*
X860869Y273262D01*
X860731Y274544D01*
X866267Y280080D01*
X866864Y280973D01*
X867074Y282027D01*
X867074Y282027D01*
Y291052D01*
X867078Y291097D01*
X867108Y291278D01*
X867232Y291793D01*
X867302Y292018D01*
X867692Y293012D01*
X867853Y293360D01*
X867894Y293529D01*
X868321Y294561D01*
Y296630D01*
X867741Y298030D01*
X868430Y299300D01*
X872918D01*
X875319Y299616D01*
X876286Y300016D01*
X876354Y299964D01*
D02*
G37*
G36*
X957478Y223372D02*
X946826Y212537D01*
X934200Y220412D01*
Y210693D01*
X933992Y210752D01*
X933490Y210804D01*
X931606Y210890D01*
X918910Y211000D01*
Y221000D01*
X934069Y221304D01*
X934261Y221485D01*
X949818Y236925D01*
X957478Y223372D01*
D02*
G37*
G36*
X127478D02*
X116826Y212537D01*
X103537Y220826D01*
X103741Y220995D01*
X104261Y221485D01*
X119818Y236925D01*
X127478Y223372D01*
D02*
G37*
G36*
X675530Y211031D02*
X675480Y211500D01*
X675331Y211919D01*
X675080Y212290D01*
X674731Y212611D01*
X674280Y212883D01*
X673730Y213105D01*
X673081Y213278D01*
X672330Y213401D01*
X671480Y213475D01*
X670530Y213500D01*
Y218500D01*
X671480Y218525D01*
X672330Y218599D01*
X673081Y218722D01*
X673730Y218895D01*
X674280Y219117D01*
X674731Y219389D01*
X675080Y219710D01*
X675331Y220081D01*
X675480Y220500D01*
X675530Y220970D01*
Y211031D01*
D02*
G37*
G36*
X311700Y210693D02*
X311492Y210752D01*
X310990Y210804D01*
X309106Y210890D01*
X296410Y211000D01*
Y221000D01*
X311700Y221307D01*
Y210693D01*
D02*
G37*
G36*
X960996Y398730D02*
X958756Y397357D01*
X955459Y394541D01*
X952643Y391244D01*
X950377Y387546D01*
X948717Y383540D01*
X947705Y379323D01*
X947365Y375000D01*
X947705Y370677D01*
X948717Y366460D01*
X950377Y362454D01*
X952643Y358756D01*
X955459Y355459D01*
X958756Y352643D01*
X962454Y350377D01*
X966460Y348717D01*
X970677Y347705D01*
X975000Y347365D01*
X979323Y347705D01*
X983540Y348717D01*
X987546Y350377D01*
X991244Y352643D01*
X994541Y355459D01*
X997357Y358756D01*
X998730Y360997D01*
X1000000Y360638D01*
Y39362D01*
X998730Y39004D01*
X997357Y41244D01*
X994541Y44541D01*
X991244Y47357D01*
X987546Y49623D01*
X983540Y51283D01*
X979323Y52295D01*
X975000Y52635D01*
X970677Y52295D01*
X966460Y51283D01*
X962454Y49623D01*
X958756Y47357D01*
X955459Y44541D01*
X952643Y41244D01*
X950377Y37546D01*
X948717Y33540D01*
X947705Y29323D01*
X947365Y25000D01*
X947705Y20677D01*
X948717Y16460D01*
X950377Y12454D01*
X952643Y8756D01*
X955459Y5459D01*
X958756Y2643D01*
X960996Y1270D01*
X960638Y0D01*
X39362D01*
X39004Y1270D01*
X41244Y2643D01*
X44541Y5459D01*
X47357Y8756D01*
X49623Y12454D01*
X51283Y16460D01*
X52295Y20677D01*
X52635Y25000D01*
X52295Y29323D01*
X51283Y33540D01*
X50599Y35190D01*
X51448Y36460D01*
X56543D01*
X56865Y36326D01*
X57969Y35754D01*
X59128Y35039D01*
X60319Y34193D01*
X62913Y32013D01*
X63355Y31588D01*
X71722Y23221D01*
X73121Y22148D01*
X74751Y21472D01*
X76500Y21242D01*
X874500D01*
X876249Y21472D01*
X877879Y22148D01*
X879278Y23221D01*
X887176Y31119D01*
X889420Y33189D01*
X890663Y34181D01*
X891872Y35039D01*
X893031Y35754D01*
X894135Y36326D01*
X894457Y36460D01*
X900540D01*
Y37242D01*
X911498D01*
X911621Y37148D01*
X913251Y36472D01*
X915000Y36242D01*
X916749Y36472D01*
X918379Y37148D01*
X919779Y38221D01*
X920852Y39621D01*
X921527Y41251D01*
X921758Y43000D01*
X921527Y44749D01*
X920852Y46379D01*
X919779Y47779D01*
X918779Y48779D01*
X917379Y49852D01*
X915749Y50528D01*
X916034Y51718D01*
X925726D01*
X928247Y49197D01*
X929227Y48149D01*
X929922Y47294D01*
X930300Y46761D01*
Y44310D01*
X930300Y44307D01*
X930300Y44305D01*
Y37300D01*
X948700D01*
Y50700D01*
X941513D01*
X941510Y50700D01*
X941508Y50700D01*
X939726D01*
X939409Y50837D01*
X938823Y51168D01*
X938176Y51608D01*
X936815Y52741D01*
X931108Y58448D01*
X931634Y59718D01*
X948000D01*
X949639Y60044D01*
X951028Y60972D01*
X960028Y69972D01*
X960956Y71361D01*
X961282Y73000D01*
Y169000D01*
X960956Y170639D01*
X960028Y172028D01*
X950842Y181214D01*
X949973Y182149D01*
X949338Y182941D01*
X948846Y183645D01*
X948700Y183899D01*
Y190700D01*
X930300D01*
Y177300D01*
X942101D01*
X942355Y177154D01*
X943040Y176675D01*
X944541Y175403D01*
X952718Y167226D01*
Y155103D01*
X951448Y154851D01*
X951408Y154946D01*
X951039Y155315D01*
X950749Y155749D01*
X950315Y156039D01*
X949946Y156408D01*
X949463Y156608D01*
X949029Y156898D01*
X948517Y157000D01*
X948034Y157200D01*
X947512D01*
X947000Y157302D01*
X946488Y157200D01*
X945966D01*
X945483Y157000D01*
X944971Y156898D01*
X944537Y156608D01*
X944054Y156408D01*
X943948Y156302D01*
X879711D01*
X878469Y157544D01*
X878955Y158718D01*
X910000D01*
X911639Y159044D01*
X913028Y159972D01*
X922028Y168972D01*
X922956Y170361D01*
X923282Y172000D01*
Y196000D01*
X922956Y197639D01*
X922028Y199028D01*
X912751Y208305D01*
X913121Y209168D01*
X913399Y209453D01*
X915000Y209242D01*
X921720D01*
X931559Y209157D01*
X933361Y209075D01*
X933421Y209068D01*
X934860Y207964D01*
X937098Y207037D01*
X939500Y206721D01*
X941902Y207037D01*
X944140Y207964D01*
X946061Y209438D01*
X946223Y209600D01*
X947528Y210472D01*
X948166Y211427D01*
X954921Y218298D01*
X966561Y229939D01*
X966562Y229939D01*
X968036Y231860D01*
X968963Y234098D01*
X969279Y236500D01*
X969279Y236500D01*
Y304000D01*
Y335500D01*
X969279Y335500D01*
X968963Y337902D01*
X968036Y340140D01*
X966562Y342062D01*
X966561Y342062D01*
X953032Y355591D01*
X948524Y360151D01*
X948271Y360428D01*
X948210Y360508D01*
X947528Y361528D01*
X946223Y362400D01*
X946061Y362561D01*
X944140Y364036D01*
X941902Y364963D01*
X939500Y365279D01*
X937098Y364963D01*
X934860Y364036D01*
X933545Y363027D01*
X920115Y362758D01*
X919106D01*
X918018Y364028D01*
X918029Y364102D01*
X918463Y364392D01*
X918946Y364592D01*
X919315Y364961D01*
X919749Y365251D01*
X920039Y365685D01*
X920408Y366054D01*
X920608Y366537D01*
X920898Y366971D01*
X921000Y367483D01*
X921200Y367966D01*
Y368488D01*
X921302Y369000D01*
X921200Y369512D01*
Y370034D01*
X921000Y370517D01*
X920898Y371029D01*
X920608Y371463D01*
X920408Y371946D01*
X920039Y372315D01*
X919749Y372749D01*
X919315Y373039D01*
X918946Y373408D01*
X918463Y373608D01*
X918029Y373898D01*
X917517Y374000D01*
X917034Y374200D01*
X916512D01*
X916000Y374302D01*
X903500D01*
X901471Y373898D01*
X899751Y372749D01*
X892560Y365558D01*
X891787Y364877D01*
X890695Y364015D01*
X889703Y363335D01*
X888824Y362837D01*
X888503Y362700D01*
X885608D01*
X885595Y362703D01*
X885581Y362700D01*
X882661D01*
Y378325D01*
X871121D01*
Y380865D01*
X882661D01*
Y400000D01*
X960638D01*
X960996Y398730D01*
D02*
G37*
G36*
X657232Y227451D02*
X635593Y205812D01*
X527126D01*
X526902Y207037D01*
X529140Y207964D01*
X531062Y209438D01*
X531146Y209548D01*
X532528Y210472D01*
X533456Y211861D01*
X533782Y213500D01*
Y218500D01*
X533779Y218514D01*
Y228721D01*
X656706D01*
X657232Y227451D01*
D02*
G37*
G36*
X798685Y208745D02*
X798480Y208519D01*
X798296Y208274D01*
X798134Y208009D01*
X797995Y207726D01*
X797877Y207424D01*
X797782Y207103D01*
X797709Y206763D01*
X797657Y206405D01*
X797628Y206027D01*
X797621Y205630D01*
X794156Y209095D01*
X794553Y209102D01*
X794931Y209131D01*
X795290Y209183D01*
X795629Y209256D01*
X795950Y209351D01*
X796252Y209469D01*
X796535Y209608D01*
X796799Y209770D01*
X797045Y209953D01*
X797271Y210159D01*
X798685Y208745D01*
D02*
G37*
G36*
X852273Y271772D02*
X851799Y270629D01*
Y268561D01*
X852591Y266649D01*
X854054Y265187D01*
X855965Y264395D01*
X858034D01*
X859945Y265187D01*
X860567Y265809D01*
X860692Y265888D01*
X860884Y266070D01*
X861030Y266189D01*
X861176Y266290D01*
X861323Y266374D01*
X861474Y266445D01*
X861630Y266502D01*
X861795Y266548D01*
X861971Y266582D01*
X862019Y266587D01*
X893121D01*
X894272Y266816D01*
X895248Y267468D01*
X895698Y267919D01*
X895736Y267949D01*
X895884Y268050D01*
X896034Y268134D01*
X896185Y268203D01*
X896341Y268260D01*
X896504Y268304D01*
X896679Y268336D01*
X896867Y268356D01*
X897132Y268363D01*
X897275Y268395D01*
X897871D01*
X898392Y267574D01*
X898494Y267222D01*
X885544Y254271D01*
X885506Y254242D01*
X885357Y254140D01*
X885208Y254056D01*
X885057Y253987D01*
X884901Y253930D01*
X884737Y253886D01*
X884563Y253854D01*
X884375Y253835D01*
X884110Y253828D01*
X883966Y253795D01*
X883086D01*
X881175Y253003D01*
X879713Y251541D01*
X878921Y249629D01*
Y248750D01*
X878888Y248606D01*
X878881Y248341D01*
X878862Y248153D01*
X878830Y247979D01*
X878786Y247815D01*
X878729Y247659D01*
X878660Y247508D01*
X878575Y247359D01*
X878475Y247210D01*
X878445Y247172D01*
X863873Y232601D01*
X863221Y231625D01*
X862992Y230474D01*
Y194603D01*
X814185D01*
X814137Y194608D01*
X813965Y194642D01*
X813807Y194687D01*
X813659Y194744D01*
X813517Y194813D01*
X813379Y194896D01*
X813242Y194995D01*
X813105Y195112D01*
X812921Y195297D01*
X812790Y195385D01*
X812789Y195385D01*
X812701Y195516D01*
X812516Y195699D01*
X812398Y195835D01*
X812300Y195970D01*
X812217Y196107D01*
X812149Y196247D01*
X812092Y196394D01*
X812047Y196551D01*
X812013Y196722D01*
X812008Y196771D01*
Y241118D01*
X812014Y241168D01*
X812047Y241323D01*
X812089Y241460D01*
X812141Y241584D01*
X812203Y241698D01*
X812277Y241808D01*
X812323Y241864D01*
X812370Y241883D01*
X813833Y243346D01*
X814624Y245257D01*
Y247326D01*
X813833Y249237D01*
X812370Y250700D01*
X811227Y251173D01*
X810923Y252665D01*
X831300Y273042D01*
X851433D01*
X852273Y271772D01*
D02*
G37*
G36*
X810262Y196778D02*
X810299Y196455D01*
X810361Y196143D01*
X810447Y195843D01*
X810558Y195554D01*
X810694Y195277D01*
X810854Y195011D01*
X811039Y194757D01*
X811249Y194514D01*
X811483Y194283D01*
X806586Y194113D01*
X806807Y194363D01*
X807005Y194621D01*
X807180Y194888D01*
X807331Y195165D01*
X807459Y195452D01*
X807564Y195747D01*
X807645Y196051D01*
X807703Y196365D01*
X807738Y196688D01*
X807750Y197020D01*
X810250Y197113D01*
X810262Y196778D01*
D02*
G37*
G36*
X811925Y193841D02*
X812169Y193632D01*
X812424Y193447D01*
X812691Y193288D01*
X812969Y193152D01*
X813258Y193042D01*
X813559Y192956D01*
X813870Y192894D01*
X814194Y192857D01*
X814528Y192845D01*
X814448Y190345D01*
X814116Y190333D01*
X813792Y190298D01*
X813479Y190240D01*
X813175Y190158D01*
X812880Y190053D01*
X812594Y189924D01*
X812318Y189772D01*
X812051Y189597D01*
X811794Y189398D01*
X811546Y189176D01*
X811693Y194074D01*
X811925Y193841D01*
D02*
G37*
G36*
X739520Y188500D02*
X739669Y188081D01*
X739920Y187710D01*
X740269Y187389D01*
X740720Y187117D01*
X741270Y186895D01*
X741919Y186722D01*
X742670Y186599D01*
X743520Y186525D01*
X744470Y186500D01*
Y181500D01*
X743520Y181475D01*
X742670Y181401D01*
X741919Y181278D01*
X741270Y181105D01*
X740720Y180883D01*
X740269Y180611D01*
X739920Y180290D01*
X739669Y179919D01*
X739520Y179500D01*
X739470Y179030D01*
Y188969D01*
X739520Y188500D01*
D02*
G37*
G36*
X532020D02*
X532169Y188081D01*
X532420Y187710D01*
X532770Y187389D01*
X533219Y187117D01*
X533769Y186895D01*
X534420Y186722D01*
X535169Y186599D01*
X536020Y186525D01*
X536969Y186500D01*
Y181500D01*
X536020Y181475D01*
X535169Y181401D01*
X534420Y181278D01*
X533769Y181105D01*
X533219Y180883D01*
X532770Y180611D01*
X532420Y180290D01*
X532169Y179919D01*
X532020Y179500D01*
X531969Y179030D01*
Y188969D01*
X532020Y188500D01*
D02*
G37*
G36*
X946659Y185715D02*
X946521Y185258D01*
X946524Y184729D01*
X946668Y184129D01*
X946954Y183458D01*
X947382Y182715D01*
X947950Y181901D01*
X948660Y181015D01*
X950505Y179030D01*
X946970Y175495D01*
X945941Y176488D01*
X944099Y178050D01*
X943285Y178618D01*
X942542Y179046D01*
X941871Y179332D01*
X941271Y179476D01*
X940742Y179479D01*
X940285Y179341D01*
X939898Y179061D01*
X946939Y186102D01*
X946659Y185715D01*
D02*
G37*
G36*
X872873Y180701D02*
X872873Y180701D01*
X878161Y175414D01*
X877921Y174834D01*
Y172766D01*
X878712Y170854D01*
X880175Y169392D01*
X882087Y168600D01*
X884155D01*
X886067Y169392D01*
X887529Y170854D01*
X888321Y172766D01*
Y174394D01*
X889503Y175047D01*
X892667Y172276D01*
X893439Y171504D01*
X893473Y171251D01*
X894148Y169621D01*
X894968Y168552D01*
X894502Y167282D01*
X878178D01*
X858432Y187028D01*
X858000Y187317D01*
X858385Y188587D01*
X864987D01*
X872873Y180701D01*
D02*
G37*
G36*
X718703Y88175D02*
X720173Y87915D01*
X721410Y87503D01*
X722431Y86953D01*
X723268Y86268D01*
X723953Y85431D01*
X724503Y84410D01*
X724627Y84038D01*
X724486Y83425D01*
X724287Y82758D01*
X710023D01*
X709992Y82771D01*
X708243Y83001D01*
X706494Y82771D01*
X704864Y82095D01*
X703465Y81021D01*
X702391Y79622D01*
X701715Y77992D01*
X701671Y77656D01*
X700330Y77201D01*
X698503Y79028D01*
X697114Y79956D01*
X695475Y80282D01*
X694316D01*
X693886Y80320D01*
X693284Y80419D01*
X692819Y80542D01*
X692497Y80673D01*
X692314Y80783D01*
X692242Y80849D01*
X692228Y80869D01*
X692221Y80889D01*
X692200Y81088D01*
Y82700D01*
X690484D01*
X690470Y82703D01*
X690455Y82700D01*
X673800D01*
Y70982D01*
X534280D01*
X533534Y72252D01*
X533782Y73500D01*
Y78500D01*
X533541Y79711D01*
X533541Y79713D01*
X533540Y79716D01*
X533456Y80139D01*
X533316Y80349D01*
X533315Y80350D01*
X532915Y81022D01*
X532585Y81718D01*
X532284Y82519D01*
X532014Y83425D01*
X531781Y84437D01*
X531593Y85516D01*
X531442Y87307D01*
X532302Y88242D01*
X717420D01*
X718703Y88175D01*
D02*
G37*
G36*
X747000Y90000D02*
X745100Y89900D01*
X743400Y89600D01*
X742900Y89433D01*
X741900Y89100D01*
X740600Y88400D01*
X739500Y87500D01*
X738600Y86400D01*
X737900Y85100D01*
X737576Y84127D01*
X737581Y84093D01*
X737837Y82983D01*
X738140Y81966D01*
X738489Y81040D01*
X738884Y80206D01*
X739326Y79464D01*
X724674D01*
X725116Y80206D01*
X725511Y81040D01*
X725860Y81966D01*
X726163Y82983D01*
X726418Y84093D01*
X726424Y84127D01*
X726100Y85100D01*
X725400Y86400D01*
X724500Y87500D01*
X723400Y88400D01*
X722100Y89100D01*
X720600Y89600D01*
X718900Y89900D01*
X717000Y90000D01*
X732000Y100000D01*
X747000Y90000D01*
D02*
G37*
G36*
X529523Y89449D02*
X529872Y85294D01*
X530081Y84093D01*
X530337Y82983D01*
X530640Y81966D01*
X530989Y81040D01*
X531384Y80206D01*
X531826Y79464D01*
X517174D01*
X517616Y80206D01*
X518011Y81040D01*
X518360Y81966D01*
X518663Y82983D01*
X518918Y84093D01*
X519128Y85294D01*
X519407Y87972D01*
X519477Y89449D01*
X519500Y91018D01*
X529500D01*
X529523Y89449D01*
D02*
G37*
G36*
X322023D02*
X322372Y85294D01*
X322581Y84093D01*
X322837Y82983D01*
X323140Y81966D01*
X323489Y81040D01*
X323884Y80206D01*
X324326Y79464D01*
X309674D01*
X310116Y80206D01*
X310511Y81040D01*
X310860Y81966D01*
X311163Y82983D01*
X311418Y84093D01*
X311628Y85294D01*
X311907Y87972D01*
X311977Y89449D01*
X312000Y91018D01*
X322000D01*
X322023Y89449D01*
D02*
G37*
G36*
X935733Y86875D02*
X939282Y83884D01*
X940397Y83104D01*
X941478Y82431D01*
X942525Y81868D01*
X943539Y81412D01*
X944518Y81065D01*
X945463Y80826D01*
X932174Y72537D01*
X931935Y73482D01*
X931588Y74461D01*
X931132Y75475D01*
X930568Y76522D01*
X929896Y77603D01*
X929116Y78718D01*
X927230Y81050D01*
X926125Y82267D01*
X924911Y83518D01*
X934482Y88089D01*
X935733Y86875D01*
D02*
G37*
G36*
X124089Y83518D02*
X122875Y82267D01*
X119884Y78718D01*
X119104Y77603D01*
X118432Y76522D01*
X117868Y75475D01*
X117412Y74461D01*
X117065Y73482D01*
X116826Y72537D01*
X103537Y80826D01*
X104482Y81065D01*
X105461Y81412D01*
X106475Y81868D01*
X107522Y82431D01*
X108603Y83104D01*
X109718Y83884D01*
X112050Y85770D01*
X113267Y86875D01*
X114518Y88089D01*
X124089Y83518D01*
D02*
G37*
G36*
X690519Y80500D02*
X690669Y80080D01*
X690919Y79710D01*
X691270Y79389D01*
X691720Y79117D01*
X692270Y78895D01*
X692919Y78722D01*
X693670Y78599D01*
X694520Y78525D01*
X695470Y78500D01*
Y73500D01*
X694520Y73475D01*
X693670Y73401D01*
X692919Y73278D01*
X692270Y73105D01*
X691720Y72883D01*
X691270Y72611D01*
X690919Y72290D01*
X690669Y71919D01*
X690519Y71500D01*
X690470Y71031D01*
Y80969D01*
X690519Y80500D01*
D02*
G37*
G36*
X922012Y83931D02*
X921526Y82758D01*
X915000D01*
X913251Y82528D01*
X911621Y81852D01*
X910221Y80779D01*
X909148Y79379D01*
X908473Y77749D01*
X908242Y76000D01*
X908473Y74251D01*
X909148Y72621D01*
X910221Y71221D01*
X911621Y70148D01*
X913251Y69472D01*
X912966Y68282D01*
X904274D01*
X901741Y70815D01*
X900767Y71856D01*
X900068Y72713D01*
X899700Y73231D01*
Y82700D01*
X881300D01*
Y69300D01*
X890307D01*
X890577Y69182D01*
X891165Y68848D01*
X891814Y68405D01*
X893177Y67267D01*
X898892Y61552D01*
X898366Y60282D01*
X717249D01*
X709559Y67972D01*
X710085Y69242D01*
X726877D01*
X727000Y69218D01*
X737000D01*
X738639Y69544D01*
X740028Y70472D01*
X740956Y71861D01*
X741282Y73500D01*
Y78500D01*
X741041Y79711D01*
X741041Y79713D01*
X741040Y79716D01*
X740956Y80139D01*
X740816Y80349D01*
X740815Y80350D01*
X740415Y81022D01*
X740086Y81718D01*
X739784Y82519D01*
X739514Y83425D01*
X739373Y84038D01*
X739497Y84410D01*
X740047Y85431D01*
X740732Y86268D01*
X741569Y86953D01*
X742590Y87503D01*
X743827Y87915D01*
X745297Y88175D01*
X746581Y88242D01*
X917701D01*
X922012Y83931D01*
D02*
G37*
G36*
X897547Y75327D02*
X897322Y74957D01*
X897262Y74490D01*
X897370Y73928D01*
X897643Y73269D01*
X898083Y72513D01*
X898689Y71662D01*
X899461Y70714D01*
X901505Y68531D01*
X895470Y67495D01*
X894554Y68376D01*
X892861Y69788D01*
X892084Y70320D01*
X891354Y70735D01*
X890670Y71033D01*
X890032Y71215D01*
X889441Y71280D01*
X888897Y71229D01*
X888398Y71061D01*
X897939Y75602D01*
X897547Y75327D01*
D02*
G37*
G36*
X482659Y77715D02*
X482521Y77258D01*
X482524Y76729D01*
X482668Y76129D01*
X482954Y75458D01*
X483382Y74715D01*
X483950Y73901D01*
X484660Y73015D01*
X486505Y71031D01*
X482970Y67495D01*
X481941Y68488D01*
X480099Y70050D01*
X479285Y70618D01*
X478543Y71046D01*
X477871Y71332D01*
X477271Y71476D01*
X476742Y71479D01*
X476285Y71341D01*
X475898Y71061D01*
X482939Y78102D01*
X482659Y77715D01*
D02*
G37*
G36*
X275047Y75327D02*
X274822Y74957D01*
X274762Y74490D01*
X274870Y73928D01*
X275143Y73269D01*
X275583Y72513D01*
X276189Y71662D01*
X276961Y70714D01*
X279005Y68531D01*
X272970Y67495D01*
X272054Y68376D01*
X270361Y69788D01*
X269584Y70320D01*
X268854Y70735D01*
X268170Y71033D01*
X267532Y71215D01*
X266941Y71280D01*
X266397Y71229D01*
X265898Y71061D01*
X275439Y75602D01*
X275047Y75327D01*
D02*
G37*
G36*
X67547Y75327D02*
X67322Y74957D01*
X67263Y74490D01*
X67370Y73928D01*
X67643Y73269D01*
X68083Y72513D01*
X68689Y71662D01*
X69461Y70714D01*
X71505Y68531D01*
X65469Y67495D01*
X64553Y68376D01*
X62861Y69788D01*
X62084Y70320D01*
X61354Y70735D01*
X60670Y71033D01*
X60032Y71215D01*
X59441Y71280D01*
X58897Y71229D01*
X58398Y71061D01*
X67939Y75602D01*
X67547Y75327D01*
D02*
G37*
G36*
X498027Y51917D02*
X497434Y50714D01*
X497100Y50758D01*
X485540D01*
Y51540D01*
X476770D01*
Y44000D01*
X475500D01*
Y42730D01*
X465460D01*
Y36460D01*
X466952D01*
X467167Y36028D01*
X466382Y34758D01*
X298549D01*
X297980Y36028D01*
X298528Y37351D01*
X298758Y39100D01*
X298528Y40849D01*
X297852Y42479D01*
X296779Y43878D01*
X292909Y47748D01*
X293435Y49018D01*
X301926D01*
X305917Y45027D01*
X306391Y44491D01*
X306999Y43724D01*
X307471Y43041D01*
X307800Y42464D01*
Y37300D01*
X326200D01*
Y50700D01*
X312778D01*
X312123Y51163D01*
X310539Y52517D01*
X308512Y54544D01*
X308998Y55718D01*
X494226D01*
X498027Y51917D01*
D02*
G37*
G36*
X707816Y48128D02*
X707290Y46858D01*
X693040D01*
Y51540D01*
X684270D01*
Y44000D01*
X683000D01*
Y42730D01*
X672960D01*
Y36460D01*
X674642D01*
X674814Y36277D01*
X674849Y35721D01*
X674085Y34758D01*
X504827D01*
X504396Y36028D01*
X504779Y36321D01*
X505852Y37721D01*
X506527Y39351D01*
X506758Y41100D01*
X506714Y41434D01*
X507917Y42027D01*
X508361Y41583D01*
X509751Y40655D01*
X511389Y40328D01*
X513182D01*
X513621Y40290D01*
X514226Y40190D01*
X514693Y40065D01*
X515018Y39932D01*
X515205Y39819D01*
X515280Y39749D01*
X515298Y39723D01*
X515300Y39718D01*
Y37300D01*
X533700D01*
Y50700D01*
X517039D01*
X517025Y50703D01*
X517011Y50700D01*
X515300D01*
Y49261D01*
X515167Y49201D01*
X514807Y49091D01*
X514329Y48995D01*
X513227Y48893D01*
X513163D01*
X500812Y61244D01*
X501298Y62418D01*
X693526D01*
X707816Y48128D01*
D02*
G37*
G36*
X935443Y51628D02*
X937132Y50222D01*
X937907Y49694D01*
X938637Y49282D01*
X939322Y48987D01*
X939960Y48808D01*
X940553Y48745D01*
X941100Y48799D01*
X941601Y48969D01*
X932030Y44398D01*
X932426Y44675D01*
X932655Y45047D01*
X932717Y45515D01*
X932613Y46078D01*
X932343Y46738D01*
X931906Y47493D01*
X931303Y48343D01*
X930533Y49290D01*
X928495Y51469D01*
X934530Y52505D01*
X935443Y51628D01*
D02*
G37*
G36*
X309126Y51445D02*
X311057Y49794D01*
X311894Y49202D01*
X312644Y48768D01*
X313308Y48489D01*
X313886Y48367D01*
X314377Y48401D01*
X314783Y48592D01*
X315102Y48939D01*
X309561Y40399D01*
X309774Y40852D01*
X309860Y41362D01*
X309819Y41928D01*
X309652Y42550D01*
X309359Y43229D01*
X308939Y43965D01*
X308393Y44756D01*
X307720Y45604D01*
X306921Y46509D01*
X305995Y47470D01*
X308030Y52505D01*
X309126Y51445D01*
D02*
G37*
G36*
X517061Y39611D02*
X517009Y40086D01*
X516857Y40511D01*
X516605Y40886D01*
X516252Y41211D01*
X515799Y41486D01*
X515246Y41711D01*
X514593Y41886D01*
X513839Y42011D01*
X512985Y42086D01*
X512030Y42111D01*
Y47111D01*
X512980Y47129D01*
X514580Y47278D01*
X515230Y47408D01*
X515780Y47575D01*
X516231Y47780D01*
X516581Y48021D01*
X516830Y48300D01*
X516981Y48616D01*
X517030Y48969D01*
X517061Y39611D01*
D02*
G37*
G36*
X724561Y39111D02*
X724509Y39586D01*
X724357Y40011D01*
X724105Y40386D01*
X723752Y40711D01*
X723299Y40986D01*
X722746Y41211D01*
X722093Y41386D01*
X721339Y41511D01*
X720485Y41586D01*
X719530Y41611D01*
Y46611D01*
X720480Y46634D01*
X721330Y46705D01*
X722081Y46823D01*
X722730Y46988D01*
X723280Y47200D01*
X723730Y47460D01*
X724081Y47767D01*
X724331Y48120D01*
X724481Y48521D01*
X724530Y48969D01*
X724561Y39111D01*
D02*
G37*
G36*
X880460Y51540D02*
Y45457D01*
X880326Y45135D01*
X879754Y44031D01*
X879039Y42872D01*
X878193Y41681D01*
X876013Y39087D01*
X875588Y38645D01*
X871701Y34758D01*
X713947D01*
X713320Y36028D01*
X713852Y36721D01*
X714528Y38351D01*
X714700Y39663D01*
X715672Y40257D01*
X716011Y40315D01*
X716251Y40155D01*
X717889Y39829D01*
X720682D01*
X721121Y39790D01*
X721726Y39690D01*
X722193Y39564D01*
X722518Y39432D01*
X722705Y39319D01*
X722781Y39249D01*
X722798Y39223D01*
X722800Y39218D01*
Y37300D01*
X741200D01*
Y50700D01*
X741809Y51718D01*
X879264D01*
X880460Y51540D01*
D02*
G37*
G36*
X257960Y45270D02*
X268000D01*
Y42730D01*
X257960D01*
Y36460D01*
X259452D01*
X259667Y36028D01*
X258882Y34758D01*
X79299D01*
X76629Y37428D01*
X77155Y38698D01*
X81189D01*
X81480Y38407D01*
X83632Y37516D01*
Y43527D01*
X84902D01*
Y44797D01*
X90913D01*
X90022Y46949D01*
X89223Y47748D01*
X89749Y49018D01*
X100300D01*
Y37300D01*
X118700D01*
Y49018D01*
X257960D01*
Y45270D01*
D02*
G37*
G36*
X897970Y39030D02*
X896879Y38960D01*
X895754Y38748D01*
X894595Y38394D01*
X893403Y37899D01*
X892176Y37263D01*
X890915Y36485D01*
X889620Y35566D01*
X888291Y34505D01*
X885530Y31959D01*
X875959Y36530D01*
X877303Y37928D01*
X879566Y40620D01*
X880485Y41915D01*
X881263Y43176D01*
X881899Y44403D01*
X882394Y45595D01*
X882748Y46754D01*
X882960Y47879D01*
X883030Y48969D01*
X897970Y39030D01*
D02*
G37*
G36*
X690000Y38950D02*
X689581Y38709D01*
X689210Y38308D01*
X688889Y37746D01*
X688617Y37023D01*
X688395Y36140D01*
X688222Y35096D01*
X688099Y33891D01*
X688000Y31000D01*
X678000D01*
X677975Y32526D01*
X677778Y35096D01*
X677605Y36140D01*
X677383Y37023D01*
X677111Y37746D01*
X676790Y38308D01*
X676420Y38709D01*
X676000Y38950D01*
X675530Y39030D01*
X690470D01*
X690000Y38950D01*
D02*
G37*
G36*
X482500Y38930D02*
X482080Y38630D01*
X481710Y38131D01*
X481389Y37431D01*
X481117Y36530D01*
X480895Y35431D01*
X480722Y34130D01*
X480525Y30931D01*
X480500Y29030D01*
X470500D01*
X470475Y30931D01*
X470105Y35431D01*
X469883Y36530D01*
X469611Y37431D01*
X469290Y38131D01*
X468919Y38630D01*
X468500Y38930D01*
X468031Y39030D01*
X482970D01*
X482500Y38930D01*
D02*
G37*
G36*
X275000D02*
X274580Y38630D01*
X274210Y38131D01*
X273889Y37431D01*
X273617Y36530D01*
X273395Y35431D01*
X273222Y34130D01*
X273025Y30931D01*
X273000Y29030D01*
X263000D01*
X262975Y30931D01*
X262605Y35431D01*
X262383Y36530D01*
X262111Y37431D01*
X261790Y38131D01*
X261420Y38630D01*
X261000Y38930D01*
X260530Y39030D01*
X275469D01*
X275000Y38930D01*
D02*
G37*
%LPC*%
G36*
X59230Y331540D02*
X50460D01*
Y325270D01*
X59230D01*
Y331540D01*
D02*
G37*
G36*
Y322730D02*
X50460D01*
Y316460D01*
X59230D01*
Y322730D01*
D02*
G37*
G36*
X468031Y222703D02*
X468016Y222700D01*
X466300D01*
Y221088D01*
X466279Y220889D01*
X466272Y220869D01*
X466258Y220849D01*
X466186Y220783D01*
X466003Y220673D01*
X465681Y220543D01*
X465216Y220419D01*
X464614Y220320D01*
X464184Y220282D01*
X349000D01*
X347361Y219956D01*
X345972Y219028D01*
X319594Y192650D01*
X319082Y192201D01*
X318344Y191622D01*
X317677Y191168D01*
X317091Y190837D01*
X316774Y190700D01*
X314992D01*
X314990Y190700D01*
X314987Y190700D01*
X307800D01*
Y177300D01*
X326200D01*
Y184305D01*
X326200Y184307D01*
X326200Y184310D01*
Y186761D01*
X326565Y187276D01*
X327971Y188915D01*
X350774Y211718D01*
X464184D01*
X464614Y211680D01*
X465216Y211581D01*
X465681Y211457D01*
X466003Y211327D01*
X466186Y211217D01*
X466258Y211151D01*
X466272Y211131D01*
X466279Y211111D01*
X466300Y210912D01*
Y209300D01*
X468016D01*
X468031Y209297D01*
X468045Y209300D01*
X484700D01*
Y222700D01*
X468045D01*
X468031Y222703D01*
D02*
G37*
G36*
X260530D02*
X260516Y222700D01*
X258800D01*
Y221088D01*
X258779Y220889D01*
X258772Y220869D01*
X258758Y220849D01*
X258687Y220783D01*
X258503Y220673D01*
X258181Y220543D01*
X257716Y220419D01*
X257114Y220320D01*
X256684Y220282D01*
X141500D01*
X139861Y219956D01*
X138472Y219028D01*
X112094Y192650D01*
X111582Y192201D01*
X110844Y191622D01*
X110177Y191168D01*
X109591Y190837D01*
X109274Y190700D01*
X107492D01*
X107490Y190700D01*
X107487Y190700D01*
X100300D01*
Y177300D01*
X118700D01*
Y184305D01*
X118700Y184307D01*
X118700Y184310D01*
Y186761D01*
X119065Y187276D01*
X120471Y188915D01*
X143274Y211718D01*
X256684D01*
X257114Y211680D01*
X257716Y211581D01*
X258181Y211458D01*
X258503Y211327D01*
X258687Y211217D01*
X258758Y211151D01*
X258772Y211131D01*
X258779Y211111D01*
X258800Y210912D01*
Y209300D01*
X260516D01*
X260530Y209297D01*
X260545Y209300D01*
X277200D01*
Y222700D01*
X260545D01*
X260530Y222703D01*
D02*
G37*
G36*
X693040Y191540D02*
X684270D01*
Y185270D01*
X693040D01*
Y191540D01*
D02*
G37*
G36*
X59230D02*
X50460D01*
Y185270D01*
X59230D01*
Y191540D01*
D02*
G37*
G36*
X474230D02*
X465460D01*
Y185270D01*
X474230D01*
Y191540D01*
D02*
G37*
G36*
X266730D02*
X257960D01*
Y185270D01*
X266730D01*
Y191540D01*
D02*
G37*
G36*
X681730D02*
X672960D01*
Y185270D01*
X681730D01*
Y191540D01*
D02*
G37*
G36*
X485540D02*
X476770D01*
Y184000D01*
X475500D01*
Y182730D01*
X465460D01*
Y176460D01*
X468093D01*
X468200Y176108D01*
X468386Y175187D01*
X468584Y172782D01*
X468415Y171827D01*
X468003Y170590D01*
X467453Y169569D01*
X466768Y168732D01*
X465931Y168047D01*
X464910Y167497D01*
X463673Y167085D01*
X462203Y166825D01*
X460919Y166758D01*
X282581D01*
X281297Y166825D01*
X279827Y167085D01*
X278590Y167497D01*
X277569Y168047D01*
X276732Y168732D01*
X276047Y169569D01*
X275497Y170590D01*
X275085Y171827D01*
X274886Y172952D01*
X274949Y173962D01*
X275106Y175145D01*
X275300Y176108D01*
X275407Y176460D01*
X278040D01*
Y177242D01*
X292000D01*
X293749Y177472D01*
X295379Y178148D01*
X296779Y179221D01*
X297852Y180621D01*
X298528Y182251D01*
X298758Y184000D01*
X298528Y185749D01*
X297852Y187379D01*
X296779Y188778D01*
X296779D01*
X295379Y189852D01*
X293749Y190527D01*
X292000Y190758D01*
X278040D01*
Y191540D01*
X269270D01*
Y184000D01*
X268000D01*
Y182730D01*
X257960D01*
Y176460D01*
X260593D01*
X260700Y176108D01*
X260886Y175187D01*
X261084Y172782D01*
X260915Y171827D01*
X260503Y170590D01*
X259953Y169569D01*
X259268Y168732D01*
X258431Y168047D01*
X257410Y167497D01*
X256173Y167085D01*
X254703Y166825D01*
X253419Y166758D01*
X87299D01*
X77988Y176069D01*
X78474Y177242D01*
X85000D01*
X86749Y177472D01*
X88379Y178148D01*
X89778Y179221D01*
X89841Y179284D01*
X90915Y180684D01*
X91590Y182313D01*
X91820Y184062D01*
X91590Y185812D01*
X90915Y187441D01*
X89841Y188841D01*
X88441Y189915D01*
X86812Y190590D01*
X85063Y190820D01*
X84588Y190758D01*
X70540D01*
Y191540D01*
X61770D01*
Y184845D01*
X67969Y188969D01*
X68040Y187879D01*
X68252Y186754D01*
X68606Y185595D01*
X69101Y184403D01*
X69737Y183176D01*
X70515Y181915D01*
X71434Y180620D01*
X72495Y179291D01*
X75041Y176530D01*
X65469Y171959D01*
X64072Y173303D01*
X61380Y175566D01*
X60085Y176485D01*
X58824Y177263D01*
X57597Y177899D01*
X56405Y178394D01*
X55246Y178748D01*
X54121Y178960D01*
X53031Y179030D01*
X58591Y182730D01*
X50460D01*
Y176460D01*
X56543D01*
X56865Y176326D01*
X57969Y175754D01*
X59128Y175039D01*
X60319Y174193D01*
X62913Y172013D01*
X63355Y171588D01*
X79721Y155222D01*
X81121Y154148D01*
X82751Y153472D01*
X84500Y153242D01*
X713126D01*
X713147Y153164D01*
X714317Y151137D01*
X715972Y149481D01*
X717999Y148311D01*
X720161Y147732D01*
Y156595D01*
X722701D01*
Y147732D01*
X724862Y148311D01*
X726889Y149481D01*
X727245Y149837D01*
X753847D01*
X763462Y140222D01*
X764862Y139148D01*
X766492Y138472D01*
X768241Y138242D01*
X799911D01*
Y136331D01*
X800142Y134582D01*
X800817Y132952D01*
X801891Y131552D01*
X802222Y131222D01*
X803621Y130148D01*
X805251Y129473D01*
X807000Y129242D01*
X808749Y129473D01*
X810379Y130148D01*
X811778Y131222D01*
X812852Y132621D01*
X813528Y134251D01*
X813758Y136000D01*
X813528Y137749D01*
X813427Y137992D01*
Y145000D01*
Y165547D01*
X813197Y167296D01*
X812661Y168590D01*
Y176635D01*
X807891D01*
Y165595D01*
X805351D01*
Y176635D01*
X800581D01*
Y175819D01*
X799321Y175795D01*
X799311Y175795D01*
X788921D01*
Y155395D01*
X798642D01*
X799321Y155395D01*
X799911Y154370D01*
Y151758D01*
X771040D01*
X768576Y154222D01*
X769062Y155395D01*
X774321D01*
Y175795D01*
X763921D01*
Y160536D01*
X762748Y160050D01*
X761424Y161374D01*
X760024Y162447D01*
X758395Y163123D01*
X756646Y163353D01*
X727294D01*
X727283Y163379D01*
X726209Y164778D01*
X724810Y165852D01*
X723180Y166528D01*
X721431Y166758D01*
X697580D01*
X696297Y166825D01*
X694827Y167085D01*
X693590Y167497D01*
X692569Y168047D01*
X691732Y168732D01*
X691047Y169569D01*
X690497Y170590D01*
X690085Y171827D01*
X689886Y172952D01*
X689949Y173962D01*
X690106Y175145D01*
X690300Y176108D01*
X690407Y176460D01*
X693040D01*
Y182730D01*
X683000D01*
X672960D01*
Y176460D01*
X675593D01*
X675700Y176108D01*
X675886Y175187D01*
X676084Y172782D01*
X675915Y171827D01*
X675503Y170590D01*
X674953Y169569D01*
X674268Y168732D01*
X673431Y168047D01*
X672410Y167497D01*
X671173Y167085D01*
X669703Y166825D01*
X668419Y166758D01*
X490080D01*
X488797Y166825D01*
X487327Y167085D01*
X486090Y167497D01*
X485069Y168047D01*
X484232Y168732D01*
X483547Y169569D01*
X482997Y170590D01*
X482585Y171827D01*
X482386Y172952D01*
X482449Y173962D01*
X482606Y175145D01*
X482800Y176108D01*
X482907Y176460D01*
X485540D01*
Y177242D01*
X499861D01*
X501610Y177472D01*
X503240Y178148D01*
X504640Y179221D01*
X505281Y179863D01*
X506355Y181262D01*
X507030Y182892D01*
X507260Y184641D01*
X507030Y186390D01*
X506355Y188020D01*
X505281Y189420D01*
X503881Y190494D01*
X502252Y191169D01*
X500503Y191399D01*
X498754Y191169D01*
X497761Y190758D01*
X485540D01*
Y191540D01*
D02*
G37*
G36*
X786821Y175795D02*
X776421D01*
Y155395D01*
X786821D01*
Y175795D01*
D02*
G37*
G36*
X855216Y142194D02*
X853148D01*
X851236Y141402D01*
X849774Y139939D01*
X848982Y138028D01*
Y135960D01*
X849774Y134048D01*
X850526Y133296D01*
X850531Y133281D01*
X850557Y133173D01*
X850579Y133046D01*
X850608Y132659D01*
Y120398D01*
X850568Y120035D01*
X850547Y119923D01*
X850545Y119913D01*
X850173Y119541D01*
X849381Y117629D01*
Y115561D01*
X850173Y113650D01*
X851635Y112187D01*
X853547Y111395D01*
X855615D01*
X857526Y112187D01*
X858989Y113650D01*
X859781Y115561D01*
Y117629D01*
X858989Y119541D01*
X858236Y120294D01*
X858231Y120310D01*
X858205Y120417D01*
X858183Y120544D01*
X858153Y120932D01*
Y133190D01*
X858194Y133553D01*
X858215Y133665D01*
X858217Y133675D01*
X858590Y134048D01*
X859382Y135960D01*
Y138028D01*
X858590Y139939D01*
X857128Y141402D01*
X855216Y142194D01*
D02*
G37*
G36*
X842000Y175302D02*
X841488Y175200D01*
X840966D01*
X840483Y175000D01*
X839971Y174898D01*
X839537Y174608D01*
X839054Y174408D01*
X838685Y174039D01*
X838251Y173749D01*
X837961Y173315D01*
X837592Y172946D01*
X837392Y172463D01*
X837102Y172029D01*
X837000Y171517D01*
X836800Y171034D01*
Y170512D01*
X836698Y170000D01*
Y134196D01*
X817804Y115302D01*
X109193D01*
X108681Y115200D01*
X108159D01*
X107676Y115000D01*
X107164Y114898D01*
X106730Y114608D01*
X106248Y114408D01*
X105878Y114039D01*
X105444Y113749D01*
X105154Y113315D01*
X104785Y112946D01*
X104585Y112463D01*
X104295Y112029D01*
X104193Y111517D01*
X103993Y111034D01*
Y110512D01*
X103891Y110000D01*
X103993Y109488D01*
Y108966D01*
X104193Y108483D01*
X104295Y107971D01*
X104585Y107537D01*
X104785Y107054D01*
X105154Y106685D01*
X105444Y106251D01*
X105878Y105961D01*
X106248Y105592D01*
X106730Y105392D01*
X107164Y105102D01*
X107676Y105000D01*
X108159Y104800D01*
X108681D01*
X109193Y104698D01*
X820000D01*
X822029Y105102D01*
X823749Y106251D01*
X845749Y128251D01*
X846898Y129971D01*
X847302Y132000D01*
Y170000D01*
X847200Y170512D01*
Y171034D01*
X847000Y171517D01*
X846898Y172029D01*
X846608Y172463D01*
X846408Y172946D01*
X846039Y173315D01*
X845749Y173749D01*
X845315Y174039D01*
X844946Y174408D01*
X844463Y174608D01*
X844029Y174898D01*
X843517Y175000D01*
X843034Y175200D01*
X842512D01*
X842000Y175302D01*
D02*
G37*
G36*
X59230Y51540D02*
X50460D01*
Y45270D01*
X59230D01*
Y51540D01*
D02*
G37*
%LPD*%
G36*
X468031Y211031D02*
X467980Y211500D01*
X467831Y211919D01*
X467580Y212290D01*
X467230Y212611D01*
X466781Y212883D01*
X466231Y213105D01*
X465580Y213278D01*
X464831Y213401D01*
X463980Y213475D01*
X463031Y213500D01*
Y218500D01*
X463980Y218525D01*
X464831Y218599D01*
X465580Y218722D01*
X466231Y218895D01*
X466781Y219117D01*
X467230Y219389D01*
X467580Y219710D01*
X467831Y220081D01*
X467980Y220500D01*
X468031Y220970D01*
Y211031D01*
D02*
G37*
G36*
X328005Y191469D02*
X326903Y190332D01*
X325197Y188343D01*
X324594Y187493D01*
X324157Y186738D01*
X323887Y186078D01*
X323783Y185515D01*
X323845Y185047D01*
X324074Y184675D01*
X324469Y184398D01*
X314898Y188969D01*
X315400Y188799D01*
X315947Y188745D01*
X316540Y188808D01*
X317178Y188987D01*
X317863Y189282D01*
X318593Y189694D01*
X319368Y190222D01*
X320190Y190867D01*
X321057Y191628D01*
X321969Y192505D01*
X328005Y191469D01*
D02*
G37*
G36*
X260530Y211031D02*
X260480Y211500D01*
X260331Y211919D01*
X260081Y212290D01*
X259730Y212611D01*
X259280Y212883D01*
X258731Y213105D01*
X258081Y213278D01*
X257330Y213401D01*
X256481Y213475D01*
X255530Y213500D01*
Y218500D01*
X256481Y218525D01*
X257330Y218599D01*
X258081Y218722D01*
X258731Y218895D01*
X259280Y219117D01*
X259730Y219389D01*
X260081Y219710D01*
X260331Y220081D01*
X260480Y220500D01*
X260530Y220970D01*
Y211031D01*
D02*
G37*
G36*
X120505Y191469D02*
X119403Y190332D01*
X117697Y188343D01*
X117094Y187493D01*
X116657Y186738D01*
X116387Y186078D01*
X116283Y185515D01*
X116345Y185047D01*
X116574Y184675D01*
X116969Y184398D01*
X107399Y188969D01*
X107900Y188799D01*
X108447Y188745D01*
X109040Y188808D01*
X109678Y188987D01*
X110363Y189282D01*
X111093Y189694D01*
X111868Y190222D01*
X112690Y190867D01*
X113557Y191628D01*
X114469Y192505D01*
X120505Y191469D01*
D02*
G37*
G36*
X690000Y178930D02*
X689581Y178631D01*
X689210Y178130D01*
X688889Y177430D01*
X688617Y176530D01*
X688395Y175431D01*
X688222Y174130D01*
X688143Y172854D01*
X688400Y171400D01*
X688900Y169900D01*
X689600Y168600D01*
X690500Y167500D01*
X691600Y166600D01*
X692900Y165900D01*
X694400Y165400D01*
X696100Y165100D01*
X698000Y165000D01*
X683000Y155000D01*
X668000Y165000D01*
X669900Y165100D01*
X671600Y165400D01*
X673100Y165900D01*
X674400Y166600D01*
X675500Y167500D01*
X676400Y168600D01*
X677100Y169900D01*
X677600Y171400D01*
X677830Y172701D01*
X677605Y175431D01*
X677383Y176530D01*
X677111Y177430D01*
X676790Y178130D01*
X676420Y178631D01*
X676000Y178930D01*
X675530Y179030D01*
X690470D01*
X690000Y178930D01*
D02*
G37*
G36*
X482500D02*
X482080Y178631D01*
X481710Y178130D01*
X481389Y177430D01*
X481117Y176530D01*
X480895Y175431D01*
X480722Y174130D01*
X480643Y172854D01*
X480900Y171400D01*
X481400Y169900D01*
X482100Y168600D01*
X483000Y167500D01*
X484100Y166600D01*
X485400Y165900D01*
X486900Y165400D01*
X488600Y165100D01*
X490500Y165000D01*
X475500Y155000D01*
X460500Y165000D01*
X462400Y165100D01*
X464100Y165400D01*
X465600Y165900D01*
X466900Y166600D01*
X468000Y167500D01*
X468900Y168600D01*
X469600Y169900D01*
X470100Y171400D01*
X470330Y172701D01*
X470105Y175431D01*
X469883Y176530D01*
X469611Y177430D01*
X469290Y178130D01*
X468919Y178631D01*
X468500Y178930D01*
X468031Y179030D01*
X482970D01*
X482500Y178930D01*
D02*
G37*
G36*
X275000D02*
X274580Y178631D01*
X274210Y178130D01*
X273889Y177430D01*
X273617Y176530D01*
X273395Y175431D01*
X273222Y174130D01*
X273143Y172854D01*
X273400Y171400D01*
X273900Y169900D01*
X274600Y168600D01*
X275500Y167500D01*
X276600Y166600D01*
X277900Y165900D01*
X279400Y165400D01*
X281100Y165100D01*
X283000Y165000D01*
X268000Y155000D01*
X253000Y165000D01*
X254900Y165100D01*
X256600Y165400D01*
X258100Y165900D01*
X259400Y166600D01*
X260500Y167500D01*
X261400Y168600D01*
X262100Y169900D01*
X262600Y171400D01*
X262830Y172701D01*
X262605Y175431D01*
X262383Y176530D01*
X262111Y177430D01*
X261790Y178130D01*
X261420Y178631D01*
X261000Y178930D01*
X260530Y179030D01*
X275469D01*
X275000Y178930D01*
D02*
G37*
G36*
X856696Y134536D02*
X856630Y134402D01*
X856572Y134236D01*
X856521Y134038D01*
X856478Y133807D01*
X856416Y133249D01*
X856385Y132563D01*
X856381Y132171D01*
X852381Y131893D01*
X852376Y132282D01*
X852300Y133260D01*
X852255Y133523D01*
X852200Y133754D01*
X852134Y133953D01*
X852059Y134120D01*
X851974Y134256D01*
X851878Y134359D01*
X856770Y134638D01*
X856696Y134536D01*
D02*
G37*
G36*
X856386Y121307D02*
X856461Y120330D01*
X856507Y120067D01*
X856562Y119836D01*
X856627Y119637D01*
X856703Y119470D01*
X856788Y119334D01*
X856884Y119230D01*
X851992Y118951D01*
X852066Y119052D01*
X852132Y119186D01*
X852190Y119352D01*
X852241Y119550D01*
X852284Y119781D01*
X852346Y120339D01*
X852377Y121025D01*
X852381Y121417D01*
X856381Y121697D01*
X856386Y121307D01*
D02*
G37*
%LPC*%
G36*
X693040Y331540D02*
X684270D01*
Y325270D01*
X693040D01*
Y331540D01*
D02*
G37*
G36*
X681730D02*
X672960D01*
Y325270D01*
X681730D01*
Y331540D01*
D02*
G37*
G36*
X474230D02*
X465460D01*
Y325270D01*
X474230D01*
Y331540D01*
D02*
G37*
G36*
Y322730D02*
X465460D01*
Y316460D01*
X474230D01*
Y322730D01*
D02*
G37*
G36*
X266730Y331540D02*
X257960D01*
Y325270D01*
X266730D01*
Y331540D01*
D02*
G37*
G36*
Y322730D02*
X257960D01*
Y316460D01*
X266730D01*
Y322730D01*
D02*
G37*
G36*
X900540Y191540D02*
X891770D01*
Y185270D01*
X897371D01*
X897939Y185592D01*
X897770Y185389D01*
X897767Y185270D01*
X900540D01*
Y191540D01*
D02*
G37*
G36*
X849270Y237863D02*
Y230270D01*
X856863D01*
X856284Y232431D01*
X855114Y234459D01*
X853459Y236114D01*
X851431Y237284D01*
X849270Y237863D01*
D02*
G37*
G36*
X824730D02*
X822569Y237284D01*
X820541Y236114D01*
X818886Y234459D01*
X817716Y232431D01*
X817137Y230270D01*
X824730D01*
Y237863D01*
D02*
G37*
G36*
X856863Y227730D02*
X849270D01*
Y220137D01*
X851431Y220716D01*
X853459Y221886D01*
X855114Y223541D01*
X856284Y225569D01*
X856863Y227730D01*
D02*
G37*
G36*
X824730D02*
X817137D01*
X817716Y225569D01*
X818886Y223541D01*
X820541Y221886D01*
X822569Y220716D01*
X824730Y220137D01*
Y227730D01*
D02*
G37*
G36*
X849270Y216863D02*
Y209270D01*
X856863D01*
X856284Y211431D01*
X855114Y213459D01*
X853459Y215114D01*
X851431Y216284D01*
X849270Y216863D01*
D02*
G37*
G36*
X846730Y237863D02*
X844569Y237284D01*
X842541Y236114D01*
X840886Y234459D01*
X839716Y232431D01*
X839110Y230170D01*
Y228953D01*
X838270Y228003D01*
Y219000D01*
Y210008D01*
X838408Y209944D01*
X838944Y209408D01*
X839008Y209270D01*
X846730D01*
Y216992D01*
X846592Y217056D01*
X846056Y217592D01*
X845890Y217953D01*
Y219047D01*
X846730Y219997D01*
Y229000D01*
Y237863D01*
D02*
G37*
G36*
X827270D02*
Y229000D01*
Y219997D01*
X828110Y219047D01*
Y217953D01*
X827944Y217592D01*
X827408Y217056D01*
X827270Y216992D01*
Y209270D01*
X834992D01*
X835056Y209408D01*
X835592Y209944D01*
X835730Y210008D01*
Y219000D01*
Y228003D01*
X834890Y228953D01*
Y230170D01*
X834284Y232431D01*
X833114Y234459D01*
X831459Y236114D01*
X829431Y237284D01*
X827270Y237863D01*
D02*
G37*
G36*
X824730Y216863D02*
X822569Y216284D01*
X820541Y215114D01*
X818886Y213459D01*
X817716Y211431D01*
X817137Y209270D01*
X824730D01*
Y216863D01*
D02*
G37*
G36*
X856863Y206730D02*
X849270D01*
Y199137D01*
X851431Y199716D01*
X853459Y200886D01*
X855114Y202541D01*
X856284Y204569D01*
X856863Y206730D01*
D02*
G37*
G36*
X846730D02*
X839137D01*
X839716Y204569D01*
X840886Y202541D01*
X842541Y200886D01*
X844569Y199716D01*
X846730Y199137D01*
Y206730D01*
D02*
G37*
G36*
X834863D02*
X827270D01*
Y199137D01*
X829431Y199716D01*
X831459Y200886D01*
X833114Y202541D01*
X834284Y204569D01*
X834863Y206730D01*
D02*
G37*
G36*
X824730D02*
X817137D01*
X817716Y204569D01*
X818886Y202541D01*
X820541Y200886D01*
X822569Y199716D01*
X824730Y199137D01*
Y206730D01*
D02*
G37*
G36*
X474230Y51540D02*
X465460D01*
Y45270D01*
X474230D01*
Y51540D01*
D02*
G37*
G36*
X681730D02*
X672960D01*
Y45270D01*
X681730D01*
Y51540D01*
D02*
G37*
G36*
X90913Y42257D02*
X86172D01*
Y37516D01*
X88323Y38407D01*
X90022Y40106D01*
X90913Y42257D01*
D02*
G37*
%LPD*%
D10*
X819102Y364447D02*
X819355Y364700D01*
X818621Y363966D02*
X819102Y364447D01*
X802771Y214245D02*
Y248406D01*
X830160Y275795D02*
X858089D01*
X802771Y248406D02*
X830160Y275795D01*
X864321Y282027D02*
Y294396D01*
X863121Y295595D02*
X864321Y294396D01*
X794121Y205595D02*
X802771Y214245D01*
X858089Y275795D02*
X864321Y282027D01*
D17*
X798000Y364000D02*
X798416Y364416D01*
X819071D01*
X819102Y364447D02*
X831158D01*
X803621Y332595D02*
Y351365D01*
X809000Y356744D01*
Y357300D01*
X831158Y364447D02*
X831411Y364700D01*
X818621Y332595D02*
Y363966D01*
D21*
X871121Y379595D02*
D03*
X751121D02*
D03*
D22*
X848621Y332595D02*
D03*
X833621D02*
D03*
X818621D02*
D03*
X803621D02*
D03*
X788621D02*
D03*
X773621D02*
D03*
D67*
X1000000Y25000D02*
G03*
X1000000Y25000I-25000J0D01*
G01*
X50000D02*
G03*
X50000Y25000I-25000J0D01*
G01*
Y375000D02*
G03*
X50000Y375000I-25000J0D01*
G01*
X1000000D02*
G03*
X1000000Y375000I-25000J0D01*
G01*
D69*
X84429Y44000D02*
X84902Y43527D01*
X60500Y44000D02*
X84429D01*
X88000Y324000D02*
X100000Y336000D01*
X848621Y332595D02*
X863515D01*
X833621D02*
X848621D01*
X877515Y151000D02*
X946000D01*
X947000Y152000D01*
X857920Y170595D02*
X877515Y151000D01*
X871083Y325028D02*
X889473D01*
X863515Y332595D02*
X871083Y325028D01*
X889473D02*
X890500Y324000D01*
X109193Y110000D02*
X820000D01*
X842000Y132000D02*
Y170000D01*
X820000Y110000D02*
X842000Y132000D01*
X814000Y308000D02*
X820000D01*
X833621Y321621D01*
Y332595D01*
X100000Y336000D02*
X125000D01*
X153000Y308000D01*
X903500Y369000D02*
X916000D01*
X890500Y356000D02*
X903500Y369000D01*
D70*
X514500Y334000D02*
X524500Y324000D01*
X483940Y334000D02*
X514500D01*
X498000Y341000D02*
X715000D01*
X473940Y344000D02*
X483940Y334000D01*
X483000Y356000D02*
X498000Y341000D01*
X715000D02*
X732000Y324000D01*
X475500Y356000D02*
X483000D01*
X665596Y216000D02*
X683000D01*
X524500Y184000D02*
X633596D01*
X665596Y216000D01*
X899000D02*
X919000Y196000D01*
X890500Y216000D02*
X899000D01*
X919000Y172000D02*
Y196000D01*
X784000Y374000D02*
X833000D01*
X872000Y335000D02*
X928500D01*
X833000Y374000D02*
X872000Y335000D01*
X928500D02*
X939500Y324000D01*
X303700Y53300D02*
X313000Y44000D01*
X83200Y53300D02*
X303700D01*
X313000Y44000D02*
X317000D01*
X268000Y76000D02*
X268000D01*
X284000Y60000D01*
X496000D01*
X60500Y76000D02*
X83200Y53300D01*
X496000Y60000D02*
X511389Y44611D01*
X523889D01*
X695300Y66700D02*
X717889Y44111D01*
X487300Y66700D02*
X695300D01*
X478000Y76000D02*
X487300Y66700D01*
X475500Y76000D02*
X478000D01*
X281000Y335000D02*
X306000D01*
X71670Y344000D02*
X272000D01*
X281000Y335000D01*
X306000D02*
X315416Y325584D01*
X271404Y356000D02*
X283404Y344000D01*
X473940D01*
X315416Y325584D02*
X317000Y324000D01*
X315416Y325584D02*
X315416D01*
X268000Y356000D02*
X271404D01*
X60500Y355170D02*
X71670Y344000D01*
X683000Y76000D02*
X695475D01*
X715475Y56000D01*
X927500D01*
X717889Y44111D02*
X731889D01*
X890500Y76000D02*
X902500Y64000D01*
X948000D01*
X731889Y44111D02*
X732000Y44000D01*
X927500Y56000D02*
X939500Y44000D01*
X523889Y44611D02*
X524500Y44000D01*
X910000Y163000D02*
X919000Y172000D01*
X876404Y163000D02*
X910000D01*
X60500Y355170D02*
X60500Y356000D01*
X855405Y184000D02*
X876404Y163000D01*
X732000Y184000D02*
X855405D01*
X723365Y343776D02*
X753776D01*
X683000Y356000D02*
X711141D01*
X723365Y343776D01*
X60500Y216000D02*
Y275000D01*
X957000Y73000D02*
Y169000D01*
X948000Y64000D02*
X957000Y73000D01*
X942000Y184000D02*
X957000Y169000D01*
X939500Y184000D02*
X942000D01*
X349000Y216000D02*
X475500D01*
X317000Y184000D02*
X349000Y216000D01*
X141500D02*
X268000D01*
X109500Y184000D02*
X141500Y216000D01*
X60500Y275000D02*
X109500Y324000D01*
X753776Y343776D02*
X784000Y374000D01*
D71*
X500466Y211401D02*
X505065Y216000D01*
X524500D01*
X499861Y184000D02*
X500503Y184641D01*
X475500Y184000D02*
X499861D01*
X500000Y356000D02*
X524500D01*
X475500Y324000D02*
X499000D01*
X60500D02*
X88000D01*
X683000Y308000D02*
X814000D01*
X60500Y184000D02*
X85000D01*
X85063Y184062D01*
X864526Y378000D02*
X871121Y384595D01*
Y379595D02*
Y384595D01*
Y350879D02*
Y379595D01*
X760121Y363132D02*
X780189Y383200D01*
X753000Y377716D02*
X760121Y370595D01*
X751121Y379595D02*
X753000Y377716D01*
X280000Y310000D02*
Y324000D01*
X721431Y157842D02*
X722678Y156595D01*
X683000Y160000D02*
X721431D01*
X756646Y156595D02*
X768241Y145000D01*
X722678Y156595D02*
X756646D01*
X721431Y157842D02*
Y157842D01*
X768241Y145000D02*
X806669D01*
Y165547D01*
Y136331D02*
Y145000D01*
X760121Y363132D02*
Y370595D01*
X836811Y383200D02*
X842011Y378000D01*
X780189Y383200D02*
X836811D01*
X842011Y378000D02*
X864526D01*
X753000Y363000D02*
Y377716D01*
X871121Y350879D02*
X876000Y346000D01*
X915000Y216000D02*
X939500D01*
X806669Y136331D02*
X807000Y136000D01*
X806621Y165595D02*
X806669Y165547D01*
X707000Y217000D02*
X708000Y216000D01*
X732000D01*
X269000Y28000D02*
X475000D01*
X76500D02*
X269000D01*
X268000Y29000D02*
X269000Y28000D01*
X268000Y29000D02*
Y44000D01*
X287100D01*
X292000Y39100D01*
X500464Y75900D02*
X500564Y76000D01*
X524500D01*
X293206D02*
X317000D01*
X292608Y75402D02*
X293206Y76000D01*
X497100Y44000D02*
X500000Y41100D01*
X475500Y44000D02*
X497100D01*
X475000Y28000D02*
X680000D01*
X475000D02*
X475500Y28500D01*
Y44000D01*
X680000Y28000D02*
X874500D01*
X680000D02*
X683000Y31000D01*
Y44000D01*
X874500Y28000D02*
X890500Y44000D01*
X60500D02*
X76500Y28000D01*
X268000Y160000D02*
Y184000D01*
X292000D01*
X84500Y160000D02*
X268000D01*
X475500D01*
X683000D01*
X475500D02*
Y184000D01*
X683000Y160000D02*
Y184000D01*
X60500D02*
X84500Y160000D01*
X292000Y184000D02*
X292000Y184000D01*
X487000Y308000D02*
X683000D01*
X683000Y308000D02*
X683000Y308000D01*
X683000Y308000D02*
Y324000D01*
X278000Y308000D02*
X487000D01*
X499000Y324000D02*
X500000Y323000D01*
X487000Y308000D02*
Y321750D01*
X153000Y308000D02*
X278000D01*
X280000Y324000D02*
X292000D01*
X268000D02*
X280000D01*
X278000Y308000D02*
X280000Y310000D01*
X708243Y76243D02*
X708486Y76000D01*
X732000D01*
X683000Y44000D02*
X686900Y40100D01*
X708000D01*
X915000Y76000D02*
X939500D01*
X914000Y44000D02*
X915000Y43000D01*
X890500Y44000D02*
X914000D01*
X84962Y75795D02*
X85167Y76000D01*
X109500D01*
X293000Y216000D02*
X317000D01*
X292000Y215000D02*
X293000Y216000D01*
X900000Y173000D02*
Y174500D01*
X890500Y184000D02*
X900000Y174500D01*
X890500Y324000D02*
X915000D01*
Y354000D02*
X917000Y356000D01*
X939500D01*
X292619D02*
X317000D01*
X319000Y95000D02*
X525000D01*
X128500D02*
X319000D01*
X317000Y93000D02*
X319000Y95000D01*
X317000Y76000D02*
Y93000D01*
X525000Y95000D02*
X732000D01*
X524500Y94500D02*
X525000Y95000D01*
X524500Y76000D02*
Y94500D01*
X732000Y95000D02*
X920500D01*
X732000Y95000D02*
X732000Y95000D01*
X732000Y76000D02*
Y95000D01*
X920500Y95000D02*
X939500Y76000D01*
X109500D02*
X128500Y95000D01*
D72*
X469691Y200299D02*
X469712D01*
X470011Y200000D02*
X638000D01*
X469712Y200299D02*
X470011Y200000D01*
X638000D02*
X662000Y224000D01*
X773621Y332595D02*
X788621D01*
D74*
X807121Y191700D02*
X809000Y193579D01*
Y245867D02*
X809424Y246292D01*
X809000Y193579D02*
Y245867D01*
X833374Y284595D02*
X858121D01*
X798571Y218923D02*
Y249792D01*
X833374Y284595D01*
X885121Y249595D02*
X906821Y271295D01*
Y286219D01*
X807226Y191595D02*
X866233D01*
X807121Y191700D02*
X807226Y191595D01*
X866233D02*
X875000Y182828D01*
X866000Y191595D02*
Y230474D01*
X884121Y248595D01*
X881778Y176050D02*
X883121D01*
X893121Y269595D02*
X897121Y273595D01*
X856999Y269595D02*
X893121D01*
X875000Y182828D02*
X881778Y176050D01*
X883121Y173800D02*
Y176050D01*
X794121Y214596D02*
X794243D01*
X798571Y218923D01*
X769121Y165595D02*
Y170595D01*
D75*
X854381Y116795D02*
X854581Y116595D01*
X854381Y116795D02*
Y136795D01*
X854182Y136994D02*
X854381Y136795D01*
D79*
X25000Y25000D02*
D03*
Y375000D02*
D03*
X975000Y25000D02*
D03*
Y375000D02*
D03*
D80*
X987000Y336000D02*
D03*
X980000Y322000D02*
D03*
X987000Y308000D02*
D03*
X980000Y294000D02*
D03*
X987000Y280000D02*
D03*
X980000Y266000D02*
D03*
X987000Y252000D02*
D03*
X980000Y238000D02*
D03*
X987000Y224000D02*
D03*
X980000Y210000D02*
D03*
X987000Y196000D02*
D03*
X980000Y182000D02*
D03*
X987000Y168000D02*
D03*
X980000Y154000D02*
D03*
X987000Y140000D02*
D03*
X980000Y126000D02*
D03*
X987000Y112000D02*
D03*
X980000Y98000D02*
D03*
X987000Y84000D02*
D03*
X980000Y70000D02*
D03*
X987000Y56000D02*
D03*
X973000Y336000D02*
D03*
Y308000D02*
D03*
Y280000D02*
D03*
Y252000D02*
D03*
Y224000D02*
D03*
X966000Y210000D02*
D03*
X973000Y196000D02*
D03*
X966000Y182000D02*
D03*
X973000Y168000D02*
D03*
X966000Y154000D02*
D03*
X973000Y140000D02*
D03*
Y112000D02*
D03*
X966000Y98000D02*
D03*
X973000Y84000D02*
D03*
X966000Y70000D02*
D03*
X959000Y196000D02*
D03*
Y56000D02*
D03*
X945000Y392000D02*
D03*
X938000Y378000D02*
D03*
X945000Y56000D02*
D03*
X938000Y14000D02*
D03*
X931000Y392000D02*
D03*
X924000Y378000D02*
D03*
X931000Y28000D02*
D03*
X924000Y14000D02*
D03*
X917000Y392000D02*
D03*
X910000Y378000D02*
D03*
X917000Y280000D02*
D03*
Y28000D02*
D03*
X910000Y14000D02*
D03*
X903000Y392000D02*
D03*
Y28000D02*
D03*
X896000Y14000D02*
D03*
X889000Y392000D02*
D03*
X882000Y14000D02*
D03*
X868000Y42000D02*
D03*
Y14000D02*
D03*
X854000Y294000D02*
D03*
Y70000D02*
D03*
Y42000D02*
D03*
Y14000D02*
D03*
X847000Y392000D02*
D03*
Y84000D02*
D03*
X840000Y70000D02*
D03*
Y42000D02*
D03*
Y14000D02*
D03*
X833000Y84000D02*
D03*
X826000Y70000D02*
D03*
Y42000D02*
D03*
Y14000D02*
D03*
X819000Y84000D02*
D03*
X812000Y70000D02*
D03*
Y42000D02*
D03*
Y14000D02*
D03*
X805000Y84000D02*
D03*
X798000Y70000D02*
D03*
Y42000D02*
D03*
Y14000D02*
D03*
X791000Y224000D02*
D03*
Y84000D02*
D03*
X784000Y70000D02*
D03*
Y42000D02*
D03*
Y14000D02*
D03*
X777000Y224000D02*
D03*
Y84000D02*
D03*
X770000Y70000D02*
D03*
Y42000D02*
D03*
Y14000D02*
D03*
X756000Y126000D02*
D03*
X763000Y84000D02*
D03*
X756000Y70000D02*
D03*
Y42000D02*
D03*
Y14000D02*
D03*
X742000Y126000D02*
D03*
X749000Y84000D02*
D03*
X742000Y14000D02*
D03*
X735000Y140000D02*
D03*
X728000Y126000D02*
D03*
Y14000D02*
D03*
X721000Y140000D02*
D03*
X714000Y126000D02*
D03*
Y14000D02*
D03*
X707000Y140000D02*
D03*
X700000Y126000D02*
D03*
Y14000D02*
D03*
X686000Y294000D02*
D03*
X693000Y280000D02*
D03*
X686000Y266000D02*
D03*
X693000Y252000D02*
D03*
Y196000D02*
D03*
Y140000D02*
D03*
X686000Y126000D02*
D03*
X693000Y56000D02*
D03*
X686000Y14000D02*
D03*
X672000Y294000D02*
D03*
X679000Y280000D02*
D03*
X672000Y266000D02*
D03*
X679000Y252000D02*
D03*
Y196000D02*
D03*
Y140000D02*
D03*
X672000Y126000D02*
D03*
X679000Y56000D02*
D03*
X672000Y14000D02*
D03*
X665000Y392000D02*
D03*
Y196000D02*
D03*
X658000Y182000D02*
D03*
X665000Y140000D02*
D03*
X658000Y126000D02*
D03*
X665000Y84000D02*
D03*
Y56000D02*
D03*
X658000Y42000D02*
D03*
Y14000D02*
D03*
X651000Y392000D02*
D03*
Y280000D02*
D03*
X644000Y266000D02*
D03*
X651000Y252000D02*
D03*
X644000Y182000D02*
D03*
X651000Y140000D02*
D03*
X644000Y126000D02*
D03*
X651000Y84000D02*
D03*
Y56000D02*
D03*
X644000Y42000D02*
D03*
Y14000D02*
D03*
X637000Y392000D02*
D03*
Y280000D02*
D03*
X630000Y266000D02*
D03*
X637000Y252000D02*
D03*
Y224000D02*
D03*
X630000Y210000D02*
D03*
X637000Y140000D02*
D03*
X630000Y126000D02*
D03*
X637000Y84000D02*
D03*
Y56000D02*
D03*
X630000Y42000D02*
D03*
Y14000D02*
D03*
X623000Y392000D02*
D03*
X616000Y322000D02*
D03*
Y294000D02*
D03*
X623000Y252000D02*
D03*
Y224000D02*
D03*
X616000Y210000D02*
D03*
X623000Y140000D02*
D03*
X616000Y126000D02*
D03*
X623000Y84000D02*
D03*
Y56000D02*
D03*
X616000Y42000D02*
D03*
Y14000D02*
D03*
X609000Y392000D02*
D03*
X602000Y350000D02*
D03*
Y294000D02*
D03*
X609000Y280000D02*
D03*
Y252000D02*
D03*
Y224000D02*
D03*
X602000Y210000D02*
D03*
X609000Y140000D02*
D03*
X602000Y126000D02*
D03*
X609000Y84000D02*
D03*
Y56000D02*
D03*
X602000Y42000D02*
D03*
Y14000D02*
D03*
X595000Y392000D02*
D03*
X588000Y350000D02*
D03*
Y294000D02*
D03*
X595000Y280000D02*
D03*
X588000Y266000D02*
D03*
X595000Y224000D02*
D03*
X588000Y210000D02*
D03*
X595000Y140000D02*
D03*
X588000Y126000D02*
D03*
X595000Y84000D02*
D03*
Y56000D02*
D03*
X588000Y42000D02*
D03*
Y14000D02*
D03*
X581000Y392000D02*
D03*
X574000Y350000D02*
D03*
Y322000D02*
D03*
X581000Y280000D02*
D03*
X574000Y266000D02*
D03*
X581000Y252000D02*
D03*
Y224000D02*
D03*
X574000Y210000D02*
D03*
X581000Y140000D02*
D03*
Y84000D02*
D03*
Y56000D02*
D03*
X574000Y42000D02*
D03*
Y14000D02*
D03*
X567000Y392000D02*
D03*
X560000Y350000D02*
D03*
Y322000D02*
D03*
X567000Y280000D02*
D03*
X560000Y266000D02*
D03*
X567000Y252000D02*
D03*
Y140000D02*
D03*
Y56000D02*
D03*
X560000Y42000D02*
D03*
Y14000D02*
D03*
X553000Y392000D02*
D03*
X546000Y350000D02*
D03*
Y322000D02*
D03*
Y294000D02*
D03*
X553000Y252000D02*
D03*
Y224000D02*
D03*
Y140000D02*
D03*
Y56000D02*
D03*
X546000Y42000D02*
D03*
Y14000D02*
D03*
X539000Y392000D02*
D03*
X532000Y294000D02*
D03*
X539000Y252000D02*
D03*
Y224000D02*
D03*
Y84000D02*
D03*
Y56000D02*
D03*
X532000Y14000D02*
D03*
X525000Y392000D02*
D03*
X518000Y294000D02*
D03*
X525000Y280000D02*
D03*
X518000Y266000D02*
D03*
Y126000D02*
D03*
X525000Y56000D02*
D03*
X518000Y14000D02*
D03*
X511000Y392000D02*
D03*
X504000Y294000D02*
D03*
X511000Y280000D02*
D03*
X504000Y266000D02*
D03*
Y126000D02*
D03*
Y14000D02*
D03*
X497000Y392000D02*
D03*
X490000Y294000D02*
D03*
X497000Y280000D02*
D03*
X490000Y266000D02*
D03*
X497000Y252000D02*
D03*
X490000Y126000D02*
D03*
Y14000D02*
D03*
X483000Y392000D02*
D03*
X476000Y294000D02*
D03*
X483000Y280000D02*
D03*
X476000Y266000D02*
D03*
X483000Y252000D02*
D03*
X476000Y126000D02*
D03*
Y14000D02*
D03*
X469000Y392000D02*
D03*
Y336000D02*
D03*
X462000Y294000D02*
D03*
X469000Y280000D02*
D03*
X462000Y266000D02*
D03*
X469000Y252000D02*
D03*
X462000Y126000D02*
D03*
Y70000D02*
D03*
Y14000D02*
D03*
X455000Y392000D02*
D03*
Y336000D02*
D03*
X448000Y322000D02*
D03*
Y294000D02*
D03*
X455000Y280000D02*
D03*
X448000Y266000D02*
D03*
X455000Y252000D02*
D03*
Y196000D02*
D03*
X448000Y182000D02*
D03*
X455000Y84000D02*
D03*
X448000Y70000D02*
D03*
Y42000D02*
D03*
Y14000D02*
D03*
X441000Y392000D02*
D03*
Y336000D02*
D03*
X434000Y322000D02*
D03*
Y294000D02*
D03*
X441000Y280000D02*
D03*
X434000Y266000D02*
D03*
X441000Y252000D02*
D03*
Y196000D02*
D03*
X434000Y182000D02*
D03*
Y70000D02*
D03*
Y42000D02*
D03*
Y14000D02*
D03*
X427000Y392000D02*
D03*
Y336000D02*
D03*
X420000Y322000D02*
D03*
Y294000D02*
D03*
X427000Y280000D02*
D03*
X420000Y266000D02*
D03*
X427000Y252000D02*
D03*
Y196000D02*
D03*
X420000Y182000D02*
D03*
Y126000D02*
D03*
X427000Y84000D02*
D03*
X420000Y70000D02*
D03*
Y42000D02*
D03*
Y14000D02*
D03*
X413000Y392000D02*
D03*
Y336000D02*
D03*
X406000Y322000D02*
D03*
Y294000D02*
D03*
X413000Y280000D02*
D03*
X406000Y266000D02*
D03*
X413000Y252000D02*
D03*
Y196000D02*
D03*
X406000Y182000D02*
D03*
Y126000D02*
D03*
X413000Y84000D02*
D03*
X406000Y70000D02*
D03*
Y42000D02*
D03*
Y14000D02*
D03*
X399000Y392000D02*
D03*
Y336000D02*
D03*
X392000Y322000D02*
D03*
Y294000D02*
D03*
X399000Y280000D02*
D03*
X392000Y266000D02*
D03*
X399000Y252000D02*
D03*
Y196000D02*
D03*
X392000Y182000D02*
D03*
Y126000D02*
D03*
X399000Y84000D02*
D03*
X392000Y70000D02*
D03*
Y42000D02*
D03*
Y14000D02*
D03*
X385000Y392000D02*
D03*
Y336000D02*
D03*
X378000Y322000D02*
D03*
Y294000D02*
D03*
X385000Y280000D02*
D03*
X378000Y266000D02*
D03*
X385000Y252000D02*
D03*
Y196000D02*
D03*
X378000Y182000D02*
D03*
Y126000D02*
D03*
X385000Y84000D02*
D03*
X378000Y70000D02*
D03*
Y42000D02*
D03*
Y14000D02*
D03*
X371000Y392000D02*
D03*
Y336000D02*
D03*
X364000Y322000D02*
D03*
Y294000D02*
D03*
X371000Y280000D02*
D03*
X364000Y266000D02*
D03*
X371000Y252000D02*
D03*
Y196000D02*
D03*
X364000Y182000D02*
D03*
Y126000D02*
D03*
X371000Y84000D02*
D03*
X364000Y70000D02*
D03*
Y42000D02*
D03*
Y14000D02*
D03*
X357000Y392000D02*
D03*
Y336000D02*
D03*
X350000Y322000D02*
D03*
Y294000D02*
D03*
X357000Y280000D02*
D03*
X350000Y266000D02*
D03*
X357000Y252000D02*
D03*
Y196000D02*
D03*
X350000Y182000D02*
D03*
X357000Y140000D02*
D03*
X350000Y126000D02*
D03*
X357000Y84000D02*
D03*
X350000Y70000D02*
D03*
Y42000D02*
D03*
Y14000D02*
D03*
X343000Y392000D02*
D03*
Y336000D02*
D03*
X336000Y322000D02*
D03*
Y294000D02*
D03*
X343000Y280000D02*
D03*
X336000Y266000D02*
D03*
X343000Y252000D02*
D03*
Y224000D02*
D03*
Y196000D02*
D03*
X336000Y182000D02*
D03*
X343000Y140000D02*
D03*
Y84000D02*
D03*
X336000Y70000D02*
D03*
Y42000D02*
D03*
Y14000D02*
D03*
X329000Y392000D02*
D03*
Y336000D02*
D03*
X322000Y294000D02*
D03*
X329000Y280000D02*
D03*
X322000Y266000D02*
D03*
X329000Y252000D02*
D03*
Y140000D02*
D03*
Y84000D02*
D03*
X322000Y14000D02*
D03*
X315000Y392000D02*
D03*
X308000Y294000D02*
D03*
X315000Y280000D02*
D03*
X308000Y266000D02*
D03*
X315000Y252000D02*
D03*
X308000Y14000D02*
D03*
X301000Y392000D02*
D03*
X294000Y294000D02*
D03*
X301000Y280000D02*
D03*
X294000Y266000D02*
D03*
X301000Y252000D02*
D03*
X294000Y126000D02*
D03*
Y14000D02*
D03*
X287000Y392000D02*
D03*
X280000Y294000D02*
D03*
X287000Y280000D02*
D03*
X280000Y266000D02*
D03*
X287000Y252000D02*
D03*
X280000Y126000D02*
D03*
Y14000D02*
D03*
X273000Y392000D02*
D03*
X266000Y294000D02*
D03*
X273000Y280000D02*
D03*
X266000Y266000D02*
D03*
X273000Y252000D02*
D03*
X266000Y126000D02*
D03*
Y14000D02*
D03*
X259000Y392000D02*
D03*
Y336000D02*
D03*
X252000Y322000D02*
D03*
Y294000D02*
D03*
X259000Y280000D02*
D03*
X252000Y266000D02*
D03*
X259000Y252000D02*
D03*
Y196000D02*
D03*
X252000Y182000D02*
D03*
X259000Y140000D02*
D03*
X252000Y70000D02*
D03*
Y42000D02*
D03*
Y14000D02*
D03*
X245000Y392000D02*
D03*
Y336000D02*
D03*
X238000Y322000D02*
D03*
Y294000D02*
D03*
X245000Y280000D02*
D03*
X238000Y266000D02*
D03*
X245000Y252000D02*
D03*
Y224000D02*
D03*
Y196000D02*
D03*
X238000Y182000D02*
D03*
X245000Y140000D02*
D03*
X238000Y126000D02*
D03*
X245000Y84000D02*
D03*
X238000Y70000D02*
D03*
Y42000D02*
D03*
Y14000D02*
D03*
X231000Y392000D02*
D03*
Y336000D02*
D03*
X224000Y322000D02*
D03*
Y294000D02*
D03*
X231000Y280000D02*
D03*
X224000Y266000D02*
D03*
X231000Y252000D02*
D03*
Y224000D02*
D03*
Y196000D02*
D03*
X224000Y182000D02*
D03*
X231000Y140000D02*
D03*
X224000Y126000D02*
D03*
X231000Y84000D02*
D03*
X224000Y70000D02*
D03*
Y42000D02*
D03*
Y14000D02*
D03*
X217000Y392000D02*
D03*
Y336000D02*
D03*
X210000Y322000D02*
D03*
Y294000D02*
D03*
X217000Y280000D02*
D03*
X210000Y266000D02*
D03*
X217000Y252000D02*
D03*
Y224000D02*
D03*
Y196000D02*
D03*
X210000Y182000D02*
D03*
X217000Y140000D02*
D03*
X210000Y126000D02*
D03*
X217000Y84000D02*
D03*
X210000Y70000D02*
D03*
Y42000D02*
D03*
Y14000D02*
D03*
X203000Y392000D02*
D03*
Y336000D02*
D03*
X196000Y322000D02*
D03*
Y294000D02*
D03*
X203000Y280000D02*
D03*
X196000Y266000D02*
D03*
X203000Y252000D02*
D03*
Y224000D02*
D03*
Y196000D02*
D03*
X196000Y182000D02*
D03*
X203000Y140000D02*
D03*
X196000Y126000D02*
D03*
X203000Y84000D02*
D03*
X196000Y70000D02*
D03*
Y42000D02*
D03*
Y14000D02*
D03*
X189000Y392000D02*
D03*
Y336000D02*
D03*
X182000Y322000D02*
D03*
Y294000D02*
D03*
X189000Y280000D02*
D03*
X182000Y266000D02*
D03*
X189000Y252000D02*
D03*
Y224000D02*
D03*
Y196000D02*
D03*
X182000Y182000D02*
D03*
X189000Y140000D02*
D03*
X182000Y126000D02*
D03*
X189000Y84000D02*
D03*
X182000Y70000D02*
D03*
Y42000D02*
D03*
Y14000D02*
D03*
X175000Y392000D02*
D03*
Y336000D02*
D03*
X168000Y322000D02*
D03*
Y294000D02*
D03*
X175000Y280000D02*
D03*
X168000Y266000D02*
D03*
X175000Y252000D02*
D03*
Y224000D02*
D03*
Y196000D02*
D03*
X168000Y182000D02*
D03*
X175000Y140000D02*
D03*
X168000Y126000D02*
D03*
X175000Y84000D02*
D03*
X168000Y70000D02*
D03*
Y42000D02*
D03*
Y14000D02*
D03*
X161000Y392000D02*
D03*
Y336000D02*
D03*
X154000Y322000D02*
D03*
Y294000D02*
D03*
X161000Y280000D02*
D03*
X154000Y266000D02*
D03*
X161000Y252000D02*
D03*
Y224000D02*
D03*
Y196000D02*
D03*
X154000Y182000D02*
D03*
X161000Y140000D02*
D03*
X154000Y126000D02*
D03*
X161000Y84000D02*
D03*
X154000Y70000D02*
D03*
Y42000D02*
D03*
Y14000D02*
D03*
X147000Y392000D02*
D03*
Y336000D02*
D03*
X140000Y294000D02*
D03*
X147000Y280000D02*
D03*
X140000Y266000D02*
D03*
X147000Y252000D02*
D03*
Y224000D02*
D03*
Y196000D02*
D03*
X140000Y182000D02*
D03*
X147000Y140000D02*
D03*
X140000Y126000D02*
D03*
X147000Y84000D02*
D03*
X140000Y70000D02*
D03*
Y42000D02*
D03*
Y14000D02*
D03*
X133000Y392000D02*
D03*
X126000Y322000D02*
D03*
X133000Y308000D02*
D03*
X126000Y294000D02*
D03*
X133000Y280000D02*
D03*
X126000Y266000D02*
D03*
X133000Y252000D02*
D03*
Y196000D02*
D03*
X126000Y182000D02*
D03*
X133000Y140000D02*
D03*
X126000Y126000D02*
D03*
X133000Y84000D02*
D03*
X126000Y70000D02*
D03*
Y42000D02*
D03*
Y14000D02*
D03*
X119000Y392000D02*
D03*
X112000Y378000D02*
D03*
X119000Y308000D02*
D03*
X112000Y294000D02*
D03*
X119000Y280000D02*
D03*
X112000Y266000D02*
D03*
X119000Y252000D02*
D03*
X112000Y238000D02*
D03*
X119000Y140000D02*
D03*
X112000Y126000D02*
D03*
Y14000D02*
D03*
X105000Y392000D02*
D03*
X98000Y378000D02*
D03*
X105000Y308000D02*
D03*
X98000Y294000D02*
D03*
X105000Y280000D02*
D03*
X98000Y266000D02*
D03*
X105000Y252000D02*
D03*
X98000Y238000D02*
D03*
X105000Y196000D02*
D03*
Y140000D02*
D03*
X98000Y126000D02*
D03*
Y98000D02*
D03*
Y14000D02*
D03*
X91000Y392000D02*
D03*
X84000Y378000D02*
D03*
X91000Y280000D02*
D03*
X84000Y266000D02*
D03*
X91000Y252000D02*
D03*
X84000Y238000D02*
D03*
X91000Y140000D02*
D03*
X84000Y126000D02*
D03*
X91000Y112000D02*
D03*
X84000Y98000D02*
D03*
Y14000D02*
D03*
X77000Y392000D02*
D03*
X70000Y378000D02*
D03*
Y14000D02*
D03*
X63000Y392000D02*
D03*
X56000Y378000D02*
D03*
Y294000D02*
D03*
Y154000D02*
D03*
Y126000D02*
D03*
Y98000D02*
D03*
X63000Y56000D02*
D03*
X56000Y14000D02*
D03*
X49000Y336000D02*
D03*
X42000Y322000D02*
D03*
X49000Y308000D02*
D03*
X42000Y294000D02*
D03*
X49000Y280000D02*
D03*
X42000Y266000D02*
D03*
X49000Y252000D02*
D03*
X42000Y238000D02*
D03*
Y210000D02*
D03*
X49000Y196000D02*
D03*
X42000Y182000D02*
D03*
X49000Y168000D02*
D03*
X42000Y154000D02*
D03*
X49000Y140000D02*
D03*
X42000Y126000D02*
D03*
X49000Y112000D02*
D03*
X42000Y98000D02*
D03*
Y70000D02*
D03*
X49000Y56000D02*
D03*
X35000Y336000D02*
D03*
X28000Y322000D02*
D03*
X35000Y308000D02*
D03*
X28000Y294000D02*
D03*
X35000Y280000D02*
D03*
X28000Y266000D02*
D03*
X35000Y252000D02*
D03*
X28000Y238000D02*
D03*
X35000Y224000D02*
D03*
X28000Y210000D02*
D03*
X35000Y196000D02*
D03*
X28000Y182000D02*
D03*
X35000Y168000D02*
D03*
X28000Y154000D02*
D03*
X35000Y140000D02*
D03*
X28000Y126000D02*
D03*
X35000Y112000D02*
D03*
X28000Y98000D02*
D03*
X35000Y84000D02*
D03*
X28000Y70000D02*
D03*
X35000Y56000D02*
D03*
X21000Y336000D02*
D03*
X14000Y322000D02*
D03*
X21000Y308000D02*
D03*
X14000Y294000D02*
D03*
X21000Y280000D02*
D03*
X14000Y266000D02*
D03*
X21000Y252000D02*
D03*
X14000Y238000D02*
D03*
X21000Y224000D02*
D03*
X14000Y210000D02*
D03*
X21000Y196000D02*
D03*
X14000Y182000D02*
D03*
X21000Y168000D02*
D03*
X14000Y154000D02*
D03*
X21000Y140000D02*
D03*
X14000Y126000D02*
D03*
X21000Y112000D02*
D03*
X14000Y98000D02*
D03*
X21000Y84000D02*
D03*
X14000Y70000D02*
D03*
X21000Y56000D02*
D03*
X500466Y211401D02*
D03*
X500503Y184641D02*
D03*
X469691Y200299D02*
D03*
X500000Y356000D02*
D03*
X84902Y43527D02*
D03*
X84789Y323865D02*
D03*
X85063Y184062D02*
D03*
X662000Y224000D02*
D03*
X809000Y357300D02*
D03*
X798000Y364000D02*
D03*
X947000Y152000D02*
D03*
X915000Y216000D02*
D03*
X831411Y364700D02*
D03*
X807000Y136000D02*
D03*
X500464Y75900D02*
D03*
X292608Y75402D02*
D03*
X829121Y298595D02*
D03*
X292500Y324195D02*
D03*
X708243Y76243D02*
D03*
X915000Y76000D02*
D03*
Y43000D02*
D03*
X708000Y40100D02*
D03*
X500000Y41100D02*
D03*
X292000Y39100D02*
D03*
X84962Y75795D02*
D03*
X84861Y215903D02*
D03*
X292000Y215000D02*
D03*
Y184000D02*
D03*
X707000Y217000D02*
D03*
X900000Y173000D02*
D03*
X915000Y324000D02*
D03*
Y354000D02*
D03*
X500000Y323000D02*
D03*
X84997Y356758D02*
D03*
X292619Y354795D02*
D03*
X109500Y44000D02*
D03*
X109193Y110000D02*
D03*
X842000Y170000D02*
D03*
X857920Y170595D02*
D03*
X916000Y369000D02*
D03*
X809424Y246292D02*
D03*
X906821Y286219D02*
D03*
X809121Y191700D02*
D03*
X863121Y295595D02*
D03*
X876666Y312327D02*
D03*
X883121Y173800D02*
D03*
X884121Y248595D02*
D03*
X794121Y214596D02*
D03*
Y205595D02*
D03*
X766121Y213595D02*
D03*
X856999Y269595D02*
D03*
X897121Y273595D02*
D03*
X858121Y284595D02*
D03*
X854581Y116595D02*
D03*
X854182Y136994D02*
D03*
D81*
X753000Y363000D02*
D03*
X841000Y333000D02*
D03*
X876000Y346000D02*
D03*
X826000Y229000D02*
D03*
X848000D02*
D03*
X837000Y219000D02*
D03*
X826000Y208000D02*
D03*
X848000D02*
D03*
X721431Y156595D02*
D03*
X766121Y308095D02*
D03*
D82*
X109500Y44000D02*
D03*
X60500D02*
D03*
Y76000D02*
D03*
X939500Y324000D02*
D03*
X890500D02*
D03*
Y356000D02*
D03*
X60500Y216000D02*
D03*
Y184000D02*
D03*
X109500D02*
D03*
X683000Y216000D02*
D03*
Y184000D02*
D03*
X732000D02*
D03*
X60500Y356000D02*
D03*
Y324000D02*
D03*
X109500D02*
D03*
X475500Y356000D02*
D03*
Y324000D02*
D03*
X524500D02*
D03*
X683000Y356000D02*
D03*
Y324000D02*
D03*
X732000D02*
D03*
X268000Y356000D02*
D03*
Y324000D02*
D03*
X317000D02*
D03*
X890500Y216000D02*
D03*
Y184000D02*
D03*
X939500D02*
D03*
X475500Y216000D02*
D03*
Y184000D02*
D03*
X524500D02*
D03*
X890500Y76000D02*
D03*
Y44000D02*
D03*
X939500D02*
D03*
X683000Y76000D02*
D03*
Y44000D02*
D03*
X732000D02*
D03*
X475500Y76000D02*
D03*
Y44000D02*
D03*
X524500D02*
D03*
X268000Y216000D02*
D03*
Y184000D02*
D03*
X317000D02*
D03*
X268000Y76000D02*
D03*
Y44000D02*
D03*
X317000D02*
D03*
D83*
X109500Y76000D02*
D03*
X939500Y356000D02*
D03*
X109500Y216000D02*
D03*
X732000D02*
D03*
X109500Y356000D02*
D03*
X524500D02*
D03*
X732000D02*
D03*
X317000D02*
D03*
X939500Y216000D02*
D03*
X524500D02*
D03*
X939500Y76000D02*
D03*
X732000D02*
D03*
X524500D02*
D03*
X317000Y216000D02*
D03*
Y76000D02*
D03*
D84*
X84997Y356758D02*
X110258D01*
X749000Y238000D02*
X770471D01*
X829121Y296650D01*
X830595Y298595D02*
X840579Y308579D01*
X84861Y215903D02*
X84958Y216000D01*
X109500D01*
X317000Y370000D02*
X321000Y374000D01*
X317000Y356000D02*
Y370000D01*
X110258Y356758D02*
X127500Y374000D01*
X109500Y356000D02*
X110258Y356758D01*
X127500Y374000D02*
X321000D01*
X840579Y308579D02*
X872918D01*
X524000Y374000D02*
X714000D01*
X321000D02*
X524000D01*
X524500Y373500D01*
Y356000D02*
Y373500D01*
X714000Y374000D02*
X732000Y356000D01*
X960000Y304000D02*
Y335500D01*
Y236500D02*
Y304000D01*
X956000Y308000D02*
X960000Y304000D01*
X939500Y216000D02*
X960000Y236500D01*
X880994Y308000D02*
X956000D01*
X876666Y312327D02*
X880994Y308000D01*
X939500Y356000D02*
X960000Y335500D01*
X315000Y238000D02*
X526000D01*
X131500D02*
X315000D01*
X317000Y236000D01*
Y216000D02*
Y236000D01*
X526000Y238000D02*
X749000D01*
X524500Y236500D02*
X526000Y238000D01*
X524500Y216000D02*
Y236500D01*
X747000Y213595D02*
X766121D01*
X734405D02*
X747000D01*
Y236000D01*
X749000Y238000D01*
X109500Y216000D02*
X131500Y238000D01*
D85*
X769121Y165595D02*
D03*
X781621D02*
D03*
X794121D02*
D03*
X806621D02*
D03*
M02*
