G04*
G04 #@! TF.GenerationSoftware,Altium Limited,Altium Designer,21.4.1 (30)*
G04*
G04 Layer_Physical_Order=1*
G04 Layer_Color=255*
%FSLAX44Y44*%
%MOMM*%
G71*
G04*
G04 #@! TF.SameCoordinates,2D50AE42-1DF2-48DA-B060-BAF50E4618A4*
G04*
G04*
G04 #@! TF.FilePolarity,Positive*
G04*
G01*
G75*
%ADD10C,0.2000*%
%ADD17C,0.3000*%
%ADD18C,2.0000*%
%ADD19R,1.0000X2.7000*%
%ADD20R,0.6000X1.7000*%
%ADD21R,1.8000X3.8000*%
%ADD22R,1.0000X2.7000*%
%ADD23R,1.0000X0.8000*%
%ADD24R,0.9000X0.7000*%
%ADD25R,0.8000X1.0000*%
%ADD26R,0.3000X0.5250*%
%ADD27R,1.1500X1.8200*%
%ADD28R,1.3208X0.5588*%
%ADD29R,0.7000X0.9000*%
%ADD30R,1.0800X0.2600*%
%ADD31R,0.2600X1.0800*%
%ADD32R,3.7000X3.7000*%
%ADD33R,2.0000X0.4000*%
%ADD34R,0.8000X0.8000*%
%ADD35R,1.3800X1.8200*%
%ADD36R,2.7940X1.9050*%
%ADD37R,2.3000X2.2000*%
%ADD38R,3.0000X2.1300*%
%ADD39R,0.6000X1.9700*%
%ADD40R,0.8900X0.9300*%
%ADD67C,0.1700*%
%ADD68R,2.4500X1.6500*%
%ADD69C,0.7000*%
%ADD70C,0.5000*%
%ADD71C,1.0000*%
%ADD72C,0.8000*%
%ADD73C,2.0000*%
%ADD74C,0.2500*%
%ADD75C,0.4000*%
%ADD76C,0.1800*%
%ADD77C,0.6000*%
%ADD78C,0.9000*%
%ADD79C,4.0000*%
%ADD80C,0.7000*%
%ADD81C,1.2700*%
G36*
X824737Y370970D02*
X824217Y370432D01*
X823403Y369479D01*
X823110Y369064D01*
X822892Y368690D01*
X822750Y368357D01*
X822684Y368065D01*
X822693Y367814D01*
X822778Y367603D01*
X822939Y367434D01*
X818934Y370439D01*
X819148Y370323D01*
X819393Y370273D01*
X819669Y370288D01*
X819976Y370369D01*
X820314Y370516D01*
X820683Y370729D01*
X821083Y371007D01*
X821514Y371352D01*
X822469Y372237D01*
X824737Y370970D01*
D02*
G37*
G36*
X849651Y368530D02*
X848920Y367778D01*
X847272Y365817D01*
X846906Y365262D01*
X846630Y364756D01*
X846445Y364300D01*
X846352Y363893D01*
X846350Y363535D01*
X846439Y363227D01*
X843727Y368939D01*
X843891Y368705D01*
X844112Y368571D01*
X844391Y368537D01*
X844729Y368603D01*
X845124Y368768D01*
X845577Y369033D01*
X846088Y369398D01*
X846658Y369863D01*
X847970Y371091D01*
X849651Y368530D01*
D02*
G37*
G36*
X837561Y362100D02*
X837531Y362385D01*
X837440Y362640D01*
X837288Y362865D01*
X837076Y363060D01*
X836803Y363225D01*
X836470Y363360D01*
X836076Y363465D01*
X835824Y363507D01*
X835819Y363506D01*
X835522Y363432D01*
X835246Y363338D01*
X834990Y363223D01*
X834755Y363086D01*
X834541Y362929D01*
X834347Y362751D01*
X834174Y362552D01*
X833614Y367420D01*
X833824Y367264D01*
X834051Y367125D01*
X834294Y367002D01*
X834553Y366895D01*
X834829Y366805D01*
X835120Y366731D01*
X835428Y366674D01*
X835572Y366656D01*
X835621Y366660D01*
X836076Y366735D01*
X836470Y366840D01*
X836803Y366975D01*
X837076Y367140D01*
X837288Y367335D01*
X837440Y367560D01*
X837531Y367815D01*
X837561Y368100D01*
Y362100D01*
D02*
G37*
G36*
X960996Y398730D02*
X958756Y397357D01*
X955459Y394541D01*
X952643Y391244D01*
X950377Y387546D01*
X948717Y383540D01*
X947705Y379323D01*
X947365Y375000D01*
X947705Y370677D01*
X948717Y366460D01*
X950377Y362454D01*
X952643Y358756D01*
X955459Y355459D01*
X958756Y352643D01*
X962454Y350377D01*
X966460Y348717D01*
X970677Y347705D01*
X975000Y347365D01*
X979323Y347705D01*
X983540Y348717D01*
X987546Y350377D01*
X991244Y352643D01*
X994541Y355459D01*
X997357Y358756D01*
X998730Y360997D01*
X1000000Y360638D01*
Y39362D01*
X998730Y39004D01*
X997357Y41244D01*
X994541Y44541D01*
X991244Y47357D01*
X987546Y49623D01*
X983540Y51283D01*
X979323Y52295D01*
X975000Y52635D01*
X970677Y52295D01*
X966460Y51283D01*
X962454Y49623D01*
X958756Y47357D01*
X955459Y44541D01*
X952643Y41244D01*
X950377Y37546D01*
X948717Y33540D01*
X947705Y29323D01*
X947365Y25000D01*
X947705Y20677D01*
X948717Y16460D01*
X950377Y12454D01*
X952643Y8756D01*
X955459Y5459D01*
X958756Y2643D01*
X960996Y1270D01*
X960638Y0D01*
X39362D01*
X39004Y1270D01*
X41244Y2643D01*
X44541Y5459D01*
X47357Y8756D01*
X49623Y12454D01*
X51283Y16460D01*
X52295Y20677D01*
X52635Y25000D01*
X52295Y29323D01*
X51283Y33540D01*
X49623Y37546D01*
X47357Y41244D01*
X44541Y44541D01*
X41244Y47357D01*
X37546Y49623D01*
X33540Y51283D01*
X29323Y52295D01*
X25000Y52635D01*
X20677Y52295D01*
X16460Y51283D01*
X12454Y49623D01*
X8756Y47357D01*
X5459Y44541D01*
X2643Y41244D01*
X1270Y39004D01*
X0Y39362D01*
Y360638D01*
X1270Y360997D01*
X2643Y358756D01*
X5459Y355459D01*
X8756Y352643D01*
X12454Y350377D01*
X16460Y348717D01*
X20677Y347705D01*
X25000Y347365D01*
X29323Y347705D01*
X33540Y348717D01*
X37546Y350377D01*
X41244Y352643D01*
X44541Y355459D01*
X47357Y358756D01*
X49623Y362454D01*
X51283Y366460D01*
X52295Y370677D01*
X52635Y375000D01*
X52295Y379323D01*
X51283Y383540D01*
X49623Y387546D01*
X47357Y391244D01*
X44541Y394541D01*
X41244Y397357D01*
X39004Y398730D01*
X39362Y400000D01*
X687637D01*
X688023Y398730D01*
X686972Y398028D01*
X650599Y361655D01*
X650276Y361386D01*
X649761Y361016D01*
X649277Y360727D01*
X648828Y360514D01*
X648417Y360370D01*
X648040Y360287D01*
X647692Y360257D01*
X647362Y360274D01*
X646920Y360360D01*
X646809Y360360D01*
X645540Y360700D01*
X642460D01*
X639484Y359903D01*
X636816Y358362D01*
X634638Y356184D01*
X633551Y354302D01*
X619000D01*
X616971Y353898D01*
X615251Y352749D01*
X483804Y221302D01*
X347000D01*
X344971Y220898D01*
X343251Y219749D01*
X282501Y158999D01*
X281352Y157279D01*
X280948Y155250D01*
Y139941D01*
X281352Y137912D01*
X281550Y137615D01*
Y129741D01*
X290950D01*
Y137615D01*
X291148Y137912D01*
X291552Y139941D01*
Y153037D01*
X292509Y153810D01*
X293548Y153254D01*
X293448Y152750D01*
Y139941D01*
X293852Y137912D01*
X294050Y137615D01*
Y129741D01*
X303450D01*
X304492Y129191D01*
Y115758D01*
X262790D01*
Y123981D01*
X256520D01*
Y107941D01*
Y91901D01*
X262790D01*
Y102242D01*
X322210D01*
Y91901D01*
X328480D01*
Y107941D01*
Y123981D01*
X322210D01*
Y115758D01*
X318008D01*
Y139941D01*
X317778Y141690D01*
X317102Y143319D01*
X316790Y143727D01*
Y150981D01*
X312520D01*
Y139941D01*
X309980D01*
Y150981D01*
X306275D01*
X305749Y152250D01*
X311196Y157698D01*
X350804D01*
X376251Y132251D01*
X377971Y131102D01*
X380000Y130698D01*
X426946D01*
X428150Y130540D01*
Y115758D01*
X337290D01*
Y123981D01*
X331020D01*
Y107941D01*
Y91901D01*
X337290D01*
Y102242D01*
X428150D01*
Y87460D01*
X438420D01*
Y109000D01*
X440961D01*
Y87460D01*
X451231D01*
Y100760D01*
X451284Y100810D01*
X451920Y101198D01*
X452795Y101554D01*
X453912Y101854D01*
X455267Y102079D01*
X456853Y102219D01*
X457750Y102242D01*
X541631D01*
X542528Y102219D01*
X544114Y102079D01*
X545469Y101854D01*
X546586Y101554D01*
X547461Y101198D01*
X548097Y100810D01*
X548150Y100760D01*
Y87460D01*
X558420D01*
Y109000D01*
Y130540D01*
X548150D01*
Y117240D01*
X548097Y117190D01*
X547461Y116803D01*
X546586Y116446D01*
X545469Y116146D01*
X544114Y115921D01*
X542528Y115781D01*
X541631Y115758D01*
X536448D01*
Y131148D01*
X536750Y139960D01*
X544730D01*
Y143042D01*
X545877Y143474D01*
X547512Y143880D01*
X549561Y144221D01*
X558020Y144794D01*
X721431D01*
X722654Y144955D01*
X723208D01*
X724431Y144794D01*
X725654Y144955D01*
X730871D01*
Y146789D01*
X732775Y148251D01*
X734651Y150695D01*
X735589Y152958D01*
X736963D01*
X737901Y150695D01*
X739776Y148251D01*
X740211Y147816D01*
Y147470D01*
X740209Y147460D01*
X740211Y147454D01*
Y145795D01*
X741258D01*
X754670Y133357D01*
X777586Y110441D01*
X780030Y108565D01*
X782876Y107387D01*
X785931Y106984D01*
X831012D01*
X874412Y63584D01*
X876857Y61709D01*
X879703Y60530D01*
X882757Y60128D01*
X913895D01*
X915521Y60342D01*
X916748Y59222D01*
X916736Y58938D01*
X916231Y58582D01*
X915063Y57867D01*
X913947Y57294D01*
X913740Y57209D01*
X913346Y57158D01*
X907460D01*
Y51887D01*
X913410D01*
X910031Y54587D01*
X911143Y54658D01*
X912288Y54870D01*
X913465Y55223D01*
X914672Y55718D01*
X915912Y56355D01*
X917184Y57133D01*
X918487Y58052D01*
X919822Y59113D01*
X922587Y61658D01*
X930576Y55505D01*
X928561Y53507D01*
X920924Y46710D01*
X920394Y46442D01*
X920076Y46422D01*
X919969Y46648D01*
X915000Y50617D01*
Y49348D01*
X907460D01*
Y44078D01*
X908242D01*
Y43000D01*
X908473Y41251D01*
X909148Y39621D01*
X910221Y38221D01*
X911621Y37148D01*
X913251Y36472D01*
X915000Y36242D01*
X916749Y36472D01*
X918379Y37148D01*
X919779Y38221D01*
X920852Y39621D01*
X921527Y41251D01*
X921758Y43000D01*
Y44078D01*
X922540D01*
Y45182D01*
X923396Y45839D01*
X935779Y58222D01*
X936852Y59621D01*
X937527Y61251D01*
X937758Y63000D01*
Y112420D01*
X937825Y113703D01*
X938085Y115173D01*
X938497Y116410D01*
X939047Y117431D01*
X939732Y118268D01*
X940569Y118953D01*
X940946Y119156D01*
X941195Y119071D01*
X943300Y116966D01*
X946160Y115315D01*
X949349Y114460D01*
X949730D01*
Y127000D01*
Y139540D01*
X949349D01*
X946160Y138685D01*
X943300Y137035D01*
X941195Y134929D01*
X940946Y134844D01*
X940569Y135047D01*
X939732Y135732D01*
X939047Y136569D01*
X938497Y137590D01*
X938085Y138827D01*
X937825Y140297D01*
X937758Y141580D01*
Y173000D01*
Y248000D01*
Y308000D01*
X937527Y309749D01*
X936852Y311379D01*
X935779Y312778D01*
X922540Y326017D01*
Y329347D01*
X915000D01*
X907460D01*
Y324077D01*
X908242D01*
Y324000D01*
X908473Y322251D01*
X909148Y320621D01*
X910221Y319222D01*
Y319221D01*
X910222Y319221D01*
X924242Y305201D01*
Y262581D01*
X924175Y261297D01*
X923915Y259827D01*
X923503Y258590D01*
X922953Y257569D01*
X922268Y256732D01*
X921431Y256047D01*
X920410Y255497D01*
X919173Y255085D01*
X917703Y254825D01*
X916420Y254758D01*
X908161D01*
Y256135D01*
X902891D01*
Y253033D01*
X902958Y253036D01*
X903381Y253209D01*
X903722Y253534D01*
X902891Y252427D01*
Y248595D01*
X900351D01*
Y249046D01*
X897682Y245494D01*
X897917Y245924D01*
X898020Y246417D01*
X897992Y246971D01*
X897833Y247586D01*
X897542Y248262D01*
X897120Y249000D01*
X897083Y249054D01*
X896621Y248592D01*
X896552Y248940D01*
X896345Y249397D01*
X896000Y249962D01*
X895516Y250636D01*
X894136Y252309D01*
X891031Y255635D01*
X889720Y256960D01*
X893256Y260496D01*
X894581Y259185D01*
X900254Y254216D01*
X900351Y254157D01*
Y256436D01*
X896206Y260066D01*
X888843Y267429D01*
X888411Y268555D01*
X888411D01*
X888411Y268555D01*
Y273825D01*
X881871D01*
X875331D01*
Y270214D01*
X874061Y269688D01*
X864874Y278874D01*
X864015Y279449D01*
X863062Y279639D01*
X862966Y279716D01*
X862381Y280826D01*
X862367Y280921D01*
X862830Y281551D01*
X862831Y281551D01*
X863024Y281583D01*
X863070Y281587D01*
X863595D01*
X864746Y281816D01*
X865722Y282468D01*
X874998Y291744D01*
X876171Y291258D01*
Y284395D01*
X885836D01*
X885851Y284392D01*
X885865Y284395D01*
X887571D01*
Y285562D01*
X887654Y285575D01*
X887797Y285587D01*
X890694D01*
X890846Y285574D01*
X890921Y285562D01*
Y283395D01*
X902362D01*
X902412Y283273D01*
X903875Y281810D01*
X905787Y281019D01*
X907855D01*
X909766Y281810D01*
X911229Y283273D01*
X912021Y285184D01*
Y287253D01*
X911229Y289164D01*
X910607Y289786D01*
X910528Y289911D01*
X910346Y290103D01*
X910227Y290250D01*
X910126Y290396D01*
X910042Y290543D01*
X909971Y290693D01*
X909914Y290849D01*
X909868Y291014D01*
X909834Y291191D01*
X909829Y291239D01*
Y300765D01*
X909829Y300765D01*
X909600Y301916D01*
X908948Y302892D01*
X901008Y310832D01*
Y358631D01*
X901008Y358632D01*
X901008Y358632D01*
Y368000D01*
X900779Y369151D01*
X900127Y370127D01*
X890127Y380127D01*
X889151Y380779D01*
X888000Y381008D01*
X830000D01*
X830000Y381008D01*
X828849Y380779D01*
X827873Y380127D01*
X820791Y373045D01*
X820383Y372666D01*
X820046Y372397D01*
X819763Y372200D01*
X813479D01*
X813282Y372440D01*
Y376000D01*
X812956Y377639D01*
X812028Y379028D01*
X793028Y398028D01*
X791977Y398730D01*
X792363Y400000D01*
X960638D01*
X960996Y398730D01*
D02*
G37*
G36*
X703326Y380544D02*
X687147Y364366D01*
X686710Y364000D01*
X685849Y363366D01*
X684959Y362790D01*
X684036Y362273D01*
X683081Y361813D01*
X682092Y361411D01*
X681068Y361066D01*
X680007Y360777D01*
X679640Y360700D01*
X679460D01*
X676484Y359903D01*
X675883Y359556D01*
X675103Y360572D01*
X696249Y381718D01*
X702840D01*
X703326Y380544D01*
D02*
G37*
G36*
X656150Y357614D02*
X655542Y356971D01*
X655014Y356337D01*
X654566Y355712D01*
X654197Y355096D01*
X653908Y354489D01*
X653699Y353891D01*
X653570Y353302D01*
X653520Y352721D01*
X653550Y352150D01*
X653659Y351588D01*
X646588Y358659D01*
X647150Y358550D01*
X647721Y358520D01*
X648302Y358570D01*
X648891Y358699D01*
X649489Y358908D01*
X650096Y359197D01*
X650712Y359566D01*
X651337Y360014D01*
X651971Y360542D01*
X652614Y361150D01*
X656150Y357614D01*
D02*
G37*
G36*
X887585Y362108D02*
X887661Y361895D01*
X887788Y361708D01*
X887965Y361545D01*
X888193Y361408D01*
X888471Y361295D01*
X888800Y361208D01*
X889179Y361145D01*
X889610Y361108D01*
X890090Y361095D01*
Y358595D01*
X889610Y358583D01*
X889179Y358545D01*
X888800Y358483D01*
X888471Y358395D01*
X888193Y358283D01*
X887965Y358145D01*
X887788Y357983D01*
X887661Y357795D01*
X887585Y357583D01*
X887560Y357345D01*
Y362345D01*
X887585Y362108D01*
D02*
G37*
G36*
X811174Y360067D02*
X811405Y359948D01*
X811652Y359843D01*
X811915Y359752D01*
X812193Y359675D01*
X812487Y359612D01*
X812797Y359563D01*
X813465Y359507D01*
X813822Y359500D01*
X814507Y356500D01*
X814147Y356489D01*
X813811Y356456D01*
X813496Y356401D01*
X813205Y356324D01*
X812937Y356225D01*
X812692Y356104D01*
X812469Y355961D01*
X812270Y355796D01*
X812093Y355608D01*
X811939Y355399D01*
X810959Y360200D01*
X811174Y360067D01*
D02*
G37*
G36*
X869185Y358486D02*
X869260Y357632D01*
X869385Y356878D01*
X869560Y356225D01*
X869785Y355672D01*
X870060Y355219D01*
X870385Y354866D01*
X870760Y354614D01*
X871185Y354461D01*
X871660Y354409D01*
X864151Y354440D01*
X864160Y359440D01*
X869160D01*
X869185Y358486D01*
D02*
G37*
G36*
X749430Y353931D02*
X749331Y354704D01*
X749031Y355396D01*
X748531Y356006D01*
X747831Y356535D01*
X746930Y356983D01*
X745831Y357349D01*
X744530Y357634D01*
X743030Y357837D01*
X741330Y357959D01*
X739430Y358000D01*
Y368000D01*
X741330Y368041D01*
X744530Y368366D01*
X745831Y368651D01*
X746930Y369017D01*
X747831Y369465D01*
X748531Y369994D01*
X749031Y370605D01*
X749331Y371296D01*
X749430Y372070D01*
Y353931D01*
D02*
G37*
G36*
X846500Y356500D02*
X846500D01*
X846500Y356500D01*
X845930Y356470D01*
X845420Y356380D01*
X844970Y356230D01*
X844580Y356020D01*
X844250Y355750D01*
X843980Y355420D01*
X843770Y355030D01*
X843756Y354989D01*
X843875Y354697D01*
X844040Y354424D01*
X844235Y354212D01*
X844460Y354060D01*
X844715Y353969D01*
X845000Y353939D01*
X843523D01*
X843500Y353500D01*
X840500D01*
Y353500D01*
X840500D01*
X840477Y353939D01*
X839000D01*
X839285Y353969D01*
X839540Y354060D01*
X839765Y354212D01*
X839960Y354424D01*
X840125Y354697D01*
X840244Y354989D01*
X840230Y355030D01*
X840200Y355086D01*
X840020Y355420D01*
X839750Y355750D01*
X839420Y356020D01*
X839030Y356230D01*
X838580Y356380D01*
X838070Y356470D01*
X837500Y356500D01*
X837500Y356500D01*
X837500D01*
X842000Y359500D01*
X846500Y356500D01*
D02*
G37*
G36*
X766940Y371609D02*
Y350884D01*
X766659Y349471D01*
X766659Y349471D01*
Y332845D01*
X767102Y330621D01*
X767771Y329619D01*
Y321295D01*
X767391Y321292D01*
Y308095D01*
X766121D01*
Y306825D01*
X748581D01*
Y298598D01*
X747412Y298101D01*
X746875Y298618D01*
X741874Y303619D01*
X741360Y304177D01*
X740414Y305343D01*
X740100Y305791D01*
X739874Y306164D01*
X739746Y306426D01*
X739709Y306538D01*
X739700Y306604D01*
Y308200D01*
X739542D01*
X739413Y310428D01*
Y316612D01*
X739428Y317381D01*
X739468Y317895D01*
X739821D01*
Y319611D01*
X739824Y319626D01*
X739821Y319640D01*
Y330295D01*
X729421D01*
Y319640D01*
X729418Y319626D01*
X729421Y319611D01*
Y317895D01*
X729679D01*
X729829Y315555D01*
Y309380D01*
X729751Y308200D01*
X729300D01*
Y306484D01*
X729297Y306469D01*
X729300Y306455D01*
Y295800D01*
X735616D01*
X736449Y295210D01*
X738307Y293620D01*
X738298Y293239D01*
X737930Y292350D01*
X728550D01*
Y279650D01*
X731340D01*
X731369Y279542D01*
X731419Y279242D01*
X731437Y279037D01*
Y275300D01*
X731686Y274051D01*
X732393Y272993D01*
X736321Y269065D01*
X735795Y267795D01*
X712921D01*
X712758Y268998D01*
Y278810D01*
X718030D01*
Y286000D01*
Y293190D01*
X716184D01*
X715815Y294460D01*
X715952Y294547D01*
X716936Y294933D01*
X718116Y295178D01*
X719158Y295242D01*
X719500D01*
X721249Y295473D01*
X722040Y295800D01*
X724700D01*
Y297771D01*
X725352Y298621D01*
X726028Y300251D01*
X726258Y302000D01*
X726028Y303749D01*
X725352Y305379D01*
X724700Y306229D01*
Y308200D01*
X722040D01*
X721249Y308528D01*
X719500Y308758D01*
X718927D01*
X718036Y308794D01*
X716771Y308964D01*
X715712Y309234D01*
X714855Y309587D01*
X714186Y310006D01*
X713674Y310484D01*
X713284Y311039D01*
X712993Y311706D01*
X712805Y312521D01*
X712758Y313204D01*
Y313500D01*
X712700Y313939D01*
Y316150D01*
X713581Y317055D01*
X718351D01*
Y324095D01*
X719621D01*
Y325365D01*
X725661D01*
Y331135D01*
X725661D01*
Y332055D01*
X725661D01*
Y337825D01*
X719621D01*
Y339095D01*
X718351D01*
Y346136D01*
X717865Y347308D01*
X726799Y356242D01*
X740556D01*
X741249Y356227D01*
X742852Y356112D01*
X744228Y355926D01*
X745370Y355675D01*
X746267Y355377D01*
X746860Y355082D01*
Y351360D01*
X753880D01*
Y363000D01*
X755150D01*
Y364270D01*
X763440D01*
Y371988D01*
X766560D01*
X766940Y371609D01*
D02*
G37*
G36*
X695662Y359005D02*
X694855Y358138D01*
X694123Y357225D01*
X693466Y356266D01*
X692884Y355263D01*
X692378Y354214D01*
X691947Y353120D01*
X691591Y351980D01*
X691310Y350795D01*
X691105Y349565D01*
X690975Y348289D01*
X679219Y358840D01*
X680414Y359091D01*
X681573Y359407D01*
X682696Y359785D01*
X683784Y360228D01*
X684837Y360734D01*
X685854Y361305D01*
X686835Y361939D01*
X687781Y362637D01*
X688692Y363399D01*
X689567Y364224D01*
X695662Y359005D01*
D02*
G37*
G36*
X862581Y361063D02*
X862339Y359845D01*
X862377Y359650D01*
Y357010D01*
X861581D01*
Y349325D01*
X861382Y348885D01*
X860898Y348011D01*
X860317Y347121D01*
X859638Y346217D01*
X859145Y345639D01*
X854808Y341302D01*
X844365D01*
X842270Y341863D01*
Y338258D01*
X843097Y338994D01*
X850407Y339500D01*
X851140Y332500D01*
X850439Y332487D01*
X849234Y332385D01*
X848731Y332296D01*
X848293Y332181D01*
X847922Y332041D01*
X847617Y331875D01*
X847377Y331684D01*
X847204Y331467D01*
X847097Y331225D01*
X842270Y335662D01*
Y333000D01*
X840570D01*
Y332500D01*
X839240Y332465D01*
X838049Y332360D01*
X837000Y332185D01*
X836089Y331940D01*
X835320Y331625D01*
X834689Y331240D01*
X834200Y330785D01*
X833849Y330260D01*
X833640Y329665D01*
X833569Y329000D01*
Y332371D01*
X833273Y332421D01*
X832375Y332491D01*
X831850Y332500D01*
Y339500D01*
X833569Y339356D01*
Y341069D01*
X833640Y340771D01*
X833849Y340504D01*
X834200Y340269D01*
X834689Y340065D01*
X835320Y339892D01*
X836089Y339751D01*
X837000Y339641D01*
X839240Y339516D01*
X839730Y339510D01*
Y341863D01*
X837757Y341335D01*
X837152Y341369D01*
X836350Y341465D01*
X836140Y341504D01*
Y343640D01*
X832035D01*
X832022Y343648D01*
X827501Y347550D01*
X827458Y347596D01*
X826787Y348447D01*
X826206Y349281D01*
X825725Y350079D01*
X825540Y350447D01*
Y354737D01*
X835800D01*
Y345300D01*
X848200D01*
Y354737D01*
X850636D01*
X851884Y354986D01*
X852943Y355693D01*
X859987Y362737D01*
X862581D01*
Y361063D01*
D02*
G37*
G36*
X869565Y353009D02*
X870035Y352635D01*
X870507Y352326D01*
X870979Y352081D01*
X871451Y351901D01*
X871924Y351785D01*
X872398Y351734D01*
X872872Y351746D01*
X873347Y351824D01*
X873822Y351965D01*
X869993Y343942D01*
X869818Y344408D01*
X869615Y344872D01*
X869384Y345334D01*
X868834Y346252D01*
X868517Y346707D01*
X867795Y347613D01*
X867391Y348063D01*
X866959Y348511D01*
X869094Y353446D01*
X869565Y353009D01*
D02*
G37*
G36*
X746129Y370718D02*
X745306Y370311D01*
X744257Y370081D01*
X741224Y369772D01*
X740556Y369758D01*
X724000D01*
X722251Y369528D01*
X720621Y368852D01*
X719221Y367779D01*
X701221Y349779D01*
X700148Y348379D01*
X699473Y346749D01*
X699242Y345000D01*
Y344278D01*
X699240Y344209D01*
X699163Y343433D01*
X699035Y342671D01*
X698946Y342301D01*
X694442D01*
X691917Y341968D01*
X691095Y343084D01*
X691903Y344484D01*
X692700Y347460D01*
Y348122D01*
X692824Y349334D01*
X693010Y350452D01*
X693263Y351521D01*
X693582Y352543D01*
X693967Y353518D01*
X694417Y354450D01*
X694932Y355340D01*
X695516Y356191D01*
X695943Y356724D01*
X711207Y371988D01*
X745832D01*
X746129Y370718D01*
D02*
G37*
G36*
X774533Y373129D02*
X779130Y377726D01*
X780771Y376143D01*
X783713Y373653D01*
X785014Y372748D01*
X786202Y372070D01*
X787276Y371617D01*
X788238Y371391D01*
X789087D01*
X789822Y371617D01*
X790444Y372070D01*
X782901Y364527D01*
X786277Y361056D01*
X790539Y367744D01*
X790202Y367012D01*
X790066Y366192D01*
X790131Y365283D01*
X790398Y364285D01*
X790866Y363198D01*
X791535Y362022D01*
X792406Y360757D01*
X793478Y359404D01*
X794752Y357962D01*
X796226Y356431D01*
X794675Y352422D01*
X798150Y348850D01*
X802150D01*
X802167Y347372D01*
X802425Y343871D01*
X802580Y343015D01*
X802769Y342314D01*
X802993Y341770D01*
X803251Y341381D01*
X803543Y341147D01*
X803869Y341069D01*
X792430D01*
X792757Y341147D01*
X793049Y341381D01*
X793307Y341770D01*
X793531Y342314D01*
X793720Y343015D01*
X793875Y343871D01*
X793995Y344882D01*
X794133Y347372D01*
X794150Y348850D01*
X798150D01*
X798000Y349000D01*
X793351D01*
X793070Y348274D01*
X792319Y349000D01*
X777710D01*
X776930Y348274D01*
X776611Y349000D01*
X768562D01*
X768549Y349013D01*
X768674Y349138D01*
Y372326D01*
X764000Y377000D01*
X765000Y378000D01*
X767000D01*
Y379150D01*
X767850Y380000D01*
X774533Y373129D01*
D02*
G37*
G36*
X657929Y354586D02*
X657718Y353525D01*
Y342774D01*
X645666Y330722D01*
X645605Y330667D01*
X644491Y329782D01*
X644003Y329450D01*
X643527Y329164D01*
X643081Y328934D01*
X642667Y328759D01*
X642490Y328700D01*
X642460D01*
X639484Y327903D01*
X636816Y326362D01*
X634638Y324184D01*
X633097Y321516D01*
X632300Y318540D01*
Y315460D01*
X633097Y312484D01*
X634638Y309816D01*
X636816Y307638D01*
X639484Y306097D01*
X639718Y306035D01*
Y304023D01*
X506895Y171200D01*
X500490D01*
Y141302D01*
X498890D01*
Y171200D01*
X495616D01*
X495589Y171339D01*
X494440Y173058D01*
X491302Y176196D01*
Y183807D01*
X492460Y184077D01*
X492572Y184077D01*
X494463D01*
Y183440D01*
X495382Y181220D01*
X497081Y179521D01*
X499233Y178630D01*
Y184641D01*
X501773D01*
Y178630D01*
X503924Y179521D01*
X505623Y181220D01*
X506543Y183440D01*
Y184077D01*
X507540D01*
Y189347D01*
X500000D01*
Y190618D01*
X498730D01*
Y197157D01*
X492572D01*
X492460Y197157D01*
X491302Y197428D01*
Y213804D01*
X621196Y343698D01*
X633551D01*
X634638Y341816D01*
X636816Y339638D01*
X639484Y338097D01*
X642460Y337300D01*
X645540D01*
X648516Y338097D01*
X651184Y339638D01*
X653362Y341816D01*
X654903Y344484D01*
X655700Y347460D01*
Y350540D01*
X655360Y351809D01*
X655360Y351920D01*
X655274Y352363D01*
X655257Y352692D01*
X655287Y353040D01*
X655370Y353417D01*
X655514Y353829D01*
X655727Y354277D01*
X656016Y354761D01*
X656280Y355128D01*
X656800Y355415D01*
X657929Y354586D01*
D02*
G37*
G36*
X711030Y344095D02*
X711118Y343203D01*
X711266Y342325D01*
X711473Y341461D01*
X711739Y340610D01*
X712064Y339772D01*
X712448Y338948D01*
X712892Y338138D01*
X713394Y337341D01*
X713956Y336558D01*
X698044D01*
X698606Y337341D01*
X699108Y338138D01*
X699552Y338948D01*
X699936Y339772D01*
X700261Y340610D01*
X700527Y341461D01*
X700734Y342325D01*
X700882Y343203D01*
X700971Y344095D01*
X701000Y345000D01*
X711000D01*
X711030Y344095D01*
D02*
G37*
G36*
X804718Y374226D02*
Y373245D01*
X804518Y372240D01*
Y360760D01*
X804615Y360269D01*
X804592Y360246D01*
X803800Y358334D01*
Y356266D01*
X804592Y354354D01*
X806054Y352892D01*
X807966Y352100D01*
X810034D01*
X810460Y351816D01*
Y350770D01*
X818000D01*
Y349500D01*
X822970Y353470D01*
X823019Y352662D01*
X823167Y351835D01*
X823415Y350989D01*
X823762Y350124D01*
X824207Y349240D01*
X824751Y348337D01*
X825395Y347414D01*
X826137Y346472D01*
X826292Y346303D01*
X830980Y342257D01*
X831785Y341738D01*
X832484Y341367D01*
X833079Y341144D01*
X833569Y341069D01*
X822161Y335470D01*
X822705Y335860D01*
X823018Y336384D01*
X823099Y337041D01*
X822948Y337831D01*
X822566Y338755D01*
X821952Y339811D01*
X821106Y341001D01*
X820040Y342311D01*
X819086Y343105D01*
X818163Y343749D01*
X817260Y344293D01*
X816376Y344739D01*
X815510Y345085D01*
X814665Y345332D01*
X813838Y345481D01*
X813030Y345531D01*
X816410Y348230D01*
X810460D01*
Y342960D01*
X816053D01*
X816421Y342775D01*
X817219Y342294D01*
X818034Y341726D01*
X818802Y341087D01*
X819560Y340155D01*
Y333270D01*
X827850D01*
Y330730D01*
X819560D01*
Y320360D01*
X819560Y320360D01*
X819560Y320360D01*
X819995Y319753D01*
X819770Y318554D01*
X819750Y318550D01*
X819002Y318489D01*
X817821Y318778D01*
Y319795D01*
X816105D01*
X816090Y319798D01*
X816076Y319795D01*
X807421D01*
Y307395D01*
X816076D01*
X816090Y307392D01*
X816105Y307395D01*
X817821D01*
Y308487D01*
X818010Y308544D01*
X818492Y308641D01*
X819240Y308702D01*
X820421Y308412D01*
Y307395D01*
X822137D01*
X822151Y307392D01*
X822166Y307395D01*
X827633D01*
X828392Y306742D01*
X829166Y305968D01*
X828680Y304795D01*
X823421D01*
Y292395D01*
X833821D01*
X834163Y291267D01*
Y290923D01*
X833821Y289795D01*
X832893Y289795D01*
X823421D01*
Y277395D01*
X833821Y277395D01*
X834163Y276267D01*
Y265341D01*
X834392Y264190D01*
X835044Y263214D01*
X843143Y255115D01*
X842617Y253845D01*
X825961D01*
Y254685D01*
X825161D01*
Y259325D01*
X812081D01*
Y255185D01*
X810811Y254659D01*
X808157Y257313D01*
X807753Y257748D01*
X807475Y258095D01*
X807321Y258317D01*
Y259147D01*
X807324Y259161D01*
X807321Y259175D01*
Y267295D01*
X795921D01*
Y253895D01*
X802041D01*
X802055Y253892D01*
X802069Y253895D01*
X802899D01*
X803101Y253755D01*
X803793Y253169D01*
X806068Y250894D01*
X806029Y250738D01*
X805970Y250559D01*
X805897Y250385D01*
X805811Y250213D01*
X805708Y250042D01*
X805588Y249870D01*
X805415Y249654D01*
X805396Y249617D01*
X805016Y249237D01*
X804224Y247326D01*
Y245257D01*
X805016Y243346D01*
X805497Y242865D01*
X805393Y242205D01*
X805378Y242172D01*
X804919Y241595D01*
X801871D01*
Y230595D01*
Y221603D01*
X799315D01*
X798164Y221374D01*
X797188Y220722D01*
X796311Y219845D01*
X796274Y219816D01*
X796156Y219742D01*
X796052Y219690D01*
X795960Y219657D01*
X795873Y219636D01*
X795783Y219625D01*
X795684Y219624D01*
X795569Y219636D01*
X795515Y219647D01*
X795156Y219795D01*
X793087D01*
X791176Y219004D01*
X789713Y217541D01*
X789061Y215966D01*
X787791Y216219D01*
Y216420D01*
X775536D01*
X775021Y216815D01*
X772175Y217994D01*
X769121Y218396D01*
X768360Y218296D01*
X767155Y218795D01*
X765087D01*
X763175Y218004D01*
X761712Y216541D01*
X761663Y216420D01*
X756451D01*
Y212814D01*
X756357Y212582D01*
X755606Y211297D01*
X754475Y209695D01*
X746271Y200434D01*
X741431Y195594D01*
X740161Y196120D01*
Y204825D01*
X726121D01*
Y206095D01*
X724851D01*
Y219635D01*
X713453D01*
X713352Y219879D01*
X712758Y220654D01*
Y241193D01*
X712921Y242395D01*
X739321D01*
Y245716D01*
X739362Y246110D01*
X739523Y246562D01*
X739790Y246962D01*
X740215Y247355D01*
X740851Y247743D01*
X741725Y248099D01*
X742842Y248399D01*
X744198Y248624D01*
X745783Y248764D01*
X746680Y248787D01*
X749313D01*
X750001Y248773D01*
X751604Y248658D01*
X752981Y248473D01*
X754123Y248224D01*
X755022Y247927D01*
X755669Y247607D01*
X756075Y247302D01*
X756290Y247041D01*
X756394Y246801D01*
X756451Y246367D01*
Y244770D01*
X758167D01*
X758181Y244767D01*
X758195Y244770D01*
X787791D01*
Y257663D01*
X789779Y259651D01*
X790852Y261050D01*
X791527Y262680D01*
X791758Y264429D01*
Y271847D01*
X792991Y272630D01*
X793421Y272402D01*
Y272395D01*
X795137D01*
X795151Y272392D01*
X795166Y272395D01*
X806821D01*
Y283795D01*
X795166D01*
X795151Y283798D01*
X795137Y283795D01*
X793421D01*
Y283795D01*
X793160Y283652D01*
X791803Y284302D01*
X791698Y285094D01*
X791023Y286724D01*
X789949Y288123D01*
X789871Y288184D01*
Y294895D01*
X784927D01*
X783661Y294905D01*
Y303840D01*
X784834Y304326D01*
X791319Y297841D01*
X792230Y296864D01*
X792891Y296045D01*
X793397Y295326D01*
X793421Y295285D01*
Y289395D01*
X806821D01*
Y300795D01*
X801111D01*
X800642Y301063D01*
X799971Y301528D01*
X798525Y302747D01*
X795050Y306222D01*
X795536Y307395D01*
X802821D01*
Y311118D01*
X802990Y311371D01*
X803432Y313595D01*
Y317411D01*
X803442Y317703D01*
X803544Y318799D01*
X803685Y319726D01*
X803852Y320453D01*
X804027Y320964D01*
X804150Y321200D01*
X805600D01*
Y322916D01*
X805603Y322930D01*
X805600Y322945D01*
Y341055D01*
X805603Y341069D01*
X805600Y341084D01*
Y342800D01*
X804443D01*
X804414Y342872D01*
X804272Y343396D01*
X804147Y344089D01*
X803962Y346605D01*
Y348850D01*
X803962Y348850D01*
X803519Y351074D01*
X802260Y352960D01*
X797689Y357530D01*
X798215Y358800D01*
X799034D01*
X800946Y359592D01*
X802408Y361054D01*
X803200Y362966D01*
Y365034D01*
X802408Y366946D01*
X802282Y367072D01*
Y374000D01*
X802067Y375081D01*
X803238Y375706D01*
X804718Y374226D01*
D02*
G37*
G36*
X682781Y339160D02*
X681586Y338909D01*
X680427Y338593D01*
X679304Y338215D01*
X678216Y337772D01*
X677163Y337265D01*
X676146Y336695D01*
X675165Y336061D01*
X674219Y335363D01*
X673308Y334602D01*
X672433Y333776D01*
X666338Y338995D01*
X667145Y339863D01*
X667877Y340775D01*
X668534Y341734D01*
X669116Y342737D01*
X669622Y343786D01*
X670053Y344880D01*
X670409Y346020D01*
X670690Y347205D01*
X670895Y348435D01*
X671025Y349711D01*
X682781Y339160D01*
D02*
G37*
G36*
X864151Y338001D02*
X864069Y337956D01*
X863902Y337822D01*
X863309Y337285D01*
X859479Y333525D01*
X859202Y343147D01*
X860146Y344141D01*
X860991Y345133D01*
X861737Y346125D01*
X862384Y347117D01*
X862932Y348107D01*
X863380Y349096D01*
X863729Y350085D01*
X863979Y351073D01*
X864130Y352060D01*
X864182Y353046D01*
X864151Y338001D01*
D02*
G37*
G36*
X877906Y339943D02*
X877472Y339772D01*
X877083Y339549D01*
X876740Y339273D01*
X876443Y338943D01*
X876192Y338560D01*
X875986Y338125D01*
X875946Y338001D01*
X878121D01*
X877646Y337951D01*
X877221Y337801D01*
X876846Y337551D01*
X876521Y337201D01*
X876246Y336751D01*
X876021Y336201D01*
X875846Y335551D01*
X875721Y334801D01*
X875646Y333951D01*
X875621Y333001D01*
X870621D01*
X870596Y333951D01*
X870521Y334801D01*
X870396Y335551D01*
X870221Y336201D01*
X869996Y336751D01*
X869721Y337201D01*
X869396Y337551D01*
X869021Y337801D01*
X868596Y337951D01*
X868121Y338001D01*
X871995D01*
X870621Y338815D01*
X870615Y339478D01*
X870474Y341768D01*
X870410Y342251D01*
X870246Y343109D01*
X870146Y343484D01*
X870035Y343822D01*
X877906Y339943D01*
D02*
G37*
G36*
X866694Y330031D02*
X866598Y330198D01*
X866461Y330297D01*
X866282Y330325D01*
X866062Y330285D01*
X865800Y330175D01*
X865496Y329996D01*
X865151Y329747D01*
X864764Y329430D01*
X863865Y328586D01*
X863737Y331287D01*
X864079Y331642D01*
X864631Y332305D01*
X864841Y332612D01*
X865008Y332903D01*
X865130Y333178D01*
X865209Y333437D01*
X865244Y333679D01*
X865235Y333905D01*
X865182Y334115D01*
X866694Y330031D01*
D02*
G37*
G36*
X887617Y334939D02*
X887697Y334659D01*
X887829Y334350D01*
X888015Y334011D01*
X888253Y333642D01*
X888545Y333244D01*
X889287Y332360D01*
X890242Y331359D01*
X889358Y328707D01*
X889108Y328953D01*
X888269Y329677D01*
X888101Y329794D01*
X887949Y329884D01*
X887813Y329949D01*
X887693Y329988D01*
X887590Y330001D01*
Y335190D01*
X887617Y334939D01*
D02*
G37*
G36*
X711040Y334403D02*
X711249Y334343D01*
X711600Y334290D01*
X712089Y334244D01*
X715450Y334132D01*
X717970Y334118D01*
Y327118D01*
X716639Y327112D01*
X711249Y326742D01*
X711040Y326642D01*
X710969Y326530D01*
Y334469D01*
X711040Y334403D01*
D02*
G37*
G36*
X653266Y328731D02*
X652657Y328084D01*
X652147Y327464D01*
X651736Y326870D01*
X651425Y326302D01*
X651214Y325760D01*
X651102Y325245D01*
X651089Y324755D01*
X651176Y324291D01*
X651363Y323853D01*
X651649Y323442D01*
X642246Y326845D01*
X642755Y326962D01*
X643279Y327135D01*
X643817Y327364D01*
X644370Y327649D01*
X644937Y327989D01*
X645519Y328385D01*
X646725Y329343D01*
X647350Y329907D01*
X647990Y330525D01*
X653266Y328731D01*
D02*
G37*
G36*
X881682Y318349D02*
X881659Y318396D01*
X881591Y318437D01*
X881477Y318474D01*
X881318Y318506D01*
X881113Y318533D01*
X880566Y318573D01*
X879405Y318595D01*
Y322595D01*
X879837Y322598D01*
X881318Y322684D01*
X881477Y322716D01*
X881591Y322753D01*
X881659Y322795D01*
X881682Y322842D01*
Y318349D01*
D02*
G37*
G36*
X822151Y309126D02*
X822091Y309405D01*
X821911Y309655D01*
X821611Y309875D01*
X821191Y310066D01*
X820651Y310228D01*
X819991Y310360D01*
X819326Y310448D01*
X818250Y310360D01*
X817590Y310228D01*
X817050Y310066D01*
X816630Y309875D01*
X816330Y309655D01*
X816150Y309405D01*
X816090Y309126D01*
Y318065D01*
X816150Y317785D01*
X816330Y317536D01*
X816630Y317315D01*
X817050Y317124D01*
X817590Y316963D01*
X818250Y316830D01*
X818916Y316742D01*
X819991Y316830D01*
X820651Y316963D01*
X821191Y317124D01*
X821611Y317315D01*
X821911Y317536D01*
X822091Y317785D01*
X822151Y318065D01*
Y309126D01*
D02*
G37*
G36*
X803442Y322850D02*
X803060Y322611D01*
X802723Y322211D01*
X802430Y321651D01*
X802183Y320930D01*
X801981Y320051D01*
X801823Y319011D01*
X801711Y317810D01*
X801621Y314930D01*
X793621D01*
X793609Y316451D01*
X793323Y320930D01*
X793192Y321651D01*
X793038Y322211D01*
X792859Y322611D01*
X792657Y322850D01*
X792430Y322930D01*
X803869D01*
X803442Y322850D01*
D02*
G37*
G36*
X879821Y315943D02*
X879804Y313879D01*
X875178Y315495D01*
X875300Y315573D01*
X875409Y315685D01*
X875506Y315832D01*
X875590Y316013D01*
X875660Y316229D01*
X875718Y316479D01*
X875763Y316763D01*
X875795Y317082D01*
X875821Y317824D01*
X879821Y315943D01*
D02*
G37*
G36*
X738001Y319566D02*
X737921Y319386D01*
X737851Y319086D01*
X737790Y318666D01*
X737696Y317466D01*
X737621Y313626D01*
X731621D01*
X731616Y314766D01*
X731320Y319386D01*
X731241Y319566D01*
X731151Y319626D01*
X738090D01*
X738001Y319566D01*
D02*
G37*
G36*
X828974Y313589D02*
X828947Y313321D01*
X828979Y313028D01*
X829070Y312711D01*
X829220Y312370D01*
X829430Y312004D01*
X829698Y311614D01*
X830026Y311199D01*
X830412Y310761D01*
X830858Y310298D01*
X830262Y307358D01*
X829695Y307908D01*
X828702Y308762D01*
X828277Y309065D01*
X827900Y309286D01*
X827570Y309425D01*
X827288Y309481D01*
X827053Y309455D01*
X826866Y309347D01*
X826727Y309156D01*
X829060Y313833D01*
X828974Y313589D01*
D02*
G37*
G36*
X737624Y311329D02*
X737903Y306530D01*
X737970Y306469D01*
X731031D01*
X731143Y306530D01*
X731243Y306709D01*
X731332Y307010D01*
X731408Y307430D01*
X731473Y307969D01*
X731568Y309410D01*
X731621Y312470D01*
X737621D01*
X737624Y311329D01*
D02*
G37*
G36*
X699300Y317009D02*
Y313939D01*
X699242Y313500D01*
Y302000D01*
Y218000D01*
X699473Y216251D01*
X700148Y214621D01*
X700742Y213846D01*
Y207617D01*
X700800Y207178D01*
Y201917D01*
X703922D01*
X704121Y201765D01*
X705751Y201090D01*
X707500Y200860D01*
X709249Y201090D01*
X710879Y201765D01*
X712081Y201309D01*
Y197157D01*
X708770D01*
Y193521D01*
X712469Y191696D01*
Y194587D01*
X712540Y194498D01*
X712749Y194418D01*
X713100Y194348D01*
X713589Y194286D01*
X714989Y194193D01*
X719470Y194118D01*
Y187118D01*
X718139Y187113D01*
X714578Y186874D01*
X714592Y183617D01*
X714519Y184282D01*
X714306Y184877D01*
X713953Y185403D01*
X713460Y185858D01*
X712827Y186243D01*
X712054Y186558D01*
X711141Y186803D01*
X710088Y186978D01*
X708894Y187083D01*
X708770Y187086D01*
Y184077D01*
X711991D01*
Y182865D01*
X721431D01*
Y180325D01*
X711991D01*
Y169955D01*
X712630D01*
Y168396D01*
X557936D01*
X555027Y168442D01*
X549515Y168782D01*
X547411Y169029D01*
X545734Y169324D01*
X544730Y169592D01*
Y172040D01*
X538461D01*
Y156000D01*
X535920D01*
Y172040D01*
X521506D01*
X521020Y173213D01*
X647028Y299221D01*
X647956Y300610D01*
X648282Y302249D01*
Y306035D01*
X648516Y306097D01*
X651184Y307638D01*
X653362Y309816D01*
X654903Y312484D01*
X654918Y312542D01*
X656188Y312375D01*
Y224000D01*
X656631Y221776D01*
X657890Y219890D01*
X659776Y218631D01*
X662000Y218188D01*
X664224Y218631D01*
X666109Y219890D01*
X667369Y221776D01*
X667812Y224000D01*
Y312862D01*
X669082Y313029D01*
X669315Y312160D01*
X670965Y309300D01*
X673300Y306966D01*
X676160Y305315D01*
X679349Y304460D01*
X679730D01*
Y317000D01*
X682270D01*
Y304460D01*
X682651D01*
X685840Y305315D01*
X688700Y306966D01*
X691034Y309300D01*
X692541Y311909D01*
X698127Y317495D01*
X699300Y317009D01*
D02*
G37*
G36*
X772209Y306193D02*
X772245Y306021D01*
X772328Y305818D01*
X772458Y305583D01*
X772636Y305317D01*
X772861Y305019D01*
X773455Y304329D01*
X774239Y303513D01*
X770703Y299977D01*
X770279Y300393D01*
X768899Y301580D01*
X768633Y301758D01*
X768398Y301888D01*
X768195Y301971D01*
X768023Y302006D01*
X767882Y301994D01*
X772222Y306334D01*
X772209Y306193D01*
D02*
G37*
G36*
X862937Y300867D02*
X862987Y300562D01*
X863069Y300275D01*
X863184Y300007D01*
X863332Y299757D01*
X863513Y299526D01*
X863727Y299313D01*
X863973Y299118D01*
X864253Y298942D01*
X864565Y298783D01*
X859963Y297103D01*
X860145Y297497D01*
X860576Y298597D01*
X860681Y298935D01*
X860835Y299570D01*
X860883Y299866D01*
X860911Y300149D01*
X860921Y300417D01*
X862921Y301190D01*
X862937Y300867D01*
D02*
G37*
G36*
X869891Y313055D02*
X871466D01*
Y311293D01*
X872258Y309382D01*
X873720Y307919D01*
X875632Y307127D01*
X877700D01*
X879612Y307919D01*
X881074Y309382D01*
X881866Y311293D01*
Y313362D01*
X882222Y313895D01*
X886982D01*
X887468Y312722D01*
X869591Y294845D01*
X868321Y295371D01*
Y296630D01*
X867530Y298541D01*
X866067Y300004D01*
X865426Y300269D01*
X865348Y300330D01*
X865109Y300451D01*
X864976Y300535D01*
X864879Y300611D01*
X864812Y300678D01*
X864766Y300737D01*
X864732Y300794D01*
X864705Y300859D01*
X864681Y300941D01*
X864674Y300986D01*
Y313055D01*
X867351D01*
Y320595D01*
X869891D01*
Y313055D01*
D02*
G37*
G36*
X797135Y301652D02*
X798917Y300150D01*
X799716Y299596D01*
X800454Y299174D01*
X801130Y298883D01*
X801745Y298724D01*
X802299Y298696D01*
X802792Y298799D01*
X803222Y299034D01*
X795182Y292994D01*
X795507Y293335D01*
X795680Y293758D01*
X795702Y294261D01*
X795572Y294847D01*
X795291Y295513D01*
X794859Y296261D01*
X794275Y297090D01*
X793540Y298000D01*
X791616Y300065D01*
X796151Y302600D01*
X797135Y301652D01*
D02*
G37*
G36*
X774974Y297506D02*
X777471D01*
X776996Y297456D01*
X776571Y297305D01*
X776196Y297053D01*
X775871Y296701D01*
X775596Y296248D01*
X775371Y295695D01*
X775196Y295041D01*
X775135Y294672D01*
X775201Y293615D01*
X775271Y293365D01*
X775351Y293215D01*
X775440Y293165D01*
X774989D01*
X774971Y292475D01*
X769971D01*
X769953Y293165D01*
X769501D01*
X769591Y293215D01*
X769670Y293365D01*
X769741Y293615D01*
X769802Y293965D01*
X769852Y294401D01*
X769746Y295041D01*
X769571Y295695D01*
X769346Y296248D01*
X769071Y296701D01*
X768746Y297053D01*
X768371Y297305D01*
X767946Y297456D01*
X767471Y297506D01*
X769964D01*
X769971Y298165D01*
X774971D01*
X774974Y297506D01*
D02*
G37*
G36*
X845250Y294138D02*
X845097Y294083D01*
X844962Y293991D01*
X844845Y293863D01*
X844746Y293698D01*
X844665Y293497D01*
X844602Y293259D01*
X844557Y292985D01*
X844530Y292673D01*
X844521Y292326D01*
X842721D01*
X842712Y292673D01*
X842685Y292985D01*
X842640Y293259D01*
X842577Y293497D01*
X842496Y293698D01*
X842397Y293863D01*
X842280Y293991D01*
X842145Y294083D01*
X841992Y294138D01*
X841821Y294156D01*
X845421D01*
X845250Y294138D01*
D02*
G37*
G36*
X894992Y309943D02*
Y309586D01*
X895221Y308435D01*
X895873Y307459D01*
X903813Y299519D01*
Y294861D01*
X903321Y293795D01*
X890921D01*
Y291628D01*
X890846Y291616D01*
X890694Y291603D01*
X887800D01*
X887649Y291616D01*
X887571Y291629D01*
Y295795D01*
X880708D01*
X880222Y296968D01*
X893722Y310469D01*
X894992Y309943D01*
D02*
G37*
G36*
X908083Y291254D02*
X908119Y290931D01*
X908179Y290618D01*
X908263Y290316D01*
X908371Y290024D01*
X908503Y289742D01*
X908659Y289470D01*
X908839Y289209D01*
X909043Y288958D01*
X909271Y288718D01*
X904371D01*
X904599Y288958D01*
X904803Y289209D01*
X904983Y289470D01*
X905139Y289742D01*
X905271Y290024D01*
X905379Y290316D01*
X905463Y290618D01*
X905523Y290931D01*
X905559Y291254D01*
X905571Y291588D01*
X908071D01*
X908083Y291254D01*
D02*
G37*
G36*
X833124Y331811D02*
X832911Y331187D01*
X832902Y330458D01*
X833095Y329625D01*
X833492Y328688D01*
X834091Y327645D01*
X834894Y326498D01*
X835899Y325247D01*
X837459Y323570D01*
X843360Y318362D01*
X843787Y318139D01*
X844090Y318065D01*
X841607Y314865D01*
X846661D01*
Y320635D01*
X843403D01*
X840905Y322840D01*
X841386Y324110D01*
X842170D01*
X844431Y324716D01*
X846459Y325886D01*
X848114Y327541D01*
X849284Y329569D01*
X849581Y330675D01*
X849853Y330698D01*
X857004D01*
X859033Y331102D01*
X859768Y331592D01*
X860577Y330606D01*
X859974Y330003D01*
X859378Y329110D01*
X859168Y328056D01*
Y300138D01*
X859163Y300093D01*
X859134Y299912D01*
X859010Y299397D01*
X858940Y299172D01*
X858550Y298178D01*
X858389Y297829D01*
X858348Y297660D01*
X857921Y296630D01*
Y294561D01*
X858713Y292650D01*
X860176Y291187D01*
X862087Y290395D01*
X862800D01*
X863421Y289156D01*
X863080Y288592D01*
X862593Y288432D01*
X861757Y288313D01*
X861067Y289003D01*
X859155Y289795D01*
X857087D01*
X855175Y289003D01*
X853712Y287541D01*
X852921Y285629D01*
Y283561D01*
X853712Y281649D01*
X854441Y280921D01*
X853915Y279651D01*
X851314D01*
X849231Y281734D01*
X849117Y281865D01*
X848953Y282074D01*
X848838Y282243D01*
X848821Y282273D01*
Y282628D01*
X848823Y282639D01*
X848821Y282653D01*
Y289795D01*
X846272D01*
Y292395D01*
X848821D01*
Y304795D01*
X839332D01*
X838959Y305285D01*
X839351Y306077D01*
Y311959D01*
X837151Y309126D01*
X837102Y310082D01*
X836953Y311042D01*
X836706Y312005D01*
X836359Y312973D01*
X835914Y313943D01*
X835369Y314917D01*
X834726Y315895D01*
X833984Y316876D01*
X833142Y317861D01*
X832554Y318478D01*
X831654Y319347D01*
X829106Y321501D01*
X827974Y322289D01*
X826937Y322883D01*
X825994Y323285D01*
X825146Y323493D01*
X824393Y323509D01*
X823734Y323331D01*
X823170Y322961D01*
X833539Y332330D01*
X833124Y331811D01*
D02*
G37*
G36*
X844530Y289517D02*
X844557Y289206D01*
X844602Y288931D01*
X844665Y288693D01*
X844746Y288492D01*
X844845Y288327D01*
X844962Y288199D01*
X845097Y288107D01*
X845250Y288053D01*
X845421Y288034D01*
X841821D01*
X841992Y288053D01*
X842145Y288107D01*
X842280Y288199D01*
X842397Y288327D01*
X842496Y288492D01*
X842577Y288693D01*
X842640Y288931D01*
X842685Y289206D01*
X842712Y289517D01*
X842721Y289865D01*
X844521D01*
X844530Y289517D01*
D02*
G37*
G36*
X711085Y312265D02*
X711340Y311160D01*
X711765Y310185D01*
X712360Y309340D01*
X713125Y308625D01*
X714060Y308040D01*
X714843Y307718D01*
X715165Y307585D01*
X716440Y307260D01*
X717885Y307065D01*
X719500Y307000D01*
Y297000D01*
X717885Y296900D01*
X716440Y296600D01*
X715165Y296100D01*
X714060Y295400D01*
X713125Y294500D01*
X712360Y293400D01*
X711765Y292100D01*
X711340Y290600D01*
X711085Y288900D01*
X711000Y287000D01*
X711000Y287000D01*
Y287000D01*
X701000Y302000D01*
X711000Y313500D01*
X711085Y312265D01*
D02*
G37*
G36*
X738012Y306146D02*
X738139Y305767D01*
X738351Y305333D01*
X738648Y304843D01*
X739030Y304299D01*
X740048Y303043D01*
X741406Y301567D01*
X742212Y300746D01*
X741721Y297177D01*
X743430Y299529D01*
X750040Y293165D01*
X744132Y286129D01*
X744435Y286626D01*
X744576Y287201D01*
X744555Y287855D01*
X744371Y288586D01*
X744025Y289395D01*
X743516Y290283D01*
X742846Y291249D01*
X742012Y292292D01*
X740241Y294202D01*
X739855Y294576D01*
X737515Y296579D01*
X736506Y297293D01*
X735604Y297816D01*
X734809Y298148D01*
X734121Y298288D01*
X733541Y298237D01*
X733067Y297995D01*
X732700Y297561D01*
X737970Y306469D01*
X738012Y306146D01*
D02*
G37*
G36*
X885837Y290858D02*
X885914Y290645D01*
X886041Y290458D01*
X886218Y290295D01*
X886446Y290158D01*
X886725Y290045D01*
X887053Y289958D01*
X887432Y289895D01*
X887861Y289858D01*
X888340Y289845D01*
Y287345D01*
X887865Y287333D01*
X887440Y287296D01*
X887065Y287235D01*
X886740Y287150D01*
X886465Y287040D01*
X886240Y286906D01*
X886065Y286748D01*
X885940Y286565D01*
X885865Y286357D01*
X885840Y286126D01*
X885810Y291095D01*
X885837Y290858D01*
D02*
G37*
G36*
X892682Y286095D02*
X892656Y286333D01*
X892581Y286545D01*
X892454Y286733D01*
X892277Y286895D01*
X892049Y287033D01*
X891771Y287145D01*
X891442Y287233D01*
X891062Y287295D01*
X890632Y287333D01*
X890151Y287345D01*
Y289845D01*
X890632Y289858D01*
X891062Y289895D01*
X891442Y289958D01*
X891771Y290045D01*
X892049Y290158D01*
X892277Y290295D01*
X892454Y290458D01*
X892581Y290645D01*
X892656Y290858D01*
X892682Y291095D01*
Y286095D01*
D02*
G37*
G36*
X860949Y286698D02*
X861160Y286519D01*
X861389Y286361D01*
X861636Y286224D01*
X861900Y286108D01*
X862182Y286014D01*
X862482Y285940D01*
X862801Y285887D01*
X863136Y285856D01*
X863490Y285845D01*
Y283345D01*
X863136Y283335D01*
X862801Y283303D01*
X862482Y283250D01*
X862182Y283177D01*
X861900Y283082D01*
X861636Y282966D01*
X861389Y282829D01*
X861160Y282671D01*
X860949Y282492D01*
X860756Y282292D01*
Y286898D01*
X860949Y286698D01*
D02*
G37*
G36*
X737415Y281350D02*
X737160Y281261D01*
X736935Y281110D01*
X736740Y280900D01*
X736575Y280630D01*
X736440Y280301D01*
X736335Y279911D01*
X736260Y279461D01*
X736215Y278951D01*
X736200Y278381D01*
X733200D01*
X733185Y278951D01*
X733140Y279461D01*
X733065Y279911D01*
X732960Y280301D01*
X732825Y280630D01*
X732660Y280900D01*
X732465Y281110D01*
X732240Y281261D01*
X731985Y281350D01*
X731700Y281381D01*
X737700D01*
X737415Y281350D01*
D02*
G37*
G36*
X847034Y282486D02*
X847018Y282286D01*
X847043Y282070D01*
X847109Y281838D01*
X847215Y281592D01*
X847363Y281329D01*
X847552Y281052D01*
X847781Y280758D01*
X848052Y280450D01*
X848363Y280126D01*
X848090Y277853D01*
X847676Y278254D01*
X846954Y278874D01*
X846647Y279093D01*
X846374Y279251D01*
X846138Y279347D01*
X845936Y279383D01*
X845770Y279358D01*
X845640Y279272D01*
X845545Y279126D01*
X847090Y282671D01*
X847034Y282486D01*
D02*
G37*
G36*
X788162Y282620D02*
X788314Y282195D01*
X788566Y281820D01*
X788919Y281495D01*
X789371Y281220D01*
X789925Y280995D01*
X790578Y280820D01*
X791332Y280695D01*
X791756Y280658D01*
X792701Y280727D01*
X793351Y280830D01*
X793901Y280963D01*
X794351Y281124D01*
X794701Y281315D01*
X794951Y281536D01*
X795101Y281785D01*
X795151Y282065D01*
Y274126D01*
X795101Y274405D01*
X794951Y274655D01*
X794701Y274875D01*
X794351Y275066D01*
X793901Y275228D01*
X793351Y275360D01*
X792701Y275463D01*
X791951Y275536D01*
X791853Y275539D01*
X790590Y275409D01*
X789940Y275264D01*
X789907Y275252D01*
X786060Y265490D01*
X775000Y265459D01*
X775950Y265562D01*
X776800Y265865D01*
X777550Y266368D01*
X778200Y267071D01*
X778750Y267974D01*
X779200Y269077D01*
X779550Y270380D01*
X779800Y271883D01*
X779950Y273586D01*
X780000Y275490D01*
X788134D01*
X788110Y283095D01*
X788162Y282620D01*
D02*
G37*
G36*
X761284Y273556D02*
X761043Y273712D01*
X760761Y273785D01*
X760438Y273776D01*
X760075Y273685D01*
X759671Y273511D01*
X759226Y273255D01*
X758741Y272916D01*
X758215Y272494D01*
X757041Y271404D01*
X754680Y273285D01*
X755288Y273914D01*
X756242Y275035D01*
X756588Y275527D01*
X756846Y275975D01*
X757018Y276376D01*
X757102Y276732D01*
X757099Y277043D01*
X757009Y277308D01*
X756832Y277528D01*
X761284Y273556D01*
D02*
G37*
G36*
X884598Y271128D02*
X884550Y271044D01*
X884508Y270903D01*
X884472Y270706D01*
X884441Y270453D01*
X884396Y269779D01*
X884371Y268345D01*
X879371D01*
X879368Y268879D01*
X879233Y270903D01*
X879191Y271044D01*
X879144Y271128D01*
X879090Y271156D01*
X884651D01*
X884598Y271128D01*
D02*
G37*
G36*
X856964Y266095D02*
X856633Y266087D01*
X856311Y266053D01*
X856000Y265996D01*
X855697Y265914D01*
X855405Y265809D01*
X855122Y265678D01*
X854848Y265524D01*
X854585Y265345D01*
X854331Y265142D01*
X854087Y264915D01*
X852319Y266682D01*
X852546Y266927D01*
X852749Y267181D01*
X852928Y267444D01*
X853082Y267718D01*
X853213Y268001D01*
X853319Y268293D01*
X853400Y268595D01*
X853458Y268907D01*
X853491Y269229D01*
X853499Y269560D01*
X856964Y266095D01*
D02*
G37*
G36*
X805449Y258967D02*
X805378Y258737D01*
Y258472D01*
X805449Y258171D01*
X805590Y257835D01*
X805803Y257464D01*
X806085Y257057D01*
X806439Y256616D01*
X807358Y255626D01*
X805590Y253858D01*
X805078Y254353D01*
X804158Y255131D01*
X803752Y255413D01*
X803381Y255626D01*
X803045Y255767D01*
X802744Y255838D01*
X802479D01*
X802249Y255767D01*
X802055Y255626D01*
X805590Y259161D01*
X805449Y258967D01*
D02*
G37*
G36*
X821431Y255606D02*
X821261Y255546D01*
X821111Y255446D01*
X820981Y255306D01*
X820871Y255126D01*
X820781Y254906D01*
X820711Y254646D01*
X820661Y254346D01*
X820631Y254006D01*
X820621Y253626D01*
X818621D01*
X818611Y254006D01*
X818581Y254346D01*
X818531Y254646D01*
X818461Y254906D01*
X818371Y255126D01*
X818261Y255306D01*
X818131Y255446D01*
X817981Y255546D01*
X817811Y255606D01*
X817621Y255626D01*
X821621D01*
X821431Y255606D01*
D02*
G37*
G36*
X853390Y252115D02*
X850851D01*
X850855Y252140D01*
X850858Y252215D01*
X850871Y254615D01*
X853371D01*
X853390Y252115D01*
D02*
G37*
G36*
X848390D02*
X845851D01*
X845855Y252140D01*
X845858Y252215D01*
X845871Y254615D01*
X848371D01*
X848390Y252115D01*
D02*
G37*
G36*
X810384Y251425D02*
X810422Y251101D01*
X810486Y250791D01*
X810575Y250495D01*
X810690Y250212D01*
X810831Y249942D01*
X810997Y249685D01*
X811189Y249441D01*
X811406Y249211D01*
X811648Y248994D01*
X806767Y248569D01*
X806977Y248831D01*
X807164Y249100D01*
X807330Y249377D01*
X807473Y249661D01*
X807595Y249953D01*
X807694Y250253D01*
X807772Y250560D01*
X807827Y250875D01*
X807860Y251198D01*
X807871Y251528D01*
X810371Y251761D01*
X810384Y251425D01*
D02*
G37*
G36*
X880787Y248380D02*
X884101Y245095D01*
X883770Y245085D01*
X883448Y245051D01*
X883136Y244992D01*
X882834Y244910D01*
X882541Y244803D01*
X882290Y244687D01*
X882709Y243656D01*
X882585Y243863D01*
X882415Y243988D01*
X882199Y244033D01*
X881937Y243996D01*
X881629Y243879D01*
X881274Y243681D01*
X880873Y243401D01*
X880426Y243041D01*
X879393Y242078D01*
X878884Y245104D01*
X879316Y245553D01*
X880012Y246388D01*
X880131Y246563D01*
X880210Y246703D01*
X880340Y246986D01*
X880445Y247278D01*
X880526Y247581D01*
X880582Y247892D01*
X880614Y248214D01*
X880621Y248545D01*
X880742Y248425D01*
X880682Y248639D01*
X880787Y248380D01*
D02*
G37*
G36*
X758181Y246501D02*
X758081Y247269D01*
X757781Y247957D01*
X757281Y248563D01*
X756581Y249089D01*
X755681Y249534D01*
X754581Y249898D01*
X753281Y250181D01*
X751781Y250383D01*
X750081Y250505D01*
X748181Y250545D01*
Y260545D01*
X750081Y260595D01*
X751781Y260743D01*
X753281Y260990D01*
X754581Y261336D01*
X755681Y261781D01*
X756581Y262325D01*
X757281Y262968D01*
X757781Y263710D01*
X758081Y264550D01*
X758181Y265490D01*
Y246501D01*
D02*
G37*
G36*
X887615Y248932D02*
X887647Y248913D01*
X887699Y248897D01*
X887771Y248884D01*
X887863Y248872D01*
X888106Y248855D01*
X888621Y248845D01*
Y246345D01*
X887157Y246382D01*
X887172Y246361D01*
X887352Y246149D01*
X887755Y245729D01*
X885987Y243961D01*
X884754Y245153D01*
X886889Y246557D01*
X887603Y248952D01*
X887615Y248932D01*
D02*
G37*
G36*
X737660Y264595D02*
X737961Y263745D01*
X738463Y262995D01*
X739165Y262345D01*
X740068Y261795D01*
X741171Y261345D01*
X742475Y260995D01*
X743979Y260745D01*
X745685Y260595D01*
X747590Y260545D01*
Y250545D01*
X745685Y250495D01*
X743979Y250345D01*
X742475Y250095D01*
X741171Y249745D01*
X740068Y249295D01*
X739165Y248745D01*
X738463Y248095D01*
X737961Y247345D01*
X737660Y246495D01*
X737560Y245545D01*
Y265545D01*
X737660Y264595D01*
D02*
G37*
G36*
X820636Y249365D02*
X820681Y249025D01*
X820756Y248725D01*
X820861Y248465D01*
X820996Y248245D01*
X821161Y248065D01*
X821356Y247925D01*
X821581Y247825D01*
X821836Y247765D01*
X822121Y247745D01*
Y245745D01*
X821836Y245725D01*
X821581Y245665D01*
X821356Y245565D01*
X821161Y245425D01*
X820996Y245245D01*
X820861Y245025D01*
X820756Y244765D01*
X820681Y244465D01*
X820636Y244125D01*
X820621Y243745D01*
X818621D01*
X818606Y244125D01*
X818561Y244465D01*
X818486Y244765D01*
X818381Y245025D01*
X818246Y245245D01*
X818081Y245425D01*
X817886Y245565D01*
X817661Y245665D01*
X817406Y245725D01*
X817121Y245745D01*
Y247745D01*
X817406Y247765D01*
X817661Y247825D01*
X817886Y247925D01*
X818081Y248065D01*
X818246Y248245D01*
X818381Y248465D01*
X818486Y248725D01*
X818561Y249025D01*
X818606Y249365D01*
X818621Y249745D01*
X820621D01*
X820636Y249365D01*
D02*
G37*
G36*
X871952Y264299D02*
Y241595D01*
X860121D01*
Y253845D01*
X855129D01*
Y263471D01*
X855576Y263919D01*
X855614Y263949D01*
X855763Y264050D01*
X855912Y264134D01*
X856063Y264203D01*
X856219Y264260D01*
X856383Y264304D01*
X856557Y264336D01*
X856745Y264356D01*
X857010Y264363D01*
X857154Y264395D01*
X858034D01*
X859945Y265187D01*
X861408Y266649D01*
X862199Y268561D01*
Y270629D01*
X861530Y272244D01*
X861868Y273287D01*
X862093Y273651D01*
X862516Y273735D01*
X871952Y264299D01*
D02*
G37*
G36*
X811646Y243552D02*
X811442Y243301D01*
X811262Y243040D01*
X811106Y242768D01*
X810974Y242486D01*
X810866Y242194D01*
X810782Y241892D01*
X810722Y241579D01*
X810717Y241534D01*
X810724Y241454D01*
X810787Y241074D01*
X810874Y240745D01*
X810987Y240467D01*
X811124Y240239D01*
X811287Y240062D01*
X811474Y239935D01*
X811687Y239859D01*
X811924Y239834D01*
X806924D01*
X807162Y239859D01*
X807374Y239935D01*
X807562Y240062D01*
X807724Y240239D01*
X807862Y240467D01*
X807974Y240745D01*
X808062Y241074D01*
X808124Y241454D01*
X808131Y241534D01*
X808126Y241579D01*
X808066Y241892D01*
X807982Y242194D01*
X807874Y242486D01*
X807742Y242768D01*
X807586Y243040D01*
X807406Y243301D01*
X807202Y243552D01*
X806974Y243792D01*
X811874D01*
X811646Y243552D01*
D02*
G37*
G36*
X820631Y238685D02*
X820661Y238345D01*
X820711Y238045D01*
X820781Y237785D01*
X820871Y237565D01*
X820981Y237385D01*
X821111Y237245D01*
X821261Y237145D01*
X821431Y237085D01*
X821621Y237065D01*
X818651D01*
X818646Y237085D01*
X818640Y237145D01*
X818628Y237565D01*
X818621Y239065D01*
X820621D01*
X820631Y238685D01*
D02*
G37*
G36*
X898664Y239337D02*
X899583Y238559D01*
X899990Y238277D01*
X900361Y238065D01*
X900697Y237923D01*
X900997Y237852D01*
X901263D01*
X901492Y237923D01*
X901687Y238065D01*
X898151Y234529D01*
X898293Y234723D01*
X898363Y234953D01*
Y235219D01*
X898293Y235519D01*
X898151Y235855D01*
X897939Y236226D01*
X897656Y236633D01*
X897303Y237075D01*
X896384Y238065D01*
X898151Y239832D01*
X898664Y239337D01*
D02*
G37*
G36*
X936000Y248000D02*
X926000Y233000D01*
X925900Y234900D01*
X925600Y236600D01*
X925100Y238100D01*
X924400Y239400D01*
X923500Y240500D01*
X922400Y241400D01*
X921100Y242100D01*
X919600Y242600D01*
X917900Y242900D01*
X916000Y243000D01*
Y253000D01*
X917900Y253100D01*
X919600Y253400D01*
X921100Y253900D01*
X922400Y254600D01*
X923500Y255500D01*
X924400Y256600D01*
X925100Y257900D01*
X925600Y259400D01*
X925900Y261100D01*
X926000Y263000D01*
X936000Y248000D01*
D02*
G37*
G36*
X820693Y236474D02*
X821092Y236187D01*
X821525Y235940D01*
X821991Y235732D01*
X822492Y235565D01*
X823027Y235438D01*
X823596Y235351D01*
X824200Y235304D01*
X824837Y235298D01*
X825508Y235331D01*
X825957Y229978D01*
X819828Y230492D01*
X819958Y231118D01*
X820039Y231714D01*
X820071Y232279D01*
X820054Y232815D01*
X819987Y233319D01*
X819871Y233794D01*
X819706Y234238D01*
X819491Y234652D01*
X819227Y235035D01*
X818914Y235388D01*
X820328Y236802D01*
X820693Y236474D01*
D02*
G37*
G36*
X917703Y241175D02*
X919173Y240915D01*
X920410Y240503D01*
X921431Y239953D01*
X922268Y239268D01*
X922953Y238431D01*
X923503Y237410D01*
X923915Y236173D01*
X924175Y234703D01*
X924242Y233419D01*
Y187581D01*
X924175Y186297D01*
X923915Y184827D01*
X923810Y184511D01*
X922540Y184717D01*
Y189347D01*
X915000D01*
Y191887D01*
X922540D01*
Y197157D01*
X916654D01*
X915000Y197375D01*
X914723Y197339D01*
X913604Y198280D01*
X911404Y200480D01*
X912123Y201557D01*
X913251Y201090D01*
X915000Y200860D01*
X916749Y201090D01*
X918379Y201765D01*
X918577Y201917D01*
X921700D01*
Y207178D01*
X921758Y207617D01*
Y216000D01*
X921527Y217749D01*
X920852Y219379D01*
X919779Y220779D01*
X918379Y221852D01*
X916749Y222528D01*
X915000Y222758D01*
X913251Y222528D01*
X911621Y221852D01*
X910221Y220779D01*
X909148Y219379D01*
X908473Y217749D01*
X908242Y216000D01*
Y207618D01*
X908242Y207617D01*
X908300Y207178D01*
Y206329D01*
X908222Y206241D01*
X907030Y205772D01*
X906661Y206167D01*
Y210135D01*
X895391D01*
Y205595D01*
X892851D01*
Y210135D01*
X884574D01*
X884088Y211308D01*
X885851Y213071D01*
X886281Y213472D01*
X886632Y213754D01*
X886834Y213895D01*
X905821D01*
Y221295D01*
X887562D01*
X887076Y222468D01*
X888748Y224140D01*
X889400Y225116D01*
X889629Y226267D01*
Y227168D01*
X889642Y227320D01*
X889654Y227395D01*
X891821D01*
Y238345D01*
X893091Y238871D01*
X895585Y236377D01*
X895989Y235942D01*
X896266Y235595D01*
X896421Y235373D01*
Y234543D01*
X896418Y234529D01*
X896421Y234515D01*
Y227395D01*
X906821D01*
Y239795D01*
X906821D01*
X906845Y241055D01*
X908161D01*
Y241242D01*
X916420D01*
X917703Y241175D01*
D02*
G37*
G36*
X888883Y229131D02*
X888671Y229055D01*
X888483Y228928D01*
X888321Y228751D01*
X888183Y228523D01*
X888071Y228245D01*
X887983Y227916D01*
X887921Y227537D01*
X887883Y227106D01*
X887871Y226626D01*
X885371D01*
X885358Y227106D01*
X885321Y227537D01*
X885258Y227916D01*
X885171Y228245D01*
X885058Y228523D01*
X884921Y228751D01*
X884758Y228928D01*
X884571Y229055D01*
X884358Y229131D01*
X884121Y229156D01*
X889121D01*
X888883Y229131D01*
D02*
G37*
G36*
X847230Y222697D02*
X846464Y222769D01*
X845739Y222794D01*
X845055Y222772D01*
X844412Y222702D01*
X843810Y222585D01*
X843762Y222571D01*
X843613Y221992D01*
X843505Y221403D01*
X843574Y221335D01*
X844131Y220874D01*
X844671Y220483D01*
X845195Y220163D01*
X845704Y219915D01*
X846196Y219737D01*
X846672Y219631D01*
X847132Y219595D01*
X847003Y217595D01*
X846574Y217562D01*
X846112Y217462D01*
X845618Y217296D01*
X845091Y217064D01*
X844531Y216765D01*
X843939Y216400D01*
X843403Y216012D01*
X843468Y215444D01*
X843588Y214780D01*
X843627Y214627D01*
X843780Y214588D01*
X844444Y214469D01*
X845171Y214385D01*
X846817Y214323D01*
X847736Y214345D01*
X847801Y207801D01*
X854344Y207736D01*
X854323Y206817D01*
X854385Y205171D01*
X854469Y204444D01*
X854588Y203780D01*
X854742Y203180D01*
X854932Y202644D01*
X855035Y202429D01*
X855560Y202954D01*
X855450Y202801D01*
X855396Y202619D01*
X855399Y202409D01*
X855459Y202169D01*
X855575Y201901D01*
X855748Y201604D01*
X855977Y201278D01*
X856263Y200922D01*
X857005Y200126D01*
X855590Y198711D01*
X855178Y199110D01*
X854438Y199739D01*
X854112Y199968D01*
X853815Y200141D01*
X853547Y200257D01*
X853307Y200317D01*
X853096Y200320D01*
X852915Y200266D01*
X852762Y200156D01*
X853303Y200697D01*
X853050Y200821D01*
X852512Y201023D01*
X851907Y201198D01*
X851234Y201344D01*
X850493Y201463D01*
X848807Y201616D01*
X847863Y201651D01*
X847801Y207801D01*
X841652Y207863D01*
X841616Y208807D01*
X841463Y210493D01*
X841344Y211234D01*
X841198Y211907D01*
X841133Y212133D01*
X840907Y212198D01*
X840234Y212344D01*
X839493Y212463D01*
X837807Y212616D01*
X837084Y212643D01*
X836353Y212597D01*
X833905Y212269D01*
X833228Y212111D01*
X832968Y212032D01*
X832889Y211772D01*
X832731Y211095D01*
X832597Y210349D01*
X832403Y208647D01*
X832343Y207692D01*
X826435Y214335D01*
X827342Y214290D01*
X828970Y214314D01*
X829691Y214384D01*
X830351Y214492D01*
X830477Y214523D01*
X830508Y214649D01*
X830616Y215309D01*
X830686Y216030D01*
X830717Y216813D01*
X830665Y218565D01*
X837083Y212858D01*
X841411Y216921D01*
X841656Y220757D01*
X837064Y225350D01*
X837865Y225360D01*
X839329Y225492D01*
X839992Y225613D01*
X840609Y225771D01*
X840869Y225860D01*
X840928Y226009D01*
X841130Y226634D01*
X841306Y227309D01*
X841583Y228815D01*
X841683Y229644D01*
X847230Y222697D01*
D02*
G37*
G36*
X870665Y224861D02*
X870740Y224858D01*
X873140Y224845D01*
Y222345D01*
X870640Y222326D01*
Y224865D01*
X870665Y224861D01*
D02*
G37*
G36*
X832335Y229443D02*
X832415Y228479D01*
X832788Y226015D01*
X832899Y225566D01*
X833444Y225469D01*
X834171Y225385D01*
X834962Y225336D01*
X836736Y225345D01*
X830651Y218863D01*
X830616Y219807D01*
X830463Y221493D01*
X830344Y222234D01*
X830261Y222614D01*
X829797Y222685D01*
X829081Y222743D01*
X828304Y222761D01*
X826570Y222676D01*
X825957Y229978D01*
X832335Y229443D01*
D02*
G37*
G36*
X799070Y216583D02*
X798847Y216347D01*
X798640Y216102D01*
X798447Y215847D01*
X798270Y215582D01*
X798108Y215307D01*
X797961Y215023D01*
X797830Y214728D01*
X797713Y214424D01*
X797612Y214110D01*
X797526Y213785D01*
X794999Y217984D01*
X795304Y217920D01*
X795603Y217890D01*
X795895Y217892D01*
X796182Y217927D01*
X796463Y217995D01*
X796738Y218095D01*
X797007Y218229D01*
X797269Y218395D01*
X797526Y218594D01*
X797777Y218826D01*
X799070Y216583D01*
D02*
G37*
G36*
X859901Y217326D02*
X859881Y217377D01*
X859821Y217423D01*
X859721Y217463D01*
X859581Y217498D01*
X859401Y217528D01*
X859181Y217552D01*
X858281Y217592D01*
X857901Y217595D01*
Y219595D01*
X858281Y219598D01*
X859581Y219692D01*
X859721Y219727D01*
X859821Y219768D01*
X859881Y219813D01*
X859901Y219865D01*
Y217326D01*
D02*
G37*
G36*
X803601D02*
X803576Y217329D01*
X803501Y217333D01*
X801101Y217345D01*
Y219845D01*
X803601Y219865D01*
Y217326D01*
D02*
G37*
G36*
X855580Y220405D02*
X855641Y220235D01*
X855743Y220085D01*
X855885Y219955D01*
X856068Y219845D01*
X856291Y219755D01*
X856555Y219685D01*
X856859Y219635D01*
X857205Y219605D01*
X857590Y219595D01*
Y217595D01*
X857205Y217585D01*
X856859Y217555D01*
X856555Y217505D01*
X856291Y217435D01*
X856068Y217345D01*
X855885Y217235D01*
X855743Y217105D01*
X855641Y216955D01*
X855580Y216785D01*
X855560Y216595D01*
Y220595D01*
X855580Y220405D01*
D02*
G37*
G36*
X887687Y215656D02*
X887495Y215794D01*
X887268Y215862D01*
X887004Y215859D01*
X886704Y215785D01*
X886369Y215641D01*
X885997Y215426D01*
X885590Y215140D01*
X885146Y214783D01*
X884151Y213858D01*
X882384Y215626D01*
X882882Y216141D01*
X883665Y217064D01*
X883951Y217471D01*
X884167Y217843D01*
X884311Y218179D01*
X884385Y218478D01*
X884388Y218742D01*
X884320Y218969D01*
X884182Y219161D01*
X887687Y215656D01*
D02*
G37*
G36*
X837122Y220095D02*
X835622Y218595D01*
X837121Y217096D01*
X838181Y218156D01*
Y219656D01*
X838223Y219645D01*
X838323Y219634D01*
X838700Y219617D01*
X841239Y219595D01*
Y217595D01*
X839588Y217562D01*
X840740Y216390D01*
X839326Y214976D01*
X837121Y217094D01*
X837084Y217074D01*
X837006Y217010D01*
X836727Y216756D01*
X834916Y214976D01*
X833502Y216390D01*
X835620Y218595D01*
X835600Y218632D01*
X835536Y218710D01*
X835282Y218989D01*
X833502Y220800D01*
X834916Y222214D01*
X837122Y220095D01*
D02*
G37*
G36*
X870665Y214861D02*
X870740Y214858D01*
X873140Y214845D01*
Y212345D01*
X870640Y212326D01*
Y214865D01*
X870665Y214861D01*
D02*
G37*
G36*
X803601Y212326D02*
X803581Y212320D01*
X803521Y212315D01*
X803101Y212303D01*
X801601Y212295D01*
Y214295D01*
X801981Y214301D01*
X802621Y214346D01*
X802881Y214386D01*
X803101Y214438D01*
X803281Y214500D01*
X803421Y214574D01*
X803521Y214660D01*
X803581Y214756D01*
X803601Y214865D01*
Y212326D01*
D02*
G37*
G36*
X870665Y209861D02*
X870740Y209858D01*
X873140Y209845D01*
Y207345D01*
X870640Y207326D01*
Y209865D01*
X870665Y209861D01*
D02*
G37*
G36*
X798601Y208892D02*
X798393Y208664D01*
X798210Y208417D01*
X798051Y208152D01*
X797916Y207869D01*
X797805Y207569D01*
X797719Y207250D01*
X797657Y206913D01*
X797619Y206558D01*
X797605Y206185D01*
X797616Y205794D01*
X793992Y209093D01*
X794394Y209118D01*
X794776Y209163D01*
X795137Y209228D01*
X795480Y209313D01*
X795802Y209417D01*
X796105Y209541D01*
X796387Y209686D01*
X796650Y209850D01*
X796894Y210034D01*
X797117Y210238D01*
X798601Y208892D01*
D02*
G37*
G36*
X824961Y201736D02*
X818682Y202470D01*
Y201595D01*
X818662Y201785D01*
X818601Y201955D01*
X818499Y202105D01*
X818357Y202235D01*
X818174Y202345D01*
X817951Y202435D01*
X817687Y202505D01*
X817382Y202555D01*
X817037Y202585D01*
X816651Y202595D01*
Y204595D01*
X816948Y204603D01*
X817200Y204619D01*
X817382Y204635D01*
X817393Y204637D01*
X817836Y204734D01*
X818256Y204907D01*
X818432Y205024D01*
X818499Y205085D01*
X818601Y205235D01*
X818662Y205405D01*
X818682Y205595D01*
Y205211D01*
X818930Y205460D01*
X819184Y205841D01*
X819384Y206291D01*
X819528Y206810D01*
X819617Y207398D01*
X819650Y208056D01*
X824961Y201736D01*
D02*
G37*
G36*
X870665Y204861D02*
X870740Y204858D01*
X873140Y204845D01*
Y202345D01*
X870640Y202326D01*
Y204865D01*
X870665Y204861D01*
D02*
G37*
G36*
X814360Y204813D02*
X814420Y204768D01*
X814520Y204727D01*
X814660Y204692D01*
X814840Y204662D01*
X815060Y204638D01*
X815960Y204598D01*
X816340Y204595D01*
Y202595D01*
X815960Y202592D01*
X814660Y202498D01*
X814520Y202463D01*
X814420Y202423D01*
X814360Y202377D01*
X814340Y202326D01*
Y204865D01*
X814360Y204813D01*
D02*
G37*
G36*
X904126Y207094D02*
X904232Y206598D01*
X904409Y206078D01*
X904656Y205533D01*
X904974Y204962D01*
X905363Y204367D01*
X905823Y203747D01*
X906954Y202433D01*
X907626Y201738D01*
X902203Y200090D01*
X901299Y200959D01*
X899622Y202356D01*
X898849Y202883D01*
X898120Y203297D01*
X897434Y203596D01*
X896793Y203782D01*
X896196Y203854D01*
X895642Y203812D01*
X895132Y203656D01*
X904090Y207565D01*
X904126Y207094D01*
D02*
G37*
G36*
X858124Y197435D02*
X858218Y196135D01*
X858253Y195995D01*
X858293Y195895D01*
X858339Y195835D01*
X858390Y195815D01*
X855851D01*
X855903Y195835D01*
X855948Y195895D01*
X855989Y195995D01*
X856024Y196135D01*
X856053Y196315D01*
X856078Y196535D01*
X856118Y197435D01*
X856121Y197815D01*
X858121D01*
X858124Y197435D01*
D02*
G37*
G36*
X777057Y195731D02*
X776449Y196008D01*
X775557Y195908D01*
X774382Y195431D01*
X772924Y194579D01*
X771182Y193350D01*
X769157Y191744D01*
X767521Y190294D01*
X760361Y182071D01*
X758676Y179673D01*
X757365Y177519D01*
X756429Y175610D01*
X755868Y173945D01*
X755680Y172526D01*
X741941Y190665D01*
X741604Y190877D01*
X741748Y191513D01*
X742375Y192574D01*
X743484Y194059D01*
X744463Y195234D01*
X744039Y195656D01*
X747152Y198815D01*
X755836Y208617D01*
X757065Y210358D01*
X757917Y211816D01*
X758392Y212990D01*
X758490Y213880D01*
X758212Y214487D01*
X777057Y195731D01*
D02*
G37*
G36*
X809383Y197331D02*
X809171Y197255D01*
X808983Y197128D01*
X808821Y196951D01*
X808683Y196723D01*
X808571Y196445D01*
X808509Y196210D01*
X808584Y196003D01*
X808704Y195781D01*
X808850Y195590D01*
X809024Y195432D01*
X809224Y195306D01*
X809450Y195212D01*
X809703Y195151D01*
X805742Y192612D01*
X805766Y192723D01*
X805788Y192865D01*
X805824Y193240D01*
X805866Y194357D01*
X805869Y194883D01*
X805858Y195306D01*
X805821Y195737D01*
X805758Y196116D01*
X805671Y196445D01*
X805558Y196723D01*
X805421Y196951D01*
X805258Y197128D01*
X805071Y197255D01*
X804858Y197331D01*
X804621Y197356D01*
X809621D01*
X809383Y197331D01*
D02*
G37*
G36*
X884667Y196834D02*
X885590Y196050D01*
X885997Y195765D01*
X886369Y195549D01*
X886704Y195405D01*
X887004Y195331D01*
X887268Y195328D01*
X887495Y195396D01*
X887687Y195534D01*
X884182Y192029D01*
X884320Y192221D01*
X884388Y192449D01*
X884385Y192712D01*
X884311Y193012D01*
X884167Y193347D01*
X883951Y193719D01*
X883665Y194126D01*
X883309Y194570D01*
X882384Y195565D01*
X884151Y197332D01*
X884667Y196834D01*
D02*
G37*
G36*
X912215Y197184D02*
X913985Y195694D01*
X914781Y195144D01*
X915518Y194722D01*
X916195Y194431D01*
X916813Y194268D01*
X917372Y194235D01*
X917872Y194331D01*
X918312Y194557D01*
X910061Y188727D01*
X910395Y189059D01*
X910575Y189474D01*
X910603Y189973D01*
X910476Y190555D01*
X910196Y191220D01*
X909763Y191969D01*
X909176Y192801D01*
X908436Y193717D01*
X906495Y195798D01*
X911241Y198123D01*
X912215Y197184D01*
D02*
G37*
G36*
X818390Y185076D02*
X818226Y185058D01*
X818042Y185005D01*
X817838Y184916D01*
X817614Y184793D01*
X817370Y184634D01*
X817106Y184439D01*
X816519Y183944D01*
X815851Y183308D01*
X814084Y185076D01*
X814555Y185564D01*
X815304Y186452D01*
X815581Y186850D01*
X815793Y187219D01*
X815940Y187558D01*
X816023Y187866D01*
X816041Y188144D01*
X815994Y188393D01*
X815882Y188611D01*
X818390Y185076D01*
D02*
G37*
G36*
X848339Y185056D02*
X848293Y184996D01*
X848253Y184896D01*
X848218Y184756D01*
X848188Y184576D01*
X848164Y184356D01*
X848124Y183456D01*
X848121Y183076D01*
X846121D01*
X846118Y183456D01*
X846024Y184756D01*
X845989Y184896D01*
X845948Y184996D01*
X845903Y185056D01*
X845851Y185076D01*
X848390D01*
X848339Y185056D01*
D02*
G37*
G36*
X853387Y185051D02*
X853383Y184976D01*
X853371Y182576D01*
X850871D01*
X850851Y185076D01*
X853390D01*
X853387Y185051D01*
D02*
G37*
G36*
X843387D02*
X843383Y184976D01*
X843371Y182576D01*
X840871D01*
X840851Y185076D01*
X843390D01*
X843387Y185051D01*
D02*
G37*
G36*
X884092Y184584D02*
X884130Y184154D01*
X884193Y183774D01*
X884280Y183445D01*
X884392Y183167D01*
X884530Y182939D01*
X884693Y182762D01*
X884880Y182635D01*
X885092Y182559D01*
X885330Y182534D01*
X880330D01*
X880567Y182559D01*
X880780Y182635D01*
X880967Y182762D01*
X881130Y182939D01*
X881267Y183167D01*
X881380Y183445D01*
X881468Y183774D01*
X881530Y184154D01*
X881568Y184584D01*
X881580Y185065D01*
X884080D01*
X884092Y184584D01*
D02*
G37*
G36*
X839113Y176022D02*
X839100Y175870D01*
X839088Y175795D01*
X835800D01*
Y175795D01*
X834661Y176111D01*
Y179635D01*
X828391D01*
Y173095D01*
X827121D01*
Y171825D01*
X826658D01*
X830212Y169156D01*
X829782Y169390D01*
X829291Y169493D01*
X828739Y169465D01*
X828124Y169305D01*
X827449Y169014D01*
X826712Y168592D01*
X825914Y168038D01*
X825055Y167353D01*
X824134Y166537D01*
X823151Y165590D01*
X818616Y168126D01*
X819653Y169197D01*
X821273Y171097D01*
X821786Y171825D01*
X819581D01*
Y171784D01*
X818577Y170607D01*
X817847Y169877D01*
X812278D01*
X812254Y169918D01*
X810944Y171229D01*
X809338Y172155D01*
X808255Y172446D01*
X808297Y173749D01*
X808494Y173788D01*
X809470Y174440D01*
X817716Y182687D01*
X818180Y183077D01*
X818358Y183209D01*
X818508Y183306D01*
X818578Y183345D01*
X839113D01*
Y176022D01*
D02*
G37*
G36*
X865271Y195587D02*
X869989D01*
X879822Y185754D01*
Y184522D01*
X879809Y184370D01*
X879797Y184295D01*
X876921D01*
Y174580D01*
X875748Y174094D01*
X868715Y181127D01*
X867739Y181779D01*
X866588Y182008D01*
X862025D01*
X860961Y182505D01*
Y189175D01*
X857121D01*
Y191715D01*
X860961D01*
Y195595D01*
X865232D01*
X865271Y195587D01*
D02*
G37*
G36*
X843383Y176084D02*
X843421Y175654D01*
X843483Y175274D01*
X843571Y174945D01*
X843683Y174667D01*
X843821Y174439D01*
X843983Y174262D01*
X844171Y174135D01*
X844383Y174059D01*
X844621Y174034D01*
X843562D01*
X843662Y173751D01*
X843790Y173465D01*
X843941Y173188D01*
X844116Y172921D01*
X844314Y172663D01*
X844535Y172413D01*
X839638Y172583D01*
X839872Y172814D01*
X840082Y173057D01*
X840267Y173311D01*
X840427Y173577D01*
X840563Y173854D01*
X840632Y174034D01*
X839621D01*
X839858Y174059D01*
X840071Y174135D01*
X840258Y174262D01*
X840421Y174439D01*
X840558Y174667D01*
X840671Y174945D01*
X840758Y175274D01*
X840821Y175654D01*
X840858Y176084D01*
X840871Y176565D01*
X843371D01*
X843383Y176084D01*
D02*
G37*
G36*
X480698Y174000D02*
X481002Y172470D01*
X480206Y171200D01*
X475502D01*
Y200298D01*
X475502Y200299D01*
X475060Y202523D01*
X473800Y204408D01*
X471915Y205668D01*
X469691Y206110D01*
X467467Y205668D01*
X465581Y204408D01*
X465581Y204408D01*
X464321Y202522D01*
X463879Y200298D01*
X463879Y200298D01*
Y171200D01*
X455490D01*
Y141302D01*
X382196D01*
X356749Y166749D01*
X355029Y167898D01*
X353000Y168302D01*
X309000D01*
X308496Y168202D01*
X307870Y169372D01*
X349196Y210698D01*
X480698D01*
Y174000D01*
D02*
G37*
G36*
X854819Y175124D02*
X855245Y174767D01*
X855506Y174608D01*
X855789Y174468D01*
X856091Y174351D01*
X856412Y174255D01*
X856752Y174182D01*
X857111Y174131D01*
X857488Y174102D01*
X857885Y174095D01*
X854420Y170630D01*
X854413Y171027D01*
X854384Y171404D01*
X854333Y171763D01*
X854260Y172103D01*
X854164Y172424D01*
X854120Y172539D01*
X853481Y172236D01*
X853636Y172344D01*
X853724Y172492D01*
X853745Y172677D01*
X853701Y172902D01*
X853589Y173166D01*
X853412Y173468D01*
X853167Y173809D01*
X852857Y174189D01*
X852036Y175065D01*
X854451Y175479D01*
X854819Y175124D01*
D02*
G37*
G36*
X886442Y176403D02*
X886390Y176160D01*
X886404Y175885D01*
X886485Y175578D01*
X886631Y175241D01*
X886844Y174871D01*
X887123Y174471D01*
X887469Y174038D01*
X888358Y173080D01*
X887699Y171964D01*
X887522Y170380D01*
X887264Y170619D01*
X887009Y170817D01*
X886758Y170973D01*
X886510Y171088D01*
X886265Y171162D01*
X886024Y171194D01*
X885787Y171185D01*
X885552Y171134D01*
X885321Y171042D01*
X885094Y170909D01*
X885418Y172286D01*
X885145Y172480D01*
X884771Y172697D01*
X884437Y172839D01*
X884145Y172906D01*
X883892Y172898D01*
X883680Y172815D01*
X883509Y172656D01*
X886560Y176615D01*
X886442Y176403D01*
D02*
G37*
G36*
X789713Y202650D02*
X791176Y201187D01*
X793087Y200396D01*
X795156D01*
X796294Y200867D01*
X797564Y200025D01*
Y185792D01*
X784249Y172477D01*
X784134Y172391D01*
X783933Y172270D01*
X783708Y172161D01*
X783454Y172064D01*
X783168Y171981D01*
X782849Y171914D01*
X782495Y171865D01*
X782106Y171836D01*
X781637Y171828D01*
X781485Y171795D01*
X780388D01*
X778109Y170851D01*
X776365Y169107D01*
X776058Y168367D01*
X774684D01*
X774377Y169107D01*
X772633Y170851D01*
X770354Y171795D01*
X767888D01*
X765609Y170851D01*
X763865Y169107D01*
X762921Y166828D01*
Y164362D01*
X763865Y162083D01*
X765609Y160339D01*
X767888Y159395D01*
X768985D01*
X769137Y159362D01*
X769606Y159354D01*
X769995Y159325D01*
X770349Y159276D01*
X770668Y159209D01*
X770954Y159126D01*
X771208Y159029D01*
X771433Y158920D01*
X771634Y158799D01*
X771749Y158714D01*
X776828Y153634D01*
X777804Y152982D01*
X778955Y152753D01*
X820194D01*
X820346Y152740D01*
X820421Y152728D01*
Y150395D01*
X833821D01*
Y158300D01*
X834650Y159015D01*
X835800Y158526D01*
Y150395D01*
X846455D01*
X846469Y150392D01*
X846484Y150395D01*
X848200D01*
Y151637D01*
X848328Y151676D01*
X848678Y151745D01*
X849522Y151823D01*
X850532D01*
X850729Y151810D01*
X851217Y151750D01*
X851592Y151676D01*
X851720Y151637D01*
Y150395D01*
X853436D01*
X853450Y150392D01*
X854108Y149414D01*
X854119Y149347D01*
X854147Y149027D01*
Y142295D01*
X854047Y142194D01*
X853148D01*
X851443Y141488D01*
X846133D01*
Y137432D01*
X844959Y136946D01*
X844026Y137880D01*
X843605Y138338D01*
X843130Y138923D01*
Y142635D01*
X836861D01*
Y136095D01*
X834321D01*
Y142635D01*
X828051D01*
Y140463D01*
X827972Y140451D01*
X826974Y140377D01*
X811164D01*
X810421Y141121D01*
X808270Y142012D01*
Y136000D01*
X807000D01*
Y134730D01*
X800988D01*
X801880Y132579D01*
X802602Y131856D01*
X802076Y130586D01*
X790819D01*
X768885Y152520D01*
X762059Y159646D01*
X760612Y161348D01*
Y179413D01*
X761728Y181001D01*
X768754Y189072D01*
X770272Y190416D01*
X772221Y191961D01*
X773863Y193120D01*
X775149Y193872D01*
X775391Y193970D01*
X787791D01*
Y203972D01*
X789061Y204225D01*
X789713Y202650D01*
D02*
G37*
G36*
X799971Y169677D02*
X799709Y169389D01*
X799476Y169075D01*
X799271Y168736D01*
X799094Y168370D01*
X798945Y167980D01*
X798824Y167563D01*
X798731Y167121D01*
X798666Y166653D01*
X798629Y166159D01*
X798621Y165640D01*
X794166Y170095D01*
X794685Y170104D01*
X795179Y170140D01*
X795647Y170205D01*
X796089Y170298D01*
X796505Y170419D01*
X796896Y170568D01*
X797261Y170745D01*
X797601Y170950D01*
X797915Y171184D01*
X798203Y171445D01*
X799971Y169677D01*
D02*
G37*
G36*
X787471D02*
X787209Y169389D01*
X786976Y169075D01*
X786771Y168736D01*
X786594Y168370D01*
X786445Y167980D01*
X786324Y167563D01*
X786231Y167121D01*
X786166Y166653D01*
X786129Y166159D01*
X786121Y165640D01*
X781666Y170095D01*
X782185Y170104D01*
X782679Y170140D01*
X783147Y170205D01*
X783589Y170298D01*
X784005Y170419D01*
X784396Y170568D01*
X784761Y170745D01*
X785101Y170950D01*
X785415Y171184D01*
X785703Y171445D01*
X787471Y169677D01*
D02*
G37*
G36*
X809982Y168622D02*
X810167Y168511D01*
X810393Y168414D01*
X810657Y168329D01*
X810960Y168258D01*
X811302Y168199D01*
X812104Y168121D01*
X812564Y168102D01*
X813063Y168095D01*
Y163095D01*
X812564Y163089D01*
X811302Y162991D01*
X810960Y162933D01*
X810657Y162861D01*
X810393Y162777D01*
X810167Y162679D01*
X809982Y162569D01*
X809835Y162445D01*
Y168745D01*
X809982Y168622D01*
D02*
G37*
G36*
X878719Y168645D02*
X879515Y167979D01*
X879709Y167862D01*
X879868Y167797D01*
X879992Y167785D01*
X880081Y167826D01*
X880134Y167919D01*
X880151Y168065D01*
Y161901D01*
X880134Y162255D01*
X880081Y162609D01*
X879992Y162962D01*
X879868Y163316D01*
X879709Y163669D01*
X879515Y164023D01*
X879285Y164376D01*
X879020Y164730D01*
X878719Y165083D01*
X878384Y165437D01*
Y168972D01*
X878719Y168645D01*
D02*
G37*
G36*
X833858Y161065D02*
X833316Y160505D01*
X832472Y159522D01*
X832171Y159100D01*
X831951Y158723D01*
X831812Y158393D01*
X831753Y158108D01*
X831775Y157869D01*
X831877Y157676D01*
X832060Y157529D01*
X827555Y160034D01*
X827791Y159940D01*
X828054Y159907D01*
X828342Y159935D01*
X828656Y160024D01*
X828997Y160173D01*
X829364Y160383D01*
X829756Y160655D01*
X830175Y160986D01*
X830620Y161379D01*
X831090Y161832D01*
X833858Y161065D01*
D02*
G37*
G36*
X773629Y165031D02*
X773666Y164537D01*
X773731Y164069D01*
X773824Y163627D01*
X773945Y163211D01*
X774094Y162820D01*
X774271Y162455D01*
X774476Y162115D01*
X774709Y161801D01*
X774971Y161513D01*
X773203Y159745D01*
X772915Y160007D01*
X772601Y160240D01*
X772261Y160445D01*
X771896Y160622D01*
X771505Y160771D01*
X771089Y160892D01*
X770647Y160985D01*
X770179Y161050D01*
X769685Y161087D01*
X769166Y161095D01*
X773621Y165550D01*
X773629Y165031D01*
D02*
G37*
G36*
X907460Y191398D02*
Y184950D01*
X907374Y184878D01*
X906161Y185135D01*
Y185135D01*
X900891D01*
Y178047D01*
X901882Y178100D01*
X903566Y178400D01*
X905051Y178900D01*
X906339Y179600D01*
X907429Y180500D01*
X908320Y181600D01*
X909013Y182900D01*
X909509Y184400D01*
X909806Y186100D01*
X909905Y188000D01*
X919905D01*
X920005Y186100D01*
X920305Y184400D01*
X920805Y182900D01*
X921505Y181600D01*
X922405Y180500D01*
X922952Y180052D01*
X923500Y180500D01*
X924400Y181600D01*
X925100Y182900D01*
X925600Y184400D01*
X925900Y186100D01*
X926000Y188000D01*
X936000Y173000D01*
X926000Y158000D01*
X925900Y159900D01*
X925600Y161600D01*
X925100Y163100D01*
X924400Y164400D01*
X923500Y165500D01*
X922400Y166400D01*
X921100Y167100D01*
X919600Y167600D01*
X917900Y167900D01*
X916000Y168000D01*
Y168730D01*
X914905Y168000D01*
X900603Y177595D01*
X898351D01*
Y185135D01*
X893081D01*
Y179249D01*
X892863Y177595D01*
Y172720D01*
X891690Y172234D01*
X889164Y174760D01*
X888783Y175170D01*
X888513Y175508D01*
X888321Y175784D01*
Y184295D01*
X885863D01*
X885851Y184370D01*
X885838Y184522D01*
Y187000D01*
X885609Y188151D01*
X885292Y188625D01*
X885919Y189895D01*
X905821D01*
Y191015D01*
X907091Y191665D01*
X907460Y191398D01*
D02*
G37*
G36*
X853450Y152126D02*
X853410Y152405D01*
X853290Y152655D01*
X853091Y152875D01*
X852811Y153066D01*
X852450Y153228D01*
X852010Y153360D01*
X851490Y153463D01*
X850891Y153536D01*
X850210Y153580D01*
X849960Y153585D01*
X849709Y153580D01*
X848429Y153463D01*
X847909Y153360D01*
X847469Y153228D01*
X847110Y153066D01*
X846830Y152875D01*
X846629Y152655D01*
X846509Y152405D01*
X846469Y152126D01*
Y159065D01*
X846509Y158785D01*
X846629Y158536D01*
X846830Y158315D01*
X847110Y158124D01*
X847469Y157963D01*
X847909Y157830D01*
X848429Y157727D01*
X849029Y157654D01*
X849709Y157610D01*
X849960Y157605D01*
X850210Y157610D01*
X851490Y157727D01*
X852010Y157830D01*
X852450Y157963D01*
X852811Y158124D01*
X853091Y158315D01*
X853290Y158536D01*
X853410Y158785D01*
X853450Y159065D01*
Y152126D01*
D02*
G37*
G36*
X822182Y153261D02*
X822157Y153498D01*
X822081Y153711D01*
X821954Y153898D01*
X821777Y154061D01*
X821549Y154198D01*
X821271Y154311D01*
X820942Y154398D01*
X820562Y154461D01*
X820132Y154498D01*
X819651Y154511D01*
Y157011D01*
X820132Y157023D01*
X820562Y157061D01*
X820942Y157123D01*
X821271Y157211D01*
X821549Y157323D01*
X821777Y157461D01*
X821954Y157623D01*
X822081Y157811D01*
X822157Y158023D01*
X822182Y158261D01*
Y153261D01*
D02*
G37*
G36*
X892371Y152383D02*
X889871Y148633D01*
X889846Y149108D01*
X889771Y149533D01*
X889646Y149908D01*
X889471Y150233D01*
X889246Y150508D01*
X888971Y150733D01*
X888646Y150908D01*
X888271Y151033D01*
X887846Y151108D01*
X887371Y151133D01*
Y153633D01*
X887846Y153658D01*
X888271Y153733D01*
X888646Y153858D01*
X888971Y154033D01*
X889246Y154258D01*
X889471Y154533D01*
X889646Y154858D01*
X889771Y155233D01*
X889846Y155658D01*
X889871Y156133D01*
X892371Y152383D01*
D02*
G37*
G36*
X861540Y152086D02*
X861200Y151966D01*
X860900Y151766D01*
X860640Y151486D01*
X860420Y151126D01*
X860240Y150686D01*
X860100Y150166D01*
X860000Y149566D01*
X859940Y148886D01*
X859920Y148126D01*
X855920D01*
X855900Y148886D01*
X855840Y149566D01*
X855740Y150166D01*
X855600Y150686D01*
X855420Y151126D01*
X855200Y151486D01*
X854940Y151766D01*
X854640Y151966D01*
X854300Y152086D01*
X853920Y152126D01*
X861920D01*
X861540Y152086D01*
D02*
G37*
G36*
X903317Y144500D02*
X903232Y144738D01*
X903105Y144950D01*
X902935Y145138D01*
X902724Y145300D01*
X902471Y145437D01*
X902177Y145550D01*
X901840Y145638D01*
X901461Y145700D01*
X901041Y145737D01*
X900578Y145750D01*
Y148250D01*
X901041Y148263D01*
X901461Y148300D01*
X901840Y148363D01*
X902177Y148450D01*
X902471Y148562D01*
X902724Y148700D01*
X902935Y148862D01*
X903105Y149050D01*
X903232Y149263D01*
X903317Y149500D01*
Y144500D01*
D02*
G37*
G36*
X892396Y150275D02*
X892471Y149850D01*
X892596Y149475D01*
X892771Y149150D01*
X892996Y148875D01*
X893271Y148650D01*
X893596Y148475D01*
X893971Y148350D01*
X894396Y148275D01*
X894871Y148250D01*
Y145750D01*
X894396Y145725D01*
X893971Y145650D01*
X893596Y145525D01*
X893271Y145350D01*
X892996Y145125D01*
X892771Y144850D01*
X892596Y144525D01*
X892471Y144150D01*
X892396Y143725D01*
X892371Y143250D01*
X889871Y147000D01*
X892371Y150750D01*
X892396Y150275D01*
D02*
G37*
G36*
X542360Y168923D02*
X542960Y168435D01*
X543960Y168004D01*
X545360Y167630D01*
X547160Y167314D01*
X549360Y167055D01*
X554960Y166710D01*
X562160Y166595D01*
Y146595D01*
X558360Y146554D01*
X549360Y145945D01*
X547160Y145579D01*
X545360Y145132D01*
X543960Y144603D01*
X542960Y143994D01*
X542360Y143303D01*
X542160Y142530D01*
Y169470D01*
X542360Y168923D01*
D02*
G37*
G36*
X873491Y150256D02*
X873491Y150256D01*
X874466Y149604D01*
X875617Y149375D01*
X875618Y149375D01*
X887691D01*
X887844Y149348D01*
X887956Y149311D01*
X888002Y149285D01*
X888014Y149276D01*
X888024Y149264D01*
X888049Y149218D01*
X888086Y149106D01*
X888113Y148953D01*
Y141735D01*
X887105Y140915D01*
X886271Y141213D01*
X886109Y141361D01*
Y141488D01*
X884392D01*
X884378Y141491D01*
X884364Y141488D01*
X869501D01*
Y132500D01*
X868488Y131878D01*
X863581D01*
Y132930D01*
X862741D01*
Y141488D01*
X861693D01*
Y149027D01*
X861721Y149347D01*
X861796Y149797D01*
X861885Y150130D01*
X861972Y150341D01*
X862003Y150391D01*
X862038Y150395D01*
X864120D01*
Y157967D01*
X865293Y158453D01*
X873491Y150256D01*
D02*
G37*
G36*
X859112Y139096D02*
X857644Y137509D01*
X854697Y140456D01*
X854731Y140468D01*
X854793Y140510D01*
X854883Y140582D01*
X855145Y140815D01*
X856284Y141924D01*
X859112Y139096D01*
D02*
G37*
G36*
X884428Y139537D02*
X884578Y139339D01*
X884828Y139165D01*
X885178Y139014D01*
X885628Y138886D01*
X886178Y138781D01*
X886828Y138700D01*
X888428Y138607D01*
X889378Y138595D01*
Y133595D01*
X884378Y134230D01*
Y139757D01*
X884428Y139537D01*
D02*
G37*
G36*
X755822Y165051D02*
X756246Y164204D01*
X756953Y163123D01*
X757943Y161810D01*
X760771Y158484D01*
X769822Y149036D01*
X757190Y133384D01*
X741941Y147526D01*
X755680Y165665D01*
X755822Y165051D01*
D02*
G37*
G36*
X830621Y132126D02*
X830571Y132405D01*
X830421Y132655D01*
X830171Y132875D01*
X829821Y133066D01*
X829371Y133228D01*
X828821Y133360D01*
X828171Y133463D01*
X827421Y133536D01*
X825621Y133595D01*
Y138595D01*
X826571Y138610D01*
X828171Y138727D01*
X828821Y138830D01*
X829371Y138962D01*
X829821Y139124D01*
X830171Y139315D01*
X830421Y139536D01*
X830571Y139785D01*
X830621Y140065D01*
Y132126D01*
D02*
G37*
G36*
X936100Y140100D02*
X936400Y138400D01*
X936900Y136900D01*
X937600Y135600D01*
X938500Y134500D01*
X939600Y133600D01*
X940766Y132972D01*
X941067Y133053D01*
X942174Y133433D01*
X943182Y133871D01*
X944091Y134368D01*
X944900Y134924D01*
Y132058D01*
X946000Y132000D01*
Y122000D01*
X944900Y121942D01*
Y119076D01*
X944091Y119632D01*
X943182Y120129D01*
X942174Y120567D01*
X941067Y120947D01*
X940766Y121028D01*
X939600Y120400D01*
X938500Y119500D01*
X937600Y118400D01*
X936900Y117100D01*
X936400Y115600D01*
X936100Y113900D01*
X936000Y112000D01*
X926871Y125694D01*
Y124058D01*
X926576Y124255D01*
X926106Y124432D01*
X925463Y124587D01*
X924644Y124722D01*
X922485Y124930D01*
X917938Y125086D01*
X916074Y125096D01*
Y130096D01*
X917938Y130106D01*
X925463Y130604D01*
X926106Y130760D01*
X926576Y130936D01*
X926871Y131134D01*
Y128306D01*
X936000Y142000D01*
X936100Y140100D01*
D02*
G37*
G36*
X536372Y148343D02*
X536019Y147405D01*
X535708Y146117D01*
X535438Y144481D01*
X535023Y140162D01*
X534711Y131068D01*
X534691Y127340D01*
X524691D01*
X524670Y131068D01*
X523674Y146117D01*
X523362Y147405D01*
X523009Y148343D01*
X522615Y148933D01*
X536766D01*
X536372Y148343D01*
D02*
G37*
G36*
X861060Y130309D02*
X861210Y130265D01*
X861460Y130225D01*
X861810Y130191D01*
X863460Y130120D01*
X866010Y130096D01*
Y125096D01*
X861010Y124832D01*
Y130359D01*
X861060Y130309D01*
D02*
G37*
G36*
X840595Y139794D02*
X840701Y139477D01*
X840878Y139115D01*
X841126Y138706D01*
X841444Y138251D01*
X842292Y137205D01*
X843424Y135974D01*
X844096Y135290D01*
X843893Y131638D01*
X845491Y133895D01*
X846543Y132877D01*
X848418Y131283D01*
X849241Y130706D01*
X849986Y130276D01*
X850655Y129993D01*
X851247Y129856D01*
X851762Y129867D01*
X852200Y130024D01*
X852562Y130329D01*
X847863Y124832D01*
X847810Y124813D01*
X847651Y124907D01*
X847386Y125115D01*
X846537Y125872D01*
X843726Y128617D01*
X843724Y128590D01*
X842591Y129688D01*
X840608Y131388D01*
X839759Y131990D01*
X839004Y132427D01*
X838344Y132697D01*
X837779Y132803D01*
X837309Y132743D01*
X836934Y132517D01*
X836653Y132126D01*
X840560Y140065D01*
X840595Y139794D01*
D02*
G37*
G36*
X513728Y140800D02*
X514650Y139960D01*
Y139960D01*
X522344D01*
X522933Y131068D01*
Y115758D01*
X457750D01*
X456853Y115781D01*
X455267Y115921D01*
X453912Y116146D01*
X452795Y116446D01*
X451920Y116803D01*
X451284Y117190D01*
X451231Y117240D01*
Y130540D01*
X452435Y130698D01*
X502900D01*
X504928Y131102D01*
X506648Y132251D01*
X510749Y136351D01*
X511898Y138072D01*
X512302Y140100D01*
X513001Y140800D01*
X513728D01*
D02*
G37*
G36*
X890581Y120365D02*
X898121D01*
Y119095D01*
X899391D01*
Y112555D01*
X901416D01*
X902036Y111285D01*
X901300Y108540D01*
Y105460D01*
X902097Y102484D01*
X903638Y99816D01*
X903893Y99561D01*
X904153Y99182D01*
X904571Y98419D01*
X904950Y97546D01*
X905288Y96562D01*
X905580Y95466D01*
X905824Y94258D01*
X906013Y92960D01*
X906239Y89962D01*
X906242Y89751D01*
Y83730D01*
X887645D01*
X859446Y111929D01*
X860433Y113216D01*
X860635Y113704D01*
X862741D01*
Y122262D01*
X863581D01*
Y123232D01*
X865127Y123314D01*
X868488D01*
X869501Y122692D01*
X869501Y122044D01*
Y113704D01*
X886109D01*
Y122044D01*
X886109Y122692D01*
X887121Y123314D01*
X890581D01*
Y120365D01*
D02*
G37*
G36*
X844916Y124025D02*
X845790Y123515D01*
X846715Y123065D01*
X847689Y122675D01*
X848713Y122345D01*
X849787Y122075D01*
X850911Y121865D01*
X852084Y121715D01*
X853308Y121625D01*
X854581Y121595D01*
Y111595D01*
X853308Y111565D01*
X850911Y111325D01*
X849787Y111115D01*
X848713Y110845D01*
X847689Y110515D01*
X846715Y110125D01*
X845790Y109675D01*
X844916Y109165D01*
X844091Y108595D01*
Y124595D01*
X844916Y124025D01*
D02*
G37*
G36*
X550751Y99000D02*
X550651Y99950D01*
X550350Y100800D01*
X549849Y101550D01*
X549147Y102200D01*
X548244Y102750D01*
X547141Y103200D01*
X545837Y103550D01*
X544332Y103800D01*
X542627Y103950D01*
X540721Y104000D01*
Y114000D01*
X542627Y114050D01*
X544332Y114200D01*
X545837Y114450D01*
X547141Y114800D01*
X548244Y115250D01*
X549147Y115800D01*
X549849Y116450D01*
X550350Y117200D01*
X550651Y118050D01*
X550751Y119000D01*
Y99000D01*
D02*
G37*
G36*
X448730Y118050D02*
X449031Y117200D01*
X449532Y116450D01*
X450234Y115800D01*
X451137Y115250D01*
X452240Y114800D01*
X453544Y114450D01*
X455049Y114200D01*
X456754Y114050D01*
X458660Y114000D01*
Y104000D01*
X456754Y103950D01*
X455049Y103800D01*
X453544Y103550D01*
X452240Y103200D01*
X451137Y102750D01*
X450234Y102200D01*
X449532Y101550D01*
X449031Y100800D01*
X448730Y99950D01*
X448629Y99000D01*
Y119000D01*
X448730Y118050D01*
D02*
G37*
G36*
X920368Y100091D02*
X919871Y99182D01*
X919433Y98174D01*
X919053Y97067D01*
X918731Y95861D01*
X918468Y94555D01*
X918263Y93150D01*
X918029Y90042D01*
X918000Y88340D01*
X908000D01*
X907971Y90042D01*
X907737Y93150D01*
X907532Y94555D01*
X907269Y95861D01*
X906947Y97067D01*
X906567Y98174D01*
X906129Y99182D01*
X905631Y100091D01*
X905076Y100900D01*
X920924D01*
X920368Y100091D01*
D02*
G37*
%LPC*%
G36*
X916000Y374302D02*
X915488Y374200D01*
X914966D01*
X914483Y374000D01*
X913971Y373898D01*
X913537Y373608D01*
X913054Y373408D01*
X912685Y373039D01*
X912251Y372749D01*
X911961Y372315D01*
X911592Y371946D01*
X911392Y371463D01*
X911102Y371029D01*
X911000Y370517D01*
X910800Y370034D01*
Y369512D01*
X910698Y369000D01*
X910800Y368488D01*
Y367966D01*
X911000Y367483D01*
X911102Y366971D01*
X911392Y366537D01*
X911592Y366054D01*
X911961Y365685D01*
X912251Y365251D01*
X917559Y359943D01*
X916839Y358867D01*
X916034Y359200D01*
X913966D01*
X912054Y358408D01*
X910592Y356946D01*
X909800Y355034D01*
Y353317D01*
X908300D01*
Y341917D01*
X921700D01*
Y353317D01*
X920200D01*
Y355034D01*
X919989Y355543D01*
X921079Y356231D01*
X923895Y353102D01*
X924638Y351816D01*
X926816Y349638D01*
X928102Y348895D01*
X933153Y344349D01*
X941698Y335804D01*
Y152000D01*
X941800Y151488D01*
Y150966D01*
X942000Y150483D01*
X942102Y149971D01*
X942392Y149537D01*
X942592Y149054D01*
X942961Y148685D01*
X943251Y148251D01*
X943685Y147961D01*
X944054Y147592D01*
X944537Y147392D01*
X944971Y147102D01*
X945483Y147000D01*
X945966Y146800D01*
X946488D01*
X947000Y146698D01*
X947512Y146800D01*
X948034D01*
X948517Y147000D01*
X949029Y147102D01*
X949463Y147392D01*
X949946Y147592D01*
X950315Y147961D01*
X950749Y148251D01*
X951039Y148685D01*
X951408Y149054D01*
X951608Y149537D01*
X951898Y149971D01*
X952000Y150483D01*
X952200Y150966D01*
Y151488D01*
X952302Y152000D01*
Y338000D01*
X951898Y340029D01*
X950749Y341749D01*
X944633Y347865D01*
X944233Y348362D01*
X943781Y349040D01*
X943463Y349655D01*
X943266Y350198D01*
X943174Y350671D01*
X943166Y351085D01*
X943231Y351470D01*
X943358Y351812D01*
X943362Y351816D01*
X944903Y354484D01*
X945700Y357460D01*
Y360540D01*
X944903Y363516D01*
X943362Y366184D01*
X941184Y368362D01*
X938516Y369903D01*
X935540Y370700D01*
X932460D01*
X929484Y369903D01*
X926816Y368362D01*
X926812Y368358D01*
X926470Y368231D01*
X926085Y368166D01*
X925670Y368174D01*
X925198Y368266D01*
X924655Y368463D01*
X924041Y368781D01*
X923362Y369233D01*
X922865Y369633D01*
X919749Y372749D01*
X919315Y373039D01*
X918946Y373408D01*
X918463Y373608D01*
X918029Y373898D01*
X917517Y374000D01*
X917034Y374200D01*
X916512D01*
X916000Y374302D01*
D02*
G37*
G36*
X84997Y363515D02*
X83248Y363285D01*
X81618Y362610D01*
X80218Y361536D01*
X67221Y348539D01*
X66148Y347140D01*
X65472Y345510D01*
X65242Y343761D01*
Y216000D01*
Y88757D01*
X65472Y87008D01*
X66148Y85378D01*
X67221Y83979D01*
X78204Y72996D01*
Y67656D01*
X78300Y66928D01*
Y61918D01*
X81423D01*
X81621Y61765D01*
X83251Y61090D01*
X85000Y60860D01*
X86749Y61090D01*
X88379Y61765D01*
X88577Y61918D01*
X91700D01*
Y67178D01*
X91758Y67618D01*
X91720Y67906D01*
Y75795D01*
X91489Y77544D01*
X90814Y79174D01*
X89740Y80574D01*
X78758Y91556D01*
Y180182D01*
X79621Y180516D01*
X80028Y180555D01*
X81641Y178942D01*
X83792Y178051D01*
Y184062D01*
X86333D01*
Y178051D01*
X88484Y178942D01*
X90183Y180641D01*
X91103Y182861D01*
Y184077D01*
X92540D01*
Y189347D01*
X85000D01*
Y190618D01*
X83730D01*
Y197157D01*
X78758D01*
Y201917D01*
X81465D01*
X81482Y201904D01*
X83112Y201229D01*
X84861Y200998D01*
X86610Y201229D01*
X88240Y201904D01*
X88258Y201917D01*
X91700D01*
Y213318D01*
X91619D01*
Y215903D01*
X91389Y217652D01*
X90714Y219282D01*
X89640Y220681D01*
X88240Y221755D01*
X86610Y222430D01*
X84861Y222661D01*
X78758D01*
Y319576D01*
X80028Y320084D01*
X81368Y318744D01*
X83519Y317853D01*
Y323865D01*
X86059D01*
Y317853D01*
X88210Y318744D01*
X89909Y320443D01*
X90829Y322663D01*
Y324077D01*
X92540D01*
Y329347D01*
X85000D01*
Y330617D01*
X83730D01*
Y337158D01*
X78758D01*
Y340962D01*
X79714Y341917D01*
X91700D01*
Y353317D01*
X91700D01*
X91350Y354588D01*
X91524Y355009D01*
X91755Y356758D01*
X91524Y358507D01*
X90849Y360136D01*
X89775Y361536D01*
X88376Y362610D01*
X86746Y363285D01*
X84997Y363515D01*
D02*
G37*
G36*
X500000Y362758D02*
X498251Y362528D01*
X496621Y361852D01*
X495221Y360779D01*
X494148Y359379D01*
X493473Y357749D01*
X493242Y356000D01*
Y347617D01*
X493300Y347178D01*
Y341917D01*
X496423D01*
X496621Y341765D01*
X498251Y341090D01*
X500000Y340860D01*
X501749Y341090D01*
X503379Y341765D01*
X503577Y341917D01*
X506700D01*
Y347178D01*
X506758Y347617D01*
Y356000D01*
X506527Y357749D01*
X505852Y359379D01*
X504779Y360779D01*
X503379Y361852D01*
X501749Y362528D01*
X500000Y362758D01*
D02*
G37*
G36*
X293654Y359995D02*
X291585D01*
X289674Y359203D01*
X288211Y357741D01*
X287419Y355829D01*
Y353761D01*
X287124Y353317D01*
X285800D01*
Y348115D01*
X285742Y347675D01*
Y347617D01*
X285800Y347178D01*
Y341917D01*
X288923D01*
X289121Y341765D01*
X290751Y341090D01*
X292500Y340860D01*
X294249Y341090D01*
X295879Y341765D01*
X296077Y341917D01*
X299200D01*
Y346448D01*
X299377Y347795D01*
X299200Y349142D01*
Y353317D01*
X298116D01*
X297819Y353761D01*
Y355829D01*
X297028Y357741D01*
X295565Y359203D01*
X293654Y359995D01*
D02*
G37*
G36*
X507540Y337158D02*
X501270D01*
Y331888D01*
X507540D01*
Y337158D01*
D02*
G37*
G36*
X498730D02*
X492460D01*
Y331888D01*
X498730D01*
Y337158D01*
D02*
G37*
G36*
X300040D02*
X293770D01*
Y331888D01*
X300040D01*
Y337158D01*
D02*
G37*
G36*
X92540D02*
X86270D01*
Y331888D01*
X92540D01*
Y337158D01*
D02*
G37*
G36*
X291230D02*
X284960D01*
Y331888D01*
X291230D01*
Y337158D01*
D02*
G37*
G36*
X915000Y337375D02*
X913346Y337158D01*
X907460D01*
Y331888D01*
X915000D01*
X922540D01*
Y337158D01*
X916654D01*
X915000Y337375D01*
D02*
G37*
G36*
X300040Y329347D02*
X292500D01*
X284960D01*
Y324077D01*
X286460D01*
Y322994D01*
X287379Y320774D01*
X289079Y319074D01*
X291230Y318183D01*
Y324195D01*
X293770D01*
Y318183D01*
X295921Y319074D01*
X297621Y320774D01*
X298540Y322994D01*
Y324077D01*
X300040D01*
Y329347D01*
D02*
G37*
G36*
X507540Y329347D02*
X500000D01*
X492460D01*
Y324077D01*
X493242D01*
Y323000D01*
X493473Y321251D01*
X494148Y319621D01*
X495221Y318221D01*
X496621Y317148D01*
X498251Y316472D01*
X500000Y316242D01*
X501749Y316472D01*
X503379Y317148D01*
X504779Y318221D01*
X505852Y319621D01*
X506527Y321251D01*
X506758Y323000D01*
Y324077D01*
X507540D01*
Y329347D01*
D02*
G37*
G36*
X888411Y281635D02*
X883141D01*
Y276365D01*
X888411D01*
Y281635D01*
D02*
G37*
G36*
X880601D02*
X875331D01*
Y276365D01*
X880601D01*
Y281635D01*
D02*
G37*
G36*
X903321Y278795D02*
X890921D01*
Y268395D01*
X896086D01*
X896087Y268395D01*
X898155D01*
X898155Y268395D01*
X903321D01*
Y278795D01*
D02*
G37*
G36*
X300040Y197157D02*
X293770D01*
Y191887D01*
X300040D01*
Y197157D01*
D02*
G37*
G36*
X92540D02*
X86270D01*
Y191887D01*
X92540D01*
Y197157D01*
D02*
G37*
G36*
X292000Y220302D02*
X291488Y220200D01*
X290966D01*
X290483Y220000D01*
X289971Y219898D01*
X289537Y219608D01*
X289054Y219408D01*
X288685Y219039D01*
X288251Y218749D01*
X287961Y218315D01*
X287592Y217946D01*
X287392Y217463D01*
X287102Y217029D01*
X287000Y216517D01*
X286800Y216034D01*
Y215512D01*
X286698Y215000D01*
Y213318D01*
X285800D01*
Y209415D01*
X270001Y193617D01*
X268852Y191896D01*
X268448Y189867D01*
Y139941D01*
X268852Y137912D01*
X269050Y137615D01*
Y129741D01*
X278450D01*
Y137615D01*
X278648Y137912D01*
X279052Y139941D01*
Y187671D01*
X283787Y192406D01*
X284960Y191920D01*
Y191887D01*
X291230D01*
Y197157D01*
X290197D01*
X289711Y198331D01*
X293298Y201917D01*
X299200D01*
Y213318D01*
X297302D01*
Y215000D01*
X297200Y215512D01*
Y216034D01*
X297000Y216517D01*
X296898Y217029D01*
X296608Y217463D01*
X296408Y217946D01*
X296039Y218315D01*
X295749Y218749D01*
X295315Y219039D01*
X294946Y219408D01*
X294463Y219608D01*
X294029Y219898D01*
X293517Y220000D01*
X293034Y220200D01*
X292512D01*
X292000Y220302D01*
D02*
G37*
G36*
X300040Y189347D02*
X292500D01*
X284960D01*
Y185270D01*
X292000D01*
Y184000D01*
X293270D01*
Y177988D01*
X295421Y178880D01*
X297120Y180579D01*
X298040Y182799D01*
Y184077D01*
X300040D01*
Y189347D01*
D02*
G37*
G36*
X290730Y182730D02*
X285988D01*
X286880Y180579D01*
X288579Y178880D01*
X290730Y177988D01*
Y182730D01*
D02*
G37*
G36*
X952651Y139540D02*
X952270D01*
Y128270D01*
X963540D01*
Y128651D01*
X962685Y131840D01*
X961034Y134700D01*
X958700Y137035D01*
X955840Y138685D01*
X952651Y139540D01*
D02*
G37*
G36*
X123540Y121700D02*
X120460D01*
X117484Y120903D01*
X114816Y119362D01*
X112638Y117184D01*
X111333Y114924D01*
X111222Y114898D01*
X110710Y115000D01*
X110227Y115200D01*
X109705D01*
X109193Y115302D01*
X108681Y115200D01*
X108159D01*
X107676Y115000D01*
X107164Y114898D01*
X106730Y114608D01*
X106248Y114408D01*
X105878Y114039D01*
X105444Y113749D01*
X105154Y113315D01*
X104785Y112946D01*
X104585Y112463D01*
X104295Y112029D01*
X104193Y111517D01*
X103993Y111034D01*
Y110512D01*
X103891Y110000D01*
Y44307D01*
X104295Y42278D01*
X105058Y41136D01*
X105092Y41055D01*
X105154Y40992D01*
X105444Y40558D01*
X105751Y40251D01*
X106185Y39961D01*
X106554Y39592D01*
X107037Y39392D01*
X107471Y39102D01*
X107983Y39000D01*
X108466Y38800D01*
X108988D01*
X109500Y38698D01*
X110012Y38800D01*
X110534D01*
X111017Y39000D01*
X111529Y39102D01*
X111963Y39392D01*
X112446Y39592D01*
X112815Y39961D01*
X113249Y40251D01*
X113539Y40685D01*
X113908Y41055D01*
X114108Y41537D01*
X114398Y41971D01*
X114500Y42483D01*
X114700Y42966D01*
Y43488D01*
X114802Y44000D01*
X114700Y44512D01*
Y45034D01*
X114500Y45517D01*
X114495Y45543D01*
Y99357D01*
X115765Y100090D01*
X117484Y99097D01*
X120460Y98300D01*
X123540D01*
X126516Y99097D01*
X129184Y100638D01*
X131362Y102816D01*
X132903Y105484D01*
X133700Y108460D01*
Y111540D01*
X132903Y114516D01*
X131362Y117184D01*
X129184Y119362D01*
X126516Y120903D01*
X123540Y121700D01*
D02*
G37*
G36*
X963540Y125730D02*
X952270D01*
Y114460D01*
X952651D01*
X955840Y115315D01*
X958700Y116966D01*
X961034Y119300D01*
X962685Y122160D01*
X963540Y125349D01*
Y125730D01*
D02*
G37*
G36*
X571231Y130540D02*
X560961D01*
Y110270D01*
X571231D01*
Y130540D01*
D02*
G37*
G36*
X253980Y123981D02*
X247710D01*
Y109211D01*
X253980D01*
Y123981D01*
D02*
G37*
G36*
Y106671D02*
X247710D01*
Y91901D01*
X253980D01*
Y106671D01*
D02*
G37*
G36*
X571231Y107730D02*
X560961D01*
Y87460D01*
X571231D01*
Y107730D01*
D02*
G37*
G36*
X708243Y83001D02*
X706494Y82771D01*
X704864Y82095D01*
X703465Y81021D01*
X702721Y80279D01*
X701648Y78879D01*
X700973Y77249D01*
X700742Y75500D01*
Y67618D01*
X700800Y67178D01*
Y61918D01*
X703922D01*
X704121Y61765D01*
X705751Y61090D01*
X707500Y60860D01*
X709249Y61090D01*
X710879Y61765D01*
X711077Y61918D01*
X714200D01*
Y67178D01*
X714258Y67618D01*
Y73256D01*
X714771Y74494D01*
X715001Y76243D01*
X714771Y77992D01*
X714095Y79622D01*
X713021Y81021D01*
X711622Y82095D01*
X709992Y82771D01*
X708243Y83001D01*
D02*
G37*
G36*
X500464Y82658D02*
X498715Y82428D01*
X497085Y81752D01*
X495686Y80679D01*
X495221Y80214D01*
X494148Y78815D01*
X493473Y77185D01*
X493242Y75436D01*
Y67618D01*
X493300Y67178D01*
Y61918D01*
X496423D01*
X496621Y61765D01*
X498251Y61090D01*
X500000Y60860D01*
X501749Y61090D01*
X503379Y61765D01*
X503577Y61918D01*
X506700D01*
Y67178D01*
X506758Y67618D01*
Y73587D01*
X506992Y74151D01*
X507222Y75900D01*
X506992Y77649D01*
X506316Y79279D01*
X505243Y80679D01*
X503843Y81752D01*
X502213Y82428D01*
X500464Y82658D01*
D02*
G37*
G36*
X292608Y82160D02*
X290859Y81930D01*
X289229Y81255D01*
X287830Y80181D01*
X287722Y80073D01*
X286648Y78673D01*
X285972Y77043D01*
X285742Y75294D01*
Y67618D01*
X285800Y67178D01*
Y61918D01*
X288923D01*
X289121Y61765D01*
X290751Y61090D01*
X292500Y60860D01*
X294249Y61090D01*
X295879Y61765D01*
X296077Y61918D01*
X299200D01*
Y67178D01*
X299258Y67618D01*
Y74580D01*
X299366Y75402D01*
X299136Y77151D01*
X298461Y78781D01*
X297387Y80181D01*
X295987Y81255D01*
X294357Y81930D01*
X292608Y82160D01*
D02*
G37*
G36*
X500000Y57375D02*
X498346Y57158D01*
X492460D01*
Y51887D01*
X500000D01*
X507540D01*
Y57158D01*
X501654D01*
X500000Y57375D01*
D02*
G37*
G36*
X92540Y57158D02*
X86270D01*
Y51887D01*
X92540D01*
Y57158D01*
D02*
G37*
G36*
X707500Y57375D02*
X705846Y57158D01*
X699960D01*
Y51887D01*
X707500D01*
X715040D01*
Y57158D01*
X709154D01*
X707500Y57375D01*
D02*
G37*
G36*
X292500D02*
X290846Y57158D01*
X284960D01*
Y51887D01*
X292500D01*
X300040D01*
Y57158D01*
X294154D01*
X292500Y57375D01*
D02*
G37*
G36*
X83730Y57158D02*
X77460D01*
Y51887D01*
X83730D01*
Y57158D01*
D02*
G37*
G36*
X92540Y49348D02*
X85000D01*
X77460D01*
Y44078D01*
X78862D01*
Y42326D01*
X79781Y40106D01*
X81480Y38407D01*
X83632Y37516D01*
Y43527D01*
X86172D01*
Y37516D01*
X88323Y38407D01*
X90022Y40106D01*
X90942Y42326D01*
Y44078D01*
X92540D01*
Y49348D01*
D02*
G37*
G36*
X507540Y49348D02*
X500000D01*
X492460D01*
Y44078D01*
X493242D01*
Y41100D01*
X493473Y39351D01*
X494148Y37721D01*
X495221Y36321D01*
X496621Y35248D01*
X498251Y34573D01*
X500000Y34342D01*
X501749Y34573D01*
X503379Y35248D01*
X504779Y36321D01*
X505852Y37721D01*
X506527Y39351D01*
X506758Y41100D01*
Y44078D01*
X507540D01*
Y49348D01*
D02*
G37*
G36*
X715040Y49348D02*
X707500D01*
X699960D01*
Y44078D01*
X701242D01*
Y40100D01*
X701472Y38351D01*
X702148Y36721D01*
X703222Y35322D01*
X704621Y34248D01*
X706251Y33572D01*
X708000Y33342D01*
X709749Y33572D01*
X711379Y34248D01*
X712778Y35322D01*
X713852Y36721D01*
X714528Y38351D01*
X714758Y40100D01*
Y44078D01*
X715040D01*
Y49348D01*
D02*
G37*
G36*
X300040D02*
X292500D01*
X284960D01*
Y44078D01*
X285742D01*
Y41500D01*
X285473Y40849D01*
X285242Y39100D01*
X285473Y37351D01*
X286148Y35721D01*
X287222Y34321D01*
X288621Y33248D01*
X290251Y32573D01*
X292000Y32342D01*
X293749Y32573D01*
X295379Y33248D01*
X296779Y34321D01*
X297278Y34822D01*
X298352Y36221D01*
X299028Y37851D01*
X299258Y39600D01*
Y44078D01*
X300040D01*
Y49348D01*
D02*
G37*
%LPD*%
G36*
X921490Y368515D02*
X922336Y367834D01*
X923159Y367286D01*
X923958Y366872D01*
X924734Y366591D01*
X925486Y366444D01*
X926215Y366430D01*
X926920Y366550D01*
X927602Y366803D01*
X928261Y367189D01*
X929015Y354015D01*
X925210Y354232D01*
X919734Y360317D01*
X920620Y369329D01*
X921490Y368515D01*
D02*
G37*
G36*
X942189Y353261D02*
X941803Y352602D01*
X941550Y351921D01*
X941430Y351215D01*
X941444Y350486D01*
X941591Y349734D01*
X941872Y348958D01*
X942286Y348159D01*
X942834Y347336D01*
X943515Y346490D01*
X944329Y345620D01*
X935317Y344734D01*
X929232Y350210D01*
X929015Y354015D01*
X942189Y353261D01*
D02*
G37*
%LPC*%
G36*
X763440Y361730D02*
X756420D01*
Y351360D01*
X763440D01*
Y361730D01*
D02*
G37*
G36*
X725661Y346135D02*
X720891D01*
Y340365D01*
X725661D01*
Y346135D01*
D02*
G37*
G36*
Y322825D02*
X720891D01*
Y317055D01*
X725661D01*
Y322825D01*
D02*
G37*
G36*
X738090Y345298D02*
X738076Y345295D01*
X729421D01*
Y332895D01*
X738076D01*
X738090Y332892D01*
X738105Y332895D01*
X739821D01*
Y333287D01*
X740149Y333571D01*
X741062Y334057D01*
X741386Y333970D01*
X741816Y333793D01*
X742089Y333627D01*
X742232Y333494D01*
X742299Y333394D01*
X742339Y333281D01*
X742371Y332977D01*
Y321295D01*
X747315D01*
X748581Y321285D01*
X748581Y320025D01*
Y309365D01*
X764851D01*
Y321292D01*
X764471Y321295D01*
X764471Y322555D01*
Y344395D01*
X755071D01*
Y322555D01*
X755071Y321295D01*
X753805Y321285D01*
X753037D01*
X751771Y321295D01*
X751771Y322555D01*
Y344395D01*
X744116D01*
X744101Y344398D01*
X744087Y344395D01*
X742371D01*
Y344036D01*
X741158Y343959D01*
X740535Y344041D01*
X740010Y344146D01*
X739821Y344203D01*
Y345295D01*
X738105D01*
X738090Y345298D01*
D02*
G37*
G36*
X726290Y293190D02*
X720570D01*
Y287270D01*
X726290D01*
Y293190D01*
D02*
G37*
G36*
Y284730D02*
X720570D01*
Y278810D01*
X726290D01*
Y284730D01*
D02*
G37*
%LPD*%
G36*
X738150Y343285D02*
X738330Y343036D01*
X738630Y342815D01*
X739050Y342624D01*
X739590Y342463D01*
X740250Y342330D01*
X741030Y342227D01*
X741138Y342221D01*
X743561Y342374D01*
X743861Y342459D01*
X744041Y342556D01*
X744101Y342664D01*
Y333095D01*
X744041Y333665D01*
X743861Y334175D01*
X743561Y334625D01*
X743141Y335015D01*
X742601Y335345D01*
X741941Y335615D01*
X741161Y335825D01*
X740721Y335898D01*
X740250Y335860D01*
X739590Y335728D01*
X739050Y335566D01*
X738630Y335375D01*
X738330Y335155D01*
X738150Y334905D01*
X738090Y334626D01*
Y343565D01*
X738150Y343285D01*
D02*
G37*
%LPC*%
G36*
X500466Y218159D02*
X498717Y217929D01*
X497088Y217254D01*
X495688Y216180D01*
X495221Y215714D01*
X494148Y214314D01*
X493735Y213318D01*
X493300D01*
Y211374D01*
X493242Y210935D01*
Y207617D01*
X493300Y207178D01*
Y201917D01*
X496422D01*
X496621Y201765D01*
X498251Y201090D01*
X500000Y200860D01*
X501749Y201090D01*
X503379Y201765D01*
X503578Y201917D01*
X506700D01*
Y207178D01*
X506758Y207617D01*
Y209082D01*
X506994Y209652D01*
X507224Y211401D01*
X506994Y213150D01*
X506319Y214780D01*
X505245Y216180D01*
X503845Y217254D01*
X502215Y217929D01*
X500466Y218159D01*
D02*
G37*
G36*
X501270Y197157D02*
Y191887D01*
X507540D01*
Y197157D01*
X501270D01*
D02*
G37*
G36*
X825161Y268135D02*
X819891D01*
Y261865D01*
X825161D01*
Y268135D01*
D02*
G37*
G36*
X817351D02*
X812081D01*
Y261865D01*
X817351D01*
Y268135D01*
D02*
G37*
G36*
X740161Y219635D02*
X727391D01*
Y207365D01*
X740161D01*
Y219635D01*
D02*
G37*
G36*
X706230Y197157D02*
X699960D01*
Y191887D01*
X706230D01*
Y197157D01*
D02*
G37*
G36*
Y189347D02*
X699960D01*
Y184077D01*
X706230D01*
Y189347D01*
D02*
G37*
G36*
X840621Y313595D02*
D01*
D01*
D01*
D02*
G37*
G36*
X846661Y312325D02*
X841891D01*
Y306555D01*
X846661D01*
Y312325D01*
D02*
G37*
G36*
X825851Y179635D02*
X819581D01*
Y174365D01*
X822681D01*
X822678Y174424D01*
X822505Y174846D01*
X822182Y175187D01*
X823276Y174365D01*
X825851D01*
Y179635D01*
D02*
G37*
G36*
X805730Y142012D02*
X803579Y141121D01*
X801880Y139421D01*
X800988Y137270D01*
X805730D01*
Y142012D01*
D02*
G37*
G36*
X896851Y117825D02*
X890581D01*
Y112555D01*
X896851D01*
Y117825D01*
D02*
G37*
%LPD*%
D10*
X837121Y218595D02*
X857121Y198595D01*
X819621Y236095D02*
X837121Y218595D01*
X822121Y203595D02*
X837121Y218595D01*
X861921Y296796D02*
X863121Y295595D01*
X861921Y296796D02*
Y328056D01*
X847121Y181394D02*
Y190445D01*
Y181394D02*
X857920Y170595D01*
X861921Y328056D02*
X866162Y332298D01*
X746621Y339095D02*
X747121Y338595D01*
X857121Y190445D02*
Y198595D01*
X819621Y236095D02*
Y246745D01*
X822121D01*
X808971Y203595D02*
X822121D01*
X819621Y246745D02*
Y259595D01*
X818621Y260595D02*
X819621Y259595D01*
X817121Y246745D02*
X819621D01*
X837121Y218595D02*
X865271D01*
X808671Y213295D02*
X808971Y213595D01*
X801589Y213295D02*
X808671D01*
X794121Y205827D02*
X801589Y213295D01*
X794121Y205595D02*
Y205827D01*
D17*
X84861Y207756D02*
X85000Y207617D01*
X837121Y218595D02*
Y219121D01*
X842000Y358000D02*
X850636D01*
X809700D02*
X842000D01*
X809000Y357300D02*
X809700Y358000D01*
X831811Y365100D02*
X841600D01*
X831411Y364700D02*
X831811Y365100D01*
X841600D02*
X842000Y365500D01*
X837121Y219121D02*
X847000Y229000D01*
X842000Y358000D02*
X842000Y358000D01*
Y350500D02*
Y358000D01*
X850636Y358000D02*
X858636Y366000D01*
X734700Y275300D02*
Y286000D01*
X739705Y270295D02*
X753811D01*
X734700Y275300D02*
X739705Y270295D01*
X758535Y275259D02*
X759771Y276495D01*
X753811Y270295D02*
X758655Y275139D01*
X759771Y276495D02*
Y283345D01*
X858636Y366000D02*
X871000D01*
X879152Y360314D02*
X879621Y359845D01*
X845531Y366531D02*
X851031Y372031D01*
X873531D01*
X879152Y366410D01*
Y360314D02*
Y366410D01*
X873121Y359845D02*
Y363879D01*
X871000Y366000D02*
X873121Y363879D01*
D18*
X644000Y349000D02*
D03*
X681000Y317000D02*
D03*
X644000D02*
D03*
X913000Y147000D02*
D03*
X681000Y349000D02*
D03*
X951000Y127000D02*
D03*
X913000Y107000D02*
D03*
X122000Y110000D02*
D03*
X934000Y359000D02*
D03*
D19*
X255250Y107941D02*
D03*
X329750D02*
D03*
D20*
X286250Y139941D02*
D03*
X273750D02*
D03*
X298750D02*
D03*
X311250D02*
D03*
D21*
X559691Y109000D02*
D03*
X439691D02*
D03*
D22*
X537191Y156000D02*
D03*
X522191D02*
D03*
X507191D02*
D03*
X492191D02*
D03*
X477191D02*
D03*
X462191D02*
D03*
D23*
X707500Y207617D02*
D03*
Y190618D02*
D03*
X915000Y207617D02*
D03*
Y190618D02*
D03*
X85000Y50617D02*
D03*
Y67618D02*
D03*
X292500Y50617D02*
D03*
Y67618D02*
D03*
X915000Y50617D02*
D03*
Y67618D02*
D03*
X707500Y50617D02*
D03*
Y67618D02*
D03*
X500000Y50617D02*
D03*
Y67618D02*
D03*
X818000Y366500D02*
D03*
Y349500D02*
D03*
X85000Y330617D02*
D03*
Y347617D02*
D03*
X706000Y330500D02*
D03*
Y313500D02*
D03*
X915000Y330617D02*
D03*
Y347617D02*
D03*
X500000Y330617D02*
D03*
Y347617D02*
D03*
X292500Y330617D02*
D03*
Y347617D02*
D03*
X500000Y190618D02*
D03*
Y207617D02*
D03*
X85000Y190618D02*
D03*
Y207617D02*
D03*
X292500Y190618D02*
D03*
Y207617D02*
D03*
X898121Y136095D02*
D03*
Y119095D02*
D03*
X827121Y156095D02*
D03*
Y173095D02*
D03*
X800121Y278095D02*
D03*
Y295095D02*
D03*
X835591Y119095D02*
D03*
Y136095D02*
D03*
D24*
X842000Y170595D02*
D03*
Y155595D02*
D03*
X842000Y365500D02*
D03*
Y350500D02*
D03*
X857920Y155595D02*
D03*
Y170595D02*
D03*
X897121Y273595D02*
D03*
Y288595D02*
D03*
D25*
X885621Y320595D02*
D03*
X868621D02*
D03*
X882621Y177595D02*
D03*
X899621D02*
D03*
X801621Y260595D02*
D03*
X818621D02*
D03*
X884621Y248595D02*
D03*
X901621D02*
D03*
D26*
X886121Y332595D02*
D03*
X879621D02*
D03*
X873121D02*
D03*
X866621D02*
D03*
X886121Y359845D02*
D03*
X866621D02*
D03*
X879621D02*
D03*
X873121D02*
D03*
D27*
X798150Y332000D02*
D03*
X827850D02*
D03*
X784850Y363000D02*
D03*
X755150D02*
D03*
D28*
X854437Y136994D02*
D03*
Y127596D02*
D03*
Y118198D02*
D03*
X877805D02*
D03*
Y136994D02*
D03*
D29*
X898621Y163595D02*
D03*
X883621D02*
D03*
X840621Y313595D02*
D03*
X825621D02*
D03*
X812621D02*
D03*
X797621D02*
D03*
X901621Y233595D02*
D03*
X886621D02*
D03*
X828621Y283595D02*
D03*
X843621D02*
D03*
X843621Y298595D02*
D03*
X828621D02*
D03*
X719621Y324095D02*
D03*
X734621D02*
D03*
X719621Y339095D02*
D03*
X734621D02*
D03*
X734500Y302000D02*
D03*
X719500D02*
D03*
D30*
X865271Y198595D02*
D03*
Y203595D02*
D03*
Y208595D02*
D03*
Y213595D02*
D03*
Y218595D02*
D03*
Y223595D02*
D03*
Y228595D02*
D03*
Y233595D02*
D03*
Y238595D02*
D03*
X808971D02*
D03*
Y233595D02*
D03*
Y228595D02*
D03*
Y223595D02*
D03*
Y218595D02*
D03*
Y213595D02*
D03*
Y208595D02*
D03*
Y203595D02*
D03*
Y198595D02*
D03*
D31*
X852121Y246745D02*
D03*
X847121D02*
D03*
X842121D02*
D03*
X837121D02*
D03*
X832121D02*
D03*
X827121D02*
D03*
X822121D02*
D03*
X817121D02*
D03*
Y190445D02*
D03*
X822121D02*
D03*
X827121D02*
D03*
X832121D02*
D03*
X837121D02*
D03*
X842121D02*
D03*
X847121D02*
D03*
X852121D02*
D03*
X857121Y246745D02*
D03*
Y190445D02*
D03*
D32*
X837121Y218595D02*
D03*
D33*
X894121Y217595D02*
D03*
Y205595D02*
D03*
Y193595D02*
D03*
D34*
X881871Y275095D02*
D03*
Y290095D02*
D03*
D35*
X748811Y156595D02*
D03*
X721431D02*
D03*
X748811Y181595D02*
D03*
X721431D02*
D03*
D36*
X772121Y205195D02*
D03*
Y255995D02*
D03*
D37*
X726121Y206095D02*
D03*
Y255095D02*
D03*
D38*
X766121Y308095D02*
D03*
D39*
X785171Y283345D02*
D03*
X772471D02*
D03*
X759771D02*
D03*
X747071D02*
D03*
Y332845D02*
D03*
X759771D02*
D03*
X772471D02*
D03*
X785171D02*
D03*
D40*
X734700Y286000D02*
D03*
X719300D02*
D03*
D67*
X1000000Y25000D02*
G03*
X1000000Y25000I-25000J0D01*
G01*
D02*
G03*
X1000000Y25000I-25000J0D01*
G01*
X50000D02*
G03*
X50000Y25000I-25000J0D01*
G01*
Y375000D02*
G03*
X50000Y375000I-25000J0D01*
G01*
X1000000D02*
G03*
X1000000Y375000I-25000J0D01*
G01*
D02*
G03*
X1000000Y375000I-25000J0D01*
G01*
D68*
X876371Y346220D02*
D03*
D69*
X490690Y157500D02*
X492191Y156000D01*
X486000Y174000D02*
Y216000D01*
X490690Y157500D02*
Y169310D01*
X486000Y174000D02*
X490690Y169310D01*
X619000Y349000D02*
X644000D01*
X486000Y216000D02*
X619000Y349000D01*
X347000Y216000D02*
X486000D01*
X380000Y136000D02*
X502900D01*
X353000Y163000D02*
X380000Y136000D01*
X309000Y163000D02*
X353000D01*
X298750Y139941D02*
X298750Y139941D01*
X298750Y139941D02*
Y152750D01*
X309000Y163000D01*
X286250Y155250D02*
X347000Y216000D01*
X286250Y139941D02*
Y155250D01*
X502900Y136000D02*
X507000Y140100D01*
Y155809D01*
X507191Y156000D01*
X292000Y208118D02*
Y215000D01*
Y208118D02*
X292500Y207617D01*
X291500D02*
X292500D01*
X273750Y139941D02*
Y189867D01*
X291500Y207617D01*
X831850Y336000D02*
X857004D01*
X707500Y190618D02*
X723048D01*
X947000Y152000D02*
Y338000D01*
X916000Y369000D02*
X947000Y338000D01*
X109193Y44307D02*
X109500Y44000D01*
X109193Y44307D02*
Y110000D01*
X827850Y332000D02*
Y339650D01*
X818000Y349500D02*
X827850Y339650D01*
X723048Y190618D02*
X724431Y192000D01*
X898121Y119095D02*
Y125922D01*
X827850Y332000D02*
X831850Y336000D01*
X857004D02*
X868645Y347641D01*
X719621Y331595D02*
Y339095D01*
Y324095D02*
Y331595D01*
X718643Y330617D02*
X719621Y331595D01*
X707500Y330617D02*
X718643D01*
X827850Y328150D02*
X840000Y316000D01*
X827850Y328150D02*
Y332000D01*
D70*
X507191Y165440D02*
X644000Y302249D01*
Y317000D01*
X507191Y156000D02*
Y165440D01*
X644000Y318200D02*
Y323000D01*
Y349000D02*
Y349000D01*
X690000Y395000D02*
X790000D01*
X644000Y349000D02*
X690000Y395000D01*
X694475Y386000D02*
X786000D01*
X662000Y353525D02*
X694475Y386000D01*
X662000Y341000D02*
Y353525D01*
X644000Y323000D02*
X662000Y341000D01*
X872785Y346220D02*
X876371D01*
X873121Y342970D02*
X876371Y346220D01*
X838380Y134930D02*
Y137470D01*
X786000Y386000D02*
X798000Y374000D01*
X790000Y395000D02*
X809000Y376000D01*
X808800Y360760D02*
X809000Y360560D01*
X808800Y372240D02*
X809000Y372440D01*
Y357300D02*
Y360560D01*
Y372440D02*
Y376000D01*
X808800Y360760D02*
Y372240D01*
X798000Y364000D02*
Y374000D01*
X887307Y205595D02*
X894121D01*
X854437Y127596D02*
X930404D01*
X807000Y136000D02*
X807095Y136095D01*
X835591D01*
X891000Y136095D02*
X898121D01*
X878704D02*
X891000D01*
X877805Y136994D02*
X878704Y136095D01*
X894121Y205595D02*
X900233D01*
X915046Y190782D01*
X866660Y352345D02*
X872785Y346220D01*
X898621Y163595D02*
X899621Y164595D01*
X868621Y320595D02*
Y322540D01*
X872996Y326915D01*
Y332470D01*
X873121Y332595D01*
X819621Y165595D02*
X827121Y173095D01*
X806621Y165595D02*
X819621D01*
X785621Y278095D02*
X800121D01*
X785121Y278595D02*
X785621Y278095D01*
X785321Y309895D02*
X800121Y295095D01*
X785321Y309895D02*
Y320485D01*
X785171Y320635D02*
X785321Y320485D01*
X772471Y283345D02*
Y301745D01*
X766121Y308095D02*
X772471Y301745D01*
X785171Y320635D02*
Y332845D01*
X881871Y268345D02*
X901621Y248595D01*
X848254Y127596D02*
X854437D01*
X881871Y268345D02*
Y275095D01*
X866621Y359845D02*
X866660Y359806D01*
X873121Y332595D02*
Y342970D01*
X866660Y352345D02*
Y359806D01*
X838380Y137470D02*
X848254Y127596D01*
X837215Y136095D02*
X838380Y134930D01*
X835591Y136095D02*
X837215D01*
D71*
X500000Y207617D02*
Y210935D01*
X500466Y211401D01*
X310000Y109000D02*
X439691D01*
X255250D02*
X310000D01*
X311250Y110250D02*
Y139941D01*
X310000Y109000D02*
X311250Y110250D01*
X255250Y107941D02*
Y109000D01*
X500000Y323000D02*
Y329000D01*
Y347617D02*
Y356000D01*
X72000Y216000D02*
Y343761D01*
Y88757D02*
Y216000D01*
X72097Y215903D01*
X84861D01*
X72000Y343761D02*
X84997Y356758D01*
X72000Y88757D02*
X84962Y75795D01*
X84861Y207756D02*
Y215903D01*
X724000Y363000D02*
X753000D01*
X706000Y330500D02*
Y345000D01*
X724000Y363000D01*
X899621Y164595D02*
Y177595D01*
X915000Y50617D02*
X918617D01*
X753000Y363000D02*
X755150D01*
X529691Y109691D02*
Y156000D01*
X706000Y302000D02*
Y313500D01*
Y218000D02*
Y302000D01*
X706000Y302000D01*
X719500D01*
X706000Y218000D02*
X707000Y217000D01*
X529000Y109000D02*
X559691D01*
X439691D02*
X529000D01*
X529691Y109691D01*
X913000Y78000D02*
X915000Y76000D01*
X913000Y78000D02*
Y107000D01*
X931000Y127000D02*
Y173000D01*
X930404Y127596D02*
X931000Y127000D01*
X951000D01*
X931000Y248000D02*
Y308000D01*
Y173000D02*
Y248000D01*
X901621Y248595D02*
X902216Y248000D01*
X931000D01*
Y63000D02*
Y127000D01*
X914905Y173000D02*
Y190522D01*
Y173000D02*
X931000D01*
X900000D02*
X914905D01*
X915000Y324000D02*
X931000Y308000D01*
X918617Y50617D02*
X931000Y63000D01*
X915000Y207617D02*
Y216000D01*
X915000Y207617D02*
X915000Y207617D01*
X914905Y190522D02*
X915000Y190618D01*
X500000Y75436D02*
X500464Y75900D01*
X500000Y67618D02*
Y75436D01*
X292500Y75294D02*
X292608Y75402D01*
X915000Y67618D02*
Y76000D01*
X838091Y116595D02*
X854581D01*
X776566Y255995D02*
X785000Y264429D01*
Y283174D02*
X785171Y283345D01*
X785000Y264429D02*
Y283174D01*
X707500Y75500D02*
X708243Y76243D01*
X915000Y76000D02*
X915000Y76000D01*
X915000Y50617D02*
X915000Y50617D01*
Y43000D02*
Y50617D01*
X708000Y40100D02*
Y50118D01*
X707500Y50617D02*
X708000Y50118D01*
X707500Y67618D02*
Y75500D01*
X500000Y41100D02*
Y50617D01*
X292000Y39100D02*
X292500Y39600D01*
Y50617D01*
Y67618D02*
Y75294D01*
X84962Y67656D02*
X85000Y67618D01*
X84962Y67656D02*
Y75795D01*
X707000Y217000D02*
X707500Y216500D01*
Y207617D02*
Y216500D01*
X915000Y324000D02*
X915000Y324000D01*
X915000Y324000D02*
Y330617D01*
X292500Y347617D02*
Y347675D01*
X292619Y347795D01*
X729171Y255545D02*
X771671D01*
X728121Y256595D02*
X729171Y255545D01*
X772121Y255995D02*
X776566D01*
X771671Y255545D02*
X772121Y255995D01*
X835591Y119095D02*
X838091Y116595D01*
D72*
X469691Y200298D02*
X469691Y200299D01*
X469691Y156000D02*
Y200298D01*
X662000Y329000D02*
X681000Y348000D01*
X662000Y224000D02*
Y329000D01*
X681000Y348000D02*
Y349000D01*
X708800Y377800D02*
X773400D01*
X681000Y350000D02*
X708800Y377800D01*
X784850Y361850D02*
Y366350D01*
X773400Y377800D02*
X784850Y366350D01*
Y362150D02*
X798150Y348850D01*
Y332000D02*
Y348850D01*
X772471Y349471D02*
X784850Y361850D01*
X772471Y332845D02*
Y349471D01*
X797621Y331471D02*
X798150Y332000D01*
X797621Y313595D02*
Y331471D01*
D73*
X681000Y317058D02*
X694442Y330500D01*
X681000Y317000D02*
Y317058D01*
X694442Y330500D02*
X706000D01*
X724431Y156595D02*
Y192000D01*
X530286Y156595D02*
X721431D01*
X529691Y156000D02*
X530286Y156595D01*
X838091Y116595D02*
X882757Y71929D01*
X913895D01*
X748121Y156595D02*
X785931Y118785D01*
X748811Y156595D02*
Y181595D01*
Y186285D02*
X769121Y206595D01*
X748811Y181595D02*
Y186285D01*
X785931Y118785D02*
X835281D01*
D74*
X898000Y358632D02*
Y359845D01*
X818500Y366500D02*
X830000Y378000D01*
X818000Y366500D02*
X818500D01*
X830000Y378000D02*
X888000D01*
X898000Y359845D02*
Y368000D01*
X891121Y147000D02*
Y152383D01*
Y136216D02*
Y147000D01*
X913000D01*
X898000Y309586D02*
Y358632D01*
Y309586D02*
X906821Y300765D01*
Y286219D02*
Y300765D01*
X841121Y171095D02*
X842121Y172095D01*
X842000Y170000D02*
X842000Y170000D01*
Y170595D01*
X809424Y238645D02*
Y246292D01*
X809374Y238595D02*
X809424Y238645D01*
X808971Y238595D02*
X809374D01*
X801121Y260095D02*
Y260595D01*
X807121Y191700D02*
Y198545D01*
X807171Y198595D01*
X808121D01*
X827121Y156095D02*
X827455Y155761D01*
X769121Y165595D02*
X778955Y155761D01*
X827455D01*
X891121Y152383D02*
Y168549D01*
X875617Y152383D02*
X891121D01*
X865000Y163000D02*
X875617Y152383D01*
X834026Y163000D02*
X865000D01*
X827121Y156095D02*
X834026Y163000D01*
X891000Y136095D02*
X891121Y136216D01*
X883121Y176549D02*
X891121Y168549D01*
X873945Y223595D02*
X878509Y228159D01*
Y242962D01*
X884037Y248489D01*
X884121Y247595D02*
X886871Y244845D01*
X884121Y247595D02*
X888621D01*
X886121Y359845D02*
X896786D01*
X898000Y358632D01*
X888000Y378000D02*
X898000Y368000D01*
X881493Y164095D02*
X883621D01*
X855101Y179000D02*
X866588D01*
X881493Y164095D01*
X852121Y181980D02*
Y188545D01*
Y181980D02*
X855101Y179000D01*
X863595Y284595D02*
X892571Y313571D01*
X858121Y284595D02*
X863595D01*
X892571Y313571D02*
Y327262D01*
X886121Y332595D02*
X887238D01*
X892571Y327262D01*
X781621Y165595D02*
X800572Y184546D01*
X795121Y166595D02*
X805093Y176567D01*
X794121Y166595D02*
X795121D01*
X842121Y172095D02*
Y187595D01*
X867871Y223595D02*
X873945D01*
X867121Y208595D02*
X877121D01*
X801121Y260095D02*
X809121Y252095D01*
X886121Y193595D02*
X894121D01*
X882830Y177804D02*
Y187000D01*
X882621Y177595D02*
X882830Y177804D01*
X901621Y233595D02*
Y234595D01*
X886121Y217595D02*
X894121D01*
X886621Y226267D02*
Y233595D01*
X880938Y220584D02*
X886621Y226267D01*
X880938Y220412D02*
Y220584D01*
X888621Y247595D02*
X901621Y234595D01*
X866871Y203595D02*
X876121D01*
X865271Y198595D02*
X871235D01*
X852121Y246745D02*
Y256331D01*
Y264717D01*
X837171Y265341D02*
X847121Y255391D01*
X852121Y264717D02*
X856999Y269595D01*
X847121Y246345D02*
Y255391D01*
X837171Y265341D02*
Y302217D01*
X809121Y246595D02*
Y252095D01*
X883621Y163595D02*
Y164095D01*
X869871Y213595D02*
X874121D01*
X803099Y208595D02*
X806243D01*
X799315Y218595D02*
X807591D01*
X800572Y206068D02*
X803099Y208595D01*
X795315Y214596D02*
X799315Y218595D01*
X794121Y214596D02*
X795315D01*
X805093Y176567D02*
X807343D01*
X817121Y186345D02*
Y190445D01*
X807343Y176567D02*
X817121Y186345D01*
X800572Y184546D02*
Y206068D01*
X881121Y288595D02*
X897121D01*
X880121Y289595D02*
X881121Y288595D01*
X825793Y313595D02*
X837171Y302217D01*
X871235Y198595D02*
X882830Y187000D01*
X876121Y203595D02*
X886121Y193595D01*
X877121Y208595D02*
X886121Y217595D01*
X874121Y213595D02*
X880938Y220412D01*
D75*
X854182Y136994D02*
X857920Y140732D01*
X877821Y313482D02*
Y319011D01*
X876666Y312327D02*
X877821Y313482D01*
X842000Y155595D02*
X857920D01*
X877821Y319011D02*
X879405Y320595D01*
X879524Y321524D02*
Y332498D01*
X879405Y320595D02*
X885621D01*
X857920Y140732D02*
Y155595D01*
X851897Y136994D02*
X854182D01*
D76*
X874603Y237406D02*
Y265397D01*
X869121Y233595D02*
X870792D01*
X874603Y237406D01*
X863000Y277000D02*
X874603Y265397D01*
X843621Y283595D02*
Y298595D01*
Y283595D02*
X850216Y277000D01*
X863000D01*
D77*
X734621Y304095D02*
Y324095D01*
X747071Y283345D02*
Y291645D01*
X734621Y339095D02*
X746621D01*
X735121Y303595D02*
X747071Y291645D01*
X825121Y313595D02*
X825121Y313595D01*
X812621Y313595D02*
X825121D01*
D78*
X769121Y165595D02*
D03*
X781621D02*
D03*
X794121D02*
D03*
X806621D02*
D03*
D79*
X25000Y25000D02*
D03*
Y375000D02*
D03*
X975000Y25000D02*
D03*
Y375000D02*
D03*
D80*
X987000Y336000D02*
D03*
X980000Y322000D02*
D03*
X987000Y308000D02*
D03*
X980000Y294000D02*
D03*
X987000Y280000D02*
D03*
X980000Y266000D02*
D03*
X987000Y252000D02*
D03*
X980000Y238000D02*
D03*
X987000Y224000D02*
D03*
X980000Y210000D02*
D03*
X987000Y196000D02*
D03*
X980000Y182000D02*
D03*
X987000Y168000D02*
D03*
X980000Y154000D02*
D03*
X987000Y140000D02*
D03*
X980000Y126000D02*
D03*
X987000Y112000D02*
D03*
X980000Y98000D02*
D03*
X987000Y84000D02*
D03*
X980000Y70000D02*
D03*
X987000Y56000D02*
D03*
X973000Y336000D02*
D03*
Y308000D02*
D03*
Y280000D02*
D03*
Y252000D02*
D03*
Y224000D02*
D03*
X966000Y210000D02*
D03*
X973000Y196000D02*
D03*
X966000Y182000D02*
D03*
X973000Y168000D02*
D03*
X966000Y154000D02*
D03*
X973000Y140000D02*
D03*
Y112000D02*
D03*
X966000Y98000D02*
D03*
X973000Y84000D02*
D03*
X966000Y70000D02*
D03*
X959000Y196000D02*
D03*
Y56000D02*
D03*
X945000Y392000D02*
D03*
X938000Y378000D02*
D03*
X945000Y56000D02*
D03*
X938000Y14000D02*
D03*
X931000Y392000D02*
D03*
X924000Y378000D02*
D03*
X931000Y28000D02*
D03*
X924000Y14000D02*
D03*
X917000Y392000D02*
D03*
X910000Y378000D02*
D03*
X917000Y280000D02*
D03*
Y28000D02*
D03*
X910000Y14000D02*
D03*
X903000Y392000D02*
D03*
Y28000D02*
D03*
X896000Y14000D02*
D03*
X889000Y392000D02*
D03*
X882000Y14000D02*
D03*
X868000Y42000D02*
D03*
Y14000D02*
D03*
X854000Y294000D02*
D03*
Y70000D02*
D03*
Y42000D02*
D03*
Y14000D02*
D03*
X847000Y392000D02*
D03*
Y84000D02*
D03*
X840000Y70000D02*
D03*
Y42000D02*
D03*
Y14000D02*
D03*
X833000Y84000D02*
D03*
X826000Y70000D02*
D03*
Y42000D02*
D03*
Y14000D02*
D03*
X819000Y84000D02*
D03*
X812000Y70000D02*
D03*
Y42000D02*
D03*
Y14000D02*
D03*
X805000Y84000D02*
D03*
X798000Y70000D02*
D03*
Y42000D02*
D03*
Y14000D02*
D03*
X791000Y224000D02*
D03*
Y84000D02*
D03*
X784000Y70000D02*
D03*
Y42000D02*
D03*
Y14000D02*
D03*
X777000Y224000D02*
D03*
Y84000D02*
D03*
X770000Y70000D02*
D03*
Y42000D02*
D03*
Y14000D02*
D03*
X756000Y126000D02*
D03*
X763000Y84000D02*
D03*
X756000Y70000D02*
D03*
Y42000D02*
D03*
Y14000D02*
D03*
X742000Y126000D02*
D03*
X749000Y84000D02*
D03*
X742000Y14000D02*
D03*
X735000Y140000D02*
D03*
X728000Y126000D02*
D03*
Y14000D02*
D03*
X721000Y140000D02*
D03*
X714000Y126000D02*
D03*
Y14000D02*
D03*
X707000Y140000D02*
D03*
X700000Y126000D02*
D03*
Y14000D02*
D03*
X686000Y294000D02*
D03*
X693000Y280000D02*
D03*
X686000Y266000D02*
D03*
X693000Y252000D02*
D03*
Y196000D02*
D03*
Y140000D02*
D03*
X686000Y126000D02*
D03*
X693000Y56000D02*
D03*
X686000Y14000D02*
D03*
X672000Y294000D02*
D03*
X679000Y280000D02*
D03*
X672000Y266000D02*
D03*
X679000Y252000D02*
D03*
Y196000D02*
D03*
Y140000D02*
D03*
X672000Y126000D02*
D03*
X679000Y56000D02*
D03*
X672000Y14000D02*
D03*
X665000Y392000D02*
D03*
Y196000D02*
D03*
X658000Y182000D02*
D03*
X665000Y140000D02*
D03*
X658000Y126000D02*
D03*
X665000Y84000D02*
D03*
Y56000D02*
D03*
X658000Y42000D02*
D03*
Y14000D02*
D03*
X651000Y392000D02*
D03*
Y280000D02*
D03*
X644000Y266000D02*
D03*
X651000Y252000D02*
D03*
X644000Y182000D02*
D03*
X651000Y140000D02*
D03*
X644000Y126000D02*
D03*
X651000Y84000D02*
D03*
Y56000D02*
D03*
X644000Y42000D02*
D03*
Y14000D02*
D03*
X637000Y392000D02*
D03*
Y280000D02*
D03*
X630000Y266000D02*
D03*
X637000Y252000D02*
D03*
Y224000D02*
D03*
X630000Y210000D02*
D03*
X637000Y140000D02*
D03*
X630000Y126000D02*
D03*
X637000Y84000D02*
D03*
Y56000D02*
D03*
X630000Y42000D02*
D03*
Y14000D02*
D03*
X623000Y392000D02*
D03*
X616000Y322000D02*
D03*
Y294000D02*
D03*
X623000Y252000D02*
D03*
Y224000D02*
D03*
X616000Y210000D02*
D03*
X623000Y140000D02*
D03*
X616000Y126000D02*
D03*
X623000Y84000D02*
D03*
Y56000D02*
D03*
X616000Y42000D02*
D03*
Y14000D02*
D03*
X609000Y392000D02*
D03*
X602000Y350000D02*
D03*
Y294000D02*
D03*
X609000Y280000D02*
D03*
Y252000D02*
D03*
Y224000D02*
D03*
X602000Y210000D02*
D03*
X609000Y140000D02*
D03*
X602000Y126000D02*
D03*
X609000Y84000D02*
D03*
Y56000D02*
D03*
X602000Y42000D02*
D03*
Y14000D02*
D03*
X595000Y392000D02*
D03*
X588000Y350000D02*
D03*
Y294000D02*
D03*
X595000Y280000D02*
D03*
X588000Y266000D02*
D03*
X595000Y224000D02*
D03*
X588000Y210000D02*
D03*
X595000Y140000D02*
D03*
X588000Y126000D02*
D03*
X595000Y84000D02*
D03*
Y56000D02*
D03*
X588000Y42000D02*
D03*
Y14000D02*
D03*
X581000Y392000D02*
D03*
X574000Y350000D02*
D03*
Y322000D02*
D03*
X581000Y280000D02*
D03*
X574000Y266000D02*
D03*
X581000Y252000D02*
D03*
Y224000D02*
D03*
X574000Y210000D02*
D03*
X581000Y140000D02*
D03*
Y84000D02*
D03*
Y56000D02*
D03*
X574000Y42000D02*
D03*
Y14000D02*
D03*
X567000Y392000D02*
D03*
X560000Y350000D02*
D03*
Y322000D02*
D03*
X567000Y280000D02*
D03*
X560000Y266000D02*
D03*
X567000Y252000D02*
D03*
Y140000D02*
D03*
Y56000D02*
D03*
X560000Y42000D02*
D03*
Y14000D02*
D03*
X553000Y392000D02*
D03*
X546000Y350000D02*
D03*
Y322000D02*
D03*
Y294000D02*
D03*
X553000Y252000D02*
D03*
Y224000D02*
D03*
Y140000D02*
D03*
Y56000D02*
D03*
X546000Y42000D02*
D03*
Y14000D02*
D03*
X539000Y392000D02*
D03*
X532000Y294000D02*
D03*
X539000Y252000D02*
D03*
Y224000D02*
D03*
Y84000D02*
D03*
Y56000D02*
D03*
X532000Y14000D02*
D03*
X525000Y392000D02*
D03*
X518000Y294000D02*
D03*
X525000Y280000D02*
D03*
X518000Y266000D02*
D03*
Y126000D02*
D03*
X525000Y56000D02*
D03*
X518000Y14000D02*
D03*
X511000Y392000D02*
D03*
X504000Y294000D02*
D03*
X511000Y280000D02*
D03*
X504000Y266000D02*
D03*
Y126000D02*
D03*
Y14000D02*
D03*
X497000Y392000D02*
D03*
X490000Y294000D02*
D03*
X497000Y280000D02*
D03*
X490000Y266000D02*
D03*
X497000Y252000D02*
D03*
X490000Y126000D02*
D03*
Y14000D02*
D03*
X483000Y392000D02*
D03*
X476000Y294000D02*
D03*
X483000Y280000D02*
D03*
X476000Y266000D02*
D03*
X483000Y252000D02*
D03*
X476000Y126000D02*
D03*
Y14000D02*
D03*
X469000Y392000D02*
D03*
Y336000D02*
D03*
X462000Y294000D02*
D03*
X469000Y280000D02*
D03*
X462000Y266000D02*
D03*
X469000Y252000D02*
D03*
X462000Y126000D02*
D03*
Y70000D02*
D03*
Y14000D02*
D03*
X455000Y392000D02*
D03*
Y336000D02*
D03*
X448000Y322000D02*
D03*
Y294000D02*
D03*
X455000Y280000D02*
D03*
X448000Y266000D02*
D03*
X455000Y252000D02*
D03*
Y196000D02*
D03*
X448000Y182000D02*
D03*
X455000Y84000D02*
D03*
X448000Y70000D02*
D03*
Y42000D02*
D03*
Y14000D02*
D03*
X441000Y392000D02*
D03*
Y336000D02*
D03*
X434000Y322000D02*
D03*
Y294000D02*
D03*
X441000Y280000D02*
D03*
X434000Y266000D02*
D03*
X441000Y252000D02*
D03*
Y196000D02*
D03*
X434000Y182000D02*
D03*
Y70000D02*
D03*
Y42000D02*
D03*
Y14000D02*
D03*
X427000Y392000D02*
D03*
Y336000D02*
D03*
X420000Y322000D02*
D03*
Y294000D02*
D03*
X427000Y280000D02*
D03*
X420000Y266000D02*
D03*
X427000Y252000D02*
D03*
Y196000D02*
D03*
X420000Y182000D02*
D03*
Y126000D02*
D03*
X427000Y84000D02*
D03*
X420000Y70000D02*
D03*
Y42000D02*
D03*
Y14000D02*
D03*
X413000Y392000D02*
D03*
Y336000D02*
D03*
X406000Y322000D02*
D03*
Y294000D02*
D03*
X413000Y280000D02*
D03*
X406000Y266000D02*
D03*
X413000Y252000D02*
D03*
Y196000D02*
D03*
X406000Y182000D02*
D03*
Y126000D02*
D03*
X413000Y84000D02*
D03*
X406000Y70000D02*
D03*
Y42000D02*
D03*
Y14000D02*
D03*
X399000Y392000D02*
D03*
Y336000D02*
D03*
X392000Y322000D02*
D03*
Y294000D02*
D03*
X399000Y280000D02*
D03*
X392000Y266000D02*
D03*
X399000Y252000D02*
D03*
Y196000D02*
D03*
X392000Y182000D02*
D03*
Y126000D02*
D03*
X399000Y84000D02*
D03*
X392000Y70000D02*
D03*
Y42000D02*
D03*
Y14000D02*
D03*
X385000Y392000D02*
D03*
Y336000D02*
D03*
X378000Y322000D02*
D03*
Y294000D02*
D03*
X385000Y280000D02*
D03*
X378000Y266000D02*
D03*
X385000Y252000D02*
D03*
Y196000D02*
D03*
X378000Y182000D02*
D03*
Y126000D02*
D03*
X385000Y84000D02*
D03*
X378000Y70000D02*
D03*
Y42000D02*
D03*
Y14000D02*
D03*
X371000Y392000D02*
D03*
Y336000D02*
D03*
X364000Y322000D02*
D03*
Y294000D02*
D03*
X371000Y280000D02*
D03*
X364000Y266000D02*
D03*
X371000Y252000D02*
D03*
Y196000D02*
D03*
X364000Y182000D02*
D03*
Y126000D02*
D03*
X371000Y84000D02*
D03*
X364000Y70000D02*
D03*
Y42000D02*
D03*
Y14000D02*
D03*
X357000Y392000D02*
D03*
Y336000D02*
D03*
X350000Y322000D02*
D03*
Y294000D02*
D03*
X357000Y280000D02*
D03*
X350000Y266000D02*
D03*
X357000Y252000D02*
D03*
Y196000D02*
D03*
X350000Y182000D02*
D03*
X357000Y140000D02*
D03*
X350000Y126000D02*
D03*
X357000Y84000D02*
D03*
X350000Y70000D02*
D03*
Y42000D02*
D03*
Y14000D02*
D03*
X343000Y392000D02*
D03*
Y336000D02*
D03*
X336000Y322000D02*
D03*
Y294000D02*
D03*
X343000Y280000D02*
D03*
X336000Y266000D02*
D03*
X343000Y252000D02*
D03*
Y224000D02*
D03*
Y196000D02*
D03*
X336000Y182000D02*
D03*
X343000Y140000D02*
D03*
Y84000D02*
D03*
X336000Y70000D02*
D03*
Y42000D02*
D03*
Y14000D02*
D03*
X329000Y392000D02*
D03*
Y336000D02*
D03*
X322000Y294000D02*
D03*
X329000Y280000D02*
D03*
X322000Y266000D02*
D03*
X329000Y252000D02*
D03*
Y140000D02*
D03*
Y84000D02*
D03*
X322000Y14000D02*
D03*
X315000Y392000D02*
D03*
X308000Y294000D02*
D03*
X315000Y280000D02*
D03*
X308000Y266000D02*
D03*
X315000Y252000D02*
D03*
X308000Y14000D02*
D03*
X301000Y392000D02*
D03*
X294000Y294000D02*
D03*
X301000Y280000D02*
D03*
X294000Y266000D02*
D03*
X301000Y252000D02*
D03*
X294000Y126000D02*
D03*
Y14000D02*
D03*
X287000Y392000D02*
D03*
X280000Y294000D02*
D03*
X287000Y280000D02*
D03*
X280000Y266000D02*
D03*
X287000Y252000D02*
D03*
X280000Y126000D02*
D03*
Y14000D02*
D03*
X273000Y392000D02*
D03*
X266000Y294000D02*
D03*
X273000Y280000D02*
D03*
X266000Y266000D02*
D03*
X273000Y252000D02*
D03*
X266000Y126000D02*
D03*
Y14000D02*
D03*
X259000Y392000D02*
D03*
Y336000D02*
D03*
X252000Y322000D02*
D03*
Y294000D02*
D03*
X259000Y280000D02*
D03*
X252000Y266000D02*
D03*
X259000Y252000D02*
D03*
Y196000D02*
D03*
X252000Y182000D02*
D03*
X259000Y140000D02*
D03*
X252000Y70000D02*
D03*
Y42000D02*
D03*
Y14000D02*
D03*
X245000Y392000D02*
D03*
Y336000D02*
D03*
X238000Y322000D02*
D03*
Y294000D02*
D03*
X245000Y280000D02*
D03*
X238000Y266000D02*
D03*
X245000Y252000D02*
D03*
Y224000D02*
D03*
Y196000D02*
D03*
X238000Y182000D02*
D03*
X245000Y140000D02*
D03*
X238000Y126000D02*
D03*
X245000Y84000D02*
D03*
X238000Y70000D02*
D03*
Y42000D02*
D03*
Y14000D02*
D03*
X231000Y392000D02*
D03*
Y336000D02*
D03*
X224000Y322000D02*
D03*
Y294000D02*
D03*
X231000Y280000D02*
D03*
X224000Y266000D02*
D03*
X231000Y252000D02*
D03*
Y224000D02*
D03*
Y196000D02*
D03*
X224000Y182000D02*
D03*
X231000Y140000D02*
D03*
X224000Y126000D02*
D03*
X231000Y84000D02*
D03*
X224000Y70000D02*
D03*
Y42000D02*
D03*
Y14000D02*
D03*
X217000Y392000D02*
D03*
Y336000D02*
D03*
X210000Y322000D02*
D03*
Y294000D02*
D03*
X217000Y280000D02*
D03*
X210000Y266000D02*
D03*
X217000Y252000D02*
D03*
Y224000D02*
D03*
Y196000D02*
D03*
X210000Y182000D02*
D03*
X217000Y140000D02*
D03*
X210000Y126000D02*
D03*
X217000Y84000D02*
D03*
X210000Y70000D02*
D03*
Y42000D02*
D03*
Y14000D02*
D03*
X203000Y392000D02*
D03*
Y336000D02*
D03*
X196000Y322000D02*
D03*
Y294000D02*
D03*
X203000Y280000D02*
D03*
X196000Y266000D02*
D03*
X203000Y252000D02*
D03*
Y224000D02*
D03*
Y196000D02*
D03*
X196000Y182000D02*
D03*
X203000Y140000D02*
D03*
X196000Y126000D02*
D03*
X203000Y84000D02*
D03*
X196000Y70000D02*
D03*
Y42000D02*
D03*
Y14000D02*
D03*
X189000Y392000D02*
D03*
Y336000D02*
D03*
X182000Y322000D02*
D03*
Y294000D02*
D03*
X189000Y280000D02*
D03*
X182000Y266000D02*
D03*
X189000Y252000D02*
D03*
Y224000D02*
D03*
Y196000D02*
D03*
X182000Y182000D02*
D03*
X189000Y140000D02*
D03*
X182000Y126000D02*
D03*
X189000Y84000D02*
D03*
X182000Y70000D02*
D03*
Y42000D02*
D03*
Y14000D02*
D03*
X175000Y392000D02*
D03*
Y336000D02*
D03*
X168000Y322000D02*
D03*
Y294000D02*
D03*
X175000Y280000D02*
D03*
X168000Y266000D02*
D03*
X175000Y252000D02*
D03*
Y224000D02*
D03*
Y196000D02*
D03*
X168000Y182000D02*
D03*
X175000Y140000D02*
D03*
X168000Y126000D02*
D03*
X175000Y84000D02*
D03*
X168000Y70000D02*
D03*
Y42000D02*
D03*
Y14000D02*
D03*
X161000Y392000D02*
D03*
Y336000D02*
D03*
X154000Y322000D02*
D03*
Y294000D02*
D03*
X161000Y280000D02*
D03*
X154000Y266000D02*
D03*
X161000Y252000D02*
D03*
Y224000D02*
D03*
Y196000D02*
D03*
X154000Y182000D02*
D03*
X161000Y140000D02*
D03*
X154000Y126000D02*
D03*
X161000Y84000D02*
D03*
X154000Y70000D02*
D03*
Y42000D02*
D03*
Y14000D02*
D03*
X147000Y392000D02*
D03*
Y336000D02*
D03*
X140000Y294000D02*
D03*
X147000Y280000D02*
D03*
X140000Y266000D02*
D03*
X147000Y252000D02*
D03*
Y224000D02*
D03*
Y196000D02*
D03*
X140000Y182000D02*
D03*
X147000Y140000D02*
D03*
X140000Y126000D02*
D03*
X147000Y84000D02*
D03*
X140000Y70000D02*
D03*
Y42000D02*
D03*
Y14000D02*
D03*
X133000Y392000D02*
D03*
X126000Y322000D02*
D03*
X133000Y308000D02*
D03*
X126000Y294000D02*
D03*
X133000Y280000D02*
D03*
X126000Y266000D02*
D03*
X133000Y252000D02*
D03*
Y196000D02*
D03*
X126000Y182000D02*
D03*
X133000Y140000D02*
D03*
X126000Y126000D02*
D03*
X133000Y84000D02*
D03*
X126000Y70000D02*
D03*
Y42000D02*
D03*
Y14000D02*
D03*
X119000Y392000D02*
D03*
X112000Y378000D02*
D03*
X119000Y308000D02*
D03*
X112000Y294000D02*
D03*
X119000Y280000D02*
D03*
X112000Y266000D02*
D03*
X119000Y252000D02*
D03*
X112000Y238000D02*
D03*
X119000Y140000D02*
D03*
X112000Y126000D02*
D03*
Y14000D02*
D03*
X105000Y392000D02*
D03*
X98000Y378000D02*
D03*
X105000Y308000D02*
D03*
X98000Y294000D02*
D03*
X105000Y280000D02*
D03*
X98000Y266000D02*
D03*
X105000Y252000D02*
D03*
X98000Y238000D02*
D03*
X105000Y196000D02*
D03*
Y140000D02*
D03*
X98000Y126000D02*
D03*
Y98000D02*
D03*
Y14000D02*
D03*
X91000Y392000D02*
D03*
X84000Y378000D02*
D03*
X91000Y280000D02*
D03*
X84000Y266000D02*
D03*
X91000Y252000D02*
D03*
X84000Y238000D02*
D03*
X91000Y140000D02*
D03*
X84000Y126000D02*
D03*
X91000Y112000D02*
D03*
X84000Y98000D02*
D03*
Y14000D02*
D03*
X77000Y392000D02*
D03*
X70000Y378000D02*
D03*
Y14000D02*
D03*
X63000Y392000D02*
D03*
X56000Y378000D02*
D03*
Y294000D02*
D03*
Y154000D02*
D03*
Y126000D02*
D03*
Y98000D02*
D03*
X63000Y56000D02*
D03*
X56000Y14000D02*
D03*
X49000Y336000D02*
D03*
X42000Y322000D02*
D03*
X49000Y308000D02*
D03*
X42000Y294000D02*
D03*
X49000Y280000D02*
D03*
X42000Y266000D02*
D03*
X49000Y252000D02*
D03*
X42000Y238000D02*
D03*
Y210000D02*
D03*
X49000Y196000D02*
D03*
X42000Y182000D02*
D03*
X49000Y168000D02*
D03*
X42000Y154000D02*
D03*
X49000Y140000D02*
D03*
X42000Y126000D02*
D03*
X49000Y112000D02*
D03*
X42000Y98000D02*
D03*
Y70000D02*
D03*
X49000Y56000D02*
D03*
X35000Y336000D02*
D03*
X28000Y322000D02*
D03*
X35000Y308000D02*
D03*
X28000Y294000D02*
D03*
X35000Y280000D02*
D03*
X28000Y266000D02*
D03*
X35000Y252000D02*
D03*
X28000Y238000D02*
D03*
X35000Y224000D02*
D03*
X28000Y210000D02*
D03*
X35000Y196000D02*
D03*
X28000Y182000D02*
D03*
X35000Y168000D02*
D03*
X28000Y154000D02*
D03*
X35000Y140000D02*
D03*
X28000Y126000D02*
D03*
X35000Y112000D02*
D03*
X28000Y98000D02*
D03*
X35000Y84000D02*
D03*
X28000Y70000D02*
D03*
X35000Y56000D02*
D03*
X21000Y336000D02*
D03*
X14000Y322000D02*
D03*
X21000Y308000D02*
D03*
X14000Y294000D02*
D03*
X21000Y280000D02*
D03*
X14000Y266000D02*
D03*
X21000Y252000D02*
D03*
X14000Y238000D02*
D03*
X21000Y224000D02*
D03*
X14000Y210000D02*
D03*
X21000Y196000D02*
D03*
X14000Y182000D02*
D03*
X21000Y168000D02*
D03*
X14000Y154000D02*
D03*
X21000Y140000D02*
D03*
X14000Y126000D02*
D03*
X21000Y112000D02*
D03*
X14000Y98000D02*
D03*
X21000Y84000D02*
D03*
X14000Y70000D02*
D03*
X21000Y56000D02*
D03*
X500466Y211401D02*
D03*
X500503Y184641D02*
D03*
X469691Y200299D02*
D03*
X500000Y356000D02*
D03*
X84902Y43527D02*
D03*
X84789Y323865D02*
D03*
X85063Y184062D02*
D03*
X662000Y224000D02*
D03*
X809000Y357300D02*
D03*
X798000Y364000D02*
D03*
X947000Y152000D02*
D03*
X915000Y216000D02*
D03*
X831411Y364700D02*
D03*
X807000Y136000D02*
D03*
X500464Y75900D02*
D03*
X292608Y75402D02*
D03*
X829121Y298595D02*
D03*
X292500Y324195D02*
D03*
X708243Y76243D02*
D03*
X915000Y76000D02*
D03*
Y43000D02*
D03*
X708000Y40100D02*
D03*
X500000Y41100D02*
D03*
X292000Y39100D02*
D03*
X84962Y75795D02*
D03*
X84861Y215903D02*
D03*
X292000Y215000D02*
D03*
Y184000D02*
D03*
X707000Y217000D02*
D03*
X900000Y173000D02*
D03*
X915000Y324000D02*
D03*
Y354000D02*
D03*
X500000Y323000D02*
D03*
X84997Y356758D02*
D03*
X292619Y354795D02*
D03*
X109500Y44000D02*
D03*
X109193Y110000D02*
D03*
X842000Y170000D02*
D03*
X857920Y170595D02*
D03*
X916000Y369000D02*
D03*
X809424Y246292D02*
D03*
X906821Y286219D02*
D03*
X809121Y191700D02*
D03*
X863121Y295595D02*
D03*
X876666Y312327D02*
D03*
X883121Y173800D02*
D03*
X884121Y248595D02*
D03*
X794121Y214596D02*
D03*
Y205595D02*
D03*
X766121Y213595D02*
D03*
X856999Y269595D02*
D03*
X897121Y273595D02*
D03*
X858121Y284595D02*
D03*
X854581Y116595D02*
D03*
X854182Y136994D02*
D03*
D81*
X753000Y363000D02*
D03*
X841000Y333000D02*
D03*
X876000Y346000D02*
D03*
X826000Y229000D02*
D03*
X848000D02*
D03*
X837000Y219000D02*
D03*
X826000Y208000D02*
D03*
X848000D02*
D03*
X721431Y156595D02*
D03*
X766121Y308095D02*
D03*
M02*
