G04*
G04 #@! TF.GenerationSoftware,Altium Limited,Altium Designer,21.4.1 (30)*
G04*
G04 Layer_Color=8388736*
%FSLAX44Y44*%
%MOMM*%
G71*
G04*
G04 #@! TF.SameCoordinates,2D50AE42-1DF2-48DA-B060-BAF50E4618A4*
G04*
G04*
G04 #@! TF.FilePolarity,Negative*
G04*
G01*
G75*
%ADD41C,2.2032*%
%ADD42R,1.2032X2.9032*%
%ADD43R,0.8032X1.9032*%
%ADD44R,2.0032X4.0032*%
%ADD45R,1.2032X2.9032*%
%ADD46R,1.2032X1.0032*%
%ADD47R,1.1032X0.9032*%
%ADD48R,1.0032X1.2032*%
%ADD49R,2.6532X1.8532*%
%ADD50R,0.5032X0.7282*%
%ADD51R,1.3532X2.0232*%
%ADD52R,1.5240X0.7620*%
%ADD53R,0.9032X1.1032*%
%ADD54R,1.2832X0.4632*%
%ADD55R,0.4632X1.2832*%
%ADD56R,3.9032X3.9032*%
%ADD57R,2.2032X0.6032*%
%ADD58R,1.0032X1.0032*%
%ADD59R,1.5832X2.0232*%
%ADD60R,2.9972X2.1082*%
%ADD61R,2.5032X2.4032*%
%ADD62R,3.2032X2.3332*%
%ADD63R,0.8032X2.1732*%
%ADD64R,1.0932X1.1332*%
%ADD65C,1.1032*%
%ADD66C,4.2032*%
D41*
X644000Y349000D02*
D03*
X681000Y317000D02*
D03*
X644000D02*
D03*
X913000Y147000D02*
D03*
X681000Y349000D02*
D03*
X951000Y127000D02*
D03*
X913000Y107000D02*
D03*
X122000Y110000D02*
D03*
X934000Y359000D02*
D03*
D42*
X255250Y107941D02*
D03*
X329750D02*
D03*
D43*
X286250Y139941D02*
D03*
X273750D02*
D03*
X298750D02*
D03*
X311250D02*
D03*
D44*
X559691Y109000D02*
D03*
X439691D02*
D03*
D45*
X537191Y156000D02*
D03*
X522191D02*
D03*
X507191D02*
D03*
X492191D02*
D03*
X477191D02*
D03*
X462191D02*
D03*
D46*
X707500Y207617D02*
D03*
Y190618D02*
D03*
X915000Y207617D02*
D03*
Y190618D02*
D03*
X85000Y50617D02*
D03*
Y67618D02*
D03*
X292500Y50617D02*
D03*
Y67618D02*
D03*
X915000Y50617D02*
D03*
Y67618D02*
D03*
X707500Y50617D02*
D03*
Y67618D02*
D03*
X500000Y50617D02*
D03*
Y67618D02*
D03*
X818000Y366500D02*
D03*
Y349500D02*
D03*
X85000Y330617D02*
D03*
Y347617D02*
D03*
X706000Y330500D02*
D03*
Y313500D02*
D03*
X915000Y330617D02*
D03*
Y347617D02*
D03*
X500000Y330617D02*
D03*
Y347617D02*
D03*
X292500Y330617D02*
D03*
Y347617D02*
D03*
X500000Y190618D02*
D03*
Y207617D02*
D03*
X85000Y190618D02*
D03*
Y207617D02*
D03*
X292500Y190618D02*
D03*
Y207617D02*
D03*
X898121Y136095D02*
D03*
Y119095D02*
D03*
X827121Y156095D02*
D03*
Y173095D02*
D03*
X800121Y278095D02*
D03*
Y295095D02*
D03*
X835591Y119095D02*
D03*
Y136095D02*
D03*
D47*
X842000Y170595D02*
D03*
Y155595D02*
D03*
X842000Y365500D02*
D03*
Y350500D02*
D03*
X857920Y155595D02*
D03*
Y170595D02*
D03*
X897121Y273595D02*
D03*
Y288595D02*
D03*
D48*
X885621Y320595D02*
D03*
X868621D02*
D03*
X882621Y177595D02*
D03*
X899621D02*
D03*
X801621Y260595D02*
D03*
X818621D02*
D03*
X884621Y248595D02*
D03*
X901621D02*
D03*
D49*
X876371Y346220D02*
D03*
D50*
X886121Y332595D02*
D03*
X879621D02*
D03*
X873121D02*
D03*
X866621D02*
D03*
X886121Y359845D02*
D03*
X866621D02*
D03*
X879621D02*
D03*
X873121D02*
D03*
D51*
X798150Y332000D02*
D03*
X827850D02*
D03*
X784850Y363000D02*
D03*
X755150D02*
D03*
D52*
X854437Y136994D02*
D03*
Y127596D02*
D03*
Y118198D02*
D03*
X877805D02*
D03*
Y136994D02*
D03*
D53*
X898621Y163595D02*
D03*
X883621D02*
D03*
X840621Y313595D02*
D03*
X825621D02*
D03*
X812621D02*
D03*
X797621D02*
D03*
X901621Y233595D02*
D03*
X886621D02*
D03*
X828621Y283595D02*
D03*
X843621D02*
D03*
X843621Y298595D02*
D03*
X828621D02*
D03*
X719621Y324095D02*
D03*
X734621D02*
D03*
X719621Y339095D02*
D03*
X734621D02*
D03*
X734500Y302000D02*
D03*
X719500D02*
D03*
D54*
X865271Y198595D02*
D03*
Y203595D02*
D03*
Y208595D02*
D03*
Y213595D02*
D03*
Y218595D02*
D03*
Y223595D02*
D03*
Y228595D02*
D03*
Y233595D02*
D03*
Y238595D02*
D03*
X808971D02*
D03*
Y233595D02*
D03*
Y228595D02*
D03*
Y223595D02*
D03*
Y218595D02*
D03*
Y213595D02*
D03*
Y208595D02*
D03*
Y203595D02*
D03*
Y198595D02*
D03*
D55*
X852121Y246745D02*
D03*
X847121D02*
D03*
X842121D02*
D03*
X837121D02*
D03*
X832121D02*
D03*
X827121D02*
D03*
X822121D02*
D03*
X817121D02*
D03*
Y190445D02*
D03*
X822121D02*
D03*
X827121D02*
D03*
X832121D02*
D03*
X837121D02*
D03*
X842121D02*
D03*
X847121D02*
D03*
X852121D02*
D03*
X857121Y246745D02*
D03*
Y190445D02*
D03*
D56*
X837121Y218595D02*
D03*
D57*
X894121Y217595D02*
D03*
Y205595D02*
D03*
Y193595D02*
D03*
D58*
X881871Y275095D02*
D03*
Y290095D02*
D03*
D59*
X748811Y156595D02*
D03*
X721431D02*
D03*
X748811Y181595D02*
D03*
X721431D02*
D03*
D60*
X772121Y205195D02*
D03*
Y255995D02*
D03*
D61*
X726121Y206095D02*
D03*
Y255095D02*
D03*
D62*
X766121Y308095D02*
D03*
D63*
X785171Y283345D02*
D03*
X772471D02*
D03*
X759771D02*
D03*
X747071D02*
D03*
Y332845D02*
D03*
X759771D02*
D03*
X772471D02*
D03*
X785171D02*
D03*
D64*
X734700Y286000D02*
D03*
X719300D02*
D03*
D65*
X769121Y165595D02*
D03*
X781621D02*
D03*
X794121D02*
D03*
X806621D02*
D03*
D66*
X25000Y25000D02*
D03*
Y375000D02*
D03*
X975000Y25000D02*
D03*
Y375000D02*
D03*
M02*
