G04*
G04 #@! TF.GenerationSoftware,Altium Limited,Altium Designer,21.4.1 (30)*
G04*
G04 Layer_Color=32768*
%FSLAX44Y44*%
%MOMM*%
G71*
G04*
G04 #@! TF.SameCoordinates,F4D517AC-81A7-4DE1-850E-9184CA7E4459*
G04*
G04*
G04 #@! TF.FilePolarity,Positive*
G04*
G01*
G75*
%ADD11C,0.2000*%
G36*
X1052075Y492291D02*
X1052149Y492282D01*
X1052232Y492272D01*
X1052334Y492263D01*
X1052436Y492235D01*
X1052667Y492180D01*
X1052898Y492097D01*
X1053018Y492041D01*
X1053138Y491977D01*
X1053249Y491903D01*
X1053360Y491819D01*
X1053369Y491810D01*
X1053388Y491801D01*
X1053406Y491764D01*
X1053443Y491727D01*
X1053490Y491681D01*
X1053536Y491625D01*
X1053591Y491551D01*
X1053637Y491468D01*
X1053693Y491385D01*
X1053748Y491283D01*
X1053850Y491061D01*
X1053933Y490802D01*
X1053961Y490664D01*
X1053979Y490516D01*
X1053157Y490451D01*
Y490460D01*
Y490479D01*
X1053147Y490506D01*
X1053138Y490553D01*
X1053110Y490654D01*
X1053073Y490793D01*
X1053018Y490932D01*
X1052944Y491089D01*
X1052851Y491228D01*
X1052741Y491357D01*
X1052722Y491366D01*
X1052685Y491403D01*
X1052611Y491450D01*
X1052509Y491505D01*
X1052399Y491560D01*
X1052260Y491607D01*
X1052103Y491644D01*
X1051927Y491653D01*
X1051871D01*
X1051834Y491644D01*
X1051724Y491634D01*
X1051594Y491597D01*
X1051437Y491551D01*
X1051280Y491477D01*
X1051113Y491366D01*
X1051039Y491302D01*
X1050965Y491228D01*
X1050956Y491218D01*
X1050947Y491209D01*
X1050928Y491181D01*
X1050901Y491154D01*
X1050836Y491052D01*
X1050762Y490923D01*
X1050697Y490765D01*
X1050633Y490571D01*
X1050586Y490340D01*
X1050568Y490220D01*
Y490090D01*
Y490081D01*
Y490063D01*
Y490026D01*
X1050577Y489979D01*
Y489924D01*
X1050586Y489859D01*
X1050614Y489711D01*
X1050660Y489536D01*
X1050725Y489360D01*
X1050817Y489194D01*
X1050947Y489036D01*
Y489027D01*
X1050965Y489018D01*
X1051012Y488972D01*
X1051095Y488907D01*
X1051206Y488833D01*
X1051354Y488768D01*
X1051520Y488703D01*
X1051714Y488657D01*
X1051825Y488639D01*
X1052001D01*
X1052075Y488648D01*
X1052167Y488657D01*
X1052278Y488685D01*
X1052389Y488713D01*
X1052509Y488759D01*
X1052630Y488815D01*
X1052639Y488824D01*
X1052676Y488842D01*
X1052731Y488889D01*
X1052805Y488935D01*
X1052879Y488999D01*
X1052953Y489083D01*
X1053036Y489166D01*
X1053101Y489268D01*
X1053841Y489166D01*
X1053221Y485874D01*
X1050041D01*
Y486623D01*
X1052602D01*
X1052944Y488352D01*
X1052935Y488343D01*
X1052916Y488334D01*
X1052888Y488315D01*
X1052842Y488288D01*
X1052787Y488260D01*
X1052722Y488223D01*
X1052574Y488149D01*
X1052389Y488075D01*
X1052186Y488010D01*
X1051964Y487964D01*
X1051853Y487945D01*
X1051650D01*
X1051594Y487955D01*
X1051520Y487964D01*
X1051437Y487973D01*
X1051345Y487992D01*
X1051243Y488019D01*
X1051021Y488084D01*
X1050901Y488130D01*
X1050780Y488195D01*
X1050660Y488260D01*
X1050540Y488334D01*
X1050429Y488426D01*
X1050318Y488528D01*
X1050309Y488537D01*
X1050291Y488556D01*
X1050263Y488583D01*
X1050226Y488630D01*
X1050180Y488694D01*
X1050133Y488759D01*
X1050078Y488842D01*
X1050022Y488935D01*
X1049976Y489036D01*
X1049921Y489147D01*
X1049874Y489277D01*
X1049828Y489406D01*
X1049791Y489545D01*
X1049763Y489702D01*
X1049745Y489859D01*
X1049736Y490026D01*
Y490035D01*
Y490063D01*
Y490109D01*
X1049745Y490174D01*
X1049754Y490248D01*
X1049763Y490331D01*
X1049782Y490433D01*
X1049800Y490534D01*
X1049856Y490775D01*
X1049948Y491024D01*
X1050004Y491154D01*
X1050078Y491274D01*
X1050152Y491403D01*
X1050244Y491524D01*
X1050254Y491533D01*
X1050272Y491560D01*
X1050309Y491597D01*
X1050355Y491644D01*
X1050420Y491699D01*
X1050494Y491773D01*
X1050586Y491838D01*
X1050688Y491912D01*
X1050799Y491986D01*
X1050928Y492051D01*
X1051067Y492115D01*
X1051215Y492180D01*
X1051372Y492226D01*
X1051548Y492263D01*
X1051733Y492291D01*
X1051927Y492300D01*
X1052010D01*
X1052075Y492291D01*
D02*
G37*
G36*
X1057724D02*
X1057798D01*
X1057890Y492282D01*
X1057992Y492272D01*
X1058094Y492263D01*
X1058325Y492226D01*
X1058575Y492171D01*
X1058815Y492097D01*
X1059046Y491995D01*
X1059055D01*
X1059074Y491977D01*
X1059101Y491958D01*
X1059138Y491940D01*
X1059240Y491866D01*
X1059360Y491764D01*
X1059499Y491634D01*
X1059629Y491487D01*
X1059758Y491302D01*
X1059860Y491098D01*
Y491089D01*
X1059869Y491070D01*
X1059878Y491033D01*
X1059897Y490987D01*
X1059915Y490932D01*
X1059934Y490858D01*
X1059961Y490775D01*
X1059980Y490673D01*
X1059998Y490562D01*
X1060026Y490442D01*
X1060045Y490312D01*
X1060063Y490174D01*
X1060082Y490016D01*
X1060091Y489850D01*
X1060100Y489674D01*
Y489489D01*
Y485791D01*
X1059249D01*
Y489489D01*
Y489499D01*
Y489526D01*
Y489573D01*
Y489628D01*
X1059240Y489693D01*
Y489776D01*
X1059231Y489952D01*
X1059212Y490155D01*
X1059185Y490359D01*
X1059148Y490553D01*
X1059129Y490636D01*
X1059101Y490719D01*
X1059092Y490738D01*
X1059074Y490784D01*
X1059028Y490849D01*
X1058972Y490941D01*
X1058907Y491033D01*
X1058815Y491135D01*
X1058704Y491237D01*
X1058575Y491320D01*
X1058556Y491329D01*
X1058510Y491357D01*
X1058427Y491385D01*
X1058316Y491422D01*
X1058186Y491468D01*
X1058020Y491496D01*
X1057844Y491524D01*
X1057650Y491533D01*
X1057558D01*
X1057502Y491524D01*
X1057419D01*
X1057336Y491514D01*
X1057132Y491477D01*
X1056910Y491431D01*
X1056698Y491357D01*
X1056494Y491255D01*
X1056402Y491191D01*
X1056319Y491117D01*
X1056309Y491107D01*
X1056300Y491098D01*
X1056282Y491070D01*
X1056254Y491033D01*
X1056226Y490978D01*
X1056189Y490923D01*
X1056152Y490839D01*
X1056115Y490756D01*
X1056078Y490654D01*
X1056050Y490534D01*
X1056013Y490396D01*
X1055986Y490248D01*
X1055958Y490081D01*
X1055939Y489906D01*
X1055921Y489702D01*
Y489489D01*
Y485791D01*
X1055070D01*
Y489489D01*
Y489499D01*
Y489536D01*
Y489582D01*
Y489647D01*
X1055080Y489730D01*
Y489822D01*
X1055089Y489933D01*
X1055098Y490044D01*
X1055126Y490294D01*
X1055163Y490553D01*
X1055218Y490802D01*
X1055255Y490923D01*
X1055292Y491033D01*
Y491043D01*
X1055302Y491061D01*
X1055320Y491089D01*
X1055339Y491126D01*
X1055394Y491228D01*
X1055477Y491357D01*
X1055588Y491505D01*
X1055718Y491653D01*
X1055884Y491810D01*
X1056087Y491949D01*
X1056097D01*
X1056115Y491967D01*
X1056143Y491977D01*
X1056189Y492004D01*
X1056245Y492032D01*
X1056319Y492060D01*
X1056393Y492087D01*
X1056485Y492124D01*
X1056587Y492161D01*
X1056698Y492189D01*
X1056818Y492217D01*
X1056957Y492245D01*
X1057095Y492263D01*
X1057243Y492282D01*
X1057576Y492300D01*
X1057659D01*
X1057724Y492291D01*
D02*
G37*
D11*
X1047100Y480800D02*
X1073100D01*
X1047100D02*
Y503800D01*
X1073100D01*
Y480800D02*
Y503800D01*
M02*
