G04*
G04 #@! TF.GenerationSoftware,Altium Limited,Altium Designer,21.4.1 (30)*
G04*
G04 Layer_Color=32768*
%FSLAX44Y44*%
%MOMM*%
G71*
G04*
G04 #@! TF.SameCoordinates,F4D517AC-81A7-4DE1-850E-9184CA7E4459*
G04*
G04*
G04 #@! TF.FilePolarity,Positive*
G04*
G01*
G75*
%ADD102C,0.1000*%
%ADD105C,0.0500*%
D102*
X1155770Y468420D02*
Y477920D01*
X1151020Y473170D02*
X1160520D01*
X1143770Y478670D02*
X1167770D01*
X1143770Y467670D02*
X1167770D01*
X1143770D02*
Y478670D01*
X1167770Y467670D02*
Y478670D01*
X758765Y499000D02*
Y510000D01*
X782765Y499000D02*
Y510000D01*
X758765D02*
X782765D01*
X758765Y499000D02*
X782765D01*
X766015Y504500D02*
X775515D01*
X770765Y499750D02*
Y509250D01*
X1039400Y387600D02*
Y398600D01*
X1015400Y387600D02*
Y398600D01*
Y387600D02*
X1039400D01*
X1015400Y398600D02*
X1039400D01*
X1022650Y393100D02*
X1032150D01*
X1027400Y388350D02*
Y397850D01*
X1109980Y467670D02*
Y478670D01*
X1085980Y467670D02*
Y478670D01*
Y467670D02*
X1109980D01*
X1085980Y478670D02*
X1109980D01*
X1093230Y473170D02*
X1102730D01*
X1097980Y468420D02*
Y477920D01*
X892168Y412800D02*
Y423800D01*
X916168Y412800D02*
Y423800D01*
X892168D02*
X916168D01*
X892168Y412800D02*
X916168D01*
X899417Y418300D02*
X908917D01*
X904167Y413550D02*
Y423050D01*
X753765Y468000D02*
Y479000D01*
X777765Y468000D02*
Y479000D01*
X753765D02*
X777765D01*
X753765Y468000D02*
X777765D01*
X761015Y473500D02*
X770515D01*
X765765Y468750D02*
Y478250D01*
X1097980Y447753D02*
Y457253D01*
X1093230Y452503D02*
X1102730D01*
X1085980Y447003D02*
X1109980D01*
X1085980Y458003D02*
X1109980D01*
Y447003D02*
Y458003D01*
X1085980Y447003D02*
Y458003D01*
X1009400Y387600D02*
Y398600D01*
X985400Y387600D02*
Y398600D01*
Y387600D02*
X1009400D01*
X985400Y398600D02*
X1009400D01*
X992650Y393100D02*
X1002150D01*
X997400Y388350D02*
Y397850D01*
X892168Y386300D02*
Y397300D01*
X916168Y386300D02*
Y397300D01*
X892168D02*
X916168D01*
X892168Y386300D02*
X916168D01*
X899417Y391800D02*
X908917D01*
X904167Y387050D02*
Y396550D01*
D105*
X1113780Y424837D02*
Y439137D01*
X1084480Y424837D02*
Y439137D01*
X1113780D01*
X1084480Y424837D02*
X1113780D01*
X1354435Y397420D02*
Y486920D01*
X1295435D02*
X1354435D01*
X1295435Y397420D02*
Y486920D01*
Y397420D02*
X1354435D01*
X1024750Y415100D02*
Y492300D01*
X982750Y492300D02*
X1024750Y492300D01*
X982750Y492300D02*
X982750Y415100D01*
X1024750Y415100D01*
M02*
