G04*
G04 #@! TF.GenerationSoftware,Altium Limited,Altium Designer,21.4.1 (30)*
G04*
G04 Layer_Color=16711935*
%FSLAX44Y44*%
%MOMM*%
G71*
G04*
G04 #@! TF.SameCoordinates,F4D517AC-81A7-4DE1-850E-9184CA7E4459*
G04*
G04*
G04 #@! TF.FilePolarity,Positive*
G04*
G01*
G75*
%ADD11C,0.2000*%
%ADD13C,0.1270*%
%ADD15C,0.0000*%
%ADD102C,0.1000*%
%ADD103C,0.3048*%
%ADD104C,0.0254*%
G36*
X904000Y456802D02*
X919000D01*
Y441802D01*
X904000D01*
Y456802D01*
D02*
G37*
D11*
X1303435Y424170D02*
G03*
X1303435Y424170I-1000J0D01*
G01*
D13*
X889000Y426802D02*
X919000D01*
X889000Y456802D02*
X919000D01*
X1090630Y427487D02*
Y436487D01*
X1107630Y427487D02*
Y436487D01*
X1090630D02*
X1107630D01*
X1090630Y427487D02*
X1107630D01*
X1308935Y400920D02*
Y483420D01*
X1349435Y400920D02*
Y483420D01*
X1308935D02*
X1349435D01*
X1308935Y400920D02*
X1349435D01*
X1020800Y421200D02*
X1020800Y486200D01*
X987200Y421200D02*
X987200Y486200D01*
X1020800Y486200D01*
X987200Y421200D02*
X1020800Y421200D01*
D15*
X738319Y474200D02*
G03*
X738319Y474200I-381J0D01*
G01*
X722952Y483234D02*
G03*
X729048Y483234I3048J0D01*
G01*
X738319Y433300D02*
G03*
X738319Y433300I-381J0D01*
G01*
X722952Y442334D02*
G03*
X729048Y442334I3048J0D01*
G01*
D102*
X1224822Y399900D02*
Y408900D01*
X1241822Y399900D02*
Y408900D01*
X1224822D02*
X1241822D01*
X1224822Y399900D02*
X1241822D01*
X1147270Y477920D02*
X1164270D01*
X1147270Y468420D02*
X1164270D01*
X1147270D02*
Y477920D01*
X1164270Y468420D02*
Y477920D01*
X762265Y499750D02*
Y509250D01*
X779265Y499750D02*
Y509250D01*
X762265D02*
X779265D01*
X762265Y499750D02*
X779265D01*
X738722Y493850D02*
X755722D01*
X738722Y484850D02*
X755722D01*
X738722D02*
Y493850D01*
X755722Y484850D02*
Y493850D01*
X1241822Y416200D02*
Y425200D01*
X1224822Y416200D02*
Y425200D01*
Y416200D02*
X1241822D01*
X1224822Y425200D02*
X1241822D01*
X731722Y460000D02*
X748722D01*
X731722Y469000D02*
X748722D01*
Y460000D02*
Y469000D01*
X731722Y460000D02*
Y469000D01*
Y433667D02*
X748722D01*
X731722Y442667D02*
X748722D01*
Y433667D02*
Y442667D01*
X731722Y433667D02*
Y442667D01*
X1035900Y388350D02*
Y397850D01*
X1018900Y388350D02*
Y397850D01*
Y388350D02*
X1035900D01*
X1018900Y397850D02*
X1035900D01*
X1106480Y468420D02*
Y477920D01*
X1089480Y468420D02*
Y477920D01*
Y468420D02*
X1106480D01*
X1089480Y477920D02*
X1106480D01*
X895667Y413550D02*
Y423050D01*
X912667Y413550D02*
Y423050D01*
X895667D02*
X912667D01*
X895667Y413550D02*
X912667D01*
X757265Y468750D02*
Y478250D01*
X774265Y468750D02*
Y478250D01*
X757265D02*
X774265D01*
X757265Y468750D02*
X774265D01*
X1089480Y447753D02*
X1106480D01*
X1089480Y457253D02*
X1106480D01*
Y447753D02*
Y457253D01*
X1089480Y447753D02*
Y457253D01*
X731722Y429500D02*
X748722D01*
X731722Y420500D02*
X748722D01*
X731722D02*
Y429500D01*
X748722Y420500D02*
Y429500D01*
X1005900Y388350D02*
Y397850D01*
X988900Y388350D02*
Y397850D01*
Y388350D02*
X1005900D01*
X988900Y397850D02*
X1005900D01*
X738722Y509250D02*
X755722D01*
X738722Y500250D02*
X755722D01*
X738722D02*
Y509250D01*
X755722Y500250D02*
Y509250D01*
X895667Y387050D02*
Y396550D01*
X912667Y387050D02*
Y396550D01*
X895667D02*
X912667D01*
X895667Y387050D02*
X912667D01*
X731722Y446833D02*
X748722D01*
X731722Y455833D02*
X748722D01*
Y446833D02*
Y455833D01*
X731722Y446833D02*
Y455833D01*
D103*
X1031918Y417160D02*
Y468975D01*
X980102Y417160D02*
Y468975D01*
Y417160D02*
X1031918D01*
X980102Y468975D02*
X1031918D01*
D104*
X711522Y447166D02*
X740478D01*
X711522D02*
Y483234D01*
X740478D01*
Y447166D02*
Y483234D01*
X711522Y406266D02*
X740478D01*
X711522D02*
Y442334D01*
X740478D01*
Y406266D02*
Y442334D01*
M02*
