G04*
G04 #@! TF.GenerationSoftware,Altium Limited,Altium Designer,21.4.1 (30)*
G04*
G04 Layer_Color=32896*
%FSLAX44Y44*%
%MOMM*%
G71*
G04*
G04 #@! TF.SameCoordinates,F4D517AC-81A7-4DE1-850E-9184CA7E4459*
G04*
G04*
G04 #@! TF.FilePolarity,Positive*
G04*
G01*
G75*
%ADD11C,0.2000*%
%ADD13C,0.1270*%
%ADD15C,0.0000*%
%ADD17C,0.1500*%
%ADD100C,0.0508*%
%ADD101C,0.1016*%
G36*
X794184Y499299D02*
X789179D01*
Y508801D01*
X794184D01*
Y499299D01*
D02*
G37*
G36*
X805868Y499291D02*
X800874D01*
Y508801D01*
X805868D01*
Y499291D01*
D02*
G37*
G36*
X971219Y495099D02*
X966214D01*
Y504601D01*
X971219D01*
Y495099D01*
D02*
G37*
G36*
X982903Y495091D02*
X977909D01*
Y504601D01*
X982903D01*
Y495091D01*
D02*
G37*
G36*
X1013786Y494999D02*
X1008781D01*
Y504501D01*
X1013786D01*
Y494999D01*
D02*
G37*
G36*
X1002091D02*
X997097D01*
Y504509D01*
X1002091D01*
Y494999D01*
D02*
G37*
G36*
X794149Y485399D02*
X789144D01*
Y494901D01*
X794149D01*
Y485399D01*
D02*
G37*
G36*
X805833Y485391D02*
X800839D01*
Y494901D01*
X805833D01*
Y485391D01*
D02*
G37*
G36*
X901519Y460799D02*
X896514D01*
Y470301D01*
X901519D01*
Y460799D01*
D02*
G37*
G36*
X913203Y460791D02*
X908209D01*
Y470301D01*
X913203D01*
Y460791D01*
D02*
G37*
G36*
X977609Y417608D02*
X968099D01*
Y422603D01*
X977609D01*
Y417608D01*
D02*
G37*
G36*
X1107866Y406869D02*
X1102861D01*
Y416371D01*
X1107866D01*
Y406869D01*
D02*
G37*
G36*
X1096171D02*
X1091177D01*
Y416379D01*
X1096171D01*
Y406869D01*
D02*
G37*
G36*
X977601Y405914D02*
X968099D01*
Y410919D01*
X977601D01*
Y405914D01*
D02*
G37*
G36*
X912553Y400399D02*
X907549D01*
Y409901D01*
X912553D01*
Y400399D01*
D02*
G37*
G36*
X900859D02*
X895864D01*
Y409908D01*
X900859D01*
Y400399D01*
D02*
G37*
G36*
X947250Y396100D02*
X945250D01*
Y397600D01*
X947250D01*
Y396100D01*
D02*
G37*
G36*
X944125D02*
X944500D01*
Y395600D01*
X944000D01*
Y395725D01*
X943625D01*
Y399475D01*
X944125D01*
Y396100D01*
D02*
G37*
G36*
X947625Y392225D02*
X938625D01*
Y394475D01*
X947625D01*
Y392225D01*
D02*
G37*
G36*
X858436Y389299D02*
X853431D01*
Y398801D01*
X858436D01*
Y389299D01*
D02*
G37*
G36*
X846741D02*
X841747D01*
Y398809D01*
X846741D01*
Y389299D01*
D02*
G37*
G36*
X946500Y388350D02*
X944500D01*
Y391350D01*
X946500D01*
Y388350D01*
D02*
G37*
G36*
X977686Y388299D02*
X972681D01*
Y397801D01*
X977686D01*
Y388299D01*
D02*
G37*
G36*
X965991D02*
X960997D01*
Y397809D01*
X965991D01*
Y388299D01*
D02*
G37*
G36*
X933500Y394475D02*
X936625D01*
Y392225D01*
X933500D01*
Y387350D01*
X931500D01*
Y392225D01*
X931125D01*
Y394475D01*
X931500D01*
Y399350D01*
X933500D01*
Y394475D01*
D02*
G37*
G36*
X858436Y375799D02*
X853431D01*
Y385301D01*
X858436D01*
Y375799D01*
D02*
G37*
G36*
X846741D02*
X841747D01*
Y385309D01*
X846741D01*
Y375799D01*
D02*
G37*
D11*
X826750Y513488D02*
G03*
X826750Y513488I-1000J0D01*
G01*
D02*
G03*
X826750Y513488I-1000J0D01*
G01*
X1223570Y410560D02*
G03*
X1223570Y410560I-1000J0D01*
G01*
D02*
G03*
X1223570Y410560I-1000J0D01*
G01*
X857400Y411802D02*
Y471802D01*
X797400Y411802D02*
X857400D01*
X797400D02*
Y471802D01*
X857400D01*
Y411802D02*
Y471802D01*
X797400Y411802D02*
X857400D01*
X797400D02*
Y471802D01*
X857400D01*
D13*
X803250Y454487D02*
X885750D01*
X803250D02*
Y496987D01*
X885750D01*
Y454487D02*
Y496987D01*
X803250Y454487D02*
X885750D01*
X803250D02*
Y496987D01*
X885750D01*
Y454487D02*
Y496987D01*
X947190Y439505D02*
Y473505D01*
X929190Y439505D02*
Y473505D01*
X947190D01*
X929190Y439505D02*
X947190D01*
Y473505D01*
X929190Y439505D02*
Y473505D01*
X947190D01*
X929190Y439505D02*
X947190D01*
X759400Y425802D02*
Y457803D01*
X772400Y425802D02*
Y457803D01*
X759400Y425802D02*
Y457803D01*
X772400Y425802D02*
Y457803D01*
X797400Y411802D02*
Y471802D01*
Y411802D02*
Y471802D01*
X1159370Y410610D02*
X1199370D01*
X1159370Y460610D02*
X1199370D01*
Y410610D02*
Y460610D01*
X1159370Y410610D02*
Y460610D01*
Y410610D02*
X1199370D01*
X1159370Y460610D02*
X1199370D01*
Y410610D02*
Y460610D01*
X1159370Y410610D02*
Y460610D01*
X1222290Y441470D02*
X1238290D01*
Y473470D01*
X1222290D02*
X1238290D01*
X1222290Y441470D02*
Y473470D01*
Y441470D02*
X1238290D01*
Y473470D01*
X1222290D02*
X1238290D01*
X1222290Y441470D02*
Y473470D01*
X973860Y439505D02*
Y473505D01*
X955860Y439505D02*
Y473505D01*
X973860D01*
X955860Y439505D02*
X973860D01*
Y473505D01*
X955860Y439505D02*
Y473505D01*
X973860D01*
X955860Y439505D02*
X973860D01*
X1247690Y441470D02*
X1263690D01*
Y473470D01*
X1247690D02*
X1263690D01*
X1247690Y441470D02*
Y473470D01*
Y441470D02*
X1263690D01*
Y473470D01*
X1247690D02*
X1263690D01*
X1247690Y441470D02*
Y473470D01*
D15*
X948748Y399822D02*
G03*
X942652Y399822I-3048J0D01*
G01*
X948748D02*
G03*
X942652Y399822I-3048J0D01*
G01*
X948748D02*
G03*
X942652Y399822I-3048J0D01*
G01*
X948748D02*
G03*
X942652Y399822I-3048J0D01*
G01*
X937826Y426238D02*
Y428778D01*
X953574Y399822D02*
Y402362D01*
Y407188D02*
Y411760D01*
Y416840D02*
Y421412D01*
Y426238D02*
Y428778D01*
X937826Y399822D02*
Y402362D01*
Y428778D02*
X953574D01*
X937826Y407188D02*
Y421412D01*
Y399822D02*
X942652D01*
X948748D01*
X953574D01*
Y402362D02*
Y407188D01*
Y402362D02*
X959670D01*
Y407188D01*
X953574D02*
X959670D01*
X953574Y411760D02*
Y416840D01*
Y411760D02*
X959670D01*
Y416840D01*
X953574D02*
X959670D01*
X953574Y421412D02*
Y426238D01*
Y421412D02*
X959670D01*
Y426238D01*
X953574D02*
X959670D01*
X937826Y421412D02*
Y426238D01*
X931730D02*
X937826D01*
X931730Y421412D02*
Y426238D01*
Y421412D02*
X937826D01*
Y402362D02*
Y407188D01*
X931730D02*
X937826D01*
X931730Y402362D02*
Y407188D01*
Y402362D02*
X937826D01*
Y426238D02*
Y428778D01*
X953574Y399822D02*
Y402362D01*
Y407188D02*
Y411760D01*
Y416840D02*
Y421412D01*
Y426238D02*
Y428778D01*
X937826Y399822D02*
Y402362D01*
Y428778D02*
X953574D01*
X937826Y407188D02*
Y421412D01*
Y399822D02*
X942652D01*
X948748D01*
X953574D01*
Y402362D02*
Y407188D01*
Y402362D02*
X959670D01*
Y407188D01*
X953574D02*
X959670D01*
X953574Y411760D02*
Y416840D01*
Y411760D02*
X959670D01*
Y416840D01*
X953574D02*
X959670D01*
X953574Y421412D02*
Y426238D01*
Y421412D02*
X959670D01*
Y426238D01*
X953574D02*
X959670D01*
X937826Y421412D02*
Y426238D01*
X931730D02*
X937826D01*
X931730Y421412D02*
Y426238D01*
Y421412D02*
X937826D01*
Y402362D02*
Y407188D01*
X931730D02*
X937826D01*
X931730Y402362D02*
Y407188D01*
Y402362D02*
X937826D01*
D17*
X1042610Y469170D02*
X1077610D01*
X1042610Y415170D02*
X1077610D01*
X1042610Y469170D02*
X1077610D01*
X1042610Y415170D02*
X1077610D01*
D100*
X945500Y396850D02*
G03*
X945500Y396850I-750J0D01*
G01*
X930250Y390600D02*
G03*
X930250Y396100I0J2750D01*
G01*
X945500Y396850D02*
G03*
X945500Y396850I-750J0D01*
G01*
X930250Y390600D02*
G03*
X930250Y396100I0J2750D01*
G01*
D101*
X946498Y396350D02*
G03*
X946498Y390350I262J-3000D01*
G01*
Y396350D02*
G03*
X946498Y390350I262J-3000D01*
G01*
X794005Y508320D02*
X801125D01*
X794005Y499810D02*
X801125D01*
X794005Y508320D02*
X801125D01*
X794005Y499810D02*
X801125D01*
X900608Y400880D02*
X907728D01*
X900608Y409390D02*
X907728D01*
X900608Y400880D02*
X907728D01*
X900608Y409390D02*
X907728D01*
X968580Y410740D02*
Y417860D01*
X977090Y410740D02*
Y417860D01*
X968580Y410740D02*
Y417860D01*
X977090Y410740D02*
Y417860D01*
X965740Y388780D02*
X972860D01*
X965740Y397290D02*
X972860D01*
X965740Y388780D02*
X972860D01*
X965740Y397290D02*
X972860D01*
X1001840Y503990D02*
X1008960D01*
X1001840Y495480D02*
X1008960D01*
X1001840Y503990D02*
X1008960D01*
X1001840Y495480D02*
X1008960D01*
X1095920Y415860D02*
X1103040D01*
X1095920Y407350D02*
X1103040D01*
X1095920Y415860D02*
X1103040D01*
X1095920Y407350D02*
X1103040D01*
X935000Y389350D02*
X942000D01*
X935000Y397350D02*
X942250D01*
X935000Y389350D02*
X942000D01*
X935000Y397350D02*
X942250D01*
X971040Y495610D02*
X978160D01*
X971040Y504120D02*
X978160D01*
X971040Y495610D02*
X978160D01*
X971040Y504120D02*
X978160D01*
X793970Y494420D02*
X801090D01*
X793970Y485910D02*
X801090D01*
X793970Y494420D02*
X801090D01*
X793970Y485910D02*
X801090D01*
X901340Y469820D02*
X908460D01*
X901340Y461310D02*
X908460D01*
X901340Y469820D02*
X908460D01*
X901340Y461310D02*
X908460D01*
X846490Y389780D02*
X853610D01*
X846490Y398290D02*
X853610D01*
X846490Y389780D02*
X853610D01*
X846490Y398290D02*
X853610D01*
X846490Y376280D02*
X853610D01*
X846490Y384790D02*
X853610D01*
X846490Y376280D02*
X853610D01*
X846490Y384790D02*
X853610D01*
M02*
