G04*
G04 #@! TF.GenerationSoftware,Altium Limited,Altium Designer,21.4.1 (30)*
G04*
G04 Layer_Color=255*
%FSLAX44Y44*%
%MOMM*%
G71*
G04*
G04 #@! TF.SameCoordinates,F4D517AC-81A7-4DE1-850E-9184CA7E4459*
G04*
G04*
G04 #@! TF.FilePolarity,Positive*
G04*
G01*
G75*
%ADD16C,0.4000*%
G04:AMPARAMS|DCode=18|XSize=0.5mm|YSize=0.25mm|CornerRadius=0.05mm|HoleSize=0mm|Usage=FLASHONLY|Rotation=180.000|XOffset=0mm|YOffset=0mm|HoleType=Round|Shape=RoundedRectangle|*
%AMROUNDEDRECTD18*
21,1,0.5000,0.1500,0,0,180.0*
21,1,0.4000,0.2500,0,0,180.0*
1,1,0.1000,-0.2000,0.0750*
1,1,0.1000,0.2000,0.0750*
1,1,0.1000,0.2000,-0.0750*
1,1,0.1000,-0.2000,-0.0750*
%
%ADD18ROUNDEDRECTD18*%
%ADD19R,1.8200X1.3800*%
%ADD20R,0.8000X1.0000*%
%ADD21R,2.0000X0.4000*%
%ADD22R,1.0000X0.8000*%
%ADD23R,0.6000X0.8500*%
%ADD24R,0.7000X0.9000*%
%ADD25R,1.3208X0.5588*%
%ADD26R,1.0800X0.2600*%
%ADD27R,0.2600X1.0800*%
%ADD28R,3.7000X3.7000*%
%ADD29R,2.7940X1.9050*%
%ADD30R,1.9700X0.6000*%
%ADD31R,2.1300X3.0000*%
%ADD32R,0.8000X0.8000*%
%ADD33R,1.8200X1.1500*%
%ADD34R,0.6000X1.0000*%
%ADD35R,0.3000X0.5250*%
%ADD36R,0.8900X0.9300*%
%ADD37R,3.8000X1.8000*%
%ADD38R,2.7000X1.0000*%
%ADD39R,2.3000X2.2000*%
%ADD40R,2.7000X1.0000*%
%ADD41R,1.7000X0.6000*%
G04:AMPARAMS|DCode=42|XSize=0.9mm|YSize=1.6mm|CornerRadius=0.0495mm|HoleSize=0mm|Usage=FLASHONLY|Rotation=180.000|XOffset=0mm|YOffset=0mm|HoleType=Round|Shape=RoundedRectangle|*
%AMROUNDEDRECTD42*
21,1,0.9000,1.5010,0,0,180.0*
21,1,0.8010,1.6000,0,0,180.0*
1,1,0.0990,-0.4005,0.7505*
1,1,0.0990,0.4005,0.7505*
1,1,0.0990,0.4005,-0.7505*
1,1,0.0990,-0.4005,-0.7505*
%
%ADD42ROUNDEDRECTD42*%
%ADD71R,2.4500X1.6500*%
%ADD81C,0.9000*%
%ADD82C,1.2000*%
D16*
X1171870Y435610D02*
D03*
X1186870D02*
D03*
Y420610D02*
D03*
X1171870D02*
D03*
Y450610D02*
D03*
X1186870D02*
D03*
D18*
X1069600Y484800D02*
D03*
Y489800D02*
D03*
Y494800D02*
D03*
Y499800D02*
D03*
X1050600D02*
D03*
Y494800D02*
D03*
Y489800D02*
D03*
Y484800D02*
D03*
D19*
X938190Y442815D02*
D03*
Y470195D02*
D03*
X964860Y442815D02*
D03*
Y470195D02*
D03*
D20*
X789065Y504000D02*
D03*
X806065D02*
D03*
X912667Y405200D02*
D03*
X895667D02*
D03*
X977800Y393100D02*
D03*
X960800D02*
D03*
X996900Y499800D02*
D03*
X1013900D02*
D03*
X1090980Y411670D02*
D03*
X1107980D02*
D03*
X983100Y499800D02*
D03*
X966100D02*
D03*
X789030Y490100D02*
D03*
X806030D02*
D03*
X896400Y465500D02*
D03*
X913400D02*
D03*
X858550Y394100D02*
D03*
X841550D02*
D03*
X858550Y380600D02*
D03*
X841550D02*
D03*
D21*
X765900Y429803D02*
D03*
Y441802D02*
D03*
Y453802D02*
D03*
D22*
X972900Y405800D02*
D03*
Y422800D02*
D03*
D23*
X1227100Y404400D02*
D03*
X1239544D02*
D03*
X741000Y489350D02*
D03*
X753444D02*
D03*
X1239544Y420700D02*
D03*
X1227100D02*
D03*
X746444Y464500D02*
D03*
X734000D02*
D03*
X746444Y438167D02*
D03*
X734000D02*
D03*
Y425000D02*
D03*
X746444D02*
D03*
X741000Y504750D02*
D03*
X753444D02*
D03*
X746444Y451333D02*
D03*
X734000D02*
D03*
D24*
X1148270Y473170D02*
D03*
X1163270D02*
D03*
X763265Y504500D02*
D03*
X778265D02*
D03*
X1034900Y393100D02*
D03*
X1019900D02*
D03*
X1105480Y473170D02*
D03*
X1090480D02*
D03*
X896667Y418300D02*
D03*
X911667D02*
D03*
X758265Y473500D02*
D03*
X773265D02*
D03*
X1105480Y452503D02*
D03*
X1090480D02*
D03*
X1004900Y393100D02*
D03*
X989900D02*
D03*
X896667Y391800D02*
D03*
X911667D02*
D03*
D25*
X957384Y404902D02*
D03*
Y414300D02*
D03*
Y423698D02*
D03*
X934016D02*
D03*
Y404902D02*
D03*
D26*
X799250Y461802D02*
D03*
Y456802D02*
D03*
Y451802D02*
D03*
Y446802D02*
D03*
Y441802D02*
D03*
Y436802D02*
D03*
Y431802D02*
D03*
Y426802D02*
D03*
Y421802D02*
D03*
X855550D02*
D03*
Y426802D02*
D03*
Y431802D02*
D03*
Y436802D02*
D03*
Y441802D02*
D03*
Y446802D02*
D03*
Y451802D02*
D03*
Y456802D02*
D03*
Y461802D02*
D03*
D27*
X812400Y413652D02*
D03*
X817400D02*
D03*
X822400D02*
D03*
X827400D02*
D03*
X832400D02*
D03*
X837400D02*
D03*
X842400D02*
D03*
X847400D02*
D03*
Y469953D02*
D03*
X842400D02*
D03*
X837400D02*
D03*
X832400D02*
D03*
X827400D02*
D03*
X822400D02*
D03*
X817400D02*
D03*
X812400D02*
D03*
X807400Y413652D02*
D03*
Y469953D02*
D03*
D28*
X827400Y441802D02*
D03*
D29*
X1006010Y468467D02*
D03*
Y417668D02*
D03*
D30*
X1204120Y416560D02*
D03*
Y429260D02*
D03*
Y441960D02*
D03*
Y454660D02*
D03*
X1154620D02*
D03*
Y441960D02*
D03*
Y429260D02*
D03*
Y416560D02*
D03*
D31*
X1179370Y435610D02*
D03*
D32*
X931000Y393350D02*
D03*
X946000D02*
D03*
D33*
X1230290Y442620D02*
D03*
Y472320D02*
D03*
X1255690Y442620D02*
D03*
Y472320D02*
D03*
D34*
X1116500Y495300D02*
D03*
X1126000D02*
D03*
X1135500D02*
D03*
X1116500Y469300D02*
D03*
X1135500D02*
D03*
D35*
X894250Y455428D02*
D03*
X900750D02*
D03*
X907250D02*
D03*
X913750D02*
D03*
X894250Y428177D02*
D03*
X913750D02*
D03*
X900750D02*
D03*
X907250D02*
D03*
D36*
X1106830Y431987D02*
D03*
X1091430D02*
D03*
D37*
X1329700Y501852D02*
D03*
Y381852D02*
D03*
D38*
X1282700Y479352D02*
D03*
Y464352D02*
D03*
Y449352D02*
D03*
Y434352D02*
D03*
Y419352D02*
D03*
Y404352D02*
D03*
D39*
X1060110Y417670D02*
D03*
Y466670D02*
D03*
D40*
X1338435Y479420D02*
D03*
Y404920D02*
D03*
D41*
X1306435Y460920D02*
D03*
Y448420D02*
D03*
Y423420D02*
D03*
Y435920D02*
D03*
D42*
X1060100Y492300D02*
D03*
D71*
X904000Y441802D02*
D03*
D81*
X863250Y498988D02*
D03*
X850750D02*
D03*
X838250D02*
D03*
X825750D02*
D03*
D82*
X1386300Y503300D02*
D03*
Y386498D02*
D03*
X716400Y386605D02*
D03*
Y503202D02*
D03*
M02*
