G04*
G04 #@! TF.GenerationSoftware,Altium Limited,Altium Designer,21.4.1 (30)*
G04*
G04 Layer_Color=128*
%FSLAX44Y44*%
%MOMM*%
G71*
G04*
G04 #@! TF.SameCoordinates,631D65B1-6611-40AA-A89E-A9A581605989*
G04*
G04*
G04 #@! TF.FilePolarity,Positive*
G04*
G01*
G75*
%ADD62C,0.0508*%
D62*
X2585228Y1729985D02*
X2595228D01*
X2590228Y1724985D02*
Y1734985D01*
X2559828Y1729985D02*
X2569828D01*
X2564828Y1724985D02*
Y1734985D01*
X2534428Y1729985D02*
X2544428D01*
X2539428Y1724985D02*
Y1734985D01*
X2509028Y1729985D02*
X2519028D01*
X2514028Y1724985D02*
Y1734985D01*
X2483628Y1729985D02*
X2493628D01*
X2488628Y1724985D02*
Y1734985D01*
X2622492Y1612945D02*
X2630492D01*
X2626492Y1608945D02*
Y1616945D01*
X2647892Y1612945D02*
X2655892D01*
X2651892Y1608945D02*
Y1616945D01*
X2673292Y1612945D02*
X2681292D01*
X2677292Y1608945D02*
Y1616945D01*
X2698692Y1612945D02*
X2706692D01*
X2702692Y1608945D02*
Y1616945D01*
X2724092Y1612945D02*
X2732092D01*
X2728092Y1608945D02*
Y1616945D01*
X2749492Y1612945D02*
X2757492D01*
X2753492Y1608945D02*
Y1616945D01*
X2774892Y1612945D02*
X2782892D01*
X2778892Y1608945D02*
Y1616945D01*
X2800292Y1612945D02*
X2808292D01*
X2804292Y1608945D02*
Y1616945D01*
X2622492Y1689145D02*
X2630492D01*
X2626492Y1685145D02*
Y1693145D01*
X2647892Y1689145D02*
X2655892D01*
X2651892Y1685145D02*
Y1693145D01*
X2673292Y1689145D02*
X2681292D01*
X2677292Y1685145D02*
Y1693145D01*
X2698692Y1689145D02*
X2706692D01*
X2702692Y1685145D02*
Y1693145D01*
X2724092Y1689145D02*
X2732092D01*
X2728092Y1685145D02*
Y1693145D01*
X2749492Y1689145D02*
X2757492D01*
X2753492Y1685145D02*
Y1693145D01*
X2774892Y1689145D02*
X2782892D01*
X2778892Y1685145D02*
Y1693145D01*
X2800292Y1689145D02*
X2808292D01*
X2804292Y1685145D02*
Y1693145D01*
X2699942Y1721336D02*
X2707942D01*
X2703942Y1717336D02*
Y1725336D01*
X2719942Y1721336D02*
X2727942D01*
X2723942Y1717336D02*
Y1725336D01*
X2929078Y1678029D02*
X2938078D01*
X2933578Y1673529D02*
Y1682529D01*
X2929078Y1713029D02*
X2938078D01*
X2933578Y1708529D02*
Y1717529D01*
X2983602Y1746557D02*
X3013602D01*
X2998602Y1731557D02*
Y1761557D01*
X2336244Y1729685D02*
X2346244D01*
X2341244Y1724685D02*
Y1734685D01*
X2310844Y1729685D02*
X2320844D01*
X2315844Y1724685D02*
Y1734685D01*
X2285444Y1729685D02*
X2295444D01*
X2290444Y1724685D02*
Y1734685D01*
X2260044Y1729685D02*
X2270044D01*
X2265044Y1724685D02*
Y1734685D01*
X2392304Y1727480D02*
X2399924D01*
X2396114Y1723670D02*
Y1731290D01*
X2455804Y1727480D02*
X2463424D01*
X2459614Y1723670D02*
Y1731290D01*
X2455804Y1708149D02*
X2463424D01*
X2459614Y1704339D02*
Y1711959D01*
X2392304Y1708149D02*
X2399924D01*
X2396114Y1704339D02*
Y1711959D01*
X2392304Y1746811D02*
X2399924D01*
X2396114Y1743001D02*
Y1750621D01*
X2455804Y1746811D02*
X2463424D01*
X2459614Y1743001D02*
Y1750621D01*
X2259944Y1572059D02*
X2269944D01*
X2264944Y1567059D02*
Y1577059D01*
X2285344Y1572059D02*
X2295344D01*
X2290344Y1567059D02*
Y1577059D01*
X2310744Y1572059D02*
X2320744D01*
X2315744Y1567059D02*
Y1577059D01*
X2336144Y1572059D02*
X2346144D01*
X2341144Y1567059D02*
Y1577059D01*
X2509596Y1561645D02*
X2517216D01*
X2513406Y1557835D02*
Y1565455D01*
X2446096Y1561645D02*
X2453716D01*
X2449906Y1557835D02*
Y1565455D01*
X2544768Y1560883D02*
X2552768D01*
X2548768Y1556883D02*
Y1564883D01*
X2544768Y1586283D02*
X2552768D01*
X2548768Y1582283D02*
Y1590283D01*
X2719942Y1580949D02*
X2727942D01*
X2723942Y1576949D02*
Y1584949D01*
X2699942Y1580949D02*
X2707942D01*
X2703942Y1576949D02*
Y1584949D01*
X2759574Y1557835D02*
X2789574D01*
X2774574Y1542835D02*
Y1572835D01*
X2388480Y1557835D02*
X2418480D01*
X2403480Y1542835D02*
Y1572835D01*
X2862792Y1626923D02*
X2872792D01*
X2867792Y1621923D02*
Y1631923D01*
X2862792Y1652323D02*
X2872792D01*
X2867792Y1647323D02*
Y1657323D01*
X2862792Y1677723D02*
X2872792D01*
X2867792Y1672723D02*
Y1682723D01*
X2929560Y1625881D02*
X2938560D01*
X2934060Y1621381D02*
Y1630381D01*
X2929560Y1590881D02*
X2938560D01*
X2934060Y1586381D02*
Y1595381D01*
X2983602Y1557835D02*
X3013602D01*
X2998602Y1542835D02*
Y1572835D01*
X2262328Y1612445D02*
X2271328D01*
X2266828Y1607945D02*
Y1616945D01*
X2287728Y1612445D02*
X2296728D01*
X2292228Y1607945D02*
Y1616945D01*
X2313128Y1612445D02*
X2322128D01*
X2317628Y1607945D02*
Y1616945D01*
X2338528Y1612445D02*
X2347528D01*
X2343028Y1607945D02*
Y1616945D01*
X2363928Y1612445D02*
X2372928D01*
X2368428Y1607945D02*
Y1616945D01*
X2389328Y1612445D02*
X2398328D01*
X2393828Y1607945D02*
Y1616945D01*
X2414728Y1612445D02*
X2423728D01*
X2419228Y1607945D02*
Y1616945D01*
X2440128Y1612445D02*
X2449128D01*
X2444628Y1607945D02*
Y1616945D01*
X2465528Y1612445D02*
X2474528D01*
X2470028Y1607945D02*
Y1616945D01*
X2490928Y1612445D02*
X2499928D01*
X2495428Y1607945D02*
Y1616945D01*
X2516328Y1612445D02*
X2525328D01*
X2520828Y1607945D02*
Y1616945D01*
X2541728Y1612445D02*
X2550728D01*
X2546228Y1607945D02*
Y1616945D01*
X2567128Y1612445D02*
X2576128D01*
X2571628Y1607945D02*
Y1616945D01*
X2592528Y1612445D02*
X2601528D01*
X2597028Y1607945D02*
Y1616945D01*
X2262328Y1688645D02*
X2271328D01*
X2266828Y1684145D02*
Y1693145D01*
X2287728Y1688645D02*
X2296728D01*
X2292228Y1684145D02*
Y1693145D01*
X2313128Y1688645D02*
X2322128D01*
X2317628Y1684145D02*
Y1693145D01*
X2338528Y1688645D02*
X2347528D01*
X2343028Y1684145D02*
Y1693145D01*
X2363928Y1688645D02*
X2372928D01*
X2368428Y1684145D02*
Y1693145D01*
X2389328Y1688645D02*
X2398328D01*
X2393828Y1684145D02*
Y1693145D01*
X2414728Y1688645D02*
X2423728D01*
X2419228Y1684145D02*
Y1693145D01*
X2440128Y1688645D02*
X2449128D01*
X2444628Y1684145D02*
Y1693145D01*
X2465528Y1688645D02*
X2474528D01*
X2470028Y1684145D02*
Y1693145D01*
X2490928Y1688645D02*
X2499928D01*
X2495428Y1684145D02*
Y1693145D01*
X2516328Y1688645D02*
X2525328D01*
X2520828Y1684145D02*
Y1693145D01*
X2541728Y1688645D02*
X2550728D01*
X2546228Y1684145D02*
Y1693145D01*
X2567128Y1688645D02*
X2576128D01*
X2571628Y1684145D02*
Y1693145D01*
X2592528Y1688645D02*
X2601528D01*
X2597028Y1684145D02*
Y1693145D01*
X2300420Y1639795D02*
X2308420D01*
X2304420Y1635795D02*
Y1643795D01*
X2300420Y1667795D02*
X2308420D01*
X2304420Y1663795D02*
Y1671795D01*
X2275020Y1639795D02*
X2283020D01*
X2279020Y1635795D02*
Y1643795D01*
X2275020Y1667795D02*
X2283020D01*
X2279020Y1663795D02*
Y1671795D01*
X2418974Y1640639D02*
X2426594D01*
X2422784Y1636829D02*
Y1644449D01*
X2482474Y1640639D02*
X2490094D01*
X2486284Y1636829D02*
Y1644449D01*
X2381446Y1639795D02*
X2389446D01*
X2385446Y1635795D02*
Y1643795D01*
X2381446Y1667795D02*
X2389446D01*
X2385446Y1663795D02*
Y1671795D01*
X2356046Y1639795D02*
X2364046D01*
X2360046Y1635795D02*
Y1643795D01*
X2356046Y1667795D02*
X2364046D01*
X2360046Y1663795D02*
Y1671795D01*
X2418974Y1660959D02*
X2426594D01*
X2422784Y1657149D02*
Y1664769D01*
X2482474Y1660959D02*
X2490094D01*
X2486284Y1657149D02*
Y1664769D01*
X2830891Y1752978D02*
X2838003D01*
X2834447Y1749422D02*
Y1756534D01*
X2642748Y1654101D02*
X2649860D01*
X2646304Y1650545D02*
Y1657657D01*
X2585228Y1979985D02*
X2595228D01*
X2590228Y1974985D02*
Y1984985D01*
X2559828Y1979985D02*
X2569828D01*
X2564828Y1974985D02*
Y1984985D01*
X2534428Y1979985D02*
X2544428D01*
X2539428Y1974985D02*
Y1984985D01*
X2509028Y1979985D02*
X2519028D01*
X2514028Y1974985D02*
Y1984985D01*
X2483628Y1979985D02*
X2493628D01*
X2488628Y1974985D02*
Y1984985D01*
X2622492Y1862945D02*
X2630492D01*
X2626492Y1858945D02*
Y1866945D01*
X2647892Y1862945D02*
X2655892D01*
X2651892Y1858945D02*
Y1866945D01*
X2673292Y1862945D02*
X2681292D01*
X2677292Y1858945D02*
Y1866945D01*
X2698692Y1862945D02*
X2706692D01*
X2702692Y1858945D02*
Y1866945D01*
X2724092Y1862945D02*
X2732092D01*
X2728092Y1858945D02*
Y1866945D01*
X2749492Y1862945D02*
X2757492D01*
X2753492Y1858945D02*
Y1866945D01*
X2774892Y1862945D02*
X2782892D01*
X2778892Y1858945D02*
Y1866945D01*
X2800292Y1862945D02*
X2808292D01*
X2804292Y1858945D02*
Y1866945D01*
X2622492Y1939145D02*
X2630492D01*
X2626492Y1935145D02*
Y1943145D01*
X2647892Y1939145D02*
X2655892D01*
X2651892Y1935145D02*
Y1943145D01*
X2673292Y1939145D02*
X2681292D01*
X2677292Y1935145D02*
Y1943145D01*
X2698692Y1939145D02*
X2706692D01*
X2702692Y1935145D02*
Y1943145D01*
X2724092Y1939145D02*
X2732092D01*
X2728092Y1935145D02*
Y1943145D01*
X2749492Y1939145D02*
X2757492D01*
X2753492Y1935145D02*
Y1943145D01*
X2774892Y1939145D02*
X2782892D01*
X2778892Y1935145D02*
Y1943145D01*
X2800292Y1939145D02*
X2808292D01*
X2804292Y1935145D02*
Y1943145D01*
X2699942Y1971336D02*
X2707942D01*
X2703942Y1967336D02*
Y1975336D01*
X2719942Y1971336D02*
X2727942D01*
X2723942Y1967336D02*
Y1975336D01*
X2929078Y1928029D02*
X2938078D01*
X2933578Y1923529D02*
Y1932529D01*
X2929078Y1963029D02*
X2938078D01*
X2933578Y1958529D02*
Y1967529D01*
X2983602Y1996557D02*
X3013602D01*
X2998602Y1981557D02*
Y2011557D01*
X2336244Y1979685D02*
X2346244D01*
X2341244Y1974685D02*
Y1984685D01*
X2310844Y1979685D02*
X2320844D01*
X2315844Y1974685D02*
Y1984685D01*
X2285444Y1979685D02*
X2295444D01*
X2290444Y1974685D02*
Y1984685D01*
X2260044Y1979685D02*
X2270044D01*
X2265044Y1974685D02*
Y1984685D01*
X2392304Y1977480D02*
X2399924D01*
X2396114Y1973670D02*
Y1981290D01*
X2455804Y1977480D02*
X2463424D01*
X2459614Y1973670D02*
Y1981290D01*
X2455804Y1958149D02*
X2463424D01*
X2459614Y1954339D02*
Y1961959D01*
X2392304Y1958149D02*
X2399924D01*
X2396114Y1954339D02*
Y1961959D01*
X2392304Y1996811D02*
X2399924D01*
X2396114Y1993001D02*
Y2000621D01*
X2455804Y1996811D02*
X2463424D01*
X2459614Y1993001D02*
Y2000621D01*
X2259944Y1822059D02*
X2269944D01*
X2264944Y1817059D02*
Y1827059D01*
X2285344Y1822059D02*
X2295344D01*
X2290344Y1817059D02*
Y1827059D01*
X2310744Y1822059D02*
X2320744D01*
X2315744Y1817059D02*
Y1827059D01*
X2336144Y1822059D02*
X2346144D01*
X2341144Y1817059D02*
Y1827059D01*
X2509596Y1811645D02*
X2517216D01*
X2513406Y1807835D02*
Y1815455D01*
X2446096Y1811645D02*
X2453716D01*
X2449906Y1807835D02*
Y1815455D01*
X2544768Y1810883D02*
X2552768D01*
X2548768Y1806883D02*
Y1814883D01*
X2544768Y1836283D02*
X2552768D01*
X2548768Y1832283D02*
Y1840283D01*
X2719942Y1830949D02*
X2727942D01*
X2723942Y1826949D02*
Y1834949D01*
X2699942Y1830949D02*
X2707942D01*
X2703942Y1826949D02*
Y1834949D01*
X2759574Y1807835D02*
X2789574D01*
X2774574Y1792835D02*
Y1822835D01*
X2388480Y1807835D02*
X2418480D01*
X2403480Y1792835D02*
Y1822835D01*
X2862792Y1876923D02*
X2872792D01*
X2867792Y1871923D02*
Y1881923D01*
X2862792Y1902323D02*
X2872792D01*
X2867792Y1897323D02*
Y1907323D01*
X2862792Y1927723D02*
X2872792D01*
X2867792Y1922723D02*
Y1932723D01*
X2929560Y1875881D02*
X2938560D01*
X2934060Y1871381D02*
Y1880381D01*
X2929560Y1840881D02*
X2938560D01*
X2934060Y1836381D02*
Y1845381D01*
X2983602Y1807835D02*
X3013602D01*
X2998602Y1792835D02*
Y1822835D01*
X2262328Y1862445D02*
X2271328D01*
X2266828Y1857945D02*
Y1866945D01*
X2287728Y1862445D02*
X2296728D01*
X2292228Y1857945D02*
Y1866945D01*
X2313128Y1862445D02*
X2322128D01*
X2317628Y1857945D02*
Y1866945D01*
X2338528Y1862445D02*
X2347528D01*
X2343028Y1857945D02*
Y1866945D01*
X2363928Y1862445D02*
X2372928D01*
X2368428Y1857945D02*
Y1866945D01*
X2389328Y1862445D02*
X2398328D01*
X2393828Y1857945D02*
Y1866945D01*
X2414728Y1862445D02*
X2423728D01*
X2419228Y1857945D02*
Y1866945D01*
X2440128Y1862445D02*
X2449128D01*
X2444628Y1857945D02*
Y1866945D01*
X2465528Y1862445D02*
X2474528D01*
X2470028Y1857945D02*
Y1866945D01*
X2490928Y1862445D02*
X2499928D01*
X2495428Y1857945D02*
Y1866945D01*
X2516328Y1862445D02*
X2525328D01*
X2520828Y1857945D02*
Y1866945D01*
X2541728Y1862445D02*
X2550728D01*
X2546228Y1857945D02*
Y1866945D01*
X2567128Y1862445D02*
X2576128D01*
X2571628Y1857945D02*
Y1866945D01*
X2592528Y1862445D02*
X2601528D01*
X2597028Y1857945D02*
Y1866945D01*
X2262328Y1938645D02*
X2271328D01*
X2266828Y1934145D02*
Y1943145D01*
X2287728Y1938645D02*
X2296728D01*
X2292228Y1934145D02*
Y1943145D01*
X2313128Y1938645D02*
X2322128D01*
X2317628Y1934145D02*
Y1943145D01*
X2338528Y1938645D02*
X2347528D01*
X2343028Y1934145D02*
Y1943145D01*
X2363928Y1938645D02*
X2372928D01*
X2368428Y1934145D02*
Y1943145D01*
X2389328Y1938645D02*
X2398328D01*
X2393828Y1934145D02*
Y1943145D01*
X2414728Y1938645D02*
X2423728D01*
X2419228Y1934145D02*
Y1943145D01*
X2440128Y1938645D02*
X2449128D01*
X2444628Y1934145D02*
Y1943145D01*
X2465528Y1938645D02*
X2474528D01*
X2470028Y1934145D02*
Y1943145D01*
X2490928Y1938645D02*
X2499928D01*
X2495428Y1934145D02*
Y1943145D01*
X2516328Y1938645D02*
X2525328D01*
X2520828Y1934145D02*
Y1943145D01*
X2541728Y1938645D02*
X2550728D01*
X2546228Y1934145D02*
Y1943145D01*
X2567128Y1938645D02*
X2576128D01*
X2571628Y1934145D02*
Y1943145D01*
X2592528Y1938645D02*
X2601528D01*
X2597028Y1934145D02*
Y1943145D01*
X2300420Y1889795D02*
X2308420D01*
X2304420Y1885795D02*
Y1893795D01*
X2300420Y1917795D02*
X2308420D01*
X2304420Y1913795D02*
Y1921795D01*
X2275020Y1889795D02*
X2283020D01*
X2279020Y1885795D02*
Y1893795D01*
X2275020Y1917795D02*
X2283020D01*
X2279020Y1913795D02*
Y1921795D01*
X2418974Y1890639D02*
X2426594D01*
X2422784Y1886829D02*
Y1894449D01*
X2482474Y1890639D02*
X2490094D01*
X2486284Y1886829D02*
Y1894449D01*
X2381446Y1889795D02*
X2389446D01*
X2385446Y1885795D02*
Y1893795D01*
X2381446Y1917795D02*
X2389446D01*
X2385446Y1913795D02*
Y1921795D01*
X2356046Y1889795D02*
X2364046D01*
X2360046Y1885795D02*
Y1893795D01*
X2356046Y1917795D02*
X2364046D01*
X2360046Y1913795D02*
Y1921795D01*
X2418974Y1910959D02*
X2426594D01*
X2422784Y1907149D02*
Y1914769D01*
X2482474Y1910959D02*
X2490094D01*
X2486284Y1907149D02*
Y1914769D01*
X2830891Y2002978D02*
X2838003D01*
X2834447Y1999422D02*
Y2006534D01*
X2642748Y1904101D02*
X2649860D01*
X2646304Y1900545D02*
Y1907657D01*
X2585228Y2229985D02*
X2595228D01*
X2590228Y2224985D02*
Y2234985D01*
X2559828Y2229985D02*
X2569828D01*
X2564828Y2224985D02*
Y2234985D01*
X2534428Y2229985D02*
X2544428D01*
X2539428Y2224985D02*
Y2234985D01*
X2509028Y2229985D02*
X2519028D01*
X2514028Y2224985D02*
Y2234985D01*
X2483628Y2229985D02*
X2493628D01*
X2488628Y2224985D02*
Y2234985D01*
X2622492Y2112945D02*
X2630492D01*
X2626492Y2108945D02*
Y2116945D01*
X2647892Y2112945D02*
X2655892D01*
X2651892Y2108945D02*
Y2116945D01*
X2673292Y2112945D02*
X2681292D01*
X2677292Y2108945D02*
Y2116945D01*
X2698692Y2112945D02*
X2706692D01*
X2702692Y2108945D02*
Y2116945D01*
X2724092Y2112945D02*
X2732092D01*
X2728092Y2108945D02*
Y2116945D01*
X2749492Y2112945D02*
X2757492D01*
X2753492Y2108945D02*
Y2116945D01*
X2774892Y2112945D02*
X2782892D01*
X2778892Y2108945D02*
Y2116945D01*
X2800292Y2112945D02*
X2808292D01*
X2804292Y2108945D02*
Y2116945D01*
X2622492Y2189145D02*
X2630492D01*
X2626492Y2185145D02*
Y2193145D01*
X2647892Y2189145D02*
X2655892D01*
X2651892Y2185145D02*
Y2193145D01*
X2673292Y2189145D02*
X2681292D01*
X2677292Y2185145D02*
Y2193145D01*
X2698692Y2189145D02*
X2706692D01*
X2702692Y2185145D02*
Y2193145D01*
X2724092Y2189145D02*
X2732092D01*
X2728092Y2185145D02*
Y2193145D01*
X2749492Y2189145D02*
X2757492D01*
X2753492Y2185145D02*
Y2193145D01*
X2774892Y2189145D02*
X2782892D01*
X2778892Y2185145D02*
Y2193145D01*
X2800292Y2189145D02*
X2808292D01*
X2804292Y2185145D02*
Y2193145D01*
X2699942Y2221336D02*
X2707942D01*
X2703942Y2217336D02*
Y2225336D01*
X2719942Y2221336D02*
X2727942D01*
X2723942Y2217336D02*
Y2225336D01*
X2929078Y2178029D02*
X2938078D01*
X2933578Y2173529D02*
Y2182529D01*
X2929078Y2213029D02*
X2938078D01*
X2933578Y2208529D02*
Y2217529D01*
X2983602Y2246557D02*
X3013602D01*
X2998602Y2231557D02*
Y2261557D01*
X2336244Y2229685D02*
X2346244D01*
X2341244Y2224685D02*
Y2234685D01*
X2310844Y2229685D02*
X2320844D01*
X2315844Y2224685D02*
Y2234685D01*
X2285444Y2229685D02*
X2295444D01*
X2290444Y2224685D02*
Y2234685D01*
X2260044Y2229685D02*
X2270044D01*
X2265044Y2224685D02*
Y2234685D01*
X2392304Y2227480D02*
X2399924D01*
X2396114Y2223670D02*
Y2231290D01*
X2455804Y2227480D02*
X2463424D01*
X2459614Y2223670D02*
Y2231290D01*
X2455804Y2208149D02*
X2463424D01*
X2459614Y2204339D02*
Y2211959D01*
X2392304Y2208149D02*
X2399924D01*
X2396114Y2204339D02*
Y2211959D01*
X2392304Y2246811D02*
X2399924D01*
X2396114Y2243001D02*
Y2250621D01*
X2455804Y2246811D02*
X2463424D01*
X2459614Y2243001D02*
Y2250621D01*
X2259944Y2072059D02*
X2269944D01*
X2264944Y2067059D02*
Y2077059D01*
X2285344Y2072059D02*
X2295344D01*
X2290344Y2067059D02*
Y2077059D01*
X2310744Y2072059D02*
X2320744D01*
X2315744Y2067059D02*
Y2077059D01*
X2336144Y2072059D02*
X2346144D01*
X2341144Y2067059D02*
Y2077059D01*
X2509596Y2061645D02*
X2517216D01*
X2513406Y2057835D02*
Y2065455D01*
X2446096Y2061645D02*
X2453716D01*
X2449906Y2057835D02*
Y2065455D01*
X2544768Y2060883D02*
X2552768D01*
X2548768Y2056883D02*
Y2064883D01*
X2544768Y2086283D02*
X2552768D01*
X2548768Y2082283D02*
Y2090283D01*
X2719942Y2080949D02*
X2727942D01*
X2723942Y2076949D02*
Y2084949D01*
X2699942Y2080949D02*
X2707942D01*
X2703942Y2076949D02*
Y2084949D01*
X2759574Y2057835D02*
X2789574D01*
X2774574Y2042835D02*
Y2072835D01*
X2388480Y2057835D02*
X2418480D01*
X2403480Y2042835D02*
Y2072835D01*
X2862792Y2126923D02*
X2872792D01*
X2867792Y2121923D02*
Y2131923D01*
X2862792Y2152323D02*
X2872792D01*
X2867792Y2147323D02*
Y2157323D01*
X2862792Y2177723D02*
X2872792D01*
X2867792Y2172723D02*
Y2182723D01*
X2929560Y2125881D02*
X2938560D01*
X2934060Y2121381D02*
Y2130381D01*
X2929560Y2090881D02*
X2938560D01*
X2934060Y2086381D02*
Y2095381D01*
X2983602Y2057835D02*
X3013602D01*
X2998602Y2042835D02*
Y2072835D01*
X2262328Y2112445D02*
X2271328D01*
X2266828Y2107945D02*
Y2116945D01*
X2287728Y2112445D02*
X2296728D01*
X2292228Y2107945D02*
Y2116945D01*
X2313128Y2112445D02*
X2322128D01*
X2317628Y2107945D02*
Y2116945D01*
X2338528Y2112445D02*
X2347528D01*
X2343028Y2107945D02*
Y2116945D01*
X2363928Y2112445D02*
X2372928D01*
X2368428Y2107945D02*
Y2116945D01*
X2389328Y2112445D02*
X2398328D01*
X2393828Y2107945D02*
Y2116945D01*
X2414728Y2112445D02*
X2423728D01*
X2419228Y2107945D02*
Y2116945D01*
X2440128Y2112445D02*
X2449128D01*
X2444628Y2107945D02*
Y2116945D01*
X2465528Y2112445D02*
X2474528D01*
X2470028Y2107945D02*
Y2116945D01*
X2490928Y2112445D02*
X2499928D01*
X2495428Y2107945D02*
Y2116945D01*
X2516328Y2112445D02*
X2525328D01*
X2520828Y2107945D02*
Y2116945D01*
X2541728Y2112445D02*
X2550728D01*
X2546228Y2107945D02*
Y2116945D01*
X2567128Y2112445D02*
X2576128D01*
X2571628Y2107945D02*
Y2116945D01*
X2592528Y2112445D02*
X2601528D01*
X2597028Y2107945D02*
Y2116945D01*
X2262328Y2188645D02*
X2271328D01*
X2266828Y2184145D02*
Y2193145D01*
X2287728Y2188645D02*
X2296728D01*
X2292228Y2184145D02*
Y2193145D01*
X2313128Y2188645D02*
X2322128D01*
X2317628Y2184145D02*
Y2193145D01*
X2338528Y2188645D02*
X2347528D01*
X2343028Y2184145D02*
Y2193145D01*
X2363928Y2188645D02*
X2372928D01*
X2368428Y2184145D02*
Y2193145D01*
X2389328Y2188645D02*
X2398328D01*
X2393828Y2184145D02*
Y2193145D01*
X2414728Y2188645D02*
X2423728D01*
X2419228Y2184145D02*
Y2193145D01*
X2440128Y2188645D02*
X2449128D01*
X2444628Y2184145D02*
Y2193145D01*
X2465528Y2188645D02*
X2474528D01*
X2470028Y2184145D02*
Y2193145D01*
X2490928Y2188645D02*
X2499928D01*
X2495428Y2184145D02*
Y2193145D01*
X2516328Y2188645D02*
X2525328D01*
X2520828Y2184145D02*
Y2193145D01*
X2541728Y2188645D02*
X2550728D01*
X2546228Y2184145D02*
Y2193145D01*
X2567128Y2188645D02*
X2576128D01*
X2571628Y2184145D02*
Y2193145D01*
X2592528Y2188645D02*
X2601528D01*
X2597028Y2184145D02*
Y2193145D01*
X2300420Y2139795D02*
X2308420D01*
X2304420Y2135795D02*
Y2143795D01*
X2300420Y2167795D02*
X2308420D01*
X2304420Y2163795D02*
Y2171795D01*
X2275020Y2139795D02*
X2283020D01*
X2279020Y2135795D02*
Y2143795D01*
X2275020Y2167795D02*
X2283020D01*
X2279020Y2163795D02*
Y2171795D01*
X2418974Y2140639D02*
X2426594D01*
X2422784Y2136829D02*
Y2144449D01*
X2482474Y2140639D02*
X2490094D01*
X2486284Y2136829D02*
Y2144449D01*
X2381446Y2139795D02*
X2389446D01*
X2385446Y2135795D02*
Y2143795D01*
X2381446Y2167795D02*
X2389446D01*
X2385446Y2163795D02*
Y2171795D01*
X2356046Y2139795D02*
X2364046D01*
X2360046Y2135795D02*
Y2143795D01*
X2356046Y2167795D02*
X2364046D01*
X2360046Y2163795D02*
Y2171795D01*
X2418974Y2160959D02*
X2426594D01*
X2422784Y2157149D02*
Y2164769D01*
X2482474Y2160959D02*
X2490094D01*
X2486284Y2157149D02*
Y2164769D01*
X2830891Y2252978D02*
X2838003D01*
X2834447Y2249422D02*
Y2256534D01*
X2642748Y2154101D02*
X2649860D01*
X2646304Y2150545D02*
Y2157657D01*
X2585228Y2479985D02*
X2595228D01*
X2590228Y2474985D02*
Y2484985D01*
X2559828Y2479985D02*
X2569828D01*
X2564828Y2474985D02*
Y2484985D01*
X2534428Y2479985D02*
X2544428D01*
X2539428Y2474985D02*
Y2484985D01*
X2509028Y2479985D02*
X2519028D01*
X2514028Y2474985D02*
Y2484985D01*
X2483628Y2479985D02*
X2493628D01*
X2488628Y2474985D02*
Y2484985D01*
X2622492Y2362945D02*
X2630492D01*
X2626492Y2358945D02*
Y2366945D01*
X2647892Y2362945D02*
X2655892D01*
X2651892Y2358945D02*
Y2366945D01*
X2673292Y2362945D02*
X2681292D01*
X2677292Y2358945D02*
Y2366945D01*
X2698692Y2362945D02*
X2706692D01*
X2702692Y2358945D02*
Y2366945D01*
X2724092Y2362945D02*
X2732092D01*
X2728092Y2358945D02*
Y2366945D01*
X2749492Y2362945D02*
X2757492D01*
X2753492Y2358945D02*
Y2366945D01*
X2774892Y2362945D02*
X2782892D01*
X2778892Y2358945D02*
Y2366945D01*
X2800292Y2362945D02*
X2808292D01*
X2804292Y2358945D02*
Y2366945D01*
X2622492Y2439145D02*
X2630492D01*
X2626492Y2435145D02*
Y2443145D01*
X2647892Y2439145D02*
X2655892D01*
X2651892Y2435145D02*
Y2443145D01*
X2673292Y2439145D02*
X2681292D01*
X2677292Y2435145D02*
Y2443145D01*
X2698692Y2439145D02*
X2706692D01*
X2702692Y2435145D02*
Y2443145D01*
X2724092Y2439145D02*
X2732092D01*
X2728092Y2435145D02*
Y2443145D01*
X2749492Y2439145D02*
X2757492D01*
X2753492Y2435145D02*
Y2443145D01*
X2774892Y2439145D02*
X2782892D01*
X2778892Y2435145D02*
Y2443145D01*
X2800292Y2439145D02*
X2808292D01*
X2804292Y2435145D02*
Y2443145D01*
X2699942Y2471336D02*
X2707942D01*
X2703942Y2467336D02*
Y2475336D01*
X2719942Y2471336D02*
X2727942D01*
X2723942Y2467336D02*
Y2475336D01*
X2929078Y2428029D02*
X2938078D01*
X2933578Y2423529D02*
Y2432529D01*
X2929078Y2463029D02*
X2938078D01*
X2933578Y2458529D02*
Y2467529D01*
X2983602Y2496557D02*
X3013602D01*
X2998602Y2481557D02*
Y2511557D01*
X2336244Y2479685D02*
X2346244D01*
X2341244Y2474685D02*
Y2484685D01*
X2310844Y2479685D02*
X2320844D01*
X2315844Y2474685D02*
Y2484685D01*
X2285444Y2479685D02*
X2295444D01*
X2290444Y2474685D02*
Y2484685D01*
X2260044Y2479685D02*
X2270044D01*
X2265044Y2474685D02*
Y2484685D01*
X2392304Y2477480D02*
X2399924D01*
X2396114Y2473670D02*
Y2481290D01*
X2455804Y2477480D02*
X2463424D01*
X2459614Y2473670D02*
Y2481290D01*
X2455804Y2458149D02*
X2463424D01*
X2459614Y2454339D02*
Y2461959D01*
X2392304Y2458149D02*
X2399924D01*
X2396114Y2454339D02*
Y2461959D01*
X2392304Y2496811D02*
X2399924D01*
X2396114Y2493001D02*
Y2500621D01*
X2455804Y2496811D02*
X2463424D01*
X2459614Y2493001D02*
Y2500621D01*
X2259944Y2322059D02*
X2269944D01*
X2264944Y2317059D02*
Y2327059D01*
X2285344Y2322059D02*
X2295344D01*
X2290344Y2317059D02*
Y2327059D01*
X2310744Y2322059D02*
X2320744D01*
X2315744Y2317059D02*
Y2327059D01*
X2336144Y2322059D02*
X2346144D01*
X2341144Y2317059D02*
Y2327059D01*
X2509596Y2311645D02*
X2517216D01*
X2513406Y2307835D02*
Y2315455D01*
X2446096Y2311645D02*
X2453716D01*
X2449906Y2307835D02*
Y2315455D01*
X2544768Y2310883D02*
X2552768D01*
X2548768Y2306883D02*
Y2314883D01*
X2544768Y2336283D02*
X2552768D01*
X2548768Y2332283D02*
Y2340283D01*
X2719942Y2330949D02*
X2727942D01*
X2723942Y2326949D02*
Y2334949D01*
X2699942Y2330949D02*
X2707942D01*
X2703942Y2326949D02*
Y2334949D01*
X2759574Y2307835D02*
X2789574D01*
X2774574Y2292835D02*
Y2322835D01*
X2388480Y2307835D02*
X2418480D01*
X2403480Y2292835D02*
Y2322835D01*
X2862792Y2376923D02*
X2872792D01*
X2867792Y2371923D02*
Y2381923D01*
X2862792Y2402323D02*
X2872792D01*
X2867792Y2397323D02*
Y2407323D01*
X2862792Y2427723D02*
X2872792D01*
X2867792Y2422723D02*
Y2432723D01*
X2929560Y2375881D02*
X2938560D01*
X2934060Y2371381D02*
Y2380381D01*
X2929560Y2340881D02*
X2938560D01*
X2934060Y2336381D02*
Y2345381D01*
X2983602Y2307835D02*
X3013602D01*
X2998602Y2292835D02*
Y2322835D01*
X2262328Y2362445D02*
X2271328D01*
X2266828Y2357945D02*
Y2366945D01*
X2287728Y2362445D02*
X2296728D01*
X2292228Y2357945D02*
Y2366945D01*
X2313128Y2362445D02*
X2322128D01*
X2317628Y2357945D02*
Y2366945D01*
X2338528Y2362445D02*
X2347528D01*
X2343028Y2357945D02*
Y2366945D01*
X2363928Y2362445D02*
X2372928D01*
X2368428Y2357945D02*
Y2366945D01*
X2389328Y2362445D02*
X2398328D01*
X2393828Y2357945D02*
Y2366945D01*
X2414728Y2362445D02*
X2423728D01*
X2419228Y2357945D02*
Y2366945D01*
X2440128Y2362445D02*
X2449128D01*
X2444628Y2357945D02*
Y2366945D01*
X2465528Y2362445D02*
X2474528D01*
X2470028Y2357945D02*
Y2366945D01*
X2490928Y2362445D02*
X2499928D01*
X2495428Y2357945D02*
Y2366945D01*
X2516328Y2362445D02*
X2525328D01*
X2520828Y2357945D02*
Y2366945D01*
X2541728Y2362445D02*
X2550728D01*
X2546228Y2357945D02*
Y2366945D01*
X2567128Y2362445D02*
X2576128D01*
X2571628Y2357945D02*
Y2366945D01*
X2592528Y2362445D02*
X2601528D01*
X2597028Y2357945D02*
Y2366945D01*
X2262328Y2438645D02*
X2271328D01*
X2266828Y2434145D02*
Y2443145D01*
X2287728Y2438645D02*
X2296728D01*
X2292228Y2434145D02*
Y2443145D01*
X2313128Y2438645D02*
X2322128D01*
X2317628Y2434145D02*
Y2443145D01*
X2338528Y2438645D02*
X2347528D01*
X2343028Y2434145D02*
Y2443145D01*
X2363928Y2438645D02*
X2372928D01*
X2368428Y2434145D02*
Y2443145D01*
X2389328Y2438645D02*
X2398328D01*
X2393828Y2434145D02*
Y2443145D01*
X2414728Y2438645D02*
X2423728D01*
X2419228Y2434145D02*
Y2443145D01*
X2440128Y2438645D02*
X2449128D01*
X2444628Y2434145D02*
Y2443145D01*
X2465528Y2438645D02*
X2474528D01*
X2470028Y2434145D02*
Y2443145D01*
X2490928Y2438645D02*
X2499928D01*
X2495428Y2434145D02*
Y2443145D01*
X2516328Y2438645D02*
X2525328D01*
X2520828Y2434145D02*
Y2443145D01*
X2541728Y2438645D02*
X2550728D01*
X2546228Y2434145D02*
Y2443145D01*
X2567128Y2438645D02*
X2576128D01*
X2571628Y2434145D02*
Y2443145D01*
X2592528Y2438645D02*
X2601528D01*
X2597028Y2434145D02*
Y2443145D01*
X2300420Y2389795D02*
X2308420D01*
X2304420Y2385795D02*
Y2393795D01*
X2300420Y2417795D02*
X2308420D01*
X2304420Y2413795D02*
Y2421795D01*
X2275020Y2389795D02*
X2283020D01*
X2279020Y2385795D02*
Y2393795D01*
X2275020Y2417795D02*
X2283020D01*
X2279020Y2413795D02*
Y2421795D01*
X2418974Y2390639D02*
X2426594D01*
X2422784Y2386829D02*
Y2394449D01*
X2482474Y2390639D02*
X2490094D01*
X2486284Y2386829D02*
Y2394449D01*
X2381446Y2389795D02*
X2389446D01*
X2385446Y2385795D02*
Y2393795D01*
X2381446Y2417795D02*
X2389446D01*
X2385446Y2413795D02*
Y2421795D01*
X2356046Y2389795D02*
X2364046D01*
X2360046Y2385795D02*
Y2393795D01*
X2356046Y2417795D02*
X2364046D01*
X2360046Y2413795D02*
Y2421795D01*
X2418974Y2410959D02*
X2426594D01*
X2422784Y2407149D02*
Y2414769D01*
X2482474Y2410959D02*
X2490094D01*
X2486284Y2407149D02*
Y2414769D01*
X2830891Y2502978D02*
X2838003D01*
X2834447Y2499422D02*
Y2506534D01*
X2642748Y2404101D02*
X2649860D01*
X2646304Y2400545D02*
Y2407657D01*
M02*
