%TF.GenerationSoftware,Altium Limited,Altium Designer,21.4.1 (30)*%
G04 Layer_Color=8421504*
%FSLAX26Y26*%
%MOIN*%
%TF.SameCoordinates,FA171619-A988-4B02-9C22-6D3C25DF24D0*%
%TF.FilePolarity,Positive*%
%TF.FileFunction,Paste,Top*%
%TF.Part,ProductionPanel*%
G01*
G75*
%TA.AperFunction,SMDPad,CuDef*%
%ADD11C,0.133858*%
G04:AMPARAMS|DCode=12|XSize=133.858mil|YSize=133.858mil|CornerRadius=33.465mil|HoleSize=0mil|Usage=FLASHONLY|Rotation=0.000|XOffset=0mil|YOffset=0mil|HoleType=Round|Shape=RoundedRectangle|*
%AMROUNDEDRECTD12*
21,1,0.133858,0.066929,0,0,0.0*
21,1,0.066929,0.133858,0,0,0.0*
1,1,0.066929,0.033465,-0.033465*
1,1,0.066929,-0.033465,-0.033465*
1,1,0.066929,-0.033465,0.033465*
1,1,0.066929,0.033465,0.033465*
%
%ADD12ROUNDEDRECTD12*%
%ADD13R,0.023622X0.033465*%
%ADD14R,0.078740X0.059055*%
%ADD15R,0.015748X0.078740*%
D11*
X3768441Y595397D02*
D03*
Y1579649D02*
D03*
Y2563901D02*
D03*
Y3548153D02*
D03*
D12*
Y402484D02*
D03*
Y1386736D02*
D03*
Y2370988D02*
D03*
Y3355240D02*
D03*
D13*
X2985936Y448397D02*
D03*
X2936944D02*
D03*
X1882937Y504397D02*
D03*
X1833944D02*
D03*
X1882937Y431397D02*
D03*
X1833944D02*
D03*
X3298324Y778397D02*
D03*
X3249332D02*
D03*
X2985936Y532397D02*
D03*
X2936944D02*
D03*
X2985936Y1432649D02*
D03*
X2936944D02*
D03*
X1882937Y1488649D02*
D03*
X1833944D02*
D03*
X1882937Y1415649D02*
D03*
X1833944D02*
D03*
X3298324Y1762649D02*
D03*
X3249332D02*
D03*
X2985936Y1516649D02*
D03*
X2936944D02*
D03*
X2985936Y2416901D02*
D03*
X2936944D02*
D03*
X1882937Y2472901D02*
D03*
X1833944D02*
D03*
X1882937Y2399901D02*
D03*
X1833944D02*
D03*
X3298324Y2746901D02*
D03*
X3249332D02*
D03*
X2985936Y2500901D02*
D03*
X2936944D02*
D03*
X2985936Y3401153D02*
D03*
X2936944D02*
D03*
X1882937Y3457153D02*
D03*
X1833944D02*
D03*
X1882937Y3384153D02*
D03*
X1833944D02*
D03*
X3298324Y3731153D02*
D03*
X3249332D02*
D03*
X2985936Y3485153D02*
D03*
X2936944D02*
D03*
D14*
X3117441Y422031D02*
D03*
Y567031D02*
D03*
X3118441Y495031D02*
D03*
X3117441Y1406283D02*
D03*
Y1551283D02*
D03*
X3118441Y1479283D02*
D03*
X3117441Y2390535D02*
D03*
Y2535535D02*
D03*
X3118441Y2463535D02*
D03*
X3117441Y3374787D02*
D03*
Y3519787D02*
D03*
X3118441Y3447787D02*
D03*
D15*
X1691196Y234397D02*
D03*
X1738440D02*
D03*
X1785685D02*
D03*
X1691196Y1218649D02*
D03*
X1738440D02*
D03*
X1785685D02*
D03*
X1691196Y2202901D02*
D03*
X1738440D02*
D03*
X1785685D02*
D03*
X1691196Y3187153D02*
D03*
X1738440D02*
D03*
X1785685D02*
D03*
%TF.MD5,3d05a51f5f63e8293d4e713675993346*%
M02*
