%TF.GenerationSoftware,Altium Limited,Altium Designer,21.4.1 (30)*%
G04 Layer_Color=2752767*
%FSLAX26Y26*%
%MOIN*%
%TF.SameCoordinates,FA171619-A988-4B02-9C22-6D3C25DF24D0*%
%TF.FilePolarity,Positive*%
%TF.FileFunction,Drawing*%
%TF.Part,ProductionPanel*%
G01*
G75*
%TA.AperFunction,NonConductor*%
%ADD87C,0.005000*%
%ADD88C,0.006667*%
D87*
X2142669Y779153D02*
Y819153D01*
X2182669D01*
Y779153D01*
X2142669D01*
X2042669D02*
Y819153D01*
X2082669D01*
Y779153D01*
X2042669D01*
X1942669D02*
Y819153D01*
X1982669D01*
Y779153D01*
X1942669D01*
X1842669D02*
Y819153D01*
X1882669D01*
Y779153D01*
X1842669D01*
X1742669D02*
Y819153D01*
X1782669D01*
Y779153D01*
X1742669D01*
X3514441Y574602D02*
X3494441Y614602D01*
X3534441D01*
X3514441Y574602D01*
Y712397D02*
X3494441Y752397D01*
X3534441D01*
X3514441Y712397D01*
X3770441Y844397D02*
X3780441Y854397D01*
X3790441D01*
X3780441Y864397D01*
X3790441Y874397D01*
X3780441D01*
X3770441Y884397D01*
X3760441Y874397D01*
X3750441D01*
X3760441Y864397D01*
X3750441Y854397D01*
X3760441D01*
X3770441Y844397D01*
X1162417Y777972D02*
Y817972D01*
X1202417D01*
Y777972D01*
X1162417D01*
X1062417D02*
Y817972D01*
X1102417D01*
Y777972D01*
X1062417D01*
X962417D02*
Y817972D01*
X1002417D01*
Y777972D01*
X962417D01*
X862417D02*
Y817972D01*
X902417D01*
Y777972D01*
X862417D01*
X1378440Y769291D02*
X1388440Y789291D01*
X1378440Y809291D01*
X1398440Y799291D01*
X1418440Y809291D01*
X1408440Y789291D01*
X1418440Y769291D01*
X1398440Y779291D01*
X1378440Y769291D01*
X1628440D02*
X1638440Y789291D01*
X1628440Y809291D01*
X1648440Y799291D01*
X1668440Y809291D01*
X1658440Y789291D01*
X1668440Y769291D01*
X1648440Y779291D01*
X1628440Y769291D01*
Y693185D02*
X1638440Y713185D01*
X1628440Y733185D01*
X1648440Y723185D01*
X1668440Y733185D01*
X1658440Y713185D01*
X1668440Y693185D01*
X1648440Y703185D01*
X1628440Y693185D01*
X1378440D02*
X1388440Y713185D01*
X1378440Y733185D01*
X1398440Y723185D01*
X1418440Y733185D01*
X1408440Y713185D01*
X1418440Y693185D01*
X1398440Y703185D01*
X1378440Y693185D01*
Y845397D02*
X1388440Y865397D01*
X1378440Y885397D01*
X1398440Y875397D01*
X1418440Y885397D01*
X1408440Y865397D01*
X1418440Y845397D01*
X1398440Y855397D01*
X1378440Y845397D01*
X1628440D02*
X1638440Y865397D01*
X1628440Y885397D01*
X1648440Y875397D01*
X1668440Y885397D01*
X1658440Y865397D01*
X1668440Y845397D01*
X1648440Y855397D01*
X1628440Y845397D01*
X862023Y157397D02*
Y197397D01*
X902023D01*
Y157397D01*
X862023D01*
X962023D02*
Y197397D01*
X1002023D01*
Y157397D01*
X962023D01*
X1062023D02*
Y197397D01*
X1102023D01*
Y157397D01*
X1062023D01*
X1162023D02*
Y197397D01*
X1202023D01*
Y157397D01*
X1162023D01*
X1840222Y116397D02*
X1850222Y136397D01*
X1840222Y156397D01*
X1860222Y146397D01*
X1880222Y156397D01*
X1870222Y136397D01*
X1880222Y116397D01*
X1860222Y126397D01*
X1840222Y116397D01*
X1590222D02*
X1600222Y136397D01*
X1590222Y156397D01*
X1610222Y146397D01*
X1630222Y156397D01*
X1620222Y136397D01*
X1630222Y116397D01*
X1610222Y126397D01*
X1590222Y116397D01*
X2888441Y101397D02*
X2898441Y111397D01*
X2908441D01*
X2898441Y121397D01*
X2908441Y131397D01*
X2898441D01*
X2888441Y141397D01*
X2878441Y131397D01*
X2868441D01*
X2878441Y121397D01*
X2868441Y111397D01*
X2878441D01*
X2888441Y101397D01*
X1427440D02*
X1437440Y111397D01*
X1447440D01*
X1437440Y121397D01*
X1447440Y131397D01*
X1437440D01*
X1427440Y141397D01*
X1417440Y131397D01*
X1407440D01*
X1417440Y121397D01*
X1407440Y111397D01*
X1417440D01*
X1427440Y101397D01*
X3235441Y373397D02*
Y413397D01*
X3275441D01*
Y373397D01*
X3235441D01*
Y473397D02*
Y513397D01*
X3275441D01*
Y473397D01*
X3235441D01*
Y573397D02*
Y613397D01*
X3275441D01*
Y573397D01*
X3235441D01*
X3516338Y369295D02*
X3496338Y409295D01*
X3536338D01*
X3516338Y369295D01*
Y231500D02*
X3496338Y271500D01*
X3536338D01*
X3516338Y231500D01*
X3770441Y101397D02*
X3780441Y111397D01*
X3790441D01*
X3780441Y121397D01*
X3790441Y131397D01*
X3780441D01*
X3770441Y141397D01*
X3760441Y131397D01*
X3750441D01*
X3760441Y121397D01*
X3750441Y111397D01*
X3760441D01*
X3770441Y101397D01*
X889441Y316397D02*
X869441Y356397D01*
X909441D01*
X889441Y316397D01*
X989441D02*
X969441Y356397D01*
X1009441D01*
X989441Y316397D01*
X1089440D02*
X1069440Y356397D01*
X1109440D01*
X1089440Y316397D01*
X1189440D02*
X1169440Y356397D01*
X1209440D01*
X1189440Y316397D01*
X1289440D02*
X1269440Y356397D01*
X1309440D01*
X1289440Y316397D01*
X1389440D02*
X1369440Y356397D01*
X1409440D01*
X1389440Y316397D01*
X1489440D02*
X1469440Y356397D01*
X1509440D01*
X1489440Y316397D01*
X1589440D02*
X1569440Y356397D01*
X1609440D01*
X1589440Y316397D01*
X1689440D02*
X1669440Y356397D01*
X1709440D01*
X1689440Y316397D01*
X1789440D02*
X1769440Y356397D01*
X1809440D01*
X1789440Y316397D01*
X1889440D02*
X1869440Y356397D01*
X1909440D01*
X1889440Y316397D01*
X1989440D02*
X1969440Y356397D01*
X2009440D01*
X1989440Y316397D01*
X2089441D02*
X2069441Y356397D01*
X2109441D01*
X2089441Y316397D01*
X2189441D02*
X2169441Y356397D01*
X2209441D01*
X2189441Y316397D01*
X889441Y616397D02*
X869441Y656397D01*
X909441D01*
X889441Y616397D01*
X989441D02*
X969441Y656397D01*
X1009441D01*
X989441Y616397D01*
X1089440D02*
X1069440Y656397D01*
X1109440D01*
X1089440Y616397D01*
X1189440D02*
X1169440Y656397D01*
X1209440D01*
X1189440Y616397D01*
X1289440D02*
X1269440Y656397D01*
X1309440D01*
X1289440Y616397D01*
X1389440D02*
X1369440Y656397D01*
X1409440D01*
X1389440Y616397D01*
X1489440D02*
X1469440Y656397D01*
X1509440D01*
X1489440Y616397D01*
X1589440D02*
X1569440Y656397D01*
X1609440D01*
X1589440Y616397D01*
X1689440D02*
X1669440Y656397D01*
X1709440D01*
X1689440Y616397D01*
X1789440D02*
X1769440Y656397D01*
X1809440D01*
X1789440Y616397D01*
X1889440D02*
X1869440Y656397D01*
X1909440D01*
X1889440Y616397D01*
X1989440D02*
X1969440Y656397D01*
X2009440D01*
X1989440Y616397D01*
X2089441D02*
X2069441Y656397D01*
X2109441D01*
X2089441Y616397D01*
X2189441D02*
X2169441Y656397D01*
X2209441D01*
X2189441Y616397D01*
X1483440Y427397D02*
X1493440Y447397D01*
X1483440Y467397D01*
X1503440Y457397D01*
X1523440Y467397D01*
X1513440Y447397D01*
X1523440Y427397D01*
X1503440Y437397D01*
X1483440Y427397D01*
X1733440D02*
X1743440Y447397D01*
X1733440Y467397D01*
X1753440Y457397D01*
X1773440Y467397D01*
X1763440Y447397D01*
X1773440Y427397D01*
X1753440Y437397D01*
X1733440Y427397D01*
X1483440Y507397D02*
X1493440Y527397D01*
X1483440Y547397D01*
X1503440Y537397D01*
X1523440Y547397D01*
X1513440Y527397D01*
X1523440Y507397D01*
X1503440Y517397D01*
X1483440Y507397D01*
X1733440D02*
X1743440Y527397D01*
X1733440Y547397D01*
X1753440Y537397D01*
X1773440Y547397D01*
X1763440Y527397D01*
X1773440Y507397D01*
X1753440Y517397D01*
X1733440Y507397D01*
X3114160Y879678D02*
Y869678D01*
X3134160D01*
Y879678D01*
X3144160D01*
Y899678D01*
X3134160D01*
Y909678D01*
X3114160D01*
Y899678D01*
X3104160D01*
Y879678D01*
X3114160D01*
X2373441Y490397D02*
Y480397D01*
X2393441D01*
Y490397D01*
X2403441D01*
Y510397D01*
X2393441D01*
Y520397D01*
X2373441D01*
Y510397D01*
X2363441D01*
Y490397D01*
X2373441D01*
X2142669Y1763405D02*
Y1803405D01*
X2182669D01*
Y1763405D01*
X2142669D01*
X2042669D02*
Y1803405D01*
X2082669D01*
Y1763405D01*
X2042669D01*
X1942669D02*
Y1803405D01*
X1982669D01*
Y1763405D01*
X1942669D01*
X1842669D02*
Y1803405D01*
X1882669D01*
Y1763405D01*
X1842669D01*
X1742669D02*
Y1803405D01*
X1782669D01*
Y1763405D01*
X1742669D01*
X3514441Y1558854D02*
X3494441Y1598854D01*
X3534441D01*
X3514441Y1558854D01*
Y1696649D02*
X3494441Y1736649D01*
X3534441D01*
X3514441Y1696649D01*
X3770441Y1828649D02*
X3780441Y1838649D01*
X3790441D01*
X3780441Y1848649D01*
X3790441Y1858649D01*
X3780441D01*
X3770441Y1868649D01*
X3760441Y1858649D01*
X3750441D01*
X3760441Y1848649D01*
X3750441Y1838649D01*
X3760441D01*
X3770441Y1828649D01*
X1162417Y1762224D02*
Y1802224D01*
X1202417D01*
Y1762224D01*
X1162417D01*
X1062417D02*
Y1802224D01*
X1102417D01*
Y1762224D01*
X1062417D01*
X962417D02*
Y1802224D01*
X1002417D01*
Y1762224D01*
X962417D01*
X862417D02*
Y1802224D01*
X902417D01*
Y1762224D01*
X862417D01*
X1378440Y1753543D02*
X1388440Y1773543D01*
X1378440Y1793543D01*
X1398440Y1783543D01*
X1418440Y1793543D01*
X1408440Y1773543D01*
X1418440Y1753543D01*
X1398440Y1763543D01*
X1378440Y1753543D01*
X1628440D02*
X1638440Y1773543D01*
X1628440Y1793543D01*
X1648440Y1783543D01*
X1668440Y1793543D01*
X1658440Y1773543D01*
X1668440Y1753543D01*
X1648440Y1763543D01*
X1628440Y1753543D01*
Y1677437D02*
X1638440Y1697437D01*
X1628440Y1717437D01*
X1648440Y1707437D01*
X1668440Y1717437D01*
X1658440Y1697437D01*
X1668440Y1677437D01*
X1648440Y1687437D01*
X1628440Y1677437D01*
X1378440D02*
X1388440Y1697437D01*
X1378440Y1717437D01*
X1398440Y1707437D01*
X1418440Y1717437D01*
X1408440Y1697437D01*
X1418440Y1677437D01*
X1398440Y1687437D01*
X1378440Y1677437D01*
Y1829649D02*
X1388440Y1849649D01*
X1378440Y1869649D01*
X1398440Y1859649D01*
X1418440Y1869649D01*
X1408440Y1849649D01*
X1418440Y1829649D01*
X1398440Y1839649D01*
X1378440Y1829649D01*
X1628440D02*
X1638440Y1849649D01*
X1628440Y1869649D01*
X1648440Y1859649D01*
X1668440Y1869649D01*
X1658440Y1849649D01*
X1668440Y1829649D01*
X1648440Y1839649D01*
X1628440Y1829649D01*
X862023Y1141649D02*
Y1181649D01*
X902023D01*
Y1141649D01*
X862023D01*
X962023D02*
Y1181649D01*
X1002023D01*
Y1141649D01*
X962023D01*
X1062023D02*
Y1181649D01*
X1102023D01*
Y1141649D01*
X1062023D01*
X1162023D02*
Y1181649D01*
X1202023D01*
Y1141649D01*
X1162023D01*
X1840222Y1100649D02*
X1850222Y1120649D01*
X1840222Y1140649D01*
X1860222Y1130649D01*
X1880222Y1140649D01*
X1870222Y1120649D01*
X1880222Y1100649D01*
X1860222Y1110649D01*
X1840222Y1100649D01*
X1590222D02*
X1600222Y1120649D01*
X1590222Y1140649D01*
X1610222Y1130649D01*
X1630222Y1140649D01*
X1620222Y1120649D01*
X1630222Y1100649D01*
X1610222Y1110649D01*
X1590222Y1100649D01*
X2888441Y1085649D02*
X2898441Y1095649D01*
X2908441D01*
X2898441Y1105649D01*
X2908441Y1115649D01*
X2898441D01*
X2888441Y1125649D01*
X2878441Y1115649D01*
X2868441D01*
X2878441Y1105649D01*
X2868441Y1095649D01*
X2878441D01*
X2888441Y1085649D01*
X1427440D02*
X1437440Y1095649D01*
X1447440D01*
X1437440Y1105649D01*
X1447440Y1115649D01*
X1437440D01*
X1427440Y1125649D01*
X1417440Y1115649D01*
X1407440D01*
X1417440Y1105649D01*
X1407440Y1095649D01*
X1417440D01*
X1427440Y1085649D01*
X3235441Y1357649D02*
Y1397649D01*
X3275441D01*
Y1357649D01*
X3235441D01*
Y1457649D02*
Y1497649D01*
X3275441D01*
Y1457649D01*
X3235441D01*
Y1557649D02*
Y1597649D01*
X3275441D01*
Y1557649D01*
X3235441D01*
X3516338Y1353547D02*
X3496338Y1393547D01*
X3536338D01*
X3516338Y1353547D01*
Y1215752D02*
X3496338Y1255752D01*
X3536338D01*
X3516338Y1215752D01*
X3770441Y1085649D02*
X3780441Y1095649D01*
X3790441D01*
X3780441Y1105649D01*
X3790441Y1115649D01*
X3780441D01*
X3770441Y1125649D01*
X3760441Y1115649D01*
X3750441D01*
X3760441Y1105649D01*
X3750441Y1095649D01*
X3760441D01*
X3770441Y1085649D01*
X889441Y1300649D02*
X869441Y1340649D01*
X909441D01*
X889441Y1300649D01*
X989441D02*
X969441Y1340649D01*
X1009441D01*
X989441Y1300649D01*
X1089440D02*
X1069440Y1340649D01*
X1109440D01*
X1089440Y1300649D01*
X1189440D02*
X1169440Y1340649D01*
X1209440D01*
X1189440Y1300649D01*
X1289440D02*
X1269440Y1340649D01*
X1309440D01*
X1289440Y1300649D01*
X1389440D02*
X1369440Y1340649D01*
X1409440D01*
X1389440Y1300649D01*
X1489440D02*
X1469440Y1340649D01*
X1509440D01*
X1489440Y1300649D01*
X1589440D02*
X1569440Y1340649D01*
X1609440D01*
X1589440Y1300649D01*
X1689440D02*
X1669440Y1340649D01*
X1709440D01*
X1689440Y1300649D01*
X1789440D02*
X1769440Y1340649D01*
X1809440D01*
X1789440Y1300649D01*
X1889440D02*
X1869440Y1340649D01*
X1909440D01*
X1889440Y1300649D01*
X1989440D02*
X1969440Y1340649D01*
X2009440D01*
X1989440Y1300649D01*
X2089441D02*
X2069441Y1340649D01*
X2109441D01*
X2089441Y1300649D01*
X2189441D02*
X2169441Y1340649D01*
X2209441D01*
X2189441Y1300649D01*
X889441Y1600649D02*
X869441Y1640649D01*
X909441D01*
X889441Y1600649D01*
X989441D02*
X969441Y1640649D01*
X1009441D01*
X989441Y1600649D01*
X1089440D02*
X1069440Y1640649D01*
X1109440D01*
X1089440Y1600649D01*
X1189440D02*
X1169440Y1640649D01*
X1209440D01*
X1189440Y1600649D01*
X1289440D02*
X1269440Y1640649D01*
X1309440D01*
X1289440Y1600649D01*
X1389440D02*
X1369440Y1640649D01*
X1409440D01*
X1389440Y1600649D01*
X1489440D02*
X1469440Y1640649D01*
X1509440D01*
X1489440Y1600649D01*
X1589440D02*
X1569440Y1640649D01*
X1609440D01*
X1589440Y1600649D01*
X1689440D02*
X1669440Y1640649D01*
X1709440D01*
X1689440Y1600649D01*
X1789440D02*
X1769440Y1640649D01*
X1809440D01*
X1789440Y1600649D01*
X1889440D02*
X1869440Y1640649D01*
X1909440D01*
X1889440Y1600649D01*
X1989440D02*
X1969440Y1640649D01*
X2009440D01*
X1989440Y1600649D01*
X2089441D02*
X2069441Y1640649D01*
X2109441D01*
X2089441Y1600649D01*
X2189441D02*
X2169441Y1640649D01*
X2209441D01*
X2189441Y1600649D01*
X1483440Y1411649D02*
X1493440Y1431649D01*
X1483440Y1451649D01*
X1503440Y1441649D01*
X1523440Y1451649D01*
X1513440Y1431649D01*
X1523440Y1411649D01*
X1503440Y1421649D01*
X1483440Y1411649D01*
X1733440D02*
X1743440Y1431649D01*
X1733440Y1451649D01*
X1753440Y1441649D01*
X1773440Y1451649D01*
X1763440Y1431649D01*
X1773440Y1411649D01*
X1753440Y1421649D01*
X1733440Y1411649D01*
X1483440Y1491649D02*
X1493440Y1511649D01*
X1483440Y1531649D01*
X1503440Y1521649D01*
X1523440Y1531649D01*
X1513440Y1511649D01*
X1523440Y1491649D01*
X1503440Y1501649D01*
X1483440Y1491649D01*
X1733440D02*
X1743440Y1511649D01*
X1733440Y1531649D01*
X1753440Y1521649D01*
X1773440Y1531649D01*
X1763440Y1511649D01*
X1773440Y1491649D01*
X1753440Y1501649D01*
X1733440Y1491649D01*
X3114160Y1863930D02*
Y1853930D01*
X3134160D01*
Y1863930D01*
X3144160D01*
Y1883930D01*
X3134160D01*
Y1893930D01*
X3114160D01*
Y1883930D01*
X3104160D01*
Y1863930D01*
X3114160D01*
X2373441Y1474649D02*
Y1464649D01*
X2393441D01*
Y1474649D01*
X2403441D01*
Y1494649D01*
X2393441D01*
Y1504649D01*
X2373441D01*
Y1494649D01*
X2363441D01*
Y1474649D01*
X2373441D01*
X2142669Y2747657D02*
Y2787657D01*
X2182669D01*
Y2747657D01*
X2142669D01*
X2042669D02*
Y2787657D01*
X2082669D01*
Y2747657D01*
X2042669D01*
X1942669D02*
Y2787657D01*
X1982669D01*
Y2747657D01*
X1942669D01*
X1842669D02*
Y2787657D01*
X1882669D01*
Y2747657D01*
X1842669D01*
X1742669D02*
Y2787657D01*
X1782669D01*
Y2747657D01*
X1742669D01*
X3514441Y2543106D02*
X3494441Y2583106D01*
X3534441D01*
X3514441Y2543106D01*
Y2680901D02*
X3494441Y2720901D01*
X3534441D01*
X3514441Y2680901D01*
X3770441Y2812901D02*
X3780441Y2822901D01*
X3790441D01*
X3780441Y2832901D01*
X3790441Y2842901D01*
X3780441D01*
X3770441Y2852901D01*
X3760441Y2842901D01*
X3750441D01*
X3760441Y2832901D01*
X3750441Y2822901D01*
X3760441D01*
X3770441Y2812901D01*
X1162417Y2746476D02*
Y2786476D01*
X1202417D01*
Y2746476D01*
X1162417D01*
X1062417D02*
Y2786476D01*
X1102417D01*
Y2746476D01*
X1062417D01*
X962417D02*
Y2786476D01*
X1002417D01*
Y2746476D01*
X962417D01*
X862417D02*
Y2786476D01*
X902417D01*
Y2746476D01*
X862417D01*
X1378440Y2737795D02*
X1388440Y2757795D01*
X1378440Y2777795D01*
X1398440Y2767795D01*
X1418440Y2777795D01*
X1408440Y2757795D01*
X1418440Y2737795D01*
X1398440Y2747795D01*
X1378440Y2737795D01*
X1628440D02*
X1638440Y2757795D01*
X1628440Y2777795D01*
X1648440Y2767795D01*
X1668440Y2777795D01*
X1658440Y2757795D01*
X1668440Y2737795D01*
X1648440Y2747795D01*
X1628440Y2737795D01*
Y2661689D02*
X1638440Y2681689D01*
X1628440Y2701689D01*
X1648440Y2691689D01*
X1668440Y2701689D01*
X1658440Y2681689D01*
X1668440Y2661689D01*
X1648440Y2671689D01*
X1628440Y2661689D01*
X1378440D02*
X1388440Y2681689D01*
X1378440Y2701689D01*
X1398440Y2691689D01*
X1418440Y2701689D01*
X1408440Y2681689D01*
X1418440Y2661689D01*
X1398440Y2671689D01*
X1378440Y2661689D01*
Y2813901D02*
X1388440Y2833901D01*
X1378440Y2853901D01*
X1398440Y2843901D01*
X1418440Y2853901D01*
X1408440Y2833901D01*
X1418440Y2813901D01*
X1398440Y2823901D01*
X1378440Y2813901D01*
X1628440D02*
X1638440Y2833901D01*
X1628440Y2853901D01*
X1648440Y2843901D01*
X1668440Y2853901D01*
X1658440Y2833901D01*
X1668440Y2813901D01*
X1648440Y2823901D01*
X1628440Y2813901D01*
X862023Y2125901D02*
Y2165901D01*
X902023D01*
Y2125901D01*
X862023D01*
X962023D02*
Y2165901D01*
X1002023D01*
Y2125901D01*
X962023D01*
X1062023D02*
Y2165901D01*
X1102023D01*
Y2125901D01*
X1062023D01*
X1162023D02*
Y2165901D01*
X1202023D01*
Y2125901D01*
X1162023D01*
X1840222Y2084901D02*
X1850222Y2104901D01*
X1840222Y2124901D01*
X1860222Y2114901D01*
X1880222Y2124901D01*
X1870222Y2104901D01*
X1880222Y2084901D01*
X1860222Y2094901D01*
X1840222Y2084901D01*
X1590222D02*
X1600222Y2104901D01*
X1590222Y2124901D01*
X1610222Y2114901D01*
X1630222Y2124901D01*
X1620222Y2104901D01*
X1630222Y2084901D01*
X1610222Y2094901D01*
X1590222Y2084901D01*
X2888441Y2069901D02*
X2898441Y2079901D01*
X2908441D01*
X2898441Y2089901D01*
X2908441Y2099901D01*
X2898441D01*
X2888441Y2109901D01*
X2878441Y2099901D01*
X2868441D01*
X2878441Y2089901D01*
X2868441Y2079901D01*
X2878441D01*
X2888441Y2069901D01*
X1427440D02*
X1437440Y2079901D01*
X1447440D01*
X1437440Y2089901D01*
X1447440Y2099901D01*
X1437440D01*
X1427440Y2109901D01*
X1417440Y2099901D01*
X1407440D01*
X1417440Y2089901D01*
X1407440Y2079901D01*
X1417440D01*
X1427440Y2069901D01*
X3235441Y2341901D02*
Y2381901D01*
X3275441D01*
Y2341901D01*
X3235441D01*
Y2441901D02*
Y2481901D01*
X3275441D01*
Y2441901D01*
X3235441D01*
Y2541901D02*
Y2581901D01*
X3275441D01*
Y2541901D01*
X3235441D01*
X3516338Y2337799D02*
X3496338Y2377799D01*
X3536338D01*
X3516338Y2337799D01*
Y2200004D02*
X3496338Y2240004D01*
X3536338D01*
X3516338Y2200004D01*
X3770441Y2069901D02*
X3780441Y2079901D01*
X3790441D01*
X3780441Y2089901D01*
X3790441Y2099901D01*
X3780441D01*
X3770441Y2109901D01*
X3760441Y2099901D01*
X3750441D01*
X3760441Y2089901D01*
X3750441Y2079901D01*
X3760441D01*
X3770441Y2069901D01*
X889441Y2284901D02*
X869441Y2324901D01*
X909441D01*
X889441Y2284901D01*
X989441D02*
X969441Y2324901D01*
X1009441D01*
X989441Y2284901D01*
X1089440D02*
X1069440Y2324901D01*
X1109440D01*
X1089440Y2284901D01*
X1189440D02*
X1169440Y2324901D01*
X1209440D01*
X1189440Y2284901D01*
X1289440D02*
X1269440Y2324901D01*
X1309440D01*
X1289440Y2284901D01*
X1389440D02*
X1369440Y2324901D01*
X1409440D01*
X1389440Y2284901D01*
X1489440D02*
X1469440Y2324901D01*
X1509440D01*
X1489440Y2284901D01*
X1589440D02*
X1569440Y2324901D01*
X1609440D01*
X1589440Y2284901D01*
X1689440D02*
X1669440Y2324901D01*
X1709440D01*
X1689440Y2284901D01*
X1789440D02*
X1769440Y2324901D01*
X1809440D01*
X1789440Y2284901D01*
X1889440D02*
X1869440Y2324901D01*
X1909440D01*
X1889440Y2284901D01*
X1989440D02*
X1969440Y2324901D01*
X2009440D01*
X1989440Y2284901D01*
X2089441D02*
X2069441Y2324901D01*
X2109441D01*
X2089441Y2284901D01*
X2189441D02*
X2169441Y2324901D01*
X2209441D01*
X2189441Y2284901D01*
X889441Y2584901D02*
X869441Y2624901D01*
X909441D01*
X889441Y2584901D01*
X989441D02*
X969441Y2624901D01*
X1009441D01*
X989441Y2584901D01*
X1089440D02*
X1069440Y2624901D01*
X1109440D01*
X1089440Y2584901D01*
X1189440D02*
X1169440Y2624901D01*
X1209440D01*
X1189440Y2584901D01*
X1289440D02*
X1269440Y2624901D01*
X1309440D01*
X1289440Y2584901D01*
X1389440D02*
X1369440Y2624901D01*
X1409440D01*
X1389440Y2584901D01*
X1489440D02*
X1469440Y2624901D01*
X1509440D01*
X1489440Y2584901D01*
X1589440D02*
X1569440Y2624901D01*
X1609440D01*
X1589440Y2584901D01*
X1689440D02*
X1669440Y2624901D01*
X1709440D01*
X1689440Y2584901D01*
X1789440D02*
X1769440Y2624901D01*
X1809440D01*
X1789440Y2584901D01*
X1889440D02*
X1869440Y2624901D01*
X1909440D01*
X1889440Y2584901D01*
X1989440D02*
X1969440Y2624901D01*
X2009440D01*
X1989440Y2584901D01*
X2089441D02*
X2069441Y2624901D01*
X2109441D01*
X2089441Y2584901D01*
X2189441D02*
X2169441Y2624901D01*
X2209441D01*
X2189441Y2584901D01*
X1483440Y2395901D02*
X1493440Y2415901D01*
X1483440Y2435901D01*
X1503440Y2425901D01*
X1523440Y2435901D01*
X1513440Y2415901D01*
X1523440Y2395901D01*
X1503440Y2405901D01*
X1483440Y2395901D01*
X1733440D02*
X1743440Y2415901D01*
X1733440Y2435901D01*
X1753440Y2425901D01*
X1773440Y2435901D01*
X1763440Y2415901D01*
X1773440Y2395901D01*
X1753440Y2405901D01*
X1733440Y2395901D01*
X1483440Y2475901D02*
X1493440Y2495901D01*
X1483440Y2515901D01*
X1503440Y2505901D01*
X1523440Y2515901D01*
X1513440Y2495901D01*
X1523440Y2475901D01*
X1503440Y2485901D01*
X1483440Y2475901D01*
X1733440D02*
X1743440Y2495901D01*
X1733440Y2515901D01*
X1753440Y2505901D01*
X1773440Y2515901D01*
X1763440Y2495901D01*
X1773440Y2475901D01*
X1753440Y2485901D01*
X1733440Y2475901D01*
X3114160Y2848182D02*
Y2838182D01*
X3134160D01*
Y2848182D01*
X3144160D01*
Y2868182D01*
X3134160D01*
Y2878182D01*
X3114160D01*
Y2868182D01*
X3104160D01*
Y2848182D01*
X3114160D01*
X2373441Y2458901D02*
Y2448901D01*
X2393441D01*
Y2458901D01*
X2403441D01*
Y2478901D01*
X2393441D01*
Y2488901D01*
X2373441D01*
Y2478901D01*
X2363441D01*
Y2458901D01*
X2373441D01*
X2142669Y3731909D02*
Y3771909D01*
X2182669D01*
Y3731909D01*
X2142669D01*
X2042669D02*
Y3771909D01*
X2082669D01*
Y3731909D01*
X2042669D01*
X1942669D02*
Y3771909D01*
X1982669D01*
Y3731909D01*
X1942669D01*
X1842669D02*
Y3771909D01*
X1882669D01*
Y3731909D01*
X1842669D01*
X1742669D02*
Y3771909D01*
X1782669D01*
Y3731909D01*
X1742669D01*
X3514441Y3527358D02*
X3494441Y3567358D01*
X3534441D01*
X3514441Y3527358D01*
Y3665153D02*
X3494441Y3705153D01*
X3534441D01*
X3514441Y3665153D01*
X3770441Y3797153D02*
X3780441Y3807153D01*
X3790441D01*
X3780441Y3817153D01*
X3790441Y3827153D01*
X3780441D01*
X3770441Y3837153D01*
X3760441Y3827153D01*
X3750441D01*
X3760441Y3817153D01*
X3750441Y3807153D01*
X3760441D01*
X3770441Y3797153D01*
X1162417Y3730728D02*
Y3770728D01*
X1202417D01*
Y3730728D01*
X1162417D01*
X1062417D02*
Y3770728D01*
X1102417D01*
Y3730728D01*
X1062417D01*
X962417D02*
Y3770728D01*
X1002417D01*
Y3730728D01*
X962417D01*
X862417D02*
Y3770728D01*
X902417D01*
Y3730728D01*
X862417D01*
X1378440Y3722047D02*
X1388440Y3742047D01*
X1378440Y3762047D01*
X1398440Y3752047D01*
X1418440Y3762047D01*
X1408440Y3742047D01*
X1418440Y3722047D01*
X1398440Y3732047D01*
X1378440Y3722047D01*
X1628440D02*
X1638440Y3742047D01*
X1628440Y3762047D01*
X1648440Y3752047D01*
X1668440Y3762047D01*
X1658440Y3742047D01*
X1668440Y3722047D01*
X1648440Y3732047D01*
X1628440Y3722047D01*
Y3645941D02*
X1638440Y3665941D01*
X1628440Y3685941D01*
X1648440Y3675941D01*
X1668440Y3685941D01*
X1658440Y3665941D01*
X1668440Y3645941D01*
X1648440Y3655941D01*
X1628440Y3645941D01*
X1378440D02*
X1388440Y3665941D01*
X1378440Y3685941D01*
X1398440Y3675941D01*
X1418440Y3685941D01*
X1408440Y3665941D01*
X1418440Y3645941D01*
X1398440Y3655941D01*
X1378440Y3645941D01*
Y3798153D02*
X1388440Y3818153D01*
X1378440Y3838153D01*
X1398440Y3828153D01*
X1418440Y3838153D01*
X1408440Y3818153D01*
X1418440Y3798153D01*
X1398440Y3808153D01*
X1378440Y3798153D01*
X1628440D02*
X1638440Y3818153D01*
X1628440Y3838153D01*
X1648440Y3828153D01*
X1668440Y3838153D01*
X1658440Y3818153D01*
X1668440Y3798153D01*
X1648440Y3808153D01*
X1628440Y3798153D01*
X862023Y3110153D02*
Y3150153D01*
X902023D01*
Y3110153D01*
X862023D01*
X962023D02*
Y3150153D01*
X1002023D01*
Y3110153D01*
X962023D01*
X1062023D02*
Y3150153D01*
X1102023D01*
Y3110153D01*
X1062023D01*
X1162023D02*
Y3150153D01*
X1202023D01*
Y3110153D01*
X1162023D01*
X1840222Y3069153D02*
X1850222Y3089153D01*
X1840222Y3109153D01*
X1860222Y3099153D01*
X1880222Y3109153D01*
X1870222Y3089153D01*
X1880222Y3069153D01*
X1860222Y3079153D01*
X1840222Y3069153D01*
X1590222D02*
X1600222Y3089153D01*
X1590222Y3109153D01*
X1610222Y3099153D01*
X1630222Y3109153D01*
X1620222Y3089153D01*
X1630222Y3069153D01*
X1610222Y3079153D01*
X1590222Y3069153D01*
X2888441Y3054153D02*
X2898441Y3064153D01*
X2908441D01*
X2898441Y3074153D01*
X2908441Y3084153D01*
X2898441D01*
X2888441Y3094153D01*
X2878441Y3084153D01*
X2868441D01*
X2878441Y3074153D01*
X2868441Y3064153D01*
X2878441D01*
X2888441Y3054153D01*
X1427440D02*
X1437440Y3064153D01*
X1447440D01*
X1437440Y3074153D01*
X1447440Y3084153D01*
X1437440D01*
X1427440Y3094153D01*
X1417440Y3084153D01*
X1407440D01*
X1417440Y3074153D01*
X1407440Y3064153D01*
X1417440D01*
X1427440Y3054153D01*
X3235441Y3326153D02*
Y3366153D01*
X3275441D01*
Y3326153D01*
X3235441D01*
Y3426153D02*
Y3466153D01*
X3275441D01*
Y3426153D01*
X3235441D01*
Y3526153D02*
Y3566153D01*
X3275441D01*
Y3526153D01*
X3235441D01*
X3516338Y3322051D02*
X3496338Y3362051D01*
X3536338D01*
X3516338Y3322051D01*
Y3184256D02*
X3496338Y3224256D01*
X3536338D01*
X3516338Y3184256D01*
X3770441Y3054153D02*
X3780441Y3064153D01*
X3790441D01*
X3780441Y3074153D01*
X3790441Y3084153D01*
X3780441D01*
X3770441Y3094153D01*
X3760441Y3084153D01*
X3750441D01*
X3760441Y3074153D01*
X3750441Y3064153D01*
X3760441D01*
X3770441Y3054153D01*
X889441Y3269153D02*
X869441Y3309153D01*
X909441D01*
X889441Y3269153D01*
X989441D02*
X969441Y3309153D01*
X1009441D01*
X989441Y3269153D01*
X1089440D02*
X1069440Y3309153D01*
X1109440D01*
X1089440Y3269153D01*
X1189440D02*
X1169440Y3309153D01*
X1209440D01*
X1189440Y3269153D01*
X1289440D02*
X1269440Y3309153D01*
X1309440D01*
X1289440Y3269153D01*
X1389440D02*
X1369440Y3309153D01*
X1409440D01*
X1389440Y3269153D01*
X1489440D02*
X1469440Y3309153D01*
X1509440D01*
X1489440Y3269153D01*
X1589440D02*
X1569440Y3309153D01*
X1609440D01*
X1589440Y3269153D01*
X1689440D02*
X1669440Y3309153D01*
X1709440D01*
X1689440Y3269153D01*
X1789440D02*
X1769440Y3309153D01*
X1809440D01*
X1789440Y3269153D01*
X1889440D02*
X1869440Y3309153D01*
X1909440D01*
X1889440Y3269153D01*
X1989440D02*
X1969440Y3309153D01*
X2009440D01*
X1989440Y3269153D01*
X2089441D02*
X2069441Y3309153D01*
X2109441D01*
X2089441Y3269153D01*
X2189441D02*
X2169441Y3309153D01*
X2209441D01*
X2189441Y3269153D01*
X889441Y3569153D02*
X869441Y3609153D01*
X909441D01*
X889441Y3569153D01*
X989441D02*
X969441Y3609153D01*
X1009441D01*
X989441Y3569153D01*
X1089440D02*
X1069440Y3609153D01*
X1109440D01*
X1089440Y3569153D01*
X1189440D02*
X1169440Y3609153D01*
X1209440D01*
X1189440Y3569153D01*
X1289440D02*
X1269440Y3609153D01*
X1309440D01*
X1289440Y3569153D01*
X1389440D02*
X1369440Y3609153D01*
X1409440D01*
X1389440Y3569153D01*
X1489440D02*
X1469440Y3609153D01*
X1509440D01*
X1489440Y3569153D01*
X1589440D02*
X1569440Y3609153D01*
X1609440D01*
X1589440Y3569153D01*
X1689440D02*
X1669440Y3609153D01*
X1709440D01*
X1689440Y3569153D01*
X1789440D02*
X1769440Y3609153D01*
X1809440D01*
X1789440Y3569153D01*
X1889440D02*
X1869440Y3609153D01*
X1909440D01*
X1889440Y3569153D01*
X1989440D02*
X1969440Y3609153D01*
X2009440D01*
X1989440Y3569153D01*
X2089441D02*
X2069441Y3609153D01*
X2109441D01*
X2089441Y3569153D01*
X2189441D02*
X2169441Y3609153D01*
X2209441D01*
X2189441Y3569153D01*
X1483440Y3380153D02*
X1493440Y3400153D01*
X1483440Y3420153D01*
X1503440Y3410153D01*
X1523440Y3420153D01*
X1513440Y3400153D01*
X1523440Y3380153D01*
X1503440Y3390153D01*
X1483440Y3380153D01*
X1733440D02*
X1743440Y3400153D01*
X1733440Y3420153D01*
X1753440Y3410153D01*
X1773440Y3420153D01*
X1763440Y3400153D01*
X1773440Y3380153D01*
X1753440Y3390153D01*
X1733440Y3380153D01*
X1483440Y3460153D02*
X1493440Y3480153D01*
X1483440Y3500153D01*
X1503440Y3490153D01*
X1523440Y3500153D01*
X1513440Y3480153D01*
X1523440Y3460153D01*
X1503440Y3470153D01*
X1483440Y3460153D01*
X1733440D02*
X1743440Y3480153D01*
X1733440Y3500153D01*
X1753440Y3490153D01*
X1773440Y3500153D01*
X1763440Y3480153D01*
X1773440Y3460153D01*
X1753440Y3470153D01*
X1733440Y3460153D01*
X3114160Y3832434D02*
Y3822434D01*
X3134160D01*
Y3832434D01*
X3144160D01*
Y3852434D01*
X3134160D01*
Y3862434D01*
X3114160D01*
Y3852434D01*
X3104160D01*
Y3832434D01*
X3114160D01*
X2373441Y3443153D02*
Y3433153D01*
X2393441D01*
Y3443153D01*
X2403441D01*
Y3463153D01*
X2393441D01*
Y3473153D01*
X2373441D01*
Y3463153D01*
X2363441D01*
Y3443153D01*
X2373441D01*
D88*
X2325441Y338366D02*
G03*
X2325441Y338366I-20000J0D01*
G01*
X2425441D02*
G03*
X2425441Y338366I-20000J0D01*
G01*
X2525441D02*
G03*
X2525441Y338366I-20000J0D01*
G01*
X2625441D02*
G03*
X2625441Y338366I-20000J0D01*
G01*
X2725441D02*
G03*
X2725441Y338366I-20000J0D01*
G01*
X2825441D02*
G03*
X2825441Y338366I-20000J0D01*
G01*
X2925441D02*
G03*
X2925441Y338366I-20000J0D01*
G01*
X3025441D02*
G03*
X3025441Y338366I-20000J0D01*
G01*
X2325441Y638366D02*
G03*
X2325441Y638366I-20000J0D01*
G01*
X2425441D02*
G03*
X2425441Y638366I-20000J0D01*
G01*
X2525441D02*
G03*
X2525441Y638366I-20000J0D01*
G01*
X2625441D02*
G03*
X2625441Y638366I-20000J0D01*
G01*
X2725441D02*
G03*
X2725441Y638366I-20000J0D01*
G01*
X2825441D02*
G03*
X2825441Y638366I-20000J0D01*
G01*
X2925441D02*
G03*
X2925441Y638366I-20000J0D01*
G01*
X3025441D02*
G03*
X3025441Y638366I-20000J0D01*
G01*
X2630362Y765103D02*
G03*
X2630362Y765103I-20000J0D01*
G01*
X2709102D02*
G03*
X2709102Y765103I-20000J0D01*
G01*
X2019440Y133397D02*
G03*
X2019440Y133397I-20000J0D01*
G01*
Y233397D02*
G03*
X2019440Y233397I-20000J0D01*
G01*
X2709102Y212397D02*
G03*
X2709102Y212397I-20000J0D01*
G01*
X2630362D02*
G03*
X2630362Y212397I-20000J0D01*
G01*
X1057440Y444075D02*
G03*
X1057440Y444075I-20000J0D01*
G01*
Y554311D02*
G03*
X1057440Y554311I-20000J0D01*
G01*
X957441Y444075D02*
G03*
X957441Y444075I-20000J0D01*
G01*
Y554311D02*
G03*
X957441Y554311I-20000J0D01*
G01*
X1376440Y444075D02*
G03*
X1376440Y444075I-20000J0D01*
G01*
Y554311D02*
G03*
X1376440Y554311I-20000J0D01*
G01*
X1276440Y444075D02*
G03*
X1276440Y444075I-20000J0D01*
G01*
Y554311D02*
G03*
X1276440Y554311I-20000J0D01*
G01*
X2325441Y1322618D02*
G03*
X2325441Y1322618I-20000J0D01*
G01*
X2425441D02*
G03*
X2425441Y1322618I-20000J0D01*
G01*
X2525441D02*
G03*
X2525441Y1322618I-20000J0D01*
G01*
X2625441D02*
G03*
X2625441Y1322618I-20000J0D01*
G01*
X2725441D02*
G03*
X2725441Y1322618I-20000J0D01*
G01*
X2825441D02*
G03*
X2825441Y1322618I-20000J0D01*
G01*
X2925441D02*
G03*
X2925441Y1322618I-20000J0D01*
G01*
X3025441D02*
G03*
X3025441Y1322618I-20000J0D01*
G01*
X2325441Y1622618D02*
G03*
X2325441Y1622618I-20000J0D01*
G01*
X2425441D02*
G03*
X2425441Y1622618I-20000J0D01*
G01*
X2525441D02*
G03*
X2525441Y1622618I-20000J0D01*
G01*
X2625441D02*
G03*
X2625441Y1622618I-20000J0D01*
G01*
X2725441D02*
G03*
X2725441Y1622618I-20000J0D01*
G01*
X2825441D02*
G03*
X2825441Y1622618I-20000J0D01*
G01*
X2925441D02*
G03*
X2925441Y1622618I-20000J0D01*
G01*
X3025441D02*
G03*
X3025441Y1622618I-20000J0D01*
G01*
X2630362Y1749355D02*
G03*
X2630362Y1749355I-20000J0D01*
G01*
X2709102D02*
G03*
X2709102Y1749355I-20000J0D01*
G01*
X2019440Y1117649D02*
G03*
X2019440Y1117649I-20000J0D01*
G01*
Y1217649D02*
G03*
X2019440Y1217649I-20000J0D01*
G01*
X2709102Y1196649D02*
G03*
X2709102Y1196649I-20000J0D01*
G01*
X2630362D02*
G03*
X2630362Y1196649I-20000J0D01*
G01*
X1057440Y1428327D02*
G03*
X1057440Y1428327I-20000J0D01*
G01*
Y1538563D02*
G03*
X1057440Y1538563I-20000J0D01*
G01*
X957441Y1428327D02*
G03*
X957441Y1428327I-20000J0D01*
G01*
Y1538563D02*
G03*
X957441Y1538563I-20000J0D01*
G01*
X1376440Y1428327D02*
G03*
X1376440Y1428327I-20000J0D01*
G01*
Y1538563D02*
G03*
X1376440Y1538563I-20000J0D01*
G01*
X1276440Y1428327D02*
G03*
X1276440Y1428327I-20000J0D01*
G01*
Y1538563D02*
G03*
X1276440Y1538563I-20000J0D01*
G01*
X2325441Y2306870D02*
G03*
X2325441Y2306870I-20000J0D01*
G01*
X2425441D02*
G03*
X2425441Y2306870I-20000J0D01*
G01*
X2525441D02*
G03*
X2525441Y2306870I-20000J0D01*
G01*
X2625441D02*
G03*
X2625441Y2306870I-20000J0D01*
G01*
X2725441D02*
G03*
X2725441Y2306870I-20000J0D01*
G01*
X2825441D02*
G03*
X2825441Y2306870I-20000J0D01*
G01*
X2925441D02*
G03*
X2925441Y2306870I-20000J0D01*
G01*
X3025441D02*
G03*
X3025441Y2306870I-20000J0D01*
G01*
X2325441Y2606870D02*
G03*
X2325441Y2606870I-20000J0D01*
G01*
X2425441D02*
G03*
X2425441Y2606870I-20000J0D01*
G01*
X2525441D02*
G03*
X2525441Y2606870I-20000J0D01*
G01*
X2625441D02*
G03*
X2625441Y2606870I-20000J0D01*
G01*
X2725441D02*
G03*
X2725441Y2606870I-20000J0D01*
G01*
X2825441D02*
G03*
X2825441Y2606870I-20000J0D01*
G01*
X2925441D02*
G03*
X2925441Y2606870I-20000J0D01*
G01*
X3025441D02*
G03*
X3025441Y2606870I-20000J0D01*
G01*
X2630362Y2733607D02*
G03*
X2630362Y2733607I-20000J0D01*
G01*
X2709102D02*
G03*
X2709102Y2733607I-20000J0D01*
G01*
X2019440Y2101901D02*
G03*
X2019440Y2101901I-20000J0D01*
G01*
Y2201901D02*
G03*
X2019440Y2201901I-20000J0D01*
G01*
X2709102Y2180901D02*
G03*
X2709102Y2180901I-20000J0D01*
G01*
X2630362D02*
G03*
X2630362Y2180901I-20000J0D01*
G01*
X1057440Y2412579D02*
G03*
X1057440Y2412579I-20000J0D01*
G01*
Y2522815D02*
G03*
X1057440Y2522815I-20000J0D01*
G01*
X957441Y2412579D02*
G03*
X957441Y2412579I-20000J0D01*
G01*
Y2522815D02*
G03*
X957441Y2522815I-20000J0D01*
G01*
X1376440Y2412579D02*
G03*
X1376440Y2412579I-20000J0D01*
G01*
Y2522815D02*
G03*
X1376440Y2522815I-20000J0D01*
G01*
X1276440Y2412579D02*
G03*
X1276440Y2412579I-20000J0D01*
G01*
Y2522815D02*
G03*
X1276440Y2522815I-20000J0D01*
G01*
X2325441Y3291122D02*
G03*
X2325441Y3291122I-20000J0D01*
G01*
X2425441D02*
G03*
X2425441Y3291122I-20000J0D01*
G01*
X2525441D02*
G03*
X2525441Y3291122I-20000J0D01*
G01*
X2625441D02*
G03*
X2625441Y3291122I-20000J0D01*
G01*
X2725441D02*
G03*
X2725441Y3291122I-20000J0D01*
G01*
X2825441D02*
G03*
X2825441Y3291122I-20000J0D01*
G01*
X2925441D02*
G03*
X2925441Y3291122I-20000J0D01*
G01*
X3025441D02*
G03*
X3025441Y3291122I-20000J0D01*
G01*
X2325441Y3591122D02*
G03*
X2325441Y3591122I-20000J0D01*
G01*
X2425441D02*
G03*
X2425441Y3591122I-20000J0D01*
G01*
X2525441D02*
G03*
X2525441Y3591122I-20000J0D01*
G01*
X2625441D02*
G03*
X2625441Y3591122I-20000J0D01*
G01*
X2725441D02*
G03*
X2725441Y3591122I-20000J0D01*
G01*
X2825441D02*
G03*
X2825441Y3591122I-20000J0D01*
G01*
X2925441D02*
G03*
X2925441Y3591122I-20000J0D01*
G01*
X3025441D02*
G03*
X3025441Y3591122I-20000J0D01*
G01*
X2630362Y3717859D02*
G03*
X2630362Y3717859I-20000J0D01*
G01*
X2709102D02*
G03*
X2709102Y3717859I-20000J0D01*
G01*
X2019440Y3086153D02*
G03*
X2019440Y3086153I-20000J0D01*
G01*
Y3186153D02*
G03*
X2019440Y3186153I-20000J0D01*
G01*
X2709102Y3165153D02*
G03*
X2709102Y3165153I-20000J0D01*
G01*
X2630362D02*
G03*
X2630362Y3165153I-20000J0D01*
G01*
X1057440Y3396831D02*
G03*
X1057440Y3396831I-20000J0D01*
G01*
Y3507067D02*
G03*
X1057440Y3507067I-20000J0D01*
G01*
X957441Y3396831D02*
G03*
X957441Y3396831I-20000J0D01*
G01*
Y3507067D02*
G03*
X957441Y3507067I-20000J0D01*
G01*
X1376440Y3396831D02*
G03*
X1376440Y3396831I-20000J0D01*
G01*
Y3507067D02*
G03*
X1376440Y3507067I-20000J0D01*
G01*
X1276440Y3396831D02*
G03*
X1276440Y3396831I-20000J0D01*
G01*
Y3507067D02*
G03*
X1276440Y3507067I-20000J0D01*
G01*
%TF.MD5,ff0b82fb92d5cafa416ad4f32aa69b7d*%
M02*
