G04*
G04 #@! TF.GenerationSoftware,Altium Limited,Altium Designer,21.4.1 (30)*
G04*
G04 Layer_Color=8388736*
%FSLAX44Y44*%
%MOMM*%
G71*
G04*
G04 #@! TF.SameCoordinates,DC4F367D-8D4E-4889-AD52-647C8777383A*
G04*
G04*
G04 #@! TF.FilePolarity,Negative*
G04*
G01*
G75*
%ADD27C,1.3000*%
%ADD37R,1.3000X1.3000*%
%ADD39C,3.6032*%
G04:AMPARAMS|DCode=40|XSize=3.6032mm|YSize=3.6032mm|CornerRadius=0.9516mm|HoleSize=0mm|Usage=FLASHONLY|Rotation=180.000|XOffset=0mm|YOffset=0mm|HoleType=Round|Shape=RoundedRectangle|*
%AMROUNDEDRECTD40*
21,1,3.6032,1.7000,0,0,180.0*
21,1,1.7000,3.6032,0,0,180.0*
1,1,1.9032,-0.8500,0.8500*
1,1,1.9032,0.8500,0.8500*
1,1,1.9032,0.8500,-0.8500*
1,1,1.9032,-0.8500,-0.8500*
%
%ADD40ROUNDEDRECTD40*%
%ADD41R,0.8032X1.0532*%
%ADD42R,2.2032X1.7032*%
%ADD43R,0.6032X2.2032*%
%ADD44R,1.8032X2.8032*%
%ADD45O,1.8032X2.8032*%
%ADD46R,1.6032X1.6032*%
%ADD47C,1.6032*%
%ADD48R,1.5032X1.5032*%
%ADD49C,1.5032*%
%ADD50C,2.2032*%
G04:AMPARAMS|DCode=51|XSize=2.2032mm|YSize=2.2032mm|CornerRadius=0.3516mm|HoleSize=0mm|Usage=FLASHONLY|Rotation=270.000|XOffset=0mm|YOffset=0mm|HoleType=Round|Shape=RoundedRectangle|*
%AMROUNDEDRECTD51*
21,1,2.2032,1.5000,0,0,270.0*
21,1,1.5000,2.2032,0,0,270.0*
1,1,0.7032,-0.7500,-0.7500*
1,1,0.7032,-0.7500,0.7500*
1,1,0.7032,0.7500,0.7500*
1,1,0.7032,0.7500,-0.7500*
%
%ADD51ROUNDEDRECTD51*%
%ADD52C,1.4032*%
%ADD53C,1.6002*%
%ADD54C,1.8032*%
%ADD55O,2.7032X1.8032*%
%ADD56R,2.7032X2.0032*%
%ADD57R,1.7032X1.7032*%
%ADD58C,1.7032*%
%ADD59C,1.4732*%
D27*
X2765580Y1667795D02*
D03*
X2790980Y1639795D02*
D03*
Y1667795D02*
D03*
X2684554D02*
D03*
X2709954Y1639795D02*
D03*
Y1667795D02*
D03*
X2765580Y1917795D02*
D03*
X2790980Y1889795D02*
D03*
Y1917795D02*
D03*
X2684554D02*
D03*
X2709954Y1889795D02*
D03*
Y1917795D02*
D03*
X2765580Y2167795D02*
D03*
X2790980Y2139795D02*
D03*
Y2167795D02*
D03*
X2684554D02*
D03*
X2709954Y2139795D02*
D03*
Y2167795D02*
D03*
X2765580Y2417795D02*
D03*
X2790980Y2389795D02*
D03*
Y2417795D02*
D03*
X2684554D02*
D03*
X2709954Y2389795D02*
D03*
Y2417795D02*
D03*
D37*
X2765580Y1639795D02*
D03*
X2684554D02*
D03*
X2765580Y1889795D02*
D03*
X2684554D02*
D03*
X2765580Y2139795D02*
D03*
X2684554D02*
D03*
X2765580Y2389795D02*
D03*
X2684554D02*
D03*
D39*
X2071906Y1678231D02*
D03*
Y1928231D02*
D03*
Y2178231D02*
D03*
Y2428231D02*
D03*
D40*
Y1629231D02*
D03*
Y1879231D02*
D03*
Y2129231D02*
D03*
Y2379231D02*
D03*
D41*
X2270662Y1640893D02*
D03*
X2283106D02*
D03*
X2550824Y1655117D02*
D03*
X2563268D02*
D03*
X2550824Y1636575D02*
D03*
X2563268D02*
D03*
X2191316Y1724713D02*
D03*
X2203760D02*
D03*
X2270662Y1662229D02*
D03*
X2283106D02*
D03*
X2270662Y1890893D02*
D03*
X2283106D02*
D03*
X2550824Y1905117D02*
D03*
X2563268D02*
D03*
X2550824Y1886575D02*
D03*
X2563268D02*
D03*
X2191316Y1974713D02*
D03*
X2203760D02*
D03*
X2270662Y1912229D02*
D03*
X2283106D02*
D03*
X2270662Y2140893D02*
D03*
X2283106D02*
D03*
X2550824Y2155117D02*
D03*
X2563268D02*
D03*
X2550824Y2136575D02*
D03*
X2563268D02*
D03*
X2191316Y2224713D02*
D03*
X2203760D02*
D03*
X2270662Y2162229D02*
D03*
X2283106D02*
D03*
X2270662Y2390893D02*
D03*
X2283106D02*
D03*
X2550824Y2405117D02*
D03*
X2563268D02*
D03*
X2550824Y2386575D02*
D03*
X2563268D02*
D03*
X2191316Y2474713D02*
D03*
X2203760D02*
D03*
X2270662Y2412229D02*
D03*
X2283106D02*
D03*
D42*
X2237260Y1634196D02*
D03*
Y1671026D02*
D03*
X2237006Y1652738D02*
D03*
X2237260Y1884196D02*
D03*
Y1921026D02*
D03*
X2237006Y1902738D02*
D03*
X2237260Y2134196D02*
D03*
Y2171026D02*
D03*
X2237006Y2152738D02*
D03*
X2237260Y2384196D02*
D03*
Y2421026D02*
D03*
X2237006Y2402738D02*
D03*
D43*
X2599526Y1586537D02*
D03*
X2587526D02*
D03*
X2575526D02*
D03*
X2599526Y1836537D02*
D03*
X2587526D02*
D03*
X2575526D02*
D03*
X2599526Y2086537D02*
D03*
X2587526D02*
D03*
X2575526D02*
D03*
X2599526Y2336537D02*
D03*
X2587526D02*
D03*
X2575526D02*
D03*
D44*
X2479772Y1729985D02*
D03*
X2728756Y1729685D02*
D03*
X2805056Y1572059D02*
D03*
X2479772Y1979985D02*
D03*
X2728756Y1979685D02*
D03*
X2805056Y1822059D02*
D03*
X2479772Y2229985D02*
D03*
X2728756Y2229685D02*
D03*
X2805056Y2072059D02*
D03*
X2479772Y2479985D02*
D03*
X2728756Y2479685D02*
D03*
X2805056Y2322059D02*
D03*
D45*
X2505172Y1729985D02*
D03*
X2530572D02*
D03*
X2555972D02*
D03*
X2581372D02*
D03*
X2754156Y1729685D02*
D03*
X2779556D02*
D03*
X2804956D02*
D03*
X2779656Y1572059D02*
D03*
X2754256D02*
D03*
X2728856D02*
D03*
X2505172Y1979985D02*
D03*
X2530572D02*
D03*
X2555972D02*
D03*
X2581372D02*
D03*
X2754156Y1979685D02*
D03*
X2779556D02*
D03*
X2804956D02*
D03*
X2779656Y1822059D02*
D03*
X2754256D02*
D03*
X2728856D02*
D03*
X2505172Y2229985D02*
D03*
X2530572D02*
D03*
X2555972D02*
D03*
X2581372D02*
D03*
X2754156Y2229685D02*
D03*
X2779556D02*
D03*
X2804956D02*
D03*
X2779656Y2072059D02*
D03*
X2754256D02*
D03*
X2728856D02*
D03*
X2505172Y2479985D02*
D03*
X2530572D02*
D03*
X2555972D02*
D03*
X2581372D02*
D03*
X2754156Y2479685D02*
D03*
X2779556D02*
D03*
X2804956D02*
D03*
X2779656Y2322059D02*
D03*
X2754256D02*
D03*
X2728856D02*
D03*
D46*
X2443508Y1612945D02*
D03*
Y1862945D02*
D03*
Y2112945D02*
D03*
Y2362945D02*
D03*
D47*
X2418108Y1612945D02*
D03*
X2392708D02*
D03*
X2367308D02*
D03*
X2341908D02*
D03*
X2316508D02*
D03*
X2291108D02*
D03*
X2265708D02*
D03*
X2443508Y1689145D02*
D03*
X2418108D02*
D03*
X2392708D02*
D03*
X2367308D02*
D03*
X2341908D02*
D03*
X2316508D02*
D03*
X2291108D02*
D03*
X2265708D02*
D03*
X2418108Y1862945D02*
D03*
X2392708D02*
D03*
X2367308D02*
D03*
X2341908D02*
D03*
X2316508D02*
D03*
X2291108D02*
D03*
X2265708D02*
D03*
X2443508Y1939145D02*
D03*
X2418108D02*
D03*
X2392708D02*
D03*
X2367308D02*
D03*
X2341908D02*
D03*
X2316508D02*
D03*
X2291108D02*
D03*
X2265708D02*
D03*
X2418108Y2112945D02*
D03*
X2392708D02*
D03*
X2367308D02*
D03*
X2341908D02*
D03*
X2316508D02*
D03*
X2291108D02*
D03*
X2265708D02*
D03*
X2443508Y2189145D02*
D03*
X2418108D02*
D03*
X2392708D02*
D03*
X2367308D02*
D03*
X2341908D02*
D03*
X2316508D02*
D03*
X2291108D02*
D03*
X2265708D02*
D03*
X2418108Y2362945D02*
D03*
X2392708D02*
D03*
X2367308D02*
D03*
X2341908D02*
D03*
X2316508D02*
D03*
X2291108D02*
D03*
X2265708D02*
D03*
X2443508Y2439145D02*
D03*
X2418108D02*
D03*
X2392708D02*
D03*
X2367308D02*
D03*
X2341908D02*
D03*
X2316508D02*
D03*
X2291108D02*
D03*
X2265708D02*
D03*
D48*
X2366058Y1721336D02*
D03*
X2346058Y1580949D02*
D03*
X2366058Y1971336D02*
D03*
X2346058Y1830949D02*
D03*
X2366058Y2221336D02*
D03*
X2346058Y2080949D02*
D03*
X2366058Y2471336D02*
D03*
X2346058Y2330949D02*
D03*
D49*
X2346058Y1721336D02*
D03*
X2366058Y1580949D02*
D03*
X2346058Y1971336D02*
D03*
X2366058Y1830949D02*
D03*
X2346058Y2221336D02*
D03*
X2366058Y2080949D02*
D03*
X2346058Y2471336D02*
D03*
X2366058Y2330949D02*
D03*
D50*
X2136422Y1678029D02*
D03*
X2135940Y1625881D02*
D03*
X2136422Y1928029D02*
D03*
X2135940Y1875881D02*
D03*
X2136422Y2178029D02*
D03*
X2135940Y2125881D02*
D03*
X2136422Y2428029D02*
D03*
X2135940Y2375881D02*
D03*
D51*
X2136422Y1713029D02*
D03*
X2135940Y1590881D02*
D03*
X2136422Y1963029D02*
D03*
X2135940Y1840881D02*
D03*
X2136422Y2213029D02*
D03*
X2135940Y2090881D02*
D03*
X2136422Y2463029D02*
D03*
X2135940Y2340881D02*
D03*
D52*
X2071398Y1746557D02*
D03*
X2295426Y1557835D02*
D03*
X2666520D02*
D03*
X2071398D02*
D03*
Y1996557D02*
D03*
X2295426Y1807835D02*
D03*
X2666520D02*
D03*
X2071398D02*
D03*
Y2246557D02*
D03*
X2295426Y2057835D02*
D03*
X2666520D02*
D03*
X2071398D02*
D03*
Y2496557D02*
D03*
X2295426Y2307835D02*
D03*
X2666520D02*
D03*
X2071398D02*
D03*
D53*
X2673886Y1727480D02*
D03*
X2610386D02*
D03*
Y1708149D02*
D03*
X2673886D02*
D03*
Y1746811D02*
D03*
X2610386D02*
D03*
X2556594Y1561645D02*
D03*
X2620094D02*
D03*
X2647216Y1640639D02*
D03*
X2583716D02*
D03*
X2647216Y1660959D02*
D03*
X2583716D02*
D03*
X2673886Y1977480D02*
D03*
X2610386D02*
D03*
Y1958149D02*
D03*
X2673886D02*
D03*
Y1996811D02*
D03*
X2610386D02*
D03*
X2556594Y1811645D02*
D03*
X2620094D02*
D03*
X2647216Y1890639D02*
D03*
X2583716D02*
D03*
X2647216Y1910959D02*
D03*
X2583716D02*
D03*
X2673886Y2227480D02*
D03*
X2610386D02*
D03*
Y2208149D02*
D03*
X2673886D02*
D03*
Y2246811D02*
D03*
X2610386D02*
D03*
X2556594Y2061645D02*
D03*
X2620094D02*
D03*
X2647216Y2140639D02*
D03*
X2583716D02*
D03*
X2647216Y2160959D02*
D03*
X2583716D02*
D03*
X2673886Y2477480D02*
D03*
X2610386D02*
D03*
Y2458149D02*
D03*
X2673886D02*
D03*
Y2496811D02*
D03*
X2610386D02*
D03*
X2556594Y2311645D02*
D03*
X2620094D02*
D03*
X2647216Y2390639D02*
D03*
X2583716D02*
D03*
X2647216Y2410959D02*
D03*
X2583716D02*
D03*
D54*
X2521232Y1560883D02*
D03*
Y1586283D02*
D03*
Y1810883D02*
D03*
Y1836283D02*
D03*
Y2060883D02*
D03*
Y2086283D02*
D03*
Y2310883D02*
D03*
Y2336283D02*
D03*
D55*
X2202208Y1626923D02*
D03*
Y1652323D02*
D03*
Y1876923D02*
D03*
Y1902323D02*
D03*
Y2126923D02*
D03*
Y2152323D02*
D03*
Y2376923D02*
D03*
Y2402323D02*
D03*
D56*
Y1677723D02*
D03*
Y1927723D02*
D03*
Y2177723D02*
D03*
Y2427723D02*
D03*
D57*
X2803172Y1612445D02*
D03*
Y1862445D02*
D03*
Y2112445D02*
D03*
Y2362445D02*
D03*
D58*
X2777772Y1612445D02*
D03*
X2752372D02*
D03*
X2726972D02*
D03*
X2701572D02*
D03*
X2676172D02*
D03*
X2650772D02*
D03*
X2625372D02*
D03*
X2599972D02*
D03*
X2574572D02*
D03*
X2549172D02*
D03*
X2523772D02*
D03*
X2498372D02*
D03*
X2472972D02*
D03*
X2803172Y1688645D02*
D03*
X2777772D02*
D03*
X2752372D02*
D03*
X2726972D02*
D03*
X2701572D02*
D03*
X2676172D02*
D03*
X2650772D02*
D03*
X2625372D02*
D03*
X2599972D02*
D03*
X2574572D02*
D03*
X2549172D02*
D03*
X2523772D02*
D03*
X2498372D02*
D03*
X2472972D02*
D03*
X2777772Y1862445D02*
D03*
X2752372D02*
D03*
X2726972D02*
D03*
X2701572D02*
D03*
X2676172D02*
D03*
X2650772D02*
D03*
X2625372D02*
D03*
X2599972D02*
D03*
X2574572D02*
D03*
X2549172D02*
D03*
X2523772D02*
D03*
X2498372D02*
D03*
X2472972D02*
D03*
X2803172Y1938645D02*
D03*
X2777772D02*
D03*
X2752372D02*
D03*
X2726972D02*
D03*
X2701572D02*
D03*
X2676172D02*
D03*
X2650772D02*
D03*
X2625372D02*
D03*
X2599972D02*
D03*
X2574572D02*
D03*
X2549172D02*
D03*
X2523772D02*
D03*
X2498372D02*
D03*
X2472972D02*
D03*
X2777772Y2112445D02*
D03*
X2752372D02*
D03*
X2726972D02*
D03*
X2701572D02*
D03*
X2676172D02*
D03*
X2650772D02*
D03*
X2625372D02*
D03*
X2599972D02*
D03*
X2574572D02*
D03*
X2549172D02*
D03*
X2523772D02*
D03*
X2498372D02*
D03*
X2472972D02*
D03*
X2803172Y2188645D02*
D03*
X2777772D02*
D03*
X2752372D02*
D03*
X2726972D02*
D03*
X2701572D02*
D03*
X2676172D02*
D03*
X2650772D02*
D03*
X2625372D02*
D03*
X2599972D02*
D03*
X2574572D02*
D03*
X2549172D02*
D03*
X2523772D02*
D03*
X2498372D02*
D03*
X2472972D02*
D03*
X2777772Y2362445D02*
D03*
X2752372D02*
D03*
X2726972D02*
D03*
X2701572D02*
D03*
X2676172D02*
D03*
X2650772D02*
D03*
X2625372D02*
D03*
X2599972D02*
D03*
X2574572D02*
D03*
X2549172D02*
D03*
X2523772D02*
D03*
X2498372D02*
D03*
X2472972D02*
D03*
X2803172Y2438645D02*
D03*
X2777772D02*
D03*
X2752372D02*
D03*
X2726972D02*
D03*
X2701572D02*
D03*
X2676172D02*
D03*
X2650772D02*
D03*
X2625372D02*
D03*
X2599972D02*
D03*
X2574572D02*
D03*
X2549172D02*
D03*
X2523772D02*
D03*
X2498372D02*
D03*
X2472972D02*
D03*
D59*
X2235553Y1752978D02*
D03*
X2423696Y1654101D02*
D03*
X2235553Y2002978D02*
D03*
X2423696Y1904101D02*
D03*
X2235553Y2252978D02*
D03*
X2423696Y2154101D02*
D03*
X2235553Y2502978D02*
D03*
X2423696Y2404101D02*
D03*
M02*
