G04*
G04 #@! TF.GenerationSoftware,Altium Limited,Altium Designer,21.4.1 (30)*
G04*
G04 Layer_Color=16711935*
%FSLAX44Y44*%
%MOMM*%
G71*
G04*
G04 #@! TF.SameCoordinates,789529BF-0869-4FC8-A333-EB08C26D34F4*
G04*
G04*
G04 #@! TF.FilePolarity,Positive*
G04*
G01*
G75*
%ADD62C,0.1270*%
%ADD63C,0.1000*%
D62*
X2094512Y1695529D02*
G03*
X2094512Y1695529I41910J0D01*
G01*
X2094030Y1608381D02*
G03*
X2094030Y1608381I41910J0D01*
G01*
X2094512Y1945529D02*
G03*
X2094512Y1945529I41910J0D01*
G01*
X2094030Y1858381D02*
G03*
X2094030Y1858381I41910J0D01*
G01*
X2094512Y2195529D02*
G03*
X2094512Y2195529I41910J0D01*
G01*
X2094030Y2108381D02*
G03*
X2094030Y2108381I41910J0D01*
G01*
X2094512Y2445529D02*
G03*
X2094512Y2445529I41910J0D01*
G01*
X2094030Y2358381D02*
G03*
X2094030Y2358381I41910J0D01*
G01*
D63*
X2440608Y1625795D02*
G03*
X2440608Y1625795I5000J0D01*
G01*
X2800572Y1623545D02*
G03*
X2800572Y1623545I5000J0D01*
G01*
X2454608Y1616795D02*
X2254608D01*
X2454608Y1685295D02*
X2254608D01*
X2454608Y1616795D02*
Y1685295D01*
X2254608Y1616795D02*
Y1685295D01*
X2814572Y1614545D02*
X2461572D01*
X2814572Y1686545D02*
X2461572D01*
X2814572Y1614545D02*
Y1686545D01*
X2461572Y1614545D02*
Y1686545D01*
X2440608Y1875795D02*
G03*
X2440608Y1875795I5000J0D01*
G01*
X2800572Y1873545D02*
G03*
X2800572Y1873545I5000J0D01*
G01*
X2454608Y1866795D02*
X2254608D01*
X2454608Y1935295D02*
X2254608D01*
X2454608Y1866795D02*
Y1935295D01*
X2254608Y1866795D02*
Y1935295D01*
X2814572Y1864545D02*
X2461572D01*
X2814572Y1936545D02*
X2461572D01*
X2814572Y1864545D02*
Y1936545D01*
X2461572Y1864545D02*
Y1936545D01*
X2440608Y2125795D02*
G03*
X2440608Y2125795I5000J0D01*
G01*
X2800572Y2123545D02*
G03*
X2800572Y2123545I5000J0D01*
G01*
X2454608Y2116795D02*
X2254608D01*
X2454608Y2185295D02*
X2254608D01*
X2454608Y2116795D02*
Y2185295D01*
X2254608Y2116795D02*
Y2185295D01*
X2814572Y2114545D02*
X2461572D01*
X2814572Y2186545D02*
X2461572D01*
X2814572Y2114545D02*
Y2186545D01*
X2461572Y2114545D02*
Y2186545D01*
X2440608Y2375795D02*
G03*
X2440608Y2375795I5000J0D01*
G01*
X2800572Y2373545D02*
G03*
X2800572Y2373545I5000J0D01*
G01*
X2454608Y2366795D02*
X2254608D01*
X2454608Y2435295D02*
X2254608D01*
X2454608Y2366795D02*
Y2435295D01*
X2254608Y2366795D02*
Y2435295D01*
X2814572Y2364545D02*
X2461572D01*
X2814572Y2436545D02*
X2461572D01*
X2814572Y2364545D02*
Y2436545D01*
X2461572Y2364545D02*
Y2436545D01*
M02*
