%TF.GenerationSoftware,Altium Limited,Altium Designer,21.4.1 (30)*%
G04 Layer_Color=0*
%FSLAX26Y26*%
%MOIN*%
%TF.SameCoordinates,FA171619-A988-4B02-9C22-6D3C25DF24D0*%
%TF.FilePolarity,Positive*%
%TF.FileFunction,Plated,1,2,PTH,Drill*%
%TF.Part,ProductionPanel*%
G01*
G75*
%TA.AperFunction,ComponentDrill*%
%ADD63C,0.039370*%
%ADD64C,0.031496*%
%ADD65C,0.031496*%
%ADD66C,0.035433*%
%TA.AperFunction,OtherDrill,Pad Free-4 (3770.441mil,864.397mil)*%
%ADD67C,0.118110*%
%TA.AperFunction,ComponentDrill*%
%ADD68C,0.030000*%
%TA.AperFunction,OtherDrill,Pad Free-2 (2888.441mil,121.397mil)*%
%ADD69C,0.118110*%
%TA.AperFunction,OtherDrill,Pad Free-1 (1427.44mil,121.397mil)*%
%ADD70C,0.118110*%
%TA.AperFunction,ComponentDrill*%
%ADD71C,0.039370*%
%TA.AperFunction,OtherDrill,Pad Free-3 (3770.441mil,121.397mil)*%
%ADD72C,0.118110*%
%TA.AperFunction,ViaDrill,NotFilled*%
%ADD73C,0.028000*%
%TA.AperFunction,OtherDrill,Pad Free-4 (3770.441mil,1848.649mil)*%
%ADD74C,0.118110*%
%TA.AperFunction,OtherDrill,Pad Free-2 (2888.441mil,1105.649mil)*%
%ADD75C,0.118110*%
%TA.AperFunction,OtherDrill,Pad Free-1 (1427.44mil,1105.649mil)*%
%ADD76C,0.118110*%
%TA.AperFunction,OtherDrill,Pad Free-3 (3770.441mil,1105.649mil)*%
%ADD77C,0.118110*%
%TA.AperFunction,OtherDrill,Pad Free-4 (3770.441mil,2832.901mil)*%
%ADD78C,0.118110*%
%TA.AperFunction,OtherDrill,Pad Free-2 (2888.441mil,2089.901mil)*%
%ADD79C,0.118110*%
%TA.AperFunction,OtherDrill,Pad Free-1 (1427.44mil,2089.901mil)*%
%ADD80C,0.118110*%
%TA.AperFunction,OtherDrill,Pad Free-3 (3770.441mil,2089.901mil)*%
%ADD81C,0.118110*%
%TA.AperFunction,OtherDrill,Pad Free-4 (3770.441mil,3817.153mil)*%
%ADD82C,0.118110*%
%TA.AperFunction,OtherDrill,Pad Free-2 (2888.441mil,3074.153mil)*%
%ADD83C,0.118110*%
%TA.AperFunction,OtherDrill,Pad Free-1 (1427.44mil,3074.153mil)*%
%ADD84C,0.118110*%
%TA.AperFunction,OtherDrill,Pad Free-3 (3770.441mil,3074.153mil)*%
%ADD85C,0.118110*%
D63*
X2162669Y799153D02*
D03*
X2062669D02*
D03*
X1962669D02*
D03*
X1862669D02*
D03*
X1762669D02*
D03*
X1182417Y797972D02*
D03*
X1082417D02*
D03*
X982417D02*
D03*
X882417D02*
D03*
X882023Y177397D02*
D03*
X982023D02*
D03*
X1082023D02*
D03*
X1182023D02*
D03*
X2162669Y1783405D02*
D03*
X2062669D02*
D03*
X1962669D02*
D03*
X1862669D02*
D03*
X1762669D02*
D03*
X1182417Y1782224D02*
D03*
X1082417D02*
D03*
X982417D02*
D03*
X882417D02*
D03*
X882023Y1161649D02*
D03*
X982023D02*
D03*
X1082023D02*
D03*
X1182023D02*
D03*
X2162669Y2767657D02*
D03*
X2062669D02*
D03*
X1962669D02*
D03*
X1862669D02*
D03*
X1762669D02*
D03*
X1182417Y2766476D02*
D03*
X1082417D02*
D03*
X982417D02*
D03*
X882417D02*
D03*
X882023Y2145901D02*
D03*
X982023D02*
D03*
X1082023D02*
D03*
X1182023D02*
D03*
X2162669Y3751909D02*
D03*
X2062669D02*
D03*
X1962669D02*
D03*
X1862669D02*
D03*
X1762669D02*
D03*
X1182417Y3750728D02*
D03*
X1082417D02*
D03*
X982417D02*
D03*
X882417D02*
D03*
X882023Y3130153D02*
D03*
X982023D02*
D03*
X1082023D02*
D03*
X1182023D02*
D03*
D64*
X2305441Y338366D02*
D03*
X2405441D02*
D03*
X2505441D02*
D03*
X2605441D02*
D03*
X2705441D02*
D03*
X2805441D02*
D03*
X2905441D02*
D03*
X3005441D02*
D03*
X2305441Y638366D02*
D03*
X2405441D02*
D03*
X2505441D02*
D03*
X2605441D02*
D03*
X2705441D02*
D03*
X2805441D02*
D03*
X2905441D02*
D03*
X3005441D02*
D03*
X1037440Y444075D02*
D03*
Y554311D02*
D03*
X937441Y444075D02*
D03*
Y554311D02*
D03*
X1356440Y444075D02*
D03*
Y554311D02*
D03*
X1256440Y444075D02*
D03*
Y554311D02*
D03*
X2305441Y1322618D02*
D03*
X2405441D02*
D03*
X2505441D02*
D03*
X2605441D02*
D03*
X2705441D02*
D03*
X2805441D02*
D03*
X2905441D02*
D03*
X3005441D02*
D03*
X2305441Y1622618D02*
D03*
X2405441D02*
D03*
X2505441D02*
D03*
X2605441D02*
D03*
X2705441D02*
D03*
X2805441D02*
D03*
X2905441D02*
D03*
X3005441D02*
D03*
X1037440Y1428327D02*
D03*
Y1538563D02*
D03*
X937441Y1428327D02*
D03*
Y1538563D02*
D03*
X1356440Y1428327D02*
D03*
Y1538563D02*
D03*
X1256440Y1428327D02*
D03*
Y1538563D02*
D03*
X2305441Y2306870D02*
D03*
X2405441D02*
D03*
X2505441D02*
D03*
X2605441D02*
D03*
X2705441D02*
D03*
X2805441D02*
D03*
X2905441D02*
D03*
X3005441D02*
D03*
X2305441Y2606870D02*
D03*
X2405441D02*
D03*
X2505441D02*
D03*
X2605441D02*
D03*
X2705441D02*
D03*
X2805441D02*
D03*
X2905441D02*
D03*
X3005441D02*
D03*
X1037440Y2412579D02*
D03*
Y2522815D02*
D03*
X937441Y2412579D02*
D03*
Y2522815D02*
D03*
X1356440Y2412579D02*
D03*
Y2522815D02*
D03*
X1256440Y2412579D02*
D03*
Y2522815D02*
D03*
X2305441Y3291122D02*
D03*
X2405441D02*
D03*
X2505441D02*
D03*
X2605441D02*
D03*
X2705441D02*
D03*
X2805441D02*
D03*
X2905441D02*
D03*
X3005441D02*
D03*
X2305441Y3591122D02*
D03*
X2405441D02*
D03*
X2505441D02*
D03*
X2605441D02*
D03*
X2705441D02*
D03*
X2805441D02*
D03*
X2905441D02*
D03*
X3005441D02*
D03*
X1037440Y3396831D02*
D03*
Y3507067D02*
D03*
X937441Y3396831D02*
D03*
Y3507067D02*
D03*
X1356440Y3396831D02*
D03*
Y3507067D02*
D03*
X1256440Y3396831D02*
D03*
Y3507067D02*
D03*
D65*
X2610362Y765103D02*
D03*
X2689102D02*
D03*
X1999440Y133397D02*
D03*
Y233397D02*
D03*
X2689102Y212397D02*
D03*
X2610362D02*
D03*
X2610362Y1749355D02*
D03*
X2689102D02*
D03*
X1999440Y1117649D02*
D03*
Y1217649D02*
D03*
X2689102Y1196649D02*
D03*
X2610362D02*
D03*
X2610362Y2733607D02*
D03*
X2689102D02*
D03*
X1999440Y2101901D02*
D03*
Y2201901D02*
D03*
X2689102Y2180901D02*
D03*
X2610362D02*
D03*
X2610362Y3717859D02*
D03*
X2689102D02*
D03*
X1999440Y3086153D02*
D03*
Y3186153D02*
D03*
X2689102Y3165153D02*
D03*
X2610362D02*
D03*
D66*
X3514441Y594602D02*
D03*
Y732397D02*
D03*
X3516338Y389295D02*
D03*
Y251500D02*
D03*
X889441Y336397D02*
D03*
X989441D02*
D03*
X1089440D02*
D03*
X1189440D02*
D03*
X1289440D02*
D03*
X1389440D02*
D03*
X1489440D02*
D03*
X1589440D02*
D03*
X1689440D02*
D03*
X1789440D02*
D03*
X1889440D02*
D03*
X1989440D02*
D03*
X2089441D02*
D03*
X2189441D02*
D03*
X889441Y636397D02*
D03*
X989441D02*
D03*
X1089440D02*
D03*
X1189440D02*
D03*
X1289440D02*
D03*
X1389440D02*
D03*
X1489440D02*
D03*
X1589440D02*
D03*
X1689440D02*
D03*
X1789440D02*
D03*
X1889440D02*
D03*
X1989440D02*
D03*
X2089441D02*
D03*
X2189441D02*
D03*
X3514441Y1578854D02*
D03*
Y1716649D02*
D03*
X3516338Y1373547D02*
D03*
Y1235752D02*
D03*
X889441Y1320649D02*
D03*
X989441D02*
D03*
X1089440D02*
D03*
X1189440D02*
D03*
X1289440D02*
D03*
X1389440D02*
D03*
X1489440D02*
D03*
X1589440D02*
D03*
X1689440D02*
D03*
X1789440D02*
D03*
X1889440D02*
D03*
X1989440D02*
D03*
X2089441D02*
D03*
X2189441D02*
D03*
X889441Y1620649D02*
D03*
X989441D02*
D03*
X1089440D02*
D03*
X1189440D02*
D03*
X1289440D02*
D03*
X1389440D02*
D03*
X1489440D02*
D03*
X1589440D02*
D03*
X1689440D02*
D03*
X1789440D02*
D03*
X1889440D02*
D03*
X1989440D02*
D03*
X2089441D02*
D03*
X2189441D02*
D03*
X3514441Y2563106D02*
D03*
Y2700901D02*
D03*
X3516338Y2357799D02*
D03*
Y2220004D02*
D03*
X889441Y2304901D02*
D03*
X989441D02*
D03*
X1089440D02*
D03*
X1189440D02*
D03*
X1289440D02*
D03*
X1389440D02*
D03*
X1489440D02*
D03*
X1589440D02*
D03*
X1689440D02*
D03*
X1789440D02*
D03*
X1889440D02*
D03*
X1989440D02*
D03*
X2089441D02*
D03*
X2189441D02*
D03*
X889441Y2604901D02*
D03*
X989441D02*
D03*
X1089440D02*
D03*
X1189440D02*
D03*
X1289440D02*
D03*
X1389440D02*
D03*
X1489440D02*
D03*
X1589440D02*
D03*
X1689440D02*
D03*
X1789440D02*
D03*
X1889440D02*
D03*
X1989440D02*
D03*
X2089441D02*
D03*
X2189441D02*
D03*
X3514441Y3547358D02*
D03*
Y3685153D02*
D03*
X3516338Y3342051D02*
D03*
Y3204256D02*
D03*
X889441Y3289153D02*
D03*
X989441D02*
D03*
X1089440D02*
D03*
X1189440D02*
D03*
X1289440D02*
D03*
X1389440D02*
D03*
X1489440D02*
D03*
X1589440D02*
D03*
X1689440D02*
D03*
X1789440D02*
D03*
X1889440D02*
D03*
X1989440D02*
D03*
X2089441D02*
D03*
X2189441D02*
D03*
X889441Y3589153D02*
D03*
X989441D02*
D03*
X1089440D02*
D03*
X1189440D02*
D03*
X1289440D02*
D03*
X1389440D02*
D03*
X1489440D02*
D03*
X1589440D02*
D03*
X1689440D02*
D03*
X1789440D02*
D03*
X1889440D02*
D03*
X1989440D02*
D03*
X2089441D02*
D03*
X2189441D02*
D03*
D67*
X3770441Y864397D02*
D03*
D68*
X1398440Y789291D02*
D03*
X1648440D02*
D03*
Y713185D02*
D03*
X1398440D02*
D03*
Y865397D02*
D03*
X1648440D02*
D03*
X1860222Y136397D02*
D03*
X1610222D02*
D03*
X1503440Y447397D02*
D03*
X1753440D02*
D03*
X1503440Y527397D02*
D03*
X1753440D02*
D03*
X1398440Y1773543D02*
D03*
X1648440D02*
D03*
Y1697437D02*
D03*
X1398440D02*
D03*
Y1849649D02*
D03*
X1648440D02*
D03*
X1860222Y1120649D02*
D03*
X1610222D02*
D03*
X1503440Y1431649D02*
D03*
X1753440D02*
D03*
X1503440Y1511649D02*
D03*
X1753440D02*
D03*
X1398440Y2757795D02*
D03*
X1648440D02*
D03*
Y2681689D02*
D03*
X1398440D02*
D03*
Y2833901D02*
D03*
X1648440D02*
D03*
X1860222Y2104901D02*
D03*
X1610222D02*
D03*
X1503440Y2415901D02*
D03*
X1753440D02*
D03*
X1503440Y2495901D02*
D03*
X1753440D02*
D03*
X1398440Y3742047D02*
D03*
X1648440D02*
D03*
Y3665941D02*
D03*
X1398440D02*
D03*
Y3818153D02*
D03*
X1648440D02*
D03*
X1860222Y3089153D02*
D03*
X1610222D02*
D03*
X1503440Y3400153D02*
D03*
X1753440D02*
D03*
X1503440Y3480153D02*
D03*
X1753440D02*
D03*
D69*
X2888441Y121397D02*
D03*
D70*
X1427440D02*
D03*
D71*
X3255441Y393397D02*
D03*
Y493397D02*
D03*
Y593397D02*
D03*
Y1377649D02*
D03*
Y1477649D02*
D03*
Y1577649D02*
D03*
Y2361901D02*
D03*
Y2461901D02*
D03*
Y2561901D02*
D03*
Y3346153D02*
D03*
Y3446153D02*
D03*
Y3546153D02*
D03*
D72*
X3770441Y121397D02*
D03*
D73*
X3124160Y889678D02*
D03*
X2383441Y500397D02*
D03*
X3124160Y1873930D02*
D03*
X2383441Y1484649D02*
D03*
X3124160Y2858182D02*
D03*
X2383441Y2468901D02*
D03*
X3124160Y3842434D02*
D03*
X2383441Y3453153D02*
D03*
D74*
X3770441Y1848649D02*
D03*
D75*
X2888441Y1105649D02*
D03*
D76*
X1427440D02*
D03*
D77*
X3770441D02*
D03*
D78*
Y2832901D02*
D03*
D79*
X2888441Y2089901D02*
D03*
D80*
X1427440D02*
D03*
D81*
X3770441D02*
D03*
D82*
Y3817153D02*
D03*
D83*
X2888441Y3074153D02*
D03*
D84*
X1427440D02*
D03*
D85*
X3770441D02*
D03*
%TF.MD5,7cb4ac510bc761699abd95fd03e13f5a*%
M02*
