%TF.GenerationSoftware,Altium Limited,Altium Designer,21.4.1 (30)*%
G04 Layer_Physical_Order=1*
G04 Layer_Color=255*
%FSLAX26Y26*%
%MOIN*%
%TF.SameCoordinates,FA171619-A988-4B02-9C22-6D3C25DF24D0*%
%TF.FilePolarity,Positive*%
%TF.FileFunction,Copper,L1,Top,Signal*%
%TF.Part,ProductionPanel*%
G01*
G75*
%TA.AperFunction,NonConductor*%
%ADD10C,0.019685*%
%TA.AperFunction,SMDPad,CuDef*%
%ADD11C,0.133858*%
G04:AMPARAMS|DCode=12|XSize=133.858mil|YSize=133.858mil|CornerRadius=33.465mil|HoleSize=0mil|Usage=FLASHONLY|Rotation=0.000|XOffset=0mil|YOffset=0mil|HoleType=Round|Shape=RoundedRectangle|*
%AMROUNDEDRECTD12*
21,1,0.133858,0.066929,0,0,0.0*
21,1,0.066929,0.133858,0,0,0.0*
1,1,0.066929,0.033465,-0.033465*
1,1,0.066929,-0.033465,-0.033465*
1,1,0.066929,-0.033465,0.033465*
1,1,0.066929,0.033465,0.033465*
%
%ADD12ROUNDEDRECTD12*%
%ADD13R,0.023622X0.033465*%
%ADD14R,0.078740X0.059055*%
%ADD15R,0.015748X0.078740*%
%TA.AperFunction,Conductor*%
%ADD16C,0.019685*%
%ADD17C,0.039370*%
%ADD18C,0.118110*%
%ADD19C,0.078740*%
%ADD20C,0.027559*%
%TA.AperFunction,NonConductor*%
%ADD21C,0.007874*%
%TA.AperFunction,Conductor*%
%ADD22R,0.480000X0.220000*%
%TA.AperFunction,ComponentPad*%
%ADD23R,0.062992X0.102362*%
%ADD24O,0.062992X0.102362*%
%ADD25R,0.055118X0.055118*%
%ADD26C,0.055118*%
%ADD27R,0.051181X0.051181*%
%ADD28C,0.051181*%
%ADD29C,0.078740*%
G04:AMPARAMS|DCode=30|XSize=78.74mil|YSize=78.74mil|CornerRadius=9.842mil|HoleSize=0mil|Usage=FLASHONLY|Rotation=270.000|XOffset=0mil|YOffset=0mil|HoleType=Round|Shape=RoundedRectangle|*
%AMROUNDEDRECTD30*
21,1,0.078740,0.059055,0,0,270.0*
21,1,0.059055,0.078740,0,0,270.0*
1,1,0.019685,-0.029528,-0.029528*
1,1,0.019685,-0.029528,0.029528*
1,1,0.019685,0.029528,0.029528*
1,1,0.019685,0.029528,-0.029528*
%
%ADD30ROUNDEDRECTD30*%
%TA.AperFunction,ViaPad*%
%ADD31C,0.047244*%
%TA.AperFunction,ComponentPad*%
%ADD32C,0.055000*%
%ADD33C,0.062992*%
%ADD34O,0.098425X0.062992*%
%ADD35R,0.098425X0.070866*%
%ADD36R,0.059055X0.059055*%
%ADD37C,0.059055*%
%ADD38R,0.051181X0.051181*%
%TA.AperFunction,ViaPad*%
%ADD39C,0.050000*%
G36*
X3268441Y3546153D02*
X3239441D01*
Y3672270D01*
X3298324Y3731153D01*
X3453441D01*
X3268441Y3546153D01*
D02*
G37*
G36*
Y2561901D02*
X3239441D01*
Y2688018D01*
X3298324Y2746901D01*
X3453441D01*
X3268441Y2561901D01*
D02*
G37*
G36*
Y1577649D02*
X3239441D01*
Y1703766D01*
X3298324Y1762649D01*
X3453441D01*
X3268441Y1577649D01*
D02*
G37*
G36*
Y593397D02*
X3239441D01*
Y719514D01*
X3298324Y778397D01*
X3453441D01*
X3268441Y593397D01*
D02*
G37*
D10*
X200612Y177165D02*
X279335D01*
Y222150D01*
X200612Y238270D02*
X204360Y242018D01*
X200612Y245767D01*
X196863Y242018D01*
X200612Y238270D01*
X226853Y242018D02*
X279335D01*
X226853Y259637D02*
X279335D01*
X241847D02*
X230601Y270884D01*
X226853Y278381D01*
Y289627D01*
X230601Y297125D01*
X241847Y300873D01*
X279335D01*
X249345Y321491D02*
Y366476D01*
X241847D01*
X234350Y362727D01*
X230601Y358979D01*
X226853Y351481D01*
Y340235D01*
X230601Y332738D01*
X238099Y325240D01*
X249345Y321491D01*
X256842D01*
X268089Y325240D01*
X275586Y332738D01*
X279335Y340235D01*
Y351481D01*
X275586Y358979D01*
X268089Y366476D01*
X226853Y428330D02*
X279335D01*
X238099D02*
X230601Y420833D01*
X226853Y413335D01*
Y402089D01*
X230601Y394592D01*
X238099Y387094D01*
X249345Y383345D01*
X256842D01*
X268089Y387094D01*
X275586Y394592D01*
X279335Y402089D01*
Y413335D01*
X275586Y420833D01*
X268089Y428330D01*
X226853Y449323D02*
X279335D01*
X249345D02*
X238099Y453072D01*
X230601Y460569D01*
X226853Y468067D01*
Y479313D01*
X279335Y608269D02*
X200612Y578279D01*
X279335Y548289D01*
X253094Y559536D02*
Y597023D01*
X238099Y671623D02*
X230601Y664125D01*
X226853Y656628D01*
Y645382D01*
X230601Y637884D01*
X238099Y630387D01*
X249345Y626638D01*
X256842D01*
X268089Y630387D01*
X275586Y637884D01*
X279335Y645382D01*
Y656628D01*
X275586Y664125D01*
X268089Y671623D01*
X200612Y699738D02*
X264340D01*
X275586Y703487D01*
X279335Y710984D01*
Y718482D01*
X226853Y688492D02*
Y714733D01*
Y729728D02*
X264340D01*
X275586Y733477D01*
X279335Y740974D01*
Y752220D01*
X275586Y759718D01*
X264340Y770964D01*
X226853D02*
X279335D01*
X226853Y836567D02*
X279335D01*
X238099D02*
X230601Y829069D01*
X226853Y821572D01*
Y810326D01*
X230601Y802828D01*
X238099Y795331D01*
X249345Y791582D01*
X256842D01*
X268089Y795331D01*
X275586Y802828D01*
X279335Y810326D01*
Y821572D01*
X275586Y829069D01*
X268089Y836567D01*
X200612Y868806D02*
X264340D01*
X275586Y872554D01*
X279335Y880052D01*
Y887549D01*
X226853Y857559D02*
Y883801D01*
Y917539D02*
X230601Y910042D01*
X238099Y902544D01*
X249345Y898795D01*
X256842D01*
X268089Y902544D01*
X275586Y910042D01*
X279335Y917539D01*
Y928785D01*
X275586Y936283D01*
X268089Y943780D01*
X256842Y947529D01*
X249345D01*
X238099Y943780D01*
X230601Y936283D01*
X226853Y928785D01*
Y917539D01*
Y964773D02*
X279335D01*
X249345D02*
X238099Y968522D01*
X230601Y976019D01*
X226853Y983517D01*
Y994763D01*
X200612Y1063739D02*
X279335Y1093729D01*
X200612Y1123719D02*
X279335Y1093729D01*
X200612Y1141338D02*
Y1182574D01*
X230601Y1160082D01*
Y1171328D01*
X234350Y1178826D01*
X238099Y1182574D01*
X249345Y1186323D01*
X256842D01*
X268089Y1182574D01*
X275586Y1175077D01*
X279335Y1163831D01*
Y1152584D01*
X275586Y1141338D01*
X271837Y1137590D01*
X264340Y1133841D01*
X271837Y1207691D02*
X275586Y1203942D01*
X279335Y1207691D01*
X275586Y1211440D01*
X271837Y1207691D01*
X200612Y1251176D02*
X204360Y1239930D01*
X215606Y1232432D01*
X234350Y1228684D01*
X245596D01*
X264340Y1232432D01*
X275586Y1239930D01*
X279335Y1251176D01*
Y1258674D01*
X275586Y1269920D01*
X264340Y1277417D01*
X245596Y1281166D01*
X234350D01*
X215606Y1277417D01*
X204360Y1269920D01*
X200612Y1258674D01*
Y1251176D01*
X346072Y225899D02*
Y177165D01*
X424796D01*
Y225899D01*
X383560Y177165D02*
Y207155D01*
X346072Y239019D02*
X424796D01*
X387308D02*
X376062Y250266D01*
X372313Y257763D01*
Y269009D01*
X376062Y276507D01*
X387308Y280255D01*
X424796D01*
X383560Y342109D02*
X376062Y338361D01*
X372313Y327115D01*
Y315868D01*
X376062Y304622D01*
X383560Y300873D01*
X391057Y304622D01*
X394806Y312120D01*
X398555Y330863D01*
X402303Y338361D01*
X409801Y342109D01*
X413549D01*
X421047Y338361D01*
X424796Y327115D01*
Y315868D01*
X421047Y304622D01*
X413549Y300873D01*
X372313Y403589D02*
X424796D01*
X383560D02*
X376062Y396091D01*
X372313Y388594D01*
Y377348D01*
X376062Y369850D01*
X383560Y362353D01*
X394806Y358604D01*
X402303D01*
X413549Y362353D01*
X421047Y369850D01*
X424796Y377348D01*
Y388594D01*
X421047Y396091D01*
X413549Y403589D01*
X372313Y424581D02*
X424796D01*
X387308D02*
X376062Y435828D01*
X372313Y443325D01*
Y454571D01*
X376062Y462069D01*
X387308Y465817D01*
X424796D01*
X357318Y600772D02*
X349821Y593274D01*
X346072Y582028D01*
Y567033D01*
X349821Y555787D01*
X357318Y548289D01*
X364816D01*
X372313Y552038D01*
X376062Y555787D01*
X379811Y563284D01*
X387308Y585777D01*
X391057Y593274D01*
X394806Y597023D01*
X402303Y600772D01*
X413549D01*
X421047Y593274D01*
X424796Y582028D01*
Y567033D01*
X421047Y555787D01*
X413549Y548289D01*
X346072Y618391D02*
X424796D01*
X387308D02*
X376062Y629637D01*
X372313Y637134D01*
Y648380D01*
X376062Y655878D01*
X387308Y659627D01*
X424796D01*
X372313Y725230D02*
X424796D01*
X383560D02*
X376062Y717732D01*
X372313Y710235D01*
Y698988D01*
X376062Y691491D01*
X383560Y683993D01*
X394806Y680245D01*
X402303D01*
X413549Y683993D01*
X421047Y691491D01*
X424796Y698988D01*
Y710235D01*
X421047Y717732D01*
X413549Y725230D01*
X372313Y791207D02*
X432293D01*
X443539Y787458D01*
X447288Y783710D01*
X451037Y776212D01*
Y764966D01*
X447288Y757468D01*
X383560Y791207D02*
X376062Y783710D01*
X372313Y776212D01*
Y764966D01*
X376062Y757468D01*
X383560Y749971D01*
X394806Y746222D01*
X402303D01*
X413549Y749971D01*
X421047Y757468D01*
X424796Y764966D01*
Y776212D01*
X421047Y783710D01*
X413549Y791207D01*
X346072Y812200D02*
X424796D01*
X387308D02*
X376062Y823446D01*
X372313Y830944D01*
Y842190D01*
X376062Y849687D01*
X387308Y853436D01*
X424796D01*
X372313Y919039D02*
X424796D01*
X383560D02*
X376062Y911541D01*
X372313Y904044D01*
Y892798D01*
X376062Y885300D01*
X383560Y877803D01*
X394806Y874054D01*
X402303D01*
X413549Y877803D01*
X421047Y885300D01*
X424796Y892798D01*
Y904044D01*
X421047Y911541D01*
X413549Y919039D01*
X394806Y940032D02*
Y985016D01*
X387308D01*
X379811Y981268D01*
X376062Y977519D01*
X372313Y970021D01*
Y958775D01*
X376062Y951278D01*
X383560Y943780D01*
X394806Y940032D01*
X402303D01*
X413549Y943780D01*
X421047Y951278D01*
X424796Y958775D01*
Y970021D01*
X421047Y977519D01*
X413549Y985016D01*
X346072Y1009383D02*
X349821Y1013132D01*
X346072Y1016880D01*
X342324Y1013132D01*
X346072Y1009383D01*
X372313Y1013132D02*
X424796D01*
X514025Y214653D02*
X574005D01*
X585251Y210904D01*
X589000Y207155D01*
X592749Y199658D01*
Y192160D01*
X589000Y184663D01*
X585251Y180914D01*
X574005Y177165D01*
X566508D01*
X540266Y279881D02*
X592749D01*
X551513D02*
X544015Y272383D01*
X540266Y264886D01*
Y253639D01*
X544015Y246142D01*
X551513Y238644D01*
X562759Y234896D01*
X570256D01*
X581503Y238644D01*
X589000Y246142D01*
X592749Y253639D01*
Y264886D01*
X589000Y272383D01*
X581503Y279881D01*
X540266Y300873D02*
X592749D01*
X555261D02*
X544015Y312120D01*
X540266Y319617D01*
Y330863D01*
X544015Y338361D01*
X555261Y342109D01*
X592749D01*
X529020Y424581D02*
X525272Y432079D01*
X514025Y443325D01*
X592749D01*
X514025Y519799D02*
X566508Y482312D01*
Y538543D01*
X514025Y519799D02*
X592749D01*
X589000Y559911D02*
X592749Y556162D01*
X589000Y552413D01*
X585251Y556162D01*
X589000Y559911D01*
X596497D01*
X603995Y556162D01*
X607744Y552413D01*
X532769Y642757D02*
X529020D01*
X521523Y646506D01*
X517774Y650255D01*
X514025Y657752D01*
Y672747D01*
X517774Y680245D01*
X521523Y683994D01*
X529020Y687742D01*
X536518D01*
X544015Y683994D01*
X555261Y676496D01*
X592749Y639009D01*
Y691491D01*
X514025Y731602D02*
X517774Y720356D01*
X529020Y712859D01*
X547764Y709110D01*
X559010D01*
X577754Y712859D01*
X589000Y720356D01*
X592749Y731602D01*
Y739100D01*
X589000Y750346D01*
X577754Y757843D01*
X559010Y761592D01*
X547764D01*
X529020Y757843D01*
X517774Y750346D01*
X514025Y739100D01*
Y731602D01*
X532769Y782960D02*
X529020D01*
X521523Y786709D01*
X517774Y790457D01*
X514025Y797955D01*
Y812950D01*
X517774Y820447D01*
X521523Y824196D01*
X529020Y827945D01*
X536518D01*
X544015Y824196D01*
X555261Y816699D01*
X592749Y779211D01*
Y831693D01*
X529020Y849313D02*
X525272Y856810D01*
X514025Y868056D01*
X592749D01*
X529020Y2714653D02*
X581503Y2677165D01*
Y2733396D01*
X529020Y2714653D02*
X607744D01*
X529020Y2809120D02*
X607744Y2861603D01*
X529020D02*
X607744Y2809120D01*
X547764Y2944825D02*
X544015D01*
X536518Y2948573D01*
X532769Y2952322D01*
X529020Y2959820D01*
Y2974814D01*
X532769Y2982312D01*
X536518Y2986061D01*
X544015Y2989809D01*
X551513D01*
X559010Y2986061D01*
X570256Y2978563D01*
X607744Y2941076D01*
Y2993558D01*
X529020Y3056162D02*
Y3018675D01*
X562759Y3014926D01*
X559010Y3018675D01*
X555261Y3029921D01*
Y3041167D01*
X559010Y3052413D01*
X566508Y3059911D01*
X577754Y3063659D01*
X585251D01*
X596497Y3059911D01*
X603995Y3052413D01*
X607744Y3041167D01*
Y3029921D01*
X603995Y3018675D01*
X600246Y3014926D01*
X592749Y3011177D01*
X529020Y3143132D02*
X607744Y3195615D01*
X529020D02*
X607744Y3143132D01*
X529020Y3293831D02*
X532769Y3282585D01*
X540266Y3278836D01*
X547764D01*
X555261Y3282585D01*
X559010Y3290083D01*
X562759Y3305077D01*
X566508Y3316324D01*
X574005Y3323821D01*
X581503Y3327570D01*
X592749D01*
X600246Y3323821D01*
X603995Y3320073D01*
X607744Y3308826D01*
Y3293831D01*
X603995Y3282585D01*
X600246Y3278836D01*
X592749Y3275088D01*
X581503D01*
X574005Y3278836D01*
X566508Y3286334D01*
X562759Y3297580D01*
X559010Y3312575D01*
X555261Y3320073D01*
X547764Y3323821D01*
X540266D01*
X532769Y3320073D01*
X529020Y3308826D01*
Y3293831D01*
Y3367681D02*
X532769Y3356435D01*
X544015Y3348938D01*
X562759Y3345189D01*
X574005D01*
X592749Y3348938D01*
X603995Y3356435D01*
X607744Y3367681D01*
Y3375179D01*
X603995Y3386425D01*
X592749Y3393923D01*
X574005Y3397671D01*
X562759D01*
X544015Y3393923D01*
X532769Y3386425D01*
X529020Y3375179D01*
Y3367681D01*
X570256Y3477144D02*
Y3510883D01*
X566508Y3522129D01*
X562759Y3525878D01*
X555261Y3529626D01*
X544015D01*
X536518Y3525878D01*
X532769Y3522129D01*
X529020Y3510883D01*
Y3477144D01*
X607744D01*
X566508Y3592230D02*
X559010Y3584733D01*
X555261Y3577235D01*
Y3565989D01*
X559010Y3558492D01*
X566508Y3550994D01*
X577754Y3547246D01*
X585251D01*
X596497Y3550994D01*
X603995Y3558492D01*
X607744Y3565989D01*
Y3577235D01*
X603995Y3584733D01*
X596497Y3592230D01*
X566508Y3650336D02*
X559010Y3646587D01*
X555261Y3635341D01*
Y3624095D01*
X559010Y3612848D01*
X566508Y3609100D01*
X574005Y3612848D01*
X577754Y3620346D01*
X581503Y3639089D01*
X585251Y3646587D01*
X592749Y3650336D01*
X596497D01*
X603995Y3646587D01*
X607744Y3635341D01*
Y3624095D01*
X603995Y3612848D01*
X596497Y3609100D01*
D11*
X3768441Y595397D02*
D03*
Y1579649D02*
D03*
Y2563901D02*
D03*
Y3548153D02*
D03*
D12*
Y402484D02*
D03*
Y1386736D02*
D03*
Y2370988D02*
D03*
Y3355240D02*
D03*
D13*
X2985936Y448397D02*
D03*
X2936944D02*
D03*
X1882937Y504397D02*
D03*
X1833944D02*
D03*
X1882937Y431397D02*
D03*
X1833944D02*
D03*
X3298324Y778397D02*
D03*
X3249332D02*
D03*
X2985936Y532397D02*
D03*
X2936944D02*
D03*
X2985936Y1432649D02*
D03*
X2936944D02*
D03*
X1882937Y1488649D02*
D03*
X1833944D02*
D03*
X1882937Y1415649D02*
D03*
X1833944D02*
D03*
X3298324Y1762649D02*
D03*
X3249332D02*
D03*
X2985936Y1516649D02*
D03*
X2936944D02*
D03*
X2985936Y2416901D02*
D03*
X2936944D02*
D03*
X1882937Y2472901D02*
D03*
X1833944D02*
D03*
X1882937Y2399901D02*
D03*
X1833944D02*
D03*
X3298324Y2746901D02*
D03*
X3249332D02*
D03*
X2985936Y2500901D02*
D03*
X2936944D02*
D03*
X2985936Y3401153D02*
D03*
X2936944D02*
D03*
X1882937Y3457153D02*
D03*
X1833944D02*
D03*
X1882937Y3384153D02*
D03*
X1833944D02*
D03*
X3298324Y3731153D02*
D03*
X3249332D02*
D03*
X2985936Y3485153D02*
D03*
X2936944D02*
D03*
D14*
X3117441Y422031D02*
D03*
Y567031D02*
D03*
X3118441Y495031D02*
D03*
X3117441Y1406283D02*
D03*
Y1551283D02*
D03*
X3118441Y1479283D02*
D03*
X3117441Y2390535D02*
D03*
Y2535535D02*
D03*
X3118441Y2463535D02*
D03*
X3117441Y3374787D02*
D03*
Y3519787D02*
D03*
X3118441Y3447787D02*
D03*
D15*
X1691196Y234397D02*
D03*
X1738440D02*
D03*
X1785685D02*
D03*
X1691196Y1218649D02*
D03*
X1738440D02*
D03*
X1785685D02*
D03*
X1691196Y2202901D02*
D03*
X1738440D02*
D03*
X1785685D02*
D03*
X1691196Y3187153D02*
D03*
X1738440D02*
D03*
X1785685D02*
D03*
D16*
X1389440Y276397D02*
Y336397D01*
Y276397D02*
X1608799Y57039D01*
X1940440Y285397D02*
X2121441D01*
X1889440Y336397D02*
X1940440Y285397D01*
X2121441D02*
X2138811Y302767D01*
X1608799Y57039D02*
X2271082D01*
X2956228Y244610D02*
Y380610D01*
Y244610D02*
X3003441Y197397D01*
X2170441Y691397D02*
X2219441D01*
X2243441Y660105D02*
X2288733Y705397D01*
X2139441Y564397D02*
Y660397D01*
X2091496Y638452D02*
Y695452D01*
X2139441Y660397D02*
X2170441Y691397D01*
X2243441Y573397D02*
Y660105D01*
X2225441Y751186D02*
Y751866D01*
X2120441Y724397D02*
X2198652D01*
X2091496Y695452D02*
X2120441Y724397D01*
X2198652D02*
X2225441Y751186D01*
X2038811Y746844D02*
X2062669Y770702D01*
X2219441Y691397D02*
X2340756Y812712D01*
X2062669Y770702D02*
Y802106D01*
X2225441Y751866D02*
X2315972Y842397D01*
X1762669Y799153D02*
Y869169D01*
X889441Y336397D02*
Y502397D01*
X2038811Y601768D02*
Y746844D01*
X1889440Y636397D02*
X1949440Y576397D01*
X2089441Y336397D02*
Y419397D01*
X1989440Y336397D02*
Y414397D01*
X2089441Y636397D02*
X2091496Y638452D01*
X2013440Y576397D02*
X2038811Y601768D01*
X1949440Y576397D02*
X2013440D01*
X1400440Y875397D02*
X1447783Y922740D01*
X1709098D02*
X1762669Y869169D01*
X2089441Y419397D02*
X2243441Y573397D01*
X2138811Y368767D02*
X2164441Y394397D01*
X1989440Y414397D02*
X2139441Y564397D01*
X937441Y444075D02*
X938811Y442704D01*
X2288733Y705397D02*
X2363441D01*
X2398661Y645146D02*
X2405441Y638366D01*
X2398661Y645146D02*
Y670177D01*
X2363441Y705397D02*
X2398661Y670177D01*
X2722472Y155397D02*
X2905441Y338366D01*
X2405441D02*
X2412220Y331586D01*
X2457441Y274397D02*
X2576441Y155397D01*
X2457441Y274397D02*
Y364397D01*
X2413082Y199039D02*
Y309118D01*
X2271082Y57039D02*
X2413082Y199039D01*
X2933441Y403397D02*
X2956228Y380610D01*
X2164441Y394397D02*
X2427441D01*
X2138811Y302767D02*
Y368767D01*
X3005441Y638366D02*
Y766397D01*
X2905441Y638366D02*
Y769712D01*
X2936944Y448397D02*
Y532397D01*
X2412220Y309980D02*
X2413082Y309118D01*
X2427441Y394397D02*
X2457441Y364397D01*
X2576441Y155397D02*
X2722472D01*
X2412220Y309980D02*
Y331586D01*
X2315972Y842397D02*
X2929441D01*
X3005441Y766397D01*
X2340756Y812712D02*
X2862441D01*
X2905441Y769712D01*
X936018Y555734D02*
X937441Y554311D01*
X888104Y555734D02*
X936018D01*
X801394Y590444D02*
X889441Y502397D01*
X801394Y851219D02*
X848856Y898681D01*
X831078Y838922D02*
X861152Y868996D01*
X831078Y757022D02*
X831079Y757022D01*
Y612759D02*
Y757022D01*
Y612759D02*
X888104Y555734D01*
X831078Y757022D02*
Y838922D01*
X801394Y590444D02*
Y851219D01*
X1256440Y554311D02*
X1262467Y560337D01*
X1289182D01*
X1308441Y875397D02*
X1400440D01*
X1285157Y898681D02*
X1308441Y875397D01*
X1265842Y868996D02*
X1335547Y799291D01*
X861152Y868996D02*
X1265842D01*
X1357709Y628864D02*
X1381907D01*
X1289182Y560337D02*
X1357709Y628864D01*
X1381907D02*
X1389440Y636397D01*
X848856Y898681D02*
X1285157D01*
X1447783Y922740D02*
X1709098D01*
X1389440Y1260649D02*
Y1320649D01*
Y1260649D02*
X1608799Y1041291D01*
X1940440Y1269649D02*
X2121441D01*
X1889440Y1320649D02*
X1940440Y1269649D01*
X2121441D02*
X2138811Y1287020D01*
X1608799Y1041291D02*
X2271082D01*
X2956228Y1228862D02*
Y1364862D01*
Y1228862D02*
X3003441Y1181649D01*
X2170441Y1675649D02*
X2219441D01*
X2243441Y1644357D02*
X2288733Y1689649D01*
X2139441Y1548649D02*
Y1644649D01*
X2091496Y1622705D02*
Y1679705D01*
X2139441Y1644649D02*
X2170441Y1675649D01*
X2243441Y1557649D02*
Y1644357D01*
X2225441Y1735438D02*
Y1736118D01*
X2120441Y1708649D02*
X2198652D01*
X2091496Y1679705D02*
X2120441Y1708649D01*
X2198652D02*
X2225441Y1735438D01*
X2038811Y1731096D02*
X2062669Y1754954D01*
X2219441Y1675649D02*
X2340756Y1796964D01*
X2062669Y1754954D02*
Y1786358D01*
X2225441Y1736118D02*
X2315972Y1826649D01*
X1762669Y1783405D02*
Y1853421D01*
X889441Y1320649D02*
Y1486649D01*
X2038811Y1586020D02*
Y1731096D01*
X1889440Y1620649D02*
X1949440Y1560649D01*
X2089441Y1320649D02*
Y1403649D01*
X1989440Y1320649D02*
Y1398649D01*
X2089441Y1620649D02*
X2091496Y1622705D01*
X2013440Y1560649D02*
X2038811Y1586020D01*
X1949440Y1560649D02*
X2013440D01*
X1400440Y1859649D02*
X1447783Y1906992D01*
X1709098D02*
X1762669Y1853421D01*
X2089441Y1403649D02*
X2243441Y1557649D01*
X2138811Y1353020D02*
X2164441Y1378649D01*
X1989440Y1398649D02*
X2139441Y1548649D01*
X937441Y1428327D02*
X938811Y1426957D01*
X2288733Y1689649D02*
X2363441D01*
X2398661Y1629398D02*
X2405441Y1622618D01*
X2398661Y1629398D02*
Y1654429D01*
X2363441Y1689649D02*
X2398661Y1654429D01*
X2722472Y1139649D02*
X2905441Y1322618D01*
X2405441D02*
X2412220Y1315838D01*
X2457441Y1258649D02*
X2576441Y1139649D01*
X2457441Y1258649D02*
Y1348649D01*
X2413082Y1183291D02*
Y1293370D01*
X2271082Y1041291D02*
X2413082Y1183291D01*
X2933441Y1387649D02*
X2956228Y1364862D01*
X2164441Y1378649D02*
X2427441D01*
X2138811Y1287020D02*
Y1353020D01*
X3005441Y1622618D02*
Y1750649D01*
X2905441Y1622618D02*
Y1753964D01*
X2936944Y1432649D02*
Y1516649D01*
X2412220Y1294232D02*
X2413082Y1293370D01*
X2427441Y1378649D02*
X2457441Y1348649D01*
X2576441Y1139649D02*
X2722472D01*
X2412220Y1294232D02*
Y1315838D01*
X2315972Y1826649D02*
X2929441D01*
X3005441Y1750649D01*
X2340756Y1796964D02*
X2862441D01*
X2905441Y1753964D01*
X936018Y1539986D02*
X937441Y1538563D01*
X888104Y1539986D02*
X936018D01*
X801394Y1574696D02*
X889441Y1486649D01*
X801394Y1835471D02*
X848856Y1882933D01*
X831078Y1823174D02*
X861152Y1853248D01*
X831078Y1741274D02*
X831079Y1741274D01*
Y1597011D02*
Y1741274D01*
Y1597011D02*
X888104Y1539986D01*
X831078Y1741274D02*
Y1823174D01*
X801394Y1574696D02*
Y1835471D01*
X1256440Y1538563D02*
X1262467Y1544589D01*
X1289182D01*
X1308441Y1859649D02*
X1400440D01*
X1285157Y1882933D02*
X1308441Y1859649D01*
X1265842Y1853248D02*
X1335547Y1783543D01*
X861152Y1853248D02*
X1265842D01*
X1357709Y1613116D02*
X1381907D01*
X1289182Y1544589D02*
X1357709Y1613116D01*
X1381907D02*
X1389440Y1620649D01*
X848856Y1882933D02*
X1285157D01*
X1447783Y1906992D02*
X1709098D01*
X1389440Y2244901D02*
Y2304901D01*
Y2244901D02*
X1608799Y2025543D01*
X1940440Y2253901D02*
X2121441D01*
X1889440Y2304901D02*
X1940440Y2253901D01*
X2121441D02*
X2138811Y2271271D01*
X1608799Y2025543D02*
X2271082D01*
X2956228Y2213114D02*
Y2349114D01*
Y2213114D02*
X3003441Y2165901D01*
X2170441Y2659901D02*
X2219441D01*
X2243441Y2628609D02*
X2288733Y2673901D01*
X2139441Y2532901D02*
Y2628901D01*
X2091496Y2606956D02*
Y2663956D01*
X2139441Y2628901D02*
X2170441Y2659901D01*
X2243441Y2541901D02*
Y2628609D01*
X2225441Y2719690D02*
Y2720370D01*
X2120441Y2692901D02*
X2198652D01*
X2091496Y2663956D02*
X2120441Y2692901D01*
X2198652D02*
X2225441Y2719690D01*
X2038811Y2715348D02*
X2062669Y2739206D01*
X2219441Y2659901D02*
X2340756Y2781216D01*
X2062669Y2739206D02*
Y2770610D01*
X2225441Y2720370D02*
X2315972Y2810901D01*
X1762669Y2767657D02*
Y2837673D01*
X889441Y2304901D02*
Y2470901D01*
X2038811Y2570271D02*
Y2715348D01*
X1889440Y2604901D02*
X1949440Y2544901D01*
X2089441Y2304901D02*
Y2387901D01*
X1989440Y2304901D02*
Y2382901D01*
X2089441Y2604901D02*
X2091496Y2606956D01*
X2013440Y2544901D02*
X2038811Y2570271D01*
X1949440Y2544901D02*
X2013440D01*
X1400440Y2843901D02*
X1447783Y2891244D01*
X1709098D02*
X1762669Y2837673D01*
X2089441Y2387901D02*
X2243441Y2541901D01*
X2138811Y2337271D02*
X2164441Y2362901D01*
X1989440Y2382901D02*
X2139441Y2532901D01*
X937441Y2412579D02*
X938811Y2411209D01*
X2288733Y2673901D02*
X2363441D01*
X2398661Y2613650D02*
X2405441Y2606870D01*
X2398661Y2613650D02*
Y2638681D01*
X2363441Y2673901D02*
X2398661Y2638681D01*
X2722472Y2123901D02*
X2905441Y2306870D01*
X2405441D02*
X2412220Y2300090D01*
X2457441Y2242901D02*
X2576441Y2123901D01*
X2457441Y2242901D02*
Y2332901D01*
X2413082Y2167543D02*
Y2277622D01*
X2271082Y2025543D02*
X2413082Y2167543D01*
X2933441Y2371901D02*
X2956228Y2349114D01*
X2164441Y2362901D02*
X2427441D01*
X2138811Y2271271D02*
Y2337271D01*
X3005441Y2606870D02*
Y2734901D01*
X2905441Y2606870D02*
Y2738216D01*
X2936944Y2416901D02*
Y2500901D01*
X2412220Y2278484D02*
X2413082Y2277622D01*
X2427441Y2362901D02*
X2457441Y2332901D01*
X2576441Y2123901D02*
X2722472D01*
X2412220Y2278484D02*
Y2300090D01*
X2315972Y2810901D02*
X2929441D01*
X3005441Y2734901D01*
X2340756Y2781216D02*
X2862441D01*
X2905441Y2738216D01*
X936018Y2524238D02*
X937441Y2522815D01*
X888104Y2524238D02*
X936018D01*
X801394Y2558948D02*
X889441Y2470901D01*
X801394Y2819723D02*
X848856Y2867185D01*
X831078Y2807426D02*
X861152Y2837500D01*
X831078Y2725526D02*
X831079Y2725526D01*
Y2581263D02*
Y2725526D01*
Y2581263D02*
X888104Y2524238D01*
X831078Y2725526D02*
Y2807426D01*
X801394Y2558948D02*
Y2819723D01*
X1256440Y2522815D02*
X1262467Y2528841D01*
X1289182D01*
X1308441Y2843901D02*
X1400440D01*
X1285157Y2867185D02*
X1308441Y2843901D01*
X1265842Y2837500D02*
X1335547Y2767795D01*
X861152Y2837500D02*
X1265842D01*
X1357709Y2597368D02*
X1381907D01*
X1289182Y2528841D02*
X1357709Y2597368D01*
X1381907D02*
X1389440Y2604901D01*
X848856Y2867185D02*
X1285157D01*
X1447783Y2891244D02*
X1709098D01*
X1389440Y3229153D02*
Y3289153D01*
Y3229153D02*
X1608799Y3009795D01*
X1940440Y3238153D02*
X2121441D01*
X1889440Y3289153D02*
X1940440Y3238153D01*
X2121441D02*
X2138811Y3255523D01*
X1608799Y3009795D02*
X2271082D01*
X2956228Y3197366D02*
Y3333366D01*
Y3197366D02*
X3003441Y3150153D01*
X2170441Y3644153D02*
X2219441D01*
X2243441Y3612861D02*
X2288733Y3658153D01*
X2139441Y3517153D02*
Y3613153D01*
X2091496Y3591209D02*
Y3648209D01*
X2139441Y3613153D02*
X2170441Y3644153D01*
X2243441Y3526153D02*
Y3612861D01*
X2225441Y3703942D02*
Y3704622D01*
X2120441Y3677153D02*
X2198652D01*
X2091496Y3648209D02*
X2120441Y3677153D01*
X2198652D02*
X2225441Y3703942D01*
X2038811Y3699600D02*
X2062669Y3723458D01*
X2219441Y3644153D02*
X2340756Y3765468D01*
X2062669Y3723458D02*
Y3754862D01*
X2225441Y3704622D02*
X2315972Y3795153D01*
X1762669Y3751909D02*
Y3821925D01*
X889441Y3289153D02*
Y3455153D01*
X2038811Y3554523D02*
Y3699600D01*
X1889440Y3589153D02*
X1949440Y3529153D01*
X2089441Y3289153D02*
Y3372153D01*
X1989440Y3289153D02*
Y3367153D01*
X2089441Y3589153D02*
X2091496Y3591209D01*
X2013440Y3529153D02*
X2038811Y3554523D01*
X1949440Y3529153D02*
X2013440D01*
X1400440Y3828153D02*
X1447783Y3875496D01*
X1709098D02*
X1762669Y3821925D01*
X2089441Y3372153D02*
X2243441Y3526153D01*
X2138811Y3321523D02*
X2164441Y3347153D01*
X1989440Y3367153D02*
X2139441Y3517153D01*
X937441Y3396831D02*
X938811Y3395461D01*
X2288733Y3658153D02*
X2363441D01*
X2398661Y3597902D02*
X2405441Y3591122D01*
X2398661Y3597902D02*
Y3622933D01*
X2363441Y3658153D02*
X2398661Y3622933D01*
X2722472Y3108153D02*
X2905441Y3291122D01*
X2405441D02*
X2412220Y3284342D01*
X2457441Y3227153D02*
X2576441Y3108153D01*
X2457441Y3227153D02*
Y3317153D01*
X2413082Y3151795D02*
Y3261874D01*
X2271082Y3009795D02*
X2413082Y3151795D01*
X2933441Y3356153D02*
X2956228Y3333366D01*
X2164441Y3347153D02*
X2427441D01*
X2138811Y3255523D02*
Y3321523D01*
X3005441Y3591122D02*
Y3719153D01*
X2905441Y3591122D02*
Y3722468D01*
X2936944Y3401153D02*
Y3485153D01*
X2412220Y3262736D02*
X2413082Y3261874D01*
X2427441Y3347153D02*
X2457441Y3317153D01*
X2576441Y3108153D02*
X2722472D01*
X2412220Y3262736D02*
Y3284342D01*
X2315972Y3795153D02*
X2929441D01*
X3005441Y3719153D01*
X2340756Y3765468D02*
X2862441D01*
X2905441Y3722468D01*
X936018Y3508490D02*
X937441Y3507067D01*
X888104Y3508490D02*
X936018D01*
X801394Y3543200D02*
X889441Y3455153D01*
X801394Y3803975D02*
X848856Y3851437D01*
X831078Y3791678D02*
X861152Y3821752D01*
X831078Y3709778D02*
X831079Y3709778D01*
Y3565515D02*
Y3709778D01*
Y3565515D02*
X888104Y3508490D01*
X831078Y3709778D02*
Y3791678D01*
X801394Y3543200D02*
Y3803975D01*
X1256440Y3507067D02*
X1262467Y3513093D01*
X1289182D01*
X1308441Y3828153D02*
X1400440D01*
X1285157Y3851437D02*
X1308441Y3828153D01*
X1265842Y3821752D02*
X1335547Y3752047D01*
X861152Y3821752D02*
X1265842D01*
X1357709Y3581620D02*
X1381907D01*
X1289182Y3513093D02*
X1357709Y3581620D01*
X1381907D02*
X1389440Y3589153D01*
X848856Y3851437D02*
X1285157D01*
X1447783Y3875496D02*
X1709098D01*
D17*
X1997940Y134897D02*
X1999440Y133397D01*
Y233397D02*
X2148441D01*
X2185674Y270631D01*
X1738733Y169689D02*
Y198586D01*
X1787563Y254083D02*
Y334519D01*
X1690319Y254083D02*
Y335519D01*
X1689440Y336397D02*
X1690319Y335519D01*
X1787563Y334519D02*
X1789440Y336397D01*
X1589440Y161408D02*
Y336397D01*
X1082023Y177397D02*
Y190980D01*
X1185674Y294631D01*
X1182023Y177397D02*
X1189739Y185113D01*
X982023Y177397D02*
Y198800D01*
X1189739Y204798D02*
X1285674Y300733D01*
X904954Y208893D02*
X985674Y289614D01*
X893834Y208893D02*
X904954D01*
X1189739Y185113D02*
Y204798D01*
X982023Y198800D02*
X1085674Y302451D01*
X2185674Y270631D02*
Y332631D01*
X2189441Y336397D01*
X1285674Y300733D02*
Y332631D01*
X985674Y289614D02*
Y332631D01*
X1285674D02*
X1289440Y336397D01*
X1185674Y294631D02*
Y332631D01*
X1085674D02*
X1089440Y336397D01*
X985674Y332631D02*
X989441Y336397D01*
X1185674Y332631D02*
X1189440Y336397D01*
X1085674Y302451D02*
Y332631D01*
X1610222Y136397D02*
X1705440D01*
X1610222D02*
Y140627D01*
X1860222Y136397D02*
X1861722Y134897D01*
X1997940D01*
X1705440Y136397D02*
X1738733Y169689D01*
X1589440Y161408D02*
X1610222Y140627D01*
X3232383Y393397D02*
X3255441D01*
X3117441Y567031D02*
X3264705D01*
X3273882Y576208D01*
X3117441Y422031D02*
X3203750D01*
X3232383Y393397D01*
X3003441Y197397D02*
X3031441Y169397D01*
X3039807Y495031D02*
X3118441D01*
X3031441Y169397D02*
X3595441D01*
X3639441Y213397D01*
Y402484D01*
X3308441Y778397D02*
X3514441D01*
X3631014D02*
X3662471Y746940D01*
X3514441Y778397D02*
X3631014D01*
X1600940Y447897D02*
X1601440Y447397D01*
X1356440Y444075D02*
X1414218D01*
X2162669Y818838D02*
X2233509Y889678D01*
X2162669Y799153D02*
Y818838D01*
X1862669Y709626D02*
Y802106D01*
X1753440Y550815D02*
X1858051D01*
X1489440Y336397D02*
X1600940Y447897D01*
X1414218Y444075D02*
X1494551Y524407D01*
X1962669Y668496D02*
X1989440Y641724D01*
X1962669Y668496D02*
Y802106D01*
X1989440Y636397D02*
Y641724D01*
X1601440Y447397D02*
X1753440D01*
X1882937Y504397D02*
Y525930D01*
Y431397D02*
Y504397D01*
X1858051Y550815D02*
X1882937Y525930D01*
X1648440Y789291D02*
Y865397D01*
Y713185D02*
Y789291D01*
X1753440Y447397D02*
Y527397D01*
X1258700Y454895D02*
X1356440Y552635D01*
X1589440Y636397D02*
X1648440D01*
X1037440Y554311D02*
X1147677Y444075D01*
X1356440Y552635D02*
Y554311D01*
X1358700Y556571D02*
X1409614D01*
X1258700Y446334D02*
Y454895D01*
X1147677Y444075D02*
X1256440D01*
X937441D02*
Y444644D01*
X1035181Y542384D01*
X1256440Y444075D02*
X1258700Y446334D01*
X1648440Y642407D02*
X1650683Y640164D01*
X1685674D01*
X1750450Y550815D02*
Y571388D01*
Y530388D02*
Y550815D01*
X1685674Y640164D02*
X1689440Y636397D01*
X1750450Y530388D02*
X1753440Y527397D01*
X1648440Y642407D02*
Y713185D01*
X1685440Y636397D02*
X1750450Y571388D01*
X1689440Y636397D02*
X1693207Y632631D01*
X1789440Y636397D02*
X1862669Y709626D01*
X1648440Y636397D02*
X1685440D01*
X2802427Y325723D02*
Y335353D01*
X2805441Y338366D01*
X2689102Y212397D02*
X2802427Y325723D01*
X2508454Y314306D02*
Y335353D01*
X2655441Y338366D02*
X2705441D01*
X2605441D02*
X2655441D01*
X2508454Y314306D02*
X2610362Y212397D01*
X2505441Y338366D02*
X2508454Y335353D01*
X3016441Y518397D02*
X3039807Y495031D01*
X2655441Y338366D02*
Y490397D01*
X2505441Y638366D02*
X2604456Y737382D01*
X2605441Y638366D02*
X2655441D01*
X2802427Y641379D02*
X2805441Y638366D01*
X2655441D02*
X2705441D01*
X3014441Y520397D02*
X3016441Y518397D01*
X2689102Y765103D02*
X2802427Y651777D01*
Y641379D02*
Y651777D01*
X2604456Y737382D02*
Y759197D01*
X2655441Y490397D02*
Y638366D01*
X2604456Y759197D02*
X2610362Y765103D01*
X2233509Y889678D02*
X3124160D01*
X3231441Y782397D01*
X1035181Y552051D02*
X1037440Y554311D01*
X1035181Y542384D02*
Y552051D01*
X885929Y639909D02*
Y794460D01*
Y639909D02*
X889441Y636397D01*
X882417Y797972D02*
X885929Y794460D01*
X1189440Y636397D02*
Y641724D01*
X1182417Y648748D02*
Y797972D01*
Y648748D02*
X1189440Y641724D01*
X1289441Y636398D02*
Y799291D01*
X1293207D02*
X1335547D01*
X1398440D01*
X1494551Y524407D02*
X1500450D01*
X1503440Y527397D01*
X1389440Y636397D02*
X1393207Y640164D01*
Y715722D01*
X1409614Y556571D02*
X1489440Y636397D01*
X1356440Y554311D02*
X1358700Y556571D01*
X989441Y636397D02*
Y641724D01*
X1082417Y648748D02*
X1089440Y641724D01*
X982417Y648748D02*
X989441Y641724D01*
X1089440Y636397D02*
Y641724D01*
X1082417Y648748D02*
Y797972D01*
X982417Y648748D02*
Y797972D01*
X1997940Y1119149D02*
X1999440Y1117649D01*
Y1217649D02*
X2148441D01*
X2185674Y1254883D01*
X1738733Y1153941D02*
Y1182838D01*
X1787563Y1238334D02*
Y1318772D01*
X1690319Y1238334D02*
Y1319771D01*
X1689440Y1320649D02*
X1690319Y1319771D01*
X1787563Y1318772D02*
X1789440Y1320649D01*
X1589440Y1145660D02*
Y1320649D01*
X1082023Y1161649D02*
Y1175232D01*
X1185674Y1278883D01*
X1182023Y1161649D02*
X1189739Y1169365D01*
X982023Y1161649D02*
Y1183052D01*
X1189739Y1189050D02*
X1285674Y1284985D01*
X904954Y1193145D02*
X985674Y1273866D01*
X893834Y1193145D02*
X904954D01*
X1189739Y1169365D02*
Y1189050D01*
X982023Y1183052D02*
X1085674Y1286703D01*
X2185674Y1254883D02*
Y1316883D01*
X2189441Y1320649D01*
X1285674Y1284985D02*
Y1316883D01*
X985674Y1273866D02*
Y1316883D01*
X1285674D02*
X1289440Y1320649D01*
X1185674Y1278883D02*
Y1316883D01*
X1085674D02*
X1089440Y1320649D01*
X985674Y1316883D02*
X989441Y1320649D01*
X1185674Y1316883D02*
X1189440Y1320649D01*
X1085674Y1286703D02*
Y1316883D01*
X1610222Y1120649D02*
X1705440D01*
X1610222D02*
Y1124879D01*
X1860222Y1120649D02*
X1861722Y1119149D01*
X1997940D01*
X1705440Y1120649D02*
X1738733Y1153941D01*
X1589440Y1145660D02*
X1610222Y1124879D01*
X3232383Y1377649D02*
X3255441D01*
X3117441Y1551283D02*
X3264705D01*
X3273882Y1560460D01*
X3117441Y1406283D02*
X3203750D01*
X3232383Y1377649D01*
X3003441Y1181649D02*
X3031441Y1153649D01*
X3039807Y1479283D02*
X3118441D01*
X3031441Y1153649D02*
X3595441D01*
X3639441Y1197649D01*
Y1386736D01*
X3308441Y1762649D02*
X3514441D01*
X3631014D02*
X3662471Y1731192D01*
X3514441Y1762649D02*
X3631014D01*
X1600940Y1432149D02*
X1601440Y1431649D01*
X1356440Y1428327D02*
X1414218D01*
X2162669Y1803090D02*
X2233509Y1873930D01*
X2162669Y1783405D02*
Y1803090D01*
X1862669Y1693878D02*
Y1786358D01*
X1753440Y1535067D02*
X1858051D01*
X1489440Y1320649D02*
X1600940Y1432149D01*
X1414218Y1428327D02*
X1494551Y1508659D01*
X1962669Y1652748D02*
X1989440Y1625976D01*
X1962669Y1652748D02*
Y1786358D01*
X1989440Y1620649D02*
Y1625976D01*
X1601440Y1431649D02*
X1753440D01*
X1882937Y1488649D02*
Y1510182D01*
Y1415649D02*
Y1488649D01*
X1858051Y1535067D02*
X1882937Y1510182D01*
X1648440Y1773543D02*
Y1849649D01*
Y1697437D02*
Y1773543D01*
X1753440Y1431649D02*
Y1511649D01*
X1258700Y1439147D02*
X1356440Y1536887D01*
X1589440Y1620649D02*
X1648440D01*
X1037440Y1538563D02*
X1147677Y1428327D01*
X1356440Y1536887D02*
Y1538563D01*
X1358700Y1540823D02*
X1409614D01*
X1258700Y1430586D02*
Y1439147D01*
X1147677Y1428327D02*
X1256440D01*
X937441D02*
Y1428896D01*
X1035181Y1526636D01*
X1256440Y1428327D02*
X1258700Y1430586D01*
X1648440Y1626659D02*
X1650683Y1624416D01*
X1685674D01*
X1750450Y1535067D02*
Y1555640D01*
Y1514640D02*
Y1535067D01*
X1685674Y1624416D02*
X1689440Y1620649D01*
X1750450Y1514640D02*
X1753440Y1511649D01*
X1648440Y1626659D02*
Y1697437D01*
X1685440Y1620649D02*
X1750450Y1555640D01*
X1689440Y1620649D02*
X1693207Y1616883D01*
X1789440Y1620649D02*
X1862669Y1693878D01*
X1648440Y1620649D02*
X1685440D01*
X2802427Y1309975D02*
Y1319605D01*
X2805441Y1322618D01*
X2689102Y1196649D02*
X2802427Y1309975D01*
X2508454Y1298558D02*
Y1319605D01*
X2655441Y1322618D02*
X2705441D01*
X2605441D02*
X2655441D01*
X2508454Y1298558D02*
X2610362Y1196649D01*
X2505441Y1322618D02*
X2508454Y1319605D01*
X3016441Y1502649D02*
X3039807Y1479283D01*
X2655441Y1322618D02*
Y1474649D01*
X2505441Y1622618D02*
X2604456Y1721634D01*
X2605441Y1622618D02*
X2655441D01*
X2802427Y1625631D02*
X2805441Y1622618D01*
X2655441D02*
X2705441D01*
X3014441Y1504649D02*
X3016441Y1502649D01*
X2689102Y1749355D02*
X2802427Y1636029D01*
Y1625631D02*
Y1636029D01*
X2604456Y1721634D02*
Y1743449D01*
X2655441Y1474649D02*
Y1622618D01*
X2604456Y1743449D02*
X2610362Y1749355D01*
X2233509Y1873930D02*
X3124160D01*
X3231441Y1766649D01*
X1035181Y1536303D02*
X1037440Y1538563D01*
X1035181Y1526636D02*
Y1536303D01*
X885929Y1624161D02*
Y1778712D01*
Y1624161D02*
X889441Y1620649D01*
X882417Y1782224D02*
X885929Y1778712D01*
X1189440Y1620649D02*
Y1625976D01*
X1182417Y1633000D02*
Y1782224D01*
Y1633000D02*
X1189440Y1625976D01*
X1289441Y1620649D02*
Y1783543D01*
X1293207D02*
X1335547D01*
X1398440D01*
X1494551Y1508659D02*
X1500450D01*
X1503440Y1511649D01*
X1389440Y1620649D02*
X1393207Y1624416D01*
Y1699974D01*
X1409614Y1540823D02*
X1489440Y1620649D01*
X1356440Y1538563D02*
X1358700Y1540823D01*
X989441Y1620649D02*
Y1625976D01*
X1082417Y1633000D02*
X1089440Y1625976D01*
X982417Y1633000D02*
X989441Y1625976D01*
X1089440Y1620649D02*
Y1625976D01*
X1082417Y1633000D02*
Y1782224D01*
X982417Y1633000D02*
Y1782224D01*
X1997940Y2103401D02*
X1999440Y2101901D01*
Y2201901D02*
X2148441D01*
X2185674Y2239135D01*
X1738733Y2138193D02*
Y2167090D01*
X1787563Y2222586D02*
Y2303023D01*
X1690319Y2222586D02*
Y2304023D01*
X1689440Y2304901D02*
X1690319Y2304023D01*
X1787563Y2303023D02*
X1789440Y2304901D01*
X1589440Y2129912D02*
Y2304901D01*
X1082023Y2145901D02*
Y2159484D01*
X1185674Y2263135D01*
X1182023Y2145901D02*
X1189739Y2153617D01*
X982023Y2145901D02*
Y2167304D01*
X1189739Y2173302D02*
X1285674Y2269237D01*
X904954Y2177397D02*
X985674Y2258118D01*
X893834Y2177397D02*
X904954D01*
X1189739Y2153617D02*
Y2173302D01*
X982023Y2167304D02*
X1085674Y2270955D01*
X2185674Y2239135D02*
Y2301135D01*
X2189441Y2304901D01*
X1285674Y2269237D02*
Y2301135D01*
X985674Y2258118D02*
Y2301135D01*
X1285674D02*
X1289440Y2304901D01*
X1185674Y2263135D02*
Y2301135D01*
X1085674D02*
X1089440Y2304901D01*
X985674Y2301135D02*
X989441Y2304901D01*
X1185674Y2301135D02*
X1189440Y2304901D01*
X1085674Y2270955D02*
Y2301135D01*
X1610222Y2104901D02*
X1705440D01*
X1610222D02*
Y2109131D01*
X1860222Y2104901D02*
X1861722Y2103401D01*
X1997940D01*
X1705440Y2104901D02*
X1738733Y2138193D01*
X1589440Y2129912D02*
X1610222Y2109131D01*
X3232383Y2361901D02*
X3255441D01*
X3117441Y2535535D02*
X3264705D01*
X3273882Y2544712D01*
X3117441Y2390535D02*
X3203750D01*
X3232383Y2361901D01*
X3003441Y2165901D02*
X3031441Y2137901D01*
X3039807Y2463535D02*
X3118441D01*
X3031441Y2137901D02*
X3595441D01*
X3639441Y2181901D01*
Y2370988D01*
X3308441Y2746901D02*
X3514441D01*
X3631014D02*
X3662471Y2715444D01*
X3514441Y2746901D02*
X3631014D01*
X1600940Y2416401D02*
X1601440Y2415901D01*
X1356440Y2412579D02*
X1414218D01*
X2162669Y2787342D02*
X2233509Y2858182D01*
X2162669Y2767657D02*
Y2787342D01*
X1862669Y2678130D02*
Y2770610D01*
X1753440Y2519319D02*
X1858051D01*
X1489440Y2304901D02*
X1600940Y2416401D01*
X1414218Y2412579D02*
X1494551Y2492911D01*
X1962669Y2637000D02*
X1989440Y2610228D01*
X1962669Y2637000D02*
Y2770610D01*
X1989440Y2604901D02*
Y2610228D01*
X1601440Y2415901D02*
X1753440D01*
X1882937Y2472901D02*
Y2494434D01*
Y2399901D02*
Y2472901D01*
X1858051Y2519319D02*
X1882937Y2494434D01*
X1648440Y2757795D02*
Y2833901D01*
Y2681689D02*
Y2757795D01*
X1753440Y2415901D02*
Y2495901D01*
X1258700Y2423399D02*
X1356440Y2521139D01*
X1589440Y2604901D02*
X1648440D01*
X1037440Y2522815D02*
X1147677Y2412579D01*
X1356440Y2521139D02*
Y2522815D01*
X1358700Y2525075D02*
X1409614D01*
X1258700Y2414838D02*
Y2423399D01*
X1147677Y2412579D02*
X1256440D01*
X937441D02*
Y2413148D01*
X1035181Y2510888D01*
X1256440Y2412579D02*
X1258700Y2414838D01*
X1648440Y2610911D02*
X1650683Y2608668D01*
X1685674D01*
X1750450Y2519319D02*
Y2539892D01*
Y2498892D02*
Y2519319D01*
X1685674Y2608668D02*
X1689440Y2604901D01*
X1750450Y2498892D02*
X1753440Y2495901D01*
X1648440Y2610911D02*
Y2681689D01*
X1685440Y2604901D02*
X1750450Y2539892D01*
X1689440Y2604901D02*
X1693207Y2601135D01*
X1789440Y2604901D02*
X1862669Y2678130D01*
X1648440Y2604901D02*
X1685440D01*
X2802427Y2294227D02*
Y2303857D01*
X2805441Y2306870D01*
X2689102Y2180901D02*
X2802427Y2294227D01*
X2508454Y2282810D02*
Y2303857D01*
X2655441Y2306870D02*
X2705441D01*
X2605441D02*
X2655441D01*
X2508454Y2282810D02*
X2610362Y2180901D01*
X2505441Y2306870D02*
X2508454Y2303857D01*
X3016441Y2486901D02*
X3039807Y2463535D01*
X2655441Y2306870D02*
Y2458901D01*
X2505441Y2606870D02*
X2604456Y2705886D01*
X2605441Y2606870D02*
X2655441D01*
X2802427Y2609883D02*
X2805441Y2606870D01*
X2655441D02*
X2705441D01*
X3014441Y2488901D02*
X3016441Y2486901D01*
X2689102Y2733607D02*
X2802427Y2620281D01*
Y2609883D02*
Y2620281D01*
X2604456Y2705886D02*
Y2727701D01*
X2655441Y2458901D02*
Y2606870D01*
X2604456Y2727701D02*
X2610362Y2733607D01*
X2233509Y2858182D02*
X3124160D01*
X3231441Y2750901D01*
X1035181Y2520555D02*
X1037440Y2522815D01*
X1035181Y2510888D02*
Y2520555D01*
X885929Y2608413D02*
Y2762964D01*
Y2608413D02*
X889441Y2604901D01*
X882417Y2766476D02*
X885929Y2762964D01*
X1189440Y2604901D02*
Y2610228D01*
X1182417Y2617252D02*
Y2766476D01*
Y2617252D02*
X1189440Y2610228D01*
X1289441Y2604901D02*
Y2767795D01*
X1293207D02*
X1335547D01*
X1398440D01*
X1494551Y2492911D02*
X1500450D01*
X1503440Y2495901D01*
X1389440Y2604901D02*
X1393207Y2608668D01*
Y2684226D01*
X1409614Y2525075D02*
X1489440Y2604901D01*
X1356440Y2522815D02*
X1358700Y2525075D01*
X989441Y2604901D02*
Y2610228D01*
X1082417Y2617252D02*
X1089440Y2610228D01*
X982417Y2617252D02*
X989441Y2610228D01*
X1089440Y2604901D02*
Y2610228D01*
X1082417Y2617252D02*
Y2766476D01*
X982417Y2617252D02*
Y2766476D01*
X1997940Y3087653D02*
X1999440Y3086153D01*
Y3186153D02*
X2148441D01*
X2185674Y3223387D01*
X1738733Y3122445D02*
Y3151342D01*
X1787563Y3206838D02*
Y3287276D01*
X1690319Y3206838D02*
Y3288275D01*
X1689440Y3289153D02*
X1690319Y3288275D01*
X1787563Y3287276D02*
X1789440Y3289153D01*
X1589440Y3114164D02*
Y3289153D01*
X1082023Y3130153D02*
Y3143736D01*
X1185674Y3247387D01*
X1182023Y3130153D02*
X1189739Y3137869D01*
X982023Y3130153D02*
Y3151556D01*
X1189739Y3157554D02*
X1285674Y3253489D01*
X904954Y3161649D02*
X985674Y3242370D01*
X893834Y3161649D02*
X904954D01*
X1189739Y3137869D02*
Y3157554D01*
X982023Y3151556D02*
X1085674Y3255207D01*
X2185674Y3223387D02*
Y3285387D01*
X2189441Y3289153D01*
X1285674Y3253489D02*
Y3285387D01*
X985674Y3242370D02*
Y3285387D01*
X1285674D02*
X1289440Y3289153D01*
X1185674Y3247387D02*
Y3285387D01*
X1085674D02*
X1089440Y3289153D01*
X985674Y3285387D02*
X989441Y3289153D01*
X1185674Y3285387D02*
X1189440Y3289153D01*
X1085674Y3255207D02*
Y3285387D01*
X1610222Y3089153D02*
X1705440D01*
X1610222D02*
Y3093383D01*
X1860222Y3089153D02*
X1861722Y3087653D01*
X1997940D01*
X1705440Y3089153D02*
X1738733Y3122445D01*
X1589440Y3114164D02*
X1610222Y3093383D01*
X3232383Y3346153D02*
X3255441D01*
X3117441Y3519787D02*
X3264705D01*
X3273882Y3528964D01*
X3117441Y3374787D02*
X3203750D01*
X3232383Y3346153D01*
X3003441Y3150153D02*
X3031441Y3122153D01*
X3039807Y3447787D02*
X3118441D01*
X3031441Y3122153D02*
X3595441D01*
X3639441Y3166153D01*
Y3355240D01*
X3308441Y3731153D02*
X3514441D01*
X3631014D02*
X3662471Y3699696D01*
X3514441Y3731153D02*
X3631014D01*
X1600940Y3400653D02*
X1601440Y3400153D01*
X1356440Y3396831D02*
X1414218D01*
X2162669Y3771594D02*
X2233509Y3842434D01*
X2162669Y3751909D02*
Y3771594D01*
X1862669Y3662382D02*
Y3754862D01*
X1753440Y3503571D02*
X1858051D01*
X1489440Y3289153D02*
X1600940Y3400653D01*
X1414218Y3396831D02*
X1494551Y3477163D01*
X1962669Y3621252D02*
X1989440Y3594480D01*
X1962669Y3621252D02*
Y3754862D01*
X1989440Y3589153D02*
Y3594480D01*
X1601440Y3400153D02*
X1753440D01*
X1882937Y3457153D02*
Y3478686D01*
Y3384153D02*
Y3457153D01*
X1858051Y3503571D02*
X1882937Y3478686D01*
X1648440Y3742047D02*
Y3818153D01*
Y3665941D02*
Y3742047D01*
X1753440Y3400153D02*
Y3480153D01*
X1258700Y3407651D02*
X1356440Y3505391D01*
X1589440Y3589153D02*
X1648440D01*
X1037440Y3507067D02*
X1147677Y3396831D01*
X1356440Y3505391D02*
Y3507067D01*
X1358700Y3509327D02*
X1409614D01*
X1258700Y3399090D02*
Y3407651D01*
X1147677Y3396831D02*
X1256440D01*
X937441D02*
Y3397400D01*
X1035181Y3495140D01*
X1256440Y3396831D02*
X1258700Y3399090D01*
X1648440Y3595163D02*
X1650683Y3592920D01*
X1685674D01*
X1750450Y3503571D02*
Y3524144D01*
Y3483144D02*
Y3503571D01*
X1685674Y3592920D02*
X1689440Y3589153D01*
X1750450Y3483144D02*
X1753440Y3480153D01*
X1648440Y3595163D02*
Y3665941D01*
X1685440Y3589153D02*
X1750450Y3524144D01*
X1689440Y3589153D02*
X1693207Y3585387D01*
X1789440Y3589153D02*
X1862669Y3662382D01*
X1648440Y3589153D02*
X1685440D01*
X2802427Y3278479D02*
Y3288109D01*
X2805441Y3291122D01*
X2689102Y3165153D02*
X2802427Y3278479D01*
X2508454Y3267062D02*
Y3288109D01*
X2655441Y3291122D02*
X2705441D01*
X2605441D02*
X2655441D01*
X2508454Y3267062D02*
X2610362Y3165153D01*
X2505441Y3291122D02*
X2508454Y3288109D01*
X3016441Y3471153D02*
X3039807Y3447787D01*
X2655441Y3291122D02*
Y3443153D01*
X2505441Y3591122D02*
X2604456Y3690138D01*
X2605441Y3591122D02*
X2655441D01*
X2802427Y3594135D02*
X2805441Y3591122D01*
X2655441D02*
X2705441D01*
X3014441Y3473153D02*
X3016441Y3471153D01*
X2689102Y3717859D02*
X2802427Y3604533D01*
Y3594135D02*
Y3604533D01*
X2604456Y3690138D02*
Y3711953D01*
X2655441Y3443153D02*
Y3591122D01*
X2604456Y3711953D02*
X2610362Y3717859D01*
X2233509Y3842434D02*
X3124160D01*
X3231441Y3735153D01*
X1035181Y3504807D02*
X1037440Y3507067D01*
X1035181Y3495140D02*
Y3504807D01*
X885929Y3592665D02*
Y3747216D01*
Y3592665D02*
X889441Y3589153D01*
X882417Y3750728D02*
X885929Y3747216D01*
X1189440Y3589153D02*
Y3594480D01*
X1182417Y3601504D02*
Y3750728D01*
Y3601504D02*
X1189440Y3594480D01*
X1289441Y3589153D02*
Y3752047D01*
X1293207D02*
X1335547D01*
X1398440D01*
X1494551Y3477163D02*
X1500450D01*
X1503440Y3480153D01*
X1389440Y3589153D02*
X1393207Y3592920D01*
Y3668478D01*
X1409614Y3509327D02*
X1489440Y3589153D01*
X1356440Y3507067D02*
X1358700Y3509327D01*
X989441Y3589153D02*
Y3594480D01*
X1082417Y3601504D02*
X1089440Y3594480D01*
X982417Y3601504D02*
X989441Y3594480D01*
X1089440Y3589153D02*
Y3594480D01*
X1082417Y3601504D02*
Y3750728D01*
X982417Y3601504D02*
Y3750728D01*
D18*
X3764179Y595397D02*
X3768441D01*
X3514441Y391193D02*
X3516338Y389295D01*
X3529527Y402484D01*
X3514441Y391193D02*
Y467397D01*
X3516338D02*
X3555389Y428346D01*
X3642441Y402484D02*
X3768441D01*
X3529527D02*
X3639441D01*
X3514441Y732397D02*
X3624179D01*
X3514441Y469295D02*
Y594602D01*
X3636054Y720523D02*
X3761179Y595397D01*
X3764179Y1579649D02*
X3768441D01*
X3514441Y1375445D02*
X3516338Y1373547D01*
X3529527Y1386736D01*
X3514441Y1375445D02*
Y1451649D01*
X3516338D02*
X3555389Y1412598D01*
X3642441Y1386736D02*
X3768441D01*
X3529527D02*
X3639441D01*
X3514441Y1716649D02*
X3624179D01*
X3514441Y1453547D02*
Y1578854D01*
X3636054Y1704775D02*
X3761179Y1579649D01*
X3764179Y2563901D02*
X3768441D01*
X3514441Y2359697D02*
X3516338Y2357799D01*
X3529527Y2370988D01*
X3514441Y2359697D02*
Y2435901D01*
X3516338D02*
X3555389Y2396850D01*
X3642441Y2370988D02*
X3768441D01*
X3529527D02*
X3639441D01*
X3514441Y2700901D02*
X3624179D01*
X3514441Y2437799D02*
Y2563106D01*
X3636054Y2689027D02*
X3761179Y2563901D01*
X3764179Y3548153D02*
X3768441D01*
X3514441Y3343949D02*
X3516338Y3342051D01*
X3529527Y3355240D01*
X3514441Y3343949D02*
Y3420153D01*
X3516338D02*
X3555389Y3381102D01*
X3642441Y3355240D02*
X3768441D01*
X3529527D02*
X3639441D01*
X3514441Y3685153D02*
X3624179D01*
X3514441Y3422051D02*
Y3547358D01*
X3636054Y3673279D02*
X3761179Y3548153D01*
D19*
X3255441Y593397D02*
X3261346D01*
X3016036Y296948D02*
Y327770D01*
X3255441Y493397D02*
X3490338D01*
X3016036Y296948D02*
X3061484Y251500D01*
X3516338D01*
X3261346Y593397D02*
X3400346Y732397D01*
X3514441D01*
Y469295D02*
X3516338Y467397D01*
X3490338Y493397D02*
X3514441Y469295D01*
X2305441Y578397D02*
Y638366D01*
X3016441Y448397D02*
Y518397D01*
X3014441Y397594D02*
Y448397D01*
X3015441Y338366D02*
Y397594D01*
X3016441Y518397D02*
Y520397D01*
X2305441Y578397D02*
X2383441Y500397D01*
X3255441Y1577649D02*
X3261346D01*
X3016036Y1281200D02*
Y1312022D01*
X3255441Y1477649D02*
X3490338D01*
X3016036Y1281200D02*
X3061484Y1235752D01*
X3516338D01*
X3261346Y1577649D02*
X3400346Y1716649D01*
X3514441D01*
Y1453547D02*
X3516338Y1451649D01*
X3490338Y1477649D02*
X3514441Y1453547D01*
X2305441Y1562649D02*
Y1622618D01*
X3016441Y1432649D02*
Y1502649D01*
X3014441Y1381846D02*
Y1432649D01*
X3015441Y1322618D02*
Y1381846D01*
X3016441Y1502649D02*
Y1504649D01*
X2305441Y1562649D02*
X2383441Y1484649D01*
X3255441Y2561901D02*
X3261346D01*
X3016036Y2265452D02*
Y2296274D01*
X3255441Y2461901D02*
X3490338D01*
X3016036Y2265452D02*
X3061484Y2220004D01*
X3516338D01*
X3261346Y2561901D02*
X3400346Y2700901D01*
X3514441D01*
Y2437799D02*
X3516338Y2435901D01*
X3490338Y2461901D02*
X3514441Y2437799D01*
X2305441Y2546901D02*
Y2606870D01*
X3016441Y2416901D02*
Y2486901D01*
X3014441Y2366098D02*
Y2416901D01*
X3015441Y2306870D02*
Y2366098D01*
X3016441Y2486901D02*
Y2488901D01*
X2305441Y2546901D02*
X2383441Y2468901D01*
X3255441Y3546153D02*
X3261346D01*
X3016036Y3249704D02*
Y3280526D01*
X3255441Y3446153D02*
X3490338D01*
X3016036Y3249704D02*
X3061484Y3204256D01*
X3516338D01*
X3261346Y3546153D02*
X3400346Y3685153D01*
X3514441D01*
Y3422051D02*
X3516338Y3420153D01*
X3490338Y3446153D02*
X3514441Y3422051D01*
X2305441Y3531153D02*
Y3591122D01*
X3016441Y3401153D02*
Y3471153D01*
X3014441Y3350350D02*
Y3401153D01*
X3015441Y3291122D02*
Y3350350D01*
X3016441Y3471153D02*
Y3473153D01*
X2305441Y3531153D02*
X2383441Y3453153D01*
D20*
X1086811Y394704D02*
X1450748D01*
X1503440Y447397D01*
X1589440Y336397D02*
X1642748Y389704D01*
X1793236D02*
X1833944Y430413D01*
Y431397D02*
Y504397D01*
Y430413D02*
Y431397D01*
X1642748Y389704D02*
X1793236D01*
X1037440Y444075D02*
X1086811Y394704D01*
Y1378957D02*
X1450748D01*
X1503440Y1431649D01*
X1589440Y1320649D02*
X1642748Y1373957D01*
X1793236D02*
X1833944Y1414665D01*
Y1415649D02*
Y1488649D01*
Y1414665D02*
Y1415649D01*
X1642748Y1373957D02*
X1793236D01*
X1037440Y1428327D02*
X1086811Y1378957D01*
Y2363209D02*
X1450748D01*
X1503440Y2415901D01*
X1589440Y2304901D02*
X1642748Y2358209D01*
X1793236D02*
X1833944Y2398917D01*
Y2399901D02*
Y2472901D01*
Y2398917D02*
Y2399901D01*
X1642748Y2358209D02*
X1793236D01*
X1037440Y2412579D02*
X1086811Y2363209D01*
Y3347461D02*
X1450748D01*
X1503440Y3400153D01*
X1589440Y3289153D02*
X1642748Y3342461D01*
X1793236D02*
X1833944Y3383169D01*
Y3384153D02*
Y3457153D01*
Y3383169D02*
Y3384153D01*
X1642748Y3342461D02*
X1793236D01*
X1037440Y3396831D02*
X1086811Y3347461D01*
D21*
X3089625Y650761D02*
X3101621Y619271D01*
X3113617Y650761D02*
X3101621Y619271D01*
X3117665Y650761D02*
Y619271D01*
X3124263Y650761D02*
Y619271D01*
Y650761D02*
X3145256Y619271D01*
Y650761D02*
Y619271D01*
X3086776Y352262D02*
Y325271D01*
X3073280Y338767D02*
X3100271D01*
X3127562Y356761D02*
X3112567D01*
X3111068Y343265D01*
X3112567Y344765D01*
X3117066Y346264D01*
X3121564D01*
X3126063Y344765D01*
X3129062Y341766D01*
X3130561Y337267D01*
Y334268D01*
X3129062Y329770D01*
X3126063Y326771D01*
X3121564Y325271D01*
X3117066D01*
X3112567Y326771D01*
X3111068Y328270D01*
X3109568Y331269D01*
X3137609Y356761D02*
X3149605Y325271D01*
X3161601Y356761D02*
X3149605Y325271D01*
X3032314Y120282D02*
Y92729D01*
X3048059D01*
X3053701Y120282D02*
X3055013Y118970D01*
X3056325Y120282D01*
X3055013Y121595D01*
X3053701Y120282D01*
X3055013Y111098D02*
Y92729D01*
X3061180Y111098D02*
Y92729D01*
Y105850D02*
X3065116Y109786D01*
X3067740Y111098D01*
X3071676D01*
X3074300Y109786D01*
X3075612Y105850D01*
Y92729D01*
X3082829Y103226D02*
X3098573D01*
Y105850D01*
X3097261Y108474D01*
X3095949Y109786D01*
X3093325Y111098D01*
X3089389D01*
X3086765Y109786D01*
X3084141Y107162D01*
X3082829Y103226D01*
Y100602D01*
X3084141Y96665D01*
X3086765Y94041D01*
X3089389Y92729D01*
X3093325D01*
X3095949Y94041D01*
X3098573Y96665D01*
X3120222Y111098D02*
Y92729D01*
Y107162D02*
X3117598Y109786D01*
X3114974Y111098D01*
X3111038D01*
X3108414Y109786D01*
X3105790Y107162D01*
X3104477Y103226D01*
Y100602D01*
X3105790Y96665D01*
X3108414Y94041D01*
X3111038Y92729D01*
X3114974D01*
X3117598Y94041D01*
X3120222Y96665D01*
X3127570Y111098D02*
Y92729D01*
Y103226D02*
X3128882Y107162D01*
X3131506Y109786D01*
X3134130Y111098D01*
X3138066D01*
X3183201Y92729D02*
X3172704Y120282D01*
X3162208Y92729D01*
X3166144Y101914D02*
X3179265D01*
X3205375Y107162D02*
X3202751Y109786D01*
X3200126Y111098D01*
X3196190D01*
X3193566Y109786D01*
X3190942Y107162D01*
X3189630Y103226D01*
Y100602D01*
X3190942Y96665D01*
X3193566Y94041D01*
X3196190Y92729D01*
X3200126D01*
X3202751Y94041D01*
X3205375Y96665D01*
X3215215Y120282D02*
Y97978D01*
X3216527Y94041D01*
X3219151Y92729D01*
X3221775D01*
X3211279Y111098D02*
X3220463D01*
X3225711D02*
Y97978D01*
X3227024Y94041D01*
X3229648Y92729D01*
X3233584D01*
X3236208Y94041D01*
X3240144Y97978D01*
Y111098D02*
Y92729D01*
X3263105Y111098D02*
Y92729D01*
Y107162D02*
X3260481Y109786D01*
X3257857Y111098D01*
X3253921D01*
X3251297Y109786D01*
X3248673Y107162D01*
X3247360Y103226D01*
Y100602D01*
X3248673Y96665D01*
X3251297Y94041D01*
X3253921Y92729D01*
X3257857D01*
X3260481Y94041D01*
X3263105Y96665D01*
X3274389Y120282D02*
Y97978D01*
X3275701Y94041D01*
X3278325Y92729D01*
X3280949D01*
X3270453Y111098D02*
X3279637D01*
X3291445D02*
X3288821Y109786D01*
X3286197Y107162D01*
X3284885Y103226D01*
Y100602D01*
X3286197Y96665D01*
X3288821Y94041D01*
X3291445Y92729D01*
X3295382D01*
X3298006Y94041D01*
X3300630Y96665D01*
X3301942Y100602D01*
Y103226D01*
X3300630Y107162D01*
X3298006Y109786D01*
X3295382Y111098D01*
X3291445D01*
X3307977D02*
Y92729D01*
Y103226D02*
X3309289Y107162D01*
X3311914Y109786D01*
X3314538Y111098D01*
X3318474D01*
X3342616Y120282D02*
X3353112Y92729D01*
X3363609Y120282D02*
X3353112Y92729D01*
X3369775Y120282D02*
X3384208D01*
X3376336Y109786D01*
X3380272D01*
X3382896Y108474D01*
X3384208Y107162D01*
X3385520Y103226D01*
Y100602D01*
X3384208Y96665D01*
X3381584Y94041D01*
X3377648Y92729D01*
X3373711D01*
X3369775Y94041D01*
X3368463Y95353D01*
X3367151Y97978D01*
X3392999Y95353D02*
X3391687Y94041D01*
X3392999Y92729D01*
X3394311Y94041D01*
X3392999Y95353D01*
X3408219Y120282D02*
X3404282Y118970D01*
X3401658Y115034D01*
X3400346Y108474D01*
Y104538D01*
X3401658Y97978D01*
X3404282Y94041D01*
X3408219Y92729D01*
X3410843D01*
X3414779Y94041D01*
X3417403Y97978D01*
X3418715Y104538D01*
Y108474D01*
X3417403Y115034D01*
X3414779Y118970D01*
X3410843Y120282D01*
X3408219D01*
X3048059Y57825D02*
Y36832D01*
X3046747Y32895D01*
X3045435Y31584D01*
X3042811Y30271D01*
X3038875D01*
X3036251Y31584D01*
X3048059Y53888D02*
X3045435Y56513D01*
X3042811Y57825D01*
X3038875D01*
X3036251Y56513D01*
X3033627Y53888D01*
X3032314Y49952D01*
Y47328D01*
X3033627Y43392D01*
X3036251Y40768D01*
X3038875Y39456D01*
X3042811D01*
X3045435Y40768D01*
X3048059Y43392D01*
X3058031Y67009D02*
X3059343Y65697D01*
X3060655Y67009D01*
X3059343Y68321D01*
X3058031Y67009D01*
X3059343Y57825D02*
Y39456D01*
X3069446Y67009D02*
Y44704D01*
X3070758Y40768D01*
X3073382Y39456D01*
X3076006D01*
X3065510Y57825D02*
X3074694D01*
X3079942Y67009D02*
Y39456D01*
Y52576D02*
X3083878Y56513D01*
X3086502Y57825D01*
X3090439D01*
X3093063Y56513D01*
X3094375Y52576D01*
Y39456D01*
X3101591Y57825D02*
Y44704D01*
X3102903Y40768D01*
X3105527Y39456D01*
X3109463D01*
X3112088Y40768D01*
X3116024Y44704D01*
Y57825D02*
Y39456D01*
X3123240Y67009D02*
Y39456D01*
Y53888D02*
X3125864Y56513D01*
X3128488Y57825D01*
X3132424D01*
X3135048Y56513D01*
X3137673Y53888D01*
X3138985Y49952D01*
Y47328D01*
X3137673Y43392D01*
X3135048Y40768D01*
X3132424Y39456D01*
X3128488D01*
X3125864Y40768D01*
X3123240Y43392D01*
X3146201Y42080D02*
X3144889Y40768D01*
X3146201Y39456D01*
X3147513Y40768D01*
X3146201Y42080D01*
X3169293Y53888D02*
X3166669Y56513D01*
X3164045Y57825D01*
X3160109D01*
X3157485Y56513D01*
X3154860Y53888D01*
X3153548Y49952D01*
Y47328D01*
X3154860Y43392D01*
X3157485Y40768D01*
X3160109Y39456D01*
X3164045D01*
X3166669Y40768D01*
X3169293Y43392D01*
X3181758Y57825D02*
X3179133Y56513D01*
X3176509Y53888D01*
X3175197Y49952D01*
Y47328D01*
X3176509Y43392D01*
X3179133Y40768D01*
X3181758Y39456D01*
X3185694D01*
X3188318Y40768D01*
X3190942Y43392D01*
X3192254Y47328D01*
Y49952D01*
X3190942Y53888D01*
X3188318Y56513D01*
X3185694Y57825D01*
X3181758D01*
X3198289D02*
Y39456D01*
Y52576D02*
X3202226Y56513D01*
X3204850Y57825D01*
X3208786D01*
X3211410Y56513D01*
X3212722Y52576D01*
Y39456D01*
Y52576D02*
X3216658Y56513D01*
X3219282Y57825D01*
X3223219D01*
X3225843Y56513D01*
X3227155Y52576D01*
Y39456D01*
X3235814Y35520D02*
X3254183Y67009D01*
X3256020Y49952D02*
X3271765D01*
Y52576D01*
X3270453Y55200D01*
X3269141Y56513D01*
X3266517Y57825D01*
X3262580D01*
X3259956Y56513D01*
X3257332Y53888D01*
X3256020Y49952D01*
Y47328D01*
X3257332Y43392D01*
X3259956Y40768D01*
X3262580Y39456D01*
X3266517D01*
X3269141Y40768D01*
X3271765Y43392D01*
X3277669Y67009D02*
Y39456D01*
Y52576D02*
X3281605Y56513D01*
X3284229Y57825D01*
X3288165D01*
X3290789Y56513D01*
X3292102Y52576D01*
Y39456D01*
X3313750Y53888D02*
X3312438Y56513D01*
X3308502Y57825D01*
X3304566D01*
X3300630Y56513D01*
X3299318Y53888D01*
X3300630Y51264D01*
X3303254Y49952D01*
X3309814Y48640D01*
X3312438Y47328D01*
X3313750Y44704D01*
Y43392D01*
X3312438Y40768D01*
X3308502Y39456D01*
X3304566D01*
X3300630Y40768D01*
X3299318Y43392D01*
X3335268Y57825D02*
Y39456D01*
Y53888D02*
X3332644Y56513D01*
X3330020Y57825D01*
X3326084D01*
X3323460Y56513D01*
X3320836Y53888D01*
X3319523Y49952D01*
Y47328D01*
X3320836Y43392D01*
X3323460Y40768D01*
X3326084Y39456D01*
X3330020D01*
X3332644Y40768D01*
X3335268Y43392D01*
X3342616Y57825D02*
Y39456D01*
Y52576D02*
X3346552Y56513D01*
X3349176Y57825D01*
X3353112D01*
X3355736Y56513D01*
X3357048Y52576D01*
Y39456D01*
X3365577Y60449D02*
Y61761D01*
X3366889Y64385D01*
X3368201Y65697D01*
X3370825Y67009D01*
X3376073D01*
X3378697Y65697D01*
X3380009Y64385D01*
X3381321Y61761D01*
Y59137D01*
X3380009Y56513D01*
X3377385Y52576D01*
X3364265Y39456D01*
X3382633D01*
X3407169Y67009D02*
X3394048Y39456D01*
X3388800Y67009D02*
X3407169D01*
X3429080D02*
X3415960D01*
X3414648Y55200D01*
X3415960Y56513D01*
X3419896Y57825D01*
X3423832D01*
X3427768Y56513D01*
X3430392Y53888D01*
X3431704Y49952D01*
Y47328D01*
X3430392Y43392D01*
X3427768Y40768D01*
X3423832Y39456D01*
X3419896D01*
X3415960Y40768D01*
X3414648Y42080D01*
X3413336Y44704D01*
X3450992Y67009D02*
X3437871Y48640D01*
X3457552D01*
X3450992Y67009D02*
Y39456D01*
X3089625Y1635013D02*
X3101621Y1603523D01*
X3113617Y1635013D02*
X3101621Y1603523D01*
X3117665Y1635013D02*
Y1603523D01*
X3124263Y1635013D02*
Y1603523D01*
Y1635013D02*
X3145256Y1603523D01*
Y1635013D02*
Y1603523D01*
X3086776Y1336514D02*
Y1309523D01*
X3073280Y1323019D02*
X3100271D01*
X3127562Y1341013D02*
X3112567D01*
X3111068Y1327517D01*
X3112567Y1329017D01*
X3117066Y1330516D01*
X3121564D01*
X3126063Y1329017D01*
X3129062Y1326018D01*
X3130561Y1321519D01*
Y1318520D01*
X3129062Y1314022D01*
X3126063Y1311023D01*
X3121564Y1309523D01*
X3117066D01*
X3112567Y1311023D01*
X3111068Y1312522D01*
X3109568Y1315521D01*
X3137609Y1341013D02*
X3149605Y1309523D01*
X3161601Y1341013D02*
X3149605Y1309523D01*
X3032314Y1104534D02*
Y1076981D01*
X3048059D01*
X3053701Y1104534D02*
X3055013Y1103222D01*
X3056325Y1104534D01*
X3055013Y1105847D01*
X3053701Y1104534D01*
X3055013Y1095350D02*
Y1076981D01*
X3061180Y1095350D02*
Y1076981D01*
Y1090102D02*
X3065116Y1094038D01*
X3067740Y1095350D01*
X3071676D01*
X3074300Y1094038D01*
X3075612Y1090102D01*
Y1076981D01*
X3082829Y1087478D02*
X3098573D01*
Y1090102D01*
X3097261Y1092726D01*
X3095949Y1094038D01*
X3093325Y1095350D01*
X3089389D01*
X3086765Y1094038D01*
X3084141Y1091414D01*
X3082829Y1087478D01*
Y1084854D01*
X3084141Y1080918D01*
X3086765Y1078293D01*
X3089389Y1076981D01*
X3093325D01*
X3095949Y1078293D01*
X3098573Y1080918D01*
X3120222Y1095350D02*
Y1076981D01*
Y1091414D02*
X3117598Y1094038D01*
X3114974Y1095350D01*
X3111038D01*
X3108414Y1094038D01*
X3105790Y1091414D01*
X3104477Y1087478D01*
Y1084854D01*
X3105790Y1080918D01*
X3108414Y1078293D01*
X3111038Y1076981D01*
X3114974D01*
X3117598Y1078293D01*
X3120222Y1080918D01*
X3127570Y1095350D02*
Y1076981D01*
Y1087478D02*
X3128882Y1091414D01*
X3131506Y1094038D01*
X3134130Y1095350D01*
X3138066D01*
X3183201Y1076981D02*
X3172704Y1104534D01*
X3162208Y1076981D01*
X3166144Y1086166D02*
X3179265D01*
X3205375Y1091414D02*
X3202751Y1094038D01*
X3200126Y1095350D01*
X3196190D01*
X3193566Y1094038D01*
X3190942Y1091414D01*
X3189630Y1087478D01*
Y1084854D01*
X3190942Y1080918D01*
X3193566Y1078293D01*
X3196190Y1076981D01*
X3200126D01*
X3202751Y1078293D01*
X3205375Y1080918D01*
X3215215Y1104534D02*
Y1082229D01*
X3216527Y1078293D01*
X3219151Y1076981D01*
X3221775D01*
X3211279Y1095350D02*
X3220463D01*
X3225711D02*
Y1082229D01*
X3227024Y1078293D01*
X3229648Y1076981D01*
X3233584D01*
X3236208Y1078293D01*
X3240144Y1082229D01*
Y1095350D02*
Y1076981D01*
X3263105Y1095350D02*
Y1076981D01*
Y1091414D02*
X3260481Y1094038D01*
X3257857Y1095350D01*
X3253921D01*
X3251297Y1094038D01*
X3248673Y1091414D01*
X3247360Y1087478D01*
Y1084854D01*
X3248673Y1080918D01*
X3251297Y1078293D01*
X3253921Y1076981D01*
X3257857D01*
X3260481Y1078293D01*
X3263105Y1080918D01*
X3274389Y1104534D02*
Y1082229D01*
X3275701Y1078293D01*
X3278325Y1076981D01*
X3280949D01*
X3270453Y1095350D02*
X3279637D01*
X3291445D02*
X3288821Y1094038D01*
X3286197Y1091414D01*
X3284885Y1087478D01*
Y1084854D01*
X3286197Y1080918D01*
X3288821Y1078293D01*
X3291445Y1076981D01*
X3295382D01*
X3298006Y1078293D01*
X3300630Y1080918D01*
X3301942Y1084854D01*
Y1087478D01*
X3300630Y1091414D01*
X3298006Y1094038D01*
X3295382Y1095350D01*
X3291445D01*
X3307977D02*
Y1076981D01*
Y1087478D02*
X3309289Y1091414D01*
X3311914Y1094038D01*
X3314538Y1095350D01*
X3318474D01*
X3342616Y1104534D02*
X3353112Y1076981D01*
X3363609Y1104534D02*
X3353112Y1076981D01*
X3369775Y1104534D02*
X3384208D01*
X3376336Y1094038D01*
X3380272D01*
X3382896Y1092726D01*
X3384208Y1091414D01*
X3385520Y1087478D01*
Y1084854D01*
X3384208Y1080918D01*
X3381584Y1078293D01*
X3377648Y1076981D01*
X3373711D01*
X3369775Y1078293D01*
X3368463Y1079605D01*
X3367151Y1082229D01*
X3392999Y1079605D02*
X3391687Y1078293D01*
X3392999Y1076981D01*
X3394311Y1078293D01*
X3392999Y1079605D01*
X3408219Y1104534D02*
X3404282Y1103222D01*
X3401658Y1099286D01*
X3400346Y1092726D01*
Y1088790D01*
X3401658Y1082229D01*
X3404282Y1078293D01*
X3408219Y1076981D01*
X3410843D01*
X3414779Y1078293D01*
X3417403Y1082229D01*
X3418715Y1088790D01*
Y1092726D01*
X3417403Y1099286D01*
X3414779Y1103222D01*
X3410843Y1104534D01*
X3408219D01*
X3048059Y1042077D02*
Y1021084D01*
X3046747Y1017148D01*
X3045435Y1015836D01*
X3042811Y1014523D01*
X3038875D01*
X3036251Y1015836D01*
X3048059Y1038140D02*
X3045435Y1040764D01*
X3042811Y1042077D01*
X3038875D01*
X3036251Y1040764D01*
X3033627Y1038140D01*
X3032314Y1034204D01*
Y1031580D01*
X3033627Y1027644D01*
X3036251Y1025020D01*
X3038875Y1023708D01*
X3042811D01*
X3045435Y1025020D01*
X3048059Y1027644D01*
X3058031Y1051261D02*
X3059343Y1049949D01*
X3060655Y1051261D01*
X3059343Y1052573D01*
X3058031Y1051261D01*
X3059343Y1042077D02*
Y1023708D01*
X3069446Y1051261D02*
Y1028956D01*
X3070758Y1025020D01*
X3073382Y1023708D01*
X3076006D01*
X3065510Y1042077D02*
X3074694D01*
X3079942Y1051261D02*
Y1023708D01*
Y1036828D02*
X3083878Y1040764D01*
X3086502Y1042077D01*
X3090439D01*
X3093063Y1040764D01*
X3094375Y1036828D01*
Y1023708D01*
X3101591Y1042077D02*
Y1028956D01*
X3102903Y1025020D01*
X3105527Y1023708D01*
X3109463D01*
X3112088Y1025020D01*
X3116024Y1028956D01*
Y1042077D02*
Y1023708D01*
X3123240Y1051261D02*
Y1023708D01*
Y1038140D02*
X3125864Y1040764D01*
X3128488Y1042077D01*
X3132424D01*
X3135048Y1040764D01*
X3137673Y1038140D01*
X3138985Y1034204D01*
Y1031580D01*
X3137673Y1027644D01*
X3135048Y1025020D01*
X3132424Y1023708D01*
X3128488D01*
X3125864Y1025020D01*
X3123240Y1027644D01*
X3146201Y1026332D02*
X3144889Y1025020D01*
X3146201Y1023708D01*
X3147513Y1025020D01*
X3146201Y1026332D01*
X3169293Y1038140D02*
X3166669Y1040764D01*
X3164045Y1042077D01*
X3160109D01*
X3157485Y1040764D01*
X3154860Y1038140D01*
X3153548Y1034204D01*
Y1031580D01*
X3154860Y1027644D01*
X3157485Y1025020D01*
X3160109Y1023708D01*
X3164045D01*
X3166669Y1025020D01*
X3169293Y1027644D01*
X3181758Y1042077D02*
X3179133Y1040764D01*
X3176509Y1038140D01*
X3175197Y1034204D01*
Y1031580D01*
X3176509Y1027644D01*
X3179133Y1025020D01*
X3181758Y1023708D01*
X3185694D01*
X3188318Y1025020D01*
X3190942Y1027644D01*
X3192254Y1031580D01*
Y1034204D01*
X3190942Y1038140D01*
X3188318Y1040764D01*
X3185694Y1042077D01*
X3181758D01*
X3198289D02*
Y1023708D01*
Y1036828D02*
X3202226Y1040764D01*
X3204850Y1042077D01*
X3208786D01*
X3211410Y1040764D01*
X3212722Y1036828D01*
Y1023708D01*
Y1036828D02*
X3216658Y1040764D01*
X3219282Y1042077D01*
X3223219D01*
X3225843Y1040764D01*
X3227155Y1036828D01*
Y1023708D01*
X3235814Y1019772D02*
X3254183Y1051261D01*
X3256020Y1034204D02*
X3271765D01*
Y1036828D01*
X3270453Y1039453D01*
X3269141Y1040764D01*
X3266517Y1042077D01*
X3262580D01*
X3259956Y1040764D01*
X3257332Y1038140D01*
X3256020Y1034204D01*
Y1031580D01*
X3257332Y1027644D01*
X3259956Y1025020D01*
X3262580Y1023708D01*
X3266517D01*
X3269141Y1025020D01*
X3271765Y1027644D01*
X3277669Y1051261D02*
Y1023708D01*
Y1036828D02*
X3281605Y1040764D01*
X3284229Y1042077D01*
X3288165D01*
X3290789Y1040764D01*
X3292102Y1036828D01*
Y1023708D01*
X3313750Y1038140D02*
X3312438Y1040764D01*
X3308502Y1042077D01*
X3304566D01*
X3300630Y1040764D01*
X3299318Y1038140D01*
X3300630Y1035516D01*
X3303254Y1034204D01*
X3309814Y1032892D01*
X3312438Y1031580D01*
X3313750Y1028956D01*
Y1027644D01*
X3312438Y1025020D01*
X3308502Y1023708D01*
X3304566D01*
X3300630Y1025020D01*
X3299318Y1027644D01*
X3335268Y1042077D02*
Y1023708D01*
Y1038140D02*
X3332644Y1040764D01*
X3330020Y1042077D01*
X3326084D01*
X3323460Y1040764D01*
X3320836Y1038140D01*
X3319523Y1034204D01*
Y1031580D01*
X3320836Y1027644D01*
X3323460Y1025020D01*
X3326084Y1023708D01*
X3330020D01*
X3332644Y1025020D01*
X3335268Y1027644D01*
X3342616Y1042077D02*
Y1023708D01*
Y1036828D02*
X3346552Y1040764D01*
X3349176Y1042077D01*
X3353112D01*
X3355736Y1040764D01*
X3357048Y1036828D01*
Y1023708D01*
X3365577Y1044701D02*
Y1046013D01*
X3366889Y1048637D01*
X3368201Y1049949D01*
X3370825Y1051261D01*
X3376073D01*
X3378697Y1049949D01*
X3380009Y1048637D01*
X3381321Y1046013D01*
Y1043389D01*
X3380009Y1040764D01*
X3377385Y1036828D01*
X3364265Y1023708D01*
X3382633D01*
X3407169Y1051261D02*
X3394048Y1023708D01*
X3388800Y1051261D02*
X3407169D01*
X3429080D02*
X3415960D01*
X3414648Y1039453D01*
X3415960Y1040764D01*
X3419896Y1042077D01*
X3423832D01*
X3427768Y1040764D01*
X3430392Y1038140D01*
X3431704Y1034204D01*
Y1031580D01*
X3430392Y1027644D01*
X3427768Y1025020D01*
X3423832Y1023708D01*
X3419896D01*
X3415960Y1025020D01*
X3414648Y1026332D01*
X3413336Y1028956D01*
X3450992Y1051261D02*
X3437871Y1032892D01*
X3457552D01*
X3450992Y1051261D02*
Y1023708D01*
X3089625Y2619265D02*
X3101621Y2587775D01*
X3113617Y2619265D02*
X3101621Y2587775D01*
X3117665Y2619265D02*
Y2587775D01*
X3124263Y2619265D02*
Y2587775D01*
Y2619265D02*
X3145256Y2587775D01*
Y2619265D02*
Y2587775D01*
X3086776Y2320766D02*
Y2293775D01*
X3073280Y2307271D02*
X3100271D01*
X3127562Y2325265D02*
X3112567D01*
X3111068Y2311769D01*
X3112567Y2313269D01*
X3117066Y2314768D01*
X3121564D01*
X3126063Y2313269D01*
X3129062Y2310270D01*
X3130561Y2305771D01*
Y2302772D01*
X3129062Y2298274D01*
X3126063Y2295275D01*
X3121564Y2293775D01*
X3117066D01*
X3112567Y2295275D01*
X3111068Y2296774D01*
X3109568Y2299773D01*
X3137609Y2325265D02*
X3149605Y2293775D01*
X3161601Y2325265D02*
X3149605Y2293775D01*
X3032314Y2088787D02*
Y2061233D01*
X3048059D01*
X3053701Y2088787D02*
X3055013Y2087474D01*
X3056325Y2088787D01*
X3055013Y2090099D01*
X3053701Y2088787D01*
X3055013Y2079602D02*
Y2061233D01*
X3061180Y2079602D02*
Y2061233D01*
Y2074354D02*
X3065116Y2078290D01*
X3067740Y2079602D01*
X3071676D01*
X3074300Y2078290D01*
X3075612Y2074354D01*
Y2061233D01*
X3082829Y2071730D02*
X3098573D01*
Y2074354D01*
X3097261Y2076978D01*
X3095949Y2078290D01*
X3093325Y2079602D01*
X3089389D01*
X3086765Y2078290D01*
X3084141Y2075666D01*
X3082829Y2071730D01*
Y2069106D01*
X3084141Y2065169D01*
X3086765Y2062545D01*
X3089389Y2061233D01*
X3093325D01*
X3095949Y2062545D01*
X3098573Y2065169D01*
X3120222Y2079602D02*
Y2061233D01*
Y2075666D02*
X3117598Y2078290D01*
X3114974Y2079602D01*
X3111038D01*
X3108414Y2078290D01*
X3105790Y2075666D01*
X3104477Y2071730D01*
Y2069106D01*
X3105790Y2065169D01*
X3108414Y2062545D01*
X3111038Y2061233D01*
X3114974D01*
X3117598Y2062545D01*
X3120222Y2065169D01*
X3127570Y2079602D02*
Y2061233D01*
Y2071730D02*
X3128882Y2075666D01*
X3131506Y2078290D01*
X3134130Y2079602D01*
X3138066D01*
X3183201Y2061233D02*
X3172704Y2088787D01*
X3162208Y2061233D01*
X3166144Y2070418D02*
X3179265D01*
X3205375Y2075666D02*
X3202751Y2078290D01*
X3200126Y2079602D01*
X3196190D01*
X3193566Y2078290D01*
X3190942Y2075666D01*
X3189630Y2071730D01*
Y2069106D01*
X3190942Y2065169D01*
X3193566Y2062545D01*
X3196190Y2061233D01*
X3200126D01*
X3202751Y2062545D01*
X3205375Y2065169D01*
X3215215Y2088787D02*
Y2066481D01*
X3216527Y2062545D01*
X3219151Y2061233D01*
X3221775D01*
X3211279Y2079602D02*
X3220463D01*
X3225711D02*
Y2066481D01*
X3227024Y2062545D01*
X3229648Y2061233D01*
X3233584D01*
X3236208Y2062545D01*
X3240144Y2066481D01*
Y2079602D02*
Y2061233D01*
X3263105Y2079602D02*
Y2061233D01*
Y2075666D02*
X3260481Y2078290D01*
X3257857Y2079602D01*
X3253921D01*
X3251297Y2078290D01*
X3248673Y2075666D01*
X3247360Y2071730D01*
Y2069106D01*
X3248673Y2065169D01*
X3251297Y2062545D01*
X3253921Y2061233D01*
X3257857D01*
X3260481Y2062545D01*
X3263105Y2065169D01*
X3274389Y2088787D02*
Y2066481D01*
X3275701Y2062545D01*
X3278325Y2061233D01*
X3280949D01*
X3270453Y2079602D02*
X3279637D01*
X3291445D02*
X3288821Y2078290D01*
X3286197Y2075666D01*
X3284885Y2071730D01*
Y2069106D01*
X3286197Y2065169D01*
X3288821Y2062545D01*
X3291445Y2061233D01*
X3295382D01*
X3298006Y2062545D01*
X3300630Y2065169D01*
X3301942Y2069106D01*
Y2071730D01*
X3300630Y2075666D01*
X3298006Y2078290D01*
X3295382Y2079602D01*
X3291445D01*
X3307977D02*
Y2061233D01*
Y2071730D02*
X3309289Y2075666D01*
X3311914Y2078290D01*
X3314538Y2079602D01*
X3318474D01*
X3342616Y2088787D02*
X3353112Y2061233D01*
X3363609Y2088787D02*
X3353112Y2061233D01*
X3369775Y2088787D02*
X3384208D01*
X3376336Y2078290D01*
X3380272D01*
X3382896Y2076978D01*
X3384208Y2075666D01*
X3385520Y2071730D01*
Y2069106D01*
X3384208Y2065169D01*
X3381584Y2062545D01*
X3377648Y2061233D01*
X3373711D01*
X3369775Y2062545D01*
X3368463Y2063857D01*
X3367151Y2066481D01*
X3392999Y2063857D02*
X3391687Y2062545D01*
X3392999Y2061233D01*
X3394311Y2062545D01*
X3392999Y2063857D01*
X3408219Y2088787D02*
X3404282Y2087474D01*
X3401658Y2083538D01*
X3400346Y2076978D01*
Y2073042D01*
X3401658Y2066481D01*
X3404282Y2062545D01*
X3408219Y2061233D01*
X3410843D01*
X3414779Y2062545D01*
X3417403Y2066481D01*
X3418715Y2073042D01*
Y2076978D01*
X3417403Y2083538D01*
X3414779Y2087474D01*
X3410843Y2088787D01*
X3408219D01*
X3048059Y2026329D02*
Y2005336D01*
X3046747Y2001399D01*
X3045435Y2000088D01*
X3042811Y1998775D01*
X3038875D01*
X3036251Y2000088D01*
X3048059Y2022392D02*
X3045435Y2025016D01*
X3042811Y2026329D01*
X3038875D01*
X3036251Y2025016D01*
X3033627Y2022392D01*
X3032314Y2018456D01*
Y2015832D01*
X3033627Y2011896D01*
X3036251Y2009272D01*
X3038875Y2007960D01*
X3042811D01*
X3045435Y2009272D01*
X3048059Y2011896D01*
X3058031Y2035513D02*
X3059343Y2034201D01*
X3060655Y2035513D01*
X3059343Y2036825D01*
X3058031Y2035513D01*
X3059343Y2026329D02*
Y2007960D01*
X3069446Y2035513D02*
Y2013208D01*
X3070758Y2009272D01*
X3073382Y2007960D01*
X3076006D01*
X3065510Y2026329D02*
X3074694D01*
X3079942Y2035513D02*
Y2007960D01*
Y2021080D02*
X3083878Y2025016D01*
X3086502Y2026329D01*
X3090439D01*
X3093063Y2025016D01*
X3094375Y2021080D01*
Y2007960D01*
X3101591Y2026329D02*
Y2013208D01*
X3102903Y2009272D01*
X3105527Y2007960D01*
X3109463D01*
X3112088Y2009272D01*
X3116024Y2013208D01*
Y2026329D02*
Y2007960D01*
X3123240Y2035513D02*
Y2007960D01*
Y2022392D02*
X3125864Y2025016D01*
X3128488Y2026329D01*
X3132424D01*
X3135048Y2025016D01*
X3137673Y2022392D01*
X3138985Y2018456D01*
Y2015832D01*
X3137673Y2011896D01*
X3135048Y2009272D01*
X3132424Y2007960D01*
X3128488D01*
X3125864Y2009272D01*
X3123240Y2011896D01*
X3146201Y2010584D02*
X3144889Y2009272D01*
X3146201Y2007960D01*
X3147513Y2009272D01*
X3146201Y2010584D01*
X3169293Y2022392D02*
X3166669Y2025016D01*
X3164045Y2026329D01*
X3160109D01*
X3157485Y2025016D01*
X3154860Y2022392D01*
X3153548Y2018456D01*
Y2015832D01*
X3154860Y2011896D01*
X3157485Y2009272D01*
X3160109Y2007960D01*
X3164045D01*
X3166669Y2009272D01*
X3169293Y2011896D01*
X3181758Y2026329D02*
X3179133Y2025016D01*
X3176509Y2022392D01*
X3175197Y2018456D01*
Y2015832D01*
X3176509Y2011896D01*
X3179133Y2009272D01*
X3181758Y2007960D01*
X3185694D01*
X3188318Y2009272D01*
X3190942Y2011896D01*
X3192254Y2015832D01*
Y2018456D01*
X3190942Y2022392D01*
X3188318Y2025016D01*
X3185694Y2026329D01*
X3181758D01*
X3198289D02*
Y2007960D01*
Y2021080D02*
X3202226Y2025016D01*
X3204850Y2026329D01*
X3208786D01*
X3211410Y2025016D01*
X3212722Y2021080D01*
Y2007960D01*
Y2021080D02*
X3216658Y2025016D01*
X3219282Y2026329D01*
X3223219D01*
X3225843Y2025016D01*
X3227155Y2021080D01*
Y2007960D01*
X3235814Y2004024D02*
X3254183Y2035513D01*
X3256020Y2018456D02*
X3271765D01*
Y2021080D01*
X3270453Y2023705D01*
X3269141Y2025016D01*
X3266517Y2026329D01*
X3262580D01*
X3259956Y2025016D01*
X3257332Y2022392D01*
X3256020Y2018456D01*
Y2015832D01*
X3257332Y2011896D01*
X3259956Y2009272D01*
X3262580Y2007960D01*
X3266517D01*
X3269141Y2009272D01*
X3271765Y2011896D01*
X3277669Y2035513D02*
Y2007960D01*
Y2021080D02*
X3281605Y2025016D01*
X3284229Y2026329D01*
X3288165D01*
X3290789Y2025016D01*
X3292102Y2021080D01*
Y2007960D01*
X3313750Y2022392D02*
X3312438Y2025016D01*
X3308502Y2026329D01*
X3304566D01*
X3300630Y2025016D01*
X3299318Y2022392D01*
X3300630Y2019768D01*
X3303254Y2018456D01*
X3309814Y2017144D01*
X3312438Y2015832D01*
X3313750Y2013208D01*
Y2011896D01*
X3312438Y2009272D01*
X3308502Y2007960D01*
X3304566D01*
X3300630Y2009272D01*
X3299318Y2011896D01*
X3335268Y2026329D02*
Y2007960D01*
Y2022392D02*
X3332644Y2025016D01*
X3330020Y2026329D01*
X3326084D01*
X3323460Y2025016D01*
X3320836Y2022392D01*
X3319523Y2018456D01*
Y2015832D01*
X3320836Y2011896D01*
X3323460Y2009272D01*
X3326084Y2007960D01*
X3330020D01*
X3332644Y2009272D01*
X3335268Y2011896D01*
X3342616Y2026329D02*
Y2007960D01*
Y2021080D02*
X3346552Y2025016D01*
X3349176Y2026329D01*
X3353112D01*
X3355736Y2025016D01*
X3357048Y2021080D01*
Y2007960D01*
X3365577Y2028953D02*
Y2030265D01*
X3366889Y2032889D01*
X3368201Y2034201D01*
X3370825Y2035513D01*
X3376073D01*
X3378697Y2034201D01*
X3380009Y2032889D01*
X3381321Y2030265D01*
Y2027641D01*
X3380009Y2025016D01*
X3377385Y2021080D01*
X3364265Y2007960D01*
X3382633D01*
X3407169Y2035513D02*
X3394048Y2007960D01*
X3388800Y2035513D02*
X3407169D01*
X3429080D02*
X3415960D01*
X3414648Y2023705D01*
X3415960Y2025016D01*
X3419896Y2026329D01*
X3423832D01*
X3427768Y2025016D01*
X3430392Y2022392D01*
X3431704Y2018456D01*
Y2015832D01*
X3430392Y2011896D01*
X3427768Y2009272D01*
X3423832Y2007960D01*
X3419896D01*
X3415960Y2009272D01*
X3414648Y2010584D01*
X3413336Y2013208D01*
X3450992Y2035513D02*
X3437871Y2017144D01*
X3457552D01*
X3450992Y2035513D02*
Y2007960D01*
X3089625Y3603517D02*
X3101621Y3572027D01*
X3113617Y3603517D02*
X3101621Y3572027D01*
X3117665Y3603517D02*
Y3572027D01*
X3124263Y3603517D02*
Y3572027D01*
Y3603517D02*
X3145256Y3572027D01*
Y3603517D02*
Y3572027D01*
X3086776Y3305018D02*
Y3278027D01*
X3073280Y3291523D02*
X3100271D01*
X3127562Y3309517D02*
X3112567D01*
X3111068Y3296021D01*
X3112567Y3297521D01*
X3117066Y3299020D01*
X3121564D01*
X3126063Y3297521D01*
X3129062Y3294522D01*
X3130561Y3290023D01*
Y3287024D01*
X3129062Y3282526D01*
X3126063Y3279527D01*
X3121564Y3278027D01*
X3117066D01*
X3112567Y3279527D01*
X3111068Y3281026D01*
X3109568Y3284025D01*
X3137609Y3309517D02*
X3149605Y3278027D01*
X3161601Y3309517D02*
X3149605Y3278027D01*
X3032314Y3073039D02*
Y3045485D01*
X3048059D01*
X3053701Y3073039D02*
X3055013Y3071726D01*
X3056325Y3073039D01*
X3055013Y3074351D01*
X3053701Y3073039D01*
X3055013Y3063854D02*
Y3045485D01*
X3061180Y3063854D02*
Y3045485D01*
Y3058606D02*
X3065116Y3062542D01*
X3067740Y3063854D01*
X3071676D01*
X3074300Y3062542D01*
X3075612Y3058606D01*
Y3045485D01*
X3082829Y3055982D02*
X3098573D01*
Y3058606D01*
X3097261Y3061230D01*
X3095949Y3062542D01*
X3093325Y3063854D01*
X3089389D01*
X3086765Y3062542D01*
X3084141Y3059918D01*
X3082829Y3055982D01*
Y3053358D01*
X3084141Y3049421D01*
X3086765Y3046797D01*
X3089389Y3045485D01*
X3093325D01*
X3095949Y3046797D01*
X3098573Y3049421D01*
X3120222Y3063854D02*
Y3045485D01*
Y3059918D02*
X3117598Y3062542D01*
X3114974Y3063854D01*
X3111038D01*
X3108414Y3062542D01*
X3105790Y3059918D01*
X3104477Y3055982D01*
Y3053358D01*
X3105790Y3049421D01*
X3108414Y3046797D01*
X3111038Y3045485D01*
X3114974D01*
X3117598Y3046797D01*
X3120222Y3049421D01*
X3127570Y3063854D02*
Y3045485D01*
Y3055982D02*
X3128882Y3059918D01*
X3131506Y3062542D01*
X3134130Y3063854D01*
X3138066D01*
X3183201Y3045485D02*
X3172704Y3073039D01*
X3162208Y3045485D01*
X3166144Y3054670D02*
X3179265D01*
X3205375Y3059918D02*
X3202751Y3062542D01*
X3200126Y3063854D01*
X3196190D01*
X3193566Y3062542D01*
X3190942Y3059918D01*
X3189630Y3055982D01*
Y3053358D01*
X3190942Y3049421D01*
X3193566Y3046797D01*
X3196190Y3045485D01*
X3200126D01*
X3202751Y3046797D01*
X3205375Y3049421D01*
X3215215Y3073039D02*
Y3050733D01*
X3216527Y3046797D01*
X3219151Y3045485D01*
X3221775D01*
X3211279Y3063854D02*
X3220463D01*
X3225711D02*
Y3050733D01*
X3227024Y3046797D01*
X3229648Y3045485D01*
X3233584D01*
X3236208Y3046797D01*
X3240144Y3050733D01*
Y3063854D02*
Y3045485D01*
X3263105Y3063854D02*
Y3045485D01*
Y3059918D02*
X3260481Y3062542D01*
X3257857Y3063854D01*
X3253921D01*
X3251297Y3062542D01*
X3248673Y3059918D01*
X3247360Y3055982D01*
Y3053358D01*
X3248673Y3049421D01*
X3251297Y3046797D01*
X3253921Y3045485D01*
X3257857D01*
X3260481Y3046797D01*
X3263105Y3049421D01*
X3274389Y3073039D02*
Y3050733D01*
X3275701Y3046797D01*
X3278325Y3045485D01*
X3280949D01*
X3270453Y3063854D02*
X3279637D01*
X3291445D02*
X3288821Y3062542D01*
X3286197Y3059918D01*
X3284885Y3055982D01*
Y3053358D01*
X3286197Y3049421D01*
X3288821Y3046797D01*
X3291445Y3045485D01*
X3295382D01*
X3298006Y3046797D01*
X3300630Y3049421D01*
X3301942Y3053358D01*
Y3055982D01*
X3300630Y3059918D01*
X3298006Y3062542D01*
X3295382Y3063854D01*
X3291445D01*
X3307977D02*
Y3045485D01*
Y3055982D02*
X3309289Y3059918D01*
X3311914Y3062542D01*
X3314538Y3063854D01*
X3318474D01*
X3342616Y3073039D02*
X3353112Y3045485D01*
X3363609Y3073039D02*
X3353112Y3045485D01*
X3369775Y3073039D02*
X3384208D01*
X3376336Y3062542D01*
X3380272D01*
X3382896Y3061230D01*
X3384208Y3059918D01*
X3385520Y3055982D01*
Y3053358D01*
X3384208Y3049421D01*
X3381584Y3046797D01*
X3377648Y3045485D01*
X3373711D01*
X3369775Y3046797D01*
X3368463Y3048109D01*
X3367151Y3050733D01*
X3392999Y3048109D02*
X3391687Y3046797D01*
X3392999Y3045485D01*
X3394311Y3046797D01*
X3392999Y3048109D01*
X3408219Y3073039D02*
X3404282Y3071726D01*
X3401658Y3067790D01*
X3400346Y3061230D01*
Y3057294D01*
X3401658Y3050733D01*
X3404282Y3046797D01*
X3408219Y3045485D01*
X3410843D01*
X3414779Y3046797D01*
X3417403Y3050733D01*
X3418715Y3057294D01*
Y3061230D01*
X3417403Y3067790D01*
X3414779Y3071726D01*
X3410843Y3073039D01*
X3408219D01*
X3048059Y3010581D02*
Y2989588D01*
X3046747Y2985651D01*
X3045435Y2984340D01*
X3042811Y2983027D01*
X3038875D01*
X3036251Y2984340D01*
X3048059Y3006644D02*
X3045435Y3009269D01*
X3042811Y3010581D01*
X3038875D01*
X3036251Y3009269D01*
X3033627Y3006644D01*
X3032314Y3002708D01*
Y3000084D01*
X3033627Y2996148D01*
X3036251Y2993524D01*
X3038875Y2992212D01*
X3042811D01*
X3045435Y2993524D01*
X3048059Y2996148D01*
X3058031Y3019765D02*
X3059343Y3018453D01*
X3060655Y3019765D01*
X3059343Y3021077D01*
X3058031Y3019765D01*
X3059343Y3010581D02*
Y2992212D01*
X3069446Y3019765D02*
Y2997460D01*
X3070758Y2993524D01*
X3073382Y2992212D01*
X3076006D01*
X3065510Y3010581D02*
X3074694D01*
X3079942Y3019765D02*
Y2992212D01*
Y3005332D02*
X3083878Y3009269D01*
X3086502Y3010581D01*
X3090439D01*
X3093063Y3009269D01*
X3094375Y3005332D01*
Y2992212D01*
X3101591Y3010581D02*
Y2997460D01*
X3102903Y2993524D01*
X3105527Y2992212D01*
X3109463D01*
X3112088Y2993524D01*
X3116024Y2997460D01*
Y3010581D02*
Y2992212D01*
X3123240Y3019765D02*
Y2992212D01*
Y3006644D02*
X3125864Y3009269D01*
X3128488Y3010581D01*
X3132424D01*
X3135048Y3009269D01*
X3137673Y3006644D01*
X3138985Y3002708D01*
Y3000084D01*
X3137673Y2996148D01*
X3135048Y2993524D01*
X3132424Y2992212D01*
X3128488D01*
X3125864Y2993524D01*
X3123240Y2996148D01*
X3146201Y2994836D02*
X3144889Y2993524D01*
X3146201Y2992212D01*
X3147513Y2993524D01*
X3146201Y2994836D01*
X3169293Y3006644D02*
X3166669Y3009269D01*
X3164045Y3010581D01*
X3160109D01*
X3157485Y3009269D01*
X3154860Y3006644D01*
X3153548Y3002708D01*
Y3000084D01*
X3154860Y2996148D01*
X3157485Y2993524D01*
X3160109Y2992212D01*
X3164045D01*
X3166669Y2993524D01*
X3169293Y2996148D01*
X3181758Y3010581D02*
X3179133Y3009269D01*
X3176509Y3006644D01*
X3175197Y3002708D01*
Y3000084D01*
X3176509Y2996148D01*
X3179133Y2993524D01*
X3181758Y2992212D01*
X3185694D01*
X3188318Y2993524D01*
X3190942Y2996148D01*
X3192254Y3000084D01*
Y3002708D01*
X3190942Y3006644D01*
X3188318Y3009269D01*
X3185694Y3010581D01*
X3181758D01*
X3198289D02*
Y2992212D01*
Y3005332D02*
X3202226Y3009269D01*
X3204850Y3010581D01*
X3208786D01*
X3211410Y3009269D01*
X3212722Y3005332D01*
Y2992212D01*
Y3005332D02*
X3216658Y3009269D01*
X3219282Y3010581D01*
X3223219D01*
X3225843Y3009269D01*
X3227155Y3005332D01*
Y2992212D01*
X3235814Y2988276D02*
X3254183Y3019765D01*
X3256020Y3002708D02*
X3271765D01*
Y3005332D01*
X3270453Y3007956D01*
X3269141Y3009269D01*
X3266517Y3010581D01*
X3262580D01*
X3259956Y3009269D01*
X3257332Y3006644D01*
X3256020Y3002708D01*
Y3000084D01*
X3257332Y2996148D01*
X3259956Y2993524D01*
X3262580Y2992212D01*
X3266517D01*
X3269141Y2993524D01*
X3271765Y2996148D01*
X3277669Y3019765D02*
Y2992212D01*
Y3005332D02*
X3281605Y3009269D01*
X3284229Y3010581D01*
X3288165D01*
X3290789Y3009269D01*
X3292102Y3005332D01*
Y2992212D01*
X3313750Y3006644D02*
X3312438Y3009269D01*
X3308502Y3010581D01*
X3304566D01*
X3300630Y3009269D01*
X3299318Y3006644D01*
X3300630Y3004020D01*
X3303254Y3002708D01*
X3309814Y3001396D01*
X3312438Y3000084D01*
X3313750Y2997460D01*
Y2996148D01*
X3312438Y2993524D01*
X3308502Y2992212D01*
X3304566D01*
X3300630Y2993524D01*
X3299318Y2996148D01*
X3335268Y3010581D02*
Y2992212D01*
Y3006644D02*
X3332644Y3009269D01*
X3330020Y3010581D01*
X3326084D01*
X3323460Y3009269D01*
X3320836Y3006644D01*
X3319523Y3002708D01*
Y3000084D01*
X3320836Y2996148D01*
X3323460Y2993524D01*
X3326084Y2992212D01*
X3330020D01*
X3332644Y2993524D01*
X3335268Y2996148D01*
X3342616Y3010581D02*
Y2992212D01*
Y3005332D02*
X3346552Y3009269D01*
X3349176Y3010581D01*
X3353112D01*
X3355736Y3009269D01*
X3357048Y3005332D01*
Y2992212D01*
X3365577Y3013205D02*
Y3014517D01*
X3366889Y3017141D01*
X3368201Y3018453D01*
X3370825Y3019765D01*
X3376073D01*
X3378697Y3018453D01*
X3380009Y3017141D01*
X3381321Y3014517D01*
Y3011893D01*
X3380009Y3009269D01*
X3377385Y3005332D01*
X3364265Y2992212D01*
X3382633D01*
X3407169Y3019765D02*
X3394048Y2992212D01*
X3388800Y3019765D02*
X3407169D01*
X3429080D02*
X3415960D01*
X3414648Y3007956D01*
X3415960Y3009269D01*
X3419896Y3010581D01*
X3423832D01*
X3427768Y3009269D01*
X3430392Y3006644D01*
X3431704Y3002708D01*
Y3000084D01*
X3430392Y2996148D01*
X3427768Y2993524D01*
X3423832Y2992212D01*
X3419896D01*
X3415960Y2993524D01*
X3414648Y2994836D01*
X3413336Y2997460D01*
X3450992Y3019765D02*
X3437871Y3001396D01*
X3457552D01*
X3450992Y3019765D02*
Y2992212D01*
D22*
X2716440Y490397D02*
D03*
Y1474649D02*
D03*
Y2458901D02*
D03*
Y3443153D02*
D03*
D23*
X2162669Y799153D02*
D03*
X1182417Y797972D02*
D03*
X882023Y177397D02*
D03*
X2162669Y1783405D02*
D03*
X1182417Y1782224D02*
D03*
X882023Y1161649D02*
D03*
X2162669Y2767657D02*
D03*
X1182417Y2766476D02*
D03*
X882023Y2145901D02*
D03*
X2162669Y3751909D02*
D03*
X1182417Y3750728D02*
D03*
X882023Y3130153D02*
D03*
D24*
X2062669Y799153D02*
D03*
X1962669D02*
D03*
X1862669D02*
D03*
X1762669D02*
D03*
X1082417Y797972D02*
D03*
X982417D02*
D03*
X882417D02*
D03*
X982023Y177397D02*
D03*
X1082023D02*
D03*
X1182023D02*
D03*
X2062669Y1783405D02*
D03*
X1962669D02*
D03*
X1862669D02*
D03*
X1762669D02*
D03*
X1082417Y1782224D02*
D03*
X982417D02*
D03*
X882417D02*
D03*
X982023Y1161649D02*
D03*
X1082023D02*
D03*
X1182023D02*
D03*
X2062669Y2767657D02*
D03*
X1962669D02*
D03*
X1862669D02*
D03*
X1762669D02*
D03*
X1082417Y2766476D02*
D03*
X982417D02*
D03*
X882417D02*
D03*
X982023Y2145901D02*
D03*
X1082023D02*
D03*
X1182023D02*
D03*
X2062669Y3751909D02*
D03*
X1962669D02*
D03*
X1862669D02*
D03*
X1762669D02*
D03*
X1082417Y3750728D02*
D03*
X982417D02*
D03*
X882417D02*
D03*
X982023Y3130153D02*
D03*
X1082023D02*
D03*
X1182023D02*
D03*
D25*
X2305441Y338366D02*
D03*
Y1322618D02*
D03*
Y2306870D02*
D03*
Y3291122D02*
D03*
D26*
X2405441Y338366D02*
D03*
X2505441D02*
D03*
X2605441D02*
D03*
X2705441D02*
D03*
X2805441D02*
D03*
X2905441D02*
D03*
X3005441D02*
D03*
X2305441Y638366D02*
D03*
X2405441D02*
D03*
X2505441D02*
D03*
X2605441D02*
D03*
X2705441D02*
D03*
X2805441D02*
D03*
X2905441D02*
D03*
X3005441D02*
D03*
X2405441Y1322618D02*
D03*
X2505441D02*
D03*
X2605441D02*
D03*
X2705441D02*
D03*
X2805441D02*
D03*
X2905441D02*
D03*
X3005441D02*
D03*
X2305441Y1622618D02*
D03*
X2405441D02*
D03*
X2505441D02*
D03*
X2605441D02*
D03*
X2705441D02*
D03*
X2805441D02*
D03*
X2905441D02*
D03*
X3005441D02*
D03*
X2405441Y2306870D02*
D03*
X2505441D02*
D03*
X2605441D02*
D03*
X2705441D02*
D03*
X2805441D02*
D03*
X2905441D02*
D03*
X3005441D02*
D03*
X2305441Y2606870D02*
D03*
X2405441D02*
D03*
X2505441D02*
D03*
X2605441D02*
D03*
X2705441D02*
D03*
X2805441D02*
D03*
X2905441D02*
D03*
X3005441D02*
D03*
X2405441Y3291122D02*
D03*
X2505441D02*
D03*
X2605441D02*
D03*
X2705441D02*
D03*
X2805441D02*
D03*
X2905441D02*
D03*
X3005441D02*
D03*
X2305441Y3591122D02*
D03*
X2405441D02*
D03*
X2505441D02*
D03*
X2605441D02*
D03*
X2705441D02*
D03*
X2805441D02*
D03*
X2905441D02*
D03*
X3005441D02*
D03*
D27*
X2610362Y765103D02*
D03*
X2689102Y212397D02*
D03*
X2610362Y1749355D02*
D03*
X2689102Y1196649D02*
D03*
X2610362Y2733607D02*
D03*
X2689102Y2180901D02*
D03*
X2610362Y3717859D02*
D03*
X2689102Y3165153D02*
D03*
D28*
X2689102Y765103D02*
D03*
X2610362Y212397D02*
D03*
X1037440Y554311D02*
D03*
X937441Y444075D02*
D03*
Y554311D02*
D03*
X1356440D02*
D03*
X1256440Y444075D02*
D03*
Y554311D02*
D03*
X2689102Y1749355D02*
D03*
X2610362Y1196649D02*
D03*
X1037440Y1538563D02*
D03*
X937441Y1428327D02*
D03*
Y1538563D02*
D03*
X1356440D02*
D03*
X1256440Y1428327D02*
D03*
Y1538563D02*
D03*
X2689102Y2733607D02*
D03*
X2610362Y2180901D02*
D03*
X1037440Y2522815D02*
D03*
X937441Y2412579D02*
D03*
Y2522815D02*
D03*
X1356440D02*
D03*
X1256440Y2412579D02*
D03*
Y2522815D02*
D03*
X2689102Y3717859D02*
D03*
X2610362Y3165153D02*
D03*
X1037440Y3507067D02*
D03*
X937441Y3396831D02*
D03*
Y3507067D02*
D03*
X1356440D02*
D03*
X1256440Y3396831D02*
D03*
Y3507067D02*
D03*
D29*
X3514441Y594602D02*
D03*
X3516338Y389295D02*
D03*
X3514441Y1578854D02*
D03*
X3516338Y1373547D02*
D03*
X3514441Y2563106D02*
D03*
X3516338Y2357799D02*
D03*
X3514441Y3547358D02*
D03*
X3516338Y3342051D02*
D03*
D30*
X3514441Y732397D02*
D03*
X3516338Y251500D02*
D03*
X3514441Y1716649D02*
D03*
X3516338Y1235752D02*
D03*
X3514441Y2700901D02*
D03*
X3516338Y2220004D02*
D03*
X3514441Y3685153D02*
D03*
X3516338Y3204256D02*
D03*
D31*
X3770441Y864397D02*
D03*
X2888441Y121397D02*
D03*
X1427440D02*
D03*
X3770441D02*
D03*
Y1848649D02*
D03*
X2888441Y1105649D02*
D03*
X1427440D02*
D03*
X3770441D02*
D03*
Y2832901D02*
D03*
X2888441Y2089901D02*
D03*
X1427440D02*
D03*
X3770441D02*
D03*
Y3817153D02*
D03*
X2888441Y3074153D02*
D03*
X1427440D02*
D03*
X3770441D02*
D03*
D32*
X1398440Y789291D02*
D03*
X1648440D02*
D03*
Y713185D02*
D03*
X1398440D02*
D03*
Y865397D02*
D03*
X1648440D02*
D03*
X1860222Y136397D02*
D03*
X1610222D02*
D03*
X1503440Y447397D02*
D03*
X1753440D02*
D03*
X1503440Y527397D02*
D03*
X1753440D02*
D03*
X1398440Y1773543D02*
D03*
X1648440D02*
D03*
Y1697437D02*
D03*
X1398440D02*
D03*
Y1849649D02*
D03*
X1648440D02*
D03*
X1860222Y1120649D02*
D03*
X1610222D02*
D03*
X1503440Y1431649D02*
D03*
X1753440D02*
D03*
X1503440Y1511649D02*
D03*
X1753440D02*
D03*
X1398440Y2757795D02*
D03*
X1648440D02*
D03*
Y2681689D02*
D03*
X1398440D02*
D03*
Y2833901D02*
D03*
X1648440D02*
D03*
X1860222Y2104901D02*
D03*
X1610222D02*
D03*
X1503440Y2415901D02*
D03*
X1753440D02*
D03*
X1503440Y2495901D02*
D03*
X1753440D02*
D03*
X1398440Y3742047D02*
D03*
X1648440D02*
D03*
Y3665941D02*
D03*
X1398440D02*
D03*
Y3818153D02*
D03*
X1648440D02*
D03*
X1860222Y3089153D02*
D03*
X1610222D02*
D03*
X1503440Y3400153D02*
D03*
X1753440D02*
D03*
X1503440Y3480153D02*
D03*
X1753440D02*
D03*
D33*
X1999440Y133397D02*
D03*
Y233397D02*
D03*
Y1117649D02*
D03*
Y1217649D02*
D03*
Y2101901D02*
D03*
Y2201901D02*
D03*
Y3086153D02*
D03*
Y3186153D02*
D03*
D34*
X3255441Y393397D02*
D03*
Y493397D02*
D03*
Y1377649D02*
D03*
Y1477649D02*
D03*
Y2361901D02*
D03*
Y2461901D02*
D03*
Y3346153D02*
D03*
Y3446153D02*
D03*
D35*
Y593397D02*
D03*
Y1577649D02*
D03*
Y2561901D02*
D03*
Y3546153D02*
D03*
D36*
X889441Y336397D02*
D03*
Y1320649D02*
D03*
Y2304901D02*
D03*
Y3289153D02*
D03*
D37*
X989441Y336397D02*
D03*
X1089440D02*
D03*
X1189440D02*
D03*
X1289440D02*
D03*
X1389440D02*
D03*
X1489440D02*
D03*
X1589440D02*
D03*
X1689440D02*
D03*
X1789440D02*
D03*
X1889440D02*
D03*
X1989440D02*
D03*
X2089441D02*
D03*
X2189441D02*
D03*
X889441Y636397D02*
D03*
X989441D02*
D03*
X1089440D02*
D03*
X1189440D02*
D03*
X1289440D02*
D03*
X1389440D02*
D03*
X1489440D02*
D03*
X1589440D02*
D03*
X1689440D02*
D03*
X1789440D02*
D03*
X1889440D02*
D03*
X1989440D02*
D03*
X2089441D02*
D03*
X2189441D02*
D03*
X989441Y1320649D02*
D03*
X1089440D02*
D03*
X1189440D02*
D03*
X1289440D02*
D03*
X1389440D02*
D03*
X1489440D02*
D03*
X1589440D02*
D03*
X1689440D02*
D03*
X1789440D02*
D03*
X1889440D02*
D03*
X1989440D02*
D03*
X2089441D02*
D03*
X2189441D02*
D03*
X889441Y1620649D02*
D03*
X989441D02*
D03*
X1089440D02*
D03*
X1189440D02*
D03*
X1289440D02*
D03*
X1389440D02*
D03*
X1489440D02*
D03*
X1589440D02*
D03*
X1689440D02*
D03*
X1789440D02*
D03*
X1889440D02*
D03*
X1989440D02*
D03*
X2089441D02*
D03*
X2189441D02*
D03*
X989441Y2304901D02*
D03*
X1089440D02*
D03*
X1189440D02*
D03*
X1289440D02*
D03*
X1389440D02*
D03*
X1489440D02*
D03*
X1589440D02*
D03*
X1689440D02*
D03*
X1789440D02*
D03*
X1889440D02*
D03*
X1989440D02*
D03*
X2089441D02*
D03*
X2189441D02*
D03*
X889441Y2604901D02*
D03*
X989441D02*
D03*
X1089440D02*
D03*
X1189440D02*
D03*
X1289440D02*
D03*
X1389440D02*
D03*
X1489440D02*
D03*
X1589440D02*
D03*
X1689440D02*
D03*
X1789440D02*
D03*
X1889440D02*
D03*
X1989440D02*
D03*
X2089441D02*
D03*
X2189441D02*
D03*
X989441Y3289153D02*
D03*
X1089440D02*
D03*
X1189440D02*
D03*
X1289440D02*
D03*
X1389440D02*
D03*
X1489440D02*
D03*
X1589440D02*
D03*
X1689440D02*
D03*
X1789440D02*
D03*
X1889440D02*
D03*
X1989440D02*
D03*
X2089441D02*
D03*
X2189441D02*
D03*
X889441Y3589153D02*
D03*
X989441D02*
D03*
X1089440D02*
D03*
X1189440D02*
D03*
X1289440D02*
D03*
X1389440D02*
D03*
X1489440D02*
D03*
X1589440D02*
D03*
X1689440D02*
D03*
X1789440D02*
D03*
X1889440D02*
D03*
X1989440D02*
D03*
X2089441D02*
D03*
X2189441D02*
D03*
D38*
X1037440Y444075D02*
D03*
X1356440D02*
D03*
X1037440Y1428327D02*
D03*
X1356440D02*
D03*
X1037440Y2412579D02*
D03*
X1356440D02*
D03*
X1037440Y3396831D02*
D03*
X1356440D02*
D03*
D39*
X3124160Y889678D02*
D03*
X2383441Y500397D02*
D03*
X3124160Y1873930D02*
D03*
X2383441Y1484649D02*
D03*
X3124160Y2858182D02*
D03*
X2383441Y2468901D02*
D03*
X3124160Y3842434D02*
D03*
X2383441Y3453153D02*
D03*
%TF.MD5,b378779138c5fd657627fd2e977a0622*%
M02*
