G04*
G04 #@! TF.GenerationSoftware,Altium Limited,Altium Designer,21.4.1 (30)*
G04*
G04 Layer_Physical_Order=1*
G04 Layer_Color=255*
%FSLAX44Y44*%
%MOMM*%
G71*
G04*
G04 #@! TF.SameCoordinates,DC4F367D-8D4E-4889-AD52-647C8777383A*
G04*
G04*
G04 #@! TF.FilePolarity,Positive*
G04*
G01*
G75*
%ADD10C,0.5000*%
%ADD11C,3.4000*%
G04:AMPARAMS|DCode=12|XSize=3.4mm|YSize=3.4mm|CornerRadius=0.85mm|HoleSize=0mm|Usage=FLASHONLY|Rotation=180.000|XOffset=0mm|YOffset=0mm|HoleType=Round|Shape=RoundedRectangle|*
%AMROUNDEDRECTD12*
21,1,3.4000,1.7000,0,0,180.0*
21,1,1.7000,3.4000,0,0,180.0*
1,1,1.7000,-0.8500,0.8500*
1,1,1.7000,0.8500,0.8500*
1,1,1.7000,0.8500,-0.8500*
1,1,1.7000,-0.8500,-0.8500*
%
%ADD12ROUNDEDRECTD12*%
%ADD13R,0.6000X0.8500*%
%ADD14R,2.0000X1.5000*%
%ADD15R,0.4000X2.0000*%
%ADD16C,1.0000*%
%ADD17C,3.0000*%
%ADD18C,2.0000*%
%ADD19C,0.7000*%
%ADD20C,0.2000*%
%ADD21R,12.1920X5.5880*%
%ADD22R,1.6000X2.6000*%
%ADD23O,1.6000X2.6000*%
%ADD24R,1.4000X1.4000*%
%ADD25C,1.4000*%
%ADD26R,1.3000X1.3000*%
%ADD27C,1.3000*%
%ADD28C,2.0000*%
G04:AMPARAMS|DCode=29|XSize=2mm|YSize=2mm|CornerRadius=0.25mm|HoleSize=0mm|Usage=FLASHONLY|Rotation=270.000|XOffset=0mm|YOffset=0mm|HoleType=Round|Shape=RoundedRectangle|*
%AMROUNDEDRECTD29*
21,1,2.0000,1.5000,0,0,270.0*
21,1,1.5000,2.0000,0,0,270.0*
1,1,0.5000,-0.7500,-0.7500*
1,1,0.5000,-0.7500,0.7500*
1,1,0.5000,0.7500,0.7500*
1,1,0.5000,0.7500,-0.7500*
%
%ADD29ROUNDEDRECTD29*%
%ADD30C,1.2000*%
%ADD31C,1.3970*%
%ADD32C,1.6000*%
%ADD33O,2.5000X1.6000*%
%ADD34R,2.5000X1.8000*%
%ADD35R,1.5000X1.5000*%
%ADD36C,1.5000*%
%ADD37R,1.3000X1.3000*%
%ADD38C,1.2700*%
G36*
X2198906Y2427723D02*
X2206272D01*
Y2459756D01*
X2191316Y2474713D01*
X2151916D01*
X2198906Y2427723D01*
D02*
G37*
G36*
Y2177723D02*
X2206272D01*
Y2209756D01*
X2191316Y2224713D01*
X2151916D01*
X2198906Y2177723D01*
D02*
G37*
G36*
X2704090Y1992000D02*
X2694090Y1982000D01*
X2699090Y1977000D01*
Y1937000D01*
X2709090D01*
Y1992000D01*
X2714090Y1997000D01*
X2704090D01*
Y1992000D01*
D02*
G37*
G36*
X2198906Y1927723D02*
X2206272D01*
Y1959756D01*
X2191316Y1974713D01*
X2151916D01*
X2198906Y1927723D01*
D02*
G37*
G36*
Y1677723D02*
X2206272D01*
Y1709756D01*
X2191316Y1724713D01*
X2151916D01*
X2198906Y1677723D01*
D02*
G37*
D10*
X2978135Y1572000D02*
X2958139D01*
Y1583426D01*
X2978135Y1587520D02*
X2977183Y1588473D01*
X2978135Y1589425D01*
X2979087Y1588473D01*
X2978135Y1587520D01*
X2971469Y1588473D02*
X2958139D01*
X2971469Y1592948D02*
X2958139D01*
X2967661D02*
X2970517Y1595804D01*
X2971469Y1597709D01*
Y1600565D01*
X2970517Y1602470D01*
X2967661Y1603422D01*
X2958139D01*
X2965756Y1608659D02*
Y1620085D01*
X2967661D01*
X2969565Y1619133D01*
X2970517Y1618181D01*
X2971469Y1616276D01*
Y1613420D01*
X2970517Y1611515D01*
X2968613Y1609611D01*
X2965756Y1608659D01*
X2963852D01*
X2960995Y1609611D01*
X2959091Y1611515D01*
X2958139Y1613420D01*
Y1616276D01*
X2959091Y1618181D01*
X2960995Y1620085D01*
X2971469Y1635796D02*
X2958139D01*
X2968613D02*
X2970517Y1633891D01*
X2971469Y1631987D01*
Y1629131D01*
X2970517Y1627226D01*
X2968613Y1625322D01*
X2965756Y1624370D01*
X2963852D01*
X2960995Y1625322D01*
X2959091Y1627226D01*
X2958139Y1629131D01*
Y1631987D01*
X2959091Y1633891D01*
X2960995Y1635796D01*
X2971469Y1641128D02*
X2958139D01*
X2965756D02*
X2968613Y1642080D01*
X2970517Y1643985D01*
X2971469Y1645889D01*
Y1648745D01*
X2958139Y1681500D02*
X2978135Y1673883D01*
X2958139Y1666266D01*
X2964804Y1669122D02*
Y1678644D01*
X2968613Y1697592D02*
X2970517Y1695688D01*
X2971469Y1693783D01*
Y1690927D01*
X2970517Y1689023D01*
X2968613Y1687118D01*
X2965756Y1686166D01*
X2963852D01*
X2960995Y1687118D01*
X2959091Y1689023D01*
X2958139Y1690927D01*
Y1693783D01*
X2959091Y1695688D01*
X2960995Y1697592D01*
X2978135Y1704733D02*
X2961948D01*
X2959091Y1705686D01*
X2958139Y1707590D01*
Y1709494D01*
X2971469Y1701877D02*
Y1708542D01*
Y1712351D02*
X2961948D01*
X2959091Y1713303D01*
X2958139Y1715207D01*
Y1718064D01*
X2959091Y1719968D01*
X2961948Y1722825D01*
X2971469D02*
X2958139D01*
X2971469Y1739488D02*
X2958139D01*
X2968613D02*
X2970517Y1737583D01*
X2971469Y1735679D01*
Y1732823D01*
X2970517Y1730918D01*
X2968613Y1729014D01*
X2965756Y1728062D01*
X2963852D01*
X2960995Y1729014D01*
X2959091Y1730918D01*
X2958139Y1732823D01*
Y1735679D01*
X2959091Y1737583D01*
X2960995Y1739488D01*
X2978135Y1747677D02*
X2961948D01*
X2959091Y1748629D01*
X2958139Y1750533D01*
Y1752437D01*
X2971469Y1744820D02*
Y1751485D01*
Y1760055D02*
X2970517Y1758151D01*
X2968613Y1756246D01*
X2965756Y1755294D01*
X2963852D01*
X2960995Y1756246D01*
X2959091Y1758151D01*
X2958139Y1760055D01*
Y1762911D01*
X2959091Y1764816D01*
X2960995Y1766720D01*
X2963852Y1767672D01*
X2965756D01*
X2968613Y1766720D01*
X2970517Y1764816D01*
X2971469Y1762911D01*
Y1760055D01*
Y1772052D02*
X2958139D01*
X2965756D02*
X2968613Y1773004D01*
X2970517Y1774909D01*
X2971469Y1776813D01*
Y1779670D01*
X2978135Y1797190D02*
X2958139Y1804807D01*
X2978135Y1812425D02*
X2958139Y1804807D01*
X2978135Y1816900D02*
Y1827374D01*
X2970517Y1821661D01*
Y1824517D01*
X2969565Y1826422D01*
X2968613Y1827374D01*
X2965756Y1828326D01*
X2963852D01*
X2960995Y1827374D01*
X2959091Y1825470D01*
X2958139Y1822613D01*
Y1819756D01*
X2959091Y1816900D01*
X2960043Y1815948D01*
X2961948Y1814996D01*
X2960043Y1833753D02*
X2959091Y1832801D01*
X2958139Y1833753D01*
X2959091Y1834706D01*
X2960043Y1833753D01*
X2978135Y1844799D02*
X2977183Y1841942D01*
X2974326Y1840038D01*
X2969565Y1839086D01*
X2966708D01*
X2961948Y1840038D01*
X2959091Y1841942D01*
X2958139Y1844799D01*
Y1846703D01*
X2959091Y1849560D01*
X2961948Y1851464D01*
X2966708Y1852416D01*
X2969565D01*
X2974326Y1851464D01*
X2977183Y1849560D01*
X2978135Y1846703D01*
Y1844799D01*
X2941188Y1584378D02*
Y1572000D01*
X2921192D01*
Y1584378D01*
X2931666Y1572000D02*
Y1579617D01*
X2941188Y1587711D02*
X2921192D01*
X2930714D02*
X2933570Y1590567D01*
X2934522Y1592472D01*
Y1595328D01*
X2933570Y1597233D01*
X2930714Y1598185D01*
X2921192D01*
X2931666Y1613896D02*
X2933570Y1612944D01*
X2934522Y1610087D01*
Y1607231D01*
X2933570Y1604374D01*
X2931666Y1603422D01*
X2929761Y1604374D01*
X2928809Y1606278D01*
X2927857Y1611039D01*
X2926905Y1612944D01*
X2925001Y1613896D01*
X2924048D01*
X2922144Y1612944D01*
X2921192Y1610087D01*
Y1607231D01*
X2922144Y1604374D01*
X2924048Y1603422D01*
X2934522Y1629512D02*
X2921192D01*
X2931666D02*
X2933570Y1627607D01*
X2934522Y1625703D01*
Y1622846D01*
X2933570Y1620942D01*
X2931666Y1619037D01*
X2928809Y1618085D01*
X2926905D01*
X2924048Y1619037D01*
X2922144Y1620942D01*
X2921192Y1622846D01*
Y1625703D01*
X2922144Y1627607D01*
X2924048Y1629512D01*
X2934522Y1634844D02*
X2921192D01*
X2930714D02*
X2933570Y1637700D01*
X2934522Y1639604D01*
Y1642461D01*
X2933570Y1644365D01*
X2930714Y1645318D01*
X2921192D01*
X2938331Y1679596D02*
X2940235Y1677692D01*
X2941188Y1674835D01*
Y1671026D01*
X2940235Y1668170D01*
X2938331Y1666266D01*
X2936427D01*
X2934522Y1667218D01*
X2933570Y1668170D01*
X2932618Y1670074D01*
X2930714Y1675787D01*
X2929761Y1677692D01*
X2928809Y1678644D01*
X2926905Y1679596D01*
X2924048D01*
X2922144Y1677692D01*
X2921192Y1674835D01*
Y1671026D01*
X2922144Y1668170D01*
X2924048Y1666266D01*
X2941188Y1684071D02*
X2921192D01*
X2930714D02*
X2933570Y1686928D01*
X2934522Y1688832D01*
Y1691689D01*
X2933570Y1693593D01*
X2930714Y1694545D01*
X2921192D01*
X2934522Y1711208D02*
X2921192D01*
X2931666D02*
X2933570Y1709304D01*
X2934522Y1707399D01*
Y1704543D01*
X2933570Y1702639D01*
X2931666Y1700734D01*
X2928809Y1699782D01*
X2926905D01*
X2924048Y1700734D01*
X2922144Y1702639D01*
X2921192Y1704543D01*
Y1707399D01*
X2922144Y1709304D01*
X2924048Y1711208D01*
X2934522Y1727967D02*
X2919287D01*
X2916431Y1727014D01*
X2915479Y1726062D01*
X2914527Y1724158D01*
Y1721301D01*
X2915479Y1719397D01*
X2931666Y1727967D02*
X2933570Y1726062D01*
X2934522Y1724158D01*
Y1721301D01*
X2933570Y1719397D01*
X2931666Y1717493D01*
X2928809Y1716540D01*
X2926905D01*
X2924048Y1717493D01*
X2922144Y1719397D01*
X2921192Y1721301D01*
Y1724158D01*
X2922144Y1726062D01*
X2924048Y1727967D01*
X2941188Y1733299D02*
X2921192D01*
X2930714D02*
X2933570Y1736155D01*
X2934522Y1738060D01*
Y1740916D01*
X2933570Y1742820D01*
X2930714Y1743773D01*
X2921192D01*
X2934522Y1760436D02*
X2921192D01*
X2931666D02*
X2933570Y1758531D01*
X2934522Y1756627D01*
Y1753771D01*
X2933570Y1751866D01*
X2931666Y1749962D01*
X2928809Y1749010D01*
X2926905D01*
X2924048Y1749962D01*
X2922144Y1751866D01*
X2921192Y1753771D01*
Y1756627D01*
X2922144Y1758531D01*
X2924048Y1760436D01*
X2928809Y1765768D02*
Y1777194D01*
X2930714D01*
X2932618Y1776242D01*
X2933570Y1775290D01*
X2934522Y1773385D01*
Y1770529D01*
X2933570Y1768625D01*
X2931666Y1766720D01*
X2928809Y1765768D01*
X2926905D01*
X2924048Y1766720D01*
X2922144Y1768625D01*
X2921192Y1770529D01*
Y1773385D01*
X2922144Y1775290D01*
X2924048Y1777194D01*
X2941188Y1783383D02*
X2940235Y1784335D01*
X2941188Y1785288D01*
X2942140Y1784335D01*
X2941188Y1783383D01*
X2934522Y1784335D02*
X2921192D01*
X2898528Y1581522D02*
X2883293D01*
X2880436Y1580570D01*
X2879484Y1579617D01*
X2878532Y1577713D01*
Y1575809D01*
X2879484Y1573904D01*
X2880436Y1572952D01*
X2883293Y1572000D01*
X2885197D01*
X2891862Y1598090D02*
X2878532D01*
X2889006D02*
X2890910Y1596185D01*
X2891862Y1594281D01*
Y1591424D01*
X2890910Y1589520D01*
X2889006Y1587616D01*
X2886149Y1586664D01*
X2884245D01*
X2881388Y1587616D01*
X2879484Y1589520D01*
X2878532Y1591424D01*
Y1594281D01*
X2879484Y1596185D01*
X2881388Y1598090D01*
X2891862Y1603422D02*
X2878532D01*
X2888054D02*
X2890910Y1606278D01*
X2891862Y1608183D01*
Y1611039D01*
X2890910Y1612944D01*
X2888054Y1613896D01*
X2878532D01*
X2894719Y1634844D02*
X2895671Y1636748D01*
X2898528Y1639604D01*
X2878532D01*
X2898528Y1659029D02*
X2885197Y1649507D01*
Y1663790D01*
X2898528Y1659029D02*
X2878532D01*
X2879484Y1669217D02*
X2878532Y1668265D01*
X2879484Y1667313D01*
X2880436Y1668265D01*
X2879484Y1669217D01*
X2877580D01*
X2875675Y1668265D01*
X2874723Y1667313D01*
X2893767Y1690260D02*
X2894719D01*
X2896623Y1691212D01*
X2897575Y1692165D01*
X2898528Y1694069D01*
Y1697878D01*
X2897575Y1699782D01*
X2896623Y1700734D01*
X2894719Y1701687D01*
X2892815D01*
X2890910Y1700734D01*
X2888054Y1698830D01*
X2878532Y1689308D01*
Y1702639D01*
X2898528Y1712827D02*
X2897575Y1709970D01*
X2894719Y1708066D01*
X2889958Y1707114D01*
X2887101D01*
X2882340Y1708066D01*
X2879484Y1709970D01*
X2878532Y1712827D01*
Y1714731D01*
X2879484Y1717588D01*
X2882340Y1719492D01*
X2887101Y1720444D01*
X2889958D01*
X2894719Y1719492D01*
X2897575Y1717588D01*
X2898528Y1714731D01*
Y1712827D01*
X2893767Y1725872D02*
X2894719D01*
X2896623Y1726824D01*
X2897575Y1727776D01*
X2898528Y1729680D01*
Y1733489D01*
X2897575Y1735394D01*
X2896623Y1736346D01*
X2894719Y1737298D01*
X2892815D01*
X2890910Y1736346D01*
X2888054Y1734441D01*
X2878532Y1724920D01*
Y1738250D01*
X2894719Y1742725D02*
X2895671Y1744630D01*
X2898528Y1747486D01*
X2878532D01*
X2894719Y2216522D02*
X2881389Y2207000D01*
Y2221283D01*
X2894719Y2216522D02*
X2874723D01*
X2894719Y2240517D02*
X2874723Y2253847D01*
X2894719D02*
X2874723Y2240517D01*
X2889958Y2274985D02*
X2890910D01*
X2892815Y2275938D01*
X2893767Y2276890D01*
X2894719Y2278794D01*
Y2282603D01*
X2893767Y2284507D01*
X2892815Y2285459D01*
X2890910Y2286412D01*
X2889006D01*
X2887101Y2285459D01*
X2884245Y2283555D01*
X2874723Y2274033D01*
Y2287364D01*
X2894719Y2303265D02*
Y2293743D01*
X2886149Y2292791D01*
X2887101Y2293743D01*
X2888054Y2296600D01*
Y2299456D01*
X2887101Y2302313D01*
X2885197Y2304217D01*
X2882340Y2305170D01*
X2880436D01*
X2877580Y2304217D01*
X2875675Y2302313D01*
X2874723Y2299456D01*
Y2296600D01*
X2875675Y2293743D01*
X2876628Y2292791D01*
X2878532Y2291839D01*
X2894719Y2325356D02*
X2874723Y2338686D01*
X2894719D02*
X2874723Y2325356D01*
X2894719Y2363633D02*
X2893767Y2360777D01*
X2891862Y2359824D01*
X2889958D01*
X2888054Y2360777D01*
X2887101Y2362681D01*
X2886149Y2366490D01*
X2885197Y2369346D01*
X2883293Y2371251D01*
X2881389Y2372203D01*
X2878532D01*
X2876628Y2371251D01*
X2875675Y2370298D01*
X2874723Y2367442D01*
Y2363633D01*
X2875675Y2360777D01*
X2876628Y2359824D01*
X2878532Y2358872D01*
X2881389D01*
X2883293Y2359824D01*
X2885197Y2361729D01*
X2886149Y2364585D01*
X2887101Y2368394D01*
X2888054Y2370298D01*
X2889958Y2371251D01*
X2891862D01*
X2893767Y2370298D01*
X2894719Y2367442D01*
Y2363633D01*
Y2382391D02*
X2893767Y2379534D01*
X2890910Y2377630D01*
X2886149Y2376678D01*
X2883293D01*
X2878532Y2377630D01*
X2875675Y2379534D01*
X2874723Y2382391D01*
Y2384295D01*
X2875675Y2387152D01*
X2878532Y2389056D01*
X2883293Y2390009D01*
X2886149D01*
X2890910Y2389056D01*
X2893767Y2387152D01*
X2894719Y2384295D01*
Y2382391D01*
X2884245Y2410195D02*
Y2418764D01*
X2885197Y2421621D01*
X2886149Y2422573D01*
X2888054Y2423525D01*
X2890910D01*
X2892815Y2422573D01*
X2893767Y2421621D01*
X2894719Y2418764D01*
Y2410195D01*
X2874723D01*
X2885197Y2439427D02*
X2887101Y2437522D01*
X2888054Y2435618D01*
Y2432761D01*
X2887101Y2430857D01*
X2885197Y2428952D01*
X2882340Y2428000D01*
X2880436D01*
X2877580Y2428952D01*
X2875675Y2430857D01*
X2874723Y2432761D01*
Y2435618D01*
X2875675Y2437522D01*
X2877580Y2439427D01*
X2885197Y2454185D02*
X2887101Y2453233D01*
X2888054Y2450376D01*
Y2447520D01*
X2887101Y2444664D01*
X2885197Y2443711D01*
X2883293Y2444664D01*
X2882340Y2446568D01*
X2881389Y2451329D01*
X2880436Y2453233D01*
X2878532Y2454185D01*
X2877580D01*
X2875675Y2453233D01*
X2874723Y2450376D01*
Y2447520D01*
X2875675Y2444664D01*
X2877580Y2443711D01*
X2676172Y1597205D02*
Y1612445D01*
Y1597205D02*
X2620455Y1541488D01*
X2536218Y1599491D02*
X2490244D01*
X2549172Y1612445D02*
X2536218Y1599491D01*
X2490244D02*
X2485832Y1603903D01*
X2620455Y1541488D02*
X2452235D01*
X2278208Y1589131D02*
Y1623675D01*
Y1589131D02*
X2266216Y1577139D01*
X2477798Y1702615D02*
X2465352D01*
X2459256Y1694667D02*
X2447752Y1706171D01*
X2485672Y1670357D02*
Y1694741D01*
X2497850Y1689167D02*
Y1703645D01*
X2485672Y1694741D02*
X2477798Y1702615D01*
X2459256Y1672643D02*
Y1694667D01*
X2463828Y1717801D02*
Y1717974D01*
X2490498Y1710997D02*
X2470632D01*
X2497850Y1703645D02*
X2490498Y1710997D01*
X2470632D02*
X2463828Y1717801D01*
X2511232Y1716698D02*
X2505172Y1722758D01*
X2465352Y1702615D02*
X2434538Y1733429D01*
X2505172Y1722758D02*
Y1730735D01*
X2463828Y1717974D02*
X2440833Y1740969D01*
X2581372Y1729985D02*
Y1747769D01*
X2803172Y1612445D02*
Y1654609D01*
X2511232Y1679849D02*
Y1716698D01*
X2549172Y1688645D02*
X2533932Y1673405D01*
X2498372Y1612445D02*
Y1633527D01*
X2523772Y1612445D02*
Y1632257D01*
X2498372Y1688645D02*
X2497850Y1689167D01*
X2517676Y1673405D02*
X2511232Y1679849D01*
X2533932Y1673405D02*
X2517676D01*
X2673378Y1749351D02*
X2661353Y1761376D01*
X2594979D02*
X2581372Y1747769D01*
X2498372Y1633527D02*
X2459256Y1672643D01*
X2485832Y1620667D02*
X2479322Y1627177D01*
X2523772Y1632257D02*
X2485672Y1670357D01*
X2790980Y1639795D02*
X2790632Y1639447D01*
X2447752Y1706171D02*
X2428776D01*
X2419830Y1690867D02*
X2418108Y1689145D01*
X2419830Y1690867D02*
Y1697225D01*
X2428776Y1706171D02*
X2419830Y1697225D01*
X2337582Y1566471D02*
X2291108Y1612945D01*
X2418108D02*
X2416386Y1611223D01*
X2404900Y1596697D02*
X2374674Y1566471D01*
X2404900Y1596697D02*
Y1619557D01*
X2416167Y1577556D02*
Y1605516D01*
X2452235Y1541488D02*
X2416167Y1577556D01*
X2283996Y1629463D02*
X2278208Y1623675D01*
X2479322Y1627177D02*
X2412520D01*
X2485832Y1603903D02*
Y1620667D01*
X2265708Y1689145D02*
Y1721665D01*
X2291108Y1689145D02*
Y1722507D01*
X2283106Y1640893D02*
Y1662229D01*
X2416386Y1605735D02*
X2416167Y1605516D01*
X2412520Y1627177D02*
X2404900Y1619557D01*
X2374674Y1566471D02*
X2337582D01*
X2416386Y1605735D02*
Y1611223D01*
X2440833Y1740969D02*
X2285012D01*
X2265708Y1721665D01*
X2434538Y1733429D02*
X2302030D01*
X2291108Y1722507D01*
X2791342Y1668156D02*
X2790980Y1667795D01*
X2803511Y1668156D02*
X2791342D01*
X2825536Y1676973D02*
X2803172Y1654609D01*
X2825536Y1743210D02*
X2813481Y1755265D01*
X2817996Y1740086D02*
X2810357Y1747725D01*
X2817996Y1719284D02*
X2817996Y1719283D01*
Y1682641D02*
Y1719283D01*
Y1682641D02*
X2803511Y1668156D01*
X2817996Y1719284D02*
Y1740086D01*
X2825536Y1676973D02*
Y1743210D01*
X2709954Y1667795D02*
X2708423Y1669326D01*
X2701638D01*
X2696746Y1749351D02*
X2673378D01*
X2702660Y1755265D02*
X2696746Y1749351D01*
X2707566Y1747725D02*
X2689861Y1730020D01*
X2810357Y1747725D02*
X2707566D01*
X2684232Y1686732D02*
X2678086D01*
X2701638Y1669326D02*
X2684232Y1686732D01*
X2678086D02*
X2676172Y1688645D01*
X2813481Y1755265D02*
X2702660D01*
X2661353Y1761376D02*
X2594979D01*
X2676172Y1847205D02*
Y1862445D01*
Y1847205D02*
X2620455Y1791488D01*
X2536218Y1849491D02*
X2490244D01*
X2549172Y1862445D02*
X2536218Y1849491D01*
X2490244D02*
X2485832Y1853903D01*
X2620455Y1791488D02*
X2452235D01*
X2278208Y1839131D02*
Y1873675D01*
Y1839131D02*
X2266216Y1827139D01*
X2477798Y1952615D02*
X2465352D01*
X2459256Y1944667D02*
X2447752Y1956171D01*
X2485672Y1920357D02*
Y1944741D01*
X2497850Y1939167D02*
Y1953645D01*
X2485672Y1944741D02*
X2477798Y1952615D01*
X2459256Y1922643D02*
Y1944667D01*
X2463828Y1967801D02*
Y1967974D01*
X2490498Y1960997D02*
X2470632D01*
X2497850Y1953645D02*
X2490498Y1960997D01*
X2470632D02*
X2463828Y1967801D01*
X2511232Y1966698D02*
X2505172Y1972758D01*
X2465352Y1952615D02*
X2434538Y1983429D01*
X2505172Y1972758D02*
Y1980735D01*
X2463828Y1967974D02*
X2440833Y1990969D01*
X2581372Y1979985D02*
Y1997769D01*
X2803172Y1862445D02*
Y1904609D01*
X2511232Y1929849D02*
Y1966698D01*
X2549172Y1938645D02*
X2533932Y1923405D01*
X2498372Y1862445D02*
Y1883527D01*
X2523772Y1862445D02*
Y1882257D01*
X2498372Y1938645D02*
X2497850Y1939167D01*
X2517676Y1923405D02*
X2511232Y1929849D01*
X2533932Y1923405D02*
X2517676D01*
X2673378Y1999351D02*
X2661353Y2011376D01*
X2594979D02*
X2581372Y1997769D01*
X2498372Y1883527D02*
X2459256Y1922643D01*
X2485832Y1870667D02*
X2479322Y1877177D01*
X2523772Y1882257D02*
X2485672Y1920357D01*
X2790980Y1889795D02*
X2790632Y1889447D01*
X2447752Y1956171D02*
X2428776D01*
X2419830Y1940867D02*
X2418108Y1939145D01*
X2419830Y1940867D02*
Y1947225D01*
X2428776Y1956171D02*
X2419830Y1947225D01*
X2337582Y1816471D02*
X2291108Y1862945D01*
X2418108D02*
X2416386Y1861223D01*
X2404900Y1846697D02*
X2374674Y1816471D01*
X2404900Y1846697D02*
Y1869557D01*
X2416167Y1827556D02*
Y1855516D01*
X2452235Y1791488D02*
X2416167Y1827556D01*
X2283996Y1879463D02*
X2278208Y1873675D01*
X2479322Y1877177D02*
X2412520D01*
X2485832Y1853903D02*
Y1870667D01*
X2265708Y1939145D02*
Y1971665D01*
X2291108Y1939145D02*
Y1972507D01*
X2283106Y1890893D02*
Y1912229D01*
X2416386Y1855735D02*
X2416167Y1855516D01*
X2412520Y1877177D02*
X2404900Y1869557D01*
X2374674Y1816471D02*
X2337582D01*
X2416386Y1855735D02*
Y1861223D01*
X2440833Y1990969D02*
X2285012D01*
X2265708Y1971665D01*
X2434538Y1983429D02*
X2302030D01*
X2291108Y1972507D01*
X2791342Y1918156D02*
X2790980Y1917795D01*
X2803511Y1918156D02*
X2791342D01*
X2825536Y1926973D02*
X2803172Y1904609D01*
X2825536Y1993210D02*
X2813481Y2005265D01*
X2817996Y1990086D02*
X2810357Y1997725D01*
X2817996Y1969284D02*
X2817996Y1969283D01*
Y1932641D02*
Y1969283D01*
Y1932641D02*
X2803511Y1918156D01*
X2817996Y1969284D02*
Y1990086D01*
X2825536Y1926973D02*
Y1993210D01*
X2709954Y1917795D02*
X2708423Y1919326D01*
X2701638D01*
X2696746Y1999351D02*
X2673378D01*
X2702660Y2005265D02*
X2696746Y1999351D01*
X2707566Y1997725D02*
X2689861Y1980020D01*
X2810357Y1997725D02*
X2707566D01*
X2684232Y1936732D02*
X2678086D01*
X2701638Y1919326D02*
X2684232Y1936732D01*
X2678086D02*
X2676172Y1938645D01*
X2813481Y2005265D02*
X2702660D01*
X2661353Y2011376D02*
X2594979D01*
X2676172Y2097205D02*
Y2112445D01*
Y2097205D02*
X2620455Y2041488D01*
X2536218Y2099491D02*
X2490244D01*
X2549172Y2112445D02*
X2536218Y2099491D01*
X2490244D02*
X2485832Y2103903D01*
X2620455Y2041488D02*
X2452235D01*
X2278208Y2089131D02*
Y2123675D01*
Y2089131D02*
X2266216Y2077139D01*
X2477798Y2202615D02*
X2465352D01*
X2459256Y2194667D02*
X2447752Y2206171D01*
X2485672Y2170357D02*
Y2194741D01*
X2497850Y2189167D02*
Y2203645D01*
X2485672Y2194741D02*
X2477798Y2202615D01*
X2459256Y2172643D02*
Y2194667D01*
X2463828Y2217801D02*
Y2217974D01*
X2490498Y2210997D02*
X2470632D01*
X2497850Y2203645D02*
X2490498Y2210997D01*
X2470632D02*
X2463828Y2217801D01*
X2511232Y2216698D02*
X2505172Y2222758D01*
X2465352Y2202615D02*
X2434538Y2233429D01*
X2505172Y2222758D02*
Y2230735D01*
X2463828Y2217974D02*
X2440833Y2240969D01*
X2581372Y2229985D02*
Y2247769D01*
X2803172Y2112445D02*
Y2154609D01*
X2511232Y2179849D02*
Y2216698D01*
X2549172Y2188645D02*
X2533932Y2173405D01*
X2498372Y2112445D02*
Y2133527D01*
X2523772Y2112445D02*
Y2132257D01*
X2498372Y2188645D02*
X2497850Y2189167D01*
X2517676Y2173405D02*
X2511232Y2179849D01*
X2533932Y2173405D02*
X2517676D01*
X2673378Y2249351D02*
X2661353Y2261376D01*
X2594979D02*
X2581372Y2247769D01*
X2498372Y2133527D02*
X2459256Y2172643D01*
X2485832Y2120667D02*
X2479322Y2127177D01*
X2523772Y2132257D02*
X2485672Y2170357D01*
X2790980Y2139795D02*
X2790632Y2139447D01*
X2447752Y2206171D02*
X2428776D01*
X2419830Y2190867D02*
X2418108Y2189145D01*
X2419830Y2190867D02*
Y2197225D01*
X2428776Y2206171D02*
X2419830Y2197225D01*
X2337582Y2066471D02*
X2291108Y2112945D01*
X2418108D02*
X2416386Y2111223D01*
X2404900Y2096697D02*
X2374674Y2066471D01*
X2404900Y2096697D02*
Y2119557D01*
X2416167Y2077556D02*
Y2105516D01*
X2452235Y2041488D02*
X2416167Y2077556D01*
X2283996Y2129463D02*
X2278208Y2123675D01*
X2479322Y2127177D02*
X2412520D01*
X2485832Y2103903D02*
Y2120667D01*
X2265708Y2189145D02*
Y2221665D01*
X2291108Y2189145D02*
Y2222507D01*
X2283106Y2140893D02*
Y2162229D01*
X2416386Y2105735D02*
X2416167Y2105516D01*
X2412520Y2127177D02*
X2404900Y2119557D01*
X2374674Y2066471D02*
X2337582D01*
X2416386Y2105735D02*
Y2111223D01*
X2440833Y2240969D02*
X2285012D01*
X2265708Y2221665D01*
X2434538Y2233429D02*
X2302030D01*
X2291108Y2222507D01*
X2791342Y2168156D02*
X2790980Y2167795D01*
X2803511Y2168156D02*
X2791342D01*
X2825536Y2176973D02*
X2803172Y2154609D01*
X2825536Y2243210D02*
X2813481Y2255265D01*
X2817996Y2240086D02*
X2810357Y2247725D01*
X2817996Y2219284D02*
X2817996Y2219283D01*
Y2182641D02*
Y2219283D01*
Y2182641D02*
X2803511Y2168156D01*
X2817996Y2219284D02*
Y2240086D01*
X2825536Y2176973D02*
Y2243210D01*
X2709954Y2167795D02*
X2708423Y2169326D01*
X2701638D01*
X2696746Y2249351D02*
X2673378D01*
X2702660Y2255265D02*
X2696746Y2249351D01*
X2707566Y2247725D02*
X2689861Y2230020D01*
X2810357Y2247725D02*
X2707566D01*
X2684232Y2186732D02*
X2678086D01*
X2701638Y2169326D02*
X2684232Y2186732D01*
X2678086D02*
X2676172Y2188645D01*
X2813481Y2255265D02*
X2702660D01*
X2661353Y2261376D02*
X2594979D01*
X2676172Y2347205D02*
Y2362445D01*
Y2347205D02*
X2620455Y2291488D01*
X2536218Y2349491D02*
X2490244D01*
X2549172Y2362445D02*
X2536218Y2349491D01*
X2490244D02*
X2485832Y2353903D01*
X2620455Y2291488D02*
X2452235D01*
X2278208Y2339131D02*
Y2373675D01*
Y2339131D02*
X2266216Y2327139D01*
X2477798Y2452615D02*
X2465352D01*
X2459256Y2444667D02*
X2447752Y2456171D01*
X2485672Y2420357D02*
Y2444741D01*
X2497850Y2439167D02*
Y2453645D01*
X2485672Y2444741D02*
X2477798Y2452615D01*
X2459256Y2422643D02*
Y2444667D01*
X2463828Y2467801D02*
Y2467974D01*
X2490498Y2460997D02*
X2470632D01*
X2497850Y2453645D02*
X2490498Y2460997D01*
X2470632D02*
X2463828Y2467801D01*
X2511232Y2466698D02*
X2505172Y2472758D01*
X2465352Y2452615D02*
X2434538Y2483429D01*
X2505172Y2472758D02*
Y2480735D01*
X2463828Y2467974D02*
X2440833Y2490969D01*
X2581372Y2479985D02*
Y2497769D01*
X2803172Y2362445D02*
Y2404609D01*
X2511232Y2429849D02*
Y2466698D01*
X2549172Y2438645D02*
X2533932Y2423405D01*
X2498372Y2362445D02*
Y2383527D01*
X2523772Y2362445D02*
Y2382257D01*
X2498372Y2438645D02*
X2497850Y2439167D01*
X2517676Y2423405D02*
X2511232Y2429849D01*
X2533932Y2423405D02*
X2517676D01*
X2673378Y2499351D02*
X2661353Y2511376D01*
X2594979D02*
X2581372Y2497769D01*
X2498372Y2383527D02*
X2459256Y2422643D01*
X2485832Y2370667D02*
X2479322Y2377177D01*
X2523772Y2382257D02*
X2485672Y2420357D01*
X2790980Y2389795D02*
X2790632Y2389447D01*
X2447752Y2456171D02*
X2428776D01*
X2419830Y2440867D02*
X2418108Y2439145D01*
X2419830Y2440867D02*
Y2447225D01*
X2428776Y2456171D02*
X2419830Y2447225D01*
X2337582Y2316471D02*
X2291108Y2362945D01*
X2418108D02*
X2416386Y2361223D01*
X2404900Y2346697D02*
X2374674Y2316471D01*
X2404900Y2346697D02*
Y2369557D01*
X2416167Y2327556D02*
Y2355516D01*
X2452235Y2291488D02*
X2416167Y2327556D01*
X2283996Y2379463D02*
X2278208Y2373675D01*
X2479322Y2377177D02*
X2412520D01*
X2485832Y2353903D02*
Y2370667D01*
X2265708Y2439145D02*
Y2471665D01*
X2291108Y2439145D02*
Y2472507D01*
X2283106Y2390893D02*
Y2412229D01*
X2416386Y2355735D02*
X2416167Y2355516D01*
X2412520Y2377177D02*
X2404900Y2369557D01*
X2374674Y2316471D02*
X2337582D01*
X2416386Y2355735D02*
Y2361223D01*
X2440833Y2490969D02*
X2285012D01*
X2265708Y2471665D01*
X2434538Y2483429D02*
X2302030D01*
X2291108Y2472507D01*
X2791342Y2418156D02*
X2790980Y2417795D01*
X2803511Y2418156D02*
X2791342D01*
X2825536Y2426973D02*
X2803172Y2404609D01*
X2825536Y2493210D02*
X2813481Y2505265D01*
X2817996Y2490086D02*
X2810357Y2497725D01*
X2817996Y2469284D02*
X2817996Y2469283D01*
Y2432641D02*
Y2469283D01*
Y2432641D02*
X2803511Y2418156D01*
X2817996Y2469284D02*
Y2490086D01*
X2825536Y2426973D02*
Y2493210D01*
X2709954Y2417795D02*
X2708423Y2419326D01*
X2701638D01*
X2696746Y2499351D02*
X2673378D01*
X2702660Y2505265D02*
X2696746Y2499351D01*
X2707566Y2497725D02*
X2689861Y2480020D01*
X2810357Y2497725D02*
X2707566D01*
X2684232Y2436732D02*
X2678086D01*
X2701638Y2419326D02*
X2684232Y2436732D01*
X2678086D02*
X2676172Y2438645D01*
X2813481Y2505265D02*
X2702660D01*
X2661353Y2511376D02*
X2594979D01*
D11*
X2071906Y1678231D02*
D03*
Y1928231D02*
D03*
Y2178231D02*
D03*
Y2428231D02*
D03*
D12*
Y1629231D02*
D03*
Y1879231D02*
D03*
Y2129231D02*
D03*
Y2379231D02*
D03*
D13*
X2270662Y1640893D02*
D03*
X2283106D02*
D03*
X2550824Y1655117D02*
D03*
X2563268D02*
D03*
X2550824Y1636575D02*
D03*
X2563268D02*
D03*
X2191316Y1724713D02*
D03*
X2203760D02*
D03*
X2270662Y1662229D02*
D03*
X2283106D02*
D03*
X2270662Y1890893D02*
D03*
X2283106D02*
D03*
X2550824Y1905117D02*
D03*
X2563268D02*
D03*
X2550824Y1886575D02*
D03*
X2563268D02*
D03*
X2191316Y1974713D02*
D03*
X2203760D02*
D03*
X2270662Y1912229D02*
D03*
X2283106D02*
D03*
X2270662Y2140893D02*
D03*
X2283106D02*
D03*
X2550824Y2155117D02*
D03*
X2563268D02*
D03*
X2550824Y2136575D02*
D03*
X2563268D02*
D03*
X2191316Y2224713D02*
D03*
X2203760D02*
D03*
X2270662Y2162229D02*
D03*
X2283106D02*
D03*
X2270662Y2390893D02*
D03*
X2283106D02*
D03*
X2550824Y2405117D02*
D03*
X2563268D02*
D03*
X2550824Y2386575D02*
D03*
X2563268D02*
D03*
X2191316Y2474713D02*
D03*
X2203760D02*
D03*
X2270662Y2412229D02*
D03*
X2283106D02*
D03*
D14*
X2237260Y1634196D02*
D03*
Y1671026D02*
D03*
X2237006Y1652738D02*
D03*
X2237260Y1884196D02*
D03*
Y1921026D02*
D03*
X2237006Y1902738D02*
D03*
X2237260Y2134196D02*
D03*
Y2171026D02*
D03*
X2237006Y2152738D02*
D03*
X2237260Y2384196D02*
D03*
Y2421026D02*
D03*
X2237006Y2402738D02*
D03*
D15*
X2599526Y1586537D02*
D03*
X2587526D02*
D03*
X2575526D02*
D03*
X2599526Y1836537D02*
D03*
X2587526D02*
D03*
X2575526D02*
D03*
X2599526Y2086537D02*
D03*
X2587526D02*
D03*
X2575526D02*
D03*
X2599526Y2336537D02*
D03*
X2587526D02*
D03*
X2575526D02*
D03*
D16*
X2521613Y1561264D02*
X2521232Y1560883D01*
Y1586283D02*
X2483386D01*
X2473929Y1595740D01*
X2587452Y1570101D02*
Y1577441D01*
X2575049Y1591537D02*
Y1611968D01*
X2599749Y1591537D02*
Y1612222D01*
X2599972Y1612445D02*
X2599749Y1612222D01*
X2575049Y1611968D02*
X2574572Y1612445D01*
X2625372Y1567998D02*
Y1612445D01*
X2754256Y1572059D02*
Y1575509D01*
X2727929Y1601836D01*
X2728856Y1572059D02*
X2726896Y1574019D01*
X2779656Y1572059D02*
Y1577495D01*
X2726896Y1579019D02*
X2702529Y1603386D01*
X2799232Y1580059D02*
X2778729Y1600562D01*
X2802056Y1580059D02*
X2799232D01*
X2726896Y1574019D02*
Y1579019D01*
X2779656Y1577495D02*
X2753329Y1603822D01*
X2473929Y1595740D02*
Y1611488D01*
X2472972Y1612445D01*
X2702529Y1603386D02*
Y1611488D01*
X2778729Y1600562D02*
Y1611488D01*
X2702529D02*
X2701572Y1612445D01*
X2727929Y1601836D02*
Y1611488D01*
X2753329D02*
X2752372Y1612445D01*
X2778729Y1611488D02*
X2777772Y1612445D01*
X2727929Y1611488D02*
X2726972Y1612445D01*
X2753329Y1603822D02*
Y1611488D01*
X2620094Y1561645D02*
X2595908D01*
X2620094D02*
Y1562719D01*
X2556594Y1561645D02*
X2556213Y1561264D01*
X2521613D01*
X2595908Y1561645D02*
X2587452Y1570101D01*
X2625372Y1567998D02*
X2620094Y1562719D01*
X2208065Y1626923D02*
X2202208D01*
X2237260Y1671026D02*
X2199855D01*
X2197524Y1673357D01*
X2237260Y1634196D02*
X2215338D01*
X2208065Y1626923D01*
X2266216Y1577139D02*
X2259104Y1570027D01*
X2256979Y1652738D02*
X2237006D01*
X2259104Y1570027D02*
X2115848D01*
X2104672Y1581203D01*
Y1629231D01*
X2188746Y1724713D02*
X2136422D01*
X2106812D02*
X2098822Y1716723D01*
X2136422Y1724713D02*
X2106812D01*
X2622451Y1640766D02*
X2622324Y1640639D01*
X2684554Y1639795D02*
X2669879D01*
X2479772Y1734985D02*
X2461779Y1752978D01*
X2479772Y1729985D02*
Y1734985D01*
X2555972Y1707245D02*
Y1730735D01*
X2583716Y1666907D02*
X2557145D01*
X2650772Y1612445D02*
X2622451Y1640766D01*
X2669879Y1639795D02*
X2649474Y1660199D01*
X2530572Y1696798D02*
X2523772Y1689998D01*
X2530572Y1696798D02*
Y1730735D01*
X2523772Y1688645D02*
Y1689998D01*
X2622324Y1640639D02*
X2583716D01*
X2550824Y1655117D02*
Y1660586D01*
Y1636575D02*
Y1655117D01*
X2557145Y1666907D02*
X2550824Y1660586D01*
X2610386Y1727480D02*
Y1746811D01*
Y1708149D02*
Y1727480D01*
X2583716Y1640639D02*
Y1660959D01*
X2709380Y1642543D02*
X2684554Y1667369D01*
X2625372Y1688645D02*
X2610386D01*
X2765580Y1667795D02*
X2737580Y1639795D01*
X2684554Y1667369D02*
Y1667795D01*
X2683980Y1668369D02*
X2671048D01*
X2709380Y1640369D02*
Y1642543D01*
X2737580Y1639795D02*
X2709954D01*
X2790980D02*
Y1639940D01*
X2766154Y1664765D01*
X2709954Y1639795D02*
X2709380Y1640369D01*
X2610386Y1690171D02*
X2609816Y1689602D01*
X2600929D01*
X2584476Y1666907D02*
Y1672133D01*
Y1661718D02*
Y1666907D01*
X2600929Y1689602D02*
X2599972Y1688645D01*
X2584476Y1661718D02*
X2583716Y1660959D01*
X2610386Y1690171D02*
Y1708149D01*
X2600988Y1688645D02*
X2584476Y1672133D01*
X2599972Y1688645D02*
X2599016Y1687688D01*
X2574572Y1688645D02*
X2555972Y1707245D01*
X2610386Y1688645D02*
X2600988D01*
X2317273Y1609734D02*
Y1612180D01*
X2316508Y1612945D01*
X2346058Y1580949D02*
X2317273Y1609734D01*
X2391943Y1606834D02*
Y1612180D01*
X2354608Y1612945D02*
X2341908D01*
X2367308D02*
X2354608D01*
X2391943Y1606834D02*
X2366058Y1580949D01*
X2392708Y1612945D02*
X2391943Y1612180D01*
X2262914Y1658673D02*
X2256979Y1652738D01*
X2354608Y1612945D02*
Y1651561D01*
X2392708Y1689145D02*
X2367558Y1714295D01*
X2367308Y1689145D02*
X2354608D01*
X2317273Y1689910D02*
X2316508Y1689145D01*
X2354608D02*
X2341908D01*
X2263422Y1659181D02*
X2262914Y1658673D01*
X2346058Y1721336D02*
X2317273Y1692551D01*
Y1689910D02*
Y1692551D01*
X2367558Y1714295D02*
Y1719836D01*
X2354608Y1651561D02*
Y1689145D01*
X2367558Y1719836D02*
X2366058Y1721336D01*
X2461779Y1752978D02*
X2235553D01*
X2208304Y1725729D01*
X2766154Y1667221D02*
X2765580Y1667795D01*
X2766154Y1664765D02*
Y1667221D01*
X2804064Y1689537D02*
Y1728793D01*
Y1689537D02*
X2803172Y1688645D01*
X2804956Y1729685D02*
X2804064Y1728793D01*
X2726972Y1688645D02*
Y1689998D01*
X2728756Y1691782D02*
Y1729685D01*
Y1691782D02*
X2726972Y1689998D01*
X2701572Y1688645D02*
Y1730020D01*
X2700616D02*
X2689861D01*
X2673886D01*
X2649474Y1660199D02*
X2647976D01*
X2647216Y1660959D01*
X2676172Y1688645D02*
X2675215Y1689602D01*
Y1708793D01*
X2671048Y1668369D02*
X2650772Y1688645D01*
X2684554Y1667795D02*
X2683980Y1668369D01*
X2777772Y1688645D02*
Y1689998D01*
X2754156Y1691782D02*
X2752372Y1689998D01*
X2779556Y1691782D02*
X2777772Y1689998D01*
X2752372Y1688645D02*
Y1689998D01*
X2754156Y1691782D02*
Y1729685D01*
X2779556Y1691782D02*
Y1729685D01*
X2521613Y1811264D02*
X2521232Y1810883D01*
Y1836283D02*
X2483386D01*
X2473929Y1845740D01*
X2587452Y1820101D02*
Y1827441D01*
X2575049Y1841537D02*
Y1861968D01*
X2599749Y1841537D02*
Y1862222D01*
X2599972Y1862445D02*
X2599749Y1862222D01*
X2575049Y1861968D02*
X2574572Y1862445D01*
X2625372Y1817998D02*
Y1862445D01*
X2754256Y1822059D02*
Y1825509D01*
X2727929Y1851836D01*
X2728856Y1822059D02*
X2726896Y1824019D01*
X2779656Y1822059D02*
Y1827495D01*
X2726896Y1829019D02*
X2702529Y1853386D01*
X2799232Y1830059D02*
X2778729Y1850562D01*
X2802056Y1830059D02*
X2799232D01*
X2726896Y1824019D02*
Y1829019D01*
X2779656Y1827495D02*
X2753329Y1853822D01*
X2473929Y1845740D02*
Y1861488D01*
X2472972Y1862445D01*
X2702529Y1853386D02*
Y1861488D01*
X2778729Y1850562D02*
Y1861488D01*
X2702529D02*
X2701572Y1862445D01*
X2727929Y1851836D02*
Y1861488D01*
X2753329D02*
X2752372Y1862445D01*
X2778729Y1861488D02*
X2777772Y1862445D01*
X2727929Y1861488D02*
X2726972Y1862445D01*
X2753329Y1853822D02*
Y1861488D01*
X2620094Y1811645D02*
X2595908D01*
X2620094D02*
Y1812719D01*
X2556594Y1811645D02*
X2556213Y1811264D01*
X2521613D01*
X2595908Y1811645D02*
X2587452Y1820101D01*
X2625372Y1817998D02*
X2620094Y1812719D01*
X2208065Y1876923D02*
X2202208D01*
X2237260Y1921026D02*
X2199855D01*
X2197524Y1923357D01*
X2237260Y1884196D02*
X2215338D01*
X2208065Y1876923D01*
X2266216Y1827139D02*
X2259104Y1820027D01*
X2256979Y1902738D02*
X2237006D01*
X2259104Y1820027D02*
X2115848D01*
X2104672Y1831203D01*
Y1879231D01*
X2188746Y1974713D02*
X2136422D01*
X2106812D02*
X2098822Y1966723D01*
X2136422Y1974713D02*
X2106812D01*
X2622451Y1890766D02*
X2622324Y1890639D01*
X2684554Y1889795D02*
X2669879D01*
X2479772Y1984985D02*
X2461779Y2002978D01*
X2479772Y1979985D02*
Y1984985D01*
X2555972Y1957245D02*
Y1980735D01*
X2583716Y1916907D02*
X2557145D01*
X2650772Y1862445D02*
X2622451Y1890766D01*
X2669879Y1889795D02*
X2649474Y1910199D01*
X2530572Y1946798D02*
X2523772Y1939998D01*
X2530572Y1946798D02*
Y1980735D01*
X2523772Y1938645D02*
Y1939998D01*
X2622324Y1890639D02*
X2583716D01*
X2550824Y1905117D02*
Y1910586D01*
Y1886575D02*
Y1905117D01*
X2557145Y1916907D02*
X2550824Y1910586D01*
X2610386Y1977480D02*
Y1996811D01*
Y1958149D02*
Y1977480D01*
X2583716Y1890639D02*
Y1910959D01*
X2709380Y1892543D02*
X2684554Y1917369D01*
X2625372Y1938645D02*
X2610386D01*
X2765580Y1917795D02*
X2737580Y1889795D01*
X2684554Y1917369D02*
Y1917795D01*
X2683980Y1918369D02*
X2671048D01*
X2709380Y1890369D02*
Y1892543D01*
X2737580Y1889795D02*
X2709954D01*
X2790980D02*
Y1889940D01*
X2766154Y1914765D01*
X2709954Y1889795D02*
X2709380Y1890369D01*
X2610386Y1940171D02*
X2609816Y1939602D01*
X2600929D01*
X2584476Y1916907D02*
Y1922133D01*
Y1911718D02*
Y1916907D01*
X2600929Y1939602D02*
X2599972Y1938645D01*
X2584476Y1911718D02*
X2583716Y1910959D01*
X2610386Y1940171D02*
Y1958149D01*
X2600988Y1938645D02*
X2584476Y1922133D01*
X2599972Y1938645D02*
X2599016Y1937688D01*
X2574572Y1938645D02*
X2555972Y1957245D01*
X2610386Y1938645D02*
X2600988D01*
X2317273Y1859734D02*
Y1862180D01*
X2316508Y1862945D01*
X2346058Y1830949D02*
X2317273Y1859734D01*
X2391943Y1856834D02*
Y1862180D01*
X2354608Y1862945D02*
X2341908D01*
X2367308D02*
X2354608D01*
X2391943Y1856834D02*
X2366058Y1830949D01*
X2392708Y1862945D02*
X2391943Y1862180D01*
X2262914Y1908673D02*
X2256979Y1902738D01*
X2354608Y1862945D02*
Y1901561D01*
X2392708Y1939145D02*
X2367558Y1964295D01*
X2367308Y1939145D02*
X2354608D01*
X2317273Y1939910D02*
X2316508Y1939145D01*
X2354608D02*
X2341908D01*
X2263422Y1909181D02*
X2262914Y1908673D01*
X2346058Y1971336D02*
X2317273Y1942551D01*
Y1939910D02*
Y1942551D01*
X2367558Y1964295D02*
Y1969836D01*
X2354608Y1901561D02*
Y1939145D01*
X2367558Y1969836D02*
X2366058Y1971336D01*
X2461779Y2002978D02*
X2235553D01*
X2208304Y1975729D01*
X2766154Y1917221D02*
X2765580Y1917795D01*
X2766154Y1914765D02*
Y1917221D01*
X2804064Y1939537D02*
Y1978793D01*
Y1939537D02*
X2803172Y1938645D01*
X2804956Y1979685D02*
X2804064Y1978793D01*
X2726972Y1938645D02*
Y1939998D01*
X2728756Y1941782D02*
Y1979685D01*
Y1941782D02*
X2726972Y1939998D01*
X2701572Y1938645D02*
Y1980020D01*
X2700616D02*
X2689861D01*
X2673886D01*
X2649474Y1910199D02*
X2647976D01*
X2647216Y1910959D01*
X2676172Y1938645D02*
X2675215Y1939602D01*
Y1958793D01*
X2671048Y1918369D02*
X2650772Y1938645D01*
X2684554Y1917795D02*
X2683980Y1918369D01*
X2777772Y1938645D02*
Y1939998D01*
X2754156Y1941782D02*
X2752372Y1939998D01*
X2779556Y1941782D02*
X2777772Y1939998D01*
X2752372Y1938645D02*
Y1939998D01*
X2754156Y1941782D02*
Y1979685D01*
X2779556Y1941782D02*
Y1979685D01*
X2521613Y2061264D02*
X2521232Y2060883D01*
Y2086283D02*
X2483386D01*
X2473929Y2095740D01*
X2587452Y2070101D02*
Y2077441D01*
X2575049Y2091537D02*
Y2111968D01*
X2599749Y2091537D02*
Y2112222D01*
X2599972Y2112445D02*
X2599749Y2112222D01*
X2575049Y2111968D02*
X2574572Y2112445D01*
X2625372Y2067998D02*
Y2112445D01*
X2754256Y2072059D02*
Y2075509D01*
X2727929Y2101836D01*
X2728856Y2072059D02*
X2726896Y2074019D01*
X2779656Y2072059D02*
Y2077495D01*
X2726896Y2079019D02*
X2702529Y2103386D01*
X2799232Y2080059D02*
X2778729Y2100562D01*
X2802056Y2080059D02*
X2799232D01*
X2726896Y2074019D02*
Y2079019D01*
X2779656Y2077495D02*
X2753329Y2103822D01*
X2473929Y2095740D02*
Y2111488D01*
X2472972Y2112445D01*
X2702529Y2103386D02*
Y2111488D01*
X2778729Y2100562D02*
Y2111488D01*
X2702529D02*
X2701572Y2112445D01*
X2727929Y2101836D02*
Y2111488D01*
X2753329D02*
X2752372Y2112445D01*
X2778729Y2111488D02*
X2777772Y2112445D01*
X2727929Y2111488D02*
X2726972Y2112445D01*
X2753329Y2103822D02*
Y2111488D01*
X2620094Y2061645D02*
X2595908D01*
X2620094D02*
Y2062719D01*
X2556594Y2061645D02*
X2556213Y2061264D01*
X2521613D01*
X2595908Y2061645D02*
X2587452Y2070101D01*
X2625372Y2067998D02*
X2620094Y2062719D01*
X2208065Y2126923D02*
X2202208D01*
X2237260Y2171026D02*
X2199855D01*
X2197524Y2173357D01*
X2237260Y2134196D02*
X2215338D01*
X2208065Y2126923D01*
X2266216Y2077139D02*
X2259104Y2070027D01*
X2256979Y2152738D02*
X2237006D01*
X2259104Y2070027D02*
X2115848D01*
X2104672Y2081203D01*
Y2129231D01*
X2188746Y2224713D02*
X2136422D01*
X2106812D02*
X2098822Y2216723D01*
X2136422Y2224713D02*
X2106812D01*
X2622451Y2140766D02*
X2622324Y2140639D01*
X2684554Y2139795D02*
X2669879D01*
X2479772Y2234985D02*
X2461779Y2252978D01*
X2479772Y2229985D02*
Y2234985D01*
X2555972Y2207245D02*
Y2230735D01*
X2583716Y2166907D02*
X2557145D01*
X2650772Y2112445D02*
X2622451Y2140766D01*
X2669879Y2139795D02*
X2649474Y2160199D01*
X2530572Y2196798D02*
X2523772Y2189998D01*
X2530572Y2196798D02*
Y2230735D01*
X2523772Y2188645D02*
Y2189998D01*
X2622324Y2140639D02*
X2583716D01*
X2550824Y2155117D02*
Y2160586D01*
Y2136575D02*
Y2155117D01*
X2557145Y2166907D02*
X2550824Y2160586D01*
X2610386Y2227480D02*
Y2246811D01*
Y2208149D02*
Y2227480D01*
X2583716Y2140639D02*
Y2160959D01*
X2709380Y2142543D02*
X2684554Y2167369D01*
X2625372Y2188645D02*
X2610386D01*
X2765580Y2167795D02*
X2737580Y2139795D01*
X2684554Y2167369D02*
Y2167795D01*
X2683980Y2168369D02*
X2671048D01*
X2709380Y2140369D02*
Y2142543D01*
X2737580Y2139795D02*
X2709954D01*
X2790980D02*
Y2139940D01*
X2766154Y2164765D01*
X2709954Y2139795D02*
X2709380Y2140369D01*
X2610386Y2190171D02*
X2609816Y2189602D01*
X2600929D01*
X2584476Y2166907D02*
Y2172133D01*
Y2161718D02*
Y2166907D01*
X2600929Y2189602D02*
X2599972Y2188645D01*
X2584476Y2161718D02*
X2583716Y2160959D01*
X2610386Y2190171D02*
Y2208149D01*
X2600988Y2188645D02*
X2584476Y2172133D01*
X2599972Y2188645D02*
X2599016Y2187688D01*
X2574572Y2188645D02*
X2555972Y2207245D01*
X2610386Y2188645D02*
X2600988D01*
X2317273Y2109734D02*
Y2112180D01*
X2316508Y2112945D01*
X2346058Y2080949D02*
X2317273Y2109734D01*
X2391943Y2106834D02*
Y2112180D01*
X2354608Y2112945D02*
X2341908D01*
X2367308D02*
X2354608D01*
X2391943Y2106834D02*
X2366058Y2080949D01*
X2392708Y2112945D02*
X2391943Y2112180D01*
X2262914Y2158673D02*
X2256979Y2152738D01*
X2354608Y2112945D02*
Y2151561D01*
X2392708Y2189145D02*
X2367558Y2214295D01*
X2367308Y2189145D02*
X2354608D01*
X2317273Y2189910D02*
X2316508Y2189145D01*
X2354608D02*
X2341908D01*
X2263422Y2159181D02*
X2262914Y2158673D01*
X2346058Y2221336D02*
X2317273Y2192551D01*
Y2189910D02*
Y2192551D01*
X2367558Y2214295D02*
Y2219836D01*
X2354608Y2151561D02*
Y2189145D01*
X2367558Y2219836D02*
X2366058Y2221336D01*
X2461779Y2252978D02*
X2235553D01*
X2208304Y2225729D01*
X2766154Y2167221D02*
X2765580Y2167795D01*
X2766154Y2164765D02*
Y2167221D01*
X2804064Y2189537D02*
Y2228793D01*
Y2189537D02*
X2803172Y2188645D01*
X2804956Y2229685D02*
X2804064Y2228793D01*
X2726972Y2188645D02*
Y2189998D01*
X2728756Y2191782D02*
Y2229685D01*
Y2191782D02*
X2726972Y2189998D01*
X2701572Y2188645D02*
Y2230020D01*
X2700616D02*
X2689861D01*
X2673886D01*
X2649474Y2160199D02*
X2647976D01*
X2647216Y2160959D01*
X2676172Y2188645D02*
X2675215Y2189602D01*
Y2208793D01*
X2671048Y2168369D02*
X2650772Y2188645D01*
X2684554Y2167795D02*
X2683980Y2168369D01*
X2777772Y2188645D02*
Y2189998D01*
X2754156Y2191782D02*
X2752372Y2189998D01*
X2779556Y2191782D02*
X2777772Y2189998D01*
X2752372Y2188645D02*
Y2189998D01*
X2754156Y2191782D02*
Y2229685D01*
X2779556Y2191782D02*
Y2229685D01*
X2521613Y2311264D02*
X2521232Y2310883D01*
Y2336283D02*
X2483386D01*
X2473929Y2345740D01*
X2587452Y2320101D02*
Y2327441D01*
X2575049Y2341537D02*
Y2361968D01*
X2599749Y2341537D02*
Y2362222D01*
X2599972Y2362445D02*
X2599749Y2362222D01*
X2575049Y2361968D02*
X2574572Y2362445D01*
X2625372Y2317998D02*
Y2362445D01*
X2754256Y2322059D02*
Y2325509D01*
X2727929Y2351836D01*
X2728856Y2322059D02*
X2726896Y2324019D01*
X2779656Y2322059D02*
Y2327495D01*
X2726896Y2329019D02*
X2702529Y2353386D01*
X2799232Y2330059D02*
X2778729Y2350562D01*
X2802056Y2330059D02*
X2799232D01*
X2726896Y2324019D02*
Y2329019D01*
X2779656Y2327495D02*
X2753329Y2353822D01*
X2473929Y2345740D02*
Y2361488D01*
X2472972Y2362445D01*
X2702529Y2353386D02*
Y2361488D01*
X2778729Y2350562D02*
Y2361488D01*
X2702529D02*
X2701572Y2362445D01*
X2727929Y2351836D02*
Y2361488D01*
X2753329D02*
X2752372Y2362445D01*
X2778729Y2361488D02*
X2777772Y2362445D01*
X2727929Y2361488D02*
X2726972Y2362445D01*
X2753329Y2353822D02*
Y2361488D01*
X2620094Y2311645D02*
X2595908D01*
X2620094D02*
Y2312719D01*
X2556594Y2311645D02*
X2556213Y2311264D01*
X2521613D01*
X2595908Y2311645D02*
X2587452Y2320101D01*
X2625372Y2317998D02*
X2620094Y2312719D01*
X2208065Y2376923D02*
X2202208D01*
X2237260Y2421026D02*
X2199855D01*
X2197524Y2423357D01*
X2237260Y2384196D02*
X2215338D01*
X2208065Y2376923D01*
X2266216Y2327139D02*
X2259104Y2320027D01*
X2256979Y2402738D02*
X2237006D01*
X2259104Y2320027D02*
X2115848D01*
X2104672Y2331203D01*
Y2379231D01*
X2188746Y2474713D02*
X2136422D01*
X2106812D02*
X2098822Y2466723D01*
X2136422Y2474713D02*
X2106812D01*
X2622451Y2390766D02*
X2622324Y2390639D01*
X2684554Y2389795D02*
X2669879D01*
X2479772Y2484985D02*
X2461779Y2502978D01*
X2479772Y2479985D02*
Y2484985D01*
X2555972Y2457245D02*
Y2480735D01*
X2583716Y2416907D02*
X2557145D01*
X2650772Y2362445D02*
X2622451Y2390766D01*
X2669879Y2389795D02*
X2649474Y2410199D01*
X2530572Y2446798D02*
X2523772Y2439998D01*
X2530572Y2446798D02*
Y2480735D01*
X2523772Y2438645D02*
Y2439998D01*
X2622324Y2390639D02*
X2583716D01*
X2550824Y2405117D02*
Y2410586D01*
Y2386575D02*
Y2405117D01*
X2557145Y2416907D02*
X2550824Y2410586D01*
X2610386Y2477480D02*
Y2496811D01*
Y2458149D02*
Y2477480D01*
X2583716Y2390639D02*
Y2410959D01*
X2709380Y2392543D02*
X2684554Y2417369D01*
X2625372Y2438645D02*
X2610386D01*
X2765580Y2417795D02*
X2737580Y2389795D01*
X2684554Y2417369D02*
Y2417795D01*
X2683980Y2418369D02*
X2671048D01*
X2709380Y2390369D02*
Y2392543D01*
X2737580Y2389795D02*
X2709954D01*
X2790980D02*
Y2389940D01*
X2766154Y2414766D01*
X2709954Y2389795D02*
X2709380Y2390369D01*
X2610386Y2440171D02*
X2609816Y2439602D01*
X2600929D01*
X2584476Y2416907D02*
Y2422133D01*
Y2411718D02*
Y2416907D01*
X2600929Y2439602D02*
X2599972Y2438645D01*
X2584476Y2411718D02*
X2583716Y2410959D01*
X2610386Y2440171D02*
Y2458149D01*
X2600988Y2438645D02*
X2584476Y2422133D01*
X2599972Y2438645D02*
X2599016Y2437688D01*
X2574572Y2438645D02*
X2555972Y2457245D01*
X2610386Y2438645D02*
X2600988D01*
X2317273Y2359734D02*
Y2362180D01*
X2316508Y2362945D01*
X2346058Y2330949D02*
X2317273Y2359734D01*
X2391943Y2356834D02*
Y2362180D01*
X2354608Y2362945D02*
X2341908D01*
X2367308D02*
X2354608D01*
X2391943Y2356834D02*
X2366058Y2330949D01*
X2392708Y2362945D02*
X2391943Y2362180D01*
X2262914Y2408673D02*
X2256979Y2402738D01*
X2354608Y2362945D02*
Y2401561D01*
X2392708Y2439145D02*
X2367558Y2464295D01*
X2367308Y2439145D02*
X2354608D01*
X2317273Y2439910D02*
X2316508Y2439145D01*
X2354608D02*
X2341908D01*
X2263422Y2409181D02*
X2262914Y2408673D01*
X2346058Y2471336D02*
X2317273Y2442551D01*
Y2439910D02*
Y2442551D01*
X2367558Y2464295D02*
Y2469836D01*
X2354608Y2401561D02*
Y2439145D01*
X2367558Y2469836D02*
X2366058Y2471336D01*
X2461779Y2502978D02*
X2235553D01*
X2208304Y2475729D01*
X2766154Y2417221D02*
X2765580Y2417795D01*
X2766154Y2414766D02*
Y2417221D01*
X2804064Y2439537D02*
Y2478793D01*
Y2439537D02*
X2803172Y2438645D01*
X2804956Y2479685D02*
X2804064Y2478793D01*
X2726972Y2438645D02*
Y2439998D01*
X2728756Y2441782D02*
Y2479685D01*
Y2441782D02*
X2726972Y2439998D01*
X2701572Y2438645D02*
Y2480020D01*
X2700616D02*
X2689861D01*
X2673886D01*
X2649474Y2410199D02*
X2647976D01*
X2647216Y2410959D01*
X2676172Y2438645D02*
X2675215Y2439602D01*
Y2458793D01*
X2671048Y2418369D02*
X2650772Y2438645D01*
X2684554Y2417795D02*
X2683980Y2418369D01*
X2777772Y2438645D02*
Y2439998D01*
X2754156Y2441782D02*
X2752372Y2439998D01*
X2779556Y2441782D02*
X2777772Y2439998D01*
X2752372Y2438645D02*
Y2439998D01*
X2754156Y2441782D02*
Y2479685D01*
X2779556Y2441782D02*
Y2479685D01*
D17*
X2072988Y1678231D02*
X2071906D01*
X2136422Y1626363D02*
X2135940Y1625881D01*
X2132590Y1629231D01*
X2136422Y1626363D02*
Y1645719D01*
X2135940D02*
X2126021Y1635800D01*
X2103910Y1629231D02*
X2071906D01*
X2132590D02*
X2104672D01*
X2136422Y1713029D02*
X2108548D01*
X2136422Y1646201D02*
Y1678029D01*
X2105532Y1710013D02*
X2073750Y1678231D01*
X2072988Y1928231D02*
X2071906D01*
X2136422Y1876363D02*
X2135940Y1875881D01*
X2132590Y1879231D01*
X2136422Y1876363D02*
Y1895719D01*
X2135940D02*
X2126021Y1885800D01*
X2103910Y1879231D02*
X2071906D01*
X2132590D02*
X2104672D01*
X2136422Y1963029D02*
X2108548D01*
X2136422Y1896201D02*
Y1928029D01*
X2105532Y1960013D02*
X2073750Y1928231D01*
X2072988Y2178231D02*
X2071906D01*
X2136422Y2126363D02*
X2135940Y2125881D01*
X2132590Y2129231D01*
X2136422Y2126363D02*
Y2145719D01*
X2135940D02*
X2126021Y2135800D01*
X2103910Y2129231D02*
X2071906D01*
X2132590D02*
X2104672D01*
X2136422Y2213029D02*
X2108548D01*
X2136422Y2146201D02*
Y2178029D01*
X2105532Y2210013D02*
X2073750Y2178231D01*
X2072988Y2428231D02*
X2071906D01*
X2136422Y2376363D02*
X2135940Y2375881D01*
X2132590Y2379231D01*
X2136422Y2376363D02*
Y2395719D01*
X2135940D02*
X2126021Y2385800D01*
X2103910Y2379231D02*
X2071906D01*
X2132590D02*
X2104672D01*
X2136422Y2463029D02*
X2108548D01*
X2136422Y2396201D02*
Y2428029D01*
X2105532Y2460013D02*
X2073750Y2428231D01*
D18*
X2202208Y1677723D02*
X2200708D01*
X2263017Y1602425D02*
Y1610253D01*
X2202208Y1652323D02*
X2142544D01*
X2263017Y1602425D02*
X2251473Y1590881D01*
X2135940D01*
X2200708Y1677723D02*
X2165402Y1713029D01*
X2136422D01*
Y1646201D02*
X2135940Y1645719D01*
X2142544Y1652323D02*
X2136422Y1646201D01*
X2443508Y1673913D02*
Y1689145D01*
X2262914Y1640893D02*
Y1658673D01*
X2263422Y1627989D02*
Y1640893D01*
X2263168Y1612945D02*
Y1627989D01*
X2262914Y1658673D02*
Y1659181D01*
X2443508Y1673913D02*
X2423696Y1654101D01*
X2202208Y1927723D02*
X2200708D01*
X2263017Y1852425D02*
Y1860254D01*
X2202208Y1902323D02*
X2142544D01*
X2263017Y1852425D02*
X2251473Y1840881D01*
X2135940D01*
X2200708Y1927723D02*
X2165402Y1963029D01*
X2136422D01*
Y1896201D02*
X2135940Y1895719D01*
X2142544Y1902323D02*
X2136422Y1896201D01*
X2443508Y1923913D02*
Y1939145D01*
X2262914Y1890893D02*
Y1908673D01*
X2263422Y1877989D02*
Y1890893D01*
X2263168Y1862945D02*
Y1877989D01*
X2262914Y1908673D02*
Y1909181D01*
X2443508Y1923913D02*
X2423696Y1904101D01*
X2202208Y2177723D02*
X2200708D01*
X2263017Y2102425D02*
Y2110254D01*
X2202208Y2152323D02*
X2142544D01*
X2263017Y2102425D02*
X2251473Y2090881D01*
X2135940D01*
X2200708Y2177723D02*
X2165402Y2213029D01*
X2136422D01*
Y2146201D02*
X2135940Y2145719D01*
X2142544Y2152323D02*
X2136422Y2146201D01*
X2443508Y2173913D02*
Y2189145D01*
X2262914Y2140893D02*
Y2158673D01*
X2263422Y2127989D02*
Y2140893D01*
X2263168Y2112945D02*
Y2127989D01*
X2262914Y2158673D02*
Y2159181D01*
X2443508Y2173913D02*
X2423696Y2154101D01*
X2202208Y2427723D02*
X2200708D01*
X2263017Y2352425D02*
Y2360254D01*
X2202208Y2402323D02*
X2142544D01*
X2263017Y2352425D02*
X2251473Y2340881D01*
X2135940D01*
X2200708Y2427723D02*
X2165402Y2463029D01*
X2136422D01*
Y2396201D02*
X2135940Y2395719D01*
X2142544Y2402323D02*
X2136422Y2396201D01*
X2443508Y2423913D02*
Y2439145D01*
X2262914Y2390893D02*
Y2408673D01*
X2263422Y2377989D02*
Y2390893D01*
X2263168Y2362945D02*
Y2377989D01*
X2262914Y2408673D02*
Y2409181D01*
X2443508Y2423913D02*
X2423696Y2404101D01*
D19*
X2753040Y1627255D02*
X2660600D01*
X2647216Y1640639D01*
X2625372Y1612445D02*
X2611832Y1625985D01*
X2573608D02*
X2563268Y1636325D01*
Y1636575D02*
Y1655117D01*
Y1636325D02*
Y1636575D01*
X2611832Y1625985D02*
X2573608D01*
X2765580Y1639795D02*
X2753040Y1627255D01*
Y1877255D02*
X2660600D01*
X2647216Y1890639D01*
X2625372Y1862445D02*
X2611832Y1875985D01*
X2573608D02*
X2563268Y1886325D01*
Y1886575D02*
Y1905117D01*
Y1886325D02*
Y1886575D01*
X2611832Y1875985D02*
X2573608D01*
X2765580Y1889795D02*
X2753040Y1877255D01*
Y2127255D02*
X2660600D01*
X2647216Y2140639D01*
X2625372Y2112445D02*
X2611832Y2125985D01*
X2573608D02*
X2563268Y2136325D01*
Y2136575D02*
Y2155117D01*
Y2136325D02*
Y2136575D01*
X2611832Y2125985D02*
X2573608D01*
X2765580Y2139795D02*
X2753040Y2127255D01*
Y2377255D02*
X2660600D01*
X2647216Y2390639D01*
X2625372Y2362445D02*
X2611832Y2375985D01*
X2573608D02*
X2563268Y2386325D01*
Y2386575D02*
Y2405117D01*
Y2386325D02*
Y2386575D01*
X2611832Y2375985D02*
X2573608D01*
X2765580Y2389795D02*
X2753040Y2377255D01*
D20*
X2244325Y1692293D02*
X2241278Y1684295D01*
X2238231Y1692293D02*
X2241278Y1684295D01*
X2237203Y1692293D02*
Y1684295D01*
X2235527Y1692293D02*
Y1684295D01*
Y1692293D02*
X2230195Y1684295D01*
Y1692293D02*
Y1684295D01*
X2245049Y1616475D02*
Y1609619D01*
X2248477Y1613047D02*
X2241621D01*
X2234689Y1617617D02*
X2238498D01*
X2238879Y1614189D01*
X2238498Y1614570D01*
X2237355Y1614951D01*
X2236213D01*
X2235070Y1614570D01*
X2234308Y1613808D01*
X2233927Y1612666D01*
Y1611904D01*
X2234308Y1610762D01*
X2235070Y1610000D01*
X2236213Y1609619D01*
X2237355D01*
X2238498Y1610000D01*
X2238879Y1610381D01*
X2239260Y1611142D01*
X2232137Y1617617D02*
X2229090Y1609619D01*
X2226043Y1617617D02*
X2229090Y1609619D01*
X2258882Y1557552D02*
Y1550553D01*
X2254883D01*
X2253450Y1557552D02*
X2253117Y1557218D01*
X2252783Y1557552D01*
X2253117Y1557885D01*
X2253450Y1557552D01*
X2253117Y1555219D02*
Y1550553D01*
X2251550Y1555219D02*
Y1550553D01*
Y1553886D02*
X2250551Y1554886D01*
X2249884Y1555219D01*
X2248884D01*
X2248218Y1554886D01*
X2247885Y1553886D01*
Y1550553D01*
X2246051Y1553219D02*
X2242052D01*
Y1553886D01*
X2242386Y1554552D01*
X2242719Y1554886D01*
X2243385Y1555219D01*
X2244385D01*
X2245052Y1554886D01*
X2245718Y1554219D01*
X2246051Y1553219D01*
Y1552553D01*
X2245718Y1551553D01*
X2245052Y1550887D01*
X2244385Y1550553D01*
X2243385D01*
X2242719Y1550887D01*
X2242052Y1551553D01*
X2236553Y1555219D02*
Y1550553D01*
Y1554219D02*
X2237220Y1554886D01*
X2237887Y1555219D01*
X2238886D01*
X2239553Y1554886D01*
X2240219Y1554219D01*
X2240553Y1553219D01*
Y1552553D01*
X2240219Y1551553D01*
X2239553Y1550887D01*
X2238886Y1550553D01*
X2237887D01*
X2237220Y1550887D01*
X2236553Y1551553D01*
X2234687Y1555219D02*
Y1550553D01*
Y1553219D02*
X2234354Y1554219D01*
X2233687Y1554886D01*
X2233021Y1555219D01*
X2232021D01*
X2220557Y1550553D02*
X2223223Y1557552D01*
X2225889Y1550553D01*
X2224889Y1552886D02*
X2221557D01*
X2214925Y1554219D02*
X2215591Y1554886D01*
X2216258Y1555219D01*
X2217258D01*
X2217924Y1554886D01*
X2218591Y1554219D01*
X2218924Y1553219D01*
Y1552553D01*
X2218591Y1551553D01*
X2217924Y1550887D01*
X2217258Y1550553D01*
X2216258D01*
X2215591Y1550887D01*
X2214925Y1551553D01*
X2212425Y1557552D02*
Y1551886D01*
X2212092Y1550887D01*
X2211426Y1550553D01*
X2210759D01*
X2213425Y1555219D02*
X2211092D01*
X2209759D02*
Y1551886D01*
X2209426Y1550887D01*
X2208759Y1550553D01*
X2207760D01*
X2207093Y1550887D01*
X2206093Y1551886D01*
Y1555219D02*
Y1550553D01*
X2200261Y1555219D02*
Y1550553D01*
Y1554219D02*
X2200928Y1554886D01*
X2201594Y1555219D01*
X2202594D01*
X2203261Y1554886D01*
X2203927Y1554219D01*
X2204260Y1553219D01*
Y1552553D01*
X2203927Y1551553D01*
X2203261Y1550887D01*
X2202594Y1550553D01*
X2201594D01*
X2200928Y1550887D01*
X2200261Y1551553D01*
X2197395Y1557552D02*
Y1551886D01*
X2197062Y1550887D01*
X2196396Y1550553D01*
X2195729D01*
X2198395Y1555219D02*
X2196062D01*
X2193063D02*
X2193729Y1554886D01*
X2194396Y1554219D01*
X2194729Y1553219D01*
Y1552553D01*
X2194396Y1551553D01*
X2193729Y1550887D01*
X2193063Y1550553D01*
X2192063D01*
X2191396Y1550887D01*
X2190730Y1551553D01*
X2190397Y1552553D01*
Y1553219D01*
X2190730Y1554219D01*
X2191396Y1554886D01*
X2192063Y1555219D01*
X2193063D01*
X2188864D02*
Y1550553D01*
Y1553219D02*
X2188530Y1554219D01*
X2187864Y1554886D01*
X2187197Y1555219D01*
X2186198D01*
X2180066Y1557552D02*
X2177399Y1550553D01*
X2174733Y1557552D02*
X2177399Y1550553D01*
X2173167Y1557552D02*
X2169501D01*
X2171501Y1554886D01*
X2170501D01*
X2169834Y1554552D01*
X2169501Y1554219D01*
X2169168Y1553219D01*
Y1552553D01*
X2169501Y1551553D01*
X2170168Y1550887D01*
X2171167Y1550553D01*
X2172167D01*
X2173167Y1550887D01*
X2173500Y1551220D01*
X2173834Y1551886D01*
X2167268Y1551220D02*
X2167602Y1550887D01*
X2167268Y1550553D01*
X2166935Y1550887D01*
X2167268Y1551220D01*
X2163403Y1557552D02*
X2164402Y1557218D01*
X2165069Y1556219D01*
X2165402Y1554552D01*
Y1553553D01*
X2165069Y1551886D01*
X2164402Y1550887D01*
X2163403Y1550553D01*
X2162736D01*
X2161736Y1550887D01*
X2161070Y1551886D01*
X2160736Y1553553D01*
Y1554552D01*
X2161070Y1556219D01*
X2161736Y1557218D01*
X2162736Y1557552D01*
X2163403D01*
X2254883Y1541687D02*
Y1536355D01*
X2255216Y1535355D01*
X2255549Y1535022D01*
X2256216Y1534689D01*
X2257216D01*
X2257882Y1535022D01*
X2254883Y1540688D02*
X2255549Y1541354D01*
X2256216Y1541687D01*
X2257216D01*
X2257882Y1541354D01*
X2258549Y1540688D01*
X2258882Y1539688D01*
Y1539021D01*
X2258549Y1538022D01*
X2257882Y1537355D01*
X2257216Y1537022D01*
X2256216D01*
X2255549Y1537355D01*
X2254883Y1538022D01*
X2252350Y1544020D02*
X2252017Y1543687D01*
X2251684Y1544020D01*
X2252017Y1544353D01*
X2252350Y1544020D01*
X2252017Y1541687D02*
Y1537022D01*
X2249451Y1544020D02*
Y1538355D01*
X2249117Y1537355D01*
X2248451Y1537022D01*
X2247784D01*
X2250451Y1541687D02*
X2248118D01*
X2246785Y1544020D02*
Y1537022D01*
Y1540354D02*
X2245785Y1541354D01*
X2245118Y1541687D01*
X2244119D01*
X2243452Y1541354D01*
X2243119Y1540354D01*
Y1537022D01*
X2241286Y1541687D02*
Y1538355D01*
X2240953Y1537355D01*
X2240286Y1537022D01*
X2239286D01*
X2238620Y1537355D01*
X2237620Y1538355D01*
Y1541687D02*
Y1537022D01*
X2235787Y1544020D02*
Y1537022D01*
Y1540688D02*
X2235121Y1541354D01*
X2234454Y1541687D01*
X2233454D01*
X2232788Y1541354D01*
X2232121Y1540688D01*
X2231788Y1539688D01*
Y1539021D01*
X2232121Y1538022D01*
X2232788Y1537355D01*
X2233454Y1537022D01*
X2234454D01*
X2235121Y1537355D01*
X2235787Y1538022D01*
X2229955Y1537688D02*
X2230288Y1537355D01*
X2229955Y1537022D01*
X2229622Y1537355D01*
X2229955Y1537688D01*
X2224090Y1540688D02*
X2224756Y1541354D01*
X2225423Y1541687D01*
X2226422D01*
X2227089Y1541354D01*
X2227755Y1540688D01*
X2228089Y1539688D01*
Y1539021D01*
X2227755Y1538022D01*
X2227089Y1537355D01*
X2226422Y1537022D01*
X2225423D01*
X2224756Y1537355D01*
X2224090Y1538022D01*
X2220923Y1541687D02*
X2221590Y1541354D01*
X2222257Y1540688D01*
X2222590Y1539688D01*
Y1539021D01*
X2222257Y1538022D01*
X2221590Y1537355D01*
X2220923Y1537022D01*
X2219924D01*
X2219257Y1537355D01*
X2218591Y1538022D01*
X2218257Y1539021D01*
Y1539688D01*
X2218591Y1540688D01*
X2219257Y1541354D01*
X2219924Y1541687D01*
X2220923D01*
X2216724D02*
Y1537022D01*
Y1540354D02*
X2215725Y1541354D01*
X2215058Y1541687D01*
X2214058D01*
X2213392Y1541354D01*
X2213059Y1540354D01*
Y1537022D01*
Y1540354D02*
X2212059Y1541354D01*
X2211392Y1541687D01*
X2210392D01*
X2209726Y1541354D01*
X2209393Y1540354D01*
Y1537022D01*
X2207193Y1536022D02*
X2202527Y1544020D01*
X2202061Y1539688D02*
X2198062D01*
Y1540354D01*
X2198395Y1541021D01*
X2198728Y1541354D01*
X2199395Y1541687D01*
X2200395D01*
X2201061Y1541354D01*
X2201728Y1540688D01*
X2202061Y1539688D01*
Y1539021D01*
X2201728Y1538022D01*
X2201061Y1537355D01*
X2200395Y1537022D01*
X2199395D01*
X2198728Y1537355D01*
X2198062Y1538022D01*
X2196562Y1544020D02*
Y1537022D01*
Y1540354D02*
X2195562Y1541354D01*
X2194896Y1541687D01*
X2193896D01*
X2193229Y1541354D01*
X2192896Y1540354D01*
Y1537022D01*
X2187397Y1540688D02*
X2187731Y1541354D01*
X2188730Y1541687D01*
X2189730D01*
X2190730Y1541354D01*
X2191063Y1540688D01*
X2190730Y1540021D01*
X2190063Y1539688D01*
X2188397Y1539355D01*
X2187731Y1539021D01*
X2187397Y1538355D01*
Y1538022D01*
X2187731Y1537355D01*
X2188730Y1537022D01*
X2189730D01*
X2190730Y1537355D01*
X2191063Y1538022D01*
X2181932Y1541687D02*
Y1537022D01*
Y1540688D02*
X2182598Y1541354D01*
X2183265Y1541687D01*
X2184265D01*
X2184931Y1541354D01*
X2185598Y1540688D01*
X2185931Y1539688D01*
Y1539021D01*
X2185598Y1538022D01*
X2184931Y1537355D01*
X2184265Y1537022D01*
X2183265D01*
X2182598Y1537355D01*
X2181932Y1538022D01*
X2180066Y1541687D02*
Y1537022D01*
Y1540354D02*
X2179066Y1541354D01*
X2178399Y1541687D01*
X2177399D01*
X2176733Y1541354D01*
X2176400Y1540354D01*
Y1537022D01*
X2174234Y1542354D02*
Y1542687D01*
X2173900Y1543354D01*
X2173567Y1543687D01*
X2172901Y1544020D01*
X2171567D01*
X2170901Y1543687D01*
X2170568Y1543354D01*
X2170234Y1542687D01*
Y1542021D01*
X2170568Y1541354D01*
X2171234Y1540354D01*
X2174567Y1537022D01*
X2169901D01*
X2163669Y1544020D02*
X2167002Y1537022D01*
X2168335Y1544020D02*
X2163669D01*
X2158104D02*
X2161436D01*
X2161770Y1541021D01*
X2161436Y1541354D01*
X2160436Y1541687D01*
X2159437D01*
X2158437Y1541354D01*
X2157770Y1540688D01*
X2157437Y1539688D01*
Y1539021D01*
X2157770Y1538022D01*
X2158437Y1537355D01*
X2159437Y1537022D01*
X2160436D01*
X2161436Y1537355D01*
X2161770Y1537688D01*
X2162103Y1538355D01*
X2152538Y1544020D02*
X2155871Y1539355D01*
X2150872D01*
X2152538Y1544020D02*
Y1537022D01*
X2244325Y1942293D02*
X2241278Y1934295D01*
X2238231Y1942293D02*
X2241278Y1934295D01*
X2237203Y1942293D02*
Y1934295D01*
X2235527Y1942293D02*
Y1934295D01*
Y1942293D02*
X2230195Y1934295D01*
Y1942293D02*
Y1934295D01*
X2245049Y1866475D02*
Y1859619D01*
X2248477Y1863047D02*
X2241621D01*
X2234689Y1867617D02*
X2238498D01*
X2238879Y1864189D01*
X2238498Y1864570D01*
X2237355Y1864951D01*
X2236213D01*
X2235070Y1864570D01*
X2234308Y1863808D01*
X2233927Y1862666D01*
Y1861904D01*
X2234308Y1860762D01*
X2235070Y1860000D01*
X2236213Y1859619D01*
X2237355D01*
X2238498Y1860000D01*
X2238879Y1860381D01*
X2239260Y1861142D01*
X2232137Y1867617D02*
X2229090Y1859619D01*
X2226043Y1867617D02*
X2229090Y1859619D01*
X2258882Y1807552D02*
Y1800553D01*
X2254883D01*
X2253450Y1807552D02*
X2253117Y1807218D01*
X2252783Y1807552D01*
X2253117Y1807885D01*
X2253450Y1807552D01*
X2253117Y1805219D02*
Y1800553D01*
X2251550Y1805219D02*
Y1800553D01*
Y1803886D02*
X2250551Y1804886D01*
X2249884Y1805219D01*
X2248884D01*
X2248218Y1804886D01*
X2247885Y1803886D01*
Y1800553D01*
X2246051Y1803219D02*
X2242052D01*
Y1803886D01*
X2242386Y1804552D01*
X2242719Y1804886D01*
X2243385Y1805219D01*
X2244385D01*
X2245052Y1804886D01*
X2245718Y1804219D01*
X2246051Y1803219D01*
Y1802553D01*
X2245718Y1801553D01*
X2245052Y1800887D01*
X2244385Y1800553D01*
X2243385D01*
X2242719Y1800887D01*
X2242052Y1801553D01*
X2236553Y1805219D02*
Y1800553D01*
Y1804219D02*
X2237220Y1804886D01*
X2237887Y1805219D01*
X2238886D01*
X2239553Y1804886D01*
X2240219Y1804219D01*
X2240553Y1803219D01*
Y1802553D01*
X2240219Y1801553D01*
X2239553Y1800887D01*
X2238886Y1800553D01*
X2237887D01*
X2237220Y1800887D01*
X2236553Y1801553D01*
X2234687Y1805219D02*
Y1800553D01*
Y1803219D02*
X2234354Y1804219D01*
X2233687Y1804886D01*
X2233021Y1805219D01*
X2232021D01*
X2220557Y1800553D02*
X2223223Y1807552D01*
X2225889Y1800553D01*
X2224889Y1802886D02*
X2221557D01*
X2214925Y1804219D02*
X2215591Y1804886D01*
X2216258Y1805219D01*
X2217258D01*
X2217924Y1804886D01*
X2218591Y1804219D01*
X2218924Y1803219D01*
Y1802553D01*
X2218591Y1801553D01*
X2217924Y1800887D01*
X2217258Y1800553D01*
X2216258D01*
X2215591Y1800887D01*
X2214925Y1801553D01*
X2212425Y1807552D02*
Y1801886D01*
X2212092Y1800887D01*
X2211426Y1800553D01*
X2210759D01*
X2213425Y1805219D02*
X2211092D01*
X2209759D02*
Y1801886D01*
X2209426Y1800887D01*
X2208759Y1800553D01*
X2207760D01*
X2207093Y1800887D01*
X2206093Y1801886D01*
Y1805219D02*
Y1800553D01*
X2200261Y1805219D02*
Y1800553D01*
Y1804219D02*
X2200928Y1804886D01*
X2201594Y1805219D01*
X2202594D01*
X2203261Y1804886D01*
X2203927Y1804219D01*
X2204260Y1803219D01*
Y1802553D01*
X2203927Y1801553D01*
X2203261Y1800887D01*
X2202594Y1800553D01*
X2201594D01*
X2200928Y1800887D01*
X2200261Y1801553D01*
X2197395Y1807552D02*
Y1801886D01*
X2197062Y1800887D01*
X2196396Y1800553D01*
X2195729D01*
X2198395Y1805219D02*
X2196062D01*
X2193063D02*
X2193729Y1804886D01*
X2194396Y1804219D01*
X2194729Y1803219D01*
Y1802553D01*
X2194396Y1801553D01*
X2193729Y1800887D01*
X2193063Y1800553D01*
X2192063D01*
X2191396Y1800887D01*
X2190730Y1801553D01*
X2190397Y1802553D01*
Y1803219D01*
X2190730Y1804219D01*
X2191396Y1804886D01*
X2192063Y1805219D01*
X2193063D01*
X2188864D02*
Y1800553D01*
Y1803219D02*
X2188530Y1804219D01*
X2187864Y1804886D01*
X2187197Y1805219D01*
X2186198D01*
X2180066Y1807552D02*
X2177399Y1800553D01*
X2174733Y1807552D02*
X2177399Y1800553D01*
X2173167Y1807552D02*
X2169501D01*
X2171501Y1804886D01*
X2170501D01*
X2169834Y1804552D01*
X2169501Y1804219D01*
X2169168Y1803219D01*
Y1802553D01*
X2169501Y1801553D01*
X2170168Y1800887D01*
X2171167Y1800553D01*
X2172167D01*
X2173167Y1800887D01*
X2173500Y1801220D01*
X2173834Y1801886D01*
X2167268Y1801220D02*
X2167602Y1800887D01*
X2167268Y1800553D01*
X2166935Y1800887D01*
X2167268Y1801220D01*
X2163403Y1807552D02*
X2164402Y1807218D01*
X2165069Y1806219D01*
X2165402Y1804552D01*
Y1803553D01*
X2165069Y1801886D01*
X2164402Y1800887D01*
X2163403Y1800553D01*
X2162736D01*
X2161736Y1800887D01*
X2161070Y1801886D01*
X2160736Y1803553D01*
Y1804552D01*
X2161070Y1806219D01*
X2161736Y1807218D01*
X2162736Y1807552D01*
X2163403D01*
X2254883Y1791687D02*
Y1786355D01*
X2255216Y1785355D01*
X2255549Y1785022D01*
X2256216Y1784689D01*
X2257216D01*
X2257882Y1785022D01*
X2254883Y1790688D02*
X2255549Y1791354D01*
X2256216Y1791687D01*
X2257216D01*
X2257882Y1791354D01*
X2258549Y1790688D01*
X2258882Y1789688D01*
Y1789021D01*
X2258549Y1788022D01*
X2257882Y1787355D01*
X2257216Y1787022D01*
X2256216D01*
X2255549Y1787355D01*
X2254883Y1788022D01*
X2252350Y1794020D02*
X2252017Y1793687D01*
X2251684Y1794020D01*
X2252017Y1794353D01*
X2252350Y1794020D01*
X2252017Y1791687D02*
Y1787022D01*
X2249451Y1794020D02*
Y1788355D01*
X2249117Y1787355D01*
X2248451Y1787022D01*
X2247784D01*
X2250451Y1791687D02*
X2248118D01*
X2246785Y1794020D02*
Y1787022D01*
Y1790354D02*
X2245785Y1791354D01*
X2245118Y1791687D01*
X2244119D01*
X2243452Y1791354D01*
X2243119Y1790354D01*
Y1787022D01*
X2241286Y1791687D02*
Y1788355D01*
X2240953Y1787355D01*
X2240286Y1787022D01*
X2239286D01*
X2238620Y1787355D01*
X2237620Y1788355D01*
Y1791687D02*
Y1787022D01*
X2235787Y1794020D02*
Y1787022D01*
Y1790688D02*
X2235121Y1791354D01*
X2234454Y1791687D01*
X2233454D01*
X2232788Y1791354D01*
X2232121Y1790688D01*
X2231788Y1789688D01*
Y1789021D01*
X2232121Y1788022D01*
X2232788Y1787355D01*
X2233454Y1787022D01*
X2234454D01*
X2235121Y1787355D01*
X2235787Y1788022D01*
X2229955Y1787688D02*
X2230288Y1787355D01*
X2229955Y1787022D01*
X2229622Y1787355D01*
X2229955Y1787688D01*
X2224090Y1790688D02*
X2224756Y1791354D01*
X2225423Y1791687D01*
X2226422D01*
X2227089Y1791354D01*
X2227755Y1790688D01*
X2228089Y1789688D01*
Y1789021D01*
X2227755Y1788022D01*
X2227089Y1787355D01*
X2226422Y1787022D01*
X2225423D01*
X2224756Y1787355D01*
X2224090Y1788022D01*
X2220923Y1791687D02*
X2221590Y1791354D01*
X2222257Y1790688D01*
X2222590Y1789688D01*
Y1789021D01*
X2222257Y1788022D01*
X2221590Y1787355D01*
X2220923Y1787022D01*
X2219924D01*
X2219257Y1787355D01*
X2218591Y1788022D01*
X2218257Y1789021D01*
Y1789688D01*
X2218591Y1790688D01*
X2219257Y1791354D01*
X2219924Y1791687D01*
X2220923D01*
X2216724D02*
Y1787022D01*
Y1790354D02*
X2215725Y1791354D01*
X2215058Y1791687D01*
X2214058D01*
X2213392Y1791354D01*
X2213059Y1790354D01*
Y1787022D01*
Y1790354D02*
X2212059Y1791354D01*
X2211392Y1791687D01*
X2210392D01*
X2209726Y1791354D01*
X2209393Y1790354D01*
Y1787022D01*
X2207193Y1786022D02*
X2202527Y1794020D01*
X2202061Y1789688D02*
X2198062D01*
Y1790354D01*
X2198395Y1791021D01*
X2198728Y1791354D01*
X2199395Y1791687D01*
X2200395D01*
X2201061Y1791354D01*
X2201728Y1790688D01*
X2202061Y1789688D01*
Y1789021D01*
X2201728Y1788022D01*
X2201061Y1787355D01*
X2200395Y1787022D01*
X2199395D01*
X2198728Y1787355D01*
X2198062Y1788022D01*
X2196562Y1794020D02*
Y1787022D01*
Y1790354D02*
X2195562Y1791354D01*
X2194896Y1791687D01*
X2193896D01*
X2193229Y1791354D01*
X2192896Y1790354D01*
Y1787022D01*
X2187397Y1790688D02*
X2187731Y1791354D01*
X2188730Y1791687D01*
X2189730D01*
X2190730Y1791354D01*
X2191063Y1790688D01*
X2190730Y1790021D01*
X2190063Y1789688D01*
X2188397Y1789355D01*
X2187731Y1789021D01*
X2187397Y1788355D01*
Y1788022D01*
X2187731Y1787355D01*
X2188730Y1787022D01*
X2189730D01*
X2190730Y1787355D01*
X2191063Y1788022D01*
X2181932Y1791687D02*
Y1787022D01*
Y1790688D02*
X2182598Y1791354D01*
X2183265Y1791687D01*
X2184265D01*
X2184931Y1791354D01*
X2185598Y1790688D01*
X2185931Y1789688D01*
Y1789021D01*
X2185598Y1788022D01*
X2184931Y1787355D01*
X2184265Y1787022D01*
X2183265D01*
X2182598Y1787355D01*
X2181932Y1788022D01*
X2180066Y1791687D02*
Y1787022D01*
Y1790354D02*
X2179066Y1791354D01*
X2178399Y1791687D01*
X2177399D01*
X2176733Y1791354D01*
X2176400Y1790354D01*
Y1787022D01*
X2174234Y1792354D02*
Y1792687D01*
X2173900Y1793354D01*
X2173567Y1793687D01*
X2172901Y1794020D01*
X2171567D01*
X2170901Y1793687D01*
X2170568Y1793354D01*
X2170234Y1792687D01*
Y1792021D01*
X2170568Y1791354D01*
X2171234Y1790354D01*
X2174567Y1787022D01*
X2169901D01*
X2163669Y1794020D02*
X2167002Y1787022D01*
X2168335Y1794020D02*
X2163669D01*
X2158104D02*
X2161436D01*
X2161770Y1791021D01*
X2161436Y1791354D01*
X2160436Y1791687D01*
X2159437D01*
X2158437Y1791354D01*
X2157770Y1790688D01*
X2157437Y1789688D01*
Y1789021D01*
X2157770Y1788022D01*
X2158437Y1787355D01*
X2159437Y1787022D01*
X2160436D01*
X2161436Y1787355D01*
X2161770Y1787688D01*
X2162103Y1788355D01*
X2152538Y1794020D02*
X2155871Y1789355D01*
X2150872D01*
X2152538Y1794020D02*
Y1787022D01*
X2244325Y2192293D02*
X2241278Y2184295D01*
X2238231Y2192293D02*
X2241278Y2184295D01*
X2237203Y2192293D02*
Y2184295D01*
X2235527Y2192293D02*
Y2184295D01*
Y2192293D02*
X2230195Y2184295D01*
Y2192293D02*
Y2184295D01*
X2245049Y2116475D02*
Y2109619D01*
X2248477Y2113047D02*
X2241621D01*
X2234689Y2117617D02*
X2238498D01*
X2238879Y2114189D01*
X2238498Y2114570D01*
X2237355Y2114951D01*
X2236213D01*
X2235070Y2114570D01*
X2234308Y2113808D01*
X2233927Y2112666D01*
Y2111904D01*
X2234308Y2110762D01*
X2235070Y2110000D01*
X2236213Y2109619D01*
X2237355D01*
X2238498Y2110000D01*
X2238879Y2110381D01*
X2239260Y2111142D01*
X2232137Y2117617D02*
X2229090Y2109619D01*
X2226043Y2117617D02*
X2229090Y2109619D01*
X2258882Y2057552D02*
Y2050553D01*
X2254883D01*
X2253450Y2057552D02*
X2253117Y2057218D01*
X2252783Y2057552D01*
X2253117Y2057885D01*
X2253450Y2057552D01*
X2253117Y2055219D02*
Y2050553D01*
X2251550Y2055219D02*
Y2050553D01*
Y2053886D02*
X2250551Y2054886D01*
X2249884Y2055219D01*
X2248884D01*
X2248218Y2054886D01*
X2247885Y2053886D01*
Y2050553D01*
X2246051Y2053219D02*
X2242052D01*
Y2053886D01*
X2242386Y2054552D01*
X2242719Y2054886D01*
X2243385Y2055219D01*
X2244385D01*
X2245052Y2054886D01*
X2245718Y2054219D01*
X2246051Y2053219D01*
Y2052553D01*
X2245718Y2051553D01*
X2245052Y2050887D01*
X2244385Y2050553D01*
X2243385D01*
X2242719Y2050887D01*
X2242052Y2051553D01*
X2236553Y2055219D02*
Y2050553D01*
Y2054219D02*
X2237220Y2054886D01*
X2237887Y2055219D01*
X2238886D01*
X2239553Y2054886D01*
X2240219Y2054219D01*
X2240553Y2053219D01*
Y2052553D01*
X2240219Y2051553D01*
X2239553Y2050887D01*
X2238886Y2050553D01*
X2237887D01*
X2237220Y2050887D01*
X2236553Y2051553D01*
X2234687Y2055219D02*
Y2050553D01*
Y2053219D02*
X2234354Y2054219D01*
X2233687Y2054886D01*
X2233021Y2055219D01*
X2232021D01*
X2220557Y2050553D02*
X2223223Y2057552D01*
X2225889Y2050553D01*
X2224889Y2052886D02*
X2221557D01*
X2214925Y2054219D02*
X2215591Y2054886D01*
X2216258Y2055219D01*
X2217258D01*
X2217924Y2054886D01*
X2218591Y2054219D01*
X2218924Y2053219D01*
Y2052553D01*
X2218591Y2051553D01*
X2217924Y2050887D01*
X2217258Y2050553D01*
X2216258D01*
X2215591Y2050887D01*
X2214925Y2051553D01*
X2212425Y2057552D02*
Y2051886D01*
X2212092Y2050887D01*
X2211426Y2050553D01*
X2210759D01*
X2213425Y2055219D02*
X2211092D01*
X2209759D02*
Y2051886D01*
X2209426Y2050887D01*
X2208759Y2050553D01*
X2207760D01*
X2207093Y2050887D01*
X2206093Y2051886D01*
Y2055219D02*
Y2050553D01*
X2200261Y2055219D02*
Y2050553D01*
Y2054219D02*
X2200928Y2054886D01*
X2201594Y2055219D01*
X2202594D01*
X2203261Y2054886D01*
X2203927Y2054219D01*
X2204260Y2053219D01*
Y2052553D01*
X2203927Y2051553D01*
X2203261Y2050887D01*
X2202594Y2050553D01*
X2201594D01*
X2200928Y2050887D01*
X2200261Y2051553D01*
X2197395Y2057552D02*
Y2051886D01*
X2197062Y2050887D01*
X2196396Y2050553D01*
X2195729D01*
X2198395Y2055219D02*
X2196062D01*
X2193063D02*
X2193729Y2054886D01*
X2194396Y2054219D01*
X2194729Y2053219D01*
Y2052553D01*
X2194396Y2051553D01*
X2193729Y2050887D01*
X2193063Y2050553D01*
X2192063D01*
X2191396Y2050887D01*
X2190730Y2051553D01*
X2190397Y2052553D01*
Y2053219D01*
X2190730Y2054219D01*
X2191396Y2054886D01*
X2192063Y2055219D01*
X2193063D01*
X2188864D02*
Y2050553D01*
Y2053219D02*
X2188530Y2054219D01*
X2187864Y2054886D01*
X2187197Y2055219D01*
X2186198D01*
X2180066Y2057552D02*
X2177399Y2050553D01*
X2174733Y2057552D02*
X2177399Y2050553D01*
X2173167Y2057552D02*
X2169501D01*
X2171501Y2054886D01*
X2170501D01*
X2169834Y2054552D01*
X2169501Y2054219D01*
X2169168Y2053219D01*
Y2052553D01*
X2169501Y2051553D01*
X2170168Y2050887D01*
X2171167Y2050553D01*
X2172167D01*
X2173167Y2050887D01*
X2173500Y2051220D01*
X2173834Y2051886D01*
X2167268Y2051220D02*
X2167602Y2050887D01*
X2167268Y2050553D01*
X2166935Y2050887D01*
X2167268Y2051220D01*
X2163403Y2057552D02*
X2164402Y2057218D01*
X2165069Y2056219D01*
X2165402Y2054552D01*
Y2053553D01*
X2165069Y2051886D01*
X2164402Y2050887D01*
X2163403Y2050553D01*
X2162736D01*
X2161736Y2050887D01*
X2161070Y2051886D01*
X2160736Y2053553D01*
Y2054552D01*
X2161070Y2056219D01*
X2161736Y2057218D01*
X2162736Y2057552D01*
X2163403D01*
X2254883Y2041687D02*
Y2036355D01*
X2255216Y2035355D01*
X2255549Y2035022D01*
X2256216Y2034689D01*
X2257216D01*
X2257882Y2035022D01*
X2254883Y2040688D02*
X2255549Y2041354D01*
X2256216Y2041687D01*
X2257216D01*
X2257882Y2041354D01*
X2258549Y2040688D01*
X2258882Y2039688D01*
Y2039021D01*
X2258549Y2038022D01*
X2257882Y2037355D01*
X2257216Y2037022D01*
X2256216D01*
X2255549Y2037355D01*
X2254883Y2038022D01*
X2252350Y2044020D02*
X2252017Y2043687D01*
X2251684Y2044020D01*
X2252017Y2044353D01*
X2252350Y2044020D01*
X2252017Y2041687D02*
Y2037022D01*
X2249451Y2044020D02*
Y2038355D01*
X2249117Y2037355D01*
X2248451Y2037022D01*
X2247784D01*
X2250451Y2041687D02*
X2248118D01*
X2246785Y2044020D02*
Y2037022D01*
Y2040354D02*
X2245785Y2041354D01*
X2245118Y2041687D01*
X2244119D01*
X2243452Y2041354D01*
X2243119Y2040354D01*
Y2037022D01*
X2241286Y2041687D02*
Y2038355D01*
X2240953Y2037355D01*
X2240286Y2037022D01*
X2239286D01*
X2238620Y2037355D01*
X2237620Y2038355D01*
Y2041687D02*
Y2037022D01*
X2235787Y2044020D02*
Y2037022D01*
Y2040688D02*
X2235121Y2041354D01*
X2234454Y2041687D01*
X2233454D01*
X2232788Y2041354D01*
X2232121Y2040688D01*
X2231788Y2039688D01*
Y2039021D01*
X2232121Y2038022D01*
X2232788Y2037355D01*
X2233454Y2037022D01*
X2234454D01*
X2235121Y2037355D01*
X2235787Y2038022D01*
X2229955Y2037688D02*
X2230288Y2037355D01*
X2229955Y2037022D01*
X2229622Y2037355D01*
X2229955Y2037688D01*
X2224090Y2040688D02*
X2224756Y2041354D01*
X2225423Y2041687D01*
X2226422D01*
X2227089Y2041354D01*
X2227755Y2040688D01*
X2228089Y2039688D01*
Y2039021D01*
X2227755Y2038022D01*
X2227089Y2037355D01*
X2226422Y2037022D01*
X2225423D01*
X2224756Y2037355D01*
X2224090Y2038022D01*
X2220923Y2041687D02*
X2221590Y2041354D01*
X2222257Y2040688D01*
X2222590Y2039688D01*
Y2039021D01*
X2222257Y2038022D01*
X2221590Y2037355D01*
X2220923Y2037022D01*
X2219924D01*
X2219257Y2037355D01*
X2218591Y2038022D01*
X2218257Y2039021D01*
Y2039688D01*
X2218591Y2040688D01*
X2219257Y2041354D01*
X2219924Y2041687D01*
X2220923D01*
X2216724D02*
Y2037022D01*
Y2040354D02*
X2215725Y2041354D01*
X2215058Y2041687D01*
X2214058D01*
X2213392Y2041354D01*
X2213059Y2040354D01*
Y2037022D01*
Y2040354D02*
X2212059Y2041354D01*
X2211392Y2041687D01*
X2210392D01*
X2209726Y2041354D01*
X2209393Y2040354D01*
Y2037022D01*
X2207193Y2036022D02*
X2202527Y2044020D01*
X2202061Y2039688D02*
X2198062D01*
Y2040354D01*
X2198395Y2041021D01*
X2198728Y2041354D01*
X2199395Y2041687D01*
X2200395D01*
X2201061Y2041354D01*
X2201728Y2040688D01*
X2202061Y2039688D01*
Y2039021D01*
X2201728Y2038022D01*
X2201061Y2037355D01*
X2200395Y2037022D01*
X2199395D01*
X2198728Y2037355D01*
X2198062Y2038022D01*
X2196562Y2044020D02*
Y2037022D01*
Y2040354D02*
X2195562Y2041354D01*
X2194896Y2041687D01*
X2193896D01*
X2193229Y2041354D01*
X2192896Y2040354D01*
Y2037022D01*
X2187397Y2040688D02*
X2187731Y2041354D01*
X2188730Y2041687D01*
X2189730D01*
X2190730Y2041354D01*
X2191063Y2040688D01*
X2190730Y2040021D01*
X2190063Y2039688D01*
X2188397Y2039355D01*
X2187731Y2039021D01*
X2187397Y2038355D01*
Y2038022D01*
X2187731Y2037355D01*
X2188730Y2037022D01*
X2189730D01*
X2190730Y2037355D01*
X2191063Y2038022D01*
X2181932Y2041687D02*
Y2037022D01*
Y2040688D02*
X2182598Y2041354D01*
X2183265Y2041687D01*
X2184265D01*
X2184931Y2041354D01*
X2185598Y2040688D01*
X2185931Y2039688D01*
Y2039021D01*
X2185598Y2038022D01*
X2184931Y2037355D01*
X2184265Y2037022D01*
X2183265D01*
X2182598Y2037355D01*
X2181932Y2038022D01*
X2180066Y2041687D02*
Y2037022D01*
Y2040354D02*
X2179066Y2041354D01*
X2178399Y2041687D01*
X2177399D01*
X2176733Y2041354D01*
X2176400Y2040354D01*
Y2037022D01*
X2174234Y2042354D02*
Y2042687D01*
X2173900Y2043354D01*
X2173567Y2043687D01*
X2172901Y2044020D01*
X2171567D01*
X2170901Y2043687D01*
X2170568Y2043354D01*
X2170234Y2042687D01*
Y2042021D01*
X2170568Y2041354D01*
X2171234Y2040354D01*
X2174567Y2037022D01*
X2169901D01*
X2163669Y2044020D02*
X2167002Y2037022D01*
X2168335Y2044020D02*
X2163669D01*
X2158104D02*
X2161436D01*
X2161770Y2041021D01*
X2161436Y2041354D01*
X2160436Y2041687D01*
X2159437D01*
X2158437Y2041354D01*
X2157770Y2040688D01*
X2157437Y2039688D01*
Y2039021D01*
X2157770Y2038022D01*
X2158437Y2037355D01*
X2159437Y2037022D01*
X2160436D01*
X2161436Y2037355D01*
X2161770Y2037688D01*
X2162103Y2038355D01*
X2152538Y2044020D02*
X2155871Y2039355D01*
X2150872D01*
X2152538Y2044020D02*
Y2037022D01*
X2244325Y2442293D02*
X2241278Y2434295D01*
X2238231Y2442293D02*
X2241278Y2434295D01*
X2237203Y2442293D02*
Y2434295D01*
X2235527Y2442293D02*
Y2434295D01*
Y2442293D02*
X2230195Y2434295D01*
Y2442293D02*
Y2434295D01*
X2245049Y2366475D02*
Y2359619D01*
X2248477Y2363047D02*
X2241621D01*
X2234689Y2367617D02*
X2238498D01*
X2238879Y2364189D01*
X2238498Y2364570D01*
X2237355Y2364951D01*
X2236213D01*
X2235070Y2364570D01*
X2234308Y2363808D01*
X2233927Y2362666D01*
Y2361904D01*
X2234308Y2360762D01*
X2235070Y2360000D01*
X2236213Y2359619D01*
X2237355D01*
X2238498Y2360000D01*
X2238879Y2360381D01*
X2239260Y2361142D01*
X2232137Y2367617D02*
X2229090Y2359619D01*
X2226043Y2367617D02*
X2229090Y2359619D01*
X2258882Y2307552D02*
Y2300553D01*
X2254883D01*
X2253450Y2307552D02*
X2253117Y2307218D01*
X2252783Y2307552D01*
X2253117Y2307885D01*
X2253450Y2307552D01*
X2253117Y2305219D02*
Y2300553D01*
X2251550Y2305219D02*
Y2300553D01*
Y2303886D02*
X2250551Y2304886D01*
X2249884Y2305219D01*
X2248884D01*
X2248218Y2304886D01*
X2247885Y2303886D01*
Y2300553D01*
X2246051Y2303219D02*
X2242052D01*
Y2303886D01*
X2242386Y2304552D01*
X2242719Y2304886D01*
X2243385Y2305219D01*
X2244385D01*
X2245052Y2304886D01*
X2245718Y2304219D01*
X2246051Y2303219D01*
Y2302553D01*
X2245718Y2301553D01*
X2245052Y2300887D01*
X2244385Y2300553D01*
X2243385D01*
X2242719Y2300887D01*
X2242052Y2301553D01*
X2236553Y2305219D02*
Y2300553D01*
Y2304219D02*
X2237220Y2304886D01*
X2237887Y2305219D01*
X2238886D01*
X2239553Y2304886D01*
X2240219Y2304219D01*
X2240553Y2303219D01*
Y2302553D01*
X2240219Y2301553D01*
X2239553Y2300887D01*
X2238886Y2300553D01*
X2237887D01*
X2237220Y2300887D01*
X2236553Y2301553D01*
X2234687Y2305219D02*
Y2300553D01*
Y2303219D02*
X2234354Y2304219D01*
X2233687Y2304886D01*
X2233021Y2305219D01*
X2232021D01*
X2220557Y2300553D02*
X2223223Y2307552D01*
X2225889Y2300553D01*
X2224889Y2302886D02*
X2221557D01*
X2214925Y2304219D02*
X2215591Y2304886D01*
X2216258Y2305219D01*
X2217258D01*
X2217924Y2304886D01*
X2218591Y2304219D01*
X2218924Y2303219D01*
Y2302553D01*
X2218591Y2301553D01*
X2217924Y2300887D01*
X2217258Y2300553D01*
X2216258D01*
X2215591Y2300887D01*
X2214925Y2301553D01*
X2212425Y2307552D02*
Y2301886D01*
X2212092Y2300887D01*
X2211426Y2300553D01*
X2210759D01*
X2213425Y2305219D02*
X2211092D01*
X2209759D02*
Y2301886D01*
X2209426Y2300887D01*
X2208759Y2300553D01*
X2207760D01*
X2207093Y2300887D01*
X2206093Y2301886D01*
Y2305219D02*
Y2300553D01*
X2200261Y2305219D02*
Y2300553D01*
Y2304219D02*
X2200928Y2304886D01*
X2201594Y2305219D01*
X2202594D01*
X2203261Y2304886D01*
X2203927Y2304219D01*
X2204260Y2303219D01*
Y2302553D01*
X2203927Y2301553D01*
X2203261Y2300887D01*
X2202594Y2300553D01*
X2201594D01*
X2200928Y2300887D01*
X2200261Y2301553D01*
X2197395Y2307552D02*
Y2301886D01*
X2197062Y2300887D01*
X2196396Y2300553D01*
X2195729D01*
X2198395Y2305219D02*
X2196062D01*
X2193063D02*
X2193729Y2304886D01*
X2194396Y2304219D01*
X2194729Y2303219D01*
Y2302553D01*
X2194396Y2301553D01*
X2193729Y2300887D01*
X2193063Y2300553D01*
X2192063D01*
X2191396Y2300887D01*
X2190730Y2301553D01*
X2190397Y2302553D01*
Y2303219D01*
X2190730Y2304219D01*
X2191396Y2304886D01*
X2192063Y2305219D01*
X2193063D01*
X2188864D02*
Y2300553D01*
Y2303219D02*
X2188530Y2304219D01*
X2187864Y2304886D01*
X2187197Y2305219D01*
X2186198D01*
X2180066Y2307552D02*
X2177399Y2300553D01*
X2174733Y2307552D02*
X2177399Y2300553D01*
X2173167Y2307552D02*
X2169501D01*
X2171501Y2304886D01*
X2170501D01*
X2169834Y2304552D01*
X2169501Y2304219D01*
X2169168Y2303219D01*
Y2302553D01*
X2169501Y2301553D01*
X2170168Y2300887D01*
X2171167Y2300553D01*
X2172167D01*
X2173167Y2300887D01*
X2173500Y2301220D01*
X2173834Y2301886D01*
X2167268Y2301220D02*
X2167602Y2300887D01*
X2167268Y2300553D01*
X2166935Y2300887D01*
X2167268Y2301220D01*
X2163403Y2307552D02*
X2164402Y2307218D01*
X2165069Y2306219D01*
X2165402Y2304552D01*
Y2303553D01*
X2165069Y2301886D01*
X2164402Y2300887D01*
X2163403Y2300553D01*
X2162736D01*
X2161736Y2300887D01*
X2161070Y2301886D01*
X2160736Y2303553D01*
Y2304552D01*
X2161070Y2306219D01*
X2161736Y2307218D01*
X2162736Y2307552D01*
X2163403D01*
X2254883Y2291687D02*
Y2286355D01*
X2255216Y2285355D01*
X2255549Y2285022D01*
X2256216Y2284689D01*
X2257216D01*
X2257882Y2285022D01*
X2254883Y2290688D02*
X2255549Y2291354D01*
X2256216Y2291687D01*
X2257216D01*
X2257882Y2291354D01*
X2258549Y2290688D01*
X2258882Y2289688D01*
Y2289021D01*
X2258549Y2288022D01*
X2257882Y2287355D01*
X2257216Y2287022D01*
X2256216D01*
X2255549Y2287355D01*
X2254883Y2288022D01*
X2252350Y2294020D02*
X2252017Y2293687D01*
X2251684Y2294020D01*
X2252017Y2294354D01*
X2252350Y2294020D01*
X2252017Y2291687D02*
Y2287022D01*
X2249451Y2294020D02*
Y2288355D01*
X2249117Y2287355D01*
X2248451Y2287022D01*
X2247784D01*
X2250451Y2291687D02*
X2248118D01*
X2246785Y2294020D02*
Y2287022D01*
Y2290354D02*
X2245785Y2291354D01*
X2245118Y2291687D01*
X2244119D01*
X2243452Y2291354D01*
X2243119Y2290354D01*
Y2287022D01*
X2241286Y2291687D02*
Y2288355D01*
X2240953Y2287355D01*
X2240286Y2287022D01*
X2239286D01*
X2238620Y2287355D01*
X2237620Y2288355D01*
Y2291687D02*
Y2287022D01*
X2235787Y2294020D02*
Y2287022D01*
Y2290688D02*
X2235121Y2291354D01*
X2234454Y2291687D01*
X2233454D01*
X2232788Y2291354D01*
X2232121Y2290688D01*
X2231788Y2289688D01*
Y2289021D01*
X2232121Y2288022D01*
X2232788Y2287355D01*
X2233454Y2287022D01*
X2234454D01*
X2235121Y2287355D01*
X2235787Y2288022D01*
X2229955Y2287688D02*
X2230288Y2287355D01*
X2229955Y2287022D01*
X2229622Y2287355D01*
X2229955Y2287688D01*
X2224090Y2290688D02*
X2224756Y2291354D01*
X2225423Y2291687D01*
X2226422D01*
X2227089Y2291354D01*
X2227755Y2290688D01*
X2228089Y2289688D01*
Y2289021D01*
X2227755Y2288022D01*
X2227089Y2287355D01*
X2226422Y2287022D01*
X2225423D01*
X2224756Y2287355D01*
X2224090Y2288022D01*
X2220923Y2291687D02*
X2221590Y2291354D01*
X2222257Y2290688D01*
X2222590Y2289688D01*
Y2289021D01*
X2222257Y2288022D01*
X2221590Y2287355D01*
X2220923Y2287022D01*
X2219924D01*
X2219257Y2287355D01*
X2218591Y2288022D01*
X2218257Y2289021D01*
Y2289688D01*
X2218591Y2290688D01*
X2219257Y2291354D01*
X2219924Y2291687D01*
X2220923D01*
X2216724D02*
Y2287022D01*
Y2290354D02*
X2215725Y2291354D01*
X2215058Y2291687D01*
X2214058D01*
X2213392Y2291354D01*
X2213059Y2290354D01*
Y2287022D01*
Y2290354D02*
X2212059Y2291354D01*
X2211392Y2291687D01*
X2210392D01*
X2209726Y2291354D01*
X2209393Y2290354D01*
Y2287022D01*
X2207193Y2286022D02*
X2202527Y2294020D01*
X2202061Y2289688D02*
X2198062D01*
Y2290354D01*
X2198395Y2291021D01*
X2198728Y2291354D01*
X2199395Y2291687D01*
X2200395D01*
X2201061Y2291354D01*
X2201728Y2290688D01*
X2202061Y2289688D01*
Y2289021D01*
X2201728Y2288022D01*
X2201061Y2287355D01*
X2200395Y2287022D01*
X2199395D01*
X2198728Y2287355D01*
X2198062Y2288022D01*
X2196562Y2294020D02*
Y2287022D01*
Y2290354D02*
X2195562Y2291354D01*
X2194896Y2291687D01*
X2193896D01*
X2193229Y2291354D01*
X2192896Y2290354D01*
Y2287022D01*
X2187397Y2290688D02*
X2187731Y2291354D01*
X2188730Y2291687D01*
X2189730D01*
X2190730Y2291354D01*
X2191063Y2290688D01*
X2190730Y2290021D01*
X2190063Y2289688D01*
X2188397Y2289355D01*
X2187731Y2289021D01*
X2187397Y2288355D01*
Y2288022D01*
X2187731Y2287355D01*
X2188730Y2287022D01*
X2189730D01*
X2190730Y2287355D01*
X2191063Y2288022D01*
X2181932Y2291687D02*
Y2287022D01*
Y2290688D02*
X2182598Y2291354D01*
X2183265Y2291687D01*
X2184265D01*
X2184931Y2291354D01*
X2185598Y2290688D01*
X2185931Y2289688D01*
Y2289021D01*
X2185598Y2288022D01*
X2184931Y2287355D01*
X2184265Y2287022D01*
X2183265D01*
X2182598Y2287355D01*
X2181932Y2288022D01*
X2180066Y2291687D02*
Y2287022D01*
Y2290354D02*
X2179066Y2291354D01*
X2178399Y2291687D01*
X2177399D01*
X2176733Y2291354D01*
X2176400Y2290354D01*
Y2287022D01*
X2174234Y2292354D02*
Y2292687D01*
X2173900Y2293354D01*
X2173567Y2293687D01*
X2172901Y2294020D01*
X2171567D01*
X2170901Y2293687D01*
X2170568Y2293354D01*
X2170234Y2292687D01*
Y2292021D01*
X2170568Y2291354D01*
X2171234Y2290354D01*
X2174567Y2287022D01*
X2169901D01*
X2163669Y2294020D02*
X2167002Y2287022D01*
X2168335Y2294020D02*
X2163669D01*
X2158104D02*
X2161436D01*
X2161770Y2291021D01*
X2161436Y2291354D01*
X2160436Y2291687D01*
X2159437D01*
X2158437Y2291354D01*
X2157770Y2290688D01*
X2157437Y2289688D01*
Y2289021D01*
X2157770Y2288022D01*
X2158437Y2287355D01*
X2159437Y2287022D01*
X2160436D01*
X2161436Y2287355D01*
X2161770Y2287688D01*
X2162103Y2288355D01*
X2152538Y2294020D02*
X2155871Y2289355D01*
X2150872D01*
X2152538Y2294020D02*
Y2287022D01*
D21*
X2339114Y1651561D02*
D03*
Y1901561D02*
D03*
Y2151561D02*
D03*
Y2401561D02*
D03*
D22*
X2479772Y1729985D02*
D03*
X2728756Y1729685D02*
D03*
X2805056Y1572059D02*
D03*
X2479772Y1979985D02*
D03*
X2728756Y1979685D02*
D03*
X2805056Y1822059D02*
D03*
X2479772Y2229985D02*
D03*
X2728756Y2229685D02*
D03*
X2805056Y2072059D02*
D03*
X2479772Y2479985D02*
D03*
X2728756Y2479685D02*
D03*
X2805056Y2322059D02*
D03*
D23*
X2505172Y1729985D02*
D03*
X2530572D02*
D03*
X2555972D02*
D03*
X2581372D02*
D03*
X2754156Y1729685D02*
D03*
X2779556D02*
D03*
X2804956D02*
D03*
X2779656Y1572059D02*
D03*
X2754256D02*
D03*
X2728856D02*
D03*
X2505172Y1979985D02*
D03*
X2530572D02*
D03*
X2555972D02*
D03*
X2581372D02*
D03*
X2754156Y1979685D02*
D03*
X2779556D02*
D03*
X2804956D02*
D03*
X2779656Y1822059D02*
D03*
X2754256D02*
D03*
X2728856D02*
D03*
X2505172Y2229985D02*
D03*
X2530572D02*
D03*
X2555972D02*
D03*
X2581372D02*
D03*
X2754156Y2229685D02*
D03*
X2779556D02*
D03*
X2804956D02*
D03*
X2779656Y2072059D02*
D03*
X2754256D02*
D03*
X2728856D02*
D03*
X2505172Y2479985D02*
D03*
X2530572D02*
D03*
X2555972D02*
D03*
X2581372D02*
D03*
X2754156Y2479685D02*
D03*
X2779556D02*
D03*
X2804956D02*
D03*
X2779656Y2322059D02*
D03*
X2754256D02*
D03*
X2728856D02*
D03*
D24*
X2443508Y1612945D02*
D03*
Y1862945D02*
D03*
Y2112945D02*
D03*
Y2362945D02*
D03*
D25*
X2418108Y1612945D02*
D03*
X2392708D02*
D03*
X2367308D02*
D03*
X2341908D02*
D03*
X2316508D02*
D03*
X2291108D02*
D03*
X2265708D02*
D03*
X2443508Y1689145D02*
D03*
X2418108D02*
D03*
X2392708D02*
D03*
X2367308D02*
D03*
X2341908D02*
D03*
X2316508D02*
D03*
X2291108D02*
D03*
X2265708D02*
D03*
X2418108Y1862945D02*
D03*
X2392708D02*
D03*
X2367308D02*
D03*
X2341908D02*
D03*
X2316508D02*
D03*
X2291108D02*
D03*
X2265708D02*
D03*
X2443508Y1939145D02*
D03*
X2418108D02*
D03*
X2392708D02*
D03*
X2367308D02*
D03*
X2341908D02*
D03*
X2316508D02*
D03*
X2291108D02*
D03*
X2265708D02*
D03*
X2418108Y2112945D02*
D03*
X2392708D02*
D03*
X2367308D02*
D03*
X2341908D02*
D03*
X2316508D02*
D03*
X2291108D02*
D03*
X2265708D02*
D03*
X2443508Y2189145D02*
D03*
X2418108D02*
D03*
X2392708D02*
D03*
X2367308D02*
D03*
X2341908D02*
D03*
X2316508D02*
D03*
X2291108D02*
D03*
X2265708D02*
D03*
X2418108Y2362945D02*
D03*
X2392708D02*
D03*
X2367308D02*
D03*
X2341908D02*
D03*
X2316508D02*
D03*
X2291108D02*
D03*
X2265708D02*
D03*
X2443508Y2439145D02*
D03*
X2418108D02*
D03*
X2392708D02*
D03*
X2367308D02*
D03*
X2341908D02*
D03*
X2316508D02*
D03*
X2291108D02*
D03*
X2265708D02*
D03*
D26*
X2366058Y1721336D02*
D03*
X2346058Y1580949D02*
D03*
X2366058Y1971336D02*
D03*
X2346058Y1830949D02*
D03*
X2366058Y2221336D02*
D03*
X2346058Y2080949D02*
D03*
X2366058Y2471336D02*
D03*
X2346058Y2330949D02*
D03*
D27*
X2346058Y1721336D02*
D03*
X2366058Y1580949D02*
D03*
X2765580Y1667795D02*
D03*
X2790980Y1639795D02*
D03*
Y1667795D02*
D03*
X2684554D02*
D03*
X2709954Y1639795D02*
D03*
Y1667795D02*
D03*
X2346058Y1971336D02*
D03*
X2366058Y1830949D02*
D03*
X2765580Y1917795D02*
D03*
X2790980Y1889795D02*
D03*
Y1917795D02*
D03*
X2684554D02*
D03*
X2709954Y1889795D02*
D03*
Y1917795D02*
D03*
X2346058Y2221336D02*
D03*
X2366058Y2080949D02*
D03*
X2765580Y2167795D02*
D03*
X2790980Y2139795D02*
D03*
Y2167795D02*
D03*
X2684554D02*
D03*
X2709954Y2139795D02*
D03*
Y2167795D02*
D03*
X2346058Y2471336D02*
D03*
X2366058Y2330949D02*
D03*
X2765580Y2417795D02*
D03*
X2790980Y2389795D02*
D03*
Y2417795D02*
D03*
X2684554D02*
D03*
X2709954Y2389795D02*
D03*
Y2417795D02*
D03*
D28*
X2136422Y1678029D02*
D03*
X2135940Y1625881D02*
D03*
X2136422Y1928029D02*
D03*
X2135940Y1875881D02*
D03*
X2136422Y2178029D02*
D03*
X2135940Y2125881D02*
D03*
X2136422Y2428029D02*
D03*
X2135940Y2375881D02*
D03*
D29*
X2136422Y1713029D02*
D03*
X2135940Y1590881D02*
D03*
X2136422Y1963029D02*
D03*
X2135940Y1840881D02*
D03*
X2136422Y2213029D02*
D03*
X2135940Y2090881D02*
D03*
X2136422Y2463029D02*
D03*
X2135940Y2340881D02*
D03*
D30*
X2071398Y1746557D02*
D03*
X2295426Y1557835D02*
D03*
X2666520D02*
D03*
X2071398D02*
D03*
Y1996557D02*
D03*
X2295426Y1807835D02*
D03*
X2666520D02*
D03*
X2071398D02*
D03*
Y2246557D02*
D03*
X2295426Y2057835D02*
D03*
X2666520D02*
D03*
X2071398D02*
D03*
Y2496557D02*
D03*
X2295426Y2307835D02*
D03*
X2666520D02*
D03*
X2071398D02*
D03*
D31*
X2673886Y1727480D02*
D03*
X2610386D02*
D03*
Y1708149D02*
D03*
X2673886D02*
D03*
Y1746811D02*
D03*
X2610386D02*
D03*
X2556594Y1561645D02*
D03*
X2620094D02*
D03*
X2647216Y1640639D02*
D03*
X2583716D02*
D03*
X2647216Y1660959D02*
D03*
X2583716D02*
D03*
X2673886Y1977480D02*
D03*
X2610386D02*
D03*
Y1958149D02*
D03*
X2673886D02*
D03*
Y1996811D02*
D03*
X2610386D02*
D03*
X2556594Y1811645D02*
D03*
X2620094D02*
D03*
X2647216Y1890639D02*
D03*
X2583716D02*
D03*
X2647216Y1910959D02*
D03*
X2583716D02*
D03*
X2673886Y2227480D02*
D03*
X2610386D02*
D03*
Y2208149D02*
D03*
X2673886D02*
D03*
Y2246811D02*
D03*
X2610386D02*
D03*
X2556594Y2061645D02*
D03*
X2620094D02*
D03*
X2647216Y2140639D02*
D03*
X2583716D02*
D03*
X2647216Y2160959D02*
D03*
X2583716D02*
D03*
X2673886Y2477480D02*
D03*
X2610386D02*
D03*
Y2458149D02*
D03*
X2673886D02*
D03*
Y2496811D02*
D03*
X2610386D02*
D03*
X2556594Y2311645D02*
D03*
X2620094D02*
D03*
X2647216Y2390639D02*
D03*
X2583716D02*
D03*
X2647216Y2410959D02*
D03*
X2583716D02*
D03*
D32*
X2521232Y1560883D02*
D03*
Y1586283D02*
D03*
Y1810883D02*
D03*
Y1836283D02*
D03*
Y2060883D02*
D03*
Y2086283D02*
D03*
Y2310883D02*
D03*
Y2336283D02*
D03*
D33*
X2202208Y1626923D02*
D03*
Y1652323D02*
D03*
Y1876923D02*
D03*
Y1902323D02*
D03*
Y2126923D02*
D03*
Y2152323D02*
D03*
Y2376923D02*
D03*
Y2402323D02*
D03*
D34*
Y1677723D02*
D03*
Y1927723D02*
D03*
Y2177723D02*
D03*
Y2427723D02*
D03*
D35*
X2803172Y1612445D02*
D03*
Y1862445D02*
D03*
Y2112445D02*
D03*
Y2362445D02*
D03*
D36*
X2777772Y1612445D02*
D03*
X2752372D02*
D03*
X2726972D02*
D03*
X2701572D02*
D03*
X2676172D02*
D03*
X2650772D02*
D03*
X2625372D02*
D03*
X2599972D02*
D03*
X2574572D02*
D03*
X2549172D02*
D03*
X2523772D02*
D03*
X2498372D02*
D03*
X2472972D02*
D03*
X2803172Y1688645D02*
D03*
X2777772D02*
D03*
X2752372D02*
D03*
X2726972D02*
D03*
X2701572D02*
D03*
X2676172D02*
D03*
X2650772D02*
D03*
X2625372D02*
D03*
X2599972D02*
D03*
X2574572D02*
D03*
X2549172D02*
D03*
X2523772D02*
D03*
X2498372D02*
D03*
X2472972D02*
D03*
X2777772Y1862445D02*
D03*
X2752372D02*
D03*
X2726972D02*
D03*
X2701572D02*
D03*
X2676172D02*
D03*
X2650772D02*
D03*
X2625372D02*
D03*
X2599972D02*
D03*
X2574572D02*
D03*
X2549172D02*
D03*
X2523772D02*
D03*
X2498372D02*
D03*
X2472972D02*
D03*
X2803172Y1938645D02*
D03*
X2777772D02*
D03*
X2752372D02*
D03*
X2726972D02*
D03*
X2701572D02*
D03*
X2676172D02*
D03*
X2650772D02*
D03*
X2625372D02*
D03*
X2599972D02*
D03*
X2574572D02*
D03*
X2549172D02*
D03*
X2523772D02*
D03*
X2498372D02*
D03*
X2472972D02*
D03*
X2777772Y2112445D02*
D03*
X2752372D02*
D03*
X2726972D02*
D03*
X2701572D02*
D03*
X2676172D02*
D03*
X2650772D02*
D03*
X2625372D02*
D03*
X2599972D02*
D03*
X2574572D02*
D03*
X2549172D02*
D03*
X2523772D02*
D03*
X2498372D02*
D03*
X2472972D02*
D03*
X2803172Y2188645D02*
D03*
X2777772D02*
D03*
X2752372D02*
D03*
X2726972D02*
D03*
X2701572D02*
D03*
X2676172D02*
D03*
X2650772D02*
D03*
X2625372D02*
D03*
X2599972D02*
D03*
X2574572D02*
D03*
X2549172D02*
D03*
X2523772D02*
D03*
X2498372D02*
D03*
X2472972D02*
D03*
X2777772Y2362445D02*
D03*
X2752372D02*
D03*
X2726972D02*
D03*
X2701572D02*
D03*
X2676172D02*
D03*
X2650772D02*
D03*
X2625372D02*
D03*
X2599972D02*
D03*
X2574572D02*
D03*
X2549172D02*
D03*
X2523772D02*
D03*
X2498372D02*
D03*
X2472972D02*
D03*
X2803172Y2438645D02*
D03*
X2777772D02*
D03*
X2752372D02*
D03*
X2726972D02*
D03*
X2701572D02*
D03*
X2676172D02*
D03*
X2650772D02*
D03*
X2625372D02*
D03*
X2599972D02*
D03*
X2574572D02*
D03*
X2549172D02*
D03*
X2523772D02*
D03*
X2498372D02*
D03*
X2472972D02*
D03*
D37*
X2765580Y1639795D02*
D03*
X2684554D02*
D03*
X2765580Y1889795D02*
D03*
X2684554D02*
D03*
X2765580Y2139795D02*
D03*
X2684554D02*
D03*
X2765580Y2389795D02*
D03*
X2684554D02*
D03*
D38*
X2235553Y1752978D02*
D03*
X2423696Y1654101D02*
D03*
X2235553Y2002978D02*
D03*
X2423696Y1904101D02*
D03*
X2235553Y2252978D02*
D03*
X2423696Y2154101D02*
D03*
X2235553Y2502978D02*
D03*
X2423696Y2404101D02*
D03*
M02*
