G04*
G04 #@! TF.GenerationSoftware,Altium Limited,Altium Designer,21.4.1 (30)*
G04*
G04 Layer_Color=32896*
%FSLAX44Y44*%
%MOMM*%
G71*
G04*
G04 #@! TF.SameCoordinates,631D65B1-6611-40AA-A89E-A9A581605989*
G04*
G04*
G04 #@! TF.FilePolarity,Positive*
G04*
G01*
G75*
%ADD20C,0.2000*%
%ADD60C,0.2500*%
%ADD61C,0.2540*%
D20*
X2742780Y1618295D02*
Y1689295D01*
X2813780D02*
X2742780D01*
X2813780Y1618295D02*
Y1689295D01*
Y1618295D02*
X2742780D01*
X2661754D02*
Y1689295D01*
X2732754D02*
X2661754D01*
X2732754Y1618295D02*
Y1689295D01*
Y1618295D02*
X2661754D01*
X2742780Y1868295D02*
Y1939295D01*
X2813780D02*
X2742780D01*
X2813780Y1868295D02*
Y1939295D01*
Y1868295D02*
X2742780D01*
X2661754D02*
Y1939295D01*
X2732754D02*
X2661754D01*
X2732754Y1868295D02*
Y1939295D01*
Y1868295D02*
X2661754D01*
X2742780Y2118295D02*
Y2189295D01*
X2813780D02*
X2742780D01*
X2813780Y2118295D02*
Y2189295D01*
Y2118295D02*
X2742780D01*
X2661754D02*
Y2189295D01*
X2732754D02*
X2661754D01*
X2732754Y2118295D02*
Y2189295D01*
Y2118295D02*
X2661754D01*
X2742780Y2368295D02*
Y2439295D01*
X2813780D02*
X2742780D01*
X2813780Y2368295D02*
Y2439295D01*
Y2368295D02*
X2742780D01*
X2661754D02*
Y2439295D01*
X2732754D02*
X2661754D01*
X2732754Y2368295D02*
Y2439295D01*
Y2368295D02*
X2661754D01*
D60*
X2764330Y1612295D02*
G03*
X2764330Y1612295I1250J0D01*
G01*
X2683304D02*
G03*
X2683304Y1612295I1250J0D01*
G01*
X2764330Y1862295D02*
G03*
X2764330Y1862295I1250J0D01*
G01*
X2683304D02*
G03*
X2683304Y1862295I1250J0D01*
G01*
X2764330Y2112295D02*
G03*
X2764330Y2112295I1250J0D01*
G01*
X2683304D02*
G03*
X2683304Y2112295I1250J0D01*
G01*
X2764330Y2362295D02*
G03*
X2764330Y2362295I1250J0D01*
G01*
X2683304D02*
G03*
X2683304Y2362295I1250J0D01*
G01*
D61*
X2775737Y1645412D02*
Y1655569D01*
X2773198Y1658108D01*
X2768119D01*
X2765580Y1655569D01*
Y1645412D01*
X2768119Y1642873D01*
X2773198D01*
X2770658Y1647951D02*
X2775737Y1642873D01*
X2773198D02*
X2775737Y1645412D01*
X2790972Y1642873D02*
X2780815D01*
X2790972Y1653030D01*
Y1655569D01*
X2788433Y1658108D01*
X2783354D01*
X2780815Y1655569D01*
X2697251Y1645412D02*
Y1655569D01*
X2694712Y1658108D01*
X2689633D01*
X2687094Y1655569D01*
Y1645412D01*
X2689633Y1642873D01*
X2694712D01*
X2692173Y1647951D02*
X2697251Y1642873D01*
X2694712D02*
X2697251Y1645412D01*
X2702329Y1642873D02*
X2707408D01*
X2704868D01*
Y1658108D01*
X2702329Y1655569D01*
X2775737Y1895412D02*
Y1905569D01*
X2773198Y1908108D01*
X2768119D01*
X2765580Y1905569D01*
Y1895412D01*
X2768119Y1892873D01*
X2773198D01*
X2770658Y1897951D02*
X2775737Y1892873D01*
X2773198D02*
X2775737Y1895412D01*
X2790972Y1892873D02*
X2780815D01*
X2790972Y1903030D01*
Y1905569D01*
X2788433Y1908108D01*
X2783354D01*
X2780815Y1905569D01*
X2697251Y1895412D02*
Y1905569D01*
X2694712Y1908108D01*
X2689633D01*
X2687094Y1905569D01*
Y1895412D01*
X2689633Y1892873D01*
X2694712D01*
X2692173Y1897951D02*
X2697251Y1892873D01*
X2694712D02*
X2697251Y1895412D01*
X2702329Y1892873D02*
X2707408D01*
X2704868D01*
Y1908108D01*
X2702329Y1905569D01*
X2775737Y2145412D02*
Y2155569D01*
X2773198Y2158108D01*
X2768119D01*
X2765580Y2155569D01*
Y2145412D01*
X2768119Y2142873D01*
X2773198D01*
X2770658Y2147951D02*
X2775737Y2142873D01*
X2773198D02*
X2775737Y2145412D01*
X2790972Y2142873D02*
X2780815D01*
X2790972Y2153030D01*
Y2155569D01*
X2788433Y2158108D01*
X2783354D01*
X2780815Y2155569D01*
X2697251Y2145412D02*
Y2155569D01*
X2694712Y2158108D01*
X2689633D01*
X2687094Y2155569D01*
Y2145412D01*
X2689633Y2142873D01*
X2694712D01*
X2692173Y2147951D02*
X2697251Y2142873D01*
X2694712D02*
X2697251Y2145412D01*
X2702329Y2142873D02*
X2707408D01*
X2704868D01*
Y2158108D01*
X2702329Y2155569D01*
X2775737Y2395412D02*
Y2405569D01*
X2773198Y2408108D01*
X2768119D01*
X2765580Y2405569D01*
Y2395412D01*
X2768119Y2392873D01*
X2773198D01*
X2770658Y2397951D02*
X2775737Y2392873D01*
X2773198D02*
X2775737Y2395412D01*
X2790972Y2392873D02*
X2780815D01*
X2790972Y2403030D01*
Y2405569D01*
X2788433Y2408108D01*
X2783354D01*
X2780815Y2405569D01*
X2697251Y2395412D02*
Y2405569D01*
X2694712Y2408108D01*
X2689633D01*
X2687094Y2405569D01*
Y2395412D01*
X2689633Y2392873D01*
X2694712D01*
X2692173Y2397951D02*
X2697251Y2392873D01*
X2694712D02*
X2697251Y2395412D01*
X2702329Y2392873D02*
X2707408D01*
X2704868D01*
Y2408108D01*
X2702329Y2405569D01*
M02*
