G04*
G04 #@! TF.GenerationSoftware,Altium Limited,Altium Designer,21.4.1 (30)*
G04*
G04 Layer_Physical_Order=2*
G04 Layer_Color=16711680*
%FSLAX25Y25*%
%MOIN*%
G70*
G04*
G04 #@! TF.SameCoordinates,0925FAD0-936D-4726-9005-38EE8A2EBB20*
G04*
G04*
G04 #@! TF.FilePolarity,Positive*
G04*
G01*
G75*
%ADD10C,0.00787*%
%ADD17C,0.01181*%
%ADD21R,0.07087X0.14961*%
%ADD22R,0.03937X0.10630*%
%ADD67C,0.00669*%
%ADD69C,0.02756*%
%ADD70C,0.01968*%
%ADD71C,0.03937*%
%ADD72C,0.03150*%
%ADD74C,0.00984*%
%ADD75C,0.01575*%
%ADD79C,0.15748*%
%ADD80C,0.02756*%
%ADD81C,0.05000*%
%ADD82R,0.05906X0.03937*%
G04:AMPARAMS|DCode=83|XSize=59.06mil|YSize=39.37mil|CornerRadius=9.84mil|HoleSize=0mil|Usage=FLASHONLY|Rotation=180.000|XOffset=0mil|YOffset=0mil|HoleType=Round|Shape=RoundedRectangle|*
%AMROUNDEDRECTD83*
21,1,0.05906,0.01968,0,0,180.0*
21,1,0.03937,0.03937,0,0,180.0*
1,1,0.01968,-0.01968,0.00984*
1,1,0.01968,0.01968,0.00984*
1,1,0.01968,0.01968,-0.00984*
1,1,0.01968,-0.01968,-0.00984*
%
%ADD83ROUNDEDRECTD83*%
%ADD84C,0.05906*%
%ADD85R,0.02756X0.06693*%
G36*
X338418Y152063D02*
X338396Y152043D01*
X338146Y151891D01*
X337802Y151750D01*
X337362Y151632D01*
X336828Y151544D01*
X336204Y151489D01*
X335851Y151479D01*
X332602D01*
X331334Y152747D01*
X330783Y153170D01*
X330142Y153436D01*
X329453Y153527D01*
X307161D01*
X306472Y153436D01*
X305831Y153170D01*
X305280Y152747D01*
X300729Y148197D01*
X300260Y148666D01*
Y148947D01*
X291174D01*
Y143091D01*
X290674Y142882D01*
X286888Y146625D01*
X283686Y149827D01*
X282929Y150408D01*
X282048Y150773D01*
X281575Y150835D01*
X281102Y150897D01*
X281102Y150897D01*
X206299D01*
X206299Y150897D01*
X206299Y150897D01*
X50197D01*
X49251Y150773D01*
X48370Y150408D01*
X47614Y149827D01*
X47613Y149827D01*
X43287Y145501D01*
X41885Y144109D01*
X33463D01*
X32518Y143985D01*
X31637Y143620D01*
X30880Y143039D01*
X30299Y142282D01*
X29934Y141401D01*
X29810Y140456D01*
X29934Y139510D01*
X30299Y138629D01*
X30880Y137873D01*
X31210Y137619D01*
X31041Y137119D01*
X28915D01*
X28232Y137802D01*
X27834Y138226D01*
X27551Y138572D01*
X27441Y138725D01*
Y142795D01*
X20197D01*
Y137520D01*
X23365D01*
X23563Y137433D01*
X23795Y137302D01*
X24045Y137132D01*
X24564Y136702D01*
X27024Y134241D01*
X27571Y133876D01*
X28216Y133747D01*
X37229D01*
X37420Y133285D01*
X34354Y130220D01*
X27772D01*
Y130528D01*
X24319D01*
Y127559D01*
Y124591D01*
X27772D01*
Y124899D01*
X34646D01*
X35334Y124989D01*
X35976Y125255D01*
X36527Y125678D01*
X36950Y126229D01*
X37216Y126871D01*
X37262Y127224D01*
X39026Y128988D01*
X39488Y128796D01*
Y126469D01*
X39348Y126272D01*
X38794Y125627D01*
X22627Y109460D01*
X22261Y108913D01*
X22133Y108268D01*
Y88513D01*
X22118Y88342D01*
X22079Y88106D01*
X22029Y87923D01*
X21978Y87797D01*
X21934Y87725D01*
X21907Y87696D01*
X21897Y87690D01*
X21886Y87686D01*
X21804Y87677D01*
X20197D01*
Y82402D01*
X27441D01*
Y87677D01*
X25834D01*
X25752Y87686D01*
X25741Y87690D01*
X25731Y87696D01*
X25704Y87725D01*
X25660Y87797D01*
X25608Y87923D01*
X25559Y88106D01*
X25520Y88342D01*
X25505Y88513D01*
Y107569D01*
X42093Y124157D01*
X42293Y124334D01*
X42585Y124563D01*
X42848Y124743D01*
X43080Y124875D01*
X43186Y124921D01*
X46732D01*
Y130196D01*
X48348D01*
X57620Y120924D01*
X57666Y120571D01*
X57932Y119930D01*
X58355Y119378D01*
X58906Y118956D01*
X59548Y118690D01*
X60236Y118599D01*
X299371D01*
X299473Y118497D01*
X300272Y118036D01*
X301122Y117808D01*
Y121297D01*
X302122D01*
Y117808D01*
X302973Y118036D01*
X303771Y118497D01*
X303874Y118599D01*
X320472D01*
X321161Y118690D01*
X321803Y118956D01*
X322085Y119173D01*
X322835D01*
X322957Y119197D01*
X323204Y118736D01*
X301822Y97354D01*
X124016D01*
X124016Y97354D01*
X124016Y97354D01*
X51772D01*
X51772Y97354D01*
X51299Y97292D01*
X50826Y97230D01*
X49945Y96865D01*
X49188Y96284D01*
X49188Y96284D01*
X43287Y90382D01*
X41584Y88693D01*
X33448D01*
X32503Y88568D01*
X31622Y88203D01*
X30865Y87623D01*
X30865Y87623D01*
X30827Y87584D01*
X30246Y86828D01*
X29881Y85947D01*
X29757Y85001D01*
X29881Y84056D01*
X30246Y83174D01*
X30827Y82418D01*
X31583Y81837D01*
X32464Y81472D01*
X33410Y81348D01*
X33701Y81386D01*
X43110D01*
X43110Y81386D01*
X43583Y81448D01*
X44056Y81511D01*
X44937Y81875D01*
X45693Y82456D01*
X45757Y82520D01*
X46271Y82863D01*
X46522Y83239D01*
X49181Y85944D01*
X53285Y90048D01*
X121150D01*
Y87780D01*
X117171Y87700D01*
X115354D01*
X114666Y87609D01*
X114024Y87344D01*
X113473Y86921D01*
X113079Y86527D01*
X112656Y85976D01*
X112391Y85334D01*
X112300Y84646D01*
X112391Y83957D01*
X112656Y83315D01*
X113079Y82764D01*
X113630Y82342D01*
X114272Y82076D01*
X114961Y81985D01*
X115649Y82076D01*
X116291Y82342D01*
X116340Y82379D01*
X117803D01*
X121677Y82345D01*
X122386Y82313D01*
X122410Y82310D01*
X122977Y81875D01*
X123858Y81511D01*
X124803Y81386D01*
X125749Y81511D01*
X126630Y81875D01*
X127386Y82456D01*
X127420Y82499D01*
X127964Y82863D01*
X128329Y83410D01*
X128458Y84055D01*
Y86024D01*
X128456Y86029D01*
Y90048D01*
X202843D01*
Y87700D01*
X198845D01*
X198156Y87609D01*
X197514Y87344D01*
X196963Y86921D01*
X195153Y85110D01*
X194730Y84559D01*
X194464Y83917D01*
X194374Y83229D01*
X194464Y82540D01*
X194730Y81899D01*
X195014Y81528D01*
X194782Y81028D01*
X185517D01*
X184926Y81146D01*
X184926Y81146D01*
X184918D01*
X184042Y80972D01*
X183300Y80476D01*
X182804Y79733D01*
X182630Y78858D01*
X182804Y77982D01*
X183300Y77240D01*
X183326Y77223D01*
X183426Y77122D01*
X183426Y77122D01*
X184168Y76626D01*
X185044Y76452D01*
X185044Y76452D01*
X250421D01*
X250612Y75990D01*
X248749Y74127D01*
X210951D01*
X210782Y74142D01*
X210545Y74181D01*
X210362Y74229D01*
X210235Y74281D01*
X210163Y74324D01*
X210135Y74350D01*
X210129Y74358D01*
X210126Y74366D01*
X210118Y74444D01*
Y75079D01*
X209442D01*
X209437Y75080D01*
X209431Y75079D01*
X202874D01*
Y69803D01*
X209431D01*
X209437Y69802D01*
X209442Y69803D01*
X210118D01*
Y70438D01*
X210126Y70516D01*
X210129Y70524D01*
X210135Y70532D01*
X210163Y70558D01*
X210235Y70601D01*
X210362Y70653D01*
X210545Y70701D01*
X210782Y70740D01*
X210951Y70755D01*
X249447D01*
X250093Y70883D01*
X250640Y71249D01*
X262744Y83353D01*
X264442D01*
X264612Y83339D01*
X264849Y83300D01*
X265032Y83251D01*
X265159Y83200D01*
X265231Y83156D01*
X265259Y83130D01*
X265264Y83122D01*
X265267Y83114D01*
X265276Y83036D01*
Y82402D01*
X265951D01*
X265957Y82401D01*
X265963Y82402D01*
X272520D01*
Y87677D01*
X265963D01*
X265957Y87678D01*
X265951Y87677D01*
X265276D01*
Y87042D01*
X265267Y86964D01*
X265264Y86956D01*
X265259Y86949D01*
X265231Y86923D01*
X265159Y86879D01*
X265032Y86828D01*
X264849Y86779D01*
X264612Y86740D01*
X264442Y86725D01*
X262881D01*
X262646Y87166D01*
X262744Y87313D01*
X262918Y88189D01*
X262744Y89065D01*
X262421Y89547D01*
X262688Y90048D01*
X290441D01*
Y87746D01*
X289136D01*
X288860Y87710D01*
X286221D01*
X286172Y87700D01*
X279725D01*
X279677Y87737D01*
X279035Y88003D01*
X278346Y88094D01*
X277658Y88003D01*
X277016Y87737D01*
X276465Y87314D01*
X276042Y86763D01*
X275777Y86122D01*
X275686Y85433D01*
X275777Y84745D01*
X276042Y84103D01*
X276465Y83552D01*
X276859Y83158D01*
X277410Y82735D01*
X278052Y82469D01*
X278740Y82379D01*
X285925D01*
X285972Y82266D01*
X286553Y81509D01*
X287309Y80929D01*
X288190Y80564D01*
X289136Y80439D01*
X301622D01*
X302568Y80564D01*
X303449Y80929D01*
X304206Y81509D01*
X304786Y82266D01*
X305151Y83147D01*
X305276Y84093D01*
X305151Y85038D01*
X304786Y85919D01*
X304206Y86676D01*
X303449Y87256D01*
X302568Y87621D01*
X301622Y87746D01*
X297748D01*
Y90048D01*
X303335D01*
X303335Y90048D01*
X303808Y90110D01*
X304281Y90172D01*
X305162Y90537D01*
X305918Y91118D01*
X312714Y97913D01*
X313214Y97706D01*
Y86688D01*
X313168Y86657D01*
X313111Y86625D01*
X313054Y86599D01*
X312995Y86579D01*
X312932Y86563D01*
X312866Y86552D01*
X312795Y86546D01*
X312692Y86546D01*
X312631Y86534D01*
X312239D01*
X311487Y86222D01*
X310911Y85646D01*
X310599Y84894D01*
Y84079D01*
X310911Y83327D01*
X311196Y83041D01*
X311458Y82715D01*
X311196Y82388D01*
X310911Y82103D01*
X310599Y81350D01*
Y80536D01*
X310911Y79783D01*
X311487Y79207D01*
X312239Y78896D01*
X313053D01*
X313806Y79207D01*
X314382Y79783D01*
X314693Y80536D01*
Y80885D01*
X314706Y80945D01*
X314709Y81081D01*
X314717Y81187D01*
X314731Y81283D01*
X314749Y81367D01*
X314771Y81442D01*
X314796Y81507D01*
X314824Y81564D01*
X314855Y81614D01*
X314870Y81634D01*
X316818Y83582D01*
X316820Y83585D01*
X317320Y83433D01*
Y77426D01*
X317318Y77408D01*
X317304Y77336D01*
X317286Y77268D01*
X317263Y77203D01*
X317235Y77140D01*
X317201Y77078D01*
X317161Y77017D01*
X317114Y76955D01*
X317043Y76876D01*
X317020Y76836D01*
X316816Y76632D01*
X316504Y75880D01*
Y75065D01*
X316686Y74627D01*
X316352Y74127D01*
X292644D01*
X292475Y74142D01*
X292238Y74181D01*
X292055Y74229D01*
X291928Y74281D01*
X291856Y74324D01*
X291828Y74350D01*
X291822Y74358D01*
X291819Y74366D01*
X291811Y74444D01*
Y75079D01*
X291135D01*
X291130Y75080D01*
X291124Y75079D01*
X284567D01*
Y69803D01*
X291124D01*
X291130Y69802D01*
X291135Y69803D01*
X291811D01*
Y70438D01*
X291819Y70516D01*
X291822Y70524D01*
X291828Y70532D01*
X291856Y70558D01*
X291928Y70601D01*
X292055Y70653D01*
X292238Y70701D01*
X292475Y70740D01*
X292644Y70755D01*
X336075D01*
X337160Y69670D01*
X337163Y69415D01*
X337020Y69103D01*
X336965Y69092D01*
X336794Y68978D01*
X336604Y68899D01*
X336459Y68754D01*
X336288Y68639D01*
X336174Y68468D01*
X336028Y68323D01*
X335949Y68133D01*
X335835Y67962D01*
X335795Y67761D01*
X335717Y67571D01*
Y67365D01*
X335676Y67163D01*
X335717Y66962D01*
Y66756D01*
X335795Y66566D01*
X335835Y66365D01*
X335949Y66194D01*
X336028Y66004D01*
X336174Y65858D01*
X336288Y65687D01*
X344002Y57973D01*
X344680Y57520D01*
X345478Y57362D01*
X372441D01*
X373240Y57520D01*
X373917Y57973D01*
X374311Y58367D01*
X374425Y58538D01*
X374570Y58683D01*
X374586Y58720D01*
X375086Y58621D01*
Y29438D01*
X373913Y28265D01*
X373452Y28512D01*
X373536Y28937D01*
Y30906D01*
X373408Y31551D01*
X373042Y32098D01*
X372638Y32368D01*
X372637Y32369D01*
X372636Y32369D01*
X372629Y32374D01*
X372626Y32377D01*
X372622Y32379D01*
X372496Y32463D01*
X372398Y32483D01*
X372397Y32483D01*
X372056Y32569D01*
X371726Y32686D01*
X371375Y32844D01*
X371003Y33044D01*
X370611Y33288D01*
X370212Y33567D01*
X368857Y34709D01*
X368844Y34722D01*
X364283Y39283D01*
X363732Y39706D01*
X363090Y39972D01*
X362402Y40062D01*
X50591D01*
X49902Y39972D01*
X49260Y39706D01*
X48709Y39283D01*
X44148Y34722D01*
X44126Y34700D01*
X43670Y34286D01*
X42786Y33571D01*
X42381Y33288D01*
X41989Y33044D01*
X41617Y32844D01*
X41266Y32686D01*
X40972Y32582D01*
X33530D01*
X32842Y32491D01*
X32200Y32225D01*
X31649Y31803D01*
X31568Y31722D01*
X31146Y31171D01*
X30880Y30529D01*
X30789Y29841D01*
X30880Y29152D01*
X31146Y28510D01*
X31568Y27959D01*
X32119Y27536D01*
X32761Y27271D01*
X33450Y27180D01*
X34062Y27261D01*
X41093D01*
X41142Y27251D01*
X45079D01*
X45724Y27379D01*
X46271Y27745D01*
X46541Y28150D01*
X46542Y28150D01*
X46543Y28151D01*
X46570Y28193D01*
X46574Y28196D01*
X46575Y28200D01*
X46636Y28292D01*
X46656Y28390D01*
X46656Y28390D01*
X46742Y28732D01*
X46859Y29061D01*
X47017Y29412D01*
X47217Y29784D01*
X47461Y30176D01*
X47740Y30575D01*
X48882Y31931D01*
X48895Y31944D01*
X51693Y34741D01*
X121622D01*
X122071Y34241D01*
X122012Y33674D01*
X121937Y33243D01*
X121845Y32845D01*
X121767Y32582D01*
X115435D01*
X114747Y32491D01*
X114105Y32225D01*
X113554Y31803D01*
X113319Y31567D01*
X112896Y31016D01*
X112630Y30375D01*
X112540Y29686D01*
X112630Y28997D01*
X112896Y28356D01*
X113319Y27805D01*
X113870Y27382D01*
X114512Y27116D01*
X115200Y27025D01*
X115889Y27116D01*
X116238Y27261D01*
X122786D01*
X122835Y27251D01*
X126772D01*
X127417Y27379D01*
X127964Y27745D01*
X128329Y28292D01*
X128458Y28937D01*
Y30906D01*
X128363Y31382D01*
X128363Y31383D01*
X128362Y31384D01*
X128329Y31551D01*
X128274Y31633D01*
X128274Y31634D01*
X128116Y31899D01*
X127986Y32172D01*
X127868Y32488D01*
X127761Y32845D01*
X127670Y33243D01*
X127596Y33668D01*
X127536Y34373D01*
X127875Y34741D01*
X203314D01*
X203764Y34241D01*
X203705Y33674D01*
X203629Y33243D01*
X203538Y32845D01*
X203460Y32582D01*
X197073D01*
X196384Y32491D01*
X195742Y32225D01*
X195191Y31803D01*
X195152Y31763D01*
X194729Y31212D01*
X194463Y30571D01*
X194372Y29882D01*
X194463Y29193D01*
X194729Y28552D01*
X194810Y28446D01*
X194564Y27946D01*
X192549D01*
X191670Y28824D01*
X191328Y29193D01*
X191078Y29504D01*
X190884Y29781D01*
X190827Y29882D01*
Y32559D01*
X183583D01*
Y27283D01*
X188229D01*
X188329Y27226D01*
X188599Y27038D01*
X189190Y26536D01*
X189956Y25770D01*
X189765Y25308D01*
X112509D01*
X109938Y27880D01*
X109554Y28290D01*
X109279Y28627D01*
X109134Y28831D01*
Y32559D01*
X101890D01*
Y27283D01*
X105436D01*
X105542Y27237D01*
X105774Y27106D01*
X106029Y26931D01*
X106566Y26483D01*
X109917Y23132D01*
X109725Y22670D01*
X33454D01*
X28245Y27880D01*
X27861Y28290D01*
X27586Y28627D01*
X27441Y28831D01*
Y32559D01*
X20197D01*
Y27283D01*
X23743D01*
X23849Y27237D01*
X24081Y27106D01*
X24336Y26931D01*
X24873Y26483D01*
X31446Y19910D01*
X31290Y19444D01*
X31263Y19410D01*
X28606D01*
X28166Y19433D01*
X27848Y19469D01*
X27772Y19482D01*
Y20291D01*
X24319D01*
Y17655D01*
X25210Y18248D01*
Y18716D01*
X25252Y18713D01*
X25849Y18706D01*
X25898Y18706D01*
X26760Y19279D01*
X26787Y19169D01*
X26870Y19071D01*
X27008Y18984D01*
X27201Y18909D01*
X27449Y18845D01*
X27752Y18793D01*
X28110Y18753D01*
X28992Y18707D01*
X29516Y18701D01*
Y15945D01*
X28992Y15939D01*
X28210Y15884D01*
X28541Y15469D01*
X29544Y14382D01*
X25775Y12583D01*
X25225Y13111D01*
X24165Y14002D01*
X23656Y14364D01*
X23159Y14670D01*
X22676Y14921D01*
X22207Y15116D01*
X21750Y15255D01*
X21307Y15338D01*
X20878Y15366D01*
X23067Y16823D01*
X19866D01*
Y15201D01*
X19366Y15060D01*
X18645Y16238D01*
X17536Y17536D01*
X16238Y18645D01*
X14782Y19537D01*
X13205Y20190D01*
X11545Y20589D01*
X9843Y20722D01*
X8140Y20589D01*
X6480Y20190D01*
X4903Y19537D01*
X3447Y18645D01*
X2149Y17536D01*
X1040Y16238D01*
X500Y15356D01*
X0Y15497D01*
Y141984D01*
X500Y142125D01*
X1040Y141243D01*
X2149Y139945D01*
X3447Y138836D01*
X4903Y137944D01*
X6480Y137290D01*
X8140Y136892D01*
X9843Y136758D01*
X11545Y136892D01*
X13205Y137290D01*
X14782Y137944D01*
X16238Y138836D01*
X17536Y139945D01*
X18645Y141243D01*
X19537Y142698D01*
X20190Y144276D01*
X20589Y145936D01*
X20722Y147638D01*
X20589Y149340D01*
X20190Y151000D01*
X19537Y152577D01*
X18645Y154033D01*
X17536Y155331D01*
X16238Y156440D01*
X15356Y156980D01*
X15497Y157480D01*
X291174D01*
Y149947D01*
X300260D01*
Y157480D01*
X338418D01*
Y152063D01*
D02*
G37*
G36*
X339442Y144882D02*
X339402Y145256D01*
X339284Y145591D01*
X339086Y145886D01*
X338810Y146142D01*
X338454Y146358D01*
X338020Y146535D01*
X337507Y146673D01*
X336914Y146772D01*
X336243Y146831D01*
X335493Y146850D01*
Y150787D01*
X336243Y150807D01*
X336914Y150866D01*
X337507Y150965D01*
X338020Y151102D01*
X338454Y151279D01*
X338810Y151496D01*
X339086Y151752D01*
X339284Y152047D01*
X339402Y152382D01*
X339442Y152756D01*
Y144882D01*
D02*
G37*
G36*
X133507Y144291D02*
X130431Y144227D01*
X128900Y144114D01*
X128290Y144036D01*
X127785Y143944D01*
X127383Y143837D01*
X127085Y143716D01*
X126891Y143581D01*
X126378Y147244D01*
Y150197D01*
X133507Y144291D01*
D02*
G37*
G36*
X326415Y142550D02*
X326334Y142615D01*
X326247Y142673D01*
X326152Y142725D01*
X326051Y142769D01*
X325944Y142807D01*
X325830Y142838D01*
X325709Y142862D01*
X325582Y142879D01*
X325448Y142889D01*
X325307Y142893D01*
X325213Y144074D01*
X325354Y144078D01*
X325487Y144090D01*
X325612Y144110D01*
X325730Y144138D01*
X325840Y144174D01*
X325943Y144218D01*
X326038Y144270D01*
X326125Y144330D01*
X326204Y144398D01*
X326276Y144474D01*
X326415Y142550D01*
D02*
G37*
G36*
X315119Y144321D02*
X315208Y144266D01*
X315304Y144218D01*
X315406Y144177D01*
X315515Y144141D01*
X315630Y144113D01*
X315751Y144090D01*
X315879Y144074D01*
X316013Y144065D01*
X316153Y144061D01*
X316310Y142880D01*
X316169Y142876D01*
X316036Y142864D01*
X315911Y142843D01*
X315794Y142814D01*
X315686Y142777D01*
X315585Y142731D01*
X315493Y142677D01*
X315409Y142615D01*
X315333Y142545D01*
X315265Y142466D01*
X315036Y144382D01*
X315119Y144321D01*
D02*
G37*
G36*
X355480Y143098D02*
X354890Y142489D01*
X353974Y141416D01*
X353647Y140953D01*
X353408Y140539D01*
X353257Y140174D01*
X353194Y139857D01*
X353219Y139590D01*
X353331Y139371D01*
X353531Y139201D01*
X348650Y142114D01*
X348908Y142002D01*
X349196Y141959D01*
X349513Y141983D01*
X349859Y142076D01*
X350234Y142237D01*
X350639Y142466D01*
X351072Y142763D01*
X351535Y143128D01*
X352026Y143561D01*
X352547Y144063D01*
X355480Y143098D01*
D02*
G37*
G36*
X335093Y137720D02*
X334901Y137258D01*
X334603D01*
Y130943D01*
X333603D01*
Y137258D01*
X328697D01*
Y130943D01*
X327697D01*
Y137258D01*
X325229D01*
Y137258D01*
X324929Y136927D01*
X323613D01*
X323603Y136962D01*
X323583Y137083D01*
X323576Y137165D01*
Y142199D01*
X325520D01*
X325597Y142188D01*
X325674Y142173D01*
X325741Y142155D01*
X325800Y142134D01*
X325850Y142112D01*
X325893Y142088D01*
X325931Y142064D01*
X325988Y142018D01*
X326007Y142008D01*
X326167Y141847D01*
X326920Y141535D01*
X327734D01*
X328487Y141847D01*
X329063Y142423D01*
X329244Y142861D01*
X329834Y142979D01*
X335093Y137720D01*
D02*
G37*
G36*
X281350Y141830D02*
X281031Y141441D01*
X280622Y141715D01*
X279977Y141843D01*
X273353D01*
X273183Y141858D01*
X272946Y141897D01*
X272763Y141946D01*
X272637Y141997D01*
X272564Y142041D01*
X272536Y142067D01*
X272531Y142075D01*
X272528Y142082D01*
X272520Y142161D01*
Y142795D01*
X271844D01*
X271838Y142796D01*
X271833Y142795D01*
X265276D01*
Y137520D01*
X271833D01*
X271838Y137519D01*
X271844Y137520D01*
X272520D01*
Y138154D01*
X272528Y138233D01*
X272531Y138241D01*
X272536Y138248D01*
X272564Y138274D01*
X272637Y138318D01*
X272763Y138369D01*
X272946Y138418D01*
X273183Y138457D01*
X273353Y138472D01*
X279278D01*
X281312Y136438D01*
X281105Y135938D01*
X196761D01*
X195252Y137447D01*
X195520Y137853D01*
X196162Y137588D01*
X196850Y137497D01*
X199497D01*
X203370Y137463D01*
X204079Y137431D01*
X204103Y137428D01*
X204669Y136994D01*
X205551Y136629D01*
X206496Y136504D01*
X207442Y136629D01*
X208323Y136994D01*
X209079Y137574D01*
X209113Y137618D01*
X209657Y137981D01*
X210022Y138528D01*
X210151Y139173D01*
Y141142D01*
X210149Y141147D01*
Y143591D01*
X279589D01*
X281350Y141830D01*
D02*
G37*
G36*
X290537Y142058D02*
X285305Y138794D01*
X285260Y138853D01*
X285131Y138993D01*
X281111Y143060D01*
X284127Y148396D01*
X290537Y142058D01*
D02*
G37*
G36*
X50188Y143060D02*
X45995Y138794D01*
X40762Y142058D01*
X40843Y142124D01*
X41048Y142317D01*
X47172Y148396D01*
X50188Y143060D01*
D02*
G37*
G36*
X318645Y139299D02*
X318543Y139284D01*
X318441Y139259D01*
X318339Y139226D01*
X318237Y139184D01*
X318135Y139132D01*
X318033Y139072D01*
X317932Y139002D01*
X317830Y138923D01*
X317728Y138835D01*
X317627Y138738D01*
X316687Y139469D01*
X316784Y139571D01*
X316869Y139674D01*
X316943Y139777D01*
X317005Y139880D01*
X317056Y139983D01*
X317095Y140087D01*
X317123Y140190D01*
X317139Y140294D01*
X317143Y140397D01*
X317136Y140501D01*
X318645Y139299D01*
D02*
G37*
G36*
X202843Y142898D02*
X198864Y142818D01*
X196850D01*
X196162Y142727D01*
X195520Y142462D01*
X194969Y142039D01*
X194546Y141488D01*
X194281Y140846D01*
X194190Y140157D01*
X194281Y139469D01*
X194546Y138827D01*
X194140Y138559D01*
X191350Y141350D01*
X190827Y141699D01*
Y142795D01*
X183583D01*
Y137520D01*
X183343Y137119D01*
X127541D01*
X127493Y137261D01*
X127420Y137618D01*
X127964Y137981D01*
X128329Y138528D01*
X128458Y139173D01*
Y141142D01*
X128456Y141147D01*
Y143369D01*
X128969Y143435D01*
X130463Y143546D01*
X132640Y143591D01*
X202843D01*
Y142898D01*
D02*
G37*
G36*
X271858Y141929D02*
X271917Y141764D01*
X272016Y141618D01*
X272153Y141492D01*
X272330Y141385D01*
X272547Y141297D01*
X272803Y141229D01*
X273098Y141181D01*
X273433Y141151D01*
X273807Y141142D01*
Y139173D01*
X273433Y139163D01*
X273098Y139134D01*
X272803Y139086D01*
X272547Y139018D01*
X272330Y138930D01*
X272153Y138823D01*
X272016Y138697D01*
X271917Y138551D01*
X271858Y138386D01*
X271838Y138201D01*
Y142114D01*
X271858Y141929D01*
D02*
G37*
G36*
X346195Y141940D02*
X345930Y141825D01*
X345695Y141633D01*
X345492Y141365D01*
X345320Y141019D01*
X345180Y140597D01*
X345070Y140098D01*
X344992Y139523D01*
X344945Y138870D01*
X344930Y138141D01*
X340992D01*
X340977Y138870D01*
X340852Y140098D01*
X340742Y140597D01*
X340602Y141019D01*
X340430Y141365D01*
X340227Y141633D01*
X339992Y141825D01*
X339727Y141940D01*
X339430Y141979D01*
X346492D01*
X346195Y141940D01*
D02*
G37*
G36*
X204409Y138068D02*
X204328Y138091D01*
X204130Y138112D01*
X203388Y138145D01*
X198390Y138189D01*
Y142126D01*
X204409Y142247D01*
Y138068D01*
D02*
G37*
G36*
X122716D02*
X122635Y138091D01*
X122437Y138112D01*
X121695Y138145D01*
X116697Y138189D01*
Y142126D01*
X122716Y142247D01*
Y138068D01*
D02*
G37*
G36*
X336204Y146149D02*
X336828Y146094D01*
X337362Y146005D01*
X337802Y145887D01*
X338146Y145747D01*
X338397Y145595D01*
X338418Y145575D01*
Y140967D01*
X339866D01*
X339969Y140758D01*
X340084Y140416D01*
X340177Y139990D01*
X340295Y138828D01*
X340300Y138584D01*
Y138141D01*
X340324Y137964D01*
X339850Y137731D01*
X331923Y145658D01*
X332130Y146158D01*
X335851D01*
X336204Y146149D01*
D02*
G37*
G36*
X121150Y142898D02*
X117171Y142818D01*
X115205D01*
X114516Y142727D01*
X113874Y142462D01*
X113323Y142039D01*
X112900Y141488D01*
X112635Y140846D01*
X112544Y140157D01*
X112635Y139469D01*
X112900Y138827D01*
X113323Y138276D01*
X113874Y137853D01*
X114516Y137588D01*
X114404Y137119D01*
X112275D01*
X109862Y139532D01*
X109669Y139749D01*
X109424Y140057D01*
X109235Y140330D01*
X109134Y140506D01*
Y142795D01*
X101890D01*
Y137520D01*
X101650Y137119D01*
X45848D01*
X45774Y137337D01*
X45738Y137619D01*
X45757Y137638D01*
X46271Y137981D01*
X46522Y138357D01*
X49181Y141062D01*
X51710Y143591D01*
X121150D01*
Y142898D01*
D02*
G37*
G36*
X108346Y141173D02*
X108304Y140980D01*
X108314Y140763D01*
X108377Y140522D01*
X108491Y140255D01*
X108657Y139965D01*
X108876Y139649D01*
X109147Y139310D01*
X109469Y138945D01*
X109845Y138557D01*
X108808Y136809D01*
X108388Y137216D01*
X107641Y137852D01*
X107315Y138081D01*
X107021Y138251D01*
X106758Y138362D01*
X106528Y138414D01*
X106328Y138406D01*
X106160Y138339D01*
X106024Y138213D01*
X108441Y141341D01*
X108346Y141173D01*
D02*
G37*
G36*
X26579Y139581D02*
X26479Y139446D01*
X26447Y139270D01*
X26484Y139054D01*
X26590Y138796D01*
X26765Y138497D01*
X27009Y138157D01*
X27321Y137776D01*
X28152Y136890D01*
X25449Y136809D01*
X25103Y137141D01*
X24456Y137678D01*
X24155Y137882D01*
X23869Y138044D01*
X23598Y138163D01*
X23342Y138239D01*
X23101Y138273D01*
X22875Y138264D01*
X22665Y138213D01*
X26748Y139674D01*
X26579Y139581D01*
D02*
G37*
G36*
X322888Y137200D02*
X322906Y136997D01*
X322935Y136819D01*
X322977Y136663D01*
X323030Y136532D01*
X323095Y136425D01*
X323172Y136341D01*
X323260Y136282D01*
X323361Y136246D01*
X323473Y136234D01*
X321111D01*
X321223Y136246D01*
X321323Y136282D01*
X321412Y136341D01*
X321488Y136425D01*
X321553Y136532D01*
X321607Y136663D01*
X321648Y136819D01*
X321677Y136997D01*
X321695Y137200D01*
X321701Y137427D01*
X322882D01*
X322888Y137200D01*
D02*
G37*
G36*
X316983D02*
X317000Y136997D01*
X317030Y136819D01*
X317071Y136663D01*
X317124Y136532D01*
X317189Y136425D01*
X317266Y136341D01*
X317355Y136282D01*
X317455Y136246D01*
X317567Y136234D01*
X315205D01*
X315317Y136246D01*
X315418Y136282D01*
X315506Y136341D01*
X315583Y136425D01*
X315648Y136532D01*
X315701Y136663D01*
X315742Y136819D01*
X315772Y136997D01*
X315790Y137200D01*
X315796Y137427D01*
X316977D01*
X316983Y137200D01*
D02*
G37*
G36*
X308536Y132582D02*
X308543Y132581D01*
X309081Y132534D01*
X309681Y132518D01*
Y129368D01*
X309081Y129352D01*
X308543Y129305D01*
X308536Y129304D01*
Y127793D01*
X308505Y128093D01*
X308410Y128360D01*
X308252Y128596D01*
X308030Y128801D01*
X307746Y128974D01*
X307528Y129063D01*
X307310Y128974D01*
X307026Y128801D01*
X306804Y128596D01*
X306646Y128360D01*
X306551Y128093D01*
X306520Y127793D01*
Y129304D01*
X306513Y129305D01*
X305975Y129352D01*
X305375Y129368D01*
Y132518D01*
X305975Y132534D01*
X306513Y132581D01*
X306520Y132582D01*
Y134093D01*
X306551Y133793D01*
X306646Y133526D01*
X306804Y133289D01*
X307026Y133085D01*
X307310Y132912D01*
X307528Y132823D01*
X307746Y132912D01*
X308030Y133085D01*
X308252Y133289D01*
X308410Y133526D01*
X308505Y133793D01*
X308536Y134093D01*
Y132582D01*
D02*
G37*
G36*
X332158Y132354D02*
X332384Y132335D01*
X332910Y132321D01*
Y129565D01*
X332384Y129551D01*
X332158Y129531D01*
Y128187D01*
X332131Y128449D01*
X332048Y128683D01*
X331909Y128890D01*
X331715Y129069D01*
X331466Y129220D01*
X331162Y129344D01*
X331150Y129348D01*
X331138Y129344D01*
X330834Y129220D01*
X330585Y129069D01*
X330391Y128890D01*
X330252Y128683D01*
X330169Y128449D01*
X330142Y128187D01*
Y129531D01*
X329916Y129551D01*
X329390Y129565D01*
Y132321D01*
X329916Y132335D01*
X330142Y132354D01*
Y133699D01*
X330169Y133437D01*
X330252Y133203D01*
X330391Y132996D01*
X330585Y132817D01*
X330834Y132665D01*
X331138Y132541D01*
X331150Y132538D01*
X331162Y132541D01*
X331466Y132665D01*
X331715Y132817D01*
X331909Y132996D01*
X332048Y133203D01*
X332131Y133437D01*
X332158Y133699D01*
Y132354D01*
D02*
G37*
G36*
X367795Y138420D02*
X372766Y141521D01*
X372811Y141462D01*
X372940Y141322D01*
X376960Y137255D01*
X373944Y131919D01*
X367701Y138093D01*
X367516Y138112D01*
X366774Y138145D01*
X361775Y138189D01*
Y142126D01*
X367795Y142247D01*
Y138420D01*
D02*
G37*
G36*
X336075Y133437D02*
X336158Y133203D01*
X336296Y132996D01*
X336490Y132817D01*
X336739Y132665D01*
X337044Y132541D01*
X337403Y132445D01*
X337819Y132376D01*
X338289Y132335D01*
X338815Y132321D01*
Y129565D01*
X338289Y129551D01*
X337819Y129510D01*
X337403Y129441D01*
X337044Y129344D01*
X336739Y129220D01*
X336490Y129069D01*
X336296Y128890D01*
X336158Y128683D01*
X336075Y128449D01*
X336047Y128187D01*
Y133699D01*
X336075Y133437D01*
D02*
G37*
G36*
X368285Y130562D02*
X368950Y130009D01*
X369255Y129801D01*
X369542Y129639D01*
X369812Y129522D01*
X370063Y129452D01*
X370297Y129427D01*
X370512Y129448D01*
X370709Y129516D01*
X366941Y127716D01*
X367097Y127825D01*
X367187Y127971D01*
X367212Y128155D01*
X367171Y128377D01*
X367064Y128637D01*
X366892Y128934D01*
X366655Y129269D01*
X366352Y129642D01*
X365549Y130500D01*
X367925Y130907D01*
X368285Y130562D01*
D02*
G37*
G36*
X286592D02*
X287257Y130009D01*
X287562Y129801D01*
X287849Y129639D01*
X288119Y129522D01*
X288370Y129452D01*
X288603Y129427D01*
X288819Y129448D01*
X289016Y129516D01*
X285248Y127716D01*
X285404Y127825D01*
X285494Y127971D01*
X285519Y128155D01*
X285478Y128377D01*
X285371Y128637D01*
X285199Y128934D01*
X284962Y129269D01*
X284659Y129642D01*
X283856Y130500D01*
X286232Y130907D01*
X286592Y130562D01*
D02*
G37*
G36*
X204899D02*
X205564Y130009D01*
X205869Y129801D01*
X206156Y129639D01*
X206426Y129522D01*
X206677Y129452D01*
X206911Y129427D01*
X207126Y129448D01*
X207323Y129516D01*
X203555Y127716D01*
X203711Y127825D01*
X203801Y127971D01*
X203826Y128155D01*
X203785Y128377D01*
X203678Y128637D01*
X203506Y128934D01*
X203269Y129269D01*
X202966Y129642D01*
X202163Y130500D01*
X204540Y130907D01*
X204899Y130562D01*
D02*
G37*
G36*
X123206D02*
X123871Y130009D01*
X124176Y129801D01*
X124463Y129639D01*
X124733Y129522D01*
X124984Y129452D01*
X125218Y129427D01*
X125433Y129448D01*
X125630Y129516D01*
X121862Y127716D01*
X122018Y127825D01*
X122108Y127971D01*
X122133Y128155D01*
X122092Y128377D01*
X121985Y128637D01*
X121813Y128934D01*
X121576Y129269D01*
X121273Y129642D01*
X120470Y130500D01*
X122847Y130907D01*
X123206Y130562D01*
D02*
G37*
G36*
X39398Y130363D02*
X36614Y127558D01*
X34644Y129528D01*
X34676Y129555D01*
X35103Y129973D01*
X37449Y132311D01*
X39398Y130363D01*
D02*
G37*
G36*
X43938Y125615D02*
X43742Y125681D01*
X43527Y125701D01*
X43294Y125675D01*
X43043Y125603D01*
X42774Y125486D01*
X42487Y125323D01*
X42181Y125113D01*
X41857Y124858D01*
X41514Y124557D01*
X41154Y124211D01*
X38778Y124618D01*
X39213Y125067D01*
X39886Y125851D01*
X40125Y126186D01*
X40298Y126484D01*
X40406Y126743D01*
X40448Y126965D01*
X40424Y127148D01*
X40336Y127294D01*
X40181Y127402D01*
X43938Y125615D01*
D02*
G37*
G36*
X360241Y142688D02*
X359693Y142462D01*
X359142Y142039D01*
X358355Y141251D01*
X357932Y140700D01*
X357666Y140059D01*
X357576Y139370D01*
X357666Y138681D01*
X357932Y138040D01*
X358355Y137489D01*
X358906Y137066D01*
X359548Y136800D01*
X360236Y136709D01*
X360925Y136800D01*
X361566Y137066D01*
X362118Y137489D01*
X362126Y137497D01*
X362883D01*
X366756Y137463D01*
X367396Y137434D01*
X371183Y133690D01*
X374300Y130573D01*
Y125287D01*
X374004Y125068D01*
X373504Y125320D01*
Y130197D01*
X370674D01*
X370673Y130197D01*
X370673Y130197D01*
X369971D01*
X369846Y130251D01*
X369615Y130381D01*
X369361Y130554D01*
X368825Y131000D01*
X366743Y133082D01*
X366196Y133447D01*
X365551Y133576D01*
X347840D01*
X347649Y134038D01*
X347683Y134071D01*
X348143Y134870D01*
X348371Y135721D01*
X344882D01*
Y136721D01*
X348371D01*
X348264Y137123D01*
X348568Y137520D01*
X354213D01*
Y140568D01*
X354223Y140586D01*
X354513Y140997D01*
X355282Y141897D01*
X356573Y143188D01*
X360141D01*
X360241Y142688D01*
D02*
G37*
G36*
X313051Y145058D02*
X313014Y145043D01*
X312438Y144467D01*
X312126Y143714D01*
Y142900D01*
X312438Y142147D01*
X313014Y141571D01*
X313766Y141260D01*
X314580D01*
X315333Y141571D01*
X315866Y142105D01*
X315868Y142106D01*
X315899Y142124D01*
X315938Y142142D01*
X315988Y142159D01*
X316049Y142174D01*
X316122Y142186D01*
X316472D01*
X316709Y141686D01*
X316457Y141077D01*
Y140465D01*
X316456Y140455D01*
X316457Y140436D01*
Y140348D01*
X316454Y140331D01*
X316445Y140296D01*
X316429Y140255D01*
X316406Y140208D01*
X316373Y140153D01*
X316329Y140093D01*
X315478Y139241D01*
X315199Y138824D01*
X315102Y138333D01*
Y137165D01*
X315094Y137083D01*
X315075Y136962D01*
X315065Y136927D01*
X313748D01*
Y124959D01*
X319024D01*
Y136927D01*
X317707D01*
X317698Y136962D01*
X317678Y137083D01*
X317671Y137165D01*
Y137801D01*
X318273Y138403D01*
X318334Y138450D01*
X318401Y138496D01*
X318464Y138534D01*
X318522Y138563D01*
X318576Y138586D01*
X318626Y138602D01*
X318671Y138613D01*
X318735Y138622D01*
X318911D01*
X319664Y138934D01*
X320239Y139510D01*
X320507Y140156D01*
X321007Y140056D01*
Y137165D01*
X321000Y137083D01*
X320980Y136962D01*
X320971Y136927D01*
X319654D01*
Y124959D01*
X322928D01*
X323120Y124497D01*
X322020Y123397D01*
X321803Y123564D01*
X321161Y123830D01*
X320472Y123920D01*
X303949D01*
X303771Y124098D01*
X303147Y124459D01*
X303281Y124959D01*
X307213D01*
Y127630D01*
X307471Y127822D01*
X307678Y127748D01*
X307843Y127630D01*
Y124959D01*
X313119D01*
Y136927D01*
X307843D01*
Y134255D01*
X307585Y134064D01*
X307378Y134138D01*
X307213Y134255D01*
Y136927D01*
X301937D01*
Y125297D01*
X301937Y124959D01*
X301504Y124797D01*
X301162D01*
X300272Y124559D01*
X299473Y124098D01*
X299296Y123920D01*
X271558D01*
Y124591D01*
X272850D01*
Y127059D01*
X268898D01*
X264945D01*
Y124591D01*
X266237D01*
Y123920D01*
X194393D01*
Y124899D01*
X195472D01*
X195520Y124861D01*
X196162Y124595D01*
X196850Y124505D01*
X197539Y124595D01*
X198181Y124861D01*
X198732Y125284D01*
X199154Y125835D01*
X199420Y126477D01*
X199511Y127165D01*
X199420Y127854D01*
X199154Y128496D01*
X198732Y129047D01*
X198468Y129310D01*
X198652Y129810D01*
X201861D01*
X202066Y129605D01*
X202451Y129193D01*
X202725Y128856D01*
X202874Y128646D01*
Y127681D01*
X202874Y127680D01*
X202874Y127679D01*
Y124921D01*
X210118D01*
Y130197D01*
X207289D01*
X207287Y130197D01*
X207287Y130197D01*
X206585D01*
X206460Y130251D01*
X206229Y130381D01*
X205975Y130554D01*
X205439Y131000D01*
X204335Y132104D01*
X204527Y132566D01*
X280798D01*
X283759Y129605D01*
X284144Y129193D01*
X284418Y128856D01*
X284567Y128646D01*
Y127681D01*
X284567Y127680D01*
X284567Y127679D01*
Y124921D01*
X291811D01*
Y130197D01*
X288981D01*
X288980Y130197D01*
X288980Y130197D01*
X288278D01*
X288153Y130251D01*
X287922Y130381D01*
X287668Y130554D01*
X287132Y131000D01*
X284974Y133159D01*
X285181Y133659D01*
X296762D01*
X297407Y133787D01*
X297954Y134153D01*
X309360Y145558D01*
X312951D01*
X313051Y145058D01*
D02*
G37*
G36*
X188650Y130990D02*
X188458Y130528D01*
X187705D01*
Y127559D01*
Y124591D01*
X189072D01*
Y123920D01*
X112897D01*
Y124899D01*
X114961D01*
X115649Y124989D01*
X116291Y125255D01*
X116842Y125678D01*
X117265Y126229D01*
X117531Y126871D01*
X117621Y127559D01*
X117531Y128248D01*
X117265Y128889D01*
X116842Y129440D01*
X116499Y129704D01*
X116668Y130204D01*
X119774D01*
X120373Y129605D01*
X120758Y129193D01*
X121032Y128856D01*
X121181Y128646D01*
Y127681D01*
X121181Y127680D01*
X121181Y127679D01*
Y124921D01*
X128425D01*
Y130197D01*
X125596D01*
X125594Y130197D01*
X125594Y130197D01*
X124892D01*
X124767Y130251D01*
X124536Y130381D01*
X124282Y130554D01*
X123746Y131000D01*
X121665Y133082D01*
X121417Y133247D01*
X121569Y133747D01*
X185892D01*
X188650Y130990D01*
D02*
G37*
G36*
X109108Y131028D02*
X108901Y130528D01*
X106012D01*
Y127559D01*
Y124591D01*
X107576D01*
Y123920D01*
X60528D01*
X51163Y133285D01*
X51354Y133747D01*
X106388D01*
X109108Y131028D01*
D02*
G37*
G36*
X330154Y125640D02*
X329946Y125620D01*
X329719Y125562D01*
X329473Y125465D01*
X329208Y125328D01*
X328924Y125153D01*
X328620Y124938D01*
X327956Y124393D01*
X327595Y124062D01*
X327215Y123691D01*
X324292Y124666D01*
X324863Y125256D01*
X325754Y126304D01*
X326075Y126760D01*
X326311Y127172D01*
X326464Y127540D01*
X326534Y127863D01*
X326520Y128141D01*
X326422Y128374D01*
X326241Y128563D01*
X330154Y125640D01*
D02*
G37*
G36*
X60237Y123228D02*
X58268Y121259D01*
X58240Y121290D01*
X57822Y121718D01*
X55484Y124063D01*
X57433Y126012D01*
X60237Y123228D01*
D02*
G37*
G36*
X340983Y115627D02*
X340813Y115194D01*
X340772Y115061D01*
X340711Y114811D01*
X340693Y114694D01*
X340681Y114583D01*
X340677Y114478D01*
X339890Y114174D01*
X339884Y114301D01*
X339864Y114421D01*
X339832Y114534D01*
X339787Y114639D01*
X339728Y114737D01*
X339657Y114829D01*
X339573Y114912D01*
X339476Y114989D01*
X339366Y115059D01*
X339243Y115121D01*
X341055Y115782D01*
X340983Y115627D01*
D02*
G37*
G36*
X337993Y117335D02*
X337764Y116783D01*
Y115969D01*
X338076Y115216D01*
X338652Y114640D01*
X338807Y114576D01*
X338865Y114379D01*
X338696Y114168D01*
X338412Y114035D01*
X338392Y114034D01*
X338250Y114093D01*
X337436D01*
X336683Y113781D01*
X336438Y113536D01*
X336389Y113505D01*
X336313Y113433D01*
X336256Y113386D01*
X336198Y113347D01*
X336140Y113313D01*
X336081Y113286D01*
X336020Y113263D01*
X335955Y113245D01*
X335885Y113232D01*
X335866Y113230D01*
X328737D01*
X328530Y113730D01*
X329009Y114208D01*
X329589Y114965D01*
X329596Y114981D01*
X332450Y117835D01*
X337721D01*
X337993Y117335D01*
D02*
G37*
G36*
X336859Y111081D02*
X336764Y111170D01*
X336665Y111251D01*
X336563Y111322D01*
X336456Y111383D01*
X336345Y111435D01*
X336230Y111478D01*
X336111Y111511D01*
X335988Y111534D01*
X335860Y111548D01*
X335729Y111553D01*
Y112537D01*
X335860Y112542D01*
X335988Y112556D01*
X336111Y112580D01*
X336230Y112613D01*
X336345Y112655D01*
X336456Y112707D01*
X336563Y112769D01*
X336665Y112840D01*
X336764Y112920D01*
X336859Y113010D01*
Y111081D01*
D02*
G37*
G36*
X357891Y111606D02*
X357811Y111507D01*
X357740Y111404D01*
X357678Y111297D01*
X357626Y111186D01*
X357584Y111071D01*
X357551Y110952D01*
X357527Y110829D01*
X357513Y110702D01*
X357508Y110571D01*
X356524D01*
X356519Y110702D01*
X356505Y110829D01*
X356482Y110952D01*
X356448Y111071D01*
X356406Y111186D01*
X356354Y111297D01*
X356293Y111404D01*
X356222Y111507D01*
X356141Y111606D01*
X356051Y111700D01*
X357981D01*
X357891Y111606D01*
D02*
G37*
G36*
X353183Y106337D02*
X353053Y106333D01*
X352926Y106320D01*
X352804Y106298D01*
X352685Y106265D01*
X352569Y106224D01*
X352458Y106173D01*
X352350Y106112D01*
X352247Y106041D01*
X352147Y105961D01*
X352050Y105872D01*
X351355Y106568D01*
X351444Y106664D01*
X351524Y106764D01*
X351594Y106868D01*
X351655Y106975D01*
X351706Y107087D01*
X351748Y107202D01*
X351780Y107321D01*
X351803Y107444D01*
X351816Y107570D01*
X351819Y107701D01*
X353183Y106337D01*
D02*
G37*
G36*
X338480Y107015D02*
X338579Y106934D01*
X338682Y106863D01*
X338788Y106802D01*
X338899Y106750D01*
X339014Y106708D01*
X339133Y106674D01*
X339257Y106651D01*
X339384Y106637D01*
X339515Y106632D01*
Y105648D01*
X339384Y105643D01*
X339257Y105629D01*
X339133Y105605D01*
X339014Y105572D01*
X338899Y105530D01*
X338788Y105478D01*
X338682Y105416D01*
X338579Y105345D01*
X338480Y105265D01*
X338385Y105175D01*
Y107104D01*
X338480Y107015D01*
D02*
G37*
G36*
X349922Y99019D02*
X349832Y98923D01*
X349752Y98823D01*
X349682Y98719D01*
X349621Y98611D01*
X349570Y98500D01*
X349528Y98385D01*
X349496Y98266D01*
X349474Y98143D01*
X349460Y98016D01*
X349457Y97886D01*
X348093Y99250D01*
X348223Y99253D01*
X348350Y99266D01*
X348473Y99289D01*
X348592Y99321D01*
X348707Y99363D01*
X348818Y99414D01*
X348926Y99475D01*
X349030Y99545D01*
X349130Y99625D01*
X349226Y99715D01*
X349922Y99019D01*
D02*
G37*
G36*
X348065Y96494D02*
X347935Y96491D01*
X347808Y96478D01*
X347686Y96455D01*
X347567Y96423D01*
X347451Y96381D01*
X347340Y96330D01*
X347232Y96269D01*
X347129Y96199D01*
X347028Y96119D01*
X346932Y96029D01*
X346236Y96725D01*
X346326Y96821D01*
X346406Y96921D01*
X346476Y97025D01*
X346537Y97133D01*
X346588Y97244D01*
X346630Y97360D01*
X346662Y97478D01*
X346685Y97601D01*
X346698Y97728D01*
X346701Y97858D01*
X348065Y96494D01*
D02*
G37*
G36*
X319509Y95871D02*
X319412Y95790D01*
X319324Y95703D01*
X319248Y95610D01*
X319181Y95511D01*
X319124Y95407D01*
X319078Y95297D01*
X319042Y95181D01*
X319017Y95060D01*
X319001Y94932D01*
X318996Y94799D01*
X318012Y94928D01*
X318008Y95058D01*
X317995Y95185D01*
X317974Y95309D01*
X317945Y95431D01*
X317907Y95550D01*
X317862Y95666D01*
X317807Y95780D01*
X317745Y95891D01*
X317674Y95999D01*
X317594Y96105D01*
X319509Y95871D01*
D02*
G37*
G36*
X24813Y88590D02*
X24843Y88256D01*
X24892Y87960D01*
X24961Y87704D01*
X25049Y87488D01*
X25157Y87311D01*
X25285Y87173D01*
X25433Y87075D01*
X25600Y87016D01*
X25787Y86996D01*
X21850D01*
X22037Y87016D01*
X22205Y87075D01*
X22352Y87173D01*
X22480Y87311D01*
X22589Y87488D01*
X22677Y87704D01*
X22746Y87960D01*
X22795Y88256D01*
X22825Y88590D01*
X22835Y88964D01*
X24803D01*
X24813Y88590D01*
D02*
G37*
G36*
X314503Y85600D02*
X314414Y85504D01*
X314334Y85404D01*
X314263Y85300D01*
X314201Y85193D01*
X314149Y85082D01*
X314105Y84966D01*
X314071Y84847D01*
X314046Y84724D01*
X314031Y84597D01*
X314024Y84466D01*
X312694Y85864D01*
X312824Y85864D01*
X312950Y85874D01*
X313072Y85895D01*
X313191Y85925D01*
X313306Y85965D01*
X313418Y86015D01*
X313525Y86075D01*
X313629Y86145D01*
X313729Y86224D01*
X313826Y86314D01*
X314503Y85600D01*
D02*
G37*
G36*
X345021Y118096D02*
X345537Y117882D01*
X345902Y117731D01*
X346375Y117669D01*
X346848Y117606D01*
X346848Y117606D01*
X374300D01*
Y94624D01*
X370058Y90382D01*
X367461Y87804D01*
X362250Y87700D01*
X360236D01*
X359548Y87609D01*
X358906Y87344D01*
X358355Y86921D01*
X357932Y86370D01*
X357666Y85728D01*
X357576Y85039D01*
X357659Y84409D01*
X357546Y84299D01*
X357207Y84154D01*
X355129Y86231D01*
X354582Y86597D01*
X354213Y86671D01*
Y87677D01*
X346969D01*
Y82402D01*
X354190D01*
X360125Y76467D01*
Y68415D01*
X357569Y65859D01*
X356495D01*
X356312Y66359D01*
X356635Y66780D01*
X356901Y67422D01*
X356991Y68110D01*
Y68701D01*
X356901Y69389D01*
X356635Y70031D01*
X356212Y70582D01*
X355789Y71005D01*
X355273Y71538D01*
X354917Y71941D01*
X354015D01*
X354076Y71863D01*
X354772Y71074D01*
X355723Y70093D01*
X352547Y67701D01*
X351958Y68282D01*
X349787Y70183D01*
X349508Y70362D01*
X349280Y70474D01*
X349104Y70519D01*
X348980Y70496D01*
X351530Y71941D01*
X350591D01*
Y72441D01*
X350091D01*
Y75410D01*
X346638D01*
Y72158D01*
X346176Y71966D01*
X345325Y72817D01*
X345325Y72817D01*
X342129Y76013D01*
Y90247D01*
X347519Y95637D01*
X347534Y95649D01*
X347592Y95689D01*
X347651Y95722D01*
X347710Y95749D01*
X347772Y95772D01*
X347836Y95789D01*
X347905Y95802D01*
X347979Y95809D01*
X348083Y95812D01*
X348140Y95825D01*
X348486D01*
X349239Y96136D01*
X349815Y96712D01*
X350126Y97465D01*
Y97811D01*
X350139Y97868D01*
X350142Y97972D01*
X350149Y98046D01*
X350162Y98115D01*
X350180Y98179D01*
X350202Y98241D01*
X350229Y98300D01*
X350262Y98359D01*
X350302Y98417D01*
X350314Y98432D01*
X357853Y105972D01*
X357853Y105972D01*
X358110Y106356D01*
X358200Y106809D01*
Y110708D01*
X358202Y110727D01*
X358216Y110796D01*
X358234Y110861D01*
X358257Y110923D01*
X358284Y110982D01*
X358317Y111040D01*
X358357Y111097D01*
X358404Y111155D01*
X358476Y111231D01*
X358507Y111280D01*
X358752Y111525D01*
X359063Y112277D01*
Y113092D01*
X358752Y113844D01*
X358176Y114420D01*
X357423Y114732D01*
X356609D01*
X355856Y114420D01*
X355280Y113844D01*
X354969Y113092D01*
Y112277D01*
X355280Y111525D01*
X355525Y111280D01*
X355556Y111231D01*
X355628Y111155D01*
X355675Y111097D01*
X355715Y111040D01*
X355748Y110982D01*
X355776Y110923D01*
X355799Y110862D01*
X355817Y110796D01*
X355830Y110727D01*
X355832Y110708D01*
Y107658D01*
X355815Y107629D01*
X355745Y107590D01*
X355244Y107886D01*
Y108122D01*
X354933Y108874D01*
X354357Y109450D01*
X353604Y109762D01*
X352790D01*
X352038Y109450D01*
X351462Y108874D01*
X351150Y108122D01*
Y107775D01*
X351137Y107719D01*
X351134Y107614D01*
X351127Y107541D01*
X351114Y107472D01*
X351097Y107407D01*
X351075Y107346D01*
X351064Y107324D01*
X339378D01*
X339359Y107326D01*
X339289Y107339D01*
X339224Y107357D01*
X339163Y107380D01*
X339104Y107408D01*
X339046Y107441D01*
X338988Y107481D01*
X338978Y107489D01*
X338925Y107583D01*
X338871Y108088D01*
X341050Y110268D01*
X341285Y110619D01*
X341368Y111034D01*
X341368Y111034D01*
Y114587D01*
X341370Y114605D01*
X341381Y114676D01*
X341430Y114879D01*
X341458Y114968D01*
X341611Y115359D01*
X341674Y115496D01*
X341690Y115563D01*
X341859Y115969D01*
Y116783D01*
X341631Y117335D01*
X341902Y117835D01*
X343668D01*
X344614Y117959D01*
X344994Y118117D01*
X345021Y118096D01*
D02*
G37*
G36*
X376960Y87942D02*
X372766Y83676D01*
X367795Y86777D01*
Y82950D01*
X367713Y82973D01*
X367516Y82994D01*
X366774Y83027D01*
X361775Y83071D01*
Y87008D01*
X367744Y87128D01*
X367819Y87199D01*
X373944Y93278D01*
X376960Y87942D01*
D02*
G37*
G36*
X50188D02*
X45995Y83676D01*
X40762Y86940D01*
X40843Y87006D01*
X41048Y87199D01*
X47172Y93278D01*
X50188Y87942D01*
D02*
G37*
G36*
X265957Y83083D02*
X265937Y83268D01*
X265878Y83433D01*
X265780Y83579D01*
X265642Y83705D01*
X265465Y83812D01*
X265248Y83900D01*
X264992Y83968D01*
X264697Y84016D01*
X264362Y84045D01*
X263988Y84055D01*
Y86024D01*
X264362Y86033D01*
X264697Y86063D01*
X264992Y86111D01*
X265248Y86179D01*
X265465Y86267D01*
X265642Y86374D01*
X265780Y86500D01*
X265878Y86646D01*
X265937Y86811D01*
X265957Y86996D01*
Y83083D01*
D02*
G37*
G36*
X122716Y82950D02*
X122635Y82973D01*
X122437Y82994D01*
X121695Y83027D01*
X116697Y83071D01*
Y87008D01*
X122716Y87129D01*
Y82950D01*
D02*
G37*
G36*
X378345Y156980D02*
X377463Y156440D01*
X376165Y155331D01*
X375056Y154033D01*
X374164Y152577D01*
X373511Y151000D01*
X373112Y149340D01*
X372978Y147638D01*
X373112Y145936D01*
X373511Y144276D01*
X374164Y142698D01*
X375056Y141243D01*
X376165Y139945D01*
X377463Y138836D01*
X378919Y137944D01*
X380496Y137290D01*
X382156Y136892D01*
X383858Y136758D01*
X385560Y136892D01*
X387220Y137290D01*
X388798Y137944D01*
X390253Y138836D01*
X391552Y139945D01*
X392660Y141243D01*
X393201Y142125D01*
X393701Y141984D01*
Y15497D01*
X393201Y15356D01*
X392660Y16238D01*
X391552Y17536D01*
X390253Y18645D01*
X388798Y19537D01*
X387220Y20190D01*
X385560Y20589D01*
X383858Y20722D01*
X382156Y20589D01*
X380496Y20190D01*
X378919Y19537D01*
X377463Y18645D01*
X376165Y17536D01*
X375056Y16238D01*
X374164Y14782D01*
X373511Y13205D01*
X373112Y11545D01*
X372978Y9843D01*
X373112Y8140D01*
X373511Y6480D01*
X374164Y4903D01*
X375056Y3447D01*
X376165Y2149D01*
X377463Y1040D01*
X378345Y500D01*
X378204Y0D01*
X15497D01*
X15356Y500D01*
X16238Y1040D01*
X17536Y2149D01*
X18645Y3447D01*
X19537Y4903D01*
X20190Y6480D01*
X20589Y8140D01*
X20722Y9843D01*
X20589Y11545D01*
X20190Y13205D01*
X19921Y13854D01*
X20255Y14354D01*
X22261D01*
X22388Y14302D01*
X22822Y14076D01*
X23279Y13795D01*
X23748Y13462D01*
X24769Y12604D01*
X24943Y12436D01*
X28237Y9142D01*
X28788Y8720D01*
X29430Y8454D01*
X30118Y8363D01*
X344291D01*
X344980Y8454D01*
X345622Y8720D01*
X346173Y9142D01*
X349282Y12252D01*
X350166Y13067D01*
X350655Y13457D01*
X351131Y13795D01*
X351587Y14076D01*
X352022Y14302D01*
X352148Y14354D01*
X354543D01*
Y14662D01*
X358857D01*
X358906Y14625D01*
X359548Y14359D01*
X360236Y14269D01*
X360925Y14359D01*
X361566Y14625D01*
X362118Y15048D01*
X362540Y15599D01*
X362806Y16240D01*
X362897Y16929D01*
X362806Y17618D01*
X362540Y18259D01*
X362118Y18810D01*
X361724Y19204D01*
X361173Y19627D01*
X360531Y19893D01*
X360643Y20361D01*
X364459D01*
X365452Y19369D01*
X365837Y18957D01*
X366111Y18620D01*
X366260Y18410D01*
Y17445D01*
X366260Y17444D01*
X366260Y17443D01*
Y14685D01*
X373504D01*
Y19961D01*
X370674D01*
X370673Y19961D01*
X370673Y19961D01*
X369971D01*
X369846Y20015D01*
X369615Y20145D01*
X369361Y20318D01*
X368825Y20764D01*
X366578Y23011D01*
X366785Y23511D01*
X373228D01*
X373873Y23639D01*
X374420Y24005D01*
X377964Y27548D01*
X378329Y28095D01*
X378458Y28740D01*
Y66535D01*
X378329Y67181D01*
X377964Y67728D01*
X374347Y71344D01*
X374005Y71712D01*
X373755Y72024D01*
X373561Y72301D01*
X373504Y72401D01*
Y75079D01*
X366260D01*
Y69803D01*
X370906D01*
X371006Y69746D01*
X371276Y69557D01*
X371867Y69056D01*
X375086Y65837D01*
Y61064D01*
X374586Y60965D01*
X374570Y61002D01*
X374425Y61148D01*
X374311Y61318D01*
X374140Y61433D01*
X373994Y61578D01*
X373804Y61657D01*
X373633Y61771D01*
X373432Y61811D01*
X373242Y61890D01*
X373036D01*
X372835Y61930D01*
X372633Y61890D01*
X372427D01*
X372237Y61811D01*
X372036Y61771D01*
X371865Y61657D01*
X371675Y61578D01*
X371633Y61536D01*
X346343D01*
X345854Y62025D01*
X346045Y62487D01*
X358268D01*
X358913Y62616D01*
X359460Y62981D01*
X363003Y66524D01*
X363369Y67071D01*
X363497Y67716D01*
Y77165D01*
X363369Y77811D01*
X363003Y78357D01*
X359351Y82010D01*
X359496Y82350D01*
X359606Y82462D01*
X360236Y82379D01*
X362882D01*
X366756Y82345D01*
X367465Y82313D01*
X367489Y82310D01*
X368055Y81875D01*
X368936Y81511D01*
X369882Y81386D01*
X370827Y81511D01*
X371708Y81875D01*
X372465Y82456D01*
X372529Y82520D01*
X373042Y82863D01*
X373294Y83239D01*
X375953Y85944D01*
X380536Y90527D01*
X380536Y90527D01*
X381117Y91284D01*
X381482Y92165D01*
X381606Y93110D01*
X381606Y93110D01*
Y119685D01*
Y132087D01*
X381606Y132087D01*
X381482Y133032D01*
X381117Y133913D01*
X380536Y134670D01*
X380536Y134670D01*
X375209Y139997D01*
X373434Y141792D01*
X373335Y141901D01*
X373311Y141932D01*
X373042Y142334D01*
X372529Y142677D01*
X372465Y142741D01*
X371708Y143321D01*
X370827Y143686D01*
X369882Y143811D01*
X368936Y143686D01*
X368055Y143321D01*
X367537Y142924D01*
X362250Y142818D01*
X361853D01*
X361424Y143318D01*
X361429Y143347D01*
X361600Y143461D01*
X361790Y143540D01*
X361935Y143685D01*
X362106Y143800D01*
X362220Y143971D01*
X362366Y144116D01*
X362444Y144306D01*
X362558Y144477D01*
X362598Y144678D01*
X362677Y144868D01*
Y145074D01*
X362717Y145276D01*
X362677Y145477D01*
Y145683D01*
X362598Y145873D01*
X362558Y146074D01*
X362444Y146245D01*
X362366Y146435D01*
X362220Y146581D01*
X362106Y146752D01*
X361935Y146866D01*
X361790Y147011D01*
X361600Y147090D01*
X361429Y147204D01*
X361227Y147244D01*
X361037Y147323D01*
X360832D01*
X360630Y147363D01*
X355709D01*
X354910Y147204D01*
X354233Y146752D01*
X351402Y143921D01*
X351097Y143652D01*
X350667Y143313D01*
X350277Y143045D01*
X349931Y142849D01*
X349804Y142795D01*
X348664D01*
X348660Y142796D01*
X348654Y142795D01*
X347504D01*
Y148947D01*
X342961D01*
Y149947D01*
X347504D01*
Y157480D01*
X378204D01*
X378345Y156980D01*
D02*
G37*
G36*
X258753Y89547D02*
X250233Y81028D01*
X207530D01*
X207442Y81511D01*
X208323Y81875D01*
X209079Y82456D01*
X209113Y82499D01*
X209657Y82863D01*
X210022Y83410D01*
X210151Y84055D01*
Y86024D01*
X210149Y86029D01*
Y90048D01*
X258545D01*
X258753Y89547D01*
D02*
G37*
G36*
X314443Y82183D02*
X314362Y82094D01*
X314290Y81997D01*
X314226Y81893D01*
X314171Y81782D01*
X314125Y81663D01*
X314087Y81537D01*
X314058Y81403D01*
X314038Y81262D01*
X314027Y81113D01*
X314024Y80957D01*
X312660Y82321D01*
X312816Y82324D01*
X312965Y82335D01*
X313106Y82355D01*
X313240Y82384D01*
X313366Y82422D01*
X313485Y82468D01*
X313597Y82523D01*
X313701Y82586D01*
X313797Y82659D01*
X313886Y82740D01*
X314443Y82183D01*
D02*
G37*
G36*
X335540Y106997D02*
X335354Y106547D01*
Y105733D01*
X335666Y104980D01*
X336242Y104404D01*
X336994Y104093D01*
X337808D01*
X338561Y104404D01*
X338806Y104649D01*
X338855Y104680D01*
X338931Y104752D01*
X338988Y104799D01*
X339046Y104839D01*
X339104Y104872D01*
X339163Y104899D01*
X339224Y104922D01*
X339289Y104940D01*
X339359Y104954D01*
X339378Y104956D01*
X351622D01*
X352076Y105046D01*
X352460Y105303D01*
X352637Y105480D01*
X352652Y105492D01*
X352710Y105531D01*
X352769Y105564D01*
X352829Y105592D01*
X352890Y105614D01*
X352955Y105631D01*
X353023Y105644D01*
X353097Y105652D01*
X353202Y105655D01*
X353258Y105667D01*
X353493D01*
X353698Y105344D01*
X353738Y105205D01*
X348639Y100107D01*
X348624Y100095D01*
X348566Y100055D01*
X348507Y100022D01*
X348448Y99995D01*
X348386Y99972D01*
X348322Y99955D01*
X348253Y99942D01*
X348179Y99935D01*
X348075Y99932D01*
X348018Y99919D01*
X347672D01*
X346919Y99608D01*
X346343Y99032D01*
X346032Y98279D01*
Y97933D01*
X346019Y97876D01*
X346016Y97772D01*
X346009Y97698D01*
X345996Y97629D01*
X345979Y97565D01*
X345956Y97504D01*
X345929Y97444D01*
X345896Y97385D01*
X345856Y97327D01*
X345844Y97312D01*
X340107Y91575D01*
X339851Y91191D01*
X339761Y90738D01*
Y76615D01*
X320545D01*
X320526Y76617D01*
X320459Y76631D01*
X320396Y76649D01*
X320338Y76671D01*
X320282Y76698D01*
X320228Y76731D01*
X320174Y76770D01*
X320120Y76816D01*
X320048Y76889D01*
X319996Y76923D01*
X319996Y76923D01*
X319961Y76975D01*
X319888Y77047D01*
X319842Y77100D01*
X319803Y77154D01*
X319771Y77207D01*
X319744Y77263D01*
X319721Y77321D01*
X319704Y77382D01*
X319690Y77450D01*
X319688Y77469D01*
Y94928D01*
X319690Y94948D01*
X319703Y95009D01*
X319720Y95063D01*
X319741Y95112D01*
X319765Y95157D01*
X319794Y95200D01*
X319812Y95222D01*
X319831Y95230D01*
X320407Y95806D01*
X320718Y96558D01*
Y97372D01*
X320407Y98125D01*
X319831Y98701D01*
X319381Y98887D01*
X319261Y99474D01*
X327284Y107497D01*
X335210D01*
X335540Y106997D01*
D02*
G37*
G36*
X319001Y77472D02*
X319016Y77345D01*
X319040Y77222D01*
X319074Y77104D01*
X319117Y76990D01*
X319171Y76881D01*
X319234Y76776D01*
X319307Y76676D01*
X319389Y76580D01*
X319481Y76489D01*
X317553Y76423D01*
X317641Y76521D01*
X317719Y76622D01*
X317787Y76728D01*
X317847Y76837D01*
X317897Y76949D01*
X317938Y77066D01*
X317971Y77186D01*
X317993Y77309D01*
X318007Y77436D01*
X318012Y77567D01*
X318996Y77604D01*
X319001Y77472D01*
D02*
G37*
G36*
X319656Y76315D02*
X319752Y76233D01*
X319852Y76160D01*
X319957Y76097D01*
X320066Y76044D01*
X320180Y76001D01*
X320299Y75967D01*
X320422Y75943D01*
X320549Y75928D01*
X320680Y75923D01*
X320649Y74939D01*
X320518Y74934D01*
X320391Y74921D01*
X320267Y74898D01*
X320147Y74865D01*
X320031Y74824D01*
X319919Y74773D01*
X319810Y74713D01*
X319705Y74645D01*
X319604Y74566D01*
X319506Y74479D01*
X319564Y76407D01*
X319656Y76315D01*
D02*
G37*
G36*
X291149Y74213D02*
X291209Y74047D01*
X291307Y73902D01*
X291445Y73775D01*
X291622Y73668D01*
X291838Y73581D01*
X292094Y73513D01*
X292390Y73464D01*
X292724Y73435D01*
X293098Y73425D01*
Y71457D01*
X292724Y71447D01*
X292390Y71418D01*
X292094Y71369D01*
X291838Y71301D01*
X291622Y71214D01*
X291445Y71107D01*
X291307Y70980D01*
X291209Y70834D01*
X291149Y70669D01*
X291130Y70485D01*
Y74397D01*
X291149Y74213D01*
D02*
G37*
G36*
X209456D02*
X209516Y74047D01*
X209614Y73902D01*
X209752Y73775D01*
X209929Y73668D01*
X210145Y73581D01*
X210401Y73513D01*
X210697Y73464D01*
X211031Y73435D01*
X211405Y73425D01*
Y71457D01*
X211031Y71447D01*
X210697Y71418D01*
X210401Y71369D01*
X210145Y71301D01*
X209929Y71214D01*
X209752Y71107D01*
X209614Y70980D01*
X209516Y70834D01*
X209456Y70669D01*
X209437Y70485D01*
Y74397D01*
X209456Y74213D01*
D02*
G37*
G36*
X372701Y73116D02*
X372646Y72936D01*
X372647Y72728D01*
X372704Y72492D01*
X372817Y72227D01*
X372985Y71935D01*
X373209Y71614D01*
X373488Y71266D01*
X374215Y70485D01*
X372823Y69093D01*
X372418Y69484D01*
X371693Y70098D01*
X371372Y70322D01*
X371080Y70490D01*
X370815Y70603D01*
X370579Y70660D01*
X370371Y70661D01*
X370191Y70607D01*
X370039Y70496D01*
X372811Y73268D01*
X372701Y73116D01*
D02*
G37*
G36*
X343651Y71142D02*
X343651Y71142D01*
X345733Y69060D01*
X345638Y68832D01*
Y68018D01*
X345950Y67265D01*
X346526Y66690D01*
X347278Y66378D01*
X348093D01*
X348845Y66690D01*
X349421Y67265D01*
X349733Y68018D01*
Y68659D01*
X350198Y68916D01*
X351444Y67825D01*
X351748Y67521D01*
X351761Y67422D01*
X352027Y66780D01*
X352349Y66359D01*
X352166Y65859D01*
X345740D01*
X337966Y73633D01*
X337795Y73747D01*
X337947Y74247D01*
X340546D01*
X343651Y71142D01*
D02*
G37*
G36*
X282954Y34714D02*
X283533Y34612D01*
X284020Y34450D01*
X284422Y34233D01*
X284751Y33964D01*
X285021Y33634D01*
X285237Y33232D01*
X285286Y33086D01*
X285231Y32845D01*
X285153Y32582D01*
X279537D01*
X279524Y32587D01*
X278836Y32678D01*
X278147Y32587D01*
X277506Y32321D01*
X276955Y31898D01*
X276532Y31347D01*
X276266Y30705D01*
X276249Y30573D01*
X275721Y30394D01*
X275001Y31113D01*
X274454Y31479D01*
X273809Y31607D01*
X273353D01*
X273183Y31622D01*
X272946Y31661D01*
X272763Y31710D01*
X272637Y31761D01*
X272564Y31804D01*
X272536Y31830D01*
X272531Y31838D01*
X272528Y31846D01*
X272520Y31924D01*
Y32559D01*
X271844D01*
X271838Y32560D01*
X271833Y32559D01*
X265276D01*
Y27946D01*
X210347D01*
X210053Y28446D01*
X210151Y28937D01*
Y30906D01*
X210056Y31382D01*
X210056Y31383D01*
X210055Y31384D01*
X210022Y31551D01*
X209967Y31633D01*
X209967Y31634D01*
X209809Y31899D01*
X209679Y32172D01*
X209560Y32488D01*
X209454Y32845D01*
X209363Y33243D01*
X209289Y33668D01*
X209229Y34373D01*
X209568Y34741D01*
X282449D01*
X282954Y34714D01*
D02*
G37*
G36*
X294094Y35433D02*
X293347Y35394D01*
X292677Y35276D01*
X292480Y35210D01*
X292087Y35079D01*
X291575Y34803D01*
X291142Y34449D01*
X290787Y34016D01*
X290512Y33504D01*
X290384Y33121D01*
X290386Y33107D01*
X290487Y32671D01*
X290606Y32270D01*
X290744Y31905D01*
X290899Y31577D01*
X291073Y31285D01*
X285305D01*
X285479Y31577D01*
X285634Y31905D01*
X285772Y32270D01*
X285891Y32671D01*
X285992Y33107D01*
X285994Y33121D01*
X285866Y33504D01*
X285591Y34016D01*
X285236Y34449D01*
X284803Y34803D01*
X284291Y35079D01*
X283701Y35276D01*
X283032Y35394D01*
X282283Y35433D01*
X288189Y39370D01*
X294094Y35433D01*
D02*
G37*
G36*
X208474Y35216D02*
X208611Y33580D01*
X208694Y33107D01*
X208794Y32671D01*
X208913Y32270D01*
X209051Y31905D01*
X209206Y31577D01*
X209380Y31285D01*
X203612D01*
X203786Y31577D01*
X203941Y31905D01*
X204079Y32270D01*
X204198Y32671D01*
X204299Y33107D01*
X204381Y33580D01*
X204491Y34635D01*
X204518Y35216D01*
X204528Y35834D01*
X208465D01*
X208474Y35216D01*
D02*
G37*
G36*
X126781D02*
X126918Y33580D01*
X127001Y33107D01*
X127101Y32671D01*
X127220Y32270D01*
X127358Y31905D01*
X127514Y31577D01*
X127688Y31285D01*
X121919D01*
X122093Y31577D01*
X122248Y31905D01*
X122386Y32270D01*
X122505Y32671D01*
X122606Y33107D01*
X122688Y33580D01*
X122798Y34635D01*
X122826Y35216D01*
X122835Y35834D01*
X126772D01*
X126781Y35216D01*
D02*
G37*
G36*
X368399Y34203D02*
X369796Y33025D01*
X370235Y32718D01*
X370661Y32453D01*
X371073Y32231D01*
X371472Y32052D01*
X371858Y31915D01*
X372230Y31821D01*
X366998Y28558D01*
X366903Y28930D01*
X366767Y29315D01*
X366587Y29714D01*
X366366Y30127D01*
X366101Y30552D01*
X365794Y30991D01*
X365051Y31909D01*
X364616Y32389D01*
X364138Y32881D01*
X367906Y34681D01*
X368399Y34203D01*
D02*
G37*
G36*
X48854Y32881D02*
X48376Y32389D01*
X47199Y30991D01*
X46891Y30552D01*
X46627Y30127D01*
X46405Y29714D01*
X46225Y29315D01*
X46089Y28930D01*
X45995Y28558D01*
X40762Y31821D01*
X41135Y31915D01*
X41520Y32052D01*
X41919Y32231D01*
X42331Y32453D01*
X42757Y32718D01*
X43196Y33025D01*
X44114Y33768D01*
X44593Y34203D01*
X45086Y34681D01*
X48854Y32881D01*
D02*
G37*
G36*
X271858Y31693D02*
X271917Y31528D01*
X272016Y31382D01*
X272153Y31255D01*
X272330Y31149D01*
X272547Y31061D01*
X272803Y30993D01*
X273098Y30944D01*
X273433Y30915D01*
X273807Y30906D01*
Y28937D01*
X273433Y28927D01*
X273098Y28898D01*
X272803Y28850D01*
X272547Y28782D01*
X272330Y28694D01*
X272153Y28587D01*
X272016Y28461D01*
X271917Y28315D01*
X271858Y28150D01*
X271838Y27965D01*
Y31878D01*
X271858Y31693D01*
D02*
G37*
G36*
X362997Y33044D02*
X362806Y32582D01*
X360236D01*
X359548Y32491D01*
X358906Y32225D01*
X358355Y31803D01*
X357932Y31251D01*
X357666Y30610D01*
X357576Y29921D01*
X357666Y29233D01*
X357932Y28591D01*
X358355Y28040D01*
X358906Y27617D01*
X359548Y27351D01*
X359435Y26883D01*
X356013D01*
X355016Y27880D01*
X354633Y28290D01*
X354358Y28627D01*
X354213Y28831D01*
Y32559D01*
X346969D01*
Y27283D01*
X350515D01*
X350621Y27237D01*
X350852Y27106D01*
X351108Y26931D01*
X351644Y26483D01*
X353894Y24233D01*
X353687Y23733D01*
X282382D01*
X279354Y26761D01*
X279561Y27261D01*
X286172D01*
X286221Y27251D01*
X290158D01*
X290803Y27379D01*
X291350Y27745D01*
X291715Y28292D01*
X291843Y28937D01*
Y30906D01*
X291749Y31382D01*
X291749Y31383D01*
X291748Y31384D01*
X291715Y31551D01*
X291660Y31633D01*
X291660Y31634D01*
X291502Y31899D01*
X291372Y32172D01*
X291253Y32488D01*
X291147Y32845D01*
X291092Y33086D01*
X291141Y33232D01*
X291357Y33634D01*
X291627Y33964D01*
X291956Y34233D01*
X292358Y34450D01*
X292845Y34612D01*
X293424Y34714D01*
X293929Y34741D01*
X361299D01*
X362997Y33044D01*
D02*
G37*
G36*
X353365Y29656D02*
X353276Y29511D01*
X353253Y29327D01*
X353295Y29105D01*
X353403Y28846D01*
X353576Y28549D01*
X353815Y28213D01*
X354119Y27840D01*
X354923Y26981D01*
X352547Y26573D01*
X352186Y26920D01*
X351520Y27476D01*
X351214Y27685D01*
X350927Y27848D01*
X350657Y27966D01*
X350406Y28037D01*
X350174Y28063D01*
X349959Y28043D01*
X349763Y27977D01*
X353519Y29764D01*
X353365Y29656D01*
D02*
G37*
G36*
X190023Y30597D02*
X189969Y30417D01*
X189970Y30208D01*
X190027Y29972D01*
X190139Y29708D01*
X190308Y29415D01*
X190532Y29095D01*
X190811Y28746D01*
X191537Y27965D01*
X190146Y26573D01*
X189741Y26964D01*
X189015Y27579D01*
X188695Y27803D01*
X188402Y27971D01*
X188138Y28083D01*
X187902Y28140D01*
X187694Y28141D01*
X187514Y28087D01*
X187362Y27977D01*
X190134Y30749D01*
X190023Y30597D01*
D02*
G37*
G36*
X108286Y29656D02*
X108197Y29511D01*
X108174Y29327D01*
X108216Y29105D01*
X108324Y28846D01*
X108497Y28549D01*
X108736Y28213D01*
X109040Y27840D01*
X109845Y26981D01*
X107468Y26573D01*
X107108Y26920D01*
X106441Y27476D01*
X106135Y27685D01*
X105848Y27848D01*
X105579Y27966D01*
X105328Y28037D01*
X105095Y28063D01*
X104881Y28043D01*
X104684Y27977D01*
X108441Y29764D01*
X108286Y29656D01*
D02*
G37*
G36*
X26593Y29656D02*
X26505Y29511D01*
X26481Y29327D01*
X26524Y29105D01*
X26631Y28846D01*
X26804Y28549D01*
X27043Y28213D01*
X27347Y27840D01*
X28152Y26981D01*
X25775Y26573D01*
X25415Y26920D01*
X24748Y27476D01*
X24442Y27685D01*
X24155Y27848D01*
X23886Y27966D01*
X23635Y28037D01*
X23402Y28063D01*
X23188Y28043D01*
X22991Y27977D01*
X26748Y29764D01*
X26593Y29656D01*
D02*
G37*
G36*
X196074Y20440D02*
X195840Y19966D01*
X195709Y19983D01*
X191157D01*
Y20291D01*
X187705D01*
Y17323D01*
X187205D01*
Y16823D01*
X183252D01*
Y14354D01*
X183839D01*
X183924Y14184D01*
X183615Y13684D01*
X117539D01*
X117315Y14184D01*
X117531Y14705D01*
X117621Y15394D01*
X117531Y16082D01*
X117265Y16724D01*
X116842Y17275D01*
X115319Y18798D01*
X115526Y19298D01*
X118869D01*
X120440Y17727D01*
X120626Y17516D01*
X120866Y17214D01*
X121052Y16945D01*
X121181Y16718D01*
Y14685D01*
X128425D01*
Y19961D01*
X123141D01*
X122883Y20143D01*
X122259Y20676D01*
X121461Y21474D01*
X121653Y21936D01*
X194577D01*
X196074Y20440D01*
D02*
G37*
G36*
X278668Y18948D02*
X278461Y18448D01*
X272850D01*
Y20291D01*
X269398D01*
Y17323D01*
X268898D01*
Y16823D01*
X264945D01*
Y14354D01*
X265607D01*
X265675Y14282D01*
X265689Y14063D01*
X265388Y13684D01*
X198751D01*
X198581Y14184D01*
X198732Y14300D01*
X199154Y14851D01*
X199420Y15493D01*
X199511Y16181D01*
X199494Y16313D01*
X199967Y16546D01*
X200142Y16371D01*
X200689Y16006D01*
X201334Y15877D01*
X202040D01*
X202213Y15862D01*
X202451Y15823D01*
X202635Y15773D01*
X202763Y15721D01*
X202836Y15677D01*
X202866Y15649D01*
X202873Y15639D01*
X202874Y15637D01*
Y14685D01*
X210118D01*
Y19961D01*
X203559D01*
X203553Y19962D01*
X203548Y19961D01*
X202874D01*
Y19394D01*
X202822Y19370D01*
X202680Y19327D01*
X202492Y19290D01*
X202058Y19249D01*
X202033D01*
X197170Y24112D01*
X197361Y24574D01*
X273042D01*
X278668Y18948D01*
D02*
G37*
G36*
X368285Y20326D02*
X368950Y19772D01*
X369255Y19565D01*
X369542Y19402D01*
X369812Y19286D01*
X370063Y19216D01*
X370297Y19191D01*
X370512Y19212D01*
X370709Y19279D01*
X366941Y17480D01*
X367097Y17589D01*
X367187Y17735D01*
X367212Y17919D01*
X367171Y18141D01*
X367064Y18401D01*
X366892Y18698D01*
X366655Y19033D01*
X366352Y19405D01*
X365549Y20264D01*
X367925Y20671D01*
X368285Y20326D01*
D02*
G37*
G36*
X121703Y20254D02*
X122464Y19604D01*
X122793Y19371D01*
X123088Y19200D01*
X123350Y19090D01*
X123577Y19042D01*
X123771Y19056D01*
X123930Y19131D01*
X124056Y19267D01*
X121874Y15905D01*
X121958Y16083D01*
X121992Y16284D01*
X121976Y16507D01*
X121910Y16752D01*
X121795Y17019D01*
X121630Y17309D01*
X121414Y17621D01*
X121150Y17954D01*
X120835Y18311D01*
X120470Y18689D01*
X121272Y20671D01*
X121703Y20254D01*
D02*
G37*
G36*
X203567Y15595D02*
X203547Y15782D01*
X203487Y15949D01*
X203388Y16097D01*
X203249Y16225D01*
X203071Y16333D01*
X202853Y16422D01*
X202595Y16490D01*
X202299Y16540D01*
X201962Y16569D01*
X201587Y16579D01*
Y18548D01*
X201961Y18555D01*
X202591Y18613D01*
X202847Y18665D01*
X203063Y18731D01*
X203240Y18811D01*
X203378Y18906D01*
X203477Y19016D01*
X203536Y19140D01*
X203555Y19279D01*
X203567Y15595D01*
D02*
G37*
G36*
X285260Y15398D02*
X285240Y15585D01*
X285180Y15752D01*
X285081Y15900D01*
X284942Y16028D01*
X284764Y16136D01*
X284546Y16225D01*
X284289Y16294D01*
X283992Y16343D01*
X283656Y16372D01*
X283280Y16382D01*
Y18351D01*
X283654Y18360D01*
X283988Y18388D01*
X284284Y18434D01*
X284540Y18499D01*
X284756Y18583D01*
X284933Y18685D01*
X285071Y18806D01*
X285170Y18945D01*
X285228Y19103D01*
X285248Y19279D01*
X285260Y15398D01*
D02*
G37*
G36*
X346638Y20291D02*
Y17896D01*
X346585Y17770D01*
X346360Y17335D01*
X346078Y16879D01*
X345745Y16410D01*
X344887Y15389D01*
X344720Y15215D01*
X343189Y13684D01*
X281081D01*
X280835Y14184D01*
X281044Y14457D01*
X281310Y15099D01*
X281378Y15615D01*
X281761Y15849D01*
X281894Y15872D01*
X281988Y15809D01*
X282634Y15680D01*
X283733D01*
X283906Y15665D01*
X284144Y15626D01*
X284328Y15577D01*
X284456Y15525D01*
X284529Y15480D01*
X284559Y15452D01*
X284566Y15442D01*
X284567Y15440D01*
Y14685D01*
X291811D01*
Y19961D01*
X292051Y20361D01*
X346167D01*
X346638Y20291D01*
D02*
G37*
G36*
X101559Y17823D02*
X105512D01*
Y16823D01*
X101559D01*
Y14354D01*
X102146D01*
X102231Y14184D01*
X101922Y13684D01*
X31220D01*
X30169Y14736D01*
X30376Y15236D01*
X31964D01*
X32079Y15121D01*
X32926Y14770D01*
Y17137D01*
X33426D01*
Y17637D01*
X35793D01*
X35442Y18484D01*
X35127Y18798D01*
X35334Y19298D01*
X39488D01*
Y14685D01*
X46732D01*
Y19298D01*
X101559D01*
Y17823D01*
D02*
G37*
G36*
X353531Y15366D02*
X353102Y15338D01*
X352659Y15255D01*
X352203Y15116D01*
X351733Y14921D01*
X351250Y14670D01*
X350754Y14364D01*
X350244Y14002D01*
X349721Y13585D01*
X348634Y12583D01*
X344866Y14382D01*
X345395Y14932D01*
X346286Y15992D01*
X346648Y16502D01*
X346954Y16998D01*
X347204Y17481D01*
X347399Y17951D01*
X347538Y18407D01*
X347622Y18850D01*
X347650Y19279D01*
X353531Y15366D01*
D02*
G37*
G36*
X271654Y15335D02*
X271488Y15240D01*
X271342Y15082D01*
X271216Y14861D01*
X271109Y14576D01*
X271022Y14228D01*
X270954Y13817D01*
X270905Y13343D01*
X270866Y12205D01*
X266929D01*
X266919Y12805D01*
X266842Y13817D01*
X266774Y14228D01*
X266686Y14576D01*
X266579Y14861D01*
X266453Y15082D01*
X266307Y15240D01*
X266142Y15335D01*
X265957Y15366D01*
X271838D01*
X271654Y15335D01*
D02*
G37*
G36*
X189961Y15327D02*
X189795Y15209D01*
X189650Y15012D01*
X189523Y14736D01*
X189416Y14382D01*
X189329Y13949D01*
X189261Y13437D01*
X189183Y12177D01*
X189173Y11429D01*
X185236D01*
X185227Y12177D01*
X185081Y13949D01*
X184993Y14382D01*
X184886Y14736D01*
X184760Y15012D01*
X184614Y15209D01*
X184449Y15327D01*
X184264Y15366D01*
X190146D01*
X189961Y15327D01*
D02*
G37*
G36*
X108268D02*
X108103Y15209D01*
X107957Y15012D01*
X107830Y14736D01*
X107723Y14382D01*
X107636Y13949D01*
X107568Y13437D01*
X107490Y12177D01*
X107480Y11429D01*
X103543D01*
X103534Y12177D01*
X103388Y13949D01*
X103300Y14382D01*
X103193Y14736D01*
X103067Y15012D01*
X102921Y15209D01*
X102756Y15327D01*
X102571Y15366D01*
X108453D01*
X108268Y15327D01*
D02*
G37*
%LPC*%
G36*
X23319Y130528D02*
X19866D01*
Y128059D01*
X23319D01*
Y130528D01*
D02*
G37*
G36*
Y127059D02*
X19866D01*
Y124591D01*
X23319D01*
Y127059D01*
D02*
G37*
G36*
X184264Y87678D02*
X184258Y87677D01*
X183583D01*
Y87043D01*
X183574Y86964D01*
X183572Y86956D01*
X183566Y86949D01*
X183538Y86923D01*
X183466Y86879D01*
X183339Y86828D01*
X183156Y86779D01*
X182919Y86740D01*
X182749Y86725D01*
X137402D01*
X136756Y86597D01*
X136209Y86231D01*
X125824Y75846D01*
X125623Y75670D01*
X125332Y75442D01*
X125070Y75263D01*
X124839Y75133D01*
X124714Y75079D01*
X124012D01*
X124012Y75079D01*
X124011Y75079D01*
X121181D01*
Y69803D01*
X128425D01*
Y72561D01*
X128425Y72562D01*
X128425Y72563D01*
Y73528D01*
X128569Y73730D01*
X129122Y74376D01*
X138100Y83353D01*
X182749D01*
X182919Y83339D01*
X183156Y83300D01*
X183339Y83251D01*
X183466Y83200D01*
X183538Y83156D01*
X183566Y83130D01*
X183572Y83122D01*
X183574Y83114D01*
X183583Y83036D01*
Y82402D01*
X184258D01*
X184264Y82401D01*
X184270Y82402D01*
X190827D01*
Y87677D01*
X184270D01*
X184264Y87678D01*
D02*
G37*
G36*
X102571D02*
X102566Y87677D01*
X101890D01*
Y87042D01*
X101881Y86964D01*
X101879Y86956D01*
X101873Y86949D01*
X101845Y86923D01*
X101773Y86879D01*
X101646Y86828D01*
X101463Y86779D01*
X101226Y86740D01*
X101057Y86725D01*
X55709D01*
X55063Y86597D01*
X54517Y86231D01*
X44131Y75846D01*
X43930Y75670D01*
X43639Y75442D01*
X43377Y75263D01*
X43146Y75133D01*
X43021Y75079D01*
X42320D01*
X42319Y75079D01*
X42318Y75079D01*
X39488D01*
Y69803D01*
X46732D01*
Y72561D01*
X46732Y72562D01*
X46732Y72563D01*
Y73528D01*
X46876Y73730D01*
X47429Y74376D01*
X56407Y83353D01*
X101057D01*
X101226Y83339D01*
X101463Y83300D01*
X101646Y83251D01*
X101773Y83200D01*
X101845Y83156D01*
X101873Y83130D01*
X101879Y83122D01*
X101881Y83114D01*
X101890Y83036D01*
Y82402D01*
X102566D01*
X102571Y82401D01*
X102577Y82402D01*
X109134D01*
Y87677D01*
X102577D01*
X102571Y87678D01*
D02*
G37*
G36*
X272850Y75410D02*
X269398D01*
Y72941D01*
X272850D01*
Y75410D01*
D02*
G37*
G36*
X23319D02*
X19866D01*
Y72941D01*
X23319D01*
Y75410D01*
D02*
G37*
G36*
X186705D02*
X183252D01*
Y72941D01*
X186705D01*
Y75410D01*
D02*
G37*
G36*
X105012D02*
X101559D01*
Y72941D01*
X105012D01*
Y75410D01*
D02*
G37*
G36*
X268398D02*
X264945D01*
Y72941D01*
X268398D01*
Y75410D01*
D02*
G37*
G36*
X191157D02*
X187705D01*
Y72441D01*
X187205D01*
Y71941D01*
X183252D01*
Y69472D01*
X184289D01*
X184331Y69334D01*
X184404Y68971D01*
X184482Y68024D01*
X184415Y67648D01*
X184253Y67161D01*
X184037Y66759D01*
X183767Y66430D01*
X183438Y66160D01*
X183035Y65944D01*
X182548Y65781D01*
X181970Y65679D01*
X181464Y65653D01*
X111252D01*
X110747Y65679D01*
X110168Y65781D01*
X109681Y65944D01*
X109279Y66160D01*
X108949Y66430D01*
X108680Y66759D01*
X108463Y67161D01*
X108301Y67648D01*
X108223Y68091D01*
X108247Y68489D01*
X108309Y68954D01*
X108386Y69334D01*
X108428Y69472D01*
X109465D01*
Y69780D01*
X114961D01*
X115649Y69871D01*
X116291Y70137D01*
X116842Y70560D01*
X117265Y71111D01*
X117531Y71752D01*
X117621Y72441D01*
X117531Y73129D01*
X117265Y73771D01*
X116842Y74322D01*
X116842D01*
X116291Y74745D01*
X115649Y75011D01*
X114961Y75102D01*
X109465D01*
Y75410D01*
X106012D01*
Y72441D01*
X105512D01*
Y71941D01*
X101559D01*
Y69472D01*
X102596D01*
X102638Y69334D01*
X102711Y68971D01*
X102789Y68024D01*
X102723Y67648D01*
X102560Y67161D01*
X102344Y66759D01*
X102074Y66430D01*
X101745Y66160D01*
X101342Y65944D01*
X100856Y65781D01*
X100277Y65679D01*
X99771Y65653D01*
X34370D01*
X30704Y69318D01*
X30895Y69780D01*
X33465D01*
X34153Y69871D01*
X34795Y70137D01*
X35346Y70560D01*
X35370Y70584D01*
X35793Y71135D01*
X36059Y71777D01*
X36150Y72466D01*
X36059Y73154D01*
X35793Y73796D01*
X35370Y74347D01*
X34819Y74770D01*
X34178Y75035D01*
X33489Y75126D01*
X33302Y75102D01*
X27772D01*
Y75410D01*
X24319D01*
Y72774D01*
X26760Y74397D01*
X26787Y73968D01*
X26871Y73525D01*
X27010Y73069D01*
X27205Y72600D01*
X27456Y72117D01*
X27762Y71620D01*
X28124Y71110D01*
X28541Y70587D01*
X29544Y69500D01*
X25775Y67701D01*
X25225Y68230D01*
X24165Y69120D01*
X23656Y69482D01*
X23159Y69788D01*
X22676Y70039D01*
X22207Y70234D01*
X21750Y70373D01*
X21307Y70457D01*
X20878Y70485D01*
X23067Y71941D01*
X19866D01*
Y69472D01*
X22261D01*
X22388Y69420D01*
X22822Y69194D01*
X23279Y68913D01*
X23748Y68580D01*
X24769Y67722D01*
X24943Y67554D01*
X31386Y61111D01*
X31937Y60688D01*
X32579Y60422D01*
X33268Y60332D01*
X280758D01*
X280766Y60301D01*
X281227Y59503D01*
X281879Y58851D01*
X282677Y58390D01*
X283528Y58162D01*
Y61652D01*
X284528D01*
Y58162D01*
X285379Y58390D01*
X286177Y58851D01*
X286317Y58991D01*
X296790D01*
X300576Y55205D01*
X301127Y54782D01*
X301768Y54517D01*
X302457Y54426D01*
X314926D01*
Y53673D01*
X315016Y52985D01*
X315282Y52343D01*
X315705Y51792D01*
X315835Y51662D01*
X316386Y51239D01*
X317028Y50973D01*
X317717Y50883D01*
X318405Y50973D01*
X319047Y51239D01*
X319598Y51662D01*
X320021Y52213D01*
X320286Y52855D01*
X320377Y53543D01*
X320286Y54232D01*
X320247Y54327D01*
Y57087D01*
Y65176D01*
X320156Y65864D01*
X319945Y66374D01*
Y69541D01*
X318067D01*
Y65195D01*
X317067D01*
Y69541D01*
X315189D01*
Y69220D01*
X314693Y69211D01*
X314689Y69211D01*
X310599D01*
Y61179D01*
X314426D01*
X314693Y61179D01*
X314926Y60776D01*
Y59747D01*
X303559D01*
X302589Y60717D01*
X302780Y61179D01*
X304851D01*
Y69211D01*
X300756D01*
Y63203D01*
X300294Y63012D01*
X299773Y63533D01*
X299222Y63956D01*
X298581Y64222D01*
X297892Y64312D01*
X286336D01*
X286332Y64322D01*
X285909Y64873D01*
X285358Y65296D01*
X284717Y65562D01*
X284028Y65653D01*
X274638D01*
X274133Y65679D01*
X273554Y65781D01*
X273067Y65944D01*
X272665Y66160D01*
X272335Y66430D01*
X272066Y66759D01*
X271849Y67161D01*
X271687Y67648D01*
X271609Y68091D01*
X271633Y68489D01*
X271695Y68954D01*
X271772Y69334D01*
X271814Y69472D01*
X272850D01*
Y71941D01*
X268898D01*
X264945D01*
Y69472D01*
X265982D01*
X266023Y69334D01*
X266097Y68971D01*
X266175Y68024D01*
X266108Y67648D01*
X265946Y67161D01*
X265729Y66759D01*
X265460Y66430D01*
X265130Y66160D01*
X264728Y65944D01*
X264241Y65781D01*
X263663Y65679D01*
X263157Y65653D01*
X192945D01*
X192440Y65679D01*
X191861Y65781D01*
X191374Y65944D01*
X190972Y66160D01*
X190642Y66430D01*
X190373Y66759D01*
X190156Y67161D01*
X189994Y67648D01*
X189916Y68091D01*
X189940Y68489D01*
X190002Y68954D01*
X190079Y69334D01*
X190121Y69472D01*
X191157D01*
Y69780D01*
X196796D01*
X197484Y69871D01*
X198126Y70137D01*
X198677Y70560D01*
X198930Y70812D01*
X199352Y71363D01*
X199618Y72005D01*
X199709Y72693D01*
X199618Y73382D01*
X199352Y74024D01*
X198930Y74575D01*
X198379Y74998D01*
X197737Y75263D01*
X197048Y75354D01*
X196360Y75263D01*
X195969Y75102D01*
X191157D01*
Y75410D01*
D02*
G37*
G36*
X309772Y69211D02*
X305678D01*
Y61179D01*
X309772D01*
Y69211D01*
D02*
G37*
G36*
X336699Y55982D02*
X335885D01*
X335133Y55670D01*
X334557Y55094D01*
X334245Y54342D01*
Y53527D01*
X334557Y52775D01*
X334853Y52479D01*
X334855Y52473D01*
X334865Y52430D01*
X334873Y52380D01*
X334885Y52228D01*
Y47401D01*
X334869Y47258D01*
X334861Y47214D01*
X334860Y47210D01*
X334714Y47063D01*
X334402Y46311D01*
Y45496D01*
X334714Y44744D01*
X335290Y44168D01*
X336042Y43856D01*
X336856D01*
X337609Y44168D01*
X338185Y44744D01*
X338496Y45496D01*
Y46311D01*
X338185Y47063D01*
X337888Y47360D01*
X337886Y47366D01*
X337876Y47408D01*
X337867Y47458D01*
X337856Y47611D01*
Y52437D01*
X337872Y52580D01*
X337880Y52624D01*
X337881Y52628D01*
X338028Y52775D01*
X338339Y53527D01*
Y54342D01*
X338028Y55094D01*
X337452Y55670D01*
X336699Y55982D01*
D02*
G37*
G36*
X331496Y69016D02*
X331294Y68976D01*
X331089D01*
X330899Y68898D01*
X330697Y68858D01*
X330526Y68743D01*
X330336Y68665D01*
X330191Y68519D01*
X330020Y68405D01*
X329906Y68234D01*
X329761Y68089D01*
X329682Y67899D01*
X329568Y67728D01*
X329527Y67526D01*
X329449Y67336D01*
Y67131D01*
X329409Y66929D01*
Y52833D01*
X321970Y45394D01*
X42989D01*
X42788Y45354D01*
X42582D01*
X42392Y45276D01*
X42191Y45236D01*
X42020Y45121D01*
X41830Y45043D01*
X41684Y44897D01*
X41513Y44783D01*
X41399Y44612D01*
X41254Y44467D01*
X41175Y44277D01*
X41061Y44106D01*
X41021Y43904D01*
X40942Y43714D01*
Y43509D01*
X40902Y43307D01*
X40942Y43105D01*
Y42900D01*
X41021Y42710D01*
X41061Y42508D01*
X41175Y42337D01*
X41254Y42147D01*
X41399Y42002D01*
X41513Y41831D01*
X41684Y41717D01*
X41830Y41572D01*
X42020Y41493D01*
X42191Y41379D01*
X42392Y41339D01*
X42582Y41260D01*
X42788D01*
X42989Y41220D01*
X322835D01*
X323633Y41379D01*
X324311Y41831D01*
X332972Y50493D01*
X333424Y51170D01*
X333583Y51968D01*
Y66929D01*
X333543Y67131D01*
Y67336D01*
X333465Y67526D01*
X333424Y67728D01*
X333310Y67899D01*
X333232Y68089D01*
X333086Y68234D01*
X332972Y68405D01*
X332801Y68519D01*
X332656Y68665D01*
X332466Y68743D01*
X332295Y68858D01*
X332093Y68898D01*
X331903Y68976D01*
X331698D01*
X331496Y69016D01*
D02*
G37*
G36*
X23319Y20291D02*
X19866D01*
Y17823D01*
X23319D01*
Y20291D01*
D02*
G37*
%LPD*%
G36*
X184264Y83083D02*
X184244Y83268D01*
X184185Y83433D01*
X184087Y83579D01*
X183949Y83705D01*
X183772Y83812D01*
X183555Y83900D01*
X183299Y83968D01*
X183004Y84016D01*
X182669Y84045D01*
X182296Y84055D01*
Y86024D01*
X182669Y86033D01*
X183004Y86063D01*
X183299Y86111D01*
X183555Y86179D01*
X183772Y86267D01*
X183949Y86374D01*
X184087Y86500D01*
X184185Y86646D01*
X184244Y86811D01*
X184264Y86996D01*
Y83083D01*
D02*
G37*
G36*
X129136Y75382D02*
X128702Y74934D01*
X128030Y74151D01*
X127793Y73816D01*
X127621Y73519D01*
X127514Y73259D01*
X127473Y73037D01*
X127498Y72853D01*
X127588Y72707D01*
X127744Y72598D01*
X123976Y74397D01*
X124173Y74330D01*
X124389Y74309D01*
X124622Y74334D01*
X124873Y74404D01*
X125143Y74520D01*
X125430Y74683D01*
X125735Y74891D01*
X126059Y75144D01*
X126400Y75444D01*
X126760Y75789D01*
X129136Y75382D01*
D02*
G37*
G36*
X102571Y83083D02*
X102551Y83268D01*
X102492Y83433D01*
X102394Y83579D01*
X102256Y83705D01*
X102079Y83812D01*
X101862Y83900D01*
X101607Y83968D01*
X101311Y84016D01*
X100977Y84045D01*
X100603Y84055D01*
Y86024D01*
X100977Y86033D01*
X101311Y86063D01*
X101607Y86111D01*
X101862Y86179D01*
X102079Y86267D01*
X102256Y86374D01*
X102394Y86500D01*
X102492Y86646D01*
X102551Y86811D01*
X102571Y86996D01*
Y83083D01*
D02*
G37*
G36*
X47443Y75382D02*
X47009Y74934D01*
X46337Y74151D01*
X46100Y73816D01*
X45928Y73519D01*
X45821Y73259D01*
X45781Y73037D01*
X45805Y72853D01*
X45895Y72707D01*
X46051Y72598D01*
X42283Y74397D01*
X42480Y74330D01*
X42696Y74309D01*
X42929Y74334D01*
X43181Y74404D01*
X43450Y74520D01*
X43737Y74683D01*
X44043Y74891D01*
X44366Y75144D01*
X44707Y75444D01*
X45067Y75789D01*
X47443Y75382D01*
D02*
G37*
G36*
X271654Y70445D02*
X271488Y70327D01*
X271342Y70130D01*
X271216Y69854D01*
X271109Y69500D01*
X271022Y69067D01*
X270954Y68555D01*
X270923Y68053D01*
X271024Y67480D01*
X271220Y66890D01*
X271496Y66378D01*
X271850Y65945D01*
X272284Y65591D01*
X272795Y65315D01*
X273386Y65118D01*
X274055Y65000D01*
X274803Y64961D01*
X268898Y61024D01*
X262992Y64961D01*
X263740Y65000D01*
X264409Y65118D01*
X265000Y65315D01*
X265512Y65591D01*
X265945Y65945D01*
X266299Y66378D01*
X266575Y66890D01*
X266772Y67480D01*
X266862Y67993D01*
X266774Y69067D01*
X266686Y69500D01*
X266579Y69854D01*
X266453Y70130D01*
X266307Y70327D01*
X266142Y70445D01*
X265957Y70485D01*
X271838D01*
X271654Y70445D01*
D02*
G37*
G36*
X189961D02*
X189795Y70327D01*
X189650Y70130D01*
X189523Y69854D01*
X189416Y69500D01*
X189329Y69067D01*
X189261Y68555D01*
X189230Y68053D01*
X189331Y67480D01*
X189528Y66890D01*
X189803Y66378D01*
X190157Y65945D01*
X190591Y65591D01*
X191102Y65315D01*
X191693Y65118D01*
X192362Y65000D01*
X193110Y64961D01*
X187205Y61024D01*
X181299Y64961D01*
X182047Y65000D01*
X182717Y65118D01*
X183307Y65315D01*
X183819Y65591D01*
X184252Y65945D01*
X184606Y66378D01*
X184882Y66890D01*
X185079Y67480D01*
X185169Y67993D01*
X185081Y69067D01*
X184993Y69500D01*
X184886Y69854D01*
X184760Y70130D01*
X184614Y70327D01*
X184449Y70445D01*
X184264Y70485D01*
X190146D01*
X189961Y70445D01*
D02*
G37*
G36*
X108268D02*
X108103Y70327D01*
X107957Y70130D01*
X107830Y69854D01*
X107723Y69500D01*
X107636Y69067D01*
X107568Y68555D01*
X107537Y68053D01*
X107638Y67480D01*
X107835Y66890D01*
X108110Y66378D01*
X108465Y65945D01*
X108898Y65591D01*
X109409Y65315D01*
X110000Y65118D01*
X110669Y65000D01*
X111417Y64961D01*
X105512Y61024D01*
X99606Y64961D01*
X100354Y65000D01*
X101024Y65118D01*
X101614Y65315D01*
X102126Y65591D01*
X102559Y65945D01*
X102913Y66378D01*
X103189Y66890D01*
X103386Y67480D01*
X103476Y67993D01*
X103388Y69067D01*
X103300Y69500D01*
X103193Y69854D01*
X103067Y70130D01*
X102921Y70327D01*
X102756Y70445D01*
X102571Y70485D01*
X108453D01*
X108268Y70445D01*
D02*
G37*
G36*
X337282Y52967D02*
X337256Y52914D01*
X337233Y52849D01*
X337213Y52771D01*
X337196Y52680D01*
X337172Y52460D01*
X337159Y52190D01*
X337158Y52036D01*
X335583Y51926D01*
X335581Y52080D01*
X335551Y52465D01*
X335533Y52568D01*
X335512Y52659D01*
X335486Y52737D01*
X335456Y52803D01*
X335423Y52856D01*
X335385Y52897D01*
X337311Y53007D01*
X337282Y52967D01*
D02*
G37*
G36*
X337160Y47759D02*
X337190Y47374D01*
X337207Y47270D01*
X337229Y47180D01*
X337255Y47101D01*
X337285Y47035D01*
X337318Y46982D01*
X337356Y46941D01*
X335430Y46831D01*
X335459Y46871D01*
X335485Y46924D01*
X335508Y46989D01*
X335528Y47067D01*
X335545Y47158D01*
X335569Y47377D01*
X335581Y47648D01*
X335583Y47802D01*
X337158Y47912D01*
X337160Y47759D01*
D02*
G37*
%LPC*%
G36*
X272850Y130528D02*
X269398D01*
Y128059D01*
X272850D01*
Y130528D01*
D02*
G37*
G36*
X268398D02*
X264945D01*
Y128059D01*
X268398D01*
Y130528D01*
D02*
G37*
G36*
X186705D02*
X183252D01*
Y128059D01*
X186705D01*
Y130528D01*
D02*
G37*
G36*
Y127059D02*
X183252D01*
Y124591D01*
X186705D01*
Y127059D01*
D02*
G37*
G36*
X105012Y130528D02*
X101559D01*
Y128059D01*
X105012D01*
Y130528D01*
D02*
G37*
G36*
Y127059D02*
X101559D01*
Y124591D01*
X105012D01*
Y127059D01*
D02*
G37*
G36*
X354543Y75410D02*
X351091D01*
Y72941D01*
X353296D01*
X353519Y73067D01*
X353453Y72988D01*
X353452Y72941D01*
X354543D01*
Y75410D01*
D02*
G37*
G36*
X334358Y93647D02*
Y90658D01*
X337348D01*
X337120Y91508D01*
X336659Y92307D01*
X336007Y92958D01*
X335209Y93419D01*
X334358Y93647D01*
D02*
G37*
G36*
X324697D02*
X323846Y93419D01*
X323048Y92958D01*
X322396Y92307D01*
X321935Y91508D01*
X321707Y90658D01*
X324697D01*
Y93647D01*
D02*
G37*
G36*
X337348Y89657D02*
X334358D01*
Y86668D01*
X335209Y86896D01*
X336007Y87357D01*
X336659Y88008D01*
X337120Y88806D01*
X337348Y89657D01*
D02*
G37*
G36*
X324697D02*
X321707D01*
X321935Y88806D01*
X322396Y88008D01*
X323048Y87357D01*
X323846Y86896D01*
X324697Y86668D01*
Y89657D01*
D02*
G37*
G36*
X334358Y85379D02*
Y82390D01*
X337348D01*
X337120Y83241D01*
X336659Y84039D01*
X336007Y84690D01*
X335209Y85151D01*
X334358Y85379D01*
D02*
G37*
G36*
X333358Y93647D02*
X332507Y93419D01*
X331709Y92958D01*
X331058Y92307D01*
X330597Y91508D01*
X330358Y90618D01*
Y90139D01*
X330028Y89765D01*
Y86221D01*
Y82680D01*
X330082Y82655D01*
X330293Y82444D01*
X330318Y82390D01*
X333358D01*
Y85430D01*
X333304Y85455D01*
X333093Y85666D01*
X333028Y85808D01*
Y86239D01*
X333358Y86613D01*
Y90158D01*
Y93647D01*
D02*
G37*
G36*
X325697D02*
Y90158D01*
Y86613D01*
X326028Y86239D01*
Y85808D01*
X325962Y85666D01*
X325751Y85455D01*
X325697Y85430D01*
Y82390D01*
X328737D01*
X328762Y82444D01*
X328973Y82655D01*
X329028Y82680D01*
Y86221D01*
Y89765D01*
X328697Y90139D01*
Y90618D01*
X328458Y91508D01*
X327998Y92307D01*
X327346Y92958D01*
X326548Y93419D01*
X325697Y93647D01*
D02*
G37*
G36*
X324697Y85379D02*
X323846Y85151D01*
X323048Y84690D01*
X322396Y84039D01*
X321935Y83241D01*
X321707Y82390D01*
X324697D01*
Y85379D01*
D02*
G37*
G36*
X337348Y81390D02*
X334358D01*
Y78400D01*
X335209Y78628D01*
X336007Y79089D01*
X336659Y79741D01*
X337120Y80539D01*
X337348Y81390D01*
D02*
G37*
G36*
X333358D02*
X330369D01*
X330597Y80539D01*
X331058Y79741D01*
X331709Y79089D01*
X332507Y78628D01*
X333358Y78400D01*
Y81390D01*
D02*
G37*
G36*
X328686D02*
X325697D01*
Y78400D01*
X326548Y78628D01*
X327346Y79089D01*
X327998Y79741D01*
X328458Y80539D01*
X328686Y81390D01*
D02*
G37*
G36*
X324697D02*
X321707D01*
X321935Y80539D01*
X322396Y79741D01*
X323048Y79089D01*
X323846Y78628D01*
X324697Y78400D01*
Y81390D01*
D02*
G37*
G36*
X186705Y20291D02*
X183252D01*
Y17823D01*
X186705D01*
Y20291D01*
D02*
G37*
G36*
X268398D02*
X264945D01*
Y17823D01*
X268398D01*
Y20291D01*
D02*
G37*
G36*
X35793Y16637D02*
X33926D01*
Y14770D01*
X34773Y15121D01*
X35442Y15790D01*
X35793Y16637D01*
D02*
G37*
%LPD*%
D10*
X322481Y143483D02*
X322581Y143583D01*
X322292Y143294D02*
X322481Y143483D01*
X316052Y84348D02*
Y97798D01*
X326835Y108581D02*
X337830D01*
X316052Y97798D02*
X326835Y108581D01*
X340284Y111034D02*
Y115904D01*
X339812Y116376D02*
X340284Y115904D01*
X312646Y80943D02*
X316052Y84348D01*
X337830Y108581D02*
X340284Y111034D01*
D17*
X314173Y143307D02*
X314337Y143471D01*
X322469D01*
X322481Y143483D02*
X327227D01*
X316386Y130943D02*
Y138333D01*
X318504Y140451D01*
Y140669D01*
X327227Y143483D02*
X327327Y143583D01*
X322292Y130943D02*
Y143294D01*
D21*
X342961Y149447D02*
D03*
X295717D02*
D03*
D22*
X334103Y130943D02*
D03*
X328197D02*
D03*
X322292D02*
D03*
X316386D02*
D03*
X310481D02*
D03*
X304575D02*
D03*
D67*
X393701Y9843D02*
G03*
X393701Y9843I-9843J0D01*
G01*
X19685D02*
G03*
X19685Y9843I-9843J0D01*
G01*
Y147638D02*
G03*
X19685Y147638I-9843J0D01*
G01*
X393701D02*
G03*
X393701Y147638I-9843J0D01*
G01*
D69*
X33240Y17323D02*
X33426Y17137D01*
X23819Y17323D02*
X33240D01*
X34646Y127559D02*
X39370Y132283D01*
X334103Y130943D02*
X339967D01*
X328197D02*
X334103D01*
X345478Y59449D02*
X372441D01*
X372835Y59842D01*
X337764Y67163D02*
X345478Y59449D01*
X342946Y127964D02*
X350186D01*
X339967Y130943D02*
X342946Y127964D01*
X350186D02*
X350590Y127559D01*
X42989Y43307D02*
X322835D01*
X331496Y51968D02*
Y66929D01*
X322835Y43307D02*
X331496Y51968D01*
X320472Y121260D02*
X322835D01*
X328197Y126622D01*
Y130943D01*
X39370Y132283D02*
X49213D01*
X60236Y121260D01*
X355709Y145276D02*
X360630D01*
X350590Y140157D02*
X355709Y145276D01*
D70*
X202559Y131496D02*
X206496Y127559D01*
X190527Y131496D02*
X202559D01*
X196063Y134252D02*
X281496D01*
X186590Y135433D02*
X190527Y131496D01*
X190157Y140157D02*
X196063Y134252D01*
X281496D02*
X288189Y127559D01*
X187205Y140157D02*
X190157D01*
X262046Y85039D02*
X268898D01*
X206496Y72441D02*
X249447D01*
X262046Y85039D01*
X353937D02*
X361811Y77165D01*
X350590Y85039D02*
X353937D01*
X361811Y67716D02*
Y77165D01*
X308661Y147244D02*
X327953D01*
X343307Y131890D02*
X365551D01*
X327953Y147244D02*
X343307Y131890D01*
X365551D02*
X369882Y127559D01*
X119567Y20984D02*
X123228Y17323D01*
X32756Y20984D02*
X119567D01*
X123228Y17323D02*
X124803D01*
X105512Y29921D02*
X105512D01*
X111811Y23622D01*
X195276D01*
X23819Y29921D02*
X32756Y20984D01*
X195276Y23622D02*
X201334Y17563D01*
X206256D01*
X273740Y26260D02*
X282634Y17367D01*
X191850Y26260D02*
X273740D01*
X188189Y29921D02*
X191850Y26260D01*
X187205Y29921D02*
X188189D01*
X110630Y131890D02*
X120472D01*
X28216Y135433D02*
X107087D01*
X110630Y131890D01*
X120472D02*
X124179Y128183D01*
X106852Y140157D02*
X111576Y135433D01*
X186590D01*
X124179Y128183D02*
X124803Y127559D01*
X124179Y128183D02*
X124179D01*
X105512Y140157D02*
X106852D01*
X23819Y139831D02*
X28216Y135433D01*
X268898Y29921D02*
X273809D01*
X281683Y22047D01*
X365158D01*
X282634Y17367D02*
X288145D01*
X350590Y29921D02*
X355315Y25197D01*
X373228D01*
X288145Y17367D02*
X288189Y17323D01*
X365158Y22047D02*
X369882Y17323D01*
X206256Y17563D02*
X206496Y17323D01*
X358268Y64173D02*
X361811Y67716D01*
X345041Y64173D02*
X358268D01*
X23819Y139831D02*
X23819Y140157D01*
X336773Y72441D02*
X345041Y64173D01*
X288189Y72441D02*
X336773D01*
X284789Y135345D02*
X296762D01*
X268898Y140157D02*
X279977D01*
X284789Y135345D01*
X23819Y85039D02*
Y108268D01*
X376772Y28740D02*
Y66535D01*
X373228Y25197D02*
X376772Y28740D01*
X370866Y72441D02*
X376772Y66535D01*
X369882Y72441D02*
X370866D01*
X137402Y85039D02*
X187205D01*
X124803Y72441D02*
X137402Y85039D01*
X55709D02*
X105512D01*
X43110Y72441D02*
X55709Y85039D01*
X23819Y108268D02*
X43110Y127559D01*
X296762Y135345D02*
X308661Y147244D01*
D71*
X197034Y83229D02*
X198845Y85039D01*
X206496D01*
X196796Y72441D02*
X197048Y72693D01*
X187205Y72441D02*
X196796D01*
X196850Y140157D02*
X206496D01*
X187205Y127559D02*
X196457D01*
X23819D02*
X34646D01*
X268898Y121260D02*
X320472D01*
X23819Y72441D02*
X33465D01*
X33489Y72466D01*
X340365Y148819D02*
X342961Y151415D01*
Y149447D02*
Y151415D01*
Y138141D02*
Y149447D01*
X299260Y142965D02*
X307161Y150866D01*
X296457Y148707D02*
X299260Y145904D01*
X295717Y149447D02*
X296457Y148707D01*
X110236Y122047D02*
Y127559D01*
X284028Y62143D02*
X284519Y61652D01*
X268898Y62992D02*
X284028D01*
X297892Y61652D02*
X302457Y57087D01*
X284519Y61652D02*
X297892D01*
X284028Y62143D02*
Y62143D01*
X302457Y57087D02*
X317586D01*
Y65176D01*
Y53673D02*
Y57087D01*
X299260Y142965D02*
Y145904D01*
X329453Y150866D02*
X331500Y148819D01*
X307161Y150866D02*
X329453D01*
X331500Y148819D02*
X340365D01*
X296457Y142913D02*
Y148707D01*
X342961Y138141D02*
X344882Y136221D01*
X360236Y85039D02*
X369882D01*
X317586Y53673D02*
X317717Y53543D01*
X317567Y65195D02*
X317586Y65176D01*
X278346Y85433D02*
X278740Y85039D01*
X288189D01*
X105905Y11024D02*
X187008D01*
X30118D02*
X105905D01*
X105512Y11417D02*
X105905Y11024D01*
X105512Y11417D02*
Y17323D01*
X113031D01*
X114961Y15394D01*
X197033Y29882D02*
X197073Y29921D01*
X206496D01*
X115435D02*
X124803D01*
X115200Y29686D02*
X115435Y29921D01*
X195709Y17323D02*
X196850Y16181D01*
X187205Y17323D02*
X195709D01*
X187008Y11024D02*
X267717D01*
X187008D02*
X187205Y11220D01*
Y17323D01*
X267717Y11024D02*
X344291D01*
X267717D02*
X268898Y12205D01*
Y17323D01*
X344291Y11024D02*
X350590Y17323D01*
X23819D02*
X30118Y11024D01*
X105512Y62992D02*
Y72441D01*
X114961D01*
X33268Y62992D02*
X105512D01*
X187205D01*
X268898D01*
X187205D02*
Y72441D01*
X268898Y62992D02*
Y72441D01*
X23819D02*
X33268Y62992D01*
X114961Y72441D02*
X114961Y72441D01*
X191732Y121260D02*
X268898D01*
X268898Y121260D02*
X268898Y121260D01*
X268898Y121260D02*
Y127559D01*
X109449Y121260D02*
X191732D01*
X196457Y127559D02*
X196850Y127165D01*
X191732Y121260D02*
Y126673D01*
X60236Y121260D02*
X109449D01*
X110236Y127559D02*
X114961D01*
X105512D02*
X110236D01*
X109449Y121260D02*
X110236Y122047D01*
X278836Y30017D02*
X278931Y29921D01*
X288189D01*
X268898Y17323D02*
X270433Y15787D01*
X278740D01*
X360236Y29921D02*
X369882D01*
X359842Y17323D02*
X360236Y16929D01*
X350590Y17323D02*
X359842D01*
X33450Y29841D02*
X33530Y29921D01*
X43110D01*
X115354Y85039D02*
X124803D01*
X114961Y84646D02*
X115354Y85039D01*
X354331Y68110D02*
Y68701D01*
X350590Y72441D02*
X354331Y68701D01*
X350590Y127559D02*
X360236D01*
Y139370D02*
X361024Y140157D01*
X369882D01*
X115205D02*
X124803D01*
X125591Y37402D02*
X206693D01*
X50591D02*
X125591D01*
X124803Y36614D02*
X125591Y37402D01*
X124803Y29921D02*
Y36614D01*
X206693Y37402D02*
X288189D01*
X206496Y37205D02*
X206693Y37402D01*
X206496Y29921D02*
Y37205D01*
X288189Y37402D02*
X362402D01*
X288189Y37402D02*
X288189Y37402D01*
X288189Y29921D02*
Y37402D01*
X362402Y37402D02*
X369882Y29921D01*
X43110D02*
X50591Y37402D01*
D72*
X184918Y78858D02*
X184926D01*
X185044Y78740D02*
X251181D01*
X184926Y78858D02*
X185044Y78740D01*
X251181D02*
X260630Y88189D01*
X304575Y130943D02*
X310481D01*
D74*
X317764Y75472D02*
X318504Y76212D01*
Y96798D02*
X318671Y96965D01*
X318504Y76212D02*
Y96798D01*
X328100Y112045D02*
X337843D01*
X314398Y86190D02*
Y98343D01*
X328100Y112045D01*
X348473Y98266D02*
X357016Y106809D01*
Y112685D01*
X317805Y75431D02*
X341037D01*
X317764Y75472D02*
X317805Y75431D01*
X341037D02*
X344488Y71979D01*
X340945Y75431D02*
Y90738D01*
X348079Y97872D01*
X347157Y69311D02*
X347685D01*
X351622Y106140D02*
X353197Y107715D01*
X337401Y106140D02*
X351622D01*
X344488Y71979D02*
X347157Y69311D01*
X347685Y68425D02*
Y69311D01*
X312646Y84486D02*
X312694D01*
X314398Y86190D01*
X302803Y65195D02*
Y67163D01*
D75*
X336370Y45982D02*
X336449Y45904D01*
X336370Y45982D02*
Y53856D01*
X336292Y53935D02*
X336370Y53856D01*
D79*
X9843Y9843D02*
D03*
Y147638D02*
D03*
X383858Y9843D02*
D03*
Y147638D02*
D03*
D80*
X388583Y132283D02*
D03*
X385827Y126772D02*
D03*
X388583Y121260D02*
D03*
X385827Y115748D02*
D03*
X388583Y110236D02*
D03*
X385827Y104724D02*
D03*
X388583Y99213D02*
D03*
X385827Y93701D02*
D03*
X388583Y88189D02*
D03*
X385827Y82677D02*
D03*
X388583Y77165D02*
D03*
X385827Y71653D02*
D03*
X388583Y66142D02*
D03*
X385827Y60630D02*
D03*
X388583Y55118D02*
D03*
X385827Y49606D02*
D03*
X388583Y44094D02*
D03*
X385827Y38583D02*
D03*
X388583Y33071D02*
D03*
X385827Y27559D02*
D03*
X388583Y22047D02*
D03*
X383071Y132283D02*
D03*
Y121260D02*
D03*
Y110236D02*
D03*
Y99213D02*
D03*
Y88189D02*
D03*
X380315Y82677D02*
D03*
X383071Y77165D02*
D03*
X380315Y71653D02*
D03*
X383071Y66142D02*
D03*
X380315Y60630D02*
D03*
X383071Y55118D02*
D03*
Y44094D02*
D03*
X380315Y38583D02*
D03*
X383071Y33071D02*
D03*
X380315Y27559D02*
D03*
X377559Y77165D02*
D03*
Y22047D02*
D03*
X372047Y154331D02*
D03*
X369291Y148819D02*
D03*
X372047Y22047D02*
D03*
X369291Y5512D02*
D03*
X366535Y154331D02*
D03*
X363779Y148819D02*
D03*
X366535Y11024D02*
D03*
X363779Y5512D02*
D03*
X361023Y154331D02*
D03*
X358268Y148819D02*
D03*
X361023Y110236D02*
D03*
Y11024D02*
D03*
X358268Y5512D02*
D03*
X355512Y154331D02*
D03*
Y11024D02*
D03*
X352756Y5512D02*
D03*
X350000Y154331D02*
D03*
X347244Y5512D02*
D03*
X341732Y16535D02*
D03*
Y5512D02*
D03*
X336220Y115748D02*
D03*
Y27559D02*
D03*
Y16535D02*
D03*
Y5512D02*
D03*
X333465Y154331D02*
D03*
Y33071D02*
D03*
X330709Y27559D02*
D03*
Y16535D02*
D03*
Y5512D02*
D03*
X327953Y33071D02*
D03*
X325197Y27559D02*
D03*
Y16535D02*
D03*
Y5512D02*
D03*
X322441Y33071D02*
D03*
X319685Y27559D02*
D03*
Y16535D02*
D03*
Y5512D02*
D03*
X316929Y33071D02*
D03*
X314173Y27559D02*
D03*
Y16535D02*
D03*
Y5512D02*
D03*
X311417Y88189D02*
D03*
Y33071D02*
D03*
X308661Y27559D02*
D03*
Y16535D02*
D03*
Y5512D02*
D03*
X305906Y88189D02*
D03*
Y33071D02*
D03*
X303150Y27559D02*
D03*
Y16535D02*
D03*
Y5512D02*
D03*
X297638Y49606D02*
D03*
X300394Y33071D02*
D03*
X297638Y27559D02*
D03*
Y16535D02*
D03*
Y5512D02*
D03*
X292126Y49606D02*
D03*
X294882Y33071D02*
D03*
X292126Y5512D02*
D03*
X289370Y55118D02*
D03*
X286614Y49606D02*
D03*
Y5512D02*
D03*
X283858Y55118D02*
D03*
X281102Y49606D02*
D03*
Y5512D02*
D03*
X278346Y55118D02*
D03*
X275590Y49606D02*
D03*
Y5512D02*
D03*
X270079Y115748D02*
D03*
X272835Y110236D02*
D03*
X270079Y104724D02*
D03*
X272835Y99213D02*
D03*
Y77165D02*
D03*
Y55118D02*
D03*
X270079Y49606D02*
D03*
X272835Y22047D02*
D03*
X270079Y5512D02*
D03*
X264567Y115748D02*
D03*
X267323Y110236D02*
D03*
X264567Y104724D02*
D03*
X267323Y99213D02*
D03*
Y77165D02*
D03*
Y55118D02*
D03*
X264567Y49606D02*
D03*
X267323Y22047D02*
D03*
X264567Y5512D02*
D03*
X261811Y154331D02*
D03*
Y77165D02*
D03*
X259055Y71653D02*
D03*
X261811Y55118D02*
D03*
X259055Y49606D02*
D03*
X261811Y33071D02*
D03*
Y22047D02*
D03*
X259055Y16535D02*
D03*
Y5512D02*
D03*
X256299Y154331D02*
D03*
Y110236D02*
D03*
X253543Y104724D02*
D03*
X256299Y99213D02*
D03*
X253543Y71653D02*
D03*
X256299Y55118D02*
D03*
X253543Y49606D02*
D03*
X256299Y33071D02*
D03*
Y22047D02*
D03*
X253543Y16535D02*
D03*
Y5512D02*
D03*
X250787Y154331D02*
D03*
Y110236D02*
D03*
X248031Y104724D02*
D03*
X250787Y99213D02*
D03*
Y88189D02*
D03*
X248031Y82677D02*
D03*
X250787Y55118D02*
D03*
X248031Y49606D02*
D03*
X250787Y33071D02*
D03*
Y22047D02*
D03*
X248031Y16535D02*
D03*
Y5512D02*
D03*
X245275Y154331D02*
D03*
X242520Y126772D02*
D03*
Y115748D02*
D03*
X245275Y99213D02*
D03*
Y88189D02*
D03*
X242520Y82677D02*
D03*
X245275Y55118D02*
D03*
X242520Y49606D02*
D03*
X245275Y33071D02*
D03*
Y22047D02*
D03*
X242520Y16535D02*
D03*
Y5512D02*
D03*
X239764Y154331D02*
D03*
X237008Y137795D02*
D03*
Y115748D02*
D03*
X239764Y110236D02*
D03*
Y99213D02*
D03*
Y88189D02*
D03*
X237008Y82677D02*
D03*
X239764Y55118D02*
D03*
X237008Y49606D02*
D03*
X239764Y33071D02*
D03*
Y22047D02*
D03*
X237008Y16535D02*
D03*
Y5512D02*
D03*
X234252Y154331D02*
D03*
X231496Y137795D02*
D03*
Y115748D02*
D03*
X234252Y110236D02*
D03*
X231496Y104724D02*
D03*
X234252Y88189D02*
D03*
X231496Y82677D02*
D03*
X234252Y55118D02*
D03*
X231496Y49606D02*
D03*
X234252Y33071D02*
D03*
Y22047D02*
D03*
X231496Y16535D02*
D03*
Y5512D02*
D03*
X228740Y154331D02*
D03*
X225984Y137795D02*
D03*
Y126772D02*
D03*
X228740Y110236D02*
D03*
X225984Y104724D02*
D03*
X228740Y99213D02*
D03*
Y88189D02*
D03*
X225984Y82677D02*
D03*
X228740Y55118D02*
D03*
Y33071D02*
D03*
Y22047D02*
D03*
X225984Y16535D02*
D03*
Y5512D02*
D03*
X223228Y154331D02*
D03*
X220472Y137795D02*
D03*
Y126772D02*
D03*
X223228Y110236D02*
D03*
X220472Y104724D02*
D03*
X223228Y99213D02*
D03*
Y55118D02*
D03*
Y22047D02*
D03*
X220472Y16535D02*
D03*
Y5512D02*
D03*
X217717Y154331D02*
D03*
X214961Y137795D02*
D03*
Y126772D02*
D03*
Y115748D02*
D03*
X217717Y99213D02*
D03*
Y88189D02*
D03*
Y55118D02*
D03*
Y22047D02*
D03*
X214961Y16535D02*
D03*
Y5512D02*
D03*
X212205Y154331D02*
D03*
X209449Y115748D02*
D03*
X212205Y99213D02*
D03*
Y88189D02*
D03*
Y33071D02*
D03*
Y22047D02*
D03*
X209449Y5512D02*
D03*
X206693Y154331D02*
D03*
X203937Y115748D02*
D03*
X206693Y110236D02*
D03*
X203937Y104724D02*
D03*
Y49606D02*
D03*
X206693Y22047D02*
D03*
X203937Y5512D02*
D03*
X201181Y154331D02*
D03*
X198425Y115748D02*
D03*
X201181Y110236D02*
D03*
X198425Y104724D02*
D03*
Y49606D02*
D03*
Y5512D02*
D03*
X195669Y154331D02*
D03*
X192913Y115748D02*
D03*
X195669Y110236D02*
D03*
X192913Y104724D02*
D03*
X195669Y99213D02*
D03*
X192913Y49606D02*
D03*
Y5512D02*
D03*
X190157Y154331D02*
D03*
X187401Y115748D02*
D03*
X190157Y110236D02*
D03*
X187401Y104724D02*
D03*
X190157Y99213D02*
D03*
X187401Y49606D02*
D03*
Y5512D02*
D03*
X184646Y154331D02*
D03*
Y132283D02*
D03*
X181890Y115748D02*
D03*
X184646Y110236D02*
D03*
X181890Y104724D02*
D03*
X184646Y99213D02*
D03*
X181890Y49606D02*
D03*
Y27559D02*
D03*
Y5512D02*
D03*
X179134Y154331D02*
D03*
Y132283D02*
D03*
X176378Y126772D02*
D03*
Y115748D02*
D03*
X179134Y110236D02*
D03*
X176378Y104724D02*
D03*
X179134Y99213D02*
D03*
Y77165D02*
D03*
X176378Y71653D02*
D03*
X179134Y33071D02*
D03*
X176378Y27559D02*
D03*
Y16535D02*
D03*
Y5512D02*
D03*
X173622Y154331D02*
D03*
Y132283D02*
D03*
X170866Y126772D02*
D03*
Y115748D02*
D03*
X173622Y110236D02*
D03*
X170866Y104724D02*
D03*
X173622Y99213D02*
D03*
Y77165D02*
D03*
X170866Y71653D02*
D03*
Y27559D02*
D03*
Y16535D02*
D03*
Y5512D02*
D03*
X168110Y154331D02*
D03*
Y132283D02*
D03*
X165354Y126772D02*
D03*
Y115748D02*
D03*
X168110Y110236D02*
D03*
X165354Y104724D02*
D03*
X168110Y99213D02*
D03*
Y77165D02*
D03*
X165354Y71653D02*
D03*
Y49606D02*
D03*
X168110Y33071D02*
D03*
X165354Y27559D02*
D03*
Y16535D02*
D03*
Y5512D02*
D03*
X162598Y154331D02*
D03*
Y132283D02*
D03*
X159843Y126772D02*
D03*
Y115748D02*
D03*
X162598Y110236D02*
D03*
X159843Y104724D02*
D03*
X162598Y99213D02*
D03*
Y77165D02*
D03*
X159843Y71653D02*
D03*
Y49606D02*
D03*
X162598Y33071D02*
D03*
X159843Y27559D02*
D03*
Y16535D02*
D03*
Y5512D02*
D03*
X157087Y154331D02*
D03*
Y132283D02*
D03*
X154331Y126772D02*
D03*
Y115748D02*
D03*
X157087Y110236D02*
D03*
X154331Y104724D02*
D03*
X157087Y99213D02*
D03*
Y77165D02*
D03*
X154331Y71653D02*
D03*
Y49606D02*
D03*
X157087Y33071D02*
D03*
X154331Y27559D02*
D03*
Y16535D02*
D03*
Y5512D02*
D03*
X151575Y154331D02*
D03*
Y132283D02*
D03*
X148819Y126772D02*
D03*
Y115748D02*
D03*
X151575Y110236D02*
D03*
X148819Y104724D02*
D03*
X151575Y99213D02*
D03*
Y77165D02*
D03*
X148819Y71653D02*
D03*
Y49606D02*
D03*
X151575Y33071D02*
D03*
X148819Y27559D02*
D03*
Y16535D02*
D03*
Y5512D02*
D03*
X146063Y154331D02*
D03*
Y132283D02*
D03*
X143307Y126772D02*
D03*
Y115748D02*
D03*
X146063Y110236D02*
D03*
X143307Y104724D02*
D03*
X146063Y99213D02*
D03*
Y77165D02*
D03*
X143307Y71653D02*
D03*
Y49606D02*
D03*
X146063Y33071D02*
D03*
X143307Y27559D02*
D03*
Y16535D02*
D03*
Y5512D02*
D03*
X140551Y154331D02*
D03*
Y132283D02*
D03*
X137795Y126772D02*
D03*
Y115748D02*
D03*
X140551Y110236D02*
D03*
X137795Y104724D02*
D03*
X140551Y99213D02*
D03*
Y77165D02*
D03*
X137795Y71653D02*
D03*
X140551Y55118D02*
D03*
X137795Y49606D02*
D03*
X140551Y33071D02*
D03*
X137795Y27559D02*
D03*
Y16535D02*
D03*
Y5512D02*
D03*
X135039Y154331D02*
D03*
Y132283D02*
D03*
X132283Y126772D02*
D03*
Y115748D02*
D03*
X135039Y110236D02*
D03*
X132283Y104724D02*
D03*
X135039Y99213D02*
D03*
Y88189D02*
D03*
Y77165D02*
D03*
X132283Y71653D02*
D03*
X135039Y55118D02*
D03*
Y33071D02*
D03*
X132283Y27559D02*
D03*
Y16535D02*
D03*
Y5512D02*
D03*
X129527Y154331D02*
D03*
Y132283D02*
D03*
X126772Y115748D02*
D03*
X129527Y110236D02*
D03*
X126772Y104724D02*
D03*
X129527Y99213D02*
D03*
Y55118D02*
D03*
Y33071D02*
D03*
X126772Y5512D02*
D03*
X124016Y154331D02*
D03*
X121260Y115748D02*
D03*
X124016Y110236D02*
D03*
X121260Y104724D02*
D03*
X124016Y99213D02*
D03*
X121260Y5512D02*
D03*
X118504Y154331D02*
D03*
X115748Y115748D02*
D03*
X118504Y110236D02*
D03*
X115748Y104724D02*
D03*
X118504Y99213D02*
D03*
X115748Y49606D02*
D03*
Y5512D02*
D03*
X112992Y154331D02*
D03*
X110236Y115748D02*
D03*
X112992Y110236D02*
D03*
X110236Y104724D02*
D03*
X112992Y99213D02*
D03*
X110236Y49606D02*
D03*
Y5512D02*
D03*
X107480Y154331D02*
D03*
X104724Y115748D02*
D03*
X107480Y110236D02*
D03*
X104724Y104724D02*
D03*
X107480Y99213D02*
D03*
X104724Y49606D02*
D03*
Y5512D02*
D03*
X101969Y154331D02*
D03*
Y132283D02*
D03*
X99213Y126772D02*
D03*
Y115748D02*
D03*
X101969Y110236D02*
D03*
X99213Y104724D02*
D03*
X101969Y99213D02*
D03*
Y77165D02*
D03*
X99213Y71653D02*
D03*
X101969Y55118D02*
D03*
X99213Y27559D02*
D03*
Y16535D02*
D03*
Y5512D02*
D03*
X96457Y154331D02*
D03*
Y132283D02*
D03*
X93701Y126772D02*
D03*
Y115748D02*
D03*
X96457Y110236D02*
D03*
X93701Y104724D02*
D03*
X96457Y99213D02*
D03*
Y88189D02*
D03*
Y77165D02*
D03*
X93701Y71653D02*
D03*
X96457Y55118D02*
D03*
X93701Y49606D02*
D03*
X96457Y33071D02*
D03*
X93701Y27559D02*
D03*
Y16535D02*
D03*
Y5512D02*
D03*
X90945Y154331D02*
D03*
Y132283D02*
D03*
X88189Y126772D02*
D03*
Y115748D02*
D03*
X90945Y110236D02*
D03*
X88189Y104724D02*
D03*
X90945Y99213D02*
D03*
Y88189D02*
D03*
Y77165D02*
D03*
X88189Y71653D02*
D03*
X90945Y55118D02*
D03*
X88189Y49606D02*
D03*
X90945Y33071D02*
D03*
X88189Y27559D02*
D03*
Y16535D02*
D03*
Y5512D02*
D03*
X85433Y154331D02*
D03*
Y132283D02*
D03*
X82677Y126772D02*
D03*
Y115748D02*
D03*
X85433Y110236D02*
D03*
X82677Y104724D02*
D03*
X85433Y99213D02*
D03*
Y88189D02*
D03*
Y77165D02*
D03*
X82677Y71653D02*
D03*
X85433Y55118D02*
D03*
X82677Y49606D02*
D03*
X85433Y33071D02*
D03*
X82677Y27559D02*
D03*
Y16535D02*
D03*
Y5512D02*
D03*
X79921Y154331D02*
D03*
Y132283D02*
D03*
X77165Y126772D02*
D03*
Y115748D02*
D03*
X79921Y110236D02*
D03*
X77165Y104724D02*
D03*
X79921Y99213D02*
D03*
Y88189D02*
D03*
Y77165D02*
D03*
X77165Y71653D02*
D03*
X79921Y55118D02*
D03*
X77165Y49606D02*
D03*
X79921Y33071D02*
D03*
X77165Y27559D02*
D03*
Y16535D02*
D03*
Y5512D02*
D03*
X74409Y154331D02*
D03*
Y132283D02*
D03*
X71653Y126772D02*
D03*
Y115748D02*
D03*
X74409Y110236D02*
D03*
X71653Y104724D02*
D03*
X74409Y99213D02*
D03*
Y88189D02*
D03*
Y77165D02*
D03*
X71653Y71653D02*
D03*
X74409Y55118D02*
D03*
X71653Y49606D02*
D03*
X74409Y33071D02*
D03*
X71653Y27559D02*
D03*
Y16535D02*
D03*
Y5512D02*
D03*
X68898Y154331D02*
D03*
Y132283D02*
D03*
X66142Y126772D02*
D03*
Y115748D02*
D03*
X68898Y110236D02*
D03*
X66142Y104724D02*
D03*
X68898Y99213D02*
D03*
Y88189D02*
D03*
Y77165D02*
D03*
X66142Y71653D02*
D03*
X68898Y55118D02*
D03*
X66142Y49606D02*
D03*
X68898Y33071D02*
D03*
X66142Y27559D02*
D03*
Y16535D02*
D03*
Y5512D02*
D03*
X63386Y154331D02*
D03*
Y132283D02*
D03*
X60630Y126772D02*
D03*
Y115748D02*
D03*
X63386Y110236D02*
D03*
X60630Y104724D02*
D03*
X63386Y99213D02*
D03*
Y88189D02*
D03*
Y77165D02*
D03*
X60630Y71653D02*
D03*
X63386Y55118D02*
D03*
X60630Y49606D02*
D03*
X63386Y33071D02*
D03*
X60630Y27559D02*
D03*
Y16535D02*
D03*
Y5512D02*
D03*
X57874Y154331D02*
D03*
Y132283D02*
D03*
X55118Y115748D02*
D03*
X57874Y110236D02*
D03*
X55118Y104724D02*
D03*
X57874Y99213D02*
D03*
Y88189D02*
D03*
Y77165D02*
D03*
X55118Y71653D02*
D03*
X57874Y55118D02*
D03*
X55118Y49606D02*
D03*
X57874Y33071D02*
D03*
X55118Y27559D02*
D03*
Y16535D02*
D03*
Y5512D02*
D03*
X52362Y154331D02*
D03*
X49606Y126772D02*
D03*
X52362Y121260D02*
D03*
X49606Y115748D02*
D03*
X52362Y110236D02*
D03*
X49606Y104724D02*
D03*
X52362Y99213D02*
D03*
Y77165D02*
D03*
X49606Y71653D02*
D03*
X52362Y55118D02*
D03*
X49606Y49606D02*
D03*
X52362Y33071D02*
D03*
X49606Y27559D02*
D03*
Y16535D02*
D03*
Y5512D02*
D03*
X46850Y154331D02*
D03*
X44094Y148819D02*
D03*
X46850Y121260D02*
D03*
X44094Y115748D02*
D03*
X46850Y110236D02*
D03*
X44094Y104724D02*
D03*
X46850Y99213D02*
D03*
X44094Y93701D02*
D03*
X46850Y55118D02*
D03*
X44094Y49606D02*
D03*
Y5512D02*
D03*
X41339Y154331D02*
D03*
X38583Y148819D02*
D03*
X41339Y121260D02*
D03*
X38583Y115748D02*
D03*
X41339Y110236D02*
D03*
X38583Y104724D02*
D03*
X41339Y99213D02*
D03*
X38583Y93701D02*
D03*
X41339Y77165D02*
D03*
Y55118D02*
D03*
X38583Y49606D02*
D03*
Y38583D02*
D03*
Y5512D02*
D03*
X35827Y154331D02*
D03*
X33071Y148819D02*
D03*
X35827Y110236D02*
D03*
X33071Y104724D02*
D03*
X35827Y99213D02*
D03*
X33071Y93701D02*
D03*
X35827Y55118D02*
D03*
X33071Y49606D02*
D03*
X35827Y44094D02*
D03*
X33071Y38583D02*
D03*
Y5512D02*
D03*
X30315Y154331D02*
D03*
X27559Y148819D02*
D03*
Y5512D02*
D03*
X24803Y154331D02*
D03*
X22047Y148819D02*
D03*
Y115748D02*
D03*
Y60630D02*
D03*
Y49606D02*
D03*
Y38583D02*
D03*
X24803Y22047D02*
D03*
X22047Y5512D02*
D03*
X19291Y132283D02*
D03*
X16535Y126772D02*
D03*
X19291Y121260D02*
D03*
X16535Y115748D02*
D03*
X19291Y110236D02*
D03*
X16535Y104724D02*
D03*
X19291Y99213D02*
D03*
X16535Y93701D02*
D03*
Y82677D02*
D03*
X19291Y77165D02*
D03*
X16535Y71653D02*
D03*
X19291Y66142D02*
D03*
X16535Y60630D02*
D03*
X19291Y55118D02*
D03*
X16535Y49606D02*
D03*
X19291Y44094D02*
D03*
X16535Y38583D02*
D03*
Y27559D02*
D03*
X19291Y22047D02*
D03*
X13780Y132283D02*
D03*
X11024Y126772D02*
D03*
X13780Y121260D02*
D03*
X11024Y115748D02*
D03*
X13780Y110236D02*
D03*
X11024Y104724D02*
D03*
X13780Y99213D02*
D03*
X11024Y93701D02*
D03*
X13780Y88189D02*
D03*
X11024Y82677D02*
D03*
X13780Y77165D02*
D03*
X11024Y71653D02*
D03*
X13780Y66142D02*
D03*
X11024Y60630D02*
D03*
X13780Y55118D02*
D03*
X11024Y49606D02*
D03*
X13780Y44094D02*
D03*
X11024Y38583D02*
D03*
X13780Y33071D02*
D03*
X11024Y27559D02*
D03*
X13780Y22047D02*
D03*
X8268Y132283D02*
D03*
X5512Y126772D02*
D03*
X8268Y121260D02*
D03*
X5512Y115748D02*
D03*
X8268Y110236D02*
D03*
X5512Y104724D02*
D03*
X8268Y99213D02*
D03*
X5512Y93701D02*
D03*
X8268Y88189D02*
D03*
X5512Y82677D02*
D03*
X8268Y77165D02*
D03*
X5512Y71653D02*
D03*
X8268Y66142D02*
D03*
X5512Y60630D02*
D03*
X8268Y55118D02*
D03*
X5512Y49606D02*
D03*
X8268Y44094D02*
D03*
X5512Y38583D02*
D03*
X8268Y33071D02*
D03*
X5512Y27559D02*
D03*
X8268Y22047D02*
D03*
X197034Y83229D02*
D03*
X197048Y72693D02*
D03*
X184918Y78858D02*
D03*
X196850Y140157D02*
D03*
X33426Y17137D02*
D03*
X33382Y127506D02*
D03*
X33489Y72466D02*
D03*
X260630Y88189D02*
D03*
X318504Y140669D02*
D03*
X314173Y143307D02*
D03*
X372835Y59842D02*
D03*
X360236Y85039D02*
D03*
X327327Y143583D02*
D03*
X317717Y53543D02*
D03*
X197033Y29882D02*
D03*
X115200Y29686D02*
D03*
X326426Y117557D02*
D03*
X115157Y127636D02*
D03*
X278836Y30017D02*
D03*
X360236Y29921D02*
D03*
Y16929D02*
D03*
X278740Y15787D02*
D03*
X196850Y16181D02*
D03*
X114961Y15394D02*
D03*
X33450Y29841D02*
D03*
X33410Y85001D02*
D03*
X114961Y84646D02*
D03*
Y72441D02*
D03*
X278346Y85433D02*
D03*
X354331Y68110D02*
D03*
X360236Y127559D02*
D03*
Y139370D02*
D03*
X196850Y127165D02*
D03*
X33463Y140456D02*
D03*
X115205Y139683D02*
D03*
X43110Y17323D02*
D03*
X42989Y43307D02*
D03*
X331496Y66929D02*
D03*
X337764Y67163D02*
D03*
X360630Y145276D02*
D03*
X318671Y96965D02*
D03*
X357016Y112685D02*
D03*
X318551Y75472D02*
D03*
X339812Y116376D02*
D03*
X345144Y122964D02*
D03*
X347685Y68425D02*
D03*
X348079Y97872D02*
D03*
X312646Y84486D02*
D03*
Y80943D02*
D03*
X301622Y84093D02*
D03*
X337401Y106140D02*
D03*
X353197Y107715D02*
D03*
X337843Y112045D02*
D03*
X336449Y45904D02*
D03*
X336292Y53935D02*
D03*
D81*
X296457Y142913D02*
D03*
X331102Y131102D02*
D03*
X344882Y136221D02*
D03*
X325197Y90158D02*
D03*
X333858D02*
D03*
X329528Y86221D02*
D03*
X325197Y81890D02*
D03*
X333858D02*
D03*
X284028Y61652D02*
D03*
X301622Y121297D02*
D03*
D82*
X43110Y17323D02*
D03*
X23819D02*
D03*
Y29921D02*
D03*
X369882Y127559D02*
D03*
X350590D02*
D03*
Y140157D02*
D03*
X23819Y85039D02*
D03*
Y72441D02*
D03*
X43110D02*
D03*
X268898Y85039D02*
D03*
Y72441D02*
D03*
X288189D02*
D03*
X23819Y140157D02*
D03*
Y127559D02*
D03*
X43110D02*
D03*
X187205Y140157D02*
D03*
Y127559D02*
D03*
X206496D02*
D03*
X268898Y140157D02*
D03*
Y127559D02*
D03*
X288189D02*
D03*
X105512Y140157D02*
D03*
Y127559D02*
D03*
X124803D02*
D03*
X350590Y85039D02*
D03*
Y72441D02*
D03*
X369882D02*
D03*
X187205Y85039D02*
D03*
Y72441D02*
D03*
X206496D02*
D03*
X350590Y29921D02*
D03*
Y17323D02*
D03*
X369882D02*
D03*
X268898Y29921D02*
D03*
Y17323D02*
D03*
X288189D02*
D03*
X187205Y29921D02*
D03*
Y17323D02*
D03*
X206496D02*
D03*
X105512Y85039D02*
D03*
Y72441D02*
D03*
X124803D02*
D03*
X105512Y29921D02*
D03*
Y17323D02*
D03*
X124803D02*
D03*
D83*
X43110Y29921D02*
D03*
X369882Y140157D02*
D03*
X43110Y85039D02*
D03*
X288189D02*
D03*
X43110Y140157D02*
D03*
X206496D02*
D03*
X288189D02*
D03*
X124803D02*
D03*
X369882Y85039D02*
D03*
X206496D02*
D03*
X369882Y29921D02*
D03*
X288189D02*
D03*
X206496D02*
D03*
X124803Y85039D02*
D03*
Y29921D02*
D03*
D84*
X33463Y140456D02*
X43409D01*
X294882Y93701D02*
X303335D01*
X326426Y116791D01*
X327006Y117557D02*
X330937Y121488D01*
X33410Y85001D02*
X33448Y85039D01*
X43110D01*
X124803Y145669D02*
X126378Y147244D01*
X124803Y140157D02*
Y145669D01*
X43409Y140456D02*
X50197Y147244D01*
X43110Y140157D02*
X43409Y140456D01*
X50197Y147244D02*
X126378D01*
X330937Y121488D02*
X343668D01*
X206299Y147244D02*
X281102D01*
X126378D02*
X206299D01*
X206496Y147047D01*
Y140157D02*
Y147047D01*
X281102Y147244D02*
X288189Y140157D01*
X377953Y119685D02*
Y132087D01*
Y93110D02*
Y119685D01*
X376378Y121260D02*
X377953Y119685D01*
X369882Y85039D02*
X377953Y93110D01*
X346848Y121260D02*
X376378D01*
X345144Y122964D02*
X346848Y121260D01*
X369882Y140157D02*
X377953Y132087D01*
X124016Y93701D02*
X207087D01*
X51772D02*
X124016D01*
X124803Y92913D01*
Y85039D02*
Y92913D01*
X207087Y93701D02*
X294882D01*
X206496Y93110D02*
X207087Y93701D01*
X206496Y85039D02*
Y93110D01*
X294094Y84093D02*
X301622D01*
X289136D02*
X294094D01*
Y92913D01*
X294882Y93701D01*
X43110Y85039D02*
X51772Y93701D01*
D85*
X302803Y65195D02*
D03*
X307725D02*
D03*
X312646D02*
D03*
X317567D02*
D03*
M02*
