G04*
G04 #@! TF.GenerationSoftware,Altium Limited,Altium Designer,21.6.1 (37)*
G04*
G04 Layer_Color=128*
%FSLAX44Y44*%
%MOMM*%
G71*
G04*
G04 #@! TF.SameCoordinates,0813FF6F-B006-406F-97BA-69BB68F56CCD*
G04*
G04*
G04 #@! TF.FilePolarity,Positive*
G04*
G01*
G75*
%ADD21R,1.8000X3.8000*%
%ADD22R,1.0000X2.7000*%
%ADD82R,1.5000X1.0000*%
G04:AMPARAMS|DCode=83|XSize=1.5mm|YSize=1mm|CornerRadius=0.25mm|HoleSize=0mm|Usage=FLASHONLY|Rotation=180.000|XOffset=0mm|YOffset=0mm|HoleType=Round|Shape=RoundedRectangle|*
%AMROUNDEDRECTD83*
21,1,1.5000,0.5000,0,0,180.0*
21,1,1.0000,1.0000,0,0,180.0*
1,1,0.5000,-0.5000,0.2500*
1,1,0.5000,0.5000,0.2500*
1,1,0.5000,0.5000,-0.2500*
1,1,0.5000,-0.5000,-0.2500*
%
%ADD83ROUNDEDRECTD83*%
D21*
X871121Y379595D02*
D03*
X751121D02*
D03*
D22*
X848621Y332595D02*
D03*
X833621D02*
D03*
X818621D02*
D03*
X803621D02*
D03*
X788621D02*
D03*
X773621D02*
D03*
D82*
X109500Y44000D02*
D03*
X60500D02*
D03*
Y76000D02*
D03*
X939500Y324000D02*
D03*
X890500D02*
D03*
Y356000D02*
D03*
X60500Y216000D02*
D03*
Y184000D02*
D03*
X109500D02*
D03*
X683000Y216000D02*
D03*
Y184000D02*
D03*
X732000D02*
D03*
X60500Y356000D02*
D03*
Y324000D02*
D03*
X109500D02*
D03*
X475500Y356000D02*
D03*
Y324000D02*
D03*
X524500D02*
D03*
X683000Y356000D02*
D03*
Y324000D02*
D03*
X732000D02*
D03*
X268000Y356000D02*
D03*
Y324000D02*
D03*
X317000D02*
D03*
X890500Y216000D02*
D03*
Y184000D02*
D03*
X939500D02*
D03*
X475500Y216000D02*
D03*
Y184000D02*
D03*
X524500D02*
D03*
X890500Y76000D02*
D03*
Y44000D02*
D03*
X939500D02*
D03*
X683000Y76000D02*
D03*
Y44000D02*
D03*
X732000D02*
D03*
X475500Y76000D02*
D03*
Y44000D02*
D03*
X524500D02*
D03*
X268000Y216000D02*
D03*
Y184000D02*
D03*
X317000D02*
D03*
X268000Y76000D02*
D03*
Y44000D02*
D03*
X317000D02*
D03*
D83*
X109500Y76000D02*
D03*
X939500Y356000D02*
D03*
X109500Y216000D02*
D03*
X732000D02*
D03*
X109500Y356000D02*
D03*
X524500D02*
D03*
X732000D02*
D03*
X317000D02*
D03*
X939500Y216000D02*
D03*
X524500D02*
D03*
X939500Y76000D02*
D03*
X732000D02*
D03*
X524500D02*
D03*
X317000Y216000D02*
D03*
Y76000D02*
D03*
M02*
