G04*
G04 #@! TF.GenerationSoftware,Altium Limited,Altium Designer,21.4.1 (30)*
G04*
G04 Layer_Color=32896*
%FSLAX25Y25*%
%MOIN*%
G70*
G04*
G04 #@! TF.SameCoordinates,0925FAD0-936D-4726-9005-38EE8A2EBB20*
G04*
G04*
G04 #@! TF.FilePolarity,Positive*
G04*
G01*
G75*
%ADD10C,0.00787*%
%ADD11C,0.00500*%
%ADD15C,0.00000*%
%ADD16C,0.00591*%
%ADD89C,0.00400*%
%ADD90C,0.00200*%
G36*
X323937Y142276D02*
X320196D01*
Y144246D01*
X323937D01*
Y142276D01*
D02*
G37*
G36*
Y137676D02*
X320193D01*
Y139642D01*
X323937D01*
Y137676D01*
D02*
G37*
G36*
X362126Y134842D02*
X358385D01*
Y136812D01*
X362126D01*
Y134842D01*
D02*
G37*
G36*
X198741D02*
X195000D01*
Y136812D01*
X198741D01*
Y134842D01*
D02*
G37*
G36*
X117048D02*
X113307D01*
Y136812D01*
X117048D01*
Y134842D01*
D02*
G37*
G36*
X35355D02*
X31614D01*
Y136812D01*
X35355D01*
Y134842D01*
D02*
G37*
G36*
X362126Y130242D02*
X358382D01*
Y132208D01*
X362126D01*
Y130242D01*
D02*
G37*
G36*
X198741D02*
X194997D01*
Y132208D01*
X198741D01*
Y130242D01*
D02*
G37*
G36*
X117048D02*
X113304D01*
Y132208D01*
X117048D01*
Y130242D01*
D02*
G37*
G36*
X35355D02*
X31611D01*
Y132208D01*
X35355D01*
Y130242D01*
D02*
G37*
G36*
X279807Y128074D02*
X276063D01*
Y130041D01*
X279807D01*
Y128074D01*
D02*
G37*
G36*
X348625Y124328D02*
X346654D01*
Y128069D01*
X348625D01*
Y124328D01*
D02*
G37*
G36*
X344021D02*
X342054D01*
Y128072D01*
X344021D01*
Y124328D01*
D02*
G37*
G36*
X279804Y123470D02*
X276063D01*
Y125441D01*
X279804D01*
Y123470D01*
D02*
G37*
G36*
X316862Y114135D02*
X313118D01*
Y116102D01*
X316862D01*
Y114135D01*
D02*
G37*
G36*
X347636Y114014D02*
X349555D01*
Y113226D01*
X347636D01*
Y111996D01*
X346750D01*
Y113226D01*
X344831D01*
Y114014D01*
X346750D01*
Y114162D01*
X347636D01*
Y114014D01*
D02*
G37*
G36*
X316859Y109531D02*
X313118D01*
Y111502D01*
X316859D01*
Y109531D01*
D02*
G37*
G36*
X349605Y109043D02*
X348276D01*
Y108896D01*
X348079D01*
Y109093D01*
X348128D01*
Y109240D01*
X349605D01*
Y109043D01*
D02*
G37*
G36*
X346406Y108108D02*
X345225D01*
Y108896D01*
X346406D01*
Y108108D01*
D02*
G37*
G36*
X348867Y107813D02*
X348276D01*
Y108600D01*
X348867D01*
Y107813D01*
D02*
G37*
G36*
X347636Y107665D02*
X346750D01*
Y111209D01*
X347636D01*
Y107665D01*
D02*
G37*
G36*
X317614Y100746D02*
X315644D01*
Y104487D01*
X317614D01*
Y100746D01*
D02*
G37*
G36*
X322214Y100743D02*
X320248D01*
Y104487D01*
X322214D01*
Y100743D01*
D02*
G37*
G36*
X350291Y96021D02*
X348321D01*
Y99762D01*
X350291D01*
Y96021D01*
D02*
G37*
G36*
X354891Y96018D02*
X352925D01*
Y99762D01*
X354891D01*
Y96018D01*
D02*
G37*
G36*
X362126Y79724D02*
X358385D01*
Y81694D01*
X362126D01*
Y79724D01*
D02*
G37*
G36*
X280434D02*
X276692D01*
Y81694D01*
X280434D01*
Y79724D01*
D02*
G37*
G36*
X198741D02*
X195000D01*
Y81694D01*
X198741D01*
Y79724D01*
D02*
G37*
G36*
X117048D02*
X113307D01*
Y81694D01*
X117048D01*
Y79724D01*
D02*
G37*
G36*
X35355D02*
X31614D01*
Y81694D01*
X35355D01*
Y79724D01*
D02*
G37*
G36*
X362126Y75124D02*
X358382D01*
Y77090D01*
X362126D01*
Y75124D01*
D02*
G37*
G36*
X280434D02*
X276690D01*
Y77090D01*
X280434D01*
Y75124D01*
D02*
G37*
G36*
X198741D02*
X194997D01*
Y77090D01*
X198741D01*
Y75124D01*
D02*
G37*
G36*
X117048D02*
X113304D01*
Y77090D01*
X117048D01*
Y75124D01*
D02*
G37*
G36*
X35355D02*
X31611D01*
Y77090D01*
X35355D01*
Y75124D01*
D02*
G37*
G36*
X349504Y68068D02*
X347533D01*
Y71810D01*
X349504D01*
Y68068D01*
D02*
G37*
G36*
X354104Y68066D02*
X352138D01*
Y71810D01*
X354104D01*
Y68066D01*
D02*
G37*
G36*
X327492Y66104D02*
X323748D01*
Y68070D01*
X327492D01*
Y66104D01*
D02*
G37*
G36*
X327489Y61500D02*
X323748D01*
Y63470D01*
X327489D01*
Y61500D01*
D02*
G37*
G36*
X355481Y51565D02*
X351740D01*
Y53536D01*
X355481D01*
Y51565D01*
D02*
G37*
G36*
X330826Y51537D02*
X327082D01*
Y53503D01*
X330826D01*
Y51537D01*
D02*
G37*
G36*
X355481Y46965D02*
X351737D01*
Y48932D01*
X355481D01*
Y46965D01*
D02*
G37*
G36*
X330823Y46933D02*
X327082D01*
Y48903D01*
X330823D01*
Y46933D01*
D02*
G37*
G36*
X362126Y24606D02*
X358385D01*
Y26576D01*
X362126D01*
Y24606D01*
D02*
G37*
G36*
X280434D02*
X276692D01*
Y26576D01*
X280434D01*
Y24606D01*
D02*
G37*
G36*
X198741D02*
X195000D01*
Y26576D01*
X198741D01*
Y24606D01*
D02*
G37*
G36*
X117048D02*
X113307D01*
Y26576D01*
X117048D01*
Y24606D01*
D02*
G37*
G36*
X35355D02*
X31614D01*
Y26576D01*
X35355D01*
Y24606D01*
D02*
G37*
G36*
X362126Y20006D02*
X358382D01*
Y21972D01*
X362126D01*
Y20006D01*
D02*
G37*
G36*
X280434D02*
X276690D01*
Y21972D01*
X280434D01*
Y20006D01*
D02*
G37*
G36*
X198741D02*
X194997D01*
Y21972D01*
X198741D01*
Y20006D01*
D02*
G37*
G36*
X117048D02*
X113304D01*
Y21972D01*
X117048D01*
Y20006D01*
D02*
G37*
G36*
X35355D02*
X31611D01*
Y21972D01*
X35355D01*
Y20006D01*
D02*
G37*
D10*
X317961Y59486D02*
G03*
X317961Y59486I-394J0D01*
G01*
D02*
G03*
X317961Y59486I-394J0D01*
G01*
X311878Y138305D02*
G03*
X311878Y138305I-394J0D01*
G01*
D02*
G03*
X311878Y138305I-394J0D01*
G01*
X317764Y74250D02*
Y97872D01*
X341386D01*
Y74250D02*
Y97872D01*
X317764Y74250D02*
X341386D01*
X317764D02*
Y97872D01*
X341386D01*
Y74250D02*
Y97872D01*
X317764Y74250D02*
X341386D01*
D11*
X313779Y127559D02*
Y133858D01*
Y127559D02*
X326378D01*
Y133858D01*
X313779D02*
X326378D01*
X313779Y127559D02*
Y133858D01*
Y127559D02*
X326378D01*
Y133858D01*
X313779D02*
X326378D01*
X309449Y139764D02*
Y146063D01*
X296850D02*
X309449D01*
X296850Y139764D02*
Y146063D01*
Y139764D02*
X309449D01*
Y146063D01*
X296850D02*
X309449D01*
X296850Y139764D02*
Y146063D01*
Y139764D02*
X309449D01*
X293945Y82715D02*
X326426D01*
Y65982D02*
Y82715D01*
X293945Y65982D02*
X326426D01*
X293945D02*
Y82715D01*
X326426D01*
Y65982D02*
Y82715D01*
X293945Y65982D02*
X326426D01*
X293945D02*
Y82715D01*
X341386Y74250D02*
Y97872D01*
Y74250D02*
Y97872D01*
X354575Y74644D02*
Y87242D01*
X349457Y74644D02*
Y87242D01*
X354575Y74644D02*
Y87242D01*
X349457Y74644D02*
Y87242D01*
X282725Y58108D02*
Y65195D01*
X296111Y58108D02*
Y65195D01*
X282725D02*
X296111D01*
X282725Y58108D02*
X296111D01*
X282725D02*
Y65195D01*
X296111Y58108D02*
Y65195D01*
X282725D02*
X296111D01*
X282725Y58108D02*
X296111D01*
X282725Y67951D02*
Y75037D01*
X296111Y67951D02*
Y75037D01*
X282725D02*
X296111D01*
X282725Y67951D02*
X296111D01*
X282725D02*
Y75037D01*
X296111Y67951D02*
Y75037D01*
X282725D02*
X296111D01*
X282725Y67951D02*
X296111D01*
X291780Y113423D02*
X311465D01*
X291780Y129171D02*
X311465D01*
X291780Y113423D02*
Y129171D01*
X311465Y113423D02*
Y129171D01*
X291780Y113423D02*
X311465D01*
X291780Y129171D02*
X311465D01*
X291780Y113423D02*
Y129171D01*
X311465Y113423D02*
Y129171D01*
D15*
X339792Y55935D02*
G03*
X342193Y55935I1200J0D01*
G01*
X339792D02*
G03*
X342193Y55935I1200J0D01*
G01*
X339792D02*
G03*
X342193Y55935I1200J0D01*
G01*
X339792D02*
G03*
X342193Y55935I1200J0D01*
G01*
X344092Y44535D02*
Y45535D01*
X337893Y54935D02*
Y55935D01*
Y51235D02*
Y53035D01*
Y47435D02*
Y49235D01*
Y44535D02*
Y45535D01*
X344092Y54935D02*
Y55935D01*
X337893Y44535D02*
X344092D01*
Y47435D02*
Y53035D01*
X342193Y55935D02*
X344092D01*
X339792D02*
X342193D01*
X337893D02*
X339792D01*
X337893Y53035D02*
Y54935D01*
X335492D02*
X337893D01*
X335492Y53035D02*
Y54935D01*
Y53035D02*
X337893D01*
Y49235D02*
Y51235D01*
X335492D02*
X337893D01*
X335492Y49235D02*
Y51235D01*
Y49235D02*
X337893D01*
Y45535D02*
Y47435D01*
X335492D02*
X337893D01*
X335492Y45535D02*
Y47435D01*
Y45535D02*
X337893D01*
X344092D02*
Y47435D01*
Y45535D02*
X346493D01*
Y47435D01*
X344092D02*
X346493D01*
X344092Y53035D02*
Y54935D01*
Y53035D02*
X346493D01*
Y54935D01*
X344092D02*
X346493D01*
X344092Y44535D02*
Y45535D01*
X337893Y54935D02*
Y55935D01*
Y51235D02*
Y53035D01*
Y47435D02*
Y49235D01*
Y44535D02*
Y45535D01*
X344092Y54935D02*
Y55935D01*
X337893Y44535D02*
X344092D01*
Y47435D02*
Y53035D01*
X342193Y55935D02*
X344092D01*
X339792D02*
X342193D01*
X337893D02*
X339792D01*
X337893Y53035D02*
Y54935D01*
X335492D02*
X337893D01*
X335492Y53035D02*
Y54935D01*
Y53035D02*
X337893D01*
Y49235D02*
Y51235D01*
X335492D02*
X337893D01*
X335492Y49235D02*
Y51235D01*
Y49235D02*
X337893D01*
Y45535D02*
Y47435D01*
X335492D02*
X337893D01*
X335492Y45535D02*
Y47435D01*
Y45535D02*
X337893D01*
X344092D02*
Y47435D01*
Y45535D02*
X346493D01*
Y47435D01*
X344092D02*
X346493D01*
X344092Y53035D02*
Y54935D01*
Y53035D02*
X346493D01*
Y54935D01*
X344092D02*
X346493D01*
D16*
X278985Y101415D02*
X292764D01*
X278985Y80156D02*
X292764D01*
X278985Y101415D02*
X292764D01*
X278985Y80156D02*
X292764D01*
D89*
X348374Y108109D02*
G03*
X346012Y108109I-1181J-103D01*
G01*
X348374D02*
G03*
X346012Y108109I-1181J-103D01*
G01*
X280244Y76991D02*
Y79794D01*
X276894Y76991D02*
Y79794D01*
X280244Y76991D02*
Y79794D01*
X276894Y76991D02*
Y79794D01*
X361937Y76991D02*
Y79794D01*
X358587Y76991D02*
Y79794D01*
X361937Y76991D02*
Y79794D01*
X358587Y76991D02*
Y79794D01*
X31815Y21873D02*
Y24676D01*
X35165Y21873D02*
Y24676D01*
X31815Y21873D02*
Y24676D01*
X35165Y21873D02*
Y24676D01*
X113508Y21873D02*
Y24676D01*
X116858Y21873D02*
Y24676D01*
X113508Y21873D02*
Y24676D01*
X116858Y21873D02*
Y24676D01*
X358587Y21873D02*
Y24676D01*
X361937Y21873D02*
Y24676D01*
X358587Y21873D02*
Y24676D01*
X361937Y21873D02*
Y24676D01*
X276894Y21873D02*
Y24676D01*
X280244Y21873D02*
Y24676D01*
X276894Y21873D02*
Y24676D01*
X280244Y21873D02*
Y24676D01*
X195201Y21873D02*
Y24676D01*
X198551Y21873D02*
Y24676D01*
X195201Y21873D02*
Y24676D01*
X198551Y21873D02*
Y24676D01*
X343922Y124518D02*
X346725D01*
X343922Y127868D02*
X346725D01*
X343922Y124518D02*
X346725D01*
X343922Y127868D02*
X346725D01*
X323748Y139543D02*
Y142347D01*
X320398Y139543D02*
Y142347D01*
X323748Y139543D02*
Y142347D01*
X320398Y139543D02*
Y142347D01*
X31815Y132109D02*
Y134912D01*
X35165Y132109D02*
Y134912D01*
X31815Y132109D02*
Y134912D01*
X35165Y132109D02*
Y134912D01*
X279602Y125370D02*
Y128173D01*
X276252Y125370D02*
Y128173D01*
X279602Y125370D02*
Y128173D01*
X276252Y125370D02*
Y128173D01*
X358587Y132109D02*
Y134912D01*
X361937Y132109D02*
Y134912D01*
X358587Y132109D02*
Y134912D01*
X361937Y132109D02*
Y134912D01*
X195201Y132109D02*
Y134912D01*
X198551Y132109D02*
Y134912D01*
X195201Y132109D02*
Y134912D01*
X198551Y132109D02*
Y134912D01*
X113508Y132109D02*
Y134912D01*
X116858Y132109D02*
Y134912D01*
X113508Y132109D02*
Y134912D01*
X116858Y132109D02*
Y134912D01*
X195201Y76991D02*
Y79794D01*
X198551Y76991D02*
Y79794D01*
X195201Y76991D02*
Y79794D01*
X198551Y76991D02*
Y79794D01*
X31815Y76991D02*
Y79794D01*
X35165Y76991D02*
Y79794D01*
X31815Y76991D02*
Y79794D01*
X35165Y76991D02*
Y79794D01*
X113508Y76991D02*
Y79794D01*
X116858Y76991D02*
Y79794D01*
X113508Y76991D02*
Y79794D01*
X116858Y76991D02*
Y79794D01*
X349433Y71620D02*
X352237D01*
X349433Y68270D02*
X352237D01*
X349433Y71620D02*
X352237D01*
X349433Y68270D02*
X352237D01*
X355292Y48833D02*
Y51636D01*
X351941Y48833D02*
Y51636D01*
X355292Y48833D02*
Y51636D01*
X351941Y48833D02*
Y51636D01*
X317544Y104297D02*
X320347D01*
X317544Y100947D02*
X320347D01*
X317544Y104297D02*
X320347D01*
X317544Y100947D02*
X320347D01*
X323937Y63400D02*
Y66203D01*
X327288Y63400D02*
Y66203D01*
X323937Y63400D02*
Y66203D01*
X327288Y63400D02*
Y66203D01*
X313307Y111431D02*
Y114234D01*
X316658Y111431D02*
Y114234D01*
X313307Y111431D02*
Y114234D01*
X316658Y111431D02*
Y114234D01*
X350221Y99573D02*
X353024D01*
X350221Y96223D02*
X353024D01*
X350221Y99573D02*
X353024D01*
X350221Y96223D02*
X353024D01*
X348768Y109782D02*
Y112636D01*
X345619Y109880D02*
Y112636D01*
X348768Y109782D02*
Y112636D01*
X345619Y109880D02*
Y112636D01*
X327272Y48833D02*
Y51636D01*
X330622Y48833D02*
Y51636D01*
X327272Y48833D02*
Y51636D01*
X330622Y48833D02*
Y51636D01*
D90*
X346111Y114506D02*
G03*
X348276Y114506I1083J0D01*
G01*
X348867Y108797D02*
G03*
X348867Y108797I-295J0D01*
G01*
X346111Y114506D02*
G03*
X348276Y114506I1083J0D01*
G01*
X348867Y108797D02*
G03*
X348867Y108797I-295J0D01*
G01*
M02*
