G04*
G04 #@! TF.GenerationSoftware,Altium Limited,Altium Designer,21.4.1 (30)*
G04*
G04 Layer_Color=32896*
%FSLAX25Y25*%
%MOIN*%
G70*
G04*
G04 #@! TF.SameCoordinates,09C99F31-8A2D-4C19-8B9A-7F94627C8F68*
G04*
G04*
G04 #@! TF.FilePolarity,Positive*
G04*
G01*
G75*
%ADD10C,0.00787*%
%ADD11C,0.00500*%
%ADD12C,0.00039*%
%ADD16C,0.00591*%
%ADD17C,0.01181*%
%ADD67C,0.00669*%
G36*
X243551Y119715D02*
X243551Y119715D01*
X243551Y119720D01*
X243550Y119730D01*
X243550Y119740D01*
X243550Y119750D01*
Y119755D01*
X243551Y119715D01*
D02*
G37*
G36*
X246065Y121756D02*
X246810Y121402D01*
X247356Y120784D01*
X247616Y120001D01*
X247582Y119590D01*
X247582Y119590D01*
X247582Y119585D01*
X247577Y119577D01*
X247569Y119571D01*
X247560Y119570D01*
X247555Y119571D01*
X247085Y117036D01*
X247085D01*
X247084Y117032D01*
X247079Y117024D01*
X247071Y117020D01*
X247062Y117019D01*
X247058Y117020D01*
X243580Y118187D01*
X243577Y118188D01*
X243572Y118192D01*
X243568Y118197D01*
X243566Y118203D01*
X243566Y118207D01*
X243551Y119715D01*
X243550Y119756D01*
Y120168D01*
X243874Y120927D01*
X244469Y121498D01*
X245241Y121790D01*
X246065Y121756D01*
D02*
G37*
G36*
X241080Y118473D02*
X241080Y118473D01*
X241080D01*
Y118473D01*
D02*
G37*
G36*
X235206Y106886D02*
X232190Y109086D01*
X232598Y109212D01*
X233393Y109527D01*
X234152Y109921D01*
X234867Y110389D01*
X235206Y110650D01*
Y106886D01*
D02*
G37*
G36*
X240161Y118781D02*
X241080Y118473D01*
X240220Y118403D01*
X238518Y118119D01*
X236858Y117651D01*
X235260Y117002D01*
X233742Y116182D01*
X232324Y115199D01*
X231023Y114067D01*
X229854Y112798D01*
X228832Y111409D01*
X227969Y109915D01*
X227276Y108336D01*
X226760Y106690D01*
X226571Y105848D01*
X226393Y106800D01*
X226371Y108737D01*
X226683Y110649D01*
X227320Y112478D01*
X228263Y114171D01*
X229483Y115675D01*
X230944Y116947D01*
X232603Y117948D01*
X234409Y118648D01*
X236309Y119026D01*
X238246Y119071D01*
X240161Y118781D01*
D02*
G37*
G36*
X231999Y103628D02*
X232471Y103295D01*
X232956Y102982D01*
X233453Y102690D01*
X233707Y102551D01*
Y102551D01*
Y102551D01*
D01*
X233508Y101929D01*
X233199Y100662D01*
X233008Y99372D01*
X232937Y98069D01*
X232986Y96766D01*
X233156Y95472D01*
X233445Y94200D01*
X233850Y92960D01*
X234095Y92356D01*
X233678Y92522D01*
X232863Y92897D01*
X232069Y93315D01*
X231297Y93775D01*
X230925Y94025D01*
X230676Y95245D01*
X230533Y97733D01*
X230747Y100215D01*
X231314Y102641D01*
X231768Y103801D01*
X231768Y103801D01*
X231999Y103628D01*
D02*
G37*
G36*
X238073Y115123D02*
X238818Y114978D01*
X240258Y114496D01*
X241623Y113832D01*
X242891Y112997D01*
X244041Y112005D01*
X245053Y110873D01*
X245910Y109619D01*
X246597Y108266D01*
X247104Y106834D01*
X247422Y105350D01*
X247545Y103836D01*
X247471Y102320D01*
X247336Y101573D01*
Y101573D01*
X247336D01*
X247336Y101573D01*
X247287Y102266D01*
X247052Y103636D01*
X246638Y104963D01*
X246052Y106223D01*
X245304Y107395D01*
X244409Y108458D01*
X243380Y109393D01*
X242237Y110184D01*
X241000Y110817D01*
X239690Y111280D01*
X238330Y111567D01*
X236943Y111671D01*
X236248Y111654D01*
X236563Y112035D01*
X237122Y112850D01*
X237582Y113725D01*
X237936Y114648D01*
X238073Y115123D01*
Y115123D01*
D02*
G37*
G36*
X228071Y104996D02*
X229431Y104618D01*
X230074Y104326D01*
X230074Y104326D01*
X229603Y103605D01*
X228826Y102067D01*
X228287Y100432D01*
X227995Y98735D01*
X227945Y97874D01*
X227945D01*
X227607Y98385D01*
X226833Y99335D01*
X225942Y100175D01*
X224949Y100891D01*
X223870Y101471D01*
X222725Y101905D01*
X221532Y102184D01*
X220314Y102306D01*
X219701Y102306D01*
X220188Y102817D01*
X221306Y103678D01*
X222545Y104357D01*
X223872Y104837D01*
X225258Y105107D01*
X226669Y105160D01*
X228071Y104996D01*
D02*
G37*
G36*
X249198Y116046D02*
X250907Y114682D01*
X252375Y113061D01*
X253564Y111227D01*
X254444Y109225D01*
X254991Y107108D01*
X255191Y104930D01*
X255040Y102749D01*
X254541Y100620D01*
X253708Y98599D01*
X252560Y96737D01*
X251130Y95084D01*
X250291Y94383D01*
X249896Y94096D01*
X249074Y93569D01*
X248223Y93091D01*
X247346Y92662D01*
X246896Y92474D01*
X247817Y93173D01*
X249488Y94770D01*
X250902Y96599D01*
X252025Y98620D01*
X252833Y100786D01*
X253307Y103049D01*
X253436Y105357D01*
X253218Y107659D01*
X252657Y109901D01*
X251766Y112035D01*
X250565Y114011D01*
X249082Y115784D01*
X248245Y116582D01*
X249198Y116046D01*
D02*
G37*
G36*
X242941Y100515D02*
X242780Y99297D01*
X242756Y98070D01*
X242870Y96847D01*
X243120Y95644D01*
X243502Y94477D01*
X244013Y93361D01*
X244645Y92308D01*
X245004Y91809D01*
Y91809D01*
X244719Y91728D01*
X244143Y91585D01*
X243562Y91462D01*
X242977Y91360D01*
X242683Y91319D01*
Y91319D01*
X242274Y91806D01*
X241582Y92873D01*
X241024Y94016D01*
X240609Y95218D01*
X240343Y96462D01*
X240230Y97728D01*
X240271Y98999D01*
X240465Y100256D01*
X240638Y100868D01*
X240638D01*
X240945Y100876D01*
X241556Y100911D01*
X242165Y100973D01*
X242771Y101061D01*
X243072Y101115D01*
X243072Y101115D01*
X242941Y100515D01*
D02*
G37*
G36*
X235957Y101585D02*
X236546Y101405D01*
X237142Y101250D01*
X237745Y101121D01*
X238048Y101066D01*
X237936Y100422D01*
X237814Y99119D01*
X237830Y97812D01*
X237983Y96513D01*
X238273Y95237D01*
X238695Y93999D01*
X239245Y92813D01*
X239917Y91690D01*
X240296Y91158D01*
X239986Y91159D01*
X239366Y91183D01*
X238748Y91231D01*
X238132Y91301D01*
X237825Y91347D01*
X237427Y91899D01*
X236750Y93079D01*
X236200Y94324D01*
X235784Y95620D01*
X235506Y96952D01*
X235369Y98306D01*
X235374Y99667D01*
X235521Y101020D01*
X235665Y101685D01*
Y101685D01*
X235957Y101585D01*
D02*
G37*
G36*
X224986Y49351D02*
X223966D01*
Y51560D01*
X221975D01*
Y49351D01*
X220955D01*
Y54396D01*
X221975D01*
Y52413D01*
X223966D01*
Y54396D01*
X224986D01*
Y49351D01*
D02*
G37*
G36*
X212455D02*
X211434D01*
Y51560D01*
X209444D01*
Y49351D01*
X208423D01*
Y54396D01*
X209444D01*
Y52413D01*
X211434D01*
Y54396D01*
X212455D01*
Y49351D01*
D02*
G37*
G36*
X171580Y51473D02*
Y49351D01*
X170559D01*
Y51465D01*
X168715Y54396D01*
X169888D01*
X171047Y52399D01*
X172236Y54396D01*
X173424D01*
X171580Y51473D01*
D02*
G37*
G36*
X203058Y49351D02*
X202117D01*
Y52675D01*
X200069Y49351D01*
X199048D01*
Y54396D01*
X199989D01*
Y50999D01*
X202074Y54396D01*
X203058D01*
Y49351D01*
D02*
G37*
G36*
X188959Y49351D02*
X188019D01*
Y52675D01*
X185970Y49351D01*
X184950D01*
Y54396D01*
X185890D01*
Y50999D01*
X187975Y54396D01*
X188959D01*
Y49351D01*
D02*
G37*
G36*
X207490Y50700D02*
X205588D01*
Y51670D01*
X207490D01*
Y50700D01*
D02*
G37*
G36*
X215881Y54483D02*
X216114Y54454D01*
X216216Y54432D01*
X216318Y54410D01*
X216413Y54389D01*
X216493Y54367D01*
X216566Y54338D01*
X216639Y54316D01*
X216690Y54294D01*
X216741Y54279D01*
X216778Y54257D01*
X216807Y54250D01*
X216821Y54236D01*
X216829D01*
X217055Y54104D01*
X217149Y54024D01*
X217244Y53951D01*
X217332Y53871D01*
X217412Y53791D01*
X217485Y53711D01*
X217550Y53638D01*
X217601Y53565D01*
X217652Y53499D01*
X217696Y53441D01*
X217733Y53390D01*
X217755Y53346D01*
X217776Y53317D01*
X217784Y53295D01*
X217791Y53288D01*
X217849Y53171D01*
X217900Y53055D01*
X217981Y52814D01*
X218039Y52573D01*
X218075Y52362D01*
X218090Y52260D01*
X218104Y52172D01*
X218112Y52092D01*
Y52019D01*
X218119Y51968D01*
Y51925D01*
Y51895D01*
Y51888D01*
X218104Y51618D01*
X218075Y51371D01*
X218024Y51145D01*
X218002Y51035D01*
X217973Y50941D01*
X217944Y50853D01*
X217922Y50773D01*
X217893Y50707D01*
X217871Y50649D01*
X217857Y50605D01*
X217842Y50569D01*
X217827Y50547D01*
Y50539D01*
X217703Y50321D01*
X217565Y50131D01*
X217419Y49964D01*
X217273Y49832D01*
X217208Y49774D01*
X217142Y49723D01*
X217091Y49679D01*
X217040Y49650D01*
X217004Y49621D01*
X216967Y49599D01*
X216953Y49592D01*
X216945Y49584D01*
X216829Y49526D01*
X216719Y49475D01*
X216479Y49395D01*
X216245Y49337D01*
X216034Y49300D01*
X215932Y49286D01*
X215844Y49271D01*
X215764Y49264D01*
X215691D01*
X215640Y49257D01*
X215560D01*
X215327Y49264D01*
X215108Y49293D01*
X214897Y49329D01*
X214715Y49373D01*
X214634Y49395D01*
X214562Y49417D01*
X214496Y49439D01*
X214438Y49453D01*
X214394Y49468D01*
X214365Y49483D01*
X214343Y49490D01*
X214335D01*
X214117Y49577D01*
X213934Y49672D01*
X213774Y49767D01*
X213636Y49847D01*
X213534Y49920D01*
X213497Y49949D01*
X213461Y49978D01*
X213439Y50000D01*
X213417Y50015D01*
X213402Y50029D01*
Y52056D01*
X215597D01*
Y51203D01*
X214430D01*
Y50554D01*
X214518Y50489D01*
X214613Y50430D01*
X214707Y50379D01*
X214795Y50335D01*
X214868Y50299D01*
X214933Y50270D01*
X214970Y50255D01*
X214977Y50248D01*
X214984D01*
X215101Y50204D01*
X215217Y50175D01*
X215327Y50153D01*
X215422Y50139D01*
X215509Y50131D01*
X215567Y50124D01*
X215626D01*
X215742Y50131D01*
X215859Y50146D01*
X215961Y50168D01*
X216063Y50197D01*
X216245Y50270D01*
X216318Y50306D01*
X216391Y50350D01*
X216457Y50394D01*
X216515Y50430D01*
X216559Y50474D01*
X216603Y50503D01*
X216632Y50532D01*
X216654Y50554D01*
X216668Y50569D01*
X216676Y50576D01*
X216741Y50664D01*
X216807Y50766D01*
X216858Y50868D01*
X216901Y50977D01*
X216974Y51203D01*
X217018Y51422D01*
X217033Y51524D01*
X217047Y51626D01*
X217055Y51706D01*
X217062Y51786D01*
X217069Y51844D01*
Y51895D01*
Y51925D01*
Y51932D01*
X217062Y52085D01*
X217055Y52223D01*
X217033Y52362D01*
X217011Y52486D01*
X216982Y52595D01*
X216945Y52697D01*
X216909Y52792D01*
X216872Y52880D01*
X216843Y52952D01*
X216807Y53018D01*
X216770Y53069D01*
X216741Y53113D01*
X216719Y53149D01*
X216697Y53171D01*
X216690Y53186D01*
X216683Y53193D01*
X216603Y53266D01*
X216523Y53339D01*
X216435Y53390D01*
X216348Y53441D01*
X216260Y53485D01*
X216173Y53521D01*
X216005Y53572D01*
X215925Y53587D01*
X215852Y53601D01*
X215786Y53609D01*
X215728Y53616D01*
X215684Y53623D01*
X215618D01*
X215458Y53616D01*
X215320Y53587D01*
X215196Y53558D01*
X215086Y53514D01*
X215006Y53477D01*
X214941Y53441D01*
X214904Y53412D01*
X214890Y53404D01*
X214787Y53317D01*
X214700Y53222D01*
X214627Y53127D01*
X214576Y53033D01*
X214532Y52945D01*
X214503Y52880D01*
X214489Y52836D01*
X214481Y52829D01*
Y52821D01*
X213468Y53011D01*
X213497Y53135D01*
X213541Y53259D01*
X213585Y53368D01*
X213643Y53470D01*
X213694Y53572D01*
X213752Y53660D01*
X213811Y53740D01*
X213869Y53813D01*
X213927Y53878D01*
X213978Y53937D01*
X214022Y53988D01*
X214066Y54024D01*
X214102Y54053D01*
X214131Y54083D01*
X214146Y54090D01*
X214153Y54097D01*
X214255Y54170D01*
X214365Y54228D01*
X214481Y54279D01*
X214605Y54323D01*
X214846Y54396D01*
X215079Y54440D01*
X215188Y54461D01*
X215290Y54469D01*
X215385Y54476D01*
X215465Y54483D01*
X215531Y54491D01*
X215618D01*
X215881Y54483D01*
D02*
G37*
G36*
X219934Y49351D02*
X218914D01*
Y54396D01*
X219934D01*
Y49351D01*
D02*
G37*
G36*
X205055D02*
X204035D01*
Y54396D01*
X205055D01*
Y49351D01*
D02*
G37*
G36*
X198327Y53543D02*
X196832D01*
Y49351D01*
X195812Y49351D01*
Y53543D01*
X194324D01*
Y54396D01*
X198327Y54396D01*
Y53543D01*
D02*
G37*
G36*
X193661Y49351D02*
X189827D01*
Y50204D01*
X192640D01*
Y51575D01*
X190111D01*
Y52428D01*
X192640D01*
Y53543D01*
X189921D01*
Y54396D01*
X193661D01*
Y49351D01*
D02*
G37*
G36*
X179205D02*
X178184D01*
Y54396D01*
X179205D01*
Y49351D01*
D02*
G37*
G36*
X177565Y53543D02*
X176070D01*
Y49351D01*
X175050D01*
Y53543D01*
X173563D01*
Y54396D01*
X177565D01*
Y53543D01*
D02*
G37*
G36*
X182325Y54483D02*
X182515Y54461D01*
X182682Y54432D01*
X182828Y54403D01*
X182894Y54381D01*
X182952Y54367D01*
X182996Y54352D01*
X183039Y54338D01*
X183069Y54323D01*
X183090Y54316D01*
X183105Y54308D01*
X183112D01*
X183258Y54236D01*
X183382Y54155D01*
X183492Y54068D01*
X183579Y53988D01*
X183652Y53915D01*
X183696Y53856D01*
X183732Y53813D01*
X183739Y53805D01*
Y53798D01*
X183812Y53674D01*
X183863Y53543D01*
X183900Y53419D01*
X183922Y53310D01*
X183936Y53215D01*
X183951Y53142D01*
Y53113D01*
Y53091D01*
Y53084D01*
Y53076D01*
X183943Y52967D01*
X183929Y52858D01*
X183907Y52763D01*
X183878Y52668D01*
X183805Y52493D01*
X183718Y52340D01*
X183681Y52275D01*
X183637Y52223D01*
X183601Y52172D01*
X183564Y52129D01*
X183535Y52100D01*
X183513Y52078D01*
X183499Y52063D01*
X183492Y52056D01*
X183426Y52005D01*
X183346Y51954D01*
X183265Y51903D01*
X183171Y51859D01*
X182989Y51771D01*
X182799Y51699D01*
X182704Y51670D01*
X182624Y51640D01*
X182544Y51618D01*
X182478Y51597D01*
X182427Y51582D01*
X182383Y51567D01*
X182354Y51560D01*
X182347D01*
X182230Y51531D01*
X182128Y51502D01*
X182034Y51480D01*
X181946Y51458D01*
X181873Y51436D01*
X181807Y51422D01*
X181749Y51400D01*
X181698Y51385D01*
X181654Y51378D01*
X181618Y51363D01*
X181567Y51349D01*
X181538Y51334D01*
X181530D01*
X181436Y51298D01*
X181363Y51261D01*
X181297Y51225D01*
X181246Y51188D01*
X181210Y51159D01*
X181188Y51137D01*
X181173Y51123D01*
X181166Y51115D01*
X181130Y51064D01*
X181100Y51013D01*
X181086Y50962D01*
X181071Y50919D01*
X181064Y50875D01*
X181057Y50838D01*
Y50817D01*
Y50809D01*
X181064Y50707D01*
X181093Y50620D01*
X181137Y50532D01*
X181181Y50459D01*
X181232Y50401D01*
X181268Y50357D01*
X181297Y50328D01*
X181312Y50321D01*
X181414Y50255D01*
X181530Y50204D01*
X181654Y50168D01*
X181771Y50146D01*
X181880Y50131D01*
X181968Y50117D01*
X182048D01*
X182216Y50124D01*
X182361Y50153D01*
X182485Y50190D01*
X182595Y50233D01*
X182682Y50277D01*
X182741Y50314D01*
X182777Y50343D01*
X182792Y50350D01*
X182886Y50452D01*
X182959Y50561D01*
X183025Y50685D01*
X183069Y50809D01*
X183105Y50919D01*
X183134Y51006D01*
X183142Y51035D01*
Y51064D01*
X183149Y51079D01*
Y51086D01*
X184140Y50991D01*
X184118Y50838D01*
X184089Y50693D01*
X184046Y50554D01*
X184009Y50430D01*
X183958Y50314D01*
X183907Y50204D01*
X183856Y50109D01*
X183805Y50022D01*
X183754Y49949D01*
X183703Y49883D01*
X183659Y49825D01*
X183615Y49774D01*
X183586Y49738D01*
X183557Y49716D01*
X183543Y49701D01*
X183535Y49694D01*
X183433Y49614D01*
X183324Y49548D01*
X183207Y49490D01*
X183083Y49439D01*
X182967Y49402D01*
X182843Y49366D01*
X182602Y49315D01*
X182493Y49293D01*
X182391Y49278D01*
X182303Y49271D01*
X182223Y49264D01*
X182157Y49257D01*
X182063D01*
X181829Y49264D01*
X181618Y49286D01*
X181428Y49315D01*
X181348Y49329D01*
X181268Y49351D01*
X181202Y49366D01*
X181144Y49380D01*
X181093Y49395D01*
X181049Y49410D01*
X181013Y49424D01*
X180991Y49431D01*
X180976Y49439D01*
X180969D01*
X180809Y49519D01*
X180677Y49606D01*
X180554Y49694D01*
X180459Y49789D01*
X180386Y49869D01*
X180328Y49942D01*
X180298Y49986D01*
X180284Y49993D01*
Y50000D01*
X180204Y50146D01*
X180138Y50284D01*
X180094Y50423D01*
X180065Y50554D01*
X180051Y50656D01*
X180043Y50707D01*
X180036Y50744D01*
Y50773D01*
Y50795D01*
Y50809D01*
Y50817D01*
X180043Y50991D01*
X180065Y51145D01*
X180102Y51283D01*
X180138Y51400D01*
X180175Y51494D01*
X180211Y51560D01*
X180233Y51604D01*
X180240Y51618D01*
X180320Y51735D01*
X180415Y51837D01*
X180510Y51925D01*
X180597Y51998D01*
X180677Y52056D01*
X180743Y52100D01*
X180787Y52129D01*
X180794Y52136D01*
X180801D01*
X180874Y52172D01*
X180947Y52209D01*
X181122Y52275D01*
X181305Y52333D01*
X181479Y52391D01*
X181560Y52413D01*
X181640Y52435D01*
X181713Y52457D01*
X181771Y52471D01*
X181822Y52486D01*
X181859Y52493D01*
X181888Y52500D01*
X181895D01*
X182026Y52537D01*
X182143Y52566D01*
X182252Y52595D01*
X182354Y52624D01*
X182434Y52654D01*
X182515Y52683D01*
X182580Y52712D01*
X182639Y52734D01*
X182690Y52756D01*
X182726Y52777D01*
X182763Y52792D01*
X182784Y52807D01*
X182821Y52829D01*
X182828Y52836D01*
X182879Y52887D01*
X182916Y52938D01*
X182937Y52989D01*
X182952Y53040D01*
X182967Y53076D01*
X182974Y53113D01*
Y53135D01*
Y53142D01*
X182967Y53215D01*
X182952Y53273D01*
X182923Y53332D01*
X182894Y53375D01*
X182864Y53412D01*
X182835Y53434D01*
X182821Y53448D01*
X182814Y53456D01*
X182711Y53521D01*
X182602Y53565D01*
X182485Y53601D01*
X182376Y53623D01*
X182281Y53638D01*
X182201Y53645D01*
X182128D01*
X181975Y53638D01*
X181844Y53616D01*
X181735Y53587D01*
X181647Y53558D01*
X181574Y53528D01*
X181523Y53499D01*
X181494Y53477D01*
X181487Y53470D01*
X181414Y53397D01*
X181348Y53310D01*
X181297Y53222D01*
X181261Y53127D01*
X181232Y53047D01*
X181217Y52982D01*
X181202Y52931D01*
Y52923D01*
Y52916D01*
X180182Y52952D01*
X180189Y53084D01*
X180211Y53200D01*
X180240Y53317D01*
X180277Y53419D01*
X180313Y53521D01*
X180357Y53616D01*
X180401Y53696D01*
X180444Y53776D01*
X180495Y53842D01*
X180539Y53900D01*
X180583Y53951D01*
X180619Y53995D01*
X180648Y54024D01*
X180670Y54046D01*
X180685Y54061D01*
X180692Y54068D01*
X180787Y54141D01*
X180889Y54206D01*
X180998Y54265D01*
X181115Y54316D01*
X181232Y54352D01*
X181348Y54389D01*
X181581Y54440D01*
X181691Y54454D01*
X181786Y54469D01*
X181880Y54476D01*
X181961Y54483D01*
X182026Y54491D01*
X182114D01*
X182325Y54483D01*
D02*
G37*
G36*
X179409Y43108D02*
X178389D01*
Y45317D01*
X176398D01*
Y43108D01*
X175378D01*
Y48153D01*
X176398D01*
Y46170D01*
X178389D01*
Y48153D01*
X179409D01*
Y43108D01*
D02*
G37*
G36*
X219256Y43108D02*
X218155D01*
X216362Y48153D01*
X217448D01*
X218680Y44420D01*
X219963Y48153D01*
X221064D01*
X219256Y43108D01*
D02*
G37*
G36*
X182835Y48240D02*
X183069Y48211D01*
X183171Y48189D01*
X183273Y48167D01*
X183368Y48145D01*
X183448Y48124D01*
X183521Y48094D01*
X183593Y48073D01*
X183645Y48051D01*
X183696Y48036D01*
X183732Y48014D01*
X183761Y48007D01*
X183776Y47992D01*
X183783D01*
X184009Y47861D01*
X184104Y47781D01*
X184199Y47708D01*
X184286Y47628D01*
X184366Y47548D01*
X184439Y47467D01*
X184505Y47395D01*
X184556Y47322D01*
X184607Y47256D01*
X184651Y47198D01*
X184687Y47147D01*
X184709Y47103D01*
X184731Y47074D01*
X184738Y47052D01*
X184745Y47045D01*
X184804Y46928D01*
X184855Y46811D01*
X184935Y46571D01*
X184993Y46330D01*
X185030Y46119D01*
X185044Y46017D01*
X185059Y45929D01*
X185066Y45849D01*
Y45776D01*
X185073Y45725D01*
Y45682D01*
Y45652D01*
Y45645D01*
X185059Y45375D01*
X185030Y45127D01*
X184979Y44901D01*
X184957Y44792D01*
X184928Y44697D01*
X184898Y44610D01*
X184877Y44530D01*
X184847Y44464D01*
X184826Y44406D01*
X184811Y44362D01*
X184796Y44326D01*
X184782Y44304D01*
Y44296D01*
X184658Y44078D01*
X184519Y43888D01*
X184374Y43720D01*
X184228Y43589D01*
X184162Y43531D01*
X184097Y43480D01*
X184046Y43436D01*
X183994Y43407D01*
X183958Y43378D01*
X183922Y43356D01*
X183907Y43349D01*
X183900Y43341D01*
X183783Y43283D01*
X183674Y43232D01*
X183433Y43152D01*
X183200Y43093D01*
X182989Y43057D01*
X182886Y43042D01*
X182799Y43028D01*
X182719Y43021D01*
X182646D01*
X182595Y43013D01*
X182515D01*
X182281Y43021D01*
X182063Y43050D01*
X181851Y43086D01*
X181669Y43130D01*
X181589Y43152D01*
X181516Y43174D01*
X181450Y43196D01*
X181392Y43210D01*
X181348Y43225D01*
X181319Y43239D01*
X181297Y43247D01*
X181290D01*
X181071Y43334D01*
X180889Y43429D01*
X180729Y43524D01*
X180590Y43604D01*
X180488Y43677D01*
X180452Y43706D01*
X180415Y43735D01*
X180393Y43757D01*
X180371Y43771D01*
X180357Y43786D01*
Y45813D01*
X182551D01*
Y44960D01*
X181385D01*
Y44311D01*
X181472Y44245D01*
X181567Y44187D01*
X181662Y44136D01*
X181749Y44092D01*
X181822Y44056D01*
X181888Y44027D01*
X181924Y44012D01*
X181931Y44005D01*
X181939D01*
X182055Y43961D01*
X182172Y43932D01*
X182281Y43910D01*
X182376Y43895D01*
X182464Y43888D01*
X182522Y43881D01*
X182580D01*
X182697Y43888D01*
X182814Y43903D01*
X182916Y43925D01*
X183018Y43954D01*
X183200Y44027D01*
X183273Y44063D01*
X183346Y44107D01*
X183411Y44151D01*
X183470Y44187D01*
X183513Y44231D01*
X183557Y44260D01*
X183586Y44289D01*
X183608Y44311D01*
X183623Y44326D01*
X183630Y44333D01*
X183696Y44420D01*
X183761Y44522D01*
X183812Y44624D01*
X183856Y44734D01*
X183929Y44960D01*
X183973Y45178D01*
X183987Y45281D01*
X184002Y45383D01*
X184009Y45463D01*
X184016Y45543D01*
X184024Y45601D01*
Y45652D01*
Y45682D01*
Y45689D01*
X184016Y45842D01*
X184009Y45980D01*
X183987Y46119D01*
X183965Y46243D01*
X183936Y46352D01*
X183900Y46454D01*
X183863Y46549D01*
X183827Y46637D01*
X183798Y46709D01*
X183761Y46775D01*
X183725Y46826D01*
X183696Y46870D01*
X183674Y46906D01*
X183652Y46928D01*
X183645Y46943D01*
X183637Y46950D01*
X183557Y47023D01*
X183477Y47096D01*
X183389Y47147D01*
X183302Y47198D01*
X183214Y47242D01*
X183127Y47278D01*
X182959Y47329D01*
X182879Y47344D01*
X182806Y47358D01*
X182741Y47365D01*
X182682Y47373D01*
X182639Y47380D01*
X182573D01*
X182413Y47373D01*
X182274Y47344D01*
X182150Y47314D01*
X182041Y47271D01*
X181961Y47234D01*
X181895Y47198D01*
X181859Y47169D01*
X181844Y47161D01*
X181742Y47074D01*
X181654Y46979D01*
X181581Y46884D01*
X181530Y46790D01*
X181487Y46702D01*
X181458Y46637D01*
X181443Y46593D01*
X181436Y46585D01*
Y46578D01*
X180422Y46768D01*
X180452Y46892D01*
X180495Y47016D01*
X180539Y47125D01*
X180597Y47227D01*
X180648Y47329D01*
X180707Y47416D01*
X180765Y47497D01*
X180823Y47570D01*
X180882Y47635D01*
X180933Y47693D01*
X180976Y47745D01*
X181020Y47781D01*
X181057Y47810D01*
X181086Y47839D01*
X181100Y47847D01*
X181108Y47854D01*
X181210Y47927D01*
X181319Y47985D01*
X181436Y48036D01*
X181560Y48080D01*
X181800Y48153D01*
X182034Y48197D01*
X182143Y48218D01*
X182245Y48226D01*
X182340Y48233D01*
X182420Y48240D01*
X182485Y48248D01*
X182573D01*
X182835Y48240D01*
D02*
G37*
G36*
X215881Y43108D02*
X214860D01*
Y48153D01*
X215881D01*
Y43108D01*
D02*
G37*
G36*
X209218D02*
X208197D01*
Y48153D01*
X209218D01*
Y43108D01*
D02*
G37*
G36*
X207220D02*
X205033D01*
X204909Y43115D01*
X204691D01*
X204603Y43123D01*
X204465D01*
X204414Y43130D01*
X204341D01*
X204312Y43137D01*
X204282D01*
X204137Y43159D01*
X204006Y43196D01*
X203889Y43232D01*
X203787Y43276D01*
X203707Y43312D01*
X203648Y43349D01*
X203612Y43371D01*
X203597Y43378D01*
X203495Y43458D01*
X203415Y43545D01*
X203335Y43626D01*
X203276Y43713D01*
X203225Y43786D01*
X203189Y43844D01*
X203167Y43881D01*
X203160Y43895D01*
X203109Y44019D01*
X203065Y44136D01*
X203036Y44253D01*
X203021Y44355D01*
X203007Y44442D01*
X202999Y44508D01*
Y44552D01*
Y44559D01*
Y44566D01*
X203007Y44726D01*
X203036Y44872D01*
X203080Y44996D01*
X203123Y45113D01*
X203167Y45200D01*
X203211Y45266D01*
X203240Y45310D01*
X203247Y45324D01*
X203349Y45441D01*
X203459Y45536D01*
X203583Y45616D01*
X203692Y45674D01*
X203794Y45725D01*
X203882Y45762D01*
X203911Y45769D01*
X203933Y45776D01*
X203947Y45783D01*
X203955D01*
X203838Y45849D01*
X203736Y45915D01*
X203648Y45995D01*
X203575Y46061D01*
X203524Y46126D01*
X203481Y46177D01*
X203451Y46214D01*
X203444Y46228D01*
X203379Y46345D01*
X203328Y46454D01*
X203298Y46564D01*
X203269Y46666D01*
X203255Y46753D01*
X203247Y46819D01*
Y46863D01*
Y46870D01*
Y46877D01*
X203255Y46994D01*
X203269Y47110D01*
X203298Y47205D01*
X203328Y47293D01*
X203357Y47365D01*
X203386Y47424D01*
X203400Y47453D01*
X203408Y47467D01*
X203466Y47562D01*
X203532Y47642D01*
X203597Y47715D01*
X203656Y47781D01*
X203714Y47825D01*
X203758Y47861D01*
X203787Y47883D01*
X203794Y47890D01*
X203882Y47949D01*
X203976Y47992D01*
X204064Y48029D01*
X204144Y48058D01*
X204217Y48080D01*
X204268Y48094D01*
X204304Y48102D01*
X204319D01*
X204443Y48116D01*
X204581Y48131D01*
X204727Y48138D01*
X204873Y48145D01*
X205004Y48153D01*
X207220D01*
Y43108D01*
D02*
G37*
G36*
X202110D02*
X198553D01*
Y43961D01*
X201090D01*
Y48116D01*
X202110D01*
Y43108D01*
D02*
G37*
G36*
X197824D02*
X193989Y43108D01*
Y43961D01*
X196803Y43961D01*
Y45331D01*
X194273Y45331D01*
Y46185D01*
X196803Y46185D01*
Y47300D01*
X194084Y47300D01*
Y48153D01*
X197824Y48153D01*
Y43108D01*
D02*
G37*
G36*
X191139Y43108D02*
X187581D01*
Y43961D01*
X190118D01*
Y48116D01*
X191139D01*
Y43108D01*
D02*
G37*
G36*
X186889D02*
X185868D01*
Y48153D01*
X186889D01*
Y43108D01*
D02*
G37*
G36*
X174678Y47300D02*
X173183D01*
Y43108D01*
X172163D01*
Y47300D01*
X170676D01*
Y48153D01*
X174678D01*
Y47300D01*
D02*
G37*
G36*
X212338Y48240D02*
X212527Y48218D01*
X212695Y48189D01*
X212841Y48160D01*
X212907Y48138D01*
X212965Y48124D01*
X213009Y48109D01*
X213052Y48094D01*
X213082Y48080D01*
X213104Y48073D01*
X213118Y48065D01*
X213125D01*
X213271Y47992D01*
X213395Y47912D01*
X213504Y47825D01*
X213592Y47745D01*
X213665Y47672D01*
X213708Y47613D01*
X213745Y47570D01*
X213752Y47562D01*
Y47555D01*
X213825Y47431D01*
X213876Y47300D01*
X213913Y47176D01*
X213934Y47067D01*
X213949Y46972D01*
X213964Y46899D01*
Y46870D01*
Y46848D01*
Y46841D01*
Y46833D01*
X213956Y46724D01*
X213942Y46615D01*
X213920Y46520D01*
X213891Y46425D01*
X213818Y46250D01*
X213730Y46097D01*
X213694Y46031D01*
X213650Y45980D01*
X213614Y45929D01*
X213577Y45886D01*
X213548Y45856D01*
X213526Y45835D01*
X213512Y45820D01*
X213504Y45813D01*
X213439Y45762D01*
X213359Y45711D01*
X213278Y45660D01*
X213184Y45616D01*
X213001Y45528D01*
X212812Y45456D01*
X212717Y45426D01*
X212637Y45397D01*
X212557Y45375D01*
X212491Y45353D01*
X212440Y45339D01*
X212396Y45324D01*
X212367Y45317D01*
X212360D01*
X212243Y45288D01*
X212141Y45259D01*
X212046Y45237D01*
X211959Y45215D01*
X211886Y45193D01*
X211820Y45178D01*
X211762Y45157D01*
X211711Y45142D01*
X211667Y45135D01*
X211631Y45120D01*
X211580Y45106D01*
X211551Y45091D01*
X211543D01*
X211449Y45055D01*
X211376Y45018D01*
X211310Y44982D01*
X211259Y44945D01*
X211223Y44916D01*
X211201Y44894D01*
X211186Y44880D01*
X211179Y44872D01*
X211142Y44821D01*
X211113Y44770D01*
X211099Y44719D01*
X211084Y44675D01*
X211077Y44632D01*
X211069Y44595D01*
Y44573D01*
Y44566D01*
X211077Y44464D01*
X211106Y44377D01*
X211150Y44289D01*
X211193Y44216D01*
X211245Y44158D01*
X211281Y44114D01*
X211310Y44085D01*
X211325Y44078D01*
X211427Y44012D01*
X211543Y43961D01*
X211667Y43925D01*
X211784Y43903D01*
X211893Y43888D01*
X211981Y43874D01*
X212061D01*
X212229Y43881D01*
X212374Y43910D01*
X212498Y43946D01*
X212608Y43990D01*
X212695Y44034D01*
X212754Y44070D01*
X212790Y44100D01*
X212805Y44107D01*
X212899Y44209D01*
X212972Y44318D01*
X213038Y44442D01*
X213082Y44566D01*
X213118Y44675D01*
X213147Y44763D01*
X213155Y44792D01*
Y44821D01*
X213162Y44836D01*
Y44843D01*
X214153Y44748D01*
X214131Y44595D01*
X214102Y44449D01*
X214058Y44311D01*
X214022Y44187D01*
X213971Y44070D01*
X213920Y43961D01*
X213869Y43866D01*
X213818Y43779D01*
X213767Y43706D01*
X213716Y43640D01*
X213672Y43582D01*
X213628Y43531D01*
X213599Y43494D01*
X213570Y43473D01*
X213555Y43458D01*
X213548Y43451D01*
X213446Y43371D01*
X213337Y43305D01*
X213220Y43247D01*
X213096Y43196D01*
X212980Y43159D01*
X212856Y43123D01*
X212615Y43072D01*
X212506Y43050D01*
X212404Y43035D01*
X212316Y43028D01*
X212236Y43021D01*
X212170Y43013D01*
X212076D01*
X211842Y43021D01*
X211631Y43042D01*
X211441Y43072D01*
X211361Y43086D01*
X211281Y43108D01*
X211215Y43123D01*
X211157Y43137D01*
X211106Y43152D01*
X211062Y43166D01*
X211026Y43181D01*
X211004Y43188D01*
X210989Y43196D01*
X210982D01*
X210822Y43276D01*
X210690Y43363D01*
X210566Y43451D01*
X210472Y43545D01*
X210399Y43626D01*
X210340Y43699D01*
X210311Y43742D01*
X210297Y43750D01*
Y43757D01*
X210217Y43903D01*
X210151Y44041D01*
X210107Y44180D01*
X210078Y44311D01*
X210064Y44413D01*
X210056Y44464D01*
X210049Y44500D01*
Y44530D01*
Y44552D01*
Y44566D01*
Y44573D01*
X210056Y44748D01*
X210078Y44901D01*
X210115Y45040D01*
X210151Y45157D01*
X210187Y45251D01*
X210224Y45317D01*
X210246Y45361D01*
X210253Y45375D01*
X210333Y45492D01*
X210428Y45594D01*
X210523Y45682D01*
X210610Y45754D01*
X210690Y45813D01*
X210756Y45856D01*
X210800Y45886D01*
X210807Y45893D01*
X210814D01*
X210887Y45929D01*
X210960Y45966D01*
X211135Y46031D01*
X211317Y46090D01*
X211492Y46148D01*
X211573Y46170D01*
X211653Y46192D01*
X211726Y46214D01*
X211784Y46228D01*
X211835Y46243D01*
X211871Y46250D01*
X211901Y46257D01*
X211908D01*
X212039Y46294D01*
X212156Y46323D01*
X212265Y46352D01*
X212367Y46381D01*
X212447Y46411D01*
X212527Y46440D01*
X212593Y46469D01*
X212651Y46491D01*
X212702Y46512D01*
X212739Y46534D01*
X212775Y46549D01*
X212797Y46564D01*
X212834Y46585D01*
X212841Y46593D01*
X212892Y46644D01*
X212929Y46695D01*
X212950Y46746D01*
X212965Y46797D01*
X212980Y46833D01*
X212987Y46870D01*
Y46892D01*
Y46899D01*
X212980Y46972D01*
X212965Y47030D01*
X212936Y47088D01*
X212907Y47132D01*
X212877Y47169D01*
X212848Y47190D01*
X212834Y47205D01*
X212826Y47212D01*
X212724Y47278D01*
X212615Y47322D01*
X212498Y47358D01*
X212389Y47380D01*
X212294Y47395D01*
X212214Y47402D01*
X212141D01*
X211988Y47395D01*
X211857Y47373D01*
X211748Y47344D01*
X211660Y47314D01*
X211587Y47285D01*
X211536Y47256D01*
X211507Y47234D01*
X211500Y47227D01*
X211427Y47154D01*
X211361Y47067D01*
X211310Y46979D01*
X211274Y46884D01*
X211245Y46804D01*
X211230Y46738D01*
X211215Y46687D01*
Y46680D01*
Y46673D01*
X210195Y46709D01*
X210202Y46841D01*
X210224Y46957D01*
X210253Y47074D01*
X210290Y47176D01*
X210326Y47278D01*
X210370Y47373D01*
X210413Y47453D01*
X210457Y47533D01*
X210508Y47599D01*
X210552Y47657D01*
X210596Y47708D01*
X210632Y47752D01*
X210661Y47781D01*
X210683Y47803D01*
X210698Y47817D01*
X210705Y47825D01*
X210800Y47898D01*
X210902Y47963D01*
X211011Y48022D01*
X211128Y48073D01*
X211245Y48109D01*
X211361Y48145D01*
X211594Y48197D01*
X211704Y48211D01*
X211799Y48226D01*
X211893Y48233D01*
X211974Y48240D01*
X212039Y48248D01*
X212127D01*
X212338Y48240D01*
D02*
G37*
G36*
X208835Y39489D02*
X210578Y36865D01*
X209353D01*
X208230Y38571D01*
X207115Y36865D01*
X205890D01*
X207625Y39489D01*
X206043Y41910D01*
X207231D01*
X208230Y40401D01*
X209229Y41910D01*
X210417D01*
X208835Y39489D01*
D02*
G37*
G36*
X190486Y39212D02*
Y39059D01*
X190479Y38913D01*
Y38775D01*
X190472Y38651D01*
X190464Y38534D01*
X190457Y38432D01*
X190450Y38337D01*
X190435Y38250D01*
X190428Y38177D01*
X190421Y38111D01*
X190413Y38053D01*
X190406Y38010D01*
X190399Y37973D01*
Y37951D01*
X190392Y37937D01*
Y37929D01*
X190355Y37820D01*
X190319Y37718D01*
X190268Y37623D01*
X190224Y37543D01*
X190180Y37470D01*
X190144Y37412D01*
X190114Y37383D01*
X190107Y37368D01*
X190020Y37273D01*
X189925Y37186D01*
X189823Y37113D01*
X189728Y37047D01*
X189648Y36996D01*
X189575Y36960D01*
X189531Y36938D01*
X189524Y36931D01*
X189517D01*
X189444Y36901D01*
X189364Y36880D01*
X189181Y36836D01*
X188999Y36807D01*
X188824Y36792D01*
X188744Y36785D01*
X188664Y36777D01*
X188598D01*
X188532Y36770D01*
X188416D01*
X188205Y36777D01*
X188015Y36792D01*
X187847Y36821D01*
X187709Y36850D01*
X187650Y36858D01*
X187592Y36872D01*
X187548Y36887D01*
X187512Y36901D01*
X187483Y36909D01*
X187461Y36916D01*
X187454Y36923D01*
X187446D01*
X187315Y36982D01*
X187198Y37054D01*
X187096Y37120D01*
X187009Y37186D01*
X186943Y37244D01*
X186892Y37288D01*
X186863Y37317D01*
X186856Y37332D01*
X186776Y37434D01*
X186710Y37543D01*
X186659Y37645D01*
X186615Y37747D01*
X186586Y37835D01*
X186564Y37907D01*
X186557Y37929D01*
Y37951D01*
X186550Y37958D01*
Y37966D01*
X186535Y38046D01*
X186521Y38133D01*
X186506Y38228D01*
X186499Y38323D01*
X186484Y38542D01*
X186469Y38753D01*
Y38848D01*
Y38943D01*
X186462Y39030D01*
Y39103D01*
Y39161D01*
Y39212D01*
Y39241D01*
Y39249D01*
Y41910D01*
X187483D01*
Y39110D01*
Y39001D01*
Y38899D01*
X187490Y38804D01*
Y38717D01*
X187497Y38644D01*
Y38571D01*
X187505Y38505D01*
Y38447D01*
X187519Y38359D01*
X187527Y38294D01*
X187534Y38257D01*
Y38243D01*
X187556Y38148D01*
X187592Y38068D01*
X187636Y37995D01*
X187680Y37929D01*
X187723Y37878D01*
X187760Y37842D01*
X187789Y37820D01*
X187796Y37813D01*
X187884Y37754D01*
X187993Y37711D01*
X188095Y37681D01*
X188205Y37659D01*
X188299Y37645D01*
X188372Y37638D01*
X188445D01*
X188598Y37645D01*
X188729Y37667D01*
X188846Y37696D01*
X188948Y37732D01*
X189021Y37762D01*
X189079Y37791D01*
X189108Y37813D01*
X189123Y37820D01*
X189203Y37893D01*
X189269Y37980D01*
X189327Y38061D01*
X189364Y38141D01*
X189393Y38214D01*
X189415Y38272D01*
X189429Y38308D01*
Y38323D01*
X189436Y38367D01*
X189444Y38410D01*
Y38469D01*
X189451Y38534D01*
X189458Y38673D01*
Y38819D01*
X189466Y38950D01*
Y39008D01*
Y39066D01*
Y39110D01*
Y39139D01*
Y39161D01*
Y39169D01*
Y41910D01*
X190486D01*
Y39212D01*
D02*
G37*
G36*
X214762Y36865D02*
X210927D01*
Y37718D01*
X213741D01*
Y39088D01*
X211212D01*
Y39941D01*
X213741D01*
Y41057D01*
X211022D01*
Y41910D01*
X214762D01*
Y36865D01*
D02*
G37*
G36*
X205358D02*
X204337D01*
Y38768D01*
X203433D01*
X203324Y38775D01*
X203222D01*
X203127Y38782D01*
X203040Y38789D01*
X202959Y38797D01*
X202894Y38804D01*
X202828D01*
X202777Y38811D01*
X202726Y38819D01*
X202690Y38826D01*
X202660D01*
X202639Y38833D01*
X202624D01*
X202522Y38862D01*
X202427Y38899D01*
X202340Y38935D01*
X202260Y38979D01*
X202194Y39015D01*
X202143Y39045D01*
X202114Y39066D01*
X202099Y39074D01*
X202004Y39147D01*
X201924Y39227D01*
X201844Y39314D01*
X201786Y39387D01*
X201735Y39460D01*
X201698Y39518D01*
X201676Y39555D01*
X201669Y39570D01*
X201611Y39693D01*
X201567Y39825D01*
X201538Y39963D01*
X201516Y40087D01*
X201501Y40189D01*
Y40240D01*
X201494Y40277D01*
Y40313D01*
Y40335D01*
Y40350D01*
Y40357D01*
X201509Y40568D01*
X201538Y40765D01*
X201589Y40925D01*
X201640Y41071D01*
X201669Y41130D01*
X201698Y41181D01*
X201720Y41224D01*
X201749Y41268D01*
X201764Y41297D01*
X201778Y41319D01*
X201793Y41326D01*
Y41334D01*
X201910Y41465D01*
X202026Y41574D01*
X202150Y41662D01*
X202260Y41727D01*
X202362Y41771D01*
X202442Y41808D01*
X202471Y41815D01*
X202493Y41822D01*
X202507Y41829D01*
X202515D01*
X202573Y41844D01*
X202646Y41859D01*
X202733Y41866D01*
X202821Y41873D01*
X203025Y41888D01*
X203229Y41902D01*
X203419D01*
X203499Y41910D01*
X205358D01*
Y36865D01*
D02*
G37*
G36*
X185383Y36865D02*
X184363D01*
Y38972D01*
X184035D01*
X183932Y38964D01*
X183845Y38957D01*
X183772Y38943D01*
X183714Y38935D01*
X183677Y38921D01*
X183656Y38913D01*
X183648D01*
X183590Y38884D01*
X183532Y38855D01*
X183481Y38819D01*
X183430Y38789D01*
X183393Y38753D01*
X183364Y38724D01*
X183349Y38709D01*
X183342Y38702D01*
X183313Y38666D01*
X183276Y38629D01*
X183196Y38520D01*
X183109Y38403D01*
X183014Y38272D01*
X182934Y38155D01*
X182897Y38097D01*
X182868Y38053D01*
X182839Y38017D01*
X182817Y37988D01*
X182810Y37966D01*
X182803Y37958D01*
X182074Y36865D01*
X180849D01*
X181468Y37849D01*
X181534Y37951D01*
X181600Y38053D01*
X181658Y38141D01*
X181716Y38221D01*
X181767Y38294D01*
X181811Y38367D01*
X181899Y38476D01*
X181964Y38563D01*
X182008Y38622D01*
X182044Y38658D01*
X182052Y38666D01*
X182132Y38753D01*
X182227Y38833D01*
X182314Y38899D01*
X182402Y38964D01*
X182475Y39015D01*
X182533Y39052D01*
X182577Y39081D01*
X182584Y39088D01*
X182591D01*
X182467Y39110D01*
X182358Y39139D01*
X182256Y39169D01*
X182154Y39205D01*
X182066Y39241D01*
X181986Y39278D01*
X181906Y39314D01*
X181840Y39358D01*
X181782Y39395D01*
X181731Y39431D01*
X181687Y39467D01*
X181658Y39497D01*
X181629Y39518D01*
X181607Y39540D01*
X181600Y39548D01*
X181592Y39555D01*
X181534Y39628D01*
X181483Y39701D01*
X181396Y39861D01*
X181337Y40014D01*
X181301Y40167D01*
X181272Y40299D01*
X181264Y40350D01*
Y40401D01*
X181257Y40437D01*
Y40473D01*
Y40488D01*
Y40495D01*
X181264Y40656D01*
X181293Y40809D01*
X181330Y40940D01*
X181366Y41057D01*
X181410Y41151D01*
X181447Y41224D01*
X181461Y41246D01*
X181476Y41268D01*
X181483Y41275D01*
Y41283D01*
X181571Y41407D01*
X181665Y41509D01*
X181760Y41589D01*
X181855Y41662D01*
X181942Y41706D01*
X182008Y41742D01*
X182052Y41764D01*
X182059Y41771D01*
X182066D01*
X182139Y41793D01*
X182219Y41815D01*
X182402Y41851D01*
X182598Y41873D01*
X182788Y41895D01*
X182883D01*
X182963Y41902D01*
X183043D01*
X183109Y41910D01*
X185383D01*
Y36865D01*
D02*
G37*
G36*
X180295D02*
X176460D01*
Y37718D01*
X179274D01*
Y39088D01*
X176745D01*
Y39941D01*
X179274D01*
Y41057D01*
X176555D01*
Y41910D01*
X180295D01*
Y36865D01*
D02*
G37*
G36*
X198651Y41997D02*
X198862Y41975D01*
X199045Y41939D01*
X199205Y41902D01*
X199271Y41881D01*
X199336Y41866D01*
X199387Y41851D01*
X199431Y41829D01*
X199468Y41822D01*
X199497Y41808D01*
X199511Y41800D01*
X199519D01*
X199650Y41742D01*
X199774Y41669D01*
X199883Y41589D01*
X199978Y41516D01*
X200058Y41450D01*
X200124Y41392D01*
X200160Y41356D01*
X200167Y41348D01*
X200175Y41341D01*
X200277Y41224D01*
X200372Y41100D01*
X200452Y40991D01*
X200517Y40882D01*
X200568Y40787D01*
X200612Y40714D01*
X200619Y40685D01*
X200634Y40663D01*
X200641Y40656D01*
Y40648D01*
X200714Y40444D01*
X200772Y40226D01*
X200809Y40007D01*
X200838Y39803D01*
X200845Y39708D01*
X200853Y39621D01*
X200860Y39548D01*
Y39482D01*
X200867Y39424D01*
Y39387D01*
Y39358D01*
Y39351D01*
X200860Y39132D01*
X200838Y38921D01*
X200809Y38724D01*
X200765Y38542D01*
X200714Y38374D01*
X200656Y38221D01*
X200598Y38075D01*
X200532Y37951D01*
X200473Y37835D01*
X200415Y37740D01*
X200357Y37652D01*
X200306Y37579D01*
X200262Y37528D01*
X200233Y37485D01*
X200211Y37463D01*
X200204Y37455D01*
X200073Y37332D01*
X199934Y37229D01*
X199796Y37135D01*
X199643Y37062D01*
X199497Y36996D01*
X199344Y36938D01*
X199205Y36894D01*
X199059Y36858D01*
X198928Y36829D01*
X198804Y36807D01*
X198695Y36792D01*
X198600Y36785D01*
X198527Y36777D01*
X198469Y36770D01*
X198418D01*
X198214Y36777D01*
X198024Y36799D01*
X197842Y36836D01*
X197674Y36880D01*
X197514Y36931D01*
X197368Y36989D01*
X197237Y37047D01*
X197113Y37113D01*
X197011Y37178D01*
X196916Y37237D01*
X196836Y37295D01*
X196770Y37346D01*
X196712Y37390D01*
X196675Y37426D01*
X196654Y37448D01*
X196646Y37455D01*
X196530Y37594D01*
X196428Y37740D01*
X196333Y37893D01*
X196260Y38046D01*
X196194Y38206D01*
X196136Y38367D01*
X196092Y38527D01*
X196056Y38680D01*
X196034Y38819D01*
X196012Y38957D01*
X195998Y39074D01*
X195983Y39176D01*
Y39263D01*
X195976Y39329D01*
Y39365D01*
Y39380D01*
X195983Y39606D01*
X196005Y39817D01*
X196034Y40014D01*
X196078Y40204D01*
X196129Y40371D01*
X196187Y40532D01*
X196245Y40678D01*
X196311Y40802D01*
X196377Y40918D01*
X196435Y41020D01*
X196493Y41108D01*
X196544Y41181D01*
X196581Y41232D01*
X196617Y41275D01*
X196639Y41297D01*
X196646Y41305D01*
X196777Y41429D01*
X196916Y41538D01*
X197062Y41633D01*
X197208Y41713D01*
X197361Y41778D01*
X197506Y41837D01*
X197652Y41881D01*
X197791Y41917D01*
X197922Y41946D01*
X198046Y41968D01*
X198155Y41982D01*
X198250Y41997D01*
X198323D01*
X198381Y42004D01*
X198432D01*
X198651Y41997D01*
D02*
G37*
G36*
X193628Y41997D02*
X193818Y41975D01*
X193985Y41946D01*
X194131Y41917D01*
X194197Y41895D01*
X194255Y41881D01*
X194299Y41866D01*
X194343Y41851D01*
X194372Y41837D01*
X194394Y41829D01*
X194408Y41822D01*
X194415D01*
X194561Y41749D01*
X194685Y41669D01*
X194795Y41582D01*
X194882Y41501D01*
X194955Y41429D01*
X194999Y41370D01*
X195035Y41326D01*
X195043Y41319D01*
Y41312D01*
X195115Y41188D01*
X195166Y41057D01*
X195203Y40933D01*
X195225Y40823D01*
X195239Y40729D01*
X195254Y40656D01*
Y40627D01*
Y40605D01*
Y40597D01*
Y40590D01*
X195247Y40481D01*
X195232Y40371D01*
X195210Y40277D01*
X195181Y40182D01*
X195108Y40007D01*
X195021Y39854D01*
X194984Y39788D01*
X194940Y39737D01*
X194904Y39686D01*
X194868Y39642D01*
X194838Y39613D01*
X194817Y39591D01*
X194802Y39577D01*
X194795Y39570D01*
X194729Y39518D01*
X194649Y39467D01*
X194569Y39416D01*
X194474Y39373D01*
X194292Y39285D01*
X194102Y39212D01*
X194007Y39183D01*
X193927Y39154D01*
X193847Y39132D01*
X193781Y39110D01*
X193730Y39096D01*
X193686Y39081D01*
X193657Y39074D01*
X193650D01*
X193533Y39045D01*
X193431Y39015D01*
X193337Y38994D01*
X193249Y38972D01*
X193176Y38950D01*
X193111Y38935D01*
X193052Y38913D01*
X193001Y38899D01*
X192957Y38892D01*
X192921Y38877D01*
X192870Y38862D01*
X192841Y38848D01*
X192834D01*
X192739Y38811D01*
X192666Y38775D01*
X192600Y38739D01*
X192549Y38702D01*
X192513Y38673D01*
X192491Y38651D01*
X192476Y38636D01*
X192469Y38629D01*
X192433Y38578D01*
X192403Y38527D01*
X192389Y38476D01*
X192374Y38432D01*
X192367Y38388D01*
X192360Y38352D01*
Y38330D01*
Y38323D01*
X192367Y38221D01*
X192396Y38133D01*
X192440Y38046D01*
X192484Y37973D01*
X192535Y37915D01*
X192571Y37871D01*
X192600Y37842D01*
X192615Y37835D01*
X192717Y37769D01*
X192834Y37718D01*
X192957Y37681D01*
X193074Y37659D01*
X193184Y37645D01*
X193271Y37630D01*
X193351D01*
X193519Y37638D01*
X193665Y37667D01*
X193789Y37703D01*
X193898Y37747D01*
X193985Y37791D01*
X194044Y37827D01*
X194080Y37856D01*
X194095Y37864D01*
X194190Y37966D01*
X194262Y38075D01*
X194328Y38199D01*
X194372Y38323D01*
X194408Y38432D01*
X194437Y38520D01*
X194445Y38549D01*
Y38578D01*
X194452Y38593D01*
Y38600D01*
X195443Y38505D01*
X195422Y38352D01*
X195392Y38206D01*
X195349Y38068D01*
X195312Y37944D01*
X195261Y37827D01*
X195210Y37718D01*
X195159Y37623D01*
X195108Y37536D01*
X195057Y37463D01*
X195006Y37397D01*
X194962Y37339D01*
X194919Y37288D01*
X194889Y37251D01*
X194860Y37229D01*
X194846Y37215D01*
X194838Y37208D01*
X194736Y37127D01*
X194627Y37062D01*
X194510Y37003D01*
X194386Y36952D01*
X194270Y36916D01*
X194146Y36880D01*
X193905Y36829D01*
X193796Y36807D01*
X193694Y36792D01*
X193606Y36785D01*
X193526Y36777D01*
X193461Y36770D01*
X193366D01*
X193132Y36777D01*
X192921Y36799D01*
X192731Y36829D01*
X192651Y36843D01*
X192571Y36865D01*
X192506Y36880D01*
X192447Y36894D01*
X192396Y36909D01*
X192352Y36923D01*
X192316Y36938D01*
X192294Y36945D01*
X192280Y36952D01*
X192272D01*
X192112Y37033D01*
X191981Y37120D01*
X191857Y37208D01*
X191762Y37302D01*
X191689Y37383D01*
X191631Y37455D01*
X191602Y37499D01*
X191587Y37506D01*
Y37514D01*
X191507Y37659D01*
X191441Y37798D01*
X191398Y37937D01*
X191368Y38068D01*
X191354Y38170D01*
X191347Y38221D01*
X191339Y38257D01*
Y38287D01*
Y38308D01*
Y38323D01*
Y38330D01*
X191347Y38505D01*
X191368Y38658D01*
X191405Y38797D01*
X191441Y38913D01*
X191478Y39008D01*
X191514Y39074D01*
X191536Y39118D01*
X191543Y39132D01*
X191623Y39249D01*
X191718Y39351D01*
X191813Y39438D01*
X191901Y39511D01*
X191981Y39570D01*
X192046Y39613D01*
X192090Y39642D01*
X192097Y39650D01*
X192105D01*
X192177Y39686D01*
X192250Y39723D01*
X192425Y39788D01*
X192608Y39847D01*
X192783Y39905D01*
X192863Y39927D01*
X192943Y39949D01*
X193016Y39970D01*
X193074Y39985D01*
X193125Y40000D01*
X193162Y40007D01*
X193191Y40014D01*
X193198D01*
X193329Y40051D01*
X193446Y40080D01*
X193555Y40109D01*
X193657Y40138D01*
X193738Y40167D01*
X193818Y40196D01*
X193883Y40226D01*
X193942Y40247D01*
X193993Y40269D01*
X194029Y40291D01*
X194066Y40306D01*
X194088Y40320D01*
X194124Y40342D01*
X194131Y40350D01*
X194182Y40401D01*
X194219Y40452D01*
X194241Y40503D01*
X194255Y40554D01*
X194270Y40590D01*
X194277Y40627D01*
Y40648D01*
Y40656D01*
X194270Y40729D01*
X194255Y40787D01*
X194226Y40845D01*
X194197Y40889D01*
X194168Y40925D01*
X194139Y40947D01*
X194124Y40962D01*
X194117Y40969D01*
X194015Y41035D01*
X193905Y41079D01*
X193789Y41115D01*
X193679Y41137D01*
X193585Y41151D01*
X193504Y41159D01*
X193431D01*
X193278Y41151D01*
X193147Y41130D01*
X193038Y41100D01*
X192950Y41071D01*
X192877Y41042D01*
X192826Y41013D01*
X192797Y40991D01*
X192790Y40984D01*
X192717Y40911D01*
X192651Y40823D01*
X192600Y40736D01*
X192564Y40641D01*
X192535Y40561D01*
X192520Y40495D01*
X192506Y40444D01*
Y40437D01*
Y40430D01*
X191485Y40466D01*
X191492Y40597D01*
X191514Y40714D01*
X191543Y40831D01*
X191580Y40933D01*
X191616Y41035D01*
X191660Y41130D01*
X191704Y41210D01*
X191747Y41290D01*
X191798Y41356D01*
X191842Y41414D01*
X191886Y41465D01*
X191922Y41509D01*
X191952Y41538D01*
X191973Y41560D01*
X191988Y41574D01*
X191995Y41582D01*
X192090Y41655D01*
X192192Y41720D01*
X192301Y41778D01*
X192418Y41829D01*
X192535Y41866D01*
X192651Y41902D01*
X192885Y41953D01*
X192994Y41968D01*
X193089Y41982D01*
X193184Y41990D01*
X193264Y41997D01*
X193329Y42004D01*
X193417D01*
X193628Y41997D01*
D02*
G37*
G36*
X217831Y68030D02*
Y55396D01*
X175869D01*
Y68030D01*
X217831D01*
D02*
G37*
%LPC*%
G36*
X206200Y47314D02*
X205187D01*
X205106Y47307D01*
X204917D01*
X204873Y47300D01*
X204793D01*
X204764Y47293D01*
X204756D01*
X204669Y47278D01*
X204589Y47256D01*
X204523Y47227D01*
X204465Y47198D01*
X204428Y47169D01*
X204392Y47139D01*
X204377Y47125D01*
X204370Y47118D01*
X204326Y47059D01*
X204297Y46994D01*
X204268Y46935D01*
X204253Y46877D01*
X204246Y46819D01*
X204239Y46775D01*
Y46746D01*
Y46738D01*
X204246Y46651D01*
X204261Y46571D01*
X204290Y46505D01*
X204312Y46447D01*
X204341Y46396D01*
X204370Y46367D01*
X204385Y46345D01*
X204392Y46338D01*
X204450Y46286D01*
X204516Y46250D01*
X204581Y46221D01*
X204647Y46199D01*
X204713Y46177D01*
X204756Y46170D01*
X204786Y46163D01*
X204829D01*
X204873Y46155D01*
X205099D01*
X205223Y46148D01*
X206200D01*
Y47314D01*
D02*
G37*
G36*
Y45310D02*
X205143D01*
X205041Y45302D01*
X204953Y45295D01*
X204866D01*
X204793Y45288D01*
X204727Y45281D01*
X204676Y45273D01*
X204625Y45266D01*
X204589Y45259D01*
X204530Y45251D01*
X204494Y45237D01*
X204487D01*
X204414Y45208D01*
X204348Y45171D01*
X204290Y45135D01*
X204246Y45091D01*
X204210Y45062D01*
X204188Y45033D01*
X204173Y45011D01*
X204166Y45004D01*
X204130Y44938D01*
X204100Y44872D01*
X204078Y44814D01*
X204064Y44748D01*
X204057Y44697D01*
X204049Y44654D01*
Y44624D01*
Y44617D01*
X204057Y44522D01*
X204071Y44435D01*
X204093Y44362D01*
X204122Y44304D01*
X204151Y44253D01*
X204173Y44216D01*
X204188Y44194D01*
X204195Y44187D01*
X204253Y44136D01*
X204312Y44092D01*
X204377Y44056D01*
X204436Y44027D01*
X204487Y44012D01*
X204530Y43997D01*
X204560Y43990D01*
X204567D01*
X204596Y43983D01*
X204640D01*
X204734Y43976D01*
X204851Y43968D01*
X204968D01*
X205077Y43961D01*
X206200D01*
Y45310D01*
D02*
G37*
G36*
X204337Y41057D02*
X203579D01*
X203506Y41049D01*
X203441D01*
X203375Y41042D01*
X203280D01*
X203207Y41035D01*
X203156Y41028D01*
X203127Y41020D01*
X203120D01*
X203032Y40998D01*
X202952Y40969D01*
X202879Y40933D01*
X202821Y40889D01*
X202777Y40853D01*
X202741Y40823D01*
X202719Y40802D01*
X202712Y40794D01*
X202653Y40721D01*
X202617Y40648D01*
X202588Y40568D01*
X202566Y40495D01*
X202551Y40430D01*
X202544Y40379D01*
Y40350D01*
Y40335D01*
X202551Y40255D01*
X202558Y40182D01*
X202580Y40116D01*
X202602Y40058D01*
X202624Y40007D01*
X202639Y39970D01*
X202653Y39949D01*
X202660Y39941D01*
X202704Y39883D01*
X202763Y39832D01*
X202814Y39788D01*
X202865Y39752D01*
X202908Y39730D01*
X202945Y39708D01*
X202974Y39701D01*
X202981Y39693D01*
X203025Y39679D01*
X203076Y39672D01*
X203193Y39650D01*
X203324Y39635D01*
X203455Y39628D01*
X203586D01*
X203637Y39621D01*
X204337D01*
Y41057D01*
D02*
G37*
G36*
X184363Y41057D02*
X183196D01*
X183131Y41049D01*
X182970D01*
X182905Y41042D01*
X182861D01*
X182839Y41035D01*
X182832D01*
X182744Y41013D01*
X182664Y40984D01*
X182598Y40955D01*
X182547Y40918D01*
X182504Y40882D01*
X182467Y40860D01*
X182453Y40838D01*
X182445Y40831D01*
X182402Y40772D01*
X182365Y40699D01*
X182343Y40634D01*
X182321Y40568D01*
X182314Y40510D01*
X182307Y40466D01*
Y40437D01*
Y40422D01*
X182314Y40342D01*
X182321Y40269D01*
X182343Y40204D01*
X182358Y40145D01*
X182380Y40102D01*
X182402Y40073D01*
X182409Y40051D01*
X182416Y40043D01*
X182460Y39992D01*
X182504Y39949D01*
X182598Y39883D01*
X182635Y39861D01*
X182671Y39847D01*
X182693Y39832D01*
X182701D01*
X182737Y39825D01*
X182795Y39810D01*
X182854Y39803D01*
X182919Y39796D01*
X183072Y39788D01*
X183225Y39781D01*
X183371Y39774D01*
X184363D01*
Y41057D01*
D02*
G37*
G36*
X198476Y41137D02*
X198418D01*
X198301Y41130D01*
X198192Y41115D01*
X198090Y41100D01*
X197995Y41071D01*
X197827Y40998D01*
X197747Y40962D01*
X197681Y40925D01*
X197616Y40882D01*
X197565Y40845D01*
X197521Y40809D01*
X197477Y40772D01*
X197448Y40743D01*
X197426Y40729D01*
X197419Y40714D01*
X197412Y40707D01*
X197346Y40619D01*
X197281Y40525D01*
X197230Y40430D01*
X197186Y40320D01*
X197120Y40102D01*
X197076Y39890D01*
X197055Y39796D01*
X197047Y39701D01*
X197040Y39621D01*
X197033Y39548D01*
X197025Y39482D01*
Y39438D01*
Y39409D01*
Y39402D01*
X197033Y39241D01*
X197040Y39088D01*
X197062Y38950D01*
X197084Y38826D01*
X197113Y38702D01*
X197149Y38593D01*
X197186Y38498D01*
X197222Y38410D01*
X197259Y38330D01*
X197295Y38265D01*
X197324Y38206D01*
X197361Y38155D01*
X197383Y38119D01*
X197404Y38097D01*
X197412Y38082D01*
X197419Y38075D01*
X197492Y37995D01*
X197572Y37929D01*
X197660Y37871D01*
X197740Y37820D01*
X197827Y37784D01*
X197907Y37747D01*
X198068Y37696D01*
X198206Y37660D01*
X198265Y37652D01*
X198316Y37645D01*
X198359Y37638D01*
X198418D01*
X198527Y37645D01*
X198636Y37660D01*
X198739Y37681D01*
X198833Y37711D01*
X199008Y37776D01*
X199147Y37864D01*
X199212Y37900D01*
X199263Y37944D01*
X199314Y37980D01*
X199351Y38017D01*
X199380Y38039D01*
X199402Y38061D01*
X199416Y38075D01*
X199424Y38082D01*
X199489Y38170D01*
X199555Y38265D01*
X199606Y38367D01*
X199650Y38476D01*
X199723Y38687D01*
X199766Y38899D01*
X199781Y39001D01*
X199796Y39088D01*
X199803Y39176D01*
X199810Y39249D01*
X199817Y39307D01*
Y39351D01*
Y39380D01*
Y39387D01*
X199810Y39548D01*
X199803Y39693D01*
X199781Y39832D01*
X199759Y39963D01*
X199730Y40080D01*
X199701Y40189D01*
X199664Y40284D01*
X199628Y40371D01*
X199591Y40452D01*
X199555Y40517D01*
X199526Y40568D01*
X199497Y40619D01*
X199475Y40656D01*
X199453Y40678D01*
X199446Y40692D01*
X199438Y40699D01*
X199365Y40780D01*
X199285Y40845D01*
X199198Y40904D01*
X199118Y40955D01*
X199030Y40998D01*
X198943Y41028D01*
X198782Y41086D01*
X198636Y41115D01*
X198578Y41122D01*
X198520Y41130D01*
X198476Y41137D01*
D02*
G37*
G36*
X184487Y64027D02*
X183437D01*
X180958Y61191D01*
Y64027D01*
X182274D01*
X179806D01*
Y59398D01*
X180776D01*
X183335Y62358D01*
Y59398D01*
X182120D01*
X184487D01*
Y64027D01*
D02*
G37*
G36*
X203207Y64027D02*
X202048D01*
Y61359D01*
Y61352D01*
Y61337D01*
Y61315D01*
X202041Y61279D01*
Y61243D01*
X202034Y61191D01*
X202012Y61082D01*
X201968Y60958D01*
X201917Y60827D01*
X201837Y60703D01*
X201793Y60645D01*
X201735Y60586D01*
X201727D01*
X201720Y60572D01*
X201676Y60543D01*
X201611Y60492D01*
X201516Y60441D01*
X201392Y60390D01*
X201254Y60338D01*
X201086Y60309D01*
X200904Y60295D01*
X200853D01*
X200816Y60302D01*
X200772D01*
X200721Y60309D01*
X200598Y60331D01*
X200459Y60368D01*
X200320Y60419D01*
X200182Y60492D01*
X200051Y60586D01*
X200043Y60594D01*
X200036Y60601D01*
X200000Y60645D01*
X199949Y60710D01*
X199890Y60805D01*
X199832Y60929D01*
X199781Y61075D01*
X199744Y61243D01*
X199730Y61337D01*
Y61439D01*
Y64027D01*
X201399D01*
X198578D01*
Y59333D01*
D01*
Y61352D01*
X198585Y61301D01*
Y61228D01*
X198600Y61140D01*
X198607Y61046D01*
X198629Y60936D01*
X198651Y60820D01*
X198688Y60696D01*
X198724Y60572D01*
X198775Y60441D01*
X198833Y60317D01*
X198899Y60185D01*
X198986Y60069D01*
X199074Y59952D01*
X199183Y59850D01*
X199190Y59843D01*
X199212Y59828D01*
X199249Y59799D01*
X199293Y59770D01*
X199358Y59733D01*
X199431Y59690D01*
X199519Y59639D01*
X199621Y59595D01*
X199737Y59544D01*
X199861Y59493D01*
X200007Y59449D01*
X200160Y59413D01*
X200320Y59383D01*
X200503Y59354D01*
X200692Y59340D01*
X200896Y59333D01*
X200947D01*
X200998Y59340D01*
X201079D01*
X201173Y59347D01*
X201275Y59362D01*
X201392Y59376D01*
X201523Y59398D01*
X201655Y59427D01*
X201793Y59464D01*
X201939Y59500D01*
X202077Y59551D01*
X202223Y59617D01*
X202354Y59682D01*
X202486Y59763D01*
X202602Y59857D01*
X202609Y59865D01*
X202631Y59879D01*
X202660Y59916D01*
X202697Y59959D01*
X202741Y60010D01*
X202792Y60076D01*
X202850Y60156D01*
X202901Y60251D01*
X202959Y60353D01*
X203018Y60462D01*
X203069Y60594D01*
X203113Y60725D01*
X203149Y60878D01*
X203178Y61038D01*
X203200Y61206D01*
X203207Y61388D01*
Y64027D01*
D02*
G37*
G36*
X207093D02*
X205744D01*
X203696Y59398D01*
X208959D01*
X207093Y64027D01*
D02*
G37*
G36*
X197907D02*
X193402D01*
Y59398D01*
Y63182D01*
X195079D01*
Y59398D01*
X197907D01*
X196231D01*
Y63182D01*
X197907D01*
Y64027D01*
D02*
G37*
G36*
X192659D02*
X191507D01*
Y59398D01*
X192659D01*
Y64027D01*
D02*
G37*
G36*
X213894Y64093D02*
X209382D01*
Y59333D01*
D01*
Y59792D01*
X209389Y59785D01*
X209418Y59770D01*
X209469Y59748D01*
X209535Y59719D01*
X209615Y59682D01*
X209710Y59646D01*
X209819Y59602D01*
X209936Y59566D01*
X210067Y59522D01*
X210213Y59478D01*
X210359Y59442D01*
X210519Y59405D01*
X210687Y59376D01*
X210855Y59354D01*
X211029Y59340D01*
X211204Y59333D01*
X211255D01*
X211321Y59340D01*
X211408D01*
X211511Y59354D01*
X211634Y59369D01*
X211766Y59391D01*
X211912Y59420D01*
X212065Y59456D01*
X212225Y59500D01*
X212385Y59551D01*
X212553Y59617D01*
X212713Y59697D01*
X212874Y59785D01*
X213020Y59894D01*
X213165Y60010D01*
X213173Y60018D01*
X213195Y60040D01*
X213231Y60083D01*
X213282Y60134D01*
X213333Y60200D01*
X213399Y60280D01*
X213464Y60375D01*
X213530Y60477D01*
X213596Y60594D01*
X213661Y60725D01*
X213727Y60863D01*
X213778Y61009D01*
X213829Y61170D01*
X213865Y61337D01*
X213887Y61512D01*
X213894Y61694D01*
Y61738D01*
X213887Y61789D01*
X213880Y61862D01*
X213873Y61950D01*
X213851Y62044D01*
X213829Y62161D01*
X213800Y62285D01*
X213756Y62409D01*
X213705Y62547D01*
X213647Y62686D01*
X213574Y62832D01*
X213486Y62977D01*
X213384Y63116D01*
X213260Y63262D01*
X213129Y63393D01*
X213122Y63400D01*
X213092Y63422D01*
X213049Y63459D01*
X212990Y63502D01*
X212910Y63553D01*
X212815Y63612D01*
X212713Y63677D01*
X212590Y63743D01*
X212451Y63809D01*
X212298Y63874D01*
X212130Y63933D01*
X211955Y63984D01*
X211766Y64027D01*
X211562Y64064D01*
X211343Y64086D01*
X211117Y64093D01*
X213894D01*
D01*
D02*
G37*
G36*
X190632D02*
X185332Y64093D01*
Y59333D01*
D01*
Y61665D01*
X185339Y61614D01*
X185347Y61549D01*
X185354Y61461D01*
X185369Y61366D01*
X185398Y61257D01*
X185427Y61140D01*
X185463Y61009D01*
X185514Y60878D01*
X185573Y60739D01*
X185646Y60601D01*
X185733Y60455D01*
X185828Y60317D01*
X185945Y60178D01*
X186076Y60040D01*
X186083Y60032D01*
X186112Y60010D01*
X186149Y59974D01*
X186207Y59930D01*
X186287Y59879D01*
X186375Y59814D01*
X186477Y59755D01*
X186593Y59690D01*
X186725Y59617D01*
X186870Y59558D01*
X187023Y59500D01*
X187198Y59442D01*
X187373Y59398D01*
X187570Y59362D01*
X187774Y59340D01*
X187986Y59333D01*
X190632Y59333D01*
X188037Y59333D01*
X188095Y59340D01*
X188183Y59347D01*
X188277Y59354D01*
X188394Y59369D01*
X188525Y59391D01*
X188664Y59420D01*
X188810Y59456D01*
X188970Y59500D01*
X189123Y59558D01*
X189283Y59631D01*
X189444Y59712D01*
X189604Y59799D01*
X189750Y59908D01*
X189896Y60032D01*
X189903Y60040D01*
X189925Y60062D01*
X189961Y60105D01*
X190012Y60156D01*
X190063Y60229D01*
X190129Y60309D01*
X190195Y60404D01*
X190260Y60506D01*
X190333Y60623D01*
X190399Y60754D01*
X190464Y60893D01*
X190515Y61038D01*
X190566Y61191D01*
X190603Y61359D01*
X190625Y61534D01*
X190632Y61709D01*
Y61775D01*
Y61753D01*
X190625Y61804D01*
X190617Y61869D01*
X190610Y61950D01*
X190596Y62052D01*
X190574Y62161D01*
X190537Y62278D01*
X190501Y62402D01*
X190457Y62540D01*
X190392Y62671D01*
X190326Y62817D01*
X190238Y62963D01*
X190144Y63101D01*
X190034Y63240D01*
X189903Y63378D01*
X189896Y63386D01*
X189867Y63408D01*
X189830Y63444D01*
X189772Y63488D01*
X189699Y63546D01*
X189604Y63604D01*
X189502Y63670D01*
X189385Y63736D01*
X189254Y63801D01*
X189108Y63867D01*
X188955Y63925D01*
X188780Y63984D01*
X188598Y64027D01*
X188409Y64064D01*
X188204Y64086D01*
X187986Y64093D01*
X190632Y64093D01*
D02*
G37*
%LPD*%
G36*
X207093Y61119D02*
X205657D01*
X206408Y62919D01*
X207093Y61119D01*
D02*
G37*
G36*
X207742Y59398D02*
X204942D01*
X205321Y60309D01*
X207399D01*
X207742Y59398D01*
D02*
G37*
G36*
X210949Y64086D02*
X210869Y64078D01*
X210767Y64071D01*
X210658Y64056D01*
X210534Y64042D01*
X210402Y64020D01*
X210271Y63991D01*
X209987Y63918D01*
X209848Y63874D01*
X209703Y63823D01*
X209564Y63757D01*
X209433Y63685D01*
Y62657D01*
X209440Y62664D01*
X209469Y62679D01*
X209513Y62700D01*
X209579Y62730D01*
X209652Y62766D01*
X209739Y62810D01*
X209841Y62846D01*
X209950Y62897D01*
X210067Y62941D01*
X210191Y62977D01*
X210461Y63058D01*
X210607Y63087D01*
X210745Y63109D01*
X210891Y63123D01*
X211029Y63131D01*
X211102D01*
X211153Y63123D01*
X211219Y63116D01*
X211292Y63109D01*
X211372Y63094D01*
X211459Y63080D01*
X211649Y63036D01*
X211853Y62963D01*
X211955Y62919D01*
X212050Y62861D01*
X212152Y62802D01*
X212240Y62730D01*
X212247Y62722D01*
X212262Y62715D01*
X212283Y62686D01*
X212313Y62657D01*
X212349Y62620D01*
X212385Y62569D01*
X212429Y62518D01*
X212473Y62453D01*
X212560Y62307D01*
X212633Y62132D01*
X212662Y62037D01*
X212684Y61935D01*
X212699Y61826D01*
X212706Y61716D01*
Y61709D01*
Y61687D01*
Y61658D01*
X212699Y61614D01*
X212692Y61563D01*
X212684Y61498D01*
X212648Y61359D01*
X212597Y61191D01*
X212553Y61111D01*
X212509Y61024D01*
X212458Y60936D01*
X212400Y60856D01*
X212327Y60776D01*
X212247Y60696D01*
X212240Y60688D01*
X212225Y60681D01*
X212203Y60659D01*
X212167Y60630D01*
X212116Y60601D01*
X212065Y60572D01*
X211999Y60535D01*
X211926Y60499D01*
X211846Y60455D01*
X211758Y60419D01*
X211656Y60390D01*
X211554Y60360D01*
X211445Y60331D01*
X211321Y60309D01*
X211197Y60302D01*
X211066Y60295D01*
X211000D01*
X210935Y60302D01*
X210840Y60309D01*
X210738Y60317D01*
X210621Y60331D01*
X210497Y60353D01*
X210373Y60382D01*
X210366D01*
X210359Y60390D01*
X210337Y60397D01*
X210315Y60404D01*
X210279Y60411D01*
X210235Y60433D01*
X210184Y60448D01*
X210125Y60470D01*
X210060Y60499D01*
X209987Y60528D01*
X209907Y60565D01*
X209819Y60601D01*
X209717Y60645D01*
X209615Y60696D01*
X209499Y60747D01*
X209382Y60805D01*
Y64093D01*
X211022D01*
X210949Y64086D01*
D02*
G37*
G36*
X187869Y64086D02*
X187789Y64078D01*
X187687Y64071D01*
X187570Y64056D01*
X187439Y64034D01*
X187301Y64005D01*
X187147Y63962D01*
X186994Y63918D01*
X186834Y63860D01*
X186674Y63787D01*
X186513Y63706D01*
X186360Y63612D01*
X186207Y63495D01*
X186068Y63371D01*
X186061Y63364D01*
X186039Y63342D01*
X186003Y63298D01*
X185952Y63247D01*
X185901Y63174D01*
X185835Y63094D01*
X185770Y62999D01*
X185697Y62897D01*
X185631Y62781D01*
X185565Y62649D01*
X185500Y62518D01*
X185449Y62372D01*
X185398Y62212D01*
X185361Y62052D01*
X185339Y61884D01*
X185332Y61709D01*
Y64093D01*
X187935D01*
X187869Y64086D01*
D02*
G37*
G36*
X188095Y63123D02*
X188153Y63116D01*
X188212Y63109D01*
X188285Y63101D01*
X188365Y63080D01*
X188532Y63036D01*
X188707Y62963D01*
X188795Y62919D01*
X188882Y62868D01*
X188963Y62810D01*
X189043Y62737D01*
X189050Y62730D01*
X189057Y62722D01*
X189079Y62700D01*
X189108Y62664D01*
X189138Y62628D01*
X189167Y62584D01*
X189203Y62525D01*
X189240Y62467D01*
X189283Y62394D01*
X189320Y62314D01*
X189378Y62139D01*
X189429Y61935D01*
X189436Y61826D01*
X189444Y61709D01*
Y61702D01*
Y61680D01*
Y61651D01*
X189436Y61607D01*
X189429Y61549D01*
X189422Y61490D01*
X189393Y61344D01*
X189349Y61177D01*
X189276Y61009D01*
X189225Y60922D01*
X189174Y60842D01*
X189116Y60761D01*
X189043Y60681D01*
X189035Y60674D01*
X189021Y60667D01*
X188999Y60645D01*
X188970Y60623D01*
X188926Y60594D01*
X188882Y60557D01*
X188824Y60521D01*
X188759Y60492D01*
X188686Y60455D01*
X188605Y60419D01*
X188430Y60353D01*
X188219Y60309D01*
X188102Y60302D01*
X187986Y60295D01*
X187920D01*
X187876Y60302D01*
X187818Y60309D01*
X187760Y60317D01*
X187687Y60324D01*
X187607Y60346D01*
X187439Y60390D01*
X187264Y60455D01*
X187177Y60499D01*
X187089Y60557D01*
X187009Y60615D01*
X186929Y60681D01*
X186921Y60688D01*
X186914Y60703D01*
X186892Y60725D01*
X186863Y60754D01*
X186834Y60790D01*
X186797Y60842D01*
X186761Y60892D01*
X186725Y60958D01*
X186688Y61031D01*
X186652Y61104D01*
X186586Y61279D01*
X186535Y61483D01*
X186528Y61592D01*
X186521Y61709D01*
Y61716D01*
Y61738D01*
Y61775D01*
X186528Y61818D01*
X186535Y61869D01*
X186542Y61935D01*
X186572Y62081D01*
X186623Y62241D01*
X186695Y62416D01*
X186739Y62496D01*
X186790Y62584D01*
X186856Y62664D01*
X186929Y62737D01*
X186936Y62744D01*
X186951Y62752D01*
X186972Y62773D01*
X187002Y62795D01*
X187038Y62832D01*
X187089Y62861D01*
X187147Y62897D01*
X187213Y62934D01*
X187286Y62970D01*
X187366Y63007D01*
X187541Y63072D01*
X187752Y63116D01*
X187869Y63123D01*
X187986Y63131D01*
X188051D01*
X188095Y63123D01*
D02*
G37*
D10*
X22358Y13622D02*
G03*
X22358Y13622I-394J0D01*
G01*
X349130Y123858D02*
G03*
X349130Y123858I-394J0D01*
G01*
X317961Y59486D02*
G03*
X317961Y59486I-394J0D01*
G01*
X300048Y124250D02*
G03*
X300048Y124250I-394J0D01*
G01*
X22358Y68740D02*
G03*
X22358Y68740I-394J0D01*
G01*
X267437D02*
G03*
X267437Y68740I-394J0D01*
G01*
X22358Y123858D02*
G03*
X22358Y123858I-394J0D01*
G01*
X369162Y9863D02*
G03*
X374005Y14705I0J4843D01*
G01*
X185744Y123858D02*
G03*
X185744Y123858I-394J0D01*
G01*
X267437D02*
G03*
X267437Y123858I-394J0D01*
G01*
X104051D02*
G03*
X104051Y123858I-394J0D01*
G01*
X349130Y68740D02*
G03*
X349130Y68740I-394J0D01*
G01*
X185744D02*
G03*
X185744Y68740I-394J0D01*
G01*
X349130Y13622D02*
G03*
X349130Y13622I-394J0D01*
G01*
X267437D02*
G03*
X267437Y13622I-394J0D01*
G01*
X185744D02*
G03*
X185744Y13622I-394J0D01*
G01*
X104051Y68740D02*
G03*
X104051Y68740I-394J0D01*
G01*
Y13622D02*
G03*
X104051Y13622I-394J0D01*
G01*
X383858Y132795D02*
G03*
X378858Y137795I-5000J0D01*
G01*
X374016Y142638D02*
G03*
X369016Y147638I-5000J0D01*
G01*
X9843Y24685D02*
G03*
X14842Y19685I5000J0D01*
G01*
X374016Y142638D02*
G03*
X378858Y137795I4843J0D01*
G01*
X24685Y147638D02*
G03*
X19685Y142638I0J-5000D01*
G01*
X379016Y19685D02*
G03*
X374016Y14685I0J-5000D01*
G01*
X14842Y137835D02*
G03*
X19685Y142677I0J4843D01*
G01*
Y14842D02*
G03*
X14842Y19685I-4843J0D01*
G01*
X379016D02*
G03*
X383858Y24528I0J4843D01*
G01*
X19685Y14842D02*
G03*
X24685Y9843I5000J0D01*
G01*
X14842Y137795D02*
G03*
X9843Y132795I0J-5000D01*
G01*
X24685Y9843D02*
X369016D01*
X383858Y24528D02*
Y132795D01*
X24685Y147638D02*
X369016D01*
X9843Y24685D02*
Y132795D01*
X98700Y24955D02*
Y22200D01*
X97322D01*
X96863Y22659D01*
Y24496D01*
X97322Y24955D01*
X98700D01*
X95945Y22200D02*
X95027D01*
X95486D01*
Y24955D01*
X95945Y24496D01*
X92272Y22200D02*
Y24955D01*
X93649Y23577D01*
X91812D01*
X98700Y80155D02*
Y77400D01*
X97322D01*
X96863Y77859D01*
Y79696D01*
X97322Y80155D01*
X98700D01*
X95945D02*
X94108D01*
Y79696D01*
X95945Y77859D01*
Y77400D01*
X19192Y25000D02*
Y22244D01*
X17814D01*
X17355Y22704D01*
Y24540D01*
X17814Y25000D01*
X19192D01*
X16437Y22244D02*
X15518D01*
X15978D01*
Y25000D01*
X16437Y24540D01*
X12304Y25000D02*
X14141D01*
Y23622D01*
X13223Y24081D01*
X12763D01*
X12304Y23622D01*
Y22704D01*
X12763Y22244D01*
X13682D01*
X14141Y22704D01*
X180400Y24955D02*
Y22200D01*
X179023D01*
X178563Y22659D01*
Y24496D01*
X179023Y24955D01*
X180400D01*
X177645Y22200D02*
X176727D01*
X177186D01*
Y24955D01*
X177645Y24496D01*
X175349D02*
X174890Y24955D01*
X173972D01*
X173512Y24496D01*
Y24037D01*
X173972Y23577D01*
X174431D01*
X173972D01*
X173512Y23118D01*
Y22659D01*
X173972Y22200D01*
X174890D01*
X175349Y22659D01*
X262100Y24955D02*
Y22200D01*
X260722D01*
X260263Y22659D01*
Y24496D01*
X260722Y24955D01*
X262100D01*
X259345Y22200D02*
X258427D01*
X258886D01*
Y24955D01*
X259345Y24496D01*
X255212Y22200D02*
X257049D01*
X255212Y24037D01*
Y24496D01*
X255672Y24955D01*
X256590D01*
X257049Y24496D01*
X343800Y24955D02*
Y22200D01*
X342423D01*
X341963Y22659D01*
Y24496D01*
X342423Y24955D01*
X343800D01*
X341045Y22200D02*
X340127D01*
X340586D01*
Y24955D01*
X341045Y24496D01*
X338749Y22200D02*
X337831D01*
X338290D01*
Y24955D01*
X338749Y24496D01*
X343800Y80155D02*
Y77400D01*
X342423D01*
X341963Y77859D01*
Y79696D01*
X342423Y80155D01*
X343800D01*
X341045Y77400D02*
X340127D01*
X340586D01*
Y80155D01*
X341045Y79696D01*
X338749D02*
X338290Y80155D01*
X337372D01*
X336912Y79696D01*
Y77859D01*
X337372Y77400D01*
X338290D01*
X338749Y77859D01*
Y79696D01*
X262100Y80155D02*
Y77400D01*
X260722D01*
X260263Y77859D01*
Y79696D01*
X260722Y80155D01*
X262100D01*
X259345Y77859D02*
X258886Y77400D01*
X257967D01*
X257508Y77859D01*
Y79696D01*
X257967Y80155D01*
X258886D01*
X259345Y79696D01*
Y79237D01*
X258886Y78777D01*
X257508D01*
X180400Y80155D02*
Y77400D01*
X179023D01*
X178563Y77859D01*
Y79696D01*
X179023Y80155D01*
X180400D01*
X177645Y79696D02*
X177186Y80155D01*
X176268D01*
X175808Y79696D01*
Y79237D01*
X176268Y78777D01*
X175808Y78318D01*
Y77859D01*
X176268Y77400D01*
X177186D01*
X177645Y77859D01*
Y78318D01*
X177186Y78777D01*
X177645Y79237D01*
Y79696D01*
X177186Y78777D02*
X176268D01*
X17000Y80155D02*
Y77400D01*
X15622D01*
X15163Y77859D01*
Y79696D01*
X15622Y80155D01*
X17000D01*
X12408D02*
X13327Y79696D01*
X14245Y78777D01*
Y77859D01*
X13786Y77400D01*
X12867D01*
X12408Y77859D01*
Y78318D01*
X12867Y78777D01*
X14245D01*
X17000Y135255D02*
Y132500D01*
X15622D01*
X15163Y132959D01*
Y134796D01*
X15622Y135255D01*
X17000D01*
X12408D02*
X14245D01*
Y133878D01*
X13327Y134337D01*
X12867D01*
X12408Y133878D01*
Y132959D01*
X12867Y132500D01*
X13786D01*
X14245Y132959D01*
X98700Y135255D02*
Y132500D01*
X97322D01*
X96863Y132959D01*
Y134796D01*
X97322Y135255D01*
X98700D01*
X94568Y132500D02*
Y135255D01*
X95945Y133878D01*
X94108D01*
X180400Y135255D02*
Y132500D01*
X179023D01*
X178563Y132959D01*
Y134796D01*
X179023Y135255D01*
X180400D01*
X177645Y134796D02*
X177186Y135255D01*
X176268D01*
X175808Y134796D01*
Y134337D01*
X176268Y133878D01*
X176727D01*
X176268D01*
X175808Y133418D01*
Y132959D01*
X176268Y132500D01*
X177186D01*
X177645Y132959D01*
X262100Y135255D02*
Y132500D01*
X260722D01*
X260263Y132959D01*
Y134796D01*
X260722Y135255D01*
X262100D01*
X257508Y132500D02*
X259345D01*
X257508Y134337D01*
Y134796D01*
X257967Y135255D01*
X258886D01*
X259345Y134796D01*
X344750Y125393D02*
Y122638D01*
X343373D01*
X342913Y123097D01*
Y124934D01*
X343373Y125393D01*
X344750D01*
X341995Y122638D02*
X341077D01*
X341536D01*
Y125393D01*
X341995Y124934D01*
X286352Y155052D02*
X286811Y155511D01*
X287730D01*
X288189Y155052D01*
Y153215D01*
X287730Y152756D01*
X286811D01*
X286352Y153215D01*
X285434Y152756D02*
Y154593D01*
X284516Y155511D01*
X283597Y154593D01*
Y152756D01*
Y154133D01*
X285434D01*
X282679Y152756D02*
Y155511D01*
X280842Y152756D01*
Y155511D01*
X279924Y152756D02*
X279006D01*
X279465D01*
Y155511D01*
X279924Y155052D01*
X312730Y89304D02*
X313189Y89763D01*
X314108D01*
X314567Y89304D01*
Y88845D01*
X314108Y88385D01*
X313189D01*
X312730Y87926D01*
Y87467D01*
X313189Y87008D01*
X314108D01*
X314567Y87467D01*
X311812Y89763D02*
Y87008D01*
X310894Y87926D01*
X309975Y87008D01*
Y89763D01*
X309057D02*
Y87008D01*
X307679D01*
X307220Y87467D01*
Y89304D01*
X307679Y89763D01*
X309057D01*
X306302Y87008D02*
X305383D01*
X305843D01*
Y89763D01*
X306302Y89304D01*
D11*
X240638Y100868D02*
G03*
X242683Y91319I10053J-2841D01*
G01*
X246896Y92474D02*
G03*
X250291Y94383I-6544J15613D01*
G01*
X242683Y91319D02*
G03*
X245004Y91809I-2332J16768D01*
G01*
X231768Y103801D02*
G03*
X233707Y102551I8656J11301D01*
G01*
X230074Y104326D02*
G03*
X219701Y102306I-3766J-8305D01*
G01*
X233707Y102551D02*
G03*
X234095Y92356I13331J-4597D01*
G01*
X247336Y101573D02*
G03*
X238073Y115123I-11510J2073D01*
G01*
X247336Y101573D02*
G03*
X236248Y111654I-10484J-392D01*
G01*
X250291Y94383D02*
G03*
X248245Y116582I-8690J10393D01*
G01*
X246896Y92474D02*
G03*
X248245Y116582I-8834J12586D01*
G01*
X235665Y101685D02*
G03*
X237825Y91347I12675J-2747D01*
G01*
X243072Y101115D02*
G03*
X245004Y91809I10644J-2643D01*
G01*
X238048Y101066D02*
G03*
X240296Y91158I12164J-2450D01*
G01*
X237825Y91347D02*
G03*
X240296Y91158I2526J16739D01*
G01*
X236248Y111654D02*
G03*
X238073Y115123I-6359J5558D01*
G01*
X241080Y118473D02*
G03*
X226571Y105848I-3544J-10576D01*
G01*
X241080Y118473D02*
G03*
X226571Y105848I855J-15632D01*
G01*
X232190Y109086D02*
G03*
X235206Y110650I-2300J8126D01*
G01*
X235665Y101685D02*
G03*
X238048Y101066I4758J13416D01*
G01*
X240638Y100868D02*
G03*
X243072Y101115I-215J14233D01*
G01*
X230074Y104326D02*
G03*
X227945Y97874I9459J-6699D01*
G01*
X227945Y97874D02*
G03*
X219701Y102306I-7943J-4892D01*
G01*
X231768Y103801D02*
G03*
X230925Y94025I16149J-6317D01*
G01*
D02*
G03*
X234095Y92356I9426J14062D01*
G01*
X23622Y33465D02*
X43307D01*
X23622Y13780D02*
X43307D01*
X350394Y143701D02*
X370079D01*
X350394Y124016D02*
X370079D01*
X298768Y82715D02*
X321603D01*
X326426Y65982D02*
Y71612D01*
X320028Y65982D02*
X326426D01*
X293945D02*
X300343D01*
X293945D02*
Y71612D01*
X346504Y127793D02*
Y136061D01*
X337646Y127793D02*
X346504D01*
X292370Y127596D02*
Y135864D01*
Y127596D02*
X301229D01*
X292174Y159093D02*
Y162833D01*
X346701D02*
X346898Y162636D01*
Y159093D02*
Y162636D01*
X292174Y162833D02*
X346701D01*
X232190Y109086D02*
X235206Y106886D01*
Y110650D01*
X23622Y68898D02*
X43307D01*
X23622Y88583D02*
X43307D01*
X268701Y68898D02*
X288386D01*
X268701Y88583D02*
X288386D01*
X23622Y124016D02*
X43307D01*
X23622Y143701D02*
X43307D01*
X187008Y124016D02*
X206693D01*
X187008Y143701D02*
X206693D01*
X268701Y124016D02*
X288386D01*
X268701Y143701D02*
X288386D01*
X105315Y124016D02*
X125000D01*
X105315Y143701D02*
X125000D01*
X350394Y68898D02*
X370079D01*
X350394Y88583D02*
X370079D01*
X187008Y68898D02*
X206693D01*
X187008Y88583D02*
X206693D01*
X350394Y13780D02*
X370079D01*
X350394Y33465D02*
X370079D01*
X268701Y13780D02*
X288386D01*
X268701Y33465D02*
X288386D01*
X187008Y13780D02*
X206693D01*
X187008Y33465D02*
X206693D01*
X105315Y68898D02*
X125000D01*
X105315Y88583D02*
X125000D01*
X105315Y13780D02*
X125000D01*
X105315Y33465D02*
X125000D01*
D12*
X247561Y119591D02*
G03*
X243581Y119558I-1991J164D01*
G01*
X247065Y117040D02*
X247568Y119756D01*
X243571D02*
X243587Y118207D01*
X247065Y117040D01*
D16*
X317280Y69881D02*
X317673Y69488D01*
Y68701D01*
X317280Y68307D01*
X315706D01*
X315312Y68701D01*
Y69488D01*
X315706Y69881D01*
X316493D01*
Y69094D01*
X315312Y70669D02*
X317673D01*
X315312Y72243D01*
X317673D01*
Y73030D02*
X315312D01*
Y74211D01*
X315706Y74604D01*
X317280D01*
X317673Y74211D01*
Y73030D01*
X313029Y69881D02*
X313422Y69488D01*
Y68701D01*
X313029Y68307D01*
X312635D01*
X312242Y68701D01*
Y69488D01*
X311848Y69881D01*
X311455D01*
X311061Y69488D01*
Y68701D01*
X311455Y68307D01*
X313422Y70669D02*
X311061D01*
X311848Y71456D01*
X311061Y72243D01*
X313422D01*
X313029Y74604D02*
X313422Y74211D01*
Y73423D01*
X313029Y73030D01*
X311455D01*
X311061Y73423D01*
Y74211D01*
X311455Y74604D01*
X313422Y75391D02*
X311061D01*
Y76966D01*
X313422Y77753D02*
X311061D01*
X311848D01*
X313422Y79327D01*
X312242Y78146D01*
X311061Y79327D01*
X308778Y69881D02*
X309172Y69488D01*
Y68701D01*
X308778Y68307D01*
X308384D01*
X307991Y68701D01*
Y69488D01*
X307597Y69881D01*
X307204D01*
X306810Y69488D01*
Y68701D01*
X307204Y68307D01*
X309172Y70669D02*
X306810D01*
X307597Y71456D01*
X306810Y72243D01*
X309172D01*
Y73030D02*
X306810D01*
Y74211D01*
X307204Y74604D01*
X308778D01*
X309172Y74211D01*
Y73030D01*
Y75391D02*
Y76178D01*
Y75785D01*
X306810D01*
Y75391D01*
Y76178D01*
X309172Y78540D02*
Y77753D01*
X308778Y77359D01*
X307204D01*
X306810Y77753D01*
Y78540D01*
X307204Y78934D01*
X308778D01*
X309172Y78540D01*
X304527Y68307D02*
X304921Y68701D01*
Y69488D01*
X304527Y69881D01*
X304133D01*
X303740Y69488D01*
Y69094D01*
Y69488D01*
X303346Y69881D01*
X302953D01*
X302559Y69488D01*
Y68701D01*
X302953Y68307D01*
X304921Y70669D02*
X303346D01*
X302559Y71456D01*
X303346Y72243D01*
X304921D01*
X304527Y73030D02*
X304921Y73423D01*
Y74211D01*
X304527Y74604D01*
X304133D01*
X303740Y74211D01*
Y73817D01*
Y74211D01*
X303346Y74604D01*
X302953D01*
X302559Y74211D01*
Y73423D01*
X302953Y73030D01*
D17*
X209449Y120571D02*
Y116635D01*
X208137Y117947D01*
X206825Y116635D01*
Y120571D01*
X205513D02*
X204201D01*
X204857D01*
Y116635D01*
X205513D01*
X204201D01*
X202233D02*
Y120571D01*
X199609Y116635D01*
Y120571D01*
X195674Y119915D02*
X196330Y120571D01*
X197642D01*
X198298Y119915D01*
Y117291D01*
X197642Y116635D01*
X196330D01*
X195674Y117291D01*
Y118603D01*
X196986D01*
X194362D02*
X191738D01*
X187802Y119915D02*
X188458Y120571D01*
X189770D01*
X190426Y119915D01*
Y119259D01*
X189770Y118603D01*
X188458D01*
X187802Y117947D01*
Y117291D01*
X188458Y116635D01*
X189770D01*
X190426Y117291D01*
X186490Y120571D02*
X185178D01*
X185834D01*
Y116635D01*
X186490D01*
X185178D01*
X180587Y119915D02*
X181243Y120571D01*
X182555D01*
X183211Y119915D01*
Y117291D01*
X182555Y116635D01*
X181243D01*
X180587Y117291D01*
Y118603D01*
X181899D01*
X179275Y116635D02*
Y120571D01*
X176651Y116635D01*
Y120571D01*
X175339Y116635D02*
Y119259D01*
X174027Y120571D01*
X172715Y119259D01*
Y116635D01*
Y118603D01*
X175339D01*
X171403Y120571D02*
Y116635D01*
X168780D01*
X167468Y118603D02*
X164844D01*
X163532Y116635D02*
Y120571D01*
X160908Y116635D01*
Y120571D01*
X157628D02*
X158940D01*
X159596Y119915D01*
Y117291D01*
X158940Y116635D01*
X157628D01*
X156972Y117291D01*
Y119915D01*
X157628Y120571D01*
X155660D02*
Y116635D01*
X153692D01*
X153037Y117291D01*
Y119915D01*
X153692Y120571D01*
X155660D01*
X149101D02*
X151725D01*
Y116635D01*
X149101D01*
X151725Y118603D02*
X150413D01*
X143853Y120571D02*
Y117947D01*
X142541Y116635D01*
X141229Y117947D01*
Y120571D01*
X139917Y116635D02*
Y117291D01*
X139261D01*
Y116635D01*
X139917D01*
X136638D02*
X135326D01*
X135982D01*
Y120571D01*
X136638Y119915D01*
X133358Y116635D02*
Y117291D01*
X132702D01*
Y116635D01*
X133358D01*
X130078D02*
X128766D01*
X129422D01*
Y120571D01*
X130078Y119915D01*
X209449Y113013D02*
Y109733D01*
X208793Y109078D01*
X207481D01*
X206825Y109733D01*
Y113013D01*
X205513Y109078D02*
Y111701D01*
X203545D01*
X202889Y111045D01*
Y109078D01*
X201577D02*
Y111701D01*
X200921D01*
X200265Y111045D01*
Y109078D01*
Y111045D01*
X199609Y111701D01*
X198953Y111045D01*
Y109078D01*
X196986Y111701D02*
X195674D01*
X195018Y111045D01*
Y109078D01*
X196986D01*
X197642Y109733D01*
X196986Y110389D01*
X195018D01*
X193706Y109078D02*
Y111701D01*
X191738D01*
X191082Y111045D01*
Y109078D01*
X189770D02*
Y111701D01*
X187802D01*
X187146Y111045D01*
Y109078D01*
X183867D02*
X185178D01*
X185834Y109733D01*
Y111045D01*
X185178Y111701D01*
X183867D01*
X183211Y111045D01*
Y110389D01*
X185834D01*
X179275Y113013D02*
Y109078D01*
X181243D01*
X181899Y109733D01*
Y111045D01*
X181243Y111701D01*
X179275D01*
X174027Y113013D02*
X171403D01*
X172715D01*
Y109078D01*
X168124D02*
X169436D01*
X170091Y109733D01*
Y111045D01*
X169436Y111701D01*
X168124D01*
X167468Y111045D01*
Y110389D01*
X170091D01*
X163532Y111701D02*
X165500D01*
X166156Y111045D01*
Y109733D01*
X165500Y109078D01*
X163532D01*
X162220Y113013D02*
Y109078D01*
Y111045D01*
X161564Y111701D01*
X160252D01*
X159596Y111045D01*
Y109078D01*
X158284D02*
Y109733D01*
X157628D01*
Y109078D01*
X158284D01*
X151069Y113013D02*
Y109078D01*
X148445D01*
X146477Y111701D02*
X145165D01*
X144509Y111045D01*
Y109078D01*
X146477D01*
X147133Y109733D01*
X146477Y110389D01*
X144509D01*
X143197Y113013D02*
Y109078D01*
X141229D01*
X140573Y109733D01*
Y110389D01*
Y111045D01*
X141229Y111701D01*
X143197D01*
X139261Y109078D02*
Y109733D01*
X138605D01*
Y109078D01*
X139261D01*
X132046Y113013D02*
X130734D01*
X131390D01*
Y109078D01*
X132046D01*
X130734D01*
X128766Y113013D02*
Y109733D01*
X128110Y109078D01*
X126798D01*
X126142Y109733D01*
Y113013D01*
X208137Y100208D02*
X207481D01*
X206825Y100864D01*
Y104144D01*
X208793D01*
X209449Y103488D01*
Y102176D01*
X208793Y101520D01*
X206825D01*
X205513D02*
X204201D01*
X204857D01*
Y104144D01*
X205513D01*
X201577Y104800D02*
Y104144D01*
X202233D01*
X200921D01*
X201577D01*
Y102176D01*
X200921Y101520D01*
X198953Y105456D02*
Y101520D01*
Y103488D01*
X198298Y104144D01*
X196986D01*
X196330Y103488D01*
Y101520D01*
X195018Y104144D02*
Y102176D01*
X194362Y101520D01*
X192394D01*
Y104144D01*
X191082Y105456D02*
Y101520D01*
X189114D01*
X188458Y102176D01*
Y102832D01*
Y103488D01*
X189114Y104144D01*
X191082D01*
X187146Y101520D02*
Y102176D01*
X186490D01*
Y101520D01*
X187146D01*
X181243Y104144D02*
X183211D01*
X183867Y103488D01*
Y102176D01*
X183211Y101520D01*
X181243D01*
X179275D02*
X177963D01*
X177307Y102176D01*
Y103488D01*
X177963Y104144D01*
X179275D01*
X179931Y103488D01*
Y102176D01*
X179275Y101520D01*
X175995D02*
Y104144D01*
X175339D01*
X174683Y103488D01*
Y101520D01*
Y103488D01*
X174027Y104144D01*
X173371Y103488D01*
Y101520D01*
X172059D02*
X169436Y104144D01*
X166156Y101520D02*
X167468D01*
X168124Y102176D01*
Y103488D01*
X167468Y104144D01*
X166156D01*
X165500Y103488D01*
Y102832D01*
X168124D01*
X164188Y105456D02*
Y101520D01*
Y103488D01*
X163532Y104144D01*
X162220D01*
X161564Y103488D01*
Y101520D01*
X160252D02*
X158284D01*
X157628Y102176D01*
X158284Y102832D01*
X159596D01*
X160252Y103488D01*
X159596Y104144D01*
X157628D01*
X155660D02*
X154349D01*
X153692Y103488D01*
Y101520D01*
X155660D01*
X156316Y102176D01*
X155660Y102832D01*
X153692D01*
X152381Y101520D02*
Y104144D01*
X150413D01*
X149757Y103488D01*
Y101520D01*
X145821D02*
X148445D01*
X145821Y104144D01*
Y104800D01*
X146477Y105456D01*
X147789D01*
X148445Y104800D01*
X144509Y105456D02*
X141885D01*
Y104800D01*
X144509Y102176D01*
Y101520D01*
X137950Y105456D02*
X140573D01*
Y103488D01*
X139261Y104144D01*
X138605D01*
X137950Y103488D01*
Y102176D01*
X138605Y101520D01*
X139917D01*
X140573Y102176D01*
X134670Y101520D02*
Y105456D01*
X136638Y103488D01*
X134014D01*
X132702Y101520D02*
X130078Y104144D01*
X128766Y105456D02*
Y102176D01*
X128110Y101520D01*
X126798D01*
X126142Y102176D01*
Y105456D01*
X124830Y101520D02*
Y104144D01*
X123519Y105456D01*
X122207Y104144D01*
Y101520D01*
Y103488D01*
X124830D01*
X120895Y105456D02*
Y102832D01*
X119583Y101520D01*
X118271Y102832D01*
Y105456D01*
X116959Y103488D02*
X114335D01*
X110399Y104800D02*
X111055Y105456D01*
X112367D01*
X113023Y104800D01*
Y102176D01*
X112367Y101520D01*
X111055D01*
X110399Y102176D01*
X109088Y101520D02*
Y104144D01*
X107775Y105456D01*
X106464Y104144D01*
Y101520D01*
Y103488D01*
X109088D01*
X105152Y101520D02*
Y105456D01*
X102528Y101520D01*
Y105456D01*
X101216Y103488D02*
X98592D01*
X97280Y101520D02*
Y105456D01*
X95968Y104144D01*
X94656Y105456D01*
Y101520D01*
X91377Y105456D02*
X92689D01*
X93344Y104800D01*
Y102176D01*
X92689Y101520D01*
X91377D01*
X90721Y102176D01*
Y104800D01*
X91377Y105456D01*
X89409D02*
Y101520D01*
X87441D01*
X86785Y102176D01*
Y104800D01*
X87441Y105456D01*
X89409D01*
X85473D02*
Y102176D01*
X84817Y101520D01*
X83505D01*
X82849Y102176D01*
Y105456D01*
X81537D02*
Y101520D01*
X78913D01*
X74978Y105456D02*
X77601D01*
Y101520D01*
X74978D01*
X77601Y103488D02*
X76290D01*
X71042Y104800D02*
X71698Y105456D01*
X73010D01*
X73666Y104800D01*
Y104144D01*
X73010Y103488D01*
X71698D01*
X71042Y102832D01*
Y102176D01*
X71698Y101520D01*
X73010D01*
X73666Y102176D01*
X206825Y96586D02*
X209449D01*
Y92651D01*
X206825D01*
X209449Y94618D02*
X208137D01*
X205513Y92651D02*
Y93306D01*
X204857D01*
Y92651D01*
X205513D01*
X199609Y95930D02*
X200265Y96586D01*
X201577D01*
X202233Y95930D01*
Y95274D01*
X201577Y94618D01*
X200265D01*
X199609Y93962D01*
Y93306D01*
X200265Y92651D01*
X201577D01*
X202233Y93306D01*
X198298Y96586D02*
Y92651D01*
Y94618D01*
X197642Y95274D01*
X196330D01*
X195674Y94618D01*
Y92651D01*
X193706Y95274D02*
X192394D01*
X191738Y94618D01*
Y92651D01*
X193706D01*
X194362Y93306D01*
X193706Y93962D01*
X191738D01*
X189114Y91339D02*
X188458D01*
X187802Y91995D01*
Y95274D01*
X189770D01*
X190426Y94618D01*
Y93306D01*
X189770Y92651D01*
X187802D01*
X186490Y96586D02*
Y92651D01*
Y94618D01*
X185834Y95274D01*
X184522D01*
X183867Y94618D01*
Y92651D01*
X181899Y95274D02*
X180587D01*
X179931Y94618D01*
Y92651D01*
X181899D01*
X182555Y93306D01*
X181899Y93962D01*
X179931D01*
X176651Y92651D02*
X177963D01*
X178619Y93306D01*
Y94618D01*
X177963Y95274D01*
X176651D01*
X175995Y94618D01*
Y93962D01*
X178619D01*
X174683Y92651D02*
X173371D01*
X174027D01*
Y95274D01*
X174683D01*
X169436Y93962D02*
Y94618D01*
X170091D01*
Y93962D01*
X169436D01*
X168780Y94618D01*
Y95930D01*
X169436Y96586D01*
X170747D01*
X171403Y95930D01*
Y93306D01*
X170747Y92651D01*
X168780D01*
X167468D02*
X166156D01*
X166812D01*
Y95274D01*
X167468D01*
X164188Y92651D02*
Y95274D01*
X162220D01*
X161564Y94618D01*
Y92651D01*
X160252D02*
Y95274D01*
X158284D01*
X157628Y94618D01*
Y92651D01*
X155660D02*
X154349D01*
X153692Y93306D01*
Y94618D01*
X154349Y95274D01*
X155660D01*
X156316Y94618D01*
Y93306D01*
X155660Y92651D01*
X152381Y91339D02*
Y95274D01*
X150413D01*
X149757Y94618D01*
Y93306D01*
X150413Y92651D01*
X152381D01*
X147789D02*
X146477D01*
X145821Y93306D01*
Y94618D01*
X146477Y95274D01*
X147789D01*
X148445Y94618D01*
Y93306D01*
X147789Y92651D01*
X144509D02*
X143197D01*
X143853D01*
Y96586D01*
X144509D01*
X141229Y92651D02*
X139917D01*
X140573D01*
Y95274D01*
X141229D01*
X137950Y92651D02*
X135982D01*
X135326Y93306D01*
X135982Y93962D01*
X137294D01*
X137950Y94618D01*
X137294Y95274D01*
X135326D01*
X134014Y92651D02*
Y93306D01*
X133358D01*
Y92651D01*
X134014D01*
X130734Y95274D02*
Y93306D01*
X130078Y92651D01*
X128110D01*
Y95274D01*
X126798Y92651D02*
Y95274D01*
X124830D01*
X124174Y94618D01*
Y92651D01*
X122863D02*
X121551D01*
X122207D01*
Y95274D01*
X122863D01*
X119583D02*
X118271Y92651D01*
X116959Y95274D01*
X113679Y92651D02*
X114991D01*
X115647Y93306D01*
Y94618D01*
X114991Y95274D01*
X113679D01*
X113023Y94618D01*
Y93962D01*
X115647D01*
X111711Y95274D02*
Y92651D01*
Y93962D01*
X111055Y94618D01*
X110399Y95274D01*
X109743D01*
X107776Y92651D02*
X105808D01*
X105152Y93306D01*
X105808Y93962D01*
X107120D01*
X107776Y94618D01*
X107120Y95274D01*
X105152D01*
X103840Y92651D02*
X102528D01*
X103184D01*
Y95274D01*
X103840D01*
X99904Y95930D02*
Y95274D01*
X100560D01*
X99248D01*
X99904D01*
Y93306D01*
X99248Y92651D01*
X97280Y95274D02*
Y93306D01*
X96624Y92651D01*
X94656D01*
Y91995D01*
X95312Y91339D01*
X95968D01*
X94656Y92651D02*
Y95274D01*
D67*
X305919Y120825D02*
X307493D01*
X308281Y120038D01*
X307493Y119251D01*
X305919D01*
X308281Y118464D02*
Y117676D01*
Y118070D01*
X306706D01*
Y118464D01*
X308281Y116496D02*
X306706D01*
Y115315D01*
X307100Y114921D01*
X308281D01*
X310359Y120825D02*
X311933D01*
X312721Y120038D01*
X311933Y119251D01*
X310359D01*
X312721Y118464D02*
Y117676D01*
Y118070D01*
X311146D01*
Y118464D01*
X312721Y116496D02*
X311146D01*
Y115315D01*
X311540Y114921D01*
X312721D01*
X314799Y116496D02*
X317161D01*
X315980D01*
Y114921D01*
X314799D01*
X317161D01*
X319239Y116496D02*
X321601D01*
Y114921D01*
X324073Y119644D02*
X323679Y120038D01*
Y120825D01*
X324073Y121219D01*
X325647D01*
X326041Y120825D01*
Y120038D01*
X325647Y119644D01*
X324860D01*
Y120431D01*
X326041Y118857D02*
X323679D01*
X326041Y117283D01*
X323679D01*
Y116496D02*
X326041D01*
Y115315D01*
X325647Y114921D01*
X324073D01*
X323679Y115315D01*
Y116496D01*
X328513Y119644D02*
X328119Y120038D01*
Y120825D01*
X328513Y121219D01*
X330087D01*
X330481Y120825D01*
Y120038D01*
X330087Y119644D01*
X329300D01*
Y120431D01*
X330481Y118857D02*
X328119D01*
X330481Y117283D01*
X328119D01*
Y116496D02*
X330481D01*
Y115315D01*
X330087Y114921D01*
X328513D01*
X328119Y115315D01*
Y116496D01*
M02*
