G04*
G04 #@! TF.GenerationSoftware,Altium Limited,Altium Designer,21.4.1 (30)*
G04*
G04 Layer_Color=255*
%FSLAX25Y25*%
%MOIN*%
G70*
G04*
G04 #@! TF.SameCoordinates,0925FAD0-936D-4726-9005-38EE8A2EBB20*
G04*
G04*
G04 #@! TF.FilePolarity,Positive*
G04*
G01*
G75*
%ADD18C,0.07874*%
%ADD19R,0.03937X0.10630*%
%ADD20R,0.02362X0.06693*%
%ADD21R,0.07087X0.14961*%
%ADD22R,0.03937X0.10630*%
%ADD23R,0.03937X0.03150*%
%ADD24R,0.03543X0.02756*%
%ADD25R,0.03150X0.03937*%
%ADD26R,0.01181X0.02067*%
%ADD27R,0.04528X0.07165*%
%ADD28R,0.05200X0.02200*%
%ADD29R,0.02756X0.03543*%
%ADD30R,0.04252X0.01024*%
%ADD31R,0.01024X0.04252*%
%ADD32R,0.14567X0.14567*%
%ADD33R,0.07874X0.01575*%
%ADD34R,0.03150X0.03150*%
%ADD35R,0.05433X0.07165*%
%ADD36R,0.11000X0.07500*%
%ADD37R,0.09055X0.08661*%
%ADD38R,0.11811X0.08386*%
%ADD39R,0.02362X0.07756*%
%ADD40R,0.03504X0.03661*%
%ADD68R,0.09646X0.06496*%
%ADD78C,0.03543*%
%ADD79C,0.15748*%
D18*
X253543Y137402D02*
D03*
X268110Y124803D02*
D03*
X253543D02*
D03*
X359449Y57874D02*
D03*
X268110Y137402D02*
D03*
X374410Y50000D02*
D03*
X359449Y42126D02*
D03*
X48031Y43307D02*
D03*
X367717Y141339D02*
D03*
D19*
X100492Y42496D02*
D03*
X129823D02*
D03*
D20*
X112697Y55095D02*
D03*
X107776D02*
D03*
X117618D02*
D03*
X122539D02*
D03*
D21*
X220351Y42913D02*
D03*
X173107D02*
D03*
D22*
X211492Y61417D02*
D03*
X205587D02*
D03*
X199681D02*
D03*
X193776D02*
D03*
X187870D02*
D03*
X181965D02*
D03*
D23*
X278543Y81739D02*
D03*
Y75046D02*
D03*
X360236Y81739D02*
D03*
Y75046D02*
D03*
X33465Y19928D02*
D03*
Y26621D02*
D03*
X115157Y19928D02*
D03*
Y26621D02*
D03*
X360236Y19928D02*
D03*
Y26621D02*
D03*
X278543Y19928D02*
D03*
Y26621D02*
D03*
X196850Y19928D02*
D03*
Y26621D02*
D03*
X322047Y144291D02*
D03*
Y137598D02*
D03*
X33465Y130164D02*
D03*
Y136857D02*
D03*
X277953Y130118D02*
D03*
Y123425D02*
D03*
X360236Y130164D02*
D03*
Y136857D02*
D03*
X196850Y130164D02*
D03*
Y136857D02*
D03*
X115157Y130164D02*
D03*
Y136857D02*
D03*
X196850Y75046D02*
D03*
Y81739D02*
D03*
X33465Y75046D02*
D03*
Y81739D02*
D03*
X115157Y75046D02*
D03*
Y81739D02*
D03*
X353591Y53581D02*
D03*
Y46888D02*
D03*
X325638Y61455D02*
D03*
Y68148D02*
D03*
X315008Y109486D02*
D03*
Y116179D02*
D03*
X328973Y46888D02*
D03*
Y53581D02*
D03*
D24*
X331496Y67163D02*
D03*
Y61258D02*
D03*
X331496Y143898D02*
D03*
Y137992D02*
D03*
X337764Y61258D02*
D03*
Y67163D02*
D03*
X353197Y107715D02*
D03*
Y113620D02*
D03*
D25*
X348670Y126219D02*
D03*
X341977D02*
D03*
X347488Y69919D02*
D03*
X354182D02*
D03*
X315599Y102596D02*
D03*
X322292D02*
D03*
X348276Y97872D02*
D03*
X354969D02*
D03*
D26*
X348867Y130943D02*
D03*
X346307D02*
D03*
X343748D02*
D03*
X341189D02*
D03*
X348867Y141671D02*
D03*
X341189D02*
D03*
X346307D02*
D03*
X343748D02*
D03*
D27*
X314232Y130709D02*
D03*
X325925D02*
D03*
X308996Y142913D02*
D03*
X297303D02*
D03*
D28*
X336392Y53935D02*
D03*
Y50235D02*
D03*
Y46535D02*
D03*
X345592D02*
D03*
Y53935D02*
D03*
D29*
X353788Y64407D02*
D03*
X347882D02*
D03*
X330953Y123463D02*
D03*
X325048D02*
D03*
X319930D02*
D03*
X314024D02*
D03*
X354969Y91967D02*
D03*
X349063D02*
D03*
X326229Y111652D02*
D03*
X332134D02*
D03*
X332134Y117557D02*
D03*
X326229D02*
D03*
X283315Y127596D02*
D03*
X289221D02*
D03*
X283315Y133502D02*
D03*
X289221D02*
D03*
X289173Y118898D02*
D03*
X283268D02*
D03*
D30*
X340658Y78187D02*
D03*
Y80156D02*
D03*
Y82124D02*
D03*
Y84093D02*
D03*
Y86061D02*
D03*
Y88030D02*
D03*
Y89998D02*
D03*
Y91967D02*
D03*
Y93935D02*
D03*
X318493D02*
D03*
Y91967D02*
D03*
Y89998D02*
D03*
Y88030D02*
D03*
Y86061D02*
D03*
Y84093D02*
D03*
Y82124D02*
D03*
Y80156D02*
D03*
Y78187D02*
D03*
D31*
X335481Y97144D02*
D03*
X333512D02*
D03*
X331544D02*
D03*
X329575D02*
D03*
X327607D02*
D03*
X325638D02*
D03*
X323670D02*
D03*
X321701D02*
D03*
Y74978D02*
D03*
X323670D02*
D03*
X325638D02*
D03*
X327607D02*
D03*
X329575D02*
D03*
X331544D02*
D03*
X333512D02*
D03*
X335481D02*
D03*
X337449Y97144D02*
D03*
Y74978D02*
D03*
D32*
X329575Y86061D02*
D03*
D33*
X352016Y85667D02*
D03*
Y80943D02*
D03*
Y76218D02*
D03*
D34*
X347193Y108305D02*
D03*
Y114211D02*
D03*
D35*
X294807Y61652D02*
D03*
X284028D02*
D03*
X294807Y71494D02*
D03*
X284028D02*
D03*
D36*
X303985Y80786D02*
D03*
Y100786D02*
D03*
D37*
X285874Y81140D02*
D03*
Y100431D02*
D03*
D38*
X301622Y121297D02*
D03*
D39*
X309122Y111553D02*
D03*
X304122D02*
D03*
X299122D02*
D03*
X294122D02*
D03*
Y131041D02*
D03*
X299122D02*
D03*
X304122D02*
D03*
X309122D02*
D03*
D40*
X289252Y112598D02*
D03*
X283189D02*
D03*
D68*
X345028Y136307D02*
D03*
D78*
X302803Y65195D02*
D03*
X307725D02*
D03*
X312646D02*
D03*
X317567D02*
D03*
D79*
X9843Y9843D02*
D03*
Y147638D02*
D03*
X383858Y9843D02*
D03*
Y147638D02*
D03*
M02*
