G04*
G04 #@! TF.GenerationSoftware,Altium Limited,Altium Designer,21.4.1 (30)*
G04*
G04 Layer_Color=16711935*
%FSLAX25Y25*%
%MOIN*%
G70*
G04*
G04 #@! TF.SameCoordinates,0925FAD0-936D-4726-9005-38EE8A2EBB20*
G04*
G04*
G04 #@! TF.FilePolarity,Negative*
G04*
G01*
G75*
%ADD44R,0.07887X0.15761*%
%ADD45R,0.04737X0.11430*%
%ADD66C,0.16548*%
%ADD86R,0.06706X0.04737*%
G04:AMPARAMS|DCode=87|XSize=67.06mil|YSize=47.37mil|CornerRadius=13.84mil|HoleSize=0mil|Usage=FLASHONLY|Rotation=180.000|XOffset=0mil|YOffset=0mil|HoleType=Round|Shape=RoundedRectangle|*
%AMROUNDEDRECTD87*
21,1,0.06706,0.01968,0,0,180.0*
21,1,0.03937,0.04737,0,0,180.0*
1,1,0.02769,-0.01968,0.00984*
1,1,0.02769,0.01968,0.00984*
1,1,0.02769,0.01968,-0.00984*
1,1,0.02769,-0.01968,-0.00984*
%
%ADD87ROUNDEDRECTD87*%
%ADD88R,0.03556X0.07493*%
D44*
X342961Y149447D02*
D03*
X295717D02*
D03*
D45*
X334103Y130943D02*
D03*
X328197D02*
D03*
X322292D02*
D03*
X316386D02*
D03*
X310481D02*
D03*
X304575D02*
D03*
D66*
X9843Y9843D02*
D03*
Y147638D02*
D03*
X383858Y9843D02*
D03*
Y147638D02*
D03*
D86*
X43110Y17323D02*
D03*
X23819D02*
D03*
Y29921D02*
D03*
X369882Y127559D02*
D03*
X350590D02*
D03*
Y140157D02*
D03*
X23819Y85039D02*
D03*
Y72441D02*
D03*
X43110D02*
D03*
X268898Y85039D02*
D03*
Y72441D02*
D03*
X288189D02*
D03*
X23819Y140157D02*
D03*
Y127559D02*
D03*
X43110D02*
D03*
X187205Y140157D02*
D03*
Y127559D02*
D03*
X206496D02*
D03*
X268898Y140157D02*
D03*
Y127559D02*
D03*
X288189D02*
D03*
X105512Y140157D02*
D03*
Y127559D02*
D03*
X124803D02*
D03*
X350590Y85039D02*
D03*
Y72441D02*
D03*
X369882D02*
D03*
X187205Y85039D02*
D03*
Y72441D02*
D03*
X206496D02*
D03*
X350590Y29921D02*
D03*
Y17323D02*
D03*
X369882D02*
D03*
X268898Y29921D02*
D03*
Y17323D02*
D03*
X288189D02*
D03*
X187205Y29921D02*
D03*
Y17323D02*
D03*
X206496D02*
D03*
X105512Y85039D02*
D03*
Y72441D02*
D03*
X124803D02*
D03*
X105512Y29921D02*
D03*
Y17323D02*
D03*
X124803D02*
D03*
D87*
X43110Y29921D02*
D03*
X369882Y140157D02*
D03*
X43110Y85039D02*
D03*
X288189D02*
D03*
X43110Y140157D02*
D03*
X206496D02*
D03*
X288189D02*
D03*
X124803D02*
D03*
X369882Y85039D02*
D03*
X206496D02*
D03*
X369882Y29921D02*
D03*
X288189D02*
D03*
X206496D02*
D03*
X124803Y85039D02*
D03*
Y29921D02*
D03*
D88*
X302803Y65195D02*
D03*
X307725D02*
D03*
X312646D02*
D03*
X317567D02*
D03*
M02*
