G04*
G04 #@! TF.GenerationSoftware,Altium Limited,Altium Designer,21.4.1 (30)*
G04*
G04 Layer_Color=0*
%FSLAX25Y25*%
%MOIN*%
G70*
G04*
G04 #@! TF.SameCoordinates,0925FAD0-936D-4726-9005-38EE8A2EBB20*
G04*
G04*
G04 #@! TF.FilePolarity,Positive*
G04*
G01*
G75*
%ADD11C,0.00500*%
%ADD93C,0.00197*%
D11*
X346701Y73266D02*
X357331D01*
Y88620D01*
X346701D02*
X357331D01*
X346701Y73266D02*
Y88620D01*
D93*
X311024Y126378D02*
Y135039D01*
Y126378D02*
X329134D01*
Y135039D01*
X311024D02*
X329134D01*
X312205Y138583D02*
Y147244D01*
X294094D02*
X312205D01*
X294094Y138583D02*
Y147244D01*
Y138583D02*
X312205D01*
X292567Y84880D02*
X327803D01*
Y60864D02*
Y84880D01*
X292567Y60864D02*
X327803D01*
X292567D02*
Y84880D01*
X315370Y71986D02*
Y100451D01*
X344004D01*
Y71986D02*
Y100451D01*
X315370Y71986D02*
X344004D01*
X298504Y57093D02*
Y66211D01*
X280331Y57093D02*
Y66211D01*
X298504D01*
X280331Y57093D02*
X298504D01*
Y66935D02*
Y76053D01*
X280331Y66935D02*
Y76053D01*
X298504D01*
X280331Y66935D02*
X298504D01*
X290796Y106691D02*
X312449D01*
X290796Y135904D02*
X312449D01*
Y106691D02*
Y135904D01*
M02*
