G04*
G04 #@! TF.GenerationSoftware,Altium Limited,Altium Designer,21.4.1 (30)*
G04*
G04 Layer_Color=128*
%FSLAX25Y25*%
%MOIN*%
G70*
G04*
G04 #@! TF.SameCoordinates,0925FAD0-936D-4726-9005-38EE8A2EBB20*
G04*
G04*
G04 #@! TF.FilePolarity,Positive*
G04*
G01*
G75*
%ADD21R,0.07087X0.14961*%
%ADD22R,0.03937X0.10630*%
%ADD82R,0.05906X0.03937*%
G04:AMPARAMS|DCode=83|XSize=59.06mil|YSize=39.37mil|CornerRadius=9.84mil|HoleSize=0mil|Usage=FLASHONLY|Rotation=180.000|XOffset=0mil|YOffset=0mil|HoleType=Round|Shape=RoundedRectangle|*
%AMROUNDEDRECTD83*
21,1,0.05906,0.01968,0,0,180.0*
21,1,0.03937,0.03937,0,0,180.0*
1,1,0.01968,-0.01968,0.00984*
1,1,0.01968,0.01968,0.00984*
1,1,0.01968,0.01968,-0.00984*
1,1,0.01968,-0.01968,-0.00984*
%
%ADD83ROUNDEDRECTD83*%
D21*
X342961Y149447D02*
D03*
X295717D02*
D03*
D22*
X334103Y130943D02*
D03*
X328197D02*
D03*
X322292D02*
D03*
X316386D02*
D03*
X310481D02*
D03*
X304575D02*
D03*
D82*
X43110Y17323D02*
D03*
X23819D02*
D03*
Y29921D02*
D03*
X369882Y127559D02*
D03*
X350590D02*
D03*
Y140157D02*
D03*
X23819Y85039D02*
D03*
Y72441D02*
D03*
X43110D02*
D03*
X268898Y85039D02*
D03*
Y72441D02*
D03*
X288189D02*
D03*
X23819Y140157D02*
D03*
Y127559D02*
D03*
X43110D02*
D03*
X187205Y140157D02*
D03*
Y127559D02*
D03*
X206496D02*
D03*
X268898Y140157D02*
D03*
Y127559D02*
D03*
X288189D02*
D03*
X105512Y140157D02*
D03*
Y127559D02*
D03*
X124803D02*
D03*
X350590Y85039D02*
D03*
Y72441D02*
D03*
X369882D02*
D03*
X187205Y85039D02*
D03*
Y72441D02*
D03*
X206496D02*
D03*
X350590Y29921D02*
D03*
Y17323D02*
D03*
X369882D02*
D03*
X268898Y29921D02*
D03*
Y17323D02*
D03*
X288189D02*
D03*
X187205Y29921D02*
D03*
Y17323D02*
D03*
X206496D02*
D03*
X105512Y85039D02*
D03*
Y72441D02*
D03*
X124803D02*
D03*
X105512Y29921D02*
D03*
Y17323D02*
D03*
X124803D02*
D03*
D83*
X43110Y29921D02*
D03*
X369882Y140157D02*
D03*
X43110Y85039D02*
D03*
X288189D02*
D03*
X43110Y140157D02*
D03*
X206496D02*
D03*
X288189D02*
D03*
X124803D02*
D03*
X369882Y85039D02*
D03*
X206496D02*
D03*
X369882Y29921D02*
D03*
X288189D02*
D03*
X206496D02*
D03*
X124803Y85039D02*
D03*
Y29921D02*
D03*
M02*
