G04*
G04 #@! TF.GenerationSoftware,Altium Limited,Altium Designer,21.6.1 (37)*
G04*
G04 Layer_Physical_Order=2*
G04 Layer_Color=16711680*
%FSLAX44Y44*%
%MOMM*%
G71*
G04*
G04 #@! TF.SameCoordinates,9FB014CB-82BC-4BCF-9562-701BA5A7175F*
G04*
G04*
G04 #@! TF.FilePolarity,Positive*
G04*
G01*
G75*
%ADD11C,0.4000*%
%ADD12C,0.2000*%
%ADD17C,0.5000*%
%ADD25C,0.7000*%
%ADD59C,0.3000*%
%ADD62C,1.0000*%
%ADD63C,1.5000*%
%ADD64R,0.7874X1.6510*%
%ADD65R,1.3800X1.8200*%
G04:AMPARAMS|DCode=66|XSize=2mm|YSize=4mm|CornerRadius=0.07mm|HoleSize=0mm|Usage=FLASHONLY|Rotation=270.000|XOffset=0mm|YOffset=0mm|HoleType=Round|Shape=RoundedRectangle|*
%AMROUNDEDRECTD66*
21,1,2.0000,3.8600,0,0,270.0*
21,1,1.8600,4.0000,0,0,270.0*
1,1,0.1400,-1.9300,-0.9300*
1,1,0.1400,-1.9300,0.9300*
1,1,0.1400,1.9300,0.9300*
1,1,0.1400,1.9300,-0.9300*
%
%ADD66ROUNDEDRECTD66*%
G36*
X620821Y397250D02*
X620535Y397525D01*
X620247Y397772D01*
X619958Y397990D01*
X619665Y398178D01*
X619371Y398338D01*
X619075Y398468D01*
X618776Y398569D01*
X618475Y398642D01*
X618171Y398685D01*
X617866Y398700D01*
Y400700D01*
X618171Y400714D01*
X618475Y400758D01*
X618776Y400830D01*
X619075Y400932D01*
X619371Y401063D01*
X619665Y401222D01*
X619958Y401410D01*
X620247Y401628D01*
X620535Y401875D01*
X620821Y402150D01*
Y397250D01*
D02*
G37*
G36*
X696411Y395644D02*
X696139Y395927D01*
X695863Y396179D01*
X695582Y396402D01*
X695298Y396595D01*
X695010Y396759D01*
X694718Y396892D01*
X694422Y396996D01*
X694122Y397071D01*
X693818Y397115D01*
X693510Y397130D01*
X693587Y399130D01*
X693890Y399144D01*
X694193Y399187D01*
X694495Y399257D01*
X694796Y399356D01*
X695097Y399483D01*
X695397Y399638D01*
X695697Y399822D01*
X695996Y400033D01*
X696295Y400273D01*
X696593Y400541D01*
X696411Y395644D01*
D02*
G37*
G36*
X595472Y390304D02*
X595032Y389301D01*
X594867Y389113D01*
X573000D01*
X571267Y387380D01*
X594950D01*
X608170Y374160D01*
X601610Y367600D01*
X570490D01*
Y368305D01*
X570032Y368763D01*
X568652Y367382D01*
X568932Y367769D01*
X569070Y368226D01*
X569067Y368755D01*
X568923Y369355D01*
X568637Y370026D01*
X568459Y370336D01*
X554520Y384275D01*
X556247Y386002D01*
X555488Y386762D01*
X555772Y386793D01*
X556810Y386966D01*
X556941Y387004D01*
X557046Y387044D01*
X557127Y387084D01*
X557182Y387125D01*
X557276Y387031D01*
X557625Y387380D01*
X562022D01*
Y387418D01*
X562328Y387433D01*
X562631Y387476D01*
X562932Y387549D01*
X563231Y387650D01*
X563528Y387781D01*
X563822Y387940D01*
X564114Y388129D01*
X564404Y388346D01*
X564692Y388593D01*
X564977Y388868D01*
Y387380D01*
X566515D01*
X566062Y387832D01*
X570099Y391870D01*
X568678Y392458D01*
X566275D01*
X565940Y392320D01*
X564670Y393168D01*
Y394048D01*
X564197Y395191D01*
X565036Y396461D01*
X576816D01*
X577072Y395844D01*
X578534Y394382D01*
X580446Y393590D01*
X582514D01*
X584426Y394382D01*
X585888Y395844D01*
X586547Y397434D01*
X587853Y397924D01*
X595472Y390304D01*
D02*
G37*
G36*
X274254Y478848D02*
X279403Y477174D01*
X284227Y474717D01*
X288606Y471535D01*
X292435Y467706D01*
X295617Y463327D01*
X298074Y458503D01*
X299747Y453354D01*
X300594Y448007D01*
Y445300D01*
Y418841D01*
X300607Y418779D01*
X300597Y418716D01*
X300626Y418128D01*
X300672Y417945D01*
Y417756D01*
X300902Y416603D01*
X300998Y416371D01*
X301047Y416125D01*
X301497Y415038D01*
X301636Y414830D01*
X301732Y414598D01*
X302385Y413620D01*
X302519Y413487D01*
X302616Y413324D01*
X303011Y412888D01*
X303113Y412813D01*
X303188Y412711D01*
X304727Y411316D01*
X304890Y411219D01*
X305023Y411086D01*
X308473Y408780D01*
X308705Y408684D01*
X308914Y408545D01*
X312748Y406957D01*
X312994Y406908D01*
X313226Y406812D01*
X317296Y406002D01*
X317485D01*
X317668Y405956D01*
X319743Y405854D01*
X319806Y405864D01*
X319868Y405851D01*
X323583D01*
X324248Y404581D01*
X323842Y403984D01*
X293563D01*
X291864Y402285D01*
X292037Y402259D01*
X292377Y402231D01*
X292734Y402221D01*
Y399221D01*
X292377Y399212D01*
X292037Y399184D01*
X291864Y399158D01*
X293563Y397459D01*
X323302D01*
X325036Y399192D01*
X324776Y399213D01*
X324419Y399221D01*
X324238Y402221D01*
X324596Y402231D01*
X324935Y402262D01*
X325254Y402312D01*
X325555Y402382D01*
X325836Y402472D01*
X326098Y402582D01*
X326341Y402712D01*
X326565Y402862D01*
X326769Y403032D01*
X326955Y403222D01*
X327064Y401220D01*
X328170Y402326D01*
X329584Y400912D01*
X330998Y402326D01*
X335035Y398289D01*
X335624Y399711D01*
Y402113D01*
X334704Y404333D01*
X334360Y404678D01*
X334846Y405851D01*
X425452D01*
X425705Y404581D01*
X424335Y404014D01*
X424209Y403888D01*
X417305D01*
X415667Y403562D01*
X414277Y402634D01*
X409972Y398328D01*
X409972Y398328D01*
X403992Y392348D01*
X270015D01*
X269889Y392474D01*
X267977Y393266D01*
X265909D01*
X263997Y392474D01*
X262535Y391011D01*
X261743Y389100D01*
Y387031D01*
X262535Y385120D01*
X263997Y383657D01*
X265909Y382866D01*
X267977D01*
X269889Y383657D01*
X270015Y383783D01*
X291319D01*
X292168Y382513D01*
X291707Y381400D01*
Y379331D01*
X292498Y377420D01*
X293961Y375957D01*
X295872Y375166D01*
X297037D01*
X298020Y374970D01*
X300774D01*
X311046Y364698D01*
X310825Y364164D01*
Y362095D01*
X311617Y360184D01*
X313079Y358721D01*
X314991Y357930D01*
X317059D01*
X318971Y358721D01*
X320433Y360184D01*
X321225Y362095D01*
Y364164D01*
X320433Y366075D01*
X320201Y366307D01*
X319981Y367414D01*
X319053Y368803D01*
X305576Y382281D01*
X305227Y382513D01*
X305612Y383783D01*
X381954D01*
X408359Y357379D01*
X407857Y356166D01*
Y354098D01*
X408649Y352186D01*
X409112Y351723D01*
X408586Y350453D01*
X383790D01*
X382541Y350204D01*
X381483Y349497D01*
X312837Y280851D01*
X311704Y281984D01*
X309792Y282776D01*
X309861Y283960D01*
X311283Y284549D01*
X307246Y288586D01*
X310074Y291414D01*
X314111Y287377D01*
X314700Y288799D01*
Y291201D01*
X314014Y292857D01*
X314734Y294127D01*
X316610D01*
X317273Y294259D01*
X317836Y294634D01*
X337048Y313847D01*
X337819Y314000D01*
X338634D01*
X340546Y314792D01*
X342008Y316255D01*
X342800Y318166D01*
Y320234D01*
X342008Y322146D01*
X340546Y323608D01*
X338634Y324400D01*
X336566D01*
X334654Y323608D01*
X334549Y323503D01*
X293644Y364408D01*
X293081Y364783D01*
X292418Y364915D01*
X282952D01*
X282450Y366128D01*
X280987Y367590D01*
X279076Y368382D01*
X277007D01*
X275096Y367590D01*
X273633Y366128D01*
X272842Y364216D01*
Y362148D01*
X273633Y360237D01*
X273759Y360110D01*
Y347154D01*
X274085Y345515D01*
X275014Y344125D01*
X295417Y323722D01*
Y318008D01*
X294147Y317482D01*
X293596Y318033D01*
X291684Y318824D01*
X289616D01*
X287705Y318033D01*
X287578Y317907D01*
X251166D01*
X249527Y317581D01*
X248957Y317200D01*
X247966D01*
X246054Y316408D01*
X244592Y314946D01*
X243800Y313034D01*
Y310966D01*
X244592Y309054D01*
X246054Y307592D01*
X247966Y306800D01*
X250034D01*
X250769Y307104D01*
X262610Y292647D01*
X261900Y290934D01*
Y288866D01*
X262692Y286954D01*
X264154Y285492D01*
X265288Y285022D01*
X265784Y283527D01*
X265473Y283088D01*
X244950D01*
X244824Y283214D01*
X242912Y284006D01*
X240844D01*
X238932Y283214D01*
X237470Y281752D01*
X236678Y279840D01*
Y277772D01*
X237470Y275861D01*
X238932Y274398D01*
X240844Y273606D01*
X242912D01*
X244824Y274398D01*
X244950Y274524D01*
X268001D01*
X269640Y274850D01*
X270035Y275114D01*
X271607Y274637D01*
X271691Y274435D01*
X275728Y278472D01*
X277142Y277058D01*
X278556Y278472D01*
X282593Y274435D01*
X283182Y275856D01*
Y277042D01*
X291858Y285718D01*
X304400D01*
X305238Y284879D01*
X307458Y283960D01*
X307516D01*
X307724Y282776D01*
X305813Y281984D01*
X304350Y280522D01*
X303558Y278610D01*
Y276542D01*
X304350Y274630D01*
X305813Y273168D01*
X307724Y272376D01*
X309792D01*
X311704Y273168D01*
X312829Y274293D01*
X314156D01*
X315405Y274542D01*
X316463Y275249D01*
X331887Y290673D01*
X333060Y290187D01*
Y287138D01*
X329473Y283551D01*
X328288D01*
X326866Y282962D01*
X330903Y278925D01*
X328075Y276096D01*
X324038Y280133D01*
X323449Y278712D01*
Y276309D01*
X324369Y274089D01*
X326068Y272390D01*
X326240Y272319D01*
X325987Y271049D01*
X315833D01*
X315770Y271036D01*
X315707Y271046D01*
X314469Y270985D01*
X314286Y270939D01*
X314097D01*
X311668Y270456D01*
X311436Y270360D01*
X311190Y270311D01*
X308902Y269363D01*
X308694Y269224D01*
X308461Y269128D01*
X306402Y267752D01*
X306269Y267618D01*
X306107Y267521D01*
X305188Y266689D01*
X305113Y266587D01*
X305011Y266512D01*
X304189Y265605D01*
X304092Y265443D01*
X303959Y265309D01*
X302600Y263277D01*
X302504Y263044D01*
X302365Y262836D01*
X301429Y260577D01*
X301380Y260331D01*
X301284Y260099D01*
X300807Y257701D01*
Y257512D01*
X300762Y257329D01*
X300702Y256106D01*
X300711Y256044D01*
X300698Y255981D01*
Y231700D01*
Y228985D01*
X299849Y223622D01*
X298171Y218457D01*
X295706Y213619D01*
X292514Y209226D01*
X288674Y205386D01*
X284281Y202194D01*
X279443Y199729D01*
X274278Y198051D01*
X268915Y197202D01*
X263485D01*
X258122Y198051D01*
X252957Y199729D01*
X248119Y202194D01*
X243726Y205386D01*
X239886Y209226D01*
X236694Y213619D01*
X234229Y218457D01*
X232551Y223622D01*
X231702Y228985D01*
Y231700D01*
Y444983D01*
X231741Y445163D01*
X231801Y447980D01*
X232652Y453354D01*
X234325Y458503D01*
X236783Y463327D01*
X239965Y467706D01*
X243794Y471535D01*
X248173Y474717D01*
X252997Y477174D01*
X258146Y478847D01*
X263493Y479694D01*
X268907D01*
X274254Y478848D01*
D02*
G37*
G36*
X556772Y390784D02*
X556517Y391074D01*
X556255Y391334D01*
X555988Y391562D01*
X555714Y391761D01*
X555434Y391929D01*
X555148Y392066D01*
X554856Y392173D01*
X554557Y392249D01*
X554252Y392295D01*
X553942Y392310D01*
X554119Y394310D01*
X554418Y394324D01*
X554719Y394364D01*
X555022Y394432D01*
X555326Y394527D01*
X555632Y394649D01*
X555939Y394798D01*
X556249Y394975D01*
X556560Y395178D01*
X556872Y395409D01*
X557187Y395667D01*
X556772Y390784D01*
D02*
G37*
G36*
X417411Y399500D02*
X441300D01*
X413057Y371257D01*
Y386822D01*
X413000Y386764D01*
Y385325D01*
Y355189D01*
X377909Y390280D01*
X408816Y390033D01*
X411232Y397068D01*
X415134Y397434D01*
X417305Y399605D01*
X417411Y399500D01*
D02*
G37*
G36*
X656628Y389389D02*
X656329Y389657D01*
X656031Y389897D01*
X655731Y390108D01*
X655432Y390292D01*
X655131Y390447D01*
X654830Y390574D01*
X654529Y390673D01*
X654227Y390743D01*
X653925Y390786D01*
X653622Y390800D01*
X653544Y392800D01*
X653852Y392815D01*
X654156Y392859D01*
X654456Y392934D01*
X654752Y393038D01*
X655045Y393171D01*
X655333Y393335D01*
X655617Y393528D01*
X655897Y393751D01*
X656173Y394003D01*
X656446Y394286D01*
X656628Y389389D01*
D02*
G37*
G36*
X620518Y383234D02*
X620253Y383519D01*
X619982Y383775D01*
X619707Y384000D01*
X619428Y384196D01*
X619143Y384361D01*
X618853Y384496D01*
X618559Y384602D01*
X618259Y384677D01*
X617955Y384722D01*
X617646Y384737D01*
X617765Y386737D01*
X618067Y386751D01*
X618368Y386792D01*
X618671Y386862D01*
X618973Y386959D01*
X619276Y387084D01*
X619580Y387237D01*
X619884Y387417D01*
X620188Y387626D01*
X620493Y387862D01*
X620798Y388126D01*
X620518Y383234D01*
D02*
G37*
G36*
X678871Y379230D02*
X678821Y379705D01*
X678670Y380130D01*
X678418Y380505D01*
X678066Y380830D01*
X677613Y381105D01*
X677060Y381330D01*
X676406Y381505D01*
X675651Y381630D01*
X674796Y381705D01*
X673840Y381730D01*
Y386730D01*
X674796Y386755D01*
X675651Y386830D01*
X676406Y386955D01*
X677060Y387130D01*
X677613Y387355D01*
X678066Y387630D01*
X678418Y387955D01*
X678670Y388330D01*
X678821Y388755D01*
X678871Y389230D01*
Y379230D01*
D02*
G37*
G36*
X648337Y374659D02*
X648285Y374717D01*
X648208Y374770D01*
X648105Y374816D01*
X647977Y374856D01*
X647822Y374889D01*
X647642Y374917D01*
X647206Y374954D01*
X646666Y374966D01*
Y376966D01*
X646882Y376970D01*
X647253Y377002D01*
X647406Y377030D01*
X647540Y377066D01*
X647652Y377109D01*
X647744Y377161D01*
X647815Y377221D01*
X647866Y377288D01*
X647896Y377364D01*
X648337Y374659D01*
D02*
G37*
G36*
X719959Y375731D02*
X719741Y375700D01*
X719545Y375611D01*
X719373Y375461D01*
X719223Y375251D01*
X719097Y374981D01*
X718993Y374650D01*
X718913Y374260D01*
X718855Y373811D01*
X718821Y373301D01*
X718809Y372730D01*
X715809D01*
X715794Y373305D01*
X715749Y373819D01*
X715674Y374273D01*
X715569Y374666D01*
X715434Y374999D01*
X715269Y375272D01*
X715074Y375485D01*
X714849Y375637D01*
X714594Y375729D01*
X714309Y375761D01*
X719959Y375731D01*
D02*
G37*
G36*
X439201Y374050D02*
X439246Y373746D01*
X439321Y373447D01*
X439426Y373152D01*
X439562Y372863D01*
X439727Y372578D01*
X439923Y372299D01*
X440149Y372024D01*
X440404Y371755D01*
X440690Y371490D01*
X435799Y371202D01*
X436062Y371508D01*
X436298Y371813D01*
X436506Y372118D01*
X436686Y372422D01*
X436839Y372726D01*
X436964Y373029D01*
X437061Y373332D01*
X437130Y373634D01*
X437172Y373936D01*
X437186Y374237D01*
X439186Y374360D01*
X439201Y374050D01*
D02*
G37*
G36*
X445593Y373545D02*
X445839Y373361D01*
X446103Y373199D01*
X446386Y373060D01*
X446688Y372942D01*
X447009Y372847D01*
X447349Y372774D01*
X447707Y372723D01*
X448085Y372693D01*
X448482Y372687D01*
X445017Y369222D01*
X445010Y369618D01*
X444981Y369996D01*
X444930Y370355D01*
X444856Y370695D01*
X444761Y371016D01*
X444644Y371317D01*
X444504Y371601D01*
X444342Y371865D01*
X444159Y372110D01*
X443953Y372336D01*
X445367Y373750D01*
X445593Y373545D01*
D02*
G37*
G36*
X696054Y393592D02*
X697966Y392800D01*
X700034D01*
X701946Y393592D01*
X702380Y394026D01*
X703650Y393500D01*
Y375989D01*
X711676Y384014D01*
X714504Y381186D01*
X706478Y373160D01*
X714047D01*
Y368110D01*
X707677D01*
X707263Y368192D01*
X706174D01*
X694310Y380056D01*
Y393540D01*
X695580Y394066D01*
X696054Y393592D01*
D02*
G37*
G36*
X653042Y362061D02*
X652370Y361354D01*
X651769Y360647D01*
X651239Y359940D01*
X650779Y359233D01*
X650390Y358526D01*
X650072Y357818D01*
X649825Y357111D01*
X649648Y356404D01*
X649542Y355697D01*
X649507Y354990D01*
Y366379D01*
X649542Y366266D01*
X649648Y366239D01*
X649825Y366298D01*
X650072Y366444D01*
X650390Y366676D01*
X650779Y366995D01*
X652370Y368468D01*
X653042Y369132D01*
Y362061D01*
D02*
G37*
G36*
X527937Y386422D02*
Y358355D01*
X526667Y358103D01*
X526318Y358946D01*
X524855Y360408D01*
X522944Y361200D01*
X520875D01*
X518964Y360408D01*
X517501Y358946D01*
X516710Y357034D01*
Y355414D01*
X511748Y350453D01*
X417528D01*
X417002Y351723D01*
X417466Y352186D01*
X418257Y354098D01*
Y356166D01*
X417466Y358077D01*
X417282Y358261D01*
Y373031D01*
X425033Y380782D01*
X426303Y380256D01*
Y373667D01*
X428003Y371968D01*
X428028Y372141D01*
X428057Y372481D01*
X428066Y372838D01*
X431066D01*
X431076Y372481D01*
X431104Y372141D01*
X431152Y371820D01*
X431218Y371517D01*
X431304Y371232D01*
X431408Y370964D01*
X431532Y370715D01*
X431674Y370484D01*
X431836Y370271D01*
X432016Y370075D01*
X429895D01*
X430980Y368990D01*
X429566Y367576D01*
X430980Y366162D01*
X426943Y362125D01*
X428365Y361536D01*
X430768D01*
X432988Y362455D01*
X434312Y363780D01*
X435446Y364443D01*
X437357Y363651D01*
X439426D01*
X441337Y364443D01*
X442799Y365905D01*
X442888Y366120D01*
X444253Y366096D01*
X445571Y364778D01*
X447482Y363987D01*
X449551D01*
X451462Y364778D01*
X452925Y366241D01*
X453717Y368152D01*
Y370221D01*
X452925Y372132D01*
X452122Y372936D01*
X451694Y373946D01*
X452122Y374595D01*
X453091Y375564D01*
X453158Y375727D01*
X514306D01*
X515360Y375937D01*
X516253Y376533D01*
X526667Y386948D01*
X527937Y386422D01*
D02*
G37*
G36*
X687822Y368922D02*
X689664Y367360D01*
X690478Y366791D01*
X691220Y366364D01*
X691892Y366078D01*
X692492Y365933D01*
X693021Y365930D01*
X693478Y366069D01*
X693865Y366349D01*
X686824Y359308D01*
X687104Y359694D01*
X687242Y360152D01*
X687239Y360681D01*
X687095Y361281D01*
X686809Y361952D01*
X686381Y362695D01*
X685813Y363509D01*
X685102Y364394D01*
X683258Y366379D01*
X686794Y369915D01*
X687822Y368922D01*
D02*
G37*
G36*
X560905Y358750D02*
X560619Y359025D01*
X560332Y359272D01*
X560042Y359490D01*
X559750Y359678D01*
X559455Y359837D01*
X559159Y359968D01*
X558860Y360070D01*
X558559Y360142D01*
X558256Y360186D01*
X557950Y360200D01*
Y362200D01*
X558256Y362215D01*
X558559Y362258D01*
X558860Y362331D01*
X559159Y362432D01*
X559455Y362562D01*
X559750Y362722D01*
X560042Y362910D01*
X560332Y363128D01*
X560619Y363374D01*
X560905Y363650D01*
Y358750D01*
D02*
G37*
G36*
X612980Y373093D02*
X614033Y372884D01*
X614033Y372884D01*
X626368D01*
X626855Y371711D01*
X618872Y363728D01*
X617944Y362339D01*
X617618Y360700D01*
Y344974D01*
X616348Y344448D01*
X615573Y345222D01*
X613662Y346014D01*
X611594D01*
X609682Y345222D01*
X608219Y343759D01*
X607428Y341848D01*
Y341670D01*
X604172Y338414D01*
X603129Y339138D01*
X608753Y351493D01*
X607445Y352802D01*
X599240Y334780D01*
X559800D01*
X571104Y346084D01*
Y349488D01*
X568604D01*
X568674Y354910D01*
X571104Y354782D01*
Y356971D01*
X603276D01*
X597190Y363057D01*
X600019Y365885D01*
X611129Y354775D01*
X611208Y355171D01*
Y372784D01*
X611387Y372969D01*
X612478Y373429D01*
X612980Y373093D01*
D02*
G37*
G36*
X550448Y357907D02*
X550698Y357726D01*
X550962Y357575D01*
X551240Y357457D01*
X551532Y357370D01*
X551838Y357314D01*
X552158Y357290D01*
X552492Y357298D01*
X552839Y357337D01*
X553201Y357408D01*
X550577Y353270D01*
X550482Y353680D01*
X550258Y354434D01*
X550130Y354778D01*
X549840Y355399D01*
X549679Y355676D01*
X549507Y355931D01*
X549324Y356164D01*
X549130Y356374D01*
X550212Y358121D01*
X550448Y357907D01*
D02*
G37*
G36*
X657963Y362802D02*
Y348200D01*
X663181D01*
X667787Y343593D01*
X668263Y342416D01*
X667787Y341940D01*
X666800Y340953D01*
X666330Y339818D01*
X665060Y340071D01*
Y340845D01*
X664471Y342266D01*
X661849Y339643D01*
X664471Y337020D01*
X664738Y337665D01*
X666008Y337413D01*
Y336973D01*
X666800Y335062D01*
X666862Y335000D01*
Y331069D01*
X663902Y328110D01*
X657963D01*
Y328110D01*
X656950Y328729D01*
X656747Y329033D01*
X639690Y346090D01*
X640216Y347360D01*
X649249D01*
X644186Y352422D01*
X647014Y355251D01*
X652077Y350188D01*
Y358576D01*
X656790Y363288D01*
X657963Y362802D01*
D02*
G37*
G36*
X677939Y366327D02*
X680789D01*
X684223Y362893D01*
Y349982D01*
X673511D01*
X669237Y354256D01*
Y363647D01*
X670024Y364173D01*
X672427D01*
X673848Y364761D01*
X669811Y368798D01*
X672640Y371627D01*
X677939Y366327D01*
D02*
G37*
G36*
X638214Y352033D02*
X637789Y351396D01*
X637617Y351082D01*
X637471Y350771D01*
X637352Y350462D01*
X637259Y350157D01*
X637193Y349854D01*
X637153Y349554D01*
X637140Y349257D01*
X635140Y349027D01*
X635124Y349339D01*
X635078Y349644D01*
X635000Y349941D01*
X634892Y350232D01*
X634753Y350515D01*
X634583Y350790D01*
X634383Y351059D01*
X634151Y351320D01*
X633888Y351573D01*
X633595Y351820D01*
X638465Y352355D01*
X638214Y352033D01*
D02*
G37*
G36*
X526473Y349674D02*
X526268Y349448D01*
X526084Y349203D01*
X525922Y348939D01*
X525783Y348656D01*
X525665Y348354D01*
X525570Y348033D01*
X525497Y347693D01*
X525446Y347334D01*
X525416Y346956D01*
X525410Y346560D01*
X521945Y350025D01*
X522341Y350032D01*
X522719Y350061D01*
X523078Y350112D01*
X523418Y350185D01*
X523738Y350280D01*
X524040Y350398D01*
X524324Y350537D01*
X524588Y350699D01*
X524833Y350883D01*
X525059Y351088D01*
X526473Y349674D01*
D02*
G37*
G36*
X718809Y350411D02*
X718688Y346351D01*
X717860Y345439D01*
X714727Y348890D01*
X714933Y348944D01*
X715117Y349033D01*
X715279Y349157D01*
X715420Y349316D01*
X715539Y349509D01*
X715636Y349738D01*
X715712Y350002D01*
X715766Y350301D01*
X715798Y350634D01*
X715809Y351003D01*
X718809Y350411D01*
D02*
G37*
G36*
X709036Y346757D02*
X709269Y346554D01*
Y344237D01*
X709858Y342816D01*
X713895Y346853D01*
X716646Y344102D01*
X717860Y345439D01*
X718688Y344526D01*
X718809Y340466D01*
X715809Y339875D01*
X715798Y340243D01*
X715766Y340577D01*
X715712Y340875D01*
X715636Y341139D01*
X715539Y341368D01*
X715420Y341562D01*
X715279Y341721D01*
X715117Y341844D01*
X714933Y341933D01*
X714727Y341987D01*
X715125Y342426D01*
X712686Y339987D01*
X714047Y339424D01*
Y328110D01*
X703063D01*
Y312556D01*
X699260Y308753D01*
X696337D01*
Y328110D01*
X685063D01*
Y320907D01*
X681732D01*
X680678Y320698D01*
X679785Y320101D01*
X679785Y320101D01*
X670410Y310726D01*
X669237Y311212D01*
Y322774D01*
X673302Y326839D01*
X674120Y328063D01*
X674407Y329507D01*
Y333852D01*
X675617Y335062D01*
X676408Y336973D01*
Y339042D01*
X675950Y340147D01*
X676799Y341417D01*
X700563D01*
X702202Y341743D01*
X703591Y342672D01*
X708131Y347212D01*
X709036Y346757D01*
D02*
G37*
G36*
X541675Y335513D02*
X541278Y335506D01*
X540900Y335477D01*
X540542Y335426D01*
X540202Y335353D01*
X539881Y335257D01*
X539579Y335140D01*
X539296Y335000D01*
X539032Y334839D01*
X538786Y334655D01*
X538560Y334449D01*
X537146Y335864D01*
X537352Y336090D01*
X537535Y336335D01*
X537697Y336599D01*
X537836Y336882D01*
X537954Y337184D01*
X538049Y337505D01*
X538123Y337845D01*
X538174Y338204D01*
X538203Y338582D01*
X538210Y338978D01*
X541675Y335513D01*
D02*
G37*
G36*
X642106Y327394D02*
X642845Y326766D01*
X643172Y326537D01*
X643469Y326364D01*
X643737Y326248D01*
X643977Y326188D01*
X644187Y326185D01*
X644369Y326239D01*
X644522Y326349D01*
X641724Y323551D01*
X641834Y323703D01*
X641888Y323885D01*
X641885Y324096D01*
X641825Y324335D01*
X641709Y324604D01*
X641536Y324901D01*
X641307Y325227D01*
X641021Y325582D01*
X640279Y326379D01*
X641693Y327793D01*
X642106Y327394D01*
D02*
G37*
G36*
X478844Y322586D02*
X474807Y318549D01*
X476228Y317960D01*
X477161D01*
X493021Y302100D01*
Y288848D01*
X494656Y287213D01*
X494713Y287562D01*
X494763Y288028D01*
X494803Y289067D01*
X499803D01*
X499813Y288530D01*
X499893Y287562D01*
X499950Y287213D01*
X501586Y288848D01*
Y303874D01*
X501260Y305513D01*
X500331Y306902D01*
X484067Y323166D01*
X484155Y323608D01*
X485532Y324027D01*
X504147Y305412D01*
Y302513D01*
X504021Y302387D01*
X503229Y300476D01*
Y298407D01*
X504021Y296496D01*
X505484Y295033D01*
X507395Y294242D01*
X509464D01*
X511375Y295033D01*
X512191Y295850D01*
X513134Y296307D01*
X513851Y295850D01*
X514771Y294929D01*
X515337Y294695D01*
Y291191D01*
X506113Y281967D01*
X504843Y282493D01*
Y282730D01*
X504329Y284648D01*
X503858Y285464D01*
X498717Y280323D01*
X497303Y281737D01*
X495889Y280323D01*
X489937Y286275D01*
X489747Y286269D01*
X488917Y287099D01*
X487389Y287981D01*
X485685Y288437D01*
X484692D01*
X484166Y289707D01*
X487129Y292670D01*
X487129Y292670D01*
X487726Y293563D01*
X487900Y294438D01*
X489085Y294929D01*
X490548Y296392D01*
X491339Y298303D01*
Y300372D01*
X490548Y302283D01*
X489085Y303746D01*
X487174Y304537D01*
X485105D01*
X483194Y303746D01*
X481731Y302283D01*
X480939Y300372D01*
Y298303D01*
X481731Y296392D01*
X482398Y295725D01*
X474703Y288031D01*
X473185Y288437D01*
X471421D01*
X469717Y287981D01*
X468189Y287099D01*
X466942Y285851D01*
X466786Y285582D01*
X465320D01*
X465165Y285851D01*
X464086Y286930D01*
Y317164D01*
X470217Y323295D01*
X471390Y322809D01*
Y322799D01*
X471979Y321377D01*
X476016Y325414D01*
X478844Y322586D01*
D02*
G37*
G36*
X686824Y316154D02*
X686804Y316345D01*
X686743Y316514D01*
X686641Y316665D01*
X686499Y316794D01*
X686316Y316905D01*
X686093Y316994D01*
X685829Y317064D01*
X685524Y317115D01*
X685179Y317145D01*
X684793Y317155D01*
Y319154D01*
X685179Y319165D01*
X685524Y319195D01*
X685829Y319244D01*
X686093Y319314D01*
X686316Y319405D01*
X686499Y319515D01*
X686641Y319645D01*
X686743Y319795D01*
X686804Y319965D01*
X686824Y320154D01*
Y316154D01*
D02*
G37*
G36*
X534390Y314149D02*
X534434Y313845D01*
X534506Y313544D01*
X534608Y313245D01*
X534739Y312949D01*
X534898Y312654D01*
X535087Y312362D01*
X535304Y312073D01*
X535550Y311785D01*
X535826Y311500D01*
X530926D01*
X531202Y311785D01*
X531448Y312073D01*
X531665Y312362D01*
X531854Y312654D01*
X532014Y312949D01*
X532144Y313245D01*
X532245Y313544D01*
X532318Y313845D01*
X532361Y314149D01*
X532376Y314454D01*
X534376D01*
X534390Y314149D01*
D02*
G37*
G36*
X601804Y308821D02*
X601519Y309096D01*
X601231Y309343D01*
X600941Y309560D01*
X600649Y309749D01*
X600354Y309908D01*
X600058Y310039D01*
X599759Y310140D01*
X599458Y310213D01*
X599155Y310256D01*
X598849Y310271D01*
Y312271D01*
X599155Y312285D01*
X599458Y312329D01*
X599759Y312401D01*
X600058Y312503D01*
X600354Y312633D01*
X600649Y312793D01*
X600941Y312981D01*
X601231Y313199D01*
X601519Y313445D01*
X601804Y313721D01*
Y308821D01*
D02*
G37*
G36*
X578566Y313445D02*
X578854Y313199D01*
X579144Y312981D01*
X579436Y312793D01*
X579730Y312633D01*
X580027Y312503D01*
X580326Y312401D01*
X580627Y312329D01*
X580930Y312285D01*
X581236Y312271D01*
Y310271D01*
X580930Y310256D01*
X580627Y310213D01*
X580326Y310140D01*
X580027Y310039D01*
X579730Y309908D01*
X579436Y309749D01*
X579144Y309560D01*
X578854Y309343D01*
X578566Y309096D01*
X578281Y308821D01*
Y313721D01*
X578566Y313445D01*
D02*
G37*
G36*
X718821Y304038D02*
X718913Y303078D01*
X718993Y302688D01*
X719097Y302358D01*
X719223Y302088D01*
X719373Y301878D01*
X719545Y301728D01*
X719741Y301638D01*
X719959Y301608D01*
X714309Y301577D01*
X714594Y301609D01*
X714849Y301701D01*
X715074Y301853D01*
X715269Y302066D01*
X715434Y302339D01*
X715569Y302672D01*
X715674Y303066D01*
X715749Y303519D01*
X715794Y304033D01*
X715809Y304608D01*
X718809D01*
X718821Y304038D01*
D02*
G37*
G36*
X626356Y302236D02*
X626617Y301977D01*
X626884Y301748D01*
X627157Y301549D01*
X627437Y301381D01*
X627723Y301244D01*
X628015Y301137D01*
X628314Y301061D01*
X628619Y301015D01*
X628929Y301000D01*
X628749Y299000D01*
X628450Y298986D01*
X628149Y298945D01*
X627847Y298878D01*
X627543Y298783D01*
X627237Y298661D01*
X626929Y298512D01*
X626619Y298336D01*
X626308Y298132D01*
X625995Y297902D01*
X625680Y297645D01*
X626101Y302526D01*
X626356Y302236D01*
D02*
G37*
G36*
X566966Y321116D02*
X566857Y320571D01*
Y301971D01*
X567044Y301034D01*
X567574Y300240D01*
X568368Y299710D01*
X569304Y299524D01*
X607904D01*
X608448Y299632D01*
X609478Y299026D01*
X609718Y298769D01*
Y296821D01*
X596195D01*
X594556Y296495D01*
X593167Y295566D01*
X589720Y292120D01*
X589001D01*
X587090Y291328D01*
X586964Y291202D01*
X565766D01*
X564127Y290876D01*
X563856Y290695D01*
X544414D01*
X544078Y291132D01*
X544450Y292519D01*
X540313Y296656D01*
X543141Y299484D01*
X547178Y295447D01*
X547767Y296868D01*
Y299271D01*
X546847Y301491D01*
X546102Y302236D01*
Y315913D01*
X549916Y319727D01*
X550903Y318917D01*
X550064Y317661D01*
X549738Y316023D01*
Y304457D01*
X549612Y304331D01*
X548820Y302420D01*
Y300351D01*
X549612Y298440D01*
X551074Y296977D01*
X552986Y296186D01*
X555054D01*
X556966Y296977D01*
X558428Y298440D01*
X559220Y300351D01*
Y302420D01*
X558428Y304331D01*
X558302Y304457D01*
Y314249D01*
X565795Y321742D01*
X566966Y321116D01*
D02*
G37*
G36*
X337000Y318600D02*
X336400Y318000D01*
X337575Y316825D01*
X316610Y295860D01*
X283840Y295860D01*
X297150Y309170D01*
Y328045D01*
X278042Y347154D01*
Y363182D01*
X292418D01*
X337000Y318600D01*
D02*
G37*
G36*
X486805Y295901D02*
X486687Y295867D01*
X486581Y295811D01*
X486488Y295735D01*
X486407Y295638D01*
X486338Y295520D01*
X486282Y295381D01*
X486239Y295221D01*
X486208Y295041D01*
X486189Y294839D01*
X486183Y294617D01*
X484183D01*
X484179Y294956D01*
X484116Y295807D01*
X484079Y296036D01*
X484033Y296237D01*
X483979Y296410D01*
X483916Y296556D01*
X483845Y296674D01*
X483766Y296765D01*
X486805Y295901D01*
D02*
G37*
G36*
X290650Y313450D02*
X267100Y289900D01*
X249000Y312000D01*
X250624Y313624D01*
X290650D01*
Y313450D01*
D02*
G37*
G36*
X678871Y287538D02*
X678821Y288013D01*
X678670Y288438D01*
X678418Y288813D01*
X678066Y289138D01*
X677613Y289413D01*
X677060Y289638D01*
X676406Y289813D01*
X675651Y289938D01*
X674796Y290013D01*
X673840Y290038D01*
Y295038D01*
X674796Y295063D01*
X675651Y295138D01*
X676406Y295263D01*
X677060Y295438D01*
X677613Y295663D01*
X678066Y295938D01*
X678418Y296263D01*
X678670Y296638D01*
X678821Y297063D01*
X678871Y297538D01*
Y287538D01*
D02*
G37*
G36*
X458800Y331700D02*
X476170D01*
X459803Y315333D01*
Y283686D01*
X449880Y293609D01*
X397544D01*
X411789Y331700D01*
X455782D01*
X458800Y334200D01*
Y331700D01*
D02*
G37*
G36*
X335661Y276581D02*
X335625Y277223D01*
X335518Y277722D01*
X335340Y278079D01*
X335090Y278293D01*
X334770Y278364D01*
X334377Y278293D01*
X333914Y278079D01*
X333379Y277722D01*
X332772Y277223D01*
X332095Y276581D01*
Y283652D01*
X332772Y284365D01*
X333379Y285076D01*
X333914Y285786D01*
X334377Y286495D01*
X334770Y287203D01*
X335090Y287909D01*
X335340Y288615D01*
X335518Y289319D01*
X335625Y290021D01*
X335661Y290723D01*
Y276581D01*
D02*
G37*
G36*
X404301Y342657D02*
X366852Y305208D01*
X365924Y303819D01*
X365598Y302180D01*
Y296100D01*
X361280D01*
Y274500D01*
X378480D01*
Y296100D01*
X374162D01*
Y300406D01*
X387446Y313690D01*
X387564Y313641D01*
X389633D01*
X391544Y314433D01*
X393007Y315896D01*
X393799Y317807D01*
Y319876D01*
X393750Y319994D01*
X405320Y331563D01*
X406590Y331037D01*
Y330666D01*
X407381Y328755D01*
X408441Y327695D01*
X397768Y299156D01*
X396378D01*
X394467Y298364D01*
X393004Y296902D01*
X392212Y294990D01*
Y292922D01*
X393004Y291010D01*
X394467Y289548D01*
X396378Y288756D01*
X398447D01*
X400358Y289548D01*
X401821Y291010D01*
X401900Y291203D01*
X448393D01*
X454187Y285409D01*
X453560Y284324D01*
X453103Y282619D01*
Y280855D01*
X453560Y279151D01*
X454442Y277624D01*
X455689Y276376D01*
X457217Y275494D01*
X458921Y275037D01*
X460685D01*
X462389Y275494D01*
X463917Y276376D01*
X465165Y277624D01*
X465320Y277893D01*
X466786D01*
X466942Y277624D01*
X468189Y276376D01*
X469717Y275494D01*
X471421Y275037D01*
X473185D01*
X474889Y275494D01*
X476417Y276376D01*
X477665Y277624D01*
X477820Y277893D01*
X479286D01*
X479442Y277624D01*
X480689Y276376D01*
X482217Y275494D01*
X483921Y275037D01*
X485685D01*
X486233Y275184D01*
X489098Y272319D01*
X488872Y271429D01*
X488611Y271049D01*
X332991D01*
X332738Y272319D01*
X332910Y272390D01*
X334180Y273660D01*
X349112D01*
X341086Y281686D01*
X343914Y284514D01*
X351940Y276488D01*
Y294111D01*
X343914Y286086D01*
X341086Y288914D01*
X349112Y296940D01*
X339813D01*
X339327Y298113D01*
X385141Y343927D01*
X403775D01*
X404301Y342657D01*
D02*
G37*
%LPC*%
G36*
X267943Y463000D02*
X264457D01*
X261037Y462320D01*
X257816Y460985D01*
X254917Y459049D01*
X252451Y456583D01*
X250515Y453684D01*
X249180Y450463D01*
X248500Y447043D01*
Y443557D01*
X249180Y440137D01*
X250515Y436916D01*
X252451Y434017D01*
X254917Y431552D01*
X257816Y429614D01*
X261037Y428280D01*
X264457Y427600D01*
X267943D01*
X271363Y428280D01*
X274584Y429614D01*
X277483Y431552D01*
X279949Y434017D01*
X281886Y436916D01*
X283220Y440137D01*
X283900Y443557D01*
Y447043D01*
X283220Y450463D01*
X281886Y453684D01*
X279949Y456583D01*
X277483Y459049D01*
X274584Y460985D01*
X271363Y462320D01*
X267943Y463000D01*
D02*
G37*
G36*
X288673Y406762D02*
X286270D01*
X284849Y406173D01*
X287472Y403550D01*
X290095Y406173D01*
X288673Y406762D01*
D02*
G37*
G36*
X282020Y403344D02*
X281432Y401923D01*
Y399520D01*
X282020Y398099D01*
X284643Y400722D01*
X282020Y403344D01*
D02*
G37*
G36*
X329584Y398084D02*
X326961Y395461D01*
X328382Y394872D01*
X330785D01*
X332207Y395461D01*
X329584Y398084D01*
D02*
G37*
G36*
X287472Y397893D02*
X284849Y395270D01*
X286270Y394682D01*
X288673D01*
X290095Y395270D01*
X287472Y397893D01*
D02*
G37*
G36*
X277142Y274229D02*
X274519Y271607D01*
X275941Y271018D01*
X278344D01*
X279765Y271607D01*
X277142Y274229D01*
D02*
G37*
G36*
X267943Y249400D02*
X264457D01*
X261037Y248720D01*
X257816Y247386D01*
X254917Y245448D01*
X252451Y242983D01*
X250515Y240084D01*
X249180Y236863D01*
X248500Y233443D01*
Y229957D01*
X249180Y226537D01*
X250515Y223316D01*
X252451Y220417D01*
X254917Y217952D01*
X257816Y216014D01*
X261037Y214680D01*
X264457Y214000D01*
X267943D01*
X271363Y214680D01*
X274584Y216014D01*
X277483Y217952D01*
X279949Y220417D01*
X281886Y223316D01*
X283220Y226537D01*
X283900Y229957D01*
Y233443D01*
X283220Y236863D01*
X281886Y240084D01*
X279949Y242983D01*
X277483Y245448D01*
X274584Y247386D01*
X271363Y248720D01*
X267943Y249400D01*
D02*
G37*
G36*
X424115Y370199D02*
X423526Y368777D01*
Y366375D01*
X424115Y364953D01*
X426738Y367576D01*
X424115Y370199D01*
D02*
G37*
G36*
X660221Y345683D02*
X657819D01*
X656397Y345094D01*
X659020Y342472D01*
X661643Y345094D01*
X660221Y345683D01*
D02*
G37*
G36*
X653569Y342266D02*
X652980Y340845D01*
Y338442D01*
X653569Y337020D01*
X656192Y339643D01*
X653569Y342266D01*
D02*
G37*
G36*
X659020Y336815D02*
X656397Y334192D01*
X657819Y333603D01*
X660221D01*
X661643Y334192D01*
X659020Y336815D01*
D02*
G37*
G36*
X498046Y285308D02*
X496561D01*
X497303Y284566D01*
X498046Y285308D01*
D02*
G37*
%LPD*%
D11*
X670634Y337433D02*
X671208Y338007D01*
X663600Y322472D02*
X670634Y329507D01*
X663600Y318155D02*
Y322472D01*
X670634Y329507D02*
Y337433D01*
D12*
X700400Y306000D02*
X707000Y312600D01*
X629639Y338434D02*
Y342364D01*
Y338434D02*
X645600Y322472D01*
X629557Y342445D02*
X629639Y342364D01*
X629557Y342445D02*
Y358857D01*
X646666Y375966D01*
X623400Y300300D02*
X623700Y300000D01*
X671700D01*
X635757Y354572D02*
X636139Y354189D01*
Y345747D02*
X654800Y327086D01*
X645600Y318155D02*
Y322472D01*
X636139Y345747D02*
Y354189D01*
X654800Y308823D02*
Y327086D01*
X650732Y375966D02*
X651295Y376530D01*
X646666Y375966D02*
X650732D01*
X671700Y300000D02*
X677700Y306000D01*
X700400D01*
X654800Y308823D02*
X657923Y305700D01*
X669277D01*
X681732Y318155D01*
X690700D01*
X575781Y311271D02*
X588604D01*
X604303D01*
X397412Y293956D02*
X449533D01*
X459803Y281737D02*
Y283686D01*
X449533Y293956D02*
X459803Y283686D01*
X518090Y290051D02*
Y298964D01*
X491273Y274037D02*
X502077D01*
X518090Y290051D01*
X517717Y299337D02*
X518090Y298964D01*
X556186Y361200D02*
X563404D01*
X547020Y370366D02*
Y388084D01*
Y370366D02*
X556186Y361200D01*
X552919Y354000D02*
X554000D01*
X540472Y366446D02*
Y388758D01*
Y366446D02*
X552919Y354000D01*
X442612Y388413D02*
X507389D01*
X538282Y419307D02*
X590945D01*
X507389Y388413D02*
X538282Y419307D01*
X446074Y384713D02*
X511994D01*
X542291Y415010D02*
X587643D01*
X511994Y384713D02*
X542291Y415010D01*
X546047Y410221D02*
X586330D01*
X514306Y378480D02*
X546047Y410221D01*
X448713Y378480D02*
X514306D01*
X547918Y404990D02*
X584680D01*
X530690Y387762D02*
X547918Y404990D01*
X530690Y355305D02*
Y387762D01*
X550928Y399214D02*
X581056D01*
X540472Y388758D02*
X550928Y399214D01*
X552246Y393310D02*
X559174D01*
X547020Y388084D02*
X552246Y393310D01*
X441886Y380525D02*
X446074Y384713D01*
X438186Y383987D02*
X442612Y388413D01*
X644786Y391800D02*
X658904D01*
X614033Y375637D02*
X628623D01*
X644786Y391800D01*
X644828Y398130D02*
X698870D01*
X626035Y379337D02*
X644828Y398130D01*
X617214Y379337D02*
X626035D01*
X616916Y385737D02*
X622953D01*
X587643Y415010D02*
X616916Y385737D01*
X586330Y410221D02*
X617214Y379337D01*
X584680Y404990D02*
X614033Y375637D01*
X658904Y391800D02*
X659035Y391930D01*
X698870Y398130D02*
X699000Y398000D01*
X622953Y385737D02*
X623153Y385537D01*
X554520Y384275D02*
X555745D01*
X559174Y393310D02*
X559470Y393014D01*
X581056Y399214D02*
X581480Y398790D01*
X555745Y384275D02*
X557889Y386418D01*
X567477D01*
X533376Y330680D02*
X541710Y339013D01*
X533376Y309000D02*
Y330680D01*
X472303Y281737D02*
X485183Y294617D01*
Y297164D01*
X486507Y298488D01*
X590945Y419307D02*
X610552Y399700D01*
X438186Y369057D02*
Y383987D01*
X441886Y375818D02*
Y380525D01*
X448683Y378510D02*
X448713Y378480D01*
X441886Y375818D02*
X448517Y369187D01*
X438186Y369057D02*
X438391Y368851D01*
X610552Y399700D02*
X623320D01*
X521910Y346525D02*
X530690Y355305D01*
X484803Y280507D02*
Y281737D01*
Y280507D02*
X491273Y274037D01*
D17*
X690500Y353400D02*
X690700Y353600D01*
Y358155D01*
X670302Y370595D02*
X672149D01*
X655463Y368149D02*
X657923Y370610D01*
X645600Y358155D02*
X655463Y368018D01*
X645600Y362473D02*
X647037Y363910D01*
X645600Y358155D02*
Y362473D01*
X655463Y368018D02*
Y368149D01*
X657923Y370610D02*
X670287D01*
X369880Y302180D02*
X408410Y340710D01*
X614000Y294500D02*
Y307300D01*
X621900Y315200D01*
Y360700D02*
X645430Y384230D01*
X621900Y315200D02*
Y360700D01*
X708700Y358155D02*
Y362473D01*
Y353837D02*
Y358155D01*
X590035Y286920D02*
X590576D01*
X565766D02*
X590035D01*
X599712Y327898D02*
X612628Y340814D01*
X690110Y378200D02*
X690110D01*
X707263Y363910D02*
X708700Y362473D01*
X690110Y378200D02*
X704400Y363910D01*
X685710Y382600D02*
X690110Y378200D01*
X704400Y363910D02*
X707263D01*
X598604Y364471D02*
X606104Y356971D01*
Y356397D02*
Y356971D01*
X565896Y327898D02*
X599712D01*
X665222Y278078D02*
X669736Y273564D01*
X622565Y278078D02*
X665222D01*
X671384Y282264D02*
X672384Y281264D01*
X614865Y281268D02*
X619375Y285778D01*
X666997D01*
X670511Y282264D02*
X671384D01*
X666997Y285778D02*
X670511Y282264D01*
X596195Y292538D02*
X685710D01*
X613736Y279756D02*
X614865Y280885D01*
X590576Y286920D02*
X596195Y292538D01*
X614865Y280885D02*
Y281268D01*
X564922Y279220D02*
X613741D01*
X700600Y285489D02*
Y299804D01*
X645430Y384230D02*
X671700D01*
X672164Y370610D02*
X682563D01*
X689263Y363910D01*
X672149Y370595D02*
X672164Y370610D01*
X670287D02*
X670302Y370595D01*
X689263Y359592D02*
Y363910D01*
Y359592D02*
X690700Y358155D01*
X700563Y345700D02*
X708700Y353837D01*
X663600D02*
X671737Y345700D01*
X700563D01*
X663600Y353837D02*
Y358155D01*
X688676Y273564D02*
X700600Y285489D01*
X672384Y281264D02*
X672925D01*
X669736Y273564D02*
X688676D01*
X685710Y382600D02*
Y384800D01*
X685140Y383170D02*
Y384230D01*
X290084Y290000D02*
X308660D01*
X277142Y277058D02*
X290084Y290000D01*
X267200Y313624D02*
X290650D01*
X251166D02*
X267200D01*
X267100Y313524D02*
X267200Y313624D01*
X267100Y289900D02*
Y313524D01*
X281012Y388066D02*
X405766D01*
X413000Y395300D01*
X316025Y363130D02*
Y365775D01*
X302547Y379253D02*
X316025Y365775D01*
X298020Y379253D02*
X302547D01*
X296907Y380366D02*
X298020Y379253D01*
X266943Y388066D02*
X281012D01*
X413000Y395300D02*
X417305Y399605D01*
X427281D01*
X413000Y355189D02*
Y395300D01*
X241878Y278806D02*
X268001D01*
X307195Y318000D01*
X671700Y384230D02*
X685140D01*
X329489Y277511D02*
X338069Y286090D01*
Y288284D01*
X369880Y285300D02*
Y302180D01*
X427281Y399605D02*
X480425D01*
X459803Y283686D02*
Y330697D01*
X555745Y384275D02*
X558227D01*
X554020Y301386D02*
Y316023D01*
X565896Y327898D01*
X249000Y312000D02*
X249541D01*
X251166Y313624D01*
X480425Y399605D02*
X483133Y402313D01*
X507948D01*
X508742Y401519D02*
X509128D01*
X507948Y402313D02*
X508742Y401519D01*
X278042Y347154D02*
Y363182D01*
Y347154D02*
X307195Y318000D01*
X563383Y279095D02*
X564797D01*
X563000Y278713D02*
X563383Y279095D01*
X541531Y286413D02*
X565259D01*
X564797Y279095D02*
X564922Y279220D01*
X565259Y286413D02*
X565766Y286920D01*
X578604Y364471D02*
X578604D01*
X558227Y384275D02*
X563783Y378718D01*
X564357D01*
X578604Y364471D01*
X487234Y340710D02*
X541531Y286413D01*
X408410Y340710D02*
X487234D01*
X541820Y298163D02*
Y317687D01*
X541727Y298070D02*
X541820Y298163D01*
Y317687D02*
X571104Y346971D01*
Y356971D01*
X578604Y364471D02*
X588604D01*
X571104Y356971D02*
X578604Y364471D01*
X477430Y323748D02*
X497303Y303874D01*
X477430Y323748D02*
Y324000D01*
X497303Y281737D02*
Y303874D01*
X508429Y299442D02*
Y307186D01*
X483915Y331700D02*
X508429Y307186D01*
X458800Y331700D02*
X483915D01*
X411789D02*
X458800D01*
X459803Y330697D01*
X588604Y364471D02*
X590103Y362972D01*
Y337922D02*
Y362972D01*
X588604Y364471D02*
X598604D01*
X659020Y339643D02*
X659212Y339835D01*
X413000Y355189D02*
X413057Y355132D01*
X336400Y318000D02*
X337600Y319200D01*
X307195Y318000D02*
X336400D01*
D25*
X364000Y364000D02*
D03*
X371000Y350000D02*
D03*
X364000Y308000D02*
D03*
X357000Y294000D02*
D03*
X294000Y448000D02*
D03*
Y420000D02*
D03*
X287000Y462000D02*
D03*
Y434000D02*
D03*
X280000Y420000D02*
D03*
X266000D02*
D03*
X252000D02*
D03*
X245000Y462000D02*
D03*
X238000Y448000D02*
D03*
X245000Y434000D02*
D03*
X238000Y420000D02*
D03*
X715309Y345439D02*
D03*
X690500Y353400D02*
D03*
X651295Y376530D02*
D03*
X612628Y340814D02*
D03*
X623400Y300300D02*
D03*
X635757Y354572D02*
D03*
X613741Y279220D02*
D03*
X700600Y299804D02*
D03*
X671208Y338007D02*
D03*
X672925Y281264D02*
D03*
X622565Y278078D02*
D03*
X671226Y370213D02*
D03*
X308660Y290000D02*
D03*
X277142Y277058D02*
D03*
X267100Y289900D02*
D03*
X308758Y277576D02*
D03*
X287472Y400722D02*
D03*
X329584Y400912D02*
D03*
X296907Y380366D02*
D03*
X329489Y277511D02*
D03*
X266943Y388066D02*
D03*
X241878Y278806D02*
D03*
X388599Y318841D02*
D03*
X397412Y293956D02*
D03*
X489879Y394613D02*
D03*
X590035Y286920D02*
D03*
X671700Y384230D02*
D03*
X659035Y391930D02*
D03*
X623153Y385537D02*
D03*
X554520Y384275D02*
D03*
X559470Y393014D02*
D03*
X563404Y361200D02*
D03*
X567477Y386418D02*
D03*
X563000Y278713D02*
D03*
X517717Y299337D02*
D03*
X541727Y298070D02*
D03*
X533376Y309000D02*
D03*
X477430Y324000D02*
D03*
X411789Y331700D02*
D03*
X486139Y299337D02*
D03*
X508429Y299442D02*
D03*
X509666Y401137D02*
D03*
X448683Y378510D02*
D03*
X448517Y369187D02*
D03*
X438391Y368851D02*
D03*
X590103Y337922D02*
D03*
X429566Y367576D02*
D03*
X623320Y399700D02*
D03*
X581480Y398790D02*
D03*
X521910Y346525D02*
D03*
X659020Y339643D02*
D03*
X413057Y355132D02*
D03*
X699000Y398000D02*
D03*
X554000Y354000D02*
D03*
X521910Y356000D02*
D03*
X541710Y339013D02*
D03*
X316025Y363130D02*
D03*
X290650Y313624D02*
D03*
X337600Y319200D02*
D03*
X249000Y312000D02*
D03*
X278042Y363182D02*
D03*
X427281Y399605D02*
D03*
X575781Y311271D02*
D03*
X604303D02*
D03*
X554020Y301386D02*
D03*
D59*
X717309Y296758D02*
Y380581D01*
X713090Y384800D02*
X717309Y380581D01*
X713090Y292538D02*
X717309Y296758D01*
X314156Y277556D02*
X383790Y347190D01*
X513100D01*
X308778Y277556D02*
X314156D01*
X308758Y277576D02*
X308778Y277556D01*
X287472Y400722D02*
X327021D01*
X329584Y400912D02*
Y402716D01*
X429566Y367576D02*
Y381506D01*
X489114Y393848D02*
X489879Y394613D01*
X486487Y393848D02*
X489114D01*
X486122Y393483D02*
X486487Y393848D01*
X429566Y381506D02*
X441543Y393483D01*
X486122D01*
X513100Y347190D02*
X521910Y356000D01*
D62*
X497303Y281737D02*
D03*
X459803D02*
D03*
X472303D02*
D03*
X484803D02*
D03*
D63*
X564700Y445300D02*
D03*
X266200Y231700D02*
D03*
Y445300D02*
D03*
X564700Y230700D02*
D03*
D64*
X663600Y358155D02*
D03*
X645600D02*
D03*
Y318155D02*
D03*
X663600D02*
D03*
X708700Y358155D02*
D03*
X690700D02*
D03*
Y318155D02*
D03*
X708700D02*
D03*
D65*
X685710Y292538D02*
D03*
X713090D02*
D03*
Y384800D02*
D03*
X685710D02*
D03*
X369880Y285300D02*
D03*
X342500D02*
D03*
D66*
X588604Y364471D02*
D03*
Y311271D02*
D03*
M02*
