G04*
G04 #@! TF.GenerationSoftware,Altium Limited,Altium Designer,21.6.1 (37)*
G04*
G04 Layer_Color=32896*
%FSLAX44Y44*%
%MOMM*%
G71*
G04*
G04 #@! TF.SameCoordinates,DF3A28F5-22A7-46A1-9FF1-EAD84145F058*
G04*
G04*
G04 #@! TF.FilePolarity,Positive*
G04*
G01*
G75*
%ADD10C,0.2000*%
%ADD12C,0.2540*%
%ADD13C,0.1270*%
%ADD14C,0.1500*%
%ADD68C,0.1524*%
%ADD69C,0.0100*%
%ADD70C,0.4000*%
%ADD71C,0.1800*%
%ADD72C,0.5000*%
D10*
X126040Y189470D02*
G03*
X126040Y189470I-1000J0D01*
G01*
X129073Y95390D02*
G03*
X129073Y95390I-1000J0D01*
G01*
X118811Y168967D02*
X125000D01*
Y158969D01*
X118811D01*
X125000Y164206D02*
X121191D01*
X117144Y168967D02*
Y158969D01*
Y163730D02*
X115716Y165159D01*
X114764Y165635D01*
X113336D01*
X112384Y165159D01*
X111908Y163730D01*
Y158969D01*
X104052Y164206D02*
X104528Y165159D01*
X105956Y165635D01*
X107385D01*
X108813Y165159D01*
X109289Y164206D01*
X108813Y163254D01*
X107861Y162778D01*
X105480Y162302D01*
X104528Y161826D01*
X104052Y160874D01*
Y160398D01*
X104528Y159445D01*
X105956Y158969D01*
X107385D01*
X108813Y159445D01*
X109289Y160398D01*
X96244Y165635D02*
Y158969D01*
Y164206D02*
X97196Y165159D01*
X98149Y165635D01*
X99577D01*
X100529Y165159D01*
X101481Y164206D01*
X101957Y162778D01*
Y161826D01*
X101481Y160398D01*
X100529Y159445D01*
X99577Y158969D01*
X98149D01*
X97196Y159445D01*
X96244Y160398D01*
X93578Y165635D02*
Y158969D01*
Y163730D02*
X92150Y165159D01*
X91198Y165635D01*
X89769D01*
X88817Y165159D01*
X88341Y163730D01*
Y158969D01*
X71202Y167539D02*
X72154Y168491D01*
X73583Y168967D01*
X75487D01*
X76915Y168491D01*
X77867Y167539D01*
Y166587D01*
X77391Y165635D01*
X76915Y165159D01*
X75963Y164682D01*
X73106Y163730D01*
X72154Y163254D01*
X71678Y162778D01*
X71202Y161826D01*
Y160398D01*
X72154Y159445D01*
X73583Y158969D01*
X75487D01*
X76915Y159445D01*
X77867Y160398D01*
X68964Y168967D02*
Y158969D01*
Y163730D02*
X67536Y165159D01*
X66584Y165635D01*
X65156D01*
X64204Y165159D01*
X63727Y163730D01*
Y158969D01*
X55396Y165635D02*
Y158969D01*
Y164206D02*
X56348Y165159D01*
X57300Y165635D01*
X58728D01*
X59681Y165159D01*
X60633Y164206D01*
X61109Y162778D01*
Y161826D01*
X60633Y160398D01*
X59681Y159445D01*
X58728Y158969D01*
X57300D01*
X56348Y159445D01*
X55396Y160398D01*
X47017Y165635D02*
Y158017D01*
X47493Y156589D01*
X47969Y156113D01*
X48921Y155637D01*
X50349D01*
X51301Y156113D01*
X47017Y164206D02*
X47969Y165159D01*
X48921Y165635D01*
X50349D01*
X51301Y165159D01*
X52254Y164206D01*
X52730Y162778D01*
Y161826D01*
X52254Y160398D01*
X51301Y159445D01*
X50349Y158969D01*
X48921D01*
X47969Y159445D01*
X47017Y160398D01*
X44351Y168967D02*
Y158969D01*
Y163730D02*
X42922Y165159D01*
X41970Y165635D01*
X40542D01*
X39590Y165159D01*
X39114Y163730D01*
Y158969D01*
X30782Y165635D02*
Y158969D01*
Y164206D02*
X31734Y165159D01*
X32687Y165635D01*
X34115D01*
X35067Y165159D01*
X36019Y164206D01*
X36495Y162778D01*
Y161826D01*
X36019Y160398D01*
X35067Y159445D01*
X34115Y158969D01*
X32687D01*
X31734Y159445D01*
X30782Y160398D01*
X28116Y162778D02*
X22403D01*
Y163730D01*
X22879Y164682D01*
X23355Y165159D01*
X24307Y165635D01*
X25736D01*
X26688Y165159D01*
X27640Y164206D01*
X28116Y162778D01*
Y161826D01*
X27640Y160398D01*
X26688Y159445D01*
X25736Y158969D01*
X24307D01*
X23355Y159445D01*
X22403Y160398D01*
X19308Y168967D02*
X18832Y168491D01*
X18356Y168967D01*
X18832Y169443D01*
X19308Y168967D01*
X18832Y165635D02*
Y158969D01*
X244116Y240998D02*
Y231000D01*
Y240998D02*
X239831D01*
X238403Y240522D01*
X237927Y240046D01*
X237450Y239093D01*
Y238141D01*
X237927Y237189D01*
X238403Y236713D01*
X239831Y236237D01*
X244116D01*
X240783D02*
X237450Y231000D01*
X227595D02*
X231404Y240998D01*
X235213Y231000D01*
X233785Y234333D02*
X229024D01*
X225263Y240998D02*
Y231000D01*
Y240998D02*
X218597Y231000D01*
Y240998D02*
Y231000D01*
X208695Y238617D02*
X209171Y239570D01*
X210123Y240522D01*
X211075Y240998D01*
X212979D01*
X213932Y240522D01*
X214884Y239570D01*
X215360Y238617D01*
X215836Y237189D01*
Y234809D01*
X215360Y233380D01*
X214884Y232428D01*
X213932Y231476D01*
X212979Y231000D01*
X211075D01*
X210123Y231476D01*
X209171Y232428D01*
X208695Y233380D01*
Y234809D01*
X211075D02*
X208695D01*
X200220Y240998D02*
X206409D01*
Y231000D01*
X200220D01*
X206409Y236237D02*
X202601D01*
X198554Y235285D02*
X189984D01*
X187033Y240998D02*
Y231000D01*
Y240998D02*
X180844D01*
X187033Y236237D02*
X183224D01*
X179701Y240998D02*
Y231000D01*
X177606Y240998D02*
Y231000D01*
Y240998D02*
X170941Y231000D01*
Y240998D02*
Y231000D01*
X168179Y240998D02*
Y231000D01*
Y240998D02*
X164847D01*
X163419Y240522D01*
X162467Y239570D01*
X161990Y238617D01*
X161514Y237189D01*
Y234809D01*
X161990Y233380D01*
X162467Y232428D01*
X163419Y231476D01*
X164847Y231000D01*
X168179D01*
X153088Y240998D02*
X159277D01*
Y231000D01*
X153088D01*
X159277Y236237D02*
X155468D01*
X151421Y240998D02*
Y231000D01*
Y240998D02*
X147136D01*
X145708Y240522D01*
X145232Y240046D01*
X144756Y239093D01*
Y238141D01*
X145232Y237189D01*
X145708Y236713D01*
X147136Y236237D01*
X151421D01*
X148089D02*
X144756Y231000D01*
X142518Y235285D02*
X133949D01*
X130997Y240998D02*
Y231000D01*
Y240998D02*
X124332Y231000D01*
Y240998D02*
Y231000D01*
X118714Y240998D02*
X119666Y240522D01*
X120618Y239570D01*
X121094Y238617D01*
X121571Y237189D01*
Y234809D01*
X121094Y233380D01*
X120618Y232428D01*
X119666Y231476D01*
X118714Y231000D01*
X116810D01*
X115857Y231476D01*
X114905Y232428D01*
X114429Y233380D01*
X113953Y234809D01*
Y237189D01*
X114429Y238617D01*
X114905Y239570D01*
X115857Y240522D01*
X116810Y240998D01*
X118714D01*
X111620D02*
Y231000D01*
Y240998D02*
X108288D01*
X106859Y240522D01*
X105907Y239570D01*
X105431Y238617D01*
X104955Y237189D01*
Y234809D01*
X105431Y233380D01*
X105907Y232428D01*
X106859Y231476D01*
X108288Y231000D01*
X111620D01*
X96528Y240998D02*
X102717D01*
Y231000D01*
X96528D01*
X102717Y236237D02*
X98909D01*
X87007Y240998D02*
X83198Y231000D01*
X79389Y240998D02*
X83198Y231000D01*
X78104Y239093D02*
X77151Y239570D01*
X75723Y240998D01*
Y231000D01*
X70296Y231952D02*
X70772Y231476D01*
X70296Y231000D01*
X69820Y231476D01*
X70296Y231952D01*
X64773Y240998D02*
X66201Y240522D01*
X67154Y239093D01*
X67630Y236713D01*
Y235285D01*
X67154Y232904D01*
X66201Y231476D01*
X64773Y231000D01*
X63821D01*
X62393Y231476D01*
X61441Y232904D01*
X60964Y235285D01*
Y236713D01*
X61441Y239093D01*
X62393Y240522D01*
X63821Y240998D01*
X64773D01*
X259668Y129999D02*
X265000Y126999D01*
X259668Y124000D01*
X252669Y129332D02*
X253002Y129999D01*
X253669Y130665D01*
X254336Y130998D01*
X255669D01*
X256335Y130665D01*
X257002Y129999D01*
X257335Y129332D01*
X257668Y128332D01*
Y126666D01*
X257335Y125666D01*
X257002Y125000D01*
X256335Y124333D01*
X255669Y124000D01*
X254336D01*
X253669Y124333D01*
X253002Y125000D01*
X252669Y125666D01*
Y126666D01*
X254336D02*
X252669D01*
X251070Y130998D02*
Y124000D01*
Y130998D02*
X246404Y124000D01*
Y130998D02*
Y124000D01*
X244471Y130998D02*
Y124000D01*
Y130998D02*
X242138D01*
X241138Y130665D01*
X240472Y129999D01*
X240139Y129332D01*
X239805Y128332D01*
Y126666D01*
X240139Y125666D01*
X240472Y125000D01*
X241138Y124333D01*
X242138Y124000D01*
X244471D01*
X196088Y158890D02*
Y153058D01*
X194922Y151892D01*
X192589D01*
X191423Y153058D01*
Y158890D01*
X184425D02*
X189090D01*
Y155391D01*
X186758Y156557D01*
X185591D01*
X184425Y155391D01*
Y153058D01*
X185591Y151892D01*
X187924D01*
X189090Y153058D01*
X185674Y116472D02*
Y110640D01*
X184508Y109474D01*
X182175D01*
X181009Y110640D01*
Y116472D01*
X175177Y109474D02*
Y116472D01*
X178676Y112973D01*
X174011D01*
X195580Y207912D02*
Y202080D01*
X194414Y200914D01*
X192081D01*
X190915Y202080D01*
Y207912D01*
X183917Y200914D02*
X188582D01*
X183917Y205579D01*
Y206745D01*
X185083Y207912D01*
X187416D01*
X188582Y206745D01*
X197358Y59576D02*
Y53744D01*
X196192Y52578D01*
X193859D01*
X192693Y53744D01*
Y59576D01*
X190360Y52578D02*
X188028D01*
X189194D01*
Y59576D01*
X190360Y58410D01*
X255534Y159165D02*
X254368Y160331D01*
Y162664D01*
X255534Y163830D01*
X256701D01*
X257867Y162664D01*
Y160331D01*
X259033Y159165D01*
X260200D01*
X261366Y160331D01*
Y162664D01*
X260200Y163830D01*
X254368Y156832D02*
X261366D01*
X259033Y154500D01*
X261366Y152167D01*
X254368D01*
Y149834D02*
X261366D01*
Y146336D01*
X260200Y145169D01*
X255534D01*
X254368Y146336D01*
Y149834D01*
X261366Y142837D02*
Y140504D01*
Y141671D01*
X254368D01*
X255534Y142837D01*
D12*
X125000Y274403D02*
G03*
X118597Y268000I0J-6403D01*
G01*
X125000Y280000D02*
G03*
X113000Y268000I0J-12000D01*
G01*
X125000Y285600D02*
G03*
X107400Y268000I0J-17600D01*
G01*
X68500Y74000D02*
G03*
X68500Y74000I-14000J0D01*
G01*
X264800D02*
G03*
X264800Y74000I-14000J0D01*
G01*
X292540Y152540D02*
G03*
X292540Y152540I-140000J0D01*
G01*
D13*
X130540Y142628D02*
X174540D01*
Y166628D01*
X130540D02*
X174540D01*
X130540Y142628D02*
Y166628D01*
X178372Y32190D02*
Y72190D01*
X127873Y32190D02*
Y72190D01*
D14*
X169520Y169587D02*
G03*
X169520Y169587I-750J0D01*
G01*
D68*
X164732Y114808D02*
G03*
X164732Y111252I2276J-1778D01*
G01*
Y114808D02*
G03*
X164732Y111252I2276J-1778D01*
G01*
D69*
X268450Y127970D02*
G03*
X268448Y127965I5J-5D01*
G01*
D70*
X272900Y180100D02*
X279330D01*
X272440Y124100D02*
Y131560D01*
Y124100D02*
X286230D01*
X272440Y180100D02*
X286221D01*
X272440Y143100D02*
Y180100D01*
D71*
X115200Y152398D02*
Y147733D01*
Y150399D02*
X114867Y151399D01*
X114200Y152065D01*
X113534Y152398D01*
X112534D01*
X111901Y150399D02*
X107901D01*
Y151065D01*
X108235Y151732D01*
X108568Y152065D01*
X109235Y152398D01*
X110234D01*
X110901Y152065D01*
X111567Y151399D01*
X111901Y150399D01*
Y149732D01*
X111567Y148733D01*
X110901Y148066D01*
X110234Y147733D01*
X109235D01*
X108568Y148066D01*
X107901Y148733D01*
X106402Y152398D02*
Y145400D01*
Y151399D02*
X105735Y152065D01*
X105069Y152398D01*
X104069D01*
X103403Y152065D01*
X102736Y151399D01*
X102403Y150399D01*
Y149732D01*
X102736Y148733D01*
X103403Y148066D01*
X104069Y147733D01*
X105069D01*
X105735Y148066D01*
X106402Y148733D01*
X99237Y152398D02*
X99903Y152065D01*
X100570Y151399D01*
X100903Y150399D01*
Y149732D01*
X100570Y148733D01*
X99903Y148066D01*
X99237Y147733D01*
X98237D01*
X97570Y148066D01*
X96904Y148733D01*
X96571Y149732D01*
Y150399D01*
X96904Y151399D01*
X97570Y152065D01*
X98237Y152398D01*
X99237D01*
X94704D02*
X95038Y152065D01*
X94704Y151732D01*
X94371Y152065D01*
X94704Y152398D01*
Y148399D02*
X95038Y148066D01*
X94704Y147733D01*
X94371Y148066D01*
X94704Y148399D01*
X83340Y152398D02*
Y147066D01*
X83673Y146066D01*
X84007Y145733D01*
X84673Y145400D01*
X85673D01*
X86340Y145733D01*
X83340Y151399D02*
X84007Y152065D01*
X84673Y152398D01*
X85673D01*
X86340Y152065D01*
X87006Y151399D01*
X87339Y150399D01*
Y149732D01*
X87006Y148733D01*
X86340Y148066D01*
X85673Y147733D01*
X84673D01*
X84007Y148066D01*
X83340Y148733D01*
X80807Y154731D02*
X80474Y154398D01*
X80141Y154731D01*
X80474Y155064D01*
X80807Y154731D01*
X80474Y152398D02*
Y147733D01*
X77908Y154731D02*
Y149066D01*
X77575Y148066D01*
X76908Y147733D01*
X76242D01*
X78908Y152398D02*
X76575D01*
X74909Y148399D02*
X75242Y148066D01*
X74909Y147733D01*
X74575Y148066D01*
X74909Y148399D01*
X72376Y154731D02*
X72042Y154398D01*
X71709Y154731D01*
X72042Y155064D01*
X72376Y154731D01*
X72042Y152398D02*
Y147733D01*
X68810Y152398D02*
X69476Y152065D01*
X70143Y151399D01*
X70476Y150399D01*
Y149732D01*
X70143Y148733D01*
X69476Y148066D01*
X68810Y147733D01*
X67810D01*
X67144Y148066D01*
X66477Y148733D01*
X66144Y149732D01*
Y150399D01*
X66477Y151399D01*
X67144Y152065D01*
X67810Y152398D01*
X68810D01*
X64611Y146733D02*
X59945Y154731D01*
X56146D02*
Y149399D01*
X56479Y148399D01*
X56812Y148066D01*
X57479Y147733D01*
X58145D01*
X58812Y148066D01*
X59145Y148399D01*
X59479Y149399D01*
Y150065D01*
X50014Y154731D02*
X54346D01*
Y147733D01*
X50014D01*
X54346Y151399D02*
X51680D01*
X43515Y147733D02*
X46181Y154731D01*
X48847Y147733D01*
X47848Y150065D02*
X44515D01*
X40549Y154731D02*
X40216Y154398D01*
X39883Y154731D01*
X40216Y155064D01*
X40549Y154731D01*
X40216Y152398D02*
Y146733D01*
X40549Y145733D01*
X41216Y145400D01*
X41882D01*
X36250Y154731D02*
Y147733D01*
X38583Y154731D02*
X33917D01*
X115200Y139347D02*
Y132348D01*
X113067Y139347D02*
X112734Y139014D01*
X112401Y139347D01*
X112734Y139680D01*
X113067Y139347D01*
X112734Y137014D02*
Y132348D01*
X111167Y137014D02*
Y132348D01*
Y135681D02*
X110168Y136681D01*
X109501Y137014D01*
X108501D01*
X107835Y136681D01*
X107502Y135681D01*
Y132348D01*
X105669Y139347D02*
Y132348D01*
X102336Y137014D02*
X105669Y133681D01*
X104336Y135014D02*
X102003Y132348D01*
X100570Y137014D02*
X100903Y136681D01*
X100570Y136348D01*
X100237Y136681D01*
X100570Y137014D01*
Y133015D02*
X100903Y132682D01*
X100570Y132348D01*
X100237Y132682D01*
X100570Y133015D01*
X93205Y139347D02*
Y132348D01*
Y136014D02*
X92538Y136681D01*
X91872Y137014D01*
X90872D01*
X90205Y136681D01*
X89539Y136014D01*
X89206Y135014D01*
Y134348D01*
X89539Y133348D01*
X90205Y132682D01*
X90872Y132348D01*
X91872D01*
X92538Y132682D01*
X93205Y133348D01*
X87039Y139347D02*
X86706Y139014D01*
X86373Y139347D01*
X86706Y139680D01*
X87039Y139347D01*
X86706Y137014D02*
Y132348D01*
X84140Y139347D02*
Y133681D01*
X83807Y132682D01*
X83140Y132348D01*
X82474D01*
X85140Y137014D02*
X82807D01*
X81141Y133015D02*
X81474Y132682D01*
X81141Y132348D01*
X80807Y132682D01*
X81141Y133015D01*
X79274Y139347D02*
Y132348D01*
X77475Y137014D02*
X75475Y132348D01*
X73476Y137014D02*
X75475Y132348D01*
X76142Y131015D01*
X76808Y130349D01*
X77475Y130015D01*
X77808D01*
X72309Y131349D02*
X67643Y139347D01*
X66510D02*
X62845D01*
X64844Y136681D01*
X63844D01*
X63178Y136348D01*
X62845Y136014D01*
X62511Y135014D01*
Y134348D01*
X62845Y133348D01*
X63511Y132682D01*
X64511Y132348D01*
X65511D01*
X66510Y132682D01*
X66844Y133015D01*
X67177Y133681D01*
X60945Y139347D02*
Y132348D01*
Y139347D02*
X58612D01*
X57612Y139014D01*
X56946Y138347D01*
X56613Y137681D01*
X56279Y136681D01*
Y135014D01*
X56613Y134015D01*
X56946Y133348D01*
X57612Y132682D01*
X58612Y132348D01*
X60945D01*
X54713Y139347D02*
Y132348D01*
Y139347D02*
X50381D01*
X54713Y136014D02*
X52047D01*
X49581Y139347D02*
X46915Y132348D01*
X44248Y139347D02*
X46915Y132348D01*
X43349Y139347D02*
X38683Y132348D01*
Y139347D02*
X43349Y132348D01*
X33784Y139347D02*
X37117Y134681D01*
X32118D01*
X33784Y139347D02*
Y132348D01*
X29218Y139347D02*
X30218Y139014D01*
X30551Y138347D01*
Y137681D01*
X30218Y137014D01*
X29551Y136681D01*
X28219Y136348D01*
X27219Y136014D01*
X26552Y135348D01*
X26219Y134681D01*
Y133681D01*
X26552Y133015D01*
X26885Y132682D01*
X27885Y132348D01*
X29218D01*
X30218Y132682D01*
X30551Y133015D01*
X30885Y133681D01*
Y134681D01*
X30551Y135348D01*
X29885Y136014D01*
X28885Y136348D01*
X27552Y136681D01*
X26885Y137014D01*
X26552Y137681D01*
Y138347D01*
X26885Y139014D01*
X27885Y139347D01*
X29218D01*
D72*
X179058Y265996D02*
Y246000D01*
Y265996D02*
X170488D01*
X167632Y265044D01*
X166680Y264091D01*
X165728Y262187D01*
Y260283D01*
X166680Y258378D01*
X167632Y257426D01*
X170488Y256474D01*
X179058D01*
X172393D02*
X165728Y246000D01*
X149826Y259331D02*
Y246000D01*
Y256474D02*
X151731Y258378D01*
X153635Y259331D01*
X156491D01*
X158396Y258378D01*
X160300Y256474D01*
X161252Y253617D01*
Y251713D01*
X160300Y248857D01*
X158396Y246952D01*
X156491Y246000D01*
X153635D01*
X151731Y246952D01*
X149826Y248857D01*
X144494Y265996D02*
Y246000D01*
Y265996D02*
X132116D01*
X144494Y256474D02*
X136877D01*
X127926Y265996D02*
X126974Y265044D01*
X126022Y265996D01*
X126974Y266948D01*
X127926Y265996D01*
X126974Y259331D02*
Y246000D01*
M02*
