G04*
G04 #@! TF.GenerationSoftware,Altium Limited,Altium Designer,21.4.1 (30)*
G04*
G04 Layer_Physical_Order=2*
G04 Layer_Color=16711680*
%FSLAX44Y44*%
%MOMM*%
G71*
G04*
G04 #@! TF.SameCoordinates,71B208AC-6886-4E4E-B560-908CB3F589EE*
G04*
G04*
G04 #@! TF.FilePolarity,Positive*
G04*
G01*
G75*
%ADD10C,0.2000*%
%ADD48C,2.6000*%
%ADD49C,0.7000*%
%ADD50R,0.5000X0.5000*%
%ADD51R,0.1000X0.1000*%
%ADD52R,0.5500X0.3000*%
%ADD53R,0.1000X0.1000*%
%ADD54R,0.3000X0.5500*%
%ADD55R,0.5588X1.3208*%
%ADD56R,1.0000X1.0000*%
%ADD57C,1.0000*%
%ADD58R,3.0000X2.1300*%
%ADD59R,0.6000X1.9700*%
G36*
X169040Y222470D02*
X167540Y220970D01*
X166040D01*
Y225970D01*
X169040D01*
Y222470D01*
D02*
G37*
G36*
X139040Y220970D02*
X137540D01*
X136040Y222470D01*
Y225970D01*
X139040D01*
Y220970D01*
D02*
G37*
G36*
X174040Y217970D02*
X169040D01*
Y219470D01*
X170540Y220970D01*
X174040D01*
Y217970D01*
D02*
G37*
G36*
X136040Y219470D02*
Y217970D01*
X131040D01*
Y220970D01*
X134540D01*
X136040Y219470D01*
D02*
G37*
G36*
X207065Y224294D02*
X207040Y224234D01*
Y222166D01*
X207211Y221753D01*
X205875Y219753D01*
X204401D01*
X203348Y219543D01*
X202455Y218947D01*
X202455Y218946D01*
X190731Y207223D01*
X175740D01*
Y210430D01*
X176580D01*
Y211860D01*
X176915Y211927D01*
X177809Y212523D01*
X180248Y214963D01*
X180917Y214686D01*
X183319D01*
X184741Y215275D01*
X180704Y219312D01*
X182118Y220726D01*
X180704Y222140D01*
X185732Y227168D01*
X185872Y227873D01*
X203485D01*
X207065Y224294D01*
D02*
G37*
G36*
X63838Y209717D02*
X57321Y203200D01*
X55465D01*
X53554Y202409D01*
X52091Y200946D01*
X51300Y199035D01*
Y196966D01*
X52091Y195055D01*
X53554Y193592D01*
X55465Y192800D01*
X57534D01*
X58641Y193258D01*
X59774Y191563D01*
X57227Y189016D01*
X57034Y189096D01*
X54966D01*
X53054Y188305D01*
X51592Y186842D01*
X50800Y184930D01*
Y182862D01*
X51592Y180951D01*
X53054Y179488D01*
X54966Y178696D01*
X55897D01*
X56725Y176696D01*
X46821Y166793D01*
X46225Y165900D01*
X46015Y164846D01*
Y130302D01*
X46225Y129249D01*
X46821Y128355D01*
X61713Y113463D01*
X61713Y113463D01*
X62607Y112867D01*
X63660Y112657D01*
X86651D01*
X87416Y110809D01*
X63370Y86763D01*
X61861Y87771D01*
X59033Y88943D01*
X56031Y89540D01*
X52970D01*
X49967Y88943D01*
X47139Y87771D01*
X44992Y86336D01*
X55915Y75414D01*
X54500Y74000D01*
X55915Y72586D01*
X44992Y61663D01*
X47139Y60229D01*
X49967Y59057D01*
X52970Y58460D01*
X56031D01*
X57314Y58715D01*
X59820D01*
X102755Y15780D01*
X101680Y14026D01*
X101465Y14096D01*
X90760Y18530D01*
X80437Y23790D01*
X70557Y29844D01*
X61184Y36655D01*
X52373Y44180D01*
X44180Y52373D01*
X36655Y61184D01*
X29844Y70557D01*
X23790Y80437D01*
X18530Y90760D01*
X14096Y101465D01*
X10515Y112485D01*
X7811Y123751D01*
X5998Y135196D01*
X5089Y146747D01*
X5089Y152540D01*
Y158333D01*
X5998Y169884D01*
X7810Y181328D01*
X10515Y192595D01*
X13766Y202600D01*
X15896Y202683D01*
X16166Y202032D01*
X17628Y200570D01*
X19540Y199778D01*
X21608D01*
X23520Y200570D01*
X24982Y202032D01*
X25774Y203944D01*
Y206012D01*
X25694Y206205D01*
X31206Y211717D01*
X63009D01*
X63838Y209717D01*
D02*
G37*
G36*
X174040Y187970D02*
X170540D01*
X169040Y189470D01*
Y190970D01*
X174040D01*
Y187970D01*
D02*
G37*
G36*
X136040Y189470D02*
X134540Y187970D01*
X131040D01*
Y190970D01*
X136040D01*
Y189470D01*
D02*
G37*
G36*
X169040Y186470D02*
Y182970D01*
X166040D01*
Y187970D01*
X167540D01*
X169040Y186470D01*
D02*
G37*
G36*
X139040Y182970D02*
X136040D01*
Y186470D01*
X137540Y187970D01*
X139040D01*
Y182970D01*
D02*
G37*
G36*
X283354Y131936D02*
X277229Y125810D01*
X281845D01*
X282847Y123810D01*
X282353Y123149D01*
X246758D01*
X244555Y125352D01*
X245230Y126982D01*
Y129050D01*
X245192Y129143D01*
X245687Y129888D01*
X246700Y130727D01*
X247351Y130597D01*
X274400D01*
Y128638D01*
X280526Y134764D01*
X283354Y131936D01*
D02*
G37*
G36*
X235614Y140328D02*
X235622Y140310D01*
X235673Y140259D01*
X236745Y139002D01*
X236464Y137705D01*
X236165Y137154D01*
X208823D01*
X207770Y136944D01*
X206876Y136348D01*
X206876Y136348D01*
X187036Y116507D01*
X186367Y116784D01*
X183965D01*
X182543Y116195D01*
X186580Y112158D01*
X183752Y109330D01*
X179585Y113497D01*
X174010D01*
X173643Y114215D01*
X173397Y115497D01*
X174588Y116688D01*
X175380Y118600D01*
Y120668D01*
X174699Y122311D01*
X175250Y123177D01*
X176044Y123894D01*
X177419Y123324D01*
X179488D01*
X181399Y124116D01*
X182862Y125578D01*
X183654Y127490D01*
Y129558D01*
X182862Y131470D01*
X181399Y132932D01*
X180525Y133294D01*
X179491Y133882D01*
X179525Y135709D01*
X179698Y136126D01*
Y138194D01*
X179618Y138387D01*
X181734Y140503D01*
X235465D01*
X235614Y140328D01*
D02*
G37*
G36*
X169884Y299082D02*
X181328Y297269D01*
X192595Y294565D01*
X203615Y290984D01*
X214320Y286550D01*
X224643Y281290D01*
X234523Y275236D01*
X243897Y268425D01*
X252707Y260900D01*
X260900Y252707D01*
X268425Y243897D01*
X275236Y234523D01*
X281290Y224643D01*
X286550Y214319D01*
X290984Y203615D01*
X294565Y192595D01*
X297269Y181329D01*
X299082Y169884D01*
X299991Y158333D01*
Y146747D01*
X299082Y135196D01*
X297269Y123751D01*
X294565Y112485D01*
X290984Y101465D01*
X286550Y90760D01*
X281290Y80437D01*
X275236Y70557D01*
X268425Y61184D01*
X260900Y52373D01*
X252707Y44180D01*
X243897Y36655D01*
X234523Y29844D01*
X224643Y23790D01*
X214319Y18530D01*
X203615Y14096D01*
X192595Y10515D01*
X181329Y7811D01*
X169884Y5998D01*
X164842Y5601D01*
X163881Y7469D01*
X164672Y9380D01*
Y11448D01*
X163881Y13360D01*
X163350Y13890D01*
X164172Y15890D01*
X164172D01*
Y37892D01*
X165822Y38779D01*
X167472Y37892D01*
Y15890D01*
X176872D01*
Y24679D01*
X188214D01*
X189268Y24889D01*
X190161Y25485D01*
X195240Y30565D01*
X195241Y30565D01*
X195837Y31458D01*
X196010Y32327D01*
X196240Y32422D01*
X197702Y33884D01*
X198494Y35796D01*
Y37864D01*
X197702Y39776D01*
X196240Y41238D01*
X194328Y42030D01*
X192260D01*
X190348Y41238D01*
X188886Y39776D01*
X188094Y37864D01*
Y35796D01*
X188886Y33884D01*
X189829Y32941D01*
X187074Y30185D01*
X176872D01*
Y38990D01*
X172658D01*
X170662Y39000D01*
X170662Y40990D01*
Y47209D01*
X172662Y48323D01*
X173718Y47886D01*
X175786D01*
X177698Y48678D01*
X179160Y50140D01*
X179240Y50333D01*
X203200D01*
X204254Y50543D01*
X205147Y51139D01*
X215306Y61299D01*
X215307Y61299D01*
X215903Y62193D01*
X216113Y63246D01*
Y85428D01*
X216306Y85508D01*
X217768Y86970D01*
X218560Y88882D01*
Y90950D01*
X217768Y92862D01*
X216306Y94324D01*
X214394Y95116D01*
X212326D01*
X210414Y94324D01*
X208952Y92862D01*
X208160Y90950D01*
Y88882D01*
X208952Y86970D01*
X210414Y85508D01*
X210607Y85428D01*
Y64386D01*
X202060Y55839D01*
X179240D01*
X179160Y56032D01*
X177698Y57494D01*
X175786Y58286D01*
X173718D01*
X172662Y57849D01*
X170662Y58963D01*
X170662Y65380D01*
X172658Y65390D01*
X176872D01*
Y67351D01*
X179200D01*
X182078Y64473D01*
X181998Y64280D01*
Y62212D01*
X182790Y60300D01*
X184252Y58838D01*
X186164Y58046D01*
X188232D01*
X190144Y58838D01*
X191606Y60300D01*
X192398Y62212D01*
Y64280D01*
X191606Y66192D01*
X190144Y67654D01*
X188232Y68446D01*
X186164D01*
X185971Y68366D01*
X182287Y72051D01*
X181394Y72647D01*
X180340Y72857D01*
X176872D01*
Y88490D01*
X167472D01*
X167472Y66488D01*
X165822Y65601D01*
X164172Y66488D01*
Y88490D01*
X161107D01*
X161050Y88561D01*
X160383Y90490D01*
X162090Y92197D01*
X162090Y92197D01*
X162655Y93042D01*
X166432D01*
Y98593D01*
X184934D01*
X185330Y97638D01*
X186792Y96176D01*
X188704Y95384D01*
X190772D01*
X192684Y96176D01*
X194146Y97638D01*
X194542Y98593D01*
X236016D01*
X241180Y93429D01*
X241100Y93236D01*
Y91168D01*
X241892Y89256D01*
X241960Y89188D01*
X241707Y86613D01*
X241292Y86336D01*
X250800Y76828D01*
X260308Y86336D01*
X258161Y87771D01*
X255333Y88943D01*
X252941Y89418D01*
X251500Y91168D01*
Y93236D01*
X250709Y95148D01*
X249246Y96610D01*
X247335Y97402D01*
X245266D01*
X245073Y97322D01*
X239103Y103293D01*
X238210Y103889D01*
X237156Y104099D01*
X193577D01*
X192684Y104992D01*
X191341Y105548D01*
X190980Y106155D01*
X190553Y107269D01*
X190478Y107784D01*
X191206Y109543D01*
Y111945D01*
X190929Y112614D01*
X209963Y131648D01*
X233741D01*
X235078Y129648D01*
X234830Y129050D01*
Y126982D01*
X235622Y125070D01*
X237084Y123608D01*
X238996Y122816D01*
X239305D01*
X243671Y118449D01*
X244564Y117853D01*
X245618Y117643D01*
X245618Y117643D01*
X284480D01*
X285534Y117853D01*
X286427Y118449D01*
X291761Y123783D01*
X292357Y124677D01*
X292567Y125730D01*
X292567Y125730D01*
Y180164D01*
X292567Y180164D01*
X292357Y181217D01*
X291761Y182110D01*
X291761Y182110D01*
X270071Y203800D01*
X270899Y205800D01*
X272034D01*
X273946Y206592D01*
X275408Y208054D01*
X276200Y209966D01*
Y212034D01*
X275408Y213946D01*
X273946Y215408D01*
X272034Y216200D01*
X269966D01*
X268054Y215408D01*
X267356Y214710D01*
X246952D01*
X221688Y239974D01*
X220795Y240570D01*
X219741Y240780D01*
X204435D01*
X203099Y242780D01*
X203320Y243314D01*
Y245382D01*
X202528Y247294D01*
X201066Y248756D01*
X199154Y249548D01*
X197086D01*
X196893Y249468D01*
X184573Y261789D01*
X183680Y262385D01*
X182626Y262595D01*
X151488D01*
X151408Y262788D01*
X149945Y264250D01*
X148034Y265042D01*
X145966D01*
X144054Y264250D01*
X142592Y262788D01*
X141800Y260876D01*
Y258808D01*
X142592Y256896D01*
X144054Y255434D01*
X145966Y254642D01*
X148034D01*
X149945Y255434D01*
X151408Y256896D01*
X151488Y257089D01*
X181486D01*
X193000Y245575D01*
X192920Y245382D01*
Y243314D01*
X193141Y242780D01*
X191805Y240780D01*
X139196D01*
X138143Y240570D01*
X137249Y239974D01*
X131280Y234004D01*
X130683Y233111D01*
X130473Y232057D01*
Y222591D01*
X130377Y222571D01*
X129814Y222196D01*
X129439Y221633D01*
X129307Y220970D01*
Y217970D01*
X127443Y217223D01*
X30066D01*
X30066Y217223D01*
X29012Y217013D01*
X28119Y216417D01*
X28119Y216416D01*
X21801Y210098D01*
X21608Y210178D01*
X19540D01*
X18863Y209898D01*
X17332Y211429D01*
X18530Y214320D01*
X23790Y224643D01*
X29844Y234523D01*
X36655Y243897D01*
X44180Y252707D01*
X52373Y260900D01*
X61184Y268425D01*
X70557Y275236D01*
X80437Y281290D01*
X90760Y286550D01*
X101465Y290984D01*
X112485Y294565D01*
X123751Y297269D01*
X135196Y299082D01*
X146747Y299991D01*
X158333D01*
X169884Y299082D01*
D02*
G37*
G36*
X154772Y36715D02*
Y15890D01*
X154772D01*
X155595Y13890D01*
X155064Y13360D01*
X154272Y11448D01*
Y9380D01*
X155064Y7468D01*
X155444Y7089D01*
X154615Y5089D01*
X146747D01*
X135196Y5998D01*
X123751Y7810D01*
X114719Y9979D01*
X114955Y11979D01*
X144272D01*
X145325Y12189D01*
X146219Y12785D01*
X148483Y15050D01*
X149484D01*
X145358Y19176D01*
X148187Y22004D01*
X152312Y17879D01*
Y37191D01*
X152772Y37605D01*
X154772Y36715D01*
D02*
G37*
%LPC*%
G36*
X187569Y223349D02*
X184946Y220726D01*
X187569Y218103D01*
X188158Y219525D01*
Y221927D01*
X187569Y223349D01*
D02*
G37*
G36*
X42164Y83508D02*
X40729Y81361D01*
X39557Y78533D01*
X38960Y75530D01*
Y72469D01*
X39557Y69467D01*
X40729Y66639D01*
X42164Y64492D01*
X51672Y74000D01*
X42164Y83508D01*
D02*
G37*
G36*
X263137D02*
X253629Y74000D01*
X263137Y64492D01*
X264571Y66639D01*
X265743Y69467D01*
X266340Y72469D01*
Y75530D01*
X265743Y78533D01*
X264571Y81361D01*
X263137Y83508D01*
D02*
G37*
G36*
X238463D02*
X237029Y81361D01*
X235857Y78533D01*
X235260Y75530D01*
Y72469D01*
X235857Y69467D01*
X237029Y66639D01*
X238463Y64492D01*
X247972Y74000D01*
X238463Y83508D01*
D02*
G37*
G36*
X250800Y71171D02*
X241292Y61663D01*
X243439Y60229D01*
X246267Y59057D01*
X249270Y58460D01*
X252331D01*
X255333Y59057D01*
X258161Y60229D01*
X260308Y61663D01*
X250800Y71171D01*
D02*
G37*
%LPD*%
D10*
X133226Y219784D02*
X133540Y219470D01*
X133226Y232057D02*
X139196Y238027D01*
X133226Y219784D02*
Y232057D01*
X112803Y162628D02*
X136540D01*
X102331Y173100D02*
X112803Y162628D01*
X124936Y176800D02*
X125136Y177000D01*
X102331Y160667D02*
X116370Y146628D01*
X94000Y183000D02*
X135070D01*
X125136Y177000D02*
X138171D01*
X135070Y183000D02*
X137540Y185470D01*
X96131Y166867D02*
X102331Y160667D01*
X96131Y177568D02*
X97863Y179300D01*
X110700D02*
X120000Y170000D01*
X90000Y179000D02*
X94000Y183000D01*
X97863Y179300D02*
X110700D01*
X96131Y166867D02*
Y177568D01*
X120000Y170000D02*
X137696D01*
X135890Y101600D02*
X141348D01*
X143142Y98806D02*
Y99806D01*
X141348Y101600D02*
X143142Y99806D01*
Y98806D02*
Y101346D01*
X152540Y154628D02*
X152540Y154628D01*
X152540D02*
X168540D01*
X152540Y154628D02*
Y162628D01*
X136540Y154628D02*
X152540D01*
X102331Y132000D02*
X103683D01*
X231000Y203895D02*
X248895D01*
X206213D02*
X231000D01*
Y198000D02*
Y203895D01*
X204401Y217000D02*
X232000D01*
X231000Y198000D02*
X231388Y197612D01*
X204625Y230626D02*
X212052Y223200D01*
X219741Y238027D02*
X245811Y211957D01*
X212052Y223200D02*
X212240D01*
X139196Y238027D02*
X219741D01*
X171290Y204470D02*
X191871D01*
X204401Y217000D01*
X245811Y211957D02*
X270043D01*
X248895Y203895D02*
X267878Y184912D01*
X162303Y234256D02*
X162374Y234327D01*
X137540Y228671D02*
X143125Y234256D01*
X162303D01*
X137540Y228671D02*
X137540D01*
X162374Y234327D02*
X211836D01*
X139045Y166116D02*
X152540Y179611D01*
Y185720D01*
X116370Y146628D02*
X136540D01*
X85630Y46196D02*
X104386Y27440D01*
X134072D01*
X211074Y187642D02*
X212414D01*
X204246Y194470D02*
X211074Y187642D01*
X56500Y198000D02*
Y198486D01*
X67484Y209470D01*
X133790D01*
X85630Y76228D02*
X91402Y82000D01*
X85630Y46196D02*
Y76228D01*
X91402Y82000D02*
X125000D01*
X144772Y78940D02*
Y86228D01*
X141338Y89662D02*
X144772Y86228D01*
X87630Y89662D02*
X141338D01*
X144772Y78940D02*
X146772Y76940D01*
X157948Y91948D02*
X160144Y94144D01*
X147052Y91948D02*
X157948D01*
X160144Y94144D02*
Y99552D01*
X161938Y101346D01*
X144936Y94064D02*
Y97012D01*
Y94064D02*
X147052Y91948D01*
X143142Y98806D02*
X144936Y97012D01*
X71120Y73152D02*
X87630Y89662D01*
X132072Y73660D02*
X134072Y75660D01*
X91830Y73660D02*
X132072D01*
X134072Y75660D02*
Y76940D01*
X161938Y128524D02*
X178454D01*
X270043Y211957D02*
X271000Y211000D01*
X218654Y207596D02*
X262382D01*
X289814Y125730D02*
Y180164D01*
X262382Y207596D02*
X289814Y180164D01*
X92470Y189470D02*
X133540D01*
X63667Y160667D02*
X92470Y189470D01*
X56500Y160667D02*
X63667D01*
X76574Y204470D02*
X133790D01*
X56000Y183896D02*
X76574Y204470D01*
X266446Y184912D02*
X267878D01*
X281940Y170850D01*
X161938Y128524D02*
Y135172D01*
X188976Y101346D02*
X237156D01*
X161938D02*
X188976D01*
X172172Y27432D02*
X188214D01*
X150368Y110744D02*
X185166D01*
X91244D02*
X150368D01*
X54500Y61468D02*
X60960D01*
X172172Y70104D02*
X180340D01*
X102331Y146333D02*
X109663Y139000D01*
X161938Y135172D02*
X168540Y141774D01*
Y146628D01*
X170653Y148740D01*
X173740D01*
Y161088D01*
X172201Y162628D02*
X173740Y161088D01*
X168540Y162628D02*
X172201D01*
X175862Y214470D02*
X182118Y220726D01*
X171290Y214470D02*
X175862D01*
X159472Y10414D02*
Y27440D01*
X83392Y199470D02*
X133790D01*
X48768Y164846D02*
X83392Y199470D01*
X48768Y130302D02*
Y164846D01*
Y130302D02*
X63660Y115410D01*
X165956D01*
X170180Y119634D01*
X258848Y181442D02*
X281940Y158350D01*
X179568Y181442D02*
X258848D01*
X171540Y189470D02*
X179568Y181442D01*
X71120Y63754D02*
Y73152D01*
X136540Y162628D02*
X139045Y166116D01*
X171290Y194470D02*
X204246D01*
X213360Y63246D02*
Y89916D01*
X203200Y53086D02*
X213360Y63246D01*
X174752Y53086D02*
X203200D01*
X161938Y124714D02*
Y128524D01*
X247351Y133350D02*
X281940D01*
X246300Y134401D02*
X247351Y133350D01*
X208823Y134401D02*
X246300D01*
X185166Y110744D02*
X208823Y134401D01*
X174498Y137160D02*
X180594Y143256D01*
X240030D01*
Y125984D02*
Y128016D01*
Y125984D02*
X245618Y120396D01*
X284480D01*
X289814Y125730D01*
X216154Y210096D02*
X218654Y207596D01*
X202730Y210096D02*
X216154D01*
X192104Y199470D02*
X202730Y210096D01*
X171290Y199470D02*
X192104D01*
X152540Y101346D02*
Y108572D01*
X150368Y110744D02*
X152540Y108572D01*
X54500Y74000D02*
X91244Y110744D01*
X182696Y230626D02*
X204625D01*
X171540Y219470D02*
X182696Y230626D01*
X250048Y177742D02*
X281940Y145850D01*
X175268Y177742D02*
X250048D01*
X167540Y185470D02*
X175268Y177742D01*
X160540Y162628D02*
Y166624D01*
X166382Y172466D01*
X242824D01*
X281940Y133350D01*
X147000Y259842D02*
X182626D01*
X198120Y244348D01*
X54500Y61468D02*
Y74000D01*
X60960Y61468D02*
X107696Y14732D01*
X144272D01*
X146772Y17232D01*
Y27440D01*
X172172Y70104D02*
Y76940D01*
X180340Y70104D02*
X187198Y63246D01*
X90000Y158664D02*
X102331Y146333D01*
X90000Y158664D02*
Y179000D01*
X237156Y101346D02*
X246300Y92202D01*
X193294Y32512D02*
Y36830D01*
X188214Y27432D02*
X193294Y32512D01*
X172172Y27432D02*
Y27440D01*
X188976Y101346D02*
X189738Y100584D01*
X211836Y234327D02*
X222389Y223774D01*
X137540Y223470D02*
Y228671D01*
X30066Y214470D02*
X133790D01*
X20574Y204978D02*
X30066Y214470D01*
X152540Y141540D02*
Y146628D01*
X150000Y139000D02*
X152540Y141540D01*
X109663Y139000D02*
X150000D01*
X137696Y170000D02*
X147540Y179844D01*
Y185720D01*
X160540Y139540D02*
Y146628D01*
X155018Y134018D02*
X160540Y139540D01*
X105702Y134018D02*
X155018D01*
X103683Y132000D02*
X105702Y134018D01*
X142540Y181369D02*
Y185720D01*
X138171Y177000D02*
X142540Y181369D01*
X86360Y192786D02*
X88044Y194470D01*
X133790D01*
Y209470D02*
X171290D01*
Y204470D02*
Y209470D01*
X146772Y45840D02*
X153122Y52190D01*
X146772Y27440D02*
Y45840D01*
X144540Y162628D02*
X152540D01*
X160540D01*
D48*
X250800Y74000D02*
D03*
X54500D02*
D03*
D49*
X273000Y84000D02*
D03*
X259000Y224000D02*
D03*
Y56000D02*
D03*
X238000Y42000D02*
D03*
X231000Y252000D02*
D03*
Y56000D02*
D03*
X224000Y42000D02*
D03*
X217000Y28000D02*
D03*
X203000D02*
D03*
X182000Y14000D02*
D03*
X140000Y266000D02*
D03*
X112000Y238000D02*
D03*
X119000Y224000D02*
D03*
X105000D02*
D03*
X77000Y252000D02*
D03*
X70000Y238000D02*
D03*
Y42000D02*
D03*
X35000Y196000D02*
D03*
X28000Y98000D02*
D03*
X35000Y84000D02*
D03*
X14000Y182000D02*
D03*
Y154000D02*
D03*
Y126000D02*
D03*
X21000Y112000D02*
D03*
X124936Y176800D02*
D03*
X102331Y173100D02*
D03*
X56500Y160667D02*
D03*
X102331Y132000D02*
D03*
X91830Y73660D02*
D03*
X213360Y89916D02*
D03*
X185166Y110744D02*
D03*
X71120Y63754D02*
D03*
X102331Y160667D02*
D03*
X125000Y82000D02*
D03*
X102331Y146333D02*
D03*
X271000Y211000D02*
D03*
X240030Y128016D02*
D03*
X174498Y137160D02*
D03*
X240030Y143256D02*
D03*
X198120Y244348D02*
D03*
X147000Y259842D02*
D03*
X231000Y198000D02*
D03*
X193294Y36830D02*
D03*
X222389Y223774D02*
D03*
X189738Y100584D02*
D03*
X246300Y92202D02*
D03*
X266446Y184912D02*
D03*
X135890Y101600D02*
D03*
X86360Y192786D02*
D03*
X206213Y203895D02*
D03*
X212240Y223200D02*
D03*
X174752Y53086D02*
D03*
X56000Y183896D02*
D03*
X170180Y119634D02*
D03*
X20574Y204978D02*
D03*
X56500Y198000D02*
D03*
X187198Y63246D02*
D03*
X182118Y220726D02*
D03*
X134072Y27440D02*
D03*
X159472Y10414D02*
D03*
X178454Y128524D02*
D03*
X232000Y217000D02*
D03*
X212414Y187642D02*
D03*
D50*
X168540Y154628D02*
D03*
Y146628D02*
D03*
X160540D02*
D03*
X152540D02*
D03*
X144540D02*
D03*
X136540D02*
D03*
Y154628D02*
D03*
Y162628D02*
D03*
X144540D02*
D03*
X152540D02*
D03*
X160540D02*
D03*
X168540D02*
D03*
D51*
X133540Y189470D02*
D03*
Y219470D02*
D03*
X171540D02*
D03*
Y189470D02*
D03*
D52*
X133790Y194470D02*
D03*
Y199470D02*
D03*
Y204470D02*
D03*
Y209470D02*
D03*
Y214470D02*
D03*
X171290D02*
D03*
Y209470D02*
D03*
Y204470D02*
D03*
Y199470D02*
D03*
Y194470D02*
D03*
D53*
X137540Y223470D02*
D03*
X167540D02*
D03*
Y185470D02*
D03*
X137540D02*
D03*
D54*
X142540Y223220D02*
D03*
X147540D02*
D03*
X152540D02*
D03*
X157540D02*
D03*
X162540D02*
D03*
Y185720D02*
D03*
X157540D02*
D03*
X152540D02*
D03*
X147540D02*
D03*
X142540D02*
D03*
D55*
X161938Y124714D02*
D03*
X143142D02*
D03*
Y101346D02*
D03*
X152540D02*
D03*
X161938D02*
D03*
D56*
X281940Y133350D02*
D03*
D57*
Y145850D02*
D03*
Y158350D02*
D03*
Y170850D02*
D03*
D58*
X153122Y52190D02*
D03*
D59*
X134072Y27440D02*
D03*
X146772D02*
D03*
X159472D02*
D03*
X172172D02*
D03*
Y76940D02*
D03*
X159472D02*
D03*
X146772D02*
D03*
X134072D02*
D03*
M02*
