G04*
G04 #@! TF.GenerationSoftware,Altium Limited,Altium Designer,21.6.1 (37)*
G04*
G04 Layer_Color=16711935*
%FSLAX44Y44*%
%MOMM*%
G71*
G04*
G04 #@! TF.SameCoordinates,DF3A28F5-22A7-46A1-9FF1-EAD84145F058*
G04*
G04*
G04 #@! TF.FilePolarity,Negative*
G04*
G01*
G75*
%ADD46C,2.4000*%
%ADD60R,0.7000X0.7000*%
%ADD61R,0.7500X0.5000*%
%ADD62R,0.5000X0.7500*%
%ADD63R,0.7588X1.5208*%
%ADD64R,1.2000X1.2000*%
%ADD65C,1.2000*%
%ADD66R,3.2000X2.3300*%
%ADD67R,0.8000X2.1700*%
G36*
X170040Y222470D02*
X167540Y219970D01*
X165040D01*
Y226970D01*
X170040D01*
Y222470D01*
D02*
G37*
G36*
X140040Y219970D02*
X137540D01*
X135040Y222470D01*
Y226970D01*
X140040D01*
Y219970D01*
D02*
G37*
G36*
X175040Y216970D02*
X168040D01*
Y219470D01*
X170540Y221970D01*
X175040D01*
Y216970D01*
D02*
G37*
G36*
X137040Y219470D02*
Y216970D01*
X130040D01*
Y221970D01*
X134540D01*
X137040Y219470D01*
D02*
G37*
G36*
X175040Y186970D02*
X170540D01*
X168040Y189470D01*
Y191970D01*
X175040D01*
Y186970D01*
D02*
G37*
G36*
X137040Y189470D02*
X134540Y186970D01*
X130040D01*
Y191970D01*
X137040D01*
Y189470D01*
D02*
G37*
G36*
X170040Y186470D02*
Y181970D01*
X165040D01*
Y188970D01*
X167540D01*
X170040Y186470D01*
D02*
G37*
G36*
X140040Y181970D02*
X135040D01*
Y186470D01*
X137540Y188970D01*
X140040D01*
Y181970D01*
D02*
G37*
G36*
X176122Y41690D02*
X128673D01*
Y62690D01*
X176122D01*
Y41690D01*
D02*
G37*
D46*
X250800Y74000D02*
D03*
X54500D02*
D03*
D60*
X168540Y154628D02*
D03*
Y146628D02*
D03*
X160540D02*
D03*
X152540D02*
D03*
X144540D02*
D03*
X136540D02*
D03*
Y154628D02*
D03*
Y162628D02*
D03*
X144540D02*
D03*
X152540D02*
D03*
X160540D02*
D03*
X168540D02*
D03*
D61*
X133790Y194470D02*
D03*
Y199470D02*
D03*
Y204470D02*
D03*
Y209470D02*
D03*
Y214470D02*
D03*
X171290D02*
D03*
Y209470D02*
D03*
Y204470D02*
D03*
Y199470D02*
D03*
Y194470D02*
D03*
D62*
X142540Y223220D02*
D03*
X147540D02*
D03*
X152540D02*
D03*
X157540D02*
D03*
X162540D02*
D03*
Y185720D02*
D03*
X157540D02*
D03*
X152540D02*
D03*
X147540D02*
D03*
X142540D02*
D03*
D63*
X161938Y124714D02*
D03*
X143142D02*
D03*
Y101346D02*
D03*
X152540D02*
D03*
X161938D02*
D03*
D64*
X281940Y133350D02*
D03*
D65*
Y145850D02*
D03*
Y158350D02*
D03*
Y170850D02*
D03*
D66*
X153122Y52190D02*
D03*
D67*
X134072Y27440D02*
D03*
X146772D02*
D03*
X159472D02*
D03*
X172172D02*
D03*
Y76940D02*
D03*
X159472D02*
D03*
X146772D02*
D03*
X134072D02*
D03*
M02*
