G04*
G04 #@! TF.GenerationSoftware,Altium Limited,Altium Designer,21.4.1 (30)*
G04*
G04 Layer_Color=32896*
%FSLAX44Y44*%
%MOMM*%
G71*
G04*
G04 #@! TF.SameCoordinates,B5D191E2-0800-4242-8A0F-E0629761C544*
G04*
G04*
G04 #@! TF.FilePolarity,Positive*
G04*
G01*
G75*
%ADD10C,0.2000*%
%ADD12C,0.2540*%
%ADD13C,0.1270*%
%ADD14C,0.1500*%
%ADD68C,0.1524*%
%ADD69C,0.0100*%
%ADD70C,0.4000*%
D10*
X126040Y189470D02*
G03*
X126040Y189470I-1000J0D01*
G01*
X129073Y95390D02*
G03*
X129073Y95390I-1000J0D01*
G01*
X196088Y158890D02*
Y153058D01*
X194922Y151892D01*
X192589D01*
X191423Y153058D01*
Y158890D01*
X184425D02*
X189090D01*
Y155391D01*
X186758Y156557D01*
X185591D01*
X184425Y155391D01*
Y153058D01*
X185591Y151892D01*
X187924D01*
X189090Y153058D01*
X185674Y116472D02*
Y110640D01*
X184508Y109474D01*
X182175D01*
X181009Y110640D01*
Y116472D01*
X175177Y109474D02*
Y116472D01*
X178676Y112973D01*
X174011D01*
X195580Y207912D02*
Y202080D01*
X194414Y200914D01*
X192081D01*
X190915Y202080D01*
Y207912D01*
X183917Y200914D02*
X188582D01*
X183917Y205579D01*
Y206745D01*
X185083Y207912D01*
X187416D01*
X188582Y206745D01*
X197358Y59576D02*
Y53744D01*
X196192Y52578D01*
X193859D01*
X192693Y53744D01*
Y59576D01*
X190360Y52578D02*
X188028D01*
X189194D01*
Y59576D01*
X190360Y58410D01*
X255534Y159165D02*
X254368Y160331D01*
Y162664D01*
X255534Y163830D01*
X256701D01*
X257867Y162664D01*
Y160331D01*
X259033Y159165D01*
X260200D01*
X261366Y160331D01*
Y162664D01*
X260200Y163830D01*
X254368Y156832D02*
X261366D01*
X259033Y154500D01*
X261366Y152167D01*
X254368D01*
Y149834D02*
X261366D01*
Y146336D01*
X260200Y145169D01*
X255534D01*
X254368Y146336D01*
Y149834D01*
X261366Y142837D02*
Y140504D01*
Y141671D01*
X254368D01*
X255534Y142837D01*
D12*
X68500Y74000D02*
G03*
X68500Y74000I-14000J0D01*
G01*
X264800D02*
G03*
X264800Y74000I-14000J0D01*
G01*
X292540Y152540D02*
G03*
X292540Y152540I-140000J0D01*
G01*
D13*
X130540Y142628D02*
X174540D01*
Y166628D01*
X130540D02*
X174540D01*
X130540Y142628D02*
Y166628D01*
X178372Y32190D02*
Y72190D01*
X127873Y32190D02*
Y72190D01*
D14*
X169520Y169587D02*
G03*
X169520Y169587I-750J0D01*
G01*
D68*
X164732Y114808D02*
G03*
X164732Y111252I2276J-1778D01*
G01*
Y114808D02*
G03*
X164732Y111252I2276J-1778D01*
G01*
D69*
X268450Y127970D02*
G03*
X268448Y127965I5J-5D01*
G01*
D70*
X272440Y124100D02*
X286230D01*
X272440Y180100D02*
X286221D01*
X272440Y143100D02*
Y180100D01*
M02*
