G04*
G04 #@! TF.GenerationSoftware,Altium Limited,Altium Designer,21.4.1 (30)*
G04*
G04 Layer_Color=32896*
%FSLAX44Y44*%
%MOMM*%
G71*
G04*
G04 #@! TF.SameCoordinates,B5D191E2-0800-4242-8A0F-E0629761C544*
G04*
G04*
G04 #@! TF.FilePolarity,Positive*
G04*
G01*
G75*
%ADD10C,0.2000*%
%ADD11C,0.0000*%
%ADD13C,0.1270*%
%ADD14C,0.1500*%
%ADD71C,0.1016*%
%ADD72C,0.0508*%
G36*
X236619Y211299D02*
X231614D01*
Y220801D01*
X236619D01*
Y211299D01*
D02*
G37*
G36*
X61619Y211299D02*
X56614D01*
Y220801D01*
X61619D01*
Y211299D01*
D02*
G37*
G36*
X248303Y211291D02*
X243309D01*
Y220801D01*
X248303D01*
Y211291D01*
D02*
G37*
G36*
X73303Y211291D02*
X68309D01*
Y220801D01*
X73303D01*
Y211291D01*
D02*
G37*
G36*
X236619Y193299D02*
X231614D01*
Y202801D01*
X236619D01*
Y193299D01*
D02*
G37*
G36*
X61619Y193299D02*
X56614D01*
Y202801D01*
X61619D01*
Y193299D01*
D02*
G37*
G36*
X248303Y193291D02*
X243309D01*
Y202801D01*
X248303D01*
Y193291D01*
D02*
G37*
G36*
X73303Y193291D02*
X68309D01*
Y202801D01*
X73303D01*
Y193291D01*
D02*
G37*
G36*
X219086Y170199D02*
X214081D01*
Y179701D01*
X219086D01*
Y170199D01*
D02*
G37*
G36*
X207391D02*
X202397D01*
Y179709D01*
X207391D01*
Y170199D01*
D02*
G37*
G36*
X219086Y155866D02*
X214081D01*
Y165368D01*
X219086D01*
Y155866D01*
D02*
G37*
G36*
X207391D02*
X202397D01*
Y165375D01*
X207391D01*
Y155866D01*
D02*
G37*
G36*
X207319Y141632D02*
X202314D01*
Y151134D01*
X207319D01*
Y141632D01*
D02*
G37*
G36*
X219003Y141625D02*
X214009D01*
Y151134D01*
X219003D01*
Y141625D01*
D02*
G37*
G36*
X266250Y135000D02*
X264250D01*
Y136500D01*
X266250D01*
Y135000D01*
D02*
G37*
G36*
X263125D02*
X263500D01*
Y134500D01*
X263000D01*
Y134625D01*
X262625D01*
Y138375D01*
X263125D01*
Y135000D01*
D02*
G37*
G36*
X189801Y131381D02*
X180299D01*
Y136386D01*
X189801D01*
Y131381D01*
D02*
G37*
G36*
X124801D02*
X115299D01*
Y136386D01*
X124801D01*
Y131381D01*
D02*
G37*
G36*
X266625Y131125D02*
X257625D01*
Y133375D01*
X266625D01*
Y131125D01*
D02*
G37*
G36*
X207319Y127299D02*
X202314D01*
Y136801D01*
X207319D01*
Y127299D01*
D02*
G37*
G36*
X219003Y127291D02*
X214009D01*
Y136801D01*
X219003D01*
Y127291D01*
D02*
G37*
G36*
X265500Y127250D02*
X263500D01*
Y130250D01*
X265500D01*
Y127250D01*
D02*
G37*
G36*
X252500Y133375D02*
X255625D01*
Y131125D01*
X252500D01*
Y126250D01*
X250500D01*
Y131125D01*
X250125D01*
Y133375D01*
X250500D01*
Y138250D01*
X252500D01*
Y133375D01*
D02*
G37*
G36*
X189801Y119697D02*
X180291D01*
Y124691D01*
X189801D01*
Y119697D01*
D02*
G37*
G36*
X124801D02*
X115291D01*
Y124691D01*
X124801D01*
Y119697D01*
D02*
G37*
G36*
X108716Y68859D02*
X103711D01*
Y78361D01*
X108716D01*
Y68859D01*
D02*
G37*
G36*
X97021D02*
X92027D01*
Y78369D01*
X97021D01*
Y68859D01*
D02*
G37*
D10*
X129073Y95390D02*
G03*
X129073Y95390I-1000J0D01*
G01*
D02*
G03*
X129073Y95390I-1000J0D01*
G01*
D11*
X167018Y116078D02*
G03*
X167018Y109982I0J-3048D01*
G01*
Y116078D02*
G03*
X167018Y109982I0J-3048D01*
G01*
Y116078D02*
G03*
X167018Y109982I0J-3048D01*
G01*
Y116078D02*
G03*
X167018Y109982I0J-3048D01*
G01*
X164478Y120904D02*
Y127000D01*
X159652D02*
X164478D01*
X159652Y120904D02*
Y127000D01*
Y120904D02*
X164478D01*
X145428D02*
Y127000D01*
X140602D02*
X145428D01*
X140602Y120904D02*
Y127000D01*
Y120904D02*
X145428D01*
X140602Y99060D02*
Y105156D01*
Y99060D02*
X145428D01*
Y105156D01*
X140602D02*
X145428D01*
X150000Y99060D02*
Y105156D01*
Y99060D02*
X155080D01*
Y105156D01*
X150000D02*
X155080D01*
X159652Y99060D02*
Y105156D01*
Y99060D02*
X164478D01*
Y105156D01*
X159652D02*
X164478D01*
X167018D02*
Y109982D01*
Y116078D01*
Y120904D01*
X145428D02*
X159652D01*
X138062Y105156D02*
Y120904D01*
X164478D02*
X167018D01*
X138062Y105156D02*
X140602D01*
X145428D02*
X150000D01*
X155080D02*
X159652D01*
X164478D02*
X167018D01*
X138062Y120904D02*
X140602D01*
X164478D02*
Y127000D01*
X159652D02*
X164478D01*
X159652Y120904D02*
Y127000D01*
Y120904D02*
X164478D01*
X145428D02*
Y127000D01*
X140602D02*
X145428D01*
X140602Y120904D02*
Y127000D01*
Y120904D02*
X145428D01*
X140602Y99060D02*
Y105156D01*
Y99060D02*
X145428D01*
Y105156D01*
X140602D02*
X145428D01*
X150000Y99060D02*
Y105156D01*
Y99060D02*
X155080D01*
Y105156D01*
X150000D02*
X155080D01*
X159652Y99060D02*
Y105156D01*
Y99060D02*
X164478D01*
Y105156D01*
X159652D02*
X164478D01*
X167018D02*
Y109982D01*
Y116078D01*
Y120904D01*
X145428D02*
X159652D01*
X138062Y105156D02*
Y120904D01*
X164478D02*
X167018D01*
X138062Y105156D02*
X140602D01*
X145428D02*
X150000D01*
X155080D02*
X159652D01*
X164478D02*
X167018D01*
X138062Y120904D02*
X140602D01*
D13*
X75230Y99400D02*
X107230D01*
Y83400D02*
Y99400D01*
X75230Y83400D02*
X107230D01*
X75230D02*
Y99400D01*
X107230D01*
Y83400D02*
Y99400D01*
X75230Y83400D02*
X107230D01*
X75230D02*
Y99400D01*
Y121900D02*
X107230D01*
Y105900D02*
Y121900D01*
X75230Y105900D02*
X107230D01*
X75230D02*
Y121900D01*
X107230D01*
Y105900D02*
Y121900D01*
X75230Y105900D02*
X107230D01*
X75230D02*
Y121900D01*
X135406Y113960D02*
X167406D01*
X135406Y126960D02*
X167406D01*
X135406Y113960D02*
X167406D01*
X135406Y126960D02*
X167406D01*
X231790Y104900D02*
Y122900D01*
X197790Y104900D02*
Y122900D01*
Y104900D02*
X231790D01*
X197790Y122900D02*
X231790D01*
Y104900D02*
Y122900D01*
X197790Y104900D02*
Y122900D01*
Y104900D02*
X231790D01*
X197790Y122900D02*
X231790D01*
Y82400D02*
Y100400D01*
X197790Y82400D02*
Y100400D01*
Y82400D02*
X231790D01*
X197790Y100400D02*
X231790D01*
Y82400D02*
Y100400D01*
X197790Y82400D02*
Y100400D01*
Y82400D02*
X231790D01*
X197790Y100400D02*
X231790D01*
X128123Y32190D02*
X178123D01*
X128123Y72190D02*
X178123D01*
Y32190D02*
Y72190D01*
X128123Y32190D02*
Y72190D01*
Y32190D02*
X178123D01*
X128123Y72190D02*
X178123D01*
Y32190D02*
Y72190D01*
X128123Y32190D02*
Y72190D01*
D14*
X125540Y17870D02*
Y52870D01*
X179540Y17870D02*
Y52870D01*
X125540Y17870D02*
Y52870D01*
X179540Y17870D02*
Y52870D01*
D71*
X265499Y135250D02*
G03*
X265499Y129250I262J-3000D01*
G01*
Y135250D02*
G03*
X265499Y129250I262J-3000D01*
G01*
X236440Y220320D02*
X243560D01*
X236440Y211810D02*
X243560D01*
X236440Y220320D02*
X243560D01*
X236440Y211810D02*
X243560D01*
X236440Y202320D02*
X243560D01*
X236440Y193810D02*
X243560D01*
X236440Y202320D02*
X243560D01*
X236440Y193810D02*
X243560D01*
X61440Y220320D02*
X68560D01*
X61440Y211810D02*
X68560D01*
X61440Y220320D02*
X68560D01*
X61440Y211810D02*
X68560D01*
X61440Y202320D02*
X68560D01*
X61440Y193810D02*
X68560D01*
X61440Y202320D02*
X68560D01*
X61440Y193810D02*
X68560D01*
X124320Y124440D02*
Y131560D01*
X115810Y124440D02*
Y131560D01*
X124320Y124440D02*
Y131560D01*
X115810Y124440D02*
Y131560D01*
X189319Y124440D02*
Y131560D01*
X180809Y124440D02*
Y131560D01*
X189319Y124440D02*
Y131560D01*
X180809Y124440D02*
Y131560D01*
X96770Y77850D02*
X103890D01*
X96770Y69340D02*
X103890D01*
X96770Y77850D02*
X103890D01*
X96770Y69340D02*
X103890D01*
X254000Y136250D02*
X261250D01*
X254000Y128250D02*
X261000D01*
X254000Y136250D02*
X261250D01*
X254000Y128250D02*
X261000D01*
X207140Y127810D02*
X214260D01*
X207140Y136320D02*
X214260D01*
X207140Y127810D02*
X214260D01*
X207140Y136320D02*
X214260D01*
X207140Y142143D02*
X214260D01*
X207140Y150653D02*
X214260D01*
X207140Y142143D02*
X214260D01*
X207140Y150653D02*
X214260D01*
X207140Y164857D02*
X214260D01*
X207140Y156347D02*
X214260D01*
X207140Y164857D02*
X214260D01*
X207140Y156347D02*
X214260D01*
X207140Y179190D02*
X214260D01*
X207140Y170680D02*
X214260D01*
X207140Y179190D02*
X214260D01*
X207140Y170680D02*
X214260D01*
D72*
X249250Y129500D02*
G03*
X249250Y135000I0J2750D01*
G01*
X264500Y135750D02*
G03*
X264500Y135750I-750J0D01*
G01*
X249250Y129500D02*
G03*
X249250Y135000I0J2750D01*
G01*
X264500Y135750D02*
G03*
X264500Y135750I-750J0D01*
G01*
M02*
