G04*
G04 #@! TF.GenerationSoftware,Altium Limited,Altium Designer,21.4.1 (30)*
G04*
G04 Layer_Color=65535*
%FSLAX44Y44*%
%MOMM*%
G71*
G04*
G04 #@! TF.SameCoordinates,4EB0A57A-0331-4043-81DB-767BF70387EF*
G04*
G04*
G04 #@! TF.FilePolarity,Positive*
G04*
G01*
G75*
%ADD10C,0.5000*%
%ADD11C,0.0000*%
%ADD12C,0.1270*%
%ADD13C,0.2000*%
%ADD14C,0.1524*%
%ADD15C,0.1500*%
%ADD16C,0.2500*%
D10*
X826400Y1269092D02*
G03*
X826400Y1269092I-27000J0D01*
G01*
Y761258D02*
G03*
X826400Y761258I-27000J0D01*
G01*
X1473300Y1269092D02*
G03*
X1473300Y1269092I-27000J0D01*
G01*
Y761258D02*
G03*
X1473300Y761258I-27000J0D01*
G01*
X797900Y734300D02*
X1447500D01*
X1473300Y761258D02*
Y1269092D01*
X798400Y1296000D02*
X1447500D01*
X772400Y759700D02*
Y1270200D01*
D11*
X1159240Y842458D02*
G03*
X1159240Y842458I-1000J0D01*
G01*
X1159267Y934490D02*
G03*
X1159267Y934490I-1000J0D01*
G01*
Y1026490D02*
G03*
X1159267Y1026490I-1000J0D01*
G01*
Y1210490D02*
G03*
X1159267Y1210490I-1000J0D01*
G01*
Y1118191D02*
G03*
X1159267Y1118191I-1000J0D01*
G01*
X927933Y817010D02*
G03*
X927933Y817010I-1000J0D01*
G01*
Y909309D02*
G03*
X927933Y909309I-1000J0D01*
G01*
Y1001010D02*
G03*
X927933Y1001010I-1000J0D01*
G01*
Y1093010D02*
G03*
X927933Y1093010I-1000J0D01*
G01*
X927960Y1185342D02*
G03*
X927960Y1185342I-1000J0D01*
G01*
X1372472Y1264300D02*
G03*
X1372472Y1264300I-1270J0D01*
G01*
D12*
X1376052Y1231230D02*
G03*
X1376052Y1231230I-1270J0D01*
G01*
X1152140Y873360D02*
X1155140D01*
X1152140Y882360D02*
X1155140D01*
X1152167Y1241393D02*
X1155167D01*
X1152167Y1250392D02*
X1155167D01*
X1152167Y965393D02*
X1155167D01*
X1152167Y974392D02*
X1155167D01*
X1152167Y1149093D02*
X1155167D01*
X1152167Y1158093D02*
X1155167D01*
X1152167Y1057393D02*
X1155167D01*
X1152167Y1066393D02*
X1155167D01*
X1119040Y852460D02*
Y855460D01*
X1128040Y852460D02*
Y855460D01*
X1119067Y1128193D02*
Y1131193D01*
X1128067Y1128193D02*
Y1131193D01*
X1119067Y1220492D02*
Y1223492D01*
X1128067Y1220492D02*
Y1223492D01*
X1119067Y944492D02*
Y947493D01*
X1128067Y944492D02*
Y947493D01*
X1119067Y1036492D02*
Y1039492D01*
X1128067Y1036492D02*
Y1039492D01*
X1293668Y826769D02*
Y847769D01*
X1271168D02*
X1293668D01*
X1156168Y827269D02*
Y848269D01*
X1178668D01*
X1155668Y758769D02*
Y768269D01*
X1294168Y758769D02*
X1294668Y759269D01*
Y768269D01*
X1155668Y758769D02*
X1294168D01*
X1382400Y1113800D02*
Y1116800D01*
X1373400Y1113800D02*
Y1116800D01*
X1420900Y1221135D02*
Y1224135D01*
X1411900Y1221135D02*
Y1224135D01*
X1407000Y1221170D02*
Y1224170D01*
X1398000Y1221170D02*
Y1224170D01*
X957133Y804007D02*
Y807008D01*
X966133Y804007D02*
Y807008D01*
X930033Y777107D02*
X933033D01*
X930033Y786107D02*
X933033D01*
X957133Y896307D02*
Y899307D01*
X966133Y896307D02*
Y899307D01*
X930033Y869407D02*
X933033D01*
X930033Y878407D02*
X933033D01*
X957133Y988008D02*
Y991008D01*
X966133Y988008D02*
Y991008D01*
X930033Y961107D02*
X933033D01*
X930033Y970107D02*
X933033D01*
X957133Y1080007D02*
Y1083008D01*
X966133Y1080007D02*
Y1083008D01*
X930033Y1053108D02*
X933033D01*
X930033Y1062107D02*
X933033D01*
X957160Y1172340D02*
Y1175340D01*
X966160Y1172340D02*
Y1175340D01*
X930060Y1145440D02*
X933060D01*
X930060Y1154440D02*
X933060D01*
X1310000Y1049400D02*
Y1052400D01*
X1301000Y1049400D02*
Y1052400D01*
X1297500Y1168650D02*
Y1171650D01*
X1288500Y1168650D02*
Y1171650D01*
X1311000Y1168650D02*
Y1171650D01*
X1302000Y1168650D02*
Y1171650D01*
X1339203Y1101200D02*
X1369202D01*
X1339203Y1131200D02*
X1369202D01*
X1322100Y1114532D02*
Y1117532D01*
X1313100Y1114532D02*
Y1117532D01*
X1325200Y1042800D02*
X1328200D01*
X1325200Y1051800D02*
X1328200D01*
X1365305Y1073010D02*
X1372505D01*
X1365305Y1091010D02*
X1372505D01*
X1365305Y1046340D02*
X1372505D01*
X1365305Y1064340D02*
X1372505D01*
X1183065Y797334D02*
Y811534D01*
X1200715D01*
X1265565Y797234D02*
Y811534D01*
X1247915D02*
X1265565D01*
X1193915Y771033D02*
X1254815D01*
X1319570Y919220D02*
Y922220D01*
X1328570Y919220D02*
Y922220D01*
X1373260Y820830D02*
Y860830D01*
X1322760Y820830D02*
Y860830D01*
D13*
X1175668Y856769D02*
G03*
X1175668Y856769I-1000J0D01*
G01*
X1372982Y1102230D02*
G03*
X1372982Y1102230I-1000J0D01*
G01*
X1207315Y828034D02*
G03*
X1207315Y828034I-1000J0D01*
G01*
X1323960Y797630D02*
G03*
X1323960Y797630I-1000J0D01*
G01*
X1332350Y791878D02*
Y793878D01*
X1325850Y791878D02*
Y793878D01*
X1378203Y1222800D02*
X1384202D01*
Y1216800D02*
Y1222800D01*
Y1162800D02*
Y1168800D01*
X1378203Y1162800D02*
X1384202D01*
X1324203Y1222800D02*
X1330202D01*
X1324203Y1216800D02*
Y1222800D01*
Y1162800D02*
Y1168800D01*
Y1162800D02*
X1330202D01*
X1387070Y920220D02*
Y924220D01*
X1380070Y920220D02*
Y924220D01*
X1382400Y1252435D02*
Y1256435D01*
X1389400Y1252435D02*
Y1256435D01*
X1413400Y1252435D02*
Y1256435D01*
X1420400Y1252435D02*
Y1256435D01*
X1309000Y990800D02*
Y994800D01*
X1302000Y990800D02*
Y994800D01*
X1309000Y1020800D02*
Y1024800D01*
X1302000Y1020800D02*
Y1024800D01*
X1305750Y1079950D02*
X1309125Y1083325D01*
X1302500Y1083200D02*
X1305750Y1079950D01*
X1301250Y1067200D02*
X1309500D01*
X1300700Y1114032D02*
Y1118032D01*
X1307700Y1114032D02*
Y1118032D01*
X1327200Y1114032D02*
Y1118032D01*
X1334200Y1114032D02*
Y1118032D01*
X1318350Y791878D02*
Y793878D01*
X1311850Y791878D02*
Y793878D01*
X1368403Y920220D02*
Y924220D01*
X1361403Y920220D02*
Y924220D01*
X1382070Y862430D02*
Y866430D01*
X1389070Y862430D02*
Y866430D01*
X1107974Y847029D02*
X1106642Y845696D01*
Y843030D01*
X1107974Y841697D01*
X1113306D01*
X1114639Y843030D01*
Y845696D01*
X1113306Y847029D01*
Y849695D02*
X1114639Y851028D01*
Y853693D01*
X1113306Y855026D01*
X1107974D01*
X1106642Y853693D01*
Y851028D01*
X1107974Y849695D01*
X1109307D01*
X1110640Y851028D01*
Y855026D01*
X1114639Y857692D02*
X1113306D01*
Y859025D01*
X1114639D01*
Y857692D01*
Y864357D02*
Y867022D01*
Y865690D01*
X1106642D01*
X1107974Y864357D01*
X1108001Y936396D02*
X1106668Y935063D01*
Y932397D01*
X1108001Y931064D01*
X1113333D01*
X1114666Y932397D01*
Y935063D01*
X1113333Y936396D01*
Y939062D02*
X1114666Y940394D01*
Y943060D01*
X1113333Y944393D01*
X1108001D01*
X1106668Y943060D01*
Y940394D01*
X1108001Y939062D01*
X1109334D01*
X1110667Y940394D01*
Y944393D01*
X1114666Y947059D02*
X1113333D01*
Y948392D01*
X1114666D01*
Y947059D01*
Y959055D02*
Y953723D01*
X1109334Y959055D01*
X1108001D01*
X1106668Y957722D01*
Y955056D01*
X1108001Y953723D01*
Y1028396D02*
X1106668Y1027063D01*
Y1024397D01*
X1108001Y1023064D01*
X1113333D01*
X1114666Y1024397D01*
Y1027063D01*
X1113333Y1028396D01*
Y1031061D02*
X1114666Y1032394D01*
Y1035060D01*
X1113333Y1036393D01*
X1108001D01*
X1106668Y1035060D01*
Y1032394D01*
X1108001Y1031061D01*
X1109334D01*
X1110667Y1032394D01*
Y1036393D01*
X1114666Y1039059D02*
X1113333D01*
Y1040392D01*
X1114666D01*
Y1039059D01*
X1108001Y1045723D02*
X1106668Y1047056D01*
Y1049722D01*
X1108001Y1051055D01*
X1109334D01*
X1110667Y1049722D01*
Y1048389D01*
Y1049722D01*
X1112000Y1051055D01*
X1113333D01*
X1114666Y1049722D01*
Y1047056D01*
X1113333Y1045723D01*
X1108001Y1120096D02*
X1106668Y1118763D01*
Y1116098D01*
X1108001Y1114765D01*
X1113333D01*
X1114666Y1116098D01*
Y1118763D01*
X1113333Y1120096D01*
Y1122762D02*
X1114666Y1124095D01*
Y1126761D01*
X1113333Y1128094D01*
X1108001D01*
X1106668Y1126761D01*
Y1124095D01*
X1108001Y1122762D01*
X1109334D01*
X1110667Y1124095D01*
Y1128094D01*
X1114666Y1130760D02*
X1113333D01*
Y1132092D01*
X1114666D01*
Y1130760D01*
Y1141423D02*
X1106668D01*
X1110667Y1137424D01*
Y1142756D01*
X1108001Y1212396D02*
X1106668Y1211063D01*
Y1208397D01*
X1108001Y1207064D01*
X1113333D01*
X1114666Y1208397D01*
Y1211063D01*
X1113333Y1212396D01*
Y1215061D02*
X1114666Y1216394D01*
Y1219060D01*
X1113333Y1220393D01*
X1108001D01*
X1106668Y1219060D01*
Y1216394D01*
X1108001Y1215061D01*
X1109334D01*
X1110667Y1216394D01*
Y1220393D01*
X1114666Y1223059D02*
X1113333D01*
Y1224392D01*
X1114666D01*
Y1223059D01*
X1106668Y1235055D02*
Y1229723D01*
X1110667D01*
X1109334Y1232389D01*
Y1233722D01*
X1110667Y1235055D01*
X1113333D01*
X1114666Y1233722D01*
Y1231056D01*
X1113333Y1229723D01*
X977199Y815104D02*
X978532Y816437D01*
Y819103D01*
X977199Y820436D01*
X971867D01*
X970534Y819103D01*
Y816437D01*
X971867Y815104D01*
Y812439D02*
X970534Y811106D01*
Y808440D01*
X971867Y807107D01*
X977199D01*
X978532Y808440D01*
Y811106D01*
X977199Y812439D01*
X975866D01*
X974533Y811106D01*
Y807107D01*
X970534Y804441D02*
X971867D01*
Y803108D01*
X970534D01*
Y804441D01*
X978532Y792445D02*
X977199Y795111D01*
X974533Y797776D01*
X971867D01*
X970534Y796444D01*
Y793778D01*
X971867Y792445D01*
X973200D01*
X974533Y793778D01*
Y797776D01*
X977199Y907404D02*
X978532Y908737D01*
Y911402D01*
X977199Y912735D01*
X971867D01*
X970534Y911402D01*
Y908737D01*
X971867Y907404D01*
Y904738D02*
X970534Y903405D01*
Y900739D01*
X971867Y899406D01*
X977199D01*
X978532Y900739D01*
Y903405D01*
X977199Y904738D01*
X975866D01*
X974533Y903405D01*
Y899406D01*
X970534Y896740D02*
X971867D01*
Y895408D01*
X970534D01*
Y896740D01*
X978532Y890076D02*
Y884744D01*
X977199D01*
X971867Y890076D01*
X970534D01*
X977199Y999104D02*
X978532Y1000437D01*
Y1003103D01*
X977199Y1004436D01*
X971867D01*
X970534Y1003103D01*
Y1000437D01*
X971867Y999104D01*
Y996439D02*
X970534Y995106D01*
Y992440D01*
X971867Y991107D01*
X977199D01*
X978532Y992440D01*
Y995106D01*
X977199Y996439D01*
X975866D01*
X974533Y995106D01*
Y991107D01*
X970534Y988441D02*
X971867D01*
Y987108D01*
X970534D01*
Y988441D01*
X977199Y981777D02*
X978532Y980444D01*
Y977778D01*
X977199Y976445D01*
X975866D01*
X974533Y977778D01*
X973200Y976445D01*
X971867D01*
X970534Y977778D01*
Y980444D01*
X971867Y981777D01*
X973200D01*
X974533Y980444D01*
X975866Y981777D01*
X977199D01*
X974533Y980444D02*
Y977778D01*
X977199Y1091104D02*
X978532Y1092437D01*
Y1095103D01*
X977199Y1096436D01*
X971867D01*
X970534Y1095103D01*
Y1092437D01*
X971867Y1091104D01*
Y1088438D02*
X970534Y1087106D01*
Y1084440D01*
X971867Y1083107D01*
X977199D01*
X978532Y1084440D01*
Y1087106D01*
X977199Y1088438D01*
X975866D01*
X974533Y1087106D01*
Y1083107D01*
X970534Y1080441D02*
X971867D01*
Y1079108D01*
X970534D01*
Y1080441D01*
X971867Y1073776D02*
X970534Y1072444D01*
Y1069778D01*
X971867Y1068445D01*
X977199D01*
X978532Y1069778D01*
Y1072444D01*
X977199Y1073776D01*
X975866D01*
X974533Y1072444D01*
Y1068445D01*
X977226Y1190101D02*
X978558Y1191434D01*
Y1194100D01*
X977226Y1195433D01*
X971894D01*
X970561Y1194100D01*
Y1191434D01*
X971894Y1190101D01*
Y1187436D02*
X970561Y1186103D01*
Y1183437D01*
X971894Y1182104D01*
X977226D01*
X978558Y1183437D01*
Y1186103D01*
X977226Y1187436D01*
X975893D01*
X974560Y1186103D01*
Y1182104D01*
X970561Y1179438D02*
X971894D01*
Y1178105D01*
X970561D01*
Y1179438D01*
Y1172774D02*
Y1170108D01*
Y1171441D01*
X978558D01*
X977226Y1172774D01*
Y1166109D02*
X978558Y1164776D01*
Y1162110D01*
X977226Y1160777D01*
X971894D01*
X970561Y1162110D01*
Y1164776D01*
X971894Y1166109D01*
X977226D01*
X1179574Y880424D02*
X1178241Y881757D01*
X1175575D01*
X1174242Y880424D01*
Y875093D01*
X1175575Y873760D01*
X1178241D01*
X1179574Y875093D01*
X1182239Y873760D02*
X1184905D01*
X1183572D01*
Y881757D01*
X1182239Y880424D01*
X1188904D02*
X1190237Y881757D01*
X1192903D01*
X1194236Y880424D01*
Y875093D01*
X1192903Y873760D01*
X1190237D01*
X1188904Y875093D01*
Y880424D01*
X1196901Y873760D02*
Y875093D01*
X1198234D01*
Y873760D01*
X1196901D01*
X1203566D02*
X1206232D01*
X1204899D01*
Y881757D01*
X1203566Y880424D01*
X1179574Y972626D02*
X1178241Y973959D01*
X1175575D01*
X1174242Y972626D01*
Y967295D01*
X1175575Y965962D01*
X1178241D01*
X1179574Y967295D01*
X1182239Y965962D02*
X1184905D01*
X1183572D01*
Y973959D01*
X1182239Y972626D01*
X1188904D02*
X1190237Y973959D01*
X1192903D01*
X1194236Y972626D01*
Y967295D01*
X1192903Y965962D01*
X1190237D01*
X1188904Y967295D01*
Y972626D01*
X1196901Y965962D02*
Y967295D01*
X1198234D01*
Y965962D01*
X1196901D01*
X1208897D02*
X1203566D01*
X1208897Y971294D01*
Y972626D01*
X1207565Y973959D01*
X1204899D01*
X1203566Y972626D01*
X1179574Y1064575D02*
X1178241Y1065907D01*
X1175575D01*
X1174242Y1064575D01*
Y1059243D01*
X1175575Y1057910D01*
X1178241D01*
X1179574Y1059243D01*
X1182239Y1057910D02*
X1184905D01*
X1183572D01*
Y1065907D01*
X1182239Y1064575D01*
X1188904D02*
X1190237Y1065907D01*
X1192903D01*
X1194236Y1064575D01*
Y1059243D01*
X1192903Y1057910D01*
X1190237D01*
X1188904Y1059243D01*
Y1064575D01*
X1196901Y1057910D02*
Y1059243D01*
X1198234D01*
Y1057910D01*
X1196901D01*
X1203566Y1064575D02*
X1204899Y1065907D01*
X1207565D01*
X1208897Y1064575D01*
Y1063242D01*
X1207565Y1061909D01*
X1206232D01*
X1207565D01*
X1208897Y1060576D01*
Y1059243D01*
X1207565Y1057910D01*
X1204899D01*
X1203566Y1059243D01*
X1179574Y1156268D02*
X1178241Y1157601D01*
X1175575D01*
X1174242Y1156268D01*
Y1150937D01*
X1175575Y1149604D01*
X1178241D01*
X1179574Y1150937D01*
X1182239Y1149604D02*
X1184905D01*
X1183572D01*
Y1157601D01*
X1182239Y1156268D01*
X1188904D02*
X1190237Y1157601D01*
X1192903D01*
X1194236Y1156268D01*
Y1150937D01*
X1192903Y1149604D01*
X1190237D01*
X1188904Y1150937D01*
Y1156268D01*
X1196901Y1149604D02*
Y1150937D01*
X1198234D01*
Y1149604D01*
X1196901D01*
X1207565D02*
Y1157601D01*
X1203566Y1153603D01*
X1208897D01*
X1179574Y1248471D02*
X1178241Y1249803D01*
X1175575D01*
X1174242Y1248471D01*
Y1243139D01*
X1175575Y1241806D01*
X1178241D01*
X1179574Y1243139D01*
X1182239Y1241806D02*
X1184905D01*
X1183572D01*
Y1249803D01*
X1182239Y1248471D01*
X1188904D02*
X1190237Y1249803D01*
X1192903D01*
X1194236Y1248471D01*
Y1243139D01*
X1192903Y1241806D01*
X1190237D01*
X1188904Y1243139D01*
Y1248471D01*
X1196901Y1241806D02*
Y1243139D01*
X1198234D01*
Y1241806D01*
X1196901D01*
X1208897Y1249803D02*
X1203566D01*
Y1245805D01*
X1206232Y1247138D01*
X1207565D01*
X1208897Y1245805D01*
Y1243139D01*
X1207565Y1241806D01*
X1204899D01*
X1203566Y1243139D01*
X957324Y784158D02*
X955991Y785491D01*
X953325D01*
X951992Y784158D01*
Y778827D01*
X953325Y777494D01*
X955991D01*
X957324Y778827D01*
X959989Y777494D02*
X962655D01*
X961322D01*
Y785491D01*
X959989Y784158D01*
X966654D02*
X967987Y785491D01*
X970653D01*
X971986Y784158D01*
Y778827D01*
X970653Y777494D01*
X967987D01*
X966654Y778827D01*
Y784158D01*
X974651Y777494D02*
Y778827D01*
X975984D01*
Y777494D01*
X974651D01*
X986647Y785491D02*
X983982Y784158D01*
X981316Y781493D01*
Y778827D01*
X982649Y777494D01*
X985315D01*
X986647Y778827D01*
Y780160D01*
X985315Y781493D01*
X981316D01*
X957324Y876615D02*
X955991Y877947D01*
X953325D01*
X951992Y876615D01*
Y871283D01*
X953325Y869950D01*
X955991D01*
X957324Y871283D01*
X959989Y869950D02*
X962655D01*
X961322D01*
Y877947D01*
X959989Y876615D01*
X966654D02*
X967987Y877947D01*
X970653D01*
X971986Y876615D01*
Y871283D01*
X970653Y869950D01*
X967987D01*
X966654Y871283D01*
Y876615D01*
X974651Y869950D02*
Y871283D01*
X975984D01*
Y869950D01*
X974651D01*
X981316Y877947D02*
X986647D01*
Y876615D01*
X981316Y871283D01*
Y869950D01*
X957324Y968308D02*
X955991Y969641D01*
X953325D01*
X951992Y968308D01*
Y962977D01*
X953325Y961644D01*
X955991D01*
X957324Y962977D01*
X959989Y961644D02*
X962655D01*
X961322D01*
Y969641D01*
X959989Y968308D01*
X966654D02*
X967987Y969641D01*
X970653D01*
X971986Y968308D01*
Y962977D01*
X970653Y961644D01*
X967987D01*
X966654Y962977D01*
Y968308D01*
X974651Y961644D02*
Y962977D01*
X975984D01*
Y961644D01*
X974651D01*
X981316Y968308D02*
X982649Y969641D01*
X985315D01*
X986647Y968308D01*
Y966976D01*
X985315Y965643D01*
X986647Y964310D01*
Y962977D01*
X985315Y961644D01*
X982649D01*
X981316Y962977D01*
Y964310D01*
X982649Y965643D01*
X981316Y966976D01*
Y968308D01*
X982649Y965643D02*
X985315D01*
X957324Y1060257D02*
X955991Y1061589D01*
X953325D01*
X951992Y1060257D01*
Y1054925D01*
X953325Y1053592D01*
X955991D01*
X957324Y1054925D01*
X959989Y1053592D02*
X962655D01*
X961322D01*
Y1061589D01*
X959989Y1060257D01*
X966654D02*
X967987Y1061589D01*
X970653D01*
X971986Y1060257D01*
Y1054925D01*
X970653Y1053592D01*
X967987D01*
X966654Y1054925D01*
Y1060257D01*
X974651Y1053592D02*
Y1054925D01*
X975984D01*
Y1053592D01*
X974651D01*
X981316Y1054925D02*
X982649Y1053592D01*
X985315D01*
X986647Y1054925D01*
Y1060257D01*
X985315Y1061589D01*
X982649D01*
X981316Y1060257D01*
Y1058924D01*
X982649Y1057591D01*
X986647D01*
X957578Y1152712D02*
X956245Y1154045D01*
X953579D01*
X952246Y1152712D01*
Y1147381D01*
X953579Y1146048D01*
X956245D01*
X957578Y1147381D01*
X960243Y1146048D02*
X962909D01*
X961576D01*
Y1154045D01*
X960243Y1152712D01*
X966908D02*
X968241Y1154045D01*
X970907D01*
X972240Y1152712D01*
Y1147381D01*
X970907Y1146048D01*
X968241D01*
X966908Y1147381D01*
Y1152712D01*
X974905Y1146048D02*
Y1147381D01*
X976238D01*
Y1146048D01*
X974905D01*
X981570D02*
X984236D01*
X982903D01*
Y1154045D01*
X981570Y1152712D01*
X988234D02*
X989567Y1154045D01*
X992233D01*
X993566Y1152712D01*
Y1147381D01*
X992233Y1146048D01*
X989567D01*
X988234Y1147381D01*
Y1152712D01*
X1140460Y884043D02*
Y877379D01*
X1141793Y876046D01*
X1144459D01*
X1145792Y877379D01*
Y884043D01*
X1148457Y882710D02*
X1149790Y884043D01*
X1152456D01*
X1153789Y882710D01*
Y881378D01*
X1152456Y880045D01*
X1151123D01*
X1152456D01*
X1153789Y878712D01*
Y877379D01*
X1152456Y876046D01*
X1149790D01*
X1148457Y877379D01*
X1156455Y876046D02*
Y877379D01*
X1157788D01*
Y876046D01*
X1156455D01*
X1163119D02*
X1165785D01*
X1164452D01*
Y884043D01*
X1163119Y882710D01*
X1139190Y975991D02*
Y969327D01*
X1140523Y967994D01*
X1143189D01*
X1144522Y969327D01*
Y975991D01*
X1147187Y974659D02*
X1148520Y975991D01*
X1151186D01*
X1152519Y974659D01*
Y973326D01*
X1151186Y971993D01*
X1149853D01*
X1151186D01*
X1152519Y970660D01*
Y969327D01*
X1151186Y967994D01*
X1148520D01*
X1147187Y969327D01*
X1155185Y967994D02*
Y969327D01*
X1156518D01*
Y967994D01*
X1155185D01*
X1167181D02*
X1161849D01*
X1167181Y973326D01*
Y974659D01*
X1165848Y975991D01*
X1163182D01*
X1161849Y974659D01*
X1139190Y1067939D02*
Y1061275D01*
X1140523Y1059942D01*
X1143189D01*
X1144522Y1061275D01*
Y1067939D01*
X1147187Y1066607D02*
X1148520Y1067939D01*
X1151186D01*
X1152519Y1066607D01*
Y1065274D01*
X1151186Y1063941D01*
X1149853D01*
X1151186D01*
X1152519Y1062608D01*
Y1061275D01*
X1151186Y1059942D01*
X1148520D01*
X1147187Y1061275D01*
X1155185Y1059942D02*
Y1061275D01*
X1156518D01*
Y1059942D01*
X1155185D01*
X1161849Y1066607D02*
X1163182Y1067939D01*
X1165848D01*
X1167181Y1066607D01*
Y1065274D01*
X1165848Y1063941D01*
X1164515D01*
X1165848D01*
X1167181Y1062608D01*
Y1061275D01*
X1165848Y1059942D01*
X1163182D01*
X1161849Y1061275D01*
X1139190Y1159633D02*
Y1152969D01*
X1140523Y1151636D01*
X1143189D01*
X1144522Y1152969D01*
Y1159633D01*
X1147187Y1158300D02*
X1148520Y1159633D01*
X1151186D01*
X1152519Y1158300D01*
Y1156968D01*
X1151186Y1155635D01*
X1149853D01*
X1151186D01*
X1152519Y1154302D01*
Y1152969D01*
X1151186Y1151636D01*
X1148520D01*
X1147187Y1152969D01*
X1155185Y1151636D02*
Y1152969D01*
X1156518D01*
Y1151636D01*
X1155185D01*
X1165848D02*
Y1159633D01*
X1161849Y1155635D01*
X1167181D01*
X1139190Y1252089D02*
Y1245425D01*
X1140523Y1244092D01*
X1143189D01*
X1144522Y1245425D01*
Y1252089D01*
X1147187Y1250757D02*
X1148520Y1252089D01*
X1151186D01*
X1152519Y1250757D01*
Y1249424D01*
X1151186Y1248091D01*
X1149853D01*
X1151186D01*
X1152519Y1246758D01*
Y1245425D01*
X1151186Y1244092D01*
X1148520D01*
X1147187Y1245425D01*
X1155185Y1244092D02*
Y1245425D01*
X1156518D01*
Y1244092D01*
X1155185D01*
X1167181Y1252089D02*
X1161849D01*
Y1248091D01*
X1164515Y1249424D01*
X1165848D01*
X1167181Y1248091D01*
Y1245425D01*
X1165848Y1244092D01*
X1163182D01*
X1161849Y1245425D01*
X917956Y835529D02*
Y828865D01*
X919289Y827532D01*
X921955D01*
X923288Y828865D01*
Y835529D01*
X925953Y834196D02*
X927286Y835529D01*
X929952D01*
X931285Y834196D01*
Y832864D01*
X929952Y831531D01*
X928619D01*
X929952D01*
X931285Y830198D01*
Y828865D01*
X929952Y827532D01*
X927286D01*
X925953Y828865D01*
X933951Y827532D02*
Y828865D01*
X935284D01*
Y827532D01*
X933951D01*
X945947Y835529D02*
X943281Y834196D01*
X940615Y831531D01*
Y828865D01*
X941948Y827532D01*
X944614D01*
X945947Y828865D01*
Y830198D01*
X944614Y831531D01*
X940615D01*
X917956Y927985D02*
Y921321D01*
X919289Y919988D01*
X921955D01*
X923288Y921321D01*
Y927985D01*
X925953Y926653D02*
X927286Y927985D01*
X929952D01*
X931285Y926653D01*
Y925320D01*
X929952Y923987D01*
X928619D01*
X929952D01*
X931285Y922654D01*
Y921321D01*
X929952Y919988D01*
X927286D01*
X925953Y921321D01*
X933951Y919988D02*
Y921321D01*
X935284D01*
Y919988D01*
X933951D01*
X940615Y927985D02*
X945947D01*
Y926653D01*
X940615Y921321D01*
Y919988D01*
X917956Y1019679D02*
Y1013015D01*
X919289Y1011682D01*
X921955D01*
X923288Y1013015D01*
Y1019679D01*
X925953Y1018346D02*
X927286Y1019679D01*
X929952D01*
X931285Y1018346D01*
Y1017014D01*
X929952Y1015681D01*
X928619D01*
X929952D01*
X931285Y1014348D01*
Y1013015D01*
X929952Y1011682D01*
X927286D01*
X925953Y1013015D01*
X933951Y1011682D02*
Y1013015D01*
X935284D01*
Y1011682D01*
X933951D01*
X940615Y1018346D02*
X941948Y1019679D01*
X944614D01*
X945947Y1018346D01*
Y1017014D01*
X944614Y1015681D01*
X945947Y1014348D01*
Y1013015D01*
X944614Y1011682D01*
X941948D01*
X940615Y1013015D01*
Y1014348D01*
X941948Y1015681D01*
X940615Y1017014D01*
Y1018346D01*
X941948Y1015681D02*
X944614D01*
X917956Y1111627D02*
Y1104963D01*
X919289Y1103630D01*
X921955D01*
X923288Y1104963D01*
Y1111627D01*
X925953Y1110294D02*
X927286Y1111627D01*
X929952D01*
X931285Y1110294D01*
Y1108962D01*
X929952Y1107629D01*
X928619D01*
X929952D01*
X931285Y1106296D01*
Y1104963D01*
X929952Y1103630D01*
X927286D01*
X925953Y1104963D01*
X933951Y1103630D02*
Y1104963D01*
X935284D01*
Y1103630D01*
X933951D01*
X940615Y1104963D02*
X941948Y1103630D01*
X944614D01*
X945947Y1104963D01*
Y1110294D01*
X944614Y1111627D01*
X941948D01*
X940615Y1110294D01*
Y1108962D01*
X941948Y1107629D01*
X945947D01*
X914654Y1203829D02*
Y1197165D01*
X915987Y1195832D01*
X918653D01*
X919986Y1197165D01*
Y1203829D01*
X922651Y1202496D02*
X923984Y1203829D01*
X926650D01*
X927983Y1202496D01*
Y1201164D01*
X926650Y1199831D01*
X925317D01*
X926650D01*
X927983Y1198498D01*
Y1197165D01*
X926650Y1195832D01*
X923984D01*
X922651Y1197165D01*
X930649Y1195832D02*
Y1197165D01*
X931982D01*
Y1195832D01*
X930649D01*
X937313D02*
X939979D01*
X938646D01*
Y1203829D01*
X937313Y1202496D01*
X943978D02*
X945311Y1203829D01*
X947977D01*
X949309Y1202496D01*
Y1197165D01*
X947977Y1195832D01*
X945311D01*
X943978Y1197165D01*
Y1202496D01*
D14*
X1314508Y1072722D02*
G03*
X1314508Y1076278I-2276J1778D01*
G01*
Y1072722D02*
G03*
X1314508Y1076278I-2276J1778D01*
G01*
D15*
X1346070Y942590D02*
X1380570D01*
X1344570D02*
X1346070D01*
X1326570D02*
X1343070D01*
X1326570Y977590D02*
X1343070D01*
X1344570D01*
X1346070D02*
X1380570D01*
X1346070Y942590D02*
Y977590D01*
X1344570D02*
X1346070D01*
X1343070Y942590D02*
X1344570D01*
X1380570Y973590D02*
Y977590D01*
X1326570Y973590D02*
Y977590D01*
Y942590D02*
Y946590D01*
X1380570Y942590D02*
Y946590D01*
D16*
X1347470Y1232499D02*
Y1230833D01*
X1350802Y1227500D01*
X1354135Y1230833D01*
Y1232499D01*
X1350802Y1227500D02*
Y1222502D01*
X1357467D02*
X1360799D01*
X1359133D01*
Y1232499D01*
X1357467Y1230833D01*
X1350198Y1152231D02*
X1341868D01*
X1340202Y1150564D01*
Y1147232D01*
X1341868Y1145566D01*
X1350198D01*
X1340202Y1135569D02*
Y1142234D01*
X1346866Y1135569D01*
X1348532D01*
X1350198Y1137235D01*
Y1140568D01*
X1348532Y1142234D01*
X1331798Y1090364D02*
X1323468D01*
X1321802Y1088698D01*
Y1085366D01*
X1323468Y1083700D01*
X1331798D01*
X1321802Y1080368D02*
Y1077035D01*
Y1078701D01*
X1331798D01*
X1330132Y1080368D01*
X1310032Y779480D02*
X1320029D01*
Y774482D01*
X1318363Y772815D01*
X1315030D01*
X1313364Y774482D01*
Y779480D01*
Y776148D02*
X1310032Y772815D01*
Y769483D02*
Y766151D01*
Y767817D01*
X1320029D01*
X1318363Y769483D01*
X1310032Y754488D02*
Y761152D01*
X1316696Y754488D01*
X1318363D01*
X1320029Y756154D01*
Y759486D01*
X1318363Y761152D01*
X1324200Y779580D02*
X1334197D01*
Y774582D01*
X1332531Y772915D01*
X1329198D01*
X1327532Y774582D01*
Y779580D01*
Y776248D02*
X1324200Y772915D01*
Y769583D02*
Y766251D01*
Y767917D01*
X1334197D01*
X1332531Y769583D01*
X1324200Y761253D02*
Y757920D01*
Y759586D01*
X1334197D01*
X1332531Y761253D01*
X1299302Y1154928D02*
X1309298D01*
Y1149930D01*
X1307632Y1148264D01*
X1304300D01*
X1302634Y1149930D01*
Y1154928D01*
Y1151596D02*
X1299302Y1148264D01*
Y1144932D02*
Y1141599D01*
Y1143266D01*
X1309298D01*
X1307632Y1144932D01*
Y1136601D02*
X1309298Y1134935D01*
Y1131603D01*
X1307632Y1129936D01*
X1300968D01*
X1299302Y1131603D01*
Y1134935D01*
X1300968Y1136601D01*
X1307632D01*
X1326302Y1152231D02*
X1336298D01*
Y1147232D01*
X1334632Y1145566D01*
X1331300D01*
X1329634Y1147232D01*
Y1152231D01*
Y1148898D02*
X1326302Y1145566D01*
X1327968Y1142234D02*
X1326302Y1140568D01*
Y1137235D01*
X1327968Y1135569D01*
X1334632D01*
X1336298Y1137235D01*
Y1140568D01*
X1334632Y1142234D01*
X1332966D01*
X1331300Y1140568D01*
Y1135569D01*
X1286430Y1001076D02*
X1296427D01*
Y996078D01*
X1294761Y994411D01*
X1291428D01*
X1289762Y996078D01*
Y1001076D01*
Y997744D02*
X1286430Y994411D01*
X1294761Y991079D02*
X1296427Y989413D01*
Y986081D01*
X1294761Y984415D01*
X1293094D01*
X1291428Y986081D01*
X1289762Y984415D01*
X1288096D01*
X1286430Y986081D01*
Y989413D01*
X1288096Y991079D01*
X1289762D01*
X1291428Y989413D01*
X1293094Y991079D01*
X1294761D01*
X1291428Y989413D02*
Y986081D01*
X1380802Y1240366D02*
X1390798D01*
Y1235367D01*
X1389132Y1233701D01*
X1385800D01*
X1384134Y1235367D01*
Y1240366D01*
Y1237033D02*
X1380802Y1233701D01*
X1390798Y1230369D02*
Y1223704D01*
X1389132D01*
X1382468Y1230369D01*
X1380802D01*
X1395002Y1263331D02*
X1404998D01*
Y1258332D01*
X1403332Y1256666D01*
X1400000D01*
X1398334Y1258332D01*
Y1263331D01*
Y1259998D02*
X1395002Y1256666D01*
X1404998Y1246669D02*
Y1253334D01*
X1400000D01*
X1401666Y1250002D01*
Y1248335D01*
X1400000Y1246669D01*
X1396668D01*
X1395002Y1248335D01*
Y1251668D01*
X1396668Y1253334D01*
X1286522Y1031048D02*
X1296519D01*
Y1026050D01*
X1294853Y1024383D01*
X1291520D01*
X1289854Y1026050D01*
Y1031048D01*
Y1027716D02*
X1286522Y1024383D01*
Y1016053D02*
X1296519D01*
X1291520Y1021051D01*
Y1014387D01*
X1319784Y1148933D02*
Y1138936D01*
X1324782D01*
X1326449Y1140602D01*
Y1147267D01*
X1324782Y1148933D01*
X1319784D01*
X1329781D02*
Y1138936D01*
X1334779D01*
X1336445Y1140602D01*
Y1147267D01*
X1334779Y1148933D01*
X1329781D01*
X1339778Y1138936D02*
X1343110D01*
X1341444D01*
Y1148933D01*
X1339778Y1147267D01*
X1296851Y1086750D02*
X1286854D01*
Y1081751D01*
X1288520Y1080085D01*
X1295185D01*
X1296851Y1081751D01*
Y1086750D01*
X1286854Y1076753D02*
Y1073421D01*
Y1075087D01*
X1296851D01*
X1295185Y1076753D01*
X1227705Y822787D02*
X1229371Y824454D01*
Y827786D01*
X1227705Y829452D01*
X1221040D01*
X1219374Y827786D01*
Y824454D01*
X1221040Y822787D01*
X1219374Y819455D02*
X1226039D01*
X1229371Y816123D01*
X1226039Y812791D01*
X1219374D01*
X1224372D01*
Y819455D01*
X1219374Y809458D02*
X1229371D01*
X1219374Y802794D01*
X1229371D01*
X1224372Y799462D02*
Y792797D01*
X1219374Y789465D02*
X1226039D01*
X1229371Y786133D01*
X1226039Y782800D01*
X1219374D01*
X1224372D01*
Y789465D01*
X1219374Y779468D02*
X1229371D01*
Y774470D01*
X1227705Y772804D01*
X1224372D01*
X1222706Y774470D01*
Y779468D01*
X1219374Y769471D02*
Y766139D01*
Y767805D01*
X1229371D01*
X1227705Y769471D01*
X1233312Y771536D02*
X1234978Y769870D01*
X1238310D01*
X1239976Y771536D01*
Y778201D01*
X1238310Y779867D01*
X1234978D01*
X1233312Y778201D01*
X1229980Y779867D02*
Y773202D01*
X1226647Y769870D01*
X1223315Y773202D01*
Y779867D01*
Y774868D01*
X1229980D01*
X1219983Y779867D02*
Y769870D01*
X1213318Y779867D01*
Y769870D01*
X1209986Y779867D02*
X1206654D01*
X1208320D01*
Y769870D01*
X1209986Y771536D01*
X1321032Y1145466D02*
X1322698Y1147132D01*
Y1150464D01*
X1321032Y1152131D01*
X1314368D01*
X1312702Y1150464D01*
Y1147132D01*
X1314368Y1145466D01*
X1321032Y1142134D02*
X1322698Y1140468D01*
Y1137135D01*
X1321032Y1135469D01*
X1319366D01*
X1317700Y1137135D01*
X1316034Y1135469D01*
X1314368D01*
X1312702Y1137135D01*
Y1140468D01*
X1314368Y1142134D01*
X1316034D01*
X1317700Y1140468D01*
X1319366Y1142134D01*
X1321032D01*
X1317700Y1140468D02*
Y1137135D01*
X1381132Y1144966D02*
X1382798Y1146632D01*
Y1149964D01*
X1381132Y1151631D01*
X1374468D01*
X1372802Y1149964D01*
Y1146632D01*
X1374468Y1144966D01*
X1382798Y1141634D02*
Y1134969D01*
X1381132D01*
X1374468Y1141634D01*
X1372802D01*
X1309923Y1196949D02*
X1311589Y1198616D01*
Y1201948D01*
X1309923Y1203614D01*
X1303258D01*
X1301592Y1201948D01*
Y1198616D01*
X1303258Y1196949D01*
X1311589Y1186953D02*
X1309923Y1190285D01*
X1306590Y1193617D01*
X1303258D01*
X1301592Y1191951D01*
Y1188619D01*
X1303258Y1186953D01*
X1304924D01*
X1306590Y1188619D01*
Y1193617D01*
X1296332Y1196966D02*
X1297998Y1198632D01*
Y1201964D01*
X1296332Y1203631D01*
X1289668D01*
X1288002Y1201964D01*
Y1198632D01*
X1289668Y1196966D01*
X1297998Y1186969D02*
Y1193634D01*
X1293000D01*
X1294666Y1190302D01*
Y1188635D01*
X1293000Y1186969D01*
X1289668D01*
X1288002Y1188635D01*
Y1191968D01*
X1289668Y1193634D01*
X1418332Y1200666D02*
X1419998Y1202332D01*
Y1205665D01*
X1418332Y1207331D01*
X1411668D01*
X1410002Y1205665D01*
Y1202332D01*
X1411668Y1200666D01*
X1410002Y1192336D02*
X1419998D01*
X1415000Y1197334D01*
Y1190669D01*
X1400532Y1200066D02*
X1402198Y1201732D01*
Y1205064D01*
X1400532Y1206730D01*
X1393868D01*
X1392202Y1205064D01*
Y1201732D01*
X1393868Y1200066D01*
X1400532Y1196734D02*
X1402198Y1195068D01*
Y1191735D01*
X1400532Y1190069D01*
X1398866D01*
X1397200Y1191735D01*
Y1193401D01*
Y1191735D01*
X1395534Y1190069D01*
X1393868D01*
X1392202Y1191735D01*
Y1195068D01*
X1393868Y1196734D01*
X1295232Y1052666D02*
X1296898Y1054332D01*
Y1057664D01*
X1295232Y1059331D01*
X1288568D01*
X1286902Y1057664D01*
Y1054332D01*
X1288568Y1052666D01*
X1286902Y1042669D02*
Y1049334D01*
X1293566Y1042669D01*
X1295232D01*
X1296898Y1044335D01*
Y1047668D01*
X1295232Y1049334D01*
X1323432Y1032800D02*
X1325098Y1034466D01*
Y1037798D01*
X1323432Y1039464D01*
X1316768D01*
X1315102Y1037798D01*
Y1034466D01*
X1316768Y1032800D01*
X1315102Y1029468D02*
Y1026135D01*
Y1027802D01*
X1325098D01*
X1323432Y1029468D01*
X1390498Y821964D02*
X1382168D01*
X1380502Y820298D01*
Y816966D01*
X1382168Y815300D01*
X1390498D01*
X1380502Y811968D02*
Y808635D01*
Y810302D01*
X1390498D01*
X1388832Y811968D01*
X1378458Y917194D02*
Y927191D01*
X1383456D01*
X1385123Y925525D01*
Y922192D01*
X1383456Y920526D01*
X1378458D01*
X1381790D02*
X1385123Y917194D01*
X1388455Y925525D02*
X1390121Y927191D01*
X1393453D01*
X1395119Y925525D01*
Y923858D01*
X1393453Y922192D01*
X1391787D01*
X1393453D01*
X1395119Y920526D01*
Y918860D01*
X1393453Y917194D01*
X1390121D01*
X1388455Y918860D01*
X1397254Y917194D02*
Y927191D01*
X1402252D01*
X1403918Y925525D01*
Y922192D01*
X1402252Y920526D01*
X1397254D01*
X1400586D02*
X1403918Y917194D01*
X1413915D02*
X1407251D01*
X1413915Y923858D01*
Y925525D01*
X1412249Y927191D01*
X1408917D01*
X1407251Y925525D01*
X1399032Y859536D02*
Y869533D01*
X1404030D01*
X1405697Y867867D01*
Y864534D01*
X1404030Y862868D01*
X1399032D01*
X1402364D02*
X1405697Y859536D01*
X1409029D02*
X1412361D01*
X1410695D01*
Y869533D01*
X1409029Y867867D01*
X1347724Y1019139D02*
Y1009142D01*
X1354388D01*
X1357721D02*
X1361053D01*
X1359387D01*
Y1019139D01*
X1357721Y1017473D01*
X1361108Y966754D02*
X1351112D01*
Y961756D01*
X1352778Y960090D01*
X1359442D01*
X1361108Y961756D01*
Y966754D01*
X1351112Y956758D02*
Y953425D01*
Y955091D01*
X1361108D01*
X1359442Y956758D01*
X1367343Y1058621D02*
X1365676Y1060287D01*
X1362344D01*
X1360678Y1058621D01*
Y1051956D01*
X1362344Y1050290D01*
X1365676D01*
X1367343Y1051956D01*
X1377339Y1060287D02*
X1374007Y1058621D01*
X1370675Y1055288D01*
Y1051956D01*
X1372341Y1050290D01*
X1375673D01*
X1377339Y1051956D01*
Y1053622D01*
X1375673Y1055288D01*
X1370675D01*
X1367343Y1085291D02*
X1365676Y1086957D01*
X1362344D01*
X1360678Y1085291D01*
Y1078626D01*
X1362344Y1076960D01*
X1365676D01*
X1367343Y1078626D01*
X1377339Y1086957D02*
X1370675D01*
Y1081958D01*
X1374007Y1083624D01*
X1375673D01*
X1377339Y1081958D01*
Y1078626D01*
X1375673Y1076960D01*
X1372341D01*
X1370675Y1078626D01*
X1327532Y895266D02*
X1329198Y896932D01*
Y900264D01*
X1327532Y901930D01*
X1320868D01*
X1319202Y900264D01*
Y896932D01*
X1320868Y895266D01*
X1319202Y886935D02*
X1329198D01*
X1324200Y891934D01*
Y885269D01*
X1347742Y895716D02*
X1349408Y897382D01*
Y900714D01*
X1347742Y902381D01*
X1341078D01*
X1339412Y900714D01*
Y897382D01*
X1341078Y895716D01*
X1347742Y892384D02*
X1349408Y890718D01*
Y887385D01*
X1347742Y885719D01*
X1346076D01*
X1344410Y887385D01*
Y889052D01*
Y887385D01*
X1342744Y885719D01*
X1341078D01*
X1339412Y887385D01*
Y890718D01*
X1341078Y892384D01*
X1368105Y767791D02*
X1366438Y769457D01*
X1363106D01*
X1361440Y767791D01*
Y761126D01*
X1363106Y759460D01*
X1366438D01*
X1368105Y761126D01*
X1378101Y759460D02*
X1371437D01*
X1378101Y766124D01*
Y767791D01*
X1376435Y769457D01*
X1373103D01*
X1371437Y767791D01*
X1369883Y793191D02*
X1368216Y794857D01*
X1364884D01*
X1363218Y793191D01*
Y786526D01*
X1364884Y784860D01*
X1368216D01*
X1369883Y786526D01*
X1373215Y784860D02*
X1376547D01*
X1374881D01*
Y794857D01*
X1373215Y793191D01*
M02*
