G04*
G04 #@! TF.GenerationSoftware,Altium Limited,Altium Designer,21.6.1 (37)*
G04*
G04 Layer_Color=8421504*
%FSLAX44Y44*%
%MOMM*%
G71*
G04*
G04 #@! TF.SameCoordinates,ED4FE337-CE33-4479-A5C8-1B7B9E4D1B90*
G04*
G04*
G04 #@! TF.FilePolarity,Positive*
G04*
G01*
G75*
%ADD17R,1.1500X1.8200*%
%ADD18R,0.2600X1.0800*%
%ADD19R,0.8500X0.6000*%
%ADD20R,1.0000X0.8000*%
%ADD21R,0.8000X1.0000*%
%ADD22R,0.9000X0.6000*%
G04:AMPARAMS|DCode=23|XSize=0.6mm|YSize=0.9mm|CornerRadius=0.15mm|HoleSize=0mm|Usage=FLASHONLY|Rotation=90.000|XOffset=0mm|YOffset=0mm|HoleType=Round|Shape=RoundedRectangle|*
%AMROUNDEDRECTD23*
21,1,0.6000,0.6000,0,0,90.0*
21,1,0.3000,0.9000,0,0,90.0*
1,1,0.3000,0.3000,0.1500*
1,1,0.3000,0.3000,-0.1500*
1,1,0.3000,-0.3000,-0.1500*
1,1,0.3000,-0.3000,0.1500*
%
%ADD23ROUNDEDRECTD23*%
%ADD24R,0.5250X0.3000*%
%ADD25R,0.9000X0.7000*%
%ADD26R,0.5588X1.3208*%
%ADD27R,0.8000X0.8000*%
%ADD28R,0.4000X2.0000*%
%ADD29R,0.9300X0.8900*%
%ADD30R,1.0000X2.7000*%
%ADD31R,1.8000X3.8000*%
%ADD32R,1.0800X0.2600*%
%ADD33R,3.7000X3.7000*%
%ADD34R,2.2000X2.3000*%
%ADD35R,1.9050X2.7940*%
%ADD36R,0.6000X1.9700*%
%ADD37R,3.0000X2.1300*%
%ADD38R,1.0000X2.7000*%
%ADD39R,0.6000X1.7000*%
%ADD40R,1.3800X1.8200*%
G36*
X1365902Y1181100D02*
X1341933D01*
Y1205070D01*
X1365902D01*
Y1181100D01*
D02*
G37*
G36*
X1357453Y1110700D02*
X1350952D01*
Y1121700D01*
X1357453D01*
Y1110700D01*
D02*
G37*
G36*
X1360610Y842030D02*
X1349210D01*
Y849030D01*
X1360610D01*
Y842030D01*
D02*
G37*
G36*
X1346810D02*
X1335410D01*
Y849030D01*
X1346810D01*
Y842030D01*
D02*
G37*
G36*
X1360610Y832630D02*
X1349210D01*
Y839630D01*
X1360610D01*
Y832630D01*
D02*
G37*
G36*
X1346810D02*
X1335410D01*
Y839630D01*
X1346810D01*
Y832630D01*
D02*
G37*
D17*
X1384720Y789910D02*
D03*
X1355020D02*
D03*
Y764510D02*
D03*
X1384720D02*
D03*
D18*
X1354202Y1220950D02*
D03*
X1359202D02*
D03*
X1364203D02*
D03*
X1369202D02*
D03*
X1374203D02*
D03*
Y1164650D02*
D03*
X1369202D02*
D03*
X1364203D02*
D03*
X1359202D02*
D03*
X1354202D02*
D03*
X1349203D02*
D03*
X1344202D02*
D03*
X1339203D02*
D03*
X1334202D02*
D03*
Y1220950D02*
D03*
X1339203D02*
D03*
X1344202D02*
D03*
X1349203D02*
D03*
D19*
X1329100Y786656D02*
D03*
Y799100D02*
D03*
X1315100Y786656D02*
D03*
Y799100D02*
D03*
D20*
X1123567Y1046492D02*
D03*
Y1029492D02*
D03*
Y954492D02*
D03*
Y937493D02*
D03*
Y1230492D02*
D03*
Y1213492D02*
D03*
Y1138193D02*
D03*
Y1121193D02*
D03*
X1123540Y862460D02*
D03*
Y845460D02*
D03*
X1306500Y1161650D02*
D03*
Y1178650D02*
D03*
X1293000Y1161650D02*
D03*
Y1178650D02*
D03*
X1305500Y1042400D02*
D03*
Y1059400D02*
D03*
X961660Y1182340D02*
D03*
Y1165340D02*
D03*
X961633Y1090007D02*
D03*
Y1073008D02*
D03*
Y998008D02*
D03*
Y981008D02*
D03*
Y906307D02*
D03*
Y889307D02*
D03*
Y814007D02*
D03*
Y797008D02*
D03*
X1402500Y1214170D02*
D03*
Y1231170D02*
D03*
X1416400Y1214135D02*
D03*
Y1231135D02*
D03*
X1377900Y1106800D02*
D03*
Y1123800D02*
D03*
X1324070Y929220D02*
D03*
Y912220D02*
D03*
X1317600Y1107532D02*
D03*
Y1124532D02*
D03*
D21*
X1162167Y1061892D02*
D03*
X1145167D02*
D03*
X1162167Y1153593D02*
D03*
X1145167D02*
D03*
X1162167Y969893D02*
D03*
X1145167D02*
D03*
X1162167Y1245892D02*
D03*
X1145167D02*
D03*
X1162140Y877860D02*
D03*
X1145140D02*
D03*
X923060Y1149940D02*
D03*
X940060D02*
D03*
X923033Y1057607D02*
D03*
X940033D02*
D03*
X923033Y965608D02*
D03*
X940033D02*
D03*
X923033Y873907D02*
D03*
X940033D02*
D03*
X923033Y781608D02*
D03*
X940033D02*
D03*
X1318200Y1047300D02*
D03*
X1335200D02*
D03*
D22*
X1164767Y1139191D02*
D03*
Y1129691D02*
D03*
X1141767Y1139191D02*
D03*
Y1129691D02*
D03*
Y1120191D02*
D03*
X1164767Y1231490D02*
D03*
Y1221990D02*
D03*
X1141767Y1231490D02*
D03*
Y1221990D02*
D03*
Y1212490D02*
D03*
X1164767Y1047490D02*
D03*
Y1037990D02*
D03*
X1141767Y1047490D02*
D03*
Y1037990D02*
D03*
Y1028490D02*
D03*
X1164767Y955490D02*
D03*
Y945990D02*
D03*
X1141767Y955490D02*
D03*
Y945990D02*
D03*
Y936490D02*
D03*
X1164740Y863457D02*
D03*
Y853958D02*
D03*
X1141740Y863457D02*
D03*
Y853958D02*
D03*
Y844457D02*
D03*
X920460Y1173842D02*
D03*
Y1164342D02*
D03*
X943460D02*
D03*
Y1173842D02*
D03*
Y1183343D02*
D03*
X920433Y1081510D02*
D03*
Y1072010D02*
D03*
X943433D02*
D03*
Y1081510D02*
D03*
Y1091010D02*
D03*
X920433Y989510D02*
D03*
Y980010D02*
D03*
X943433D02*
D03*
Y989510D02*
D03*
Y999010D02*
D03*
X920433Y897809D02*
D03*
Y888309D02*
D03*
X943433D02*
D03*
Y897809D02*
D03*
Y907309D02*
D03*
X920433Y805510D02*
D03*
Y796010D02*
D03*
X943433D02*
D03*
Y805510D02*
D03*
Y815010D02*
D03*
D23*
X1164767Y1120191D02*
D03*
Y1212490D02*
D03*
Y1028490D02*
D03*
Y936490D02*
D03*
X1164740Y844457D02*
D03*
X920460Y1183343D02*
D03*
X920433Y1091010D02*
D03*
Y999010D02*
D03*
Y907309D02*
D03*
Y815010D02*
D03*
D24*
X1340578Y1119450D02*
D03*
Y1112950D02*
D03*
X1367827Y1125950D02*
D03*
Y1119450D02*
D03*
Y1112950D02*
D03*
Y1106450D02*
D03*
X1340578Y1125950D02*
D03*
Y1106450D02*
D03*
D25*
X1304200Y1123532D02*
D03*
Y1108532D02*
D03*
X1305500Y1015300D02*
D03*
Y1030300D02*
D03*
Y985300D02*
D03*
Y1000300D02*
D03*
X1416900Y1261935D02*
D03*
Y1246935D02*
D03*
X1385900Y1261935D02*
D03*
Y1246935D02*
D03*
X1383570Y914720D02*
D03*
Y929720D02*
D03*
X1385570Y871930D02*
D03*
Y856930D02*
D03*
X1364903Y914720D02*
D03*
Y929720D02*
D03*
X1330700Y1123532D02*
D03*
Y1108532D02*
D03*
D26*
X1317302Y1062816D02*
D03*
X1326700D02*
D03*
X1336098D02*
D03*
Y1086184D02*
D03*
X1317302D02*
D03*
D27*
X1305750Y1089200D02*
D03*
Y1074200D02*
D03*
D28*
X1342202Y1254300D02*
D03*
X1354202D02*
D03*
X1366202D02*
D03*
D29*
X1344387Y913370D02*
D03*
Y928770D02*
D03*
D30*
X1187168Y839769D02*
D03*
X1202168D02*
D03*
X1217168D02*
D03*
X1232168D02*
D03*
X1247168D02*
D03*
X1262168D02*
D03*
D31*
X1164668Y792769D02*
D03*
X1284668D02*
D03*
D32*
X1382352Y1212800D02*
D03*
X1326052D02*
D03*
X1382352Y1207800D02*
D03*
Y1202800D02*
D03*
Y1197800D02*
D03*
Y1192800D02*
D03*
Y1187800D02*
D03*
Y1182800D02*
D03*
Y1177800D02*
D03*
Y1172800D02*
D03*
X1326052D02*
D03*
Y1177800D02*
D03*
Y1182800D02*
D03*
Y1187800D02*
D03*
Y1192800D02*
D03*
Y1197800D02*
D03*
Y1202800D02*
D03*
Y1207800D02*
D03*
D33*
X1354202Y1192800D02*
D03*
D34*
X1329070Y960090D02*
D03*
X1378070D02*
D03*
D35*
X1379867Y1014190D02*
D03*
X1329067D02*
D03*
D36*
X1328960Y816080D02*
D03*
X1341660D02*
D03*
X1354360D02*
D03*
X1367060D02*
D03*
Y865580D02*
D03*
X1354360D02*
D03*
X1341660D02*
D03*
X1328960D02*
D03*
D37*
X1348010Y840830D02*
D03*
D38*
X1261565Y782033D02*
D03*
X1187065D02*
D03*
D39*
X1243065Y814034D02*
D03*
X1230565D02*
D03*
X1205565D02*
D03*
X1218065D02*
D03*
D40*
X1355215Y1055340D02*
D03*
X1382595D02*
D03*
X1355215Y1082010D02*
D03*
X1382595D02*
D03*
M02*
