G04*
G04 #@! TF.GenerationSoftware,Altium Limited,Altium Designer,21.4.1 (30)*
G04*
G04 Layer_Physical_Order=2*
G04 Layer_Color=16711680*
%FSLAX44Y44*%
%MOMM*%
G71*
G04*
G04 #@! TF.SameCoordinates,4EB0A57A-0331-4043-81DB-767BF70387EF*
G04*
G04*
G04 #@! TF.FilePolarity,Positive*
G04*
G01*
G75*
%ADD10C,0.5000*%
%ADD16C,0.2500*%
%ADD30R,1.0000X2.7000*%
%ADD69C,2.0000*%
%ADD71C,0.7000*%
%ADD73C,1.0000*%
%ADD74C,0.3000*%
%ADD76C,4.0000*%
%ADD77C,0.4000*%
%ADD79C,0.7000*%
%ADD80C,0.8000*%
%ADD81C,1.2000*%
G04:AMPARAMS|DCode=82|XSize=1mm|YSize=2.7mm|CornerRadius=0.25mm|HoleSize=0mm|Usage=FLASHONLY|Rotation=0.000|XOffset=0mm|YOffset=0mm|HoleType=Round|Shape=RoundedRectangle|*
%AMROUNDEDRECTD82*
21,1,1.0000,2.2000,0,0,0.0*
21,1,0.5000,2.7000,0,0,0.0*
1,1,0.5000,0.2500,-1.1000*
1,1,0.5000,-0.2500,-1.1000*
1,1,0.5000,-0.2500,1.1000*
1,1,0.5000,0.2500,1.1000*
%
%ADD82ROUNDEDRECTD82*%
G04:AMPARAMS|DCode=83|XSize=18.75mm|YSize=8.3mm|CornerRadius=0.83mm|HoleSize=0mm|Usage=FLASHONLY|Rotation=0.000|XOffset=0mm|YOffset=0mm|HoleType=Round|Shape=RoundedRectangle|*
%AMROUNDEDRECTD83*
21,1,18.7500,6.6400,0,0,0.0*
21,1,17.0900,8.3000,0,0,0.0*
1,1,1.6600,8.5450,-3.3200*
1,1,1.6600,-8.5450,-3.3200*
1,1,1.6600,-8.5450,3.3200*
1,1,1.6600,8.5450,3.3200*
%
%ADD83ROUNDEDRECTD83*%
%ADD84R,1.7000X0.7000*%
G36*
X1452644Y1300986D02*
X1456754Y1299885D01*
X1460684Y1298257D01*
X1464368Y1296130D01*
X1467742Y1293540D01*
X1470750Y1290533D01*
X1473340Y1287157D01*
X1475467Y1283474D01*
X1477095Y1279544D01*
X1478196Y1275434D01*
X1478751Y1271217D01*
Y1269090D01*
Y761260D01*
Y759133D01*
X1478196Y754916D01*
X1477095Y750807D01*
X1475467Y746876D01*
X1473340Y743192D01*
X1470750Y739818D01*
X1467742Y736810D01*
X1464368Y734220D01*
X1460684Y732093D01*
X1456754Y730465D01*
X1452644Y729364D01*
X1448427Y728809D01*
X1235282D01*
X1234782Y730079D01*
X1236032Y731329D01*
X1236900Y733424D01*
Y735691D01*
X1236032Y737786D01*
X1235767Y738051D01*
Y756371D01*
X1238185D01*
Y786771D01*
X1224785D01*
Y756371D01*
X1227203D01*
Y738622D01*
X1226368Y737786D01*
X1225500Y735691D01*
Y733424D01*
X1226368Y731329D01*
X1227618Y730079D01*
X1227118Y728809D01*
X797273D01*
X793056Y729364D01*
X788947Y730465D01*
X785016Y732093D01*
X781332Y734220D01*
X777958Y736809D01*
X774950Y739818D01*
X772360Y743192D01*
X770233Y746876D01*
X768605Y750807D01*
X767504Y754916D01*
X766949Y759133D01*
Y761260D01*
Y1269090D01*
Y1271217D01*
X767504Y1275434D01*
X768605Y1279544D01*
X770233Y1283474D01*
X772360Y1287158D01*
X774950Y1290532D01*
X777958Y1293540D01*
X781332Y1296130D01*
X785016Y1298257D01*
X788947Y1299885D01*
X793056Y1300986D01*
X797273Y1301541D01*
X1448427D01*
X1452644Y1300986D01*
D02*
G37*
%LPC*%
G36*
X1448437Y1290792D02*
X1444163D01*
X1439970Y1289958D01*
X1436021Y1288323D01*
X1432467Y1285948D01*
X1429444Y1282925D01*
X1427070Y1279371D01*
X1425434Y1275422D01*
X1424600Y1271230D01*
Y1266955D01*
X1425434Y1262763D01*
X1427070Y1258814D01*
X1429444Y1255259D01*
X1432467Y1252237D01*
X1436021Y1249862D01*
X1439970Y1248226D01*
X1444163Y1247393D01*
X1448437D01*
X1452630Y1248226D01*
X1456579Y1249862D01*
X1460133Y1252237D01*
X1463156Y1255259D01*
X1465530Y1258814D01*
X1467166Y1262763D01*
X1468000Y1266955D01*
Y1271230D01*
X1467166Y1275422D01*
X1465530Y1279371D01*
X1463156Y1282925D01*
X1460133Y1285948D01*
X1456579Y1288323D01*
X1452630Y1289958D01*
X1448437Y1290792D01*
D02*
G37*
G36*
X801537D02*
X797263D01*
X793070Y1289958D01*
X789121Y1288323D01*
X785567Y1285948D01*
X782544Y1282925D01*
X780170Y1279371D01*
X778534Y1275422D01*
X777700Y1271230D01*
Y1266955D01*
X778534Y1262763D01*
X780170Y1258814D01*
X782544Y1255259D01*
X785567Y1252237D01*
X789121Y1249862D01*
X793070Y1248226D01*
X797263Y1247393D01*
X801537D01*
X805730Y1248226D01*
X809679Y1249862D01*
X813233Y1252237D01*
X816255Y1255259D01*
X818630Y1258814D01*
X820266Y1262763D01*
X821100Y1266955D01*
Y1271230D01*
X820266Y1275422D01*
X818630Y1279371D01*
X816255Y1282925D01*
X813233Y1285948D01*
X809679Y1288323D01*
X805730Y1289958D01*
X801537Y1290792D01*
D02*
G37*
G36*
X907110Y1252139D02*
X902110D01*
X900183Y1251755D01*
X904610Y1247328D01*
X909037Y1251755D01*
X907110Y1252139D01*
D02*
G37*
G36*
X904610Y1224671D02*
X900183Y1220245D01*
X902110Y1219861D01*
X907110D01*
X909037Y1220245D01*
X904610Y1224671D01*
D02*
G37*
G36*
X1269595Y1298575D02*
X865592D01*
X863954Y1298249D01*
X862564Y1297320D01*
X826582Y1261338D01*
X825653Y1259949D01*
X825328Y1258310D01*
Y1251200D01*
X822910D01*
Y1220800D01*
X836310D01*
Y1251200D01*
X833892D01*
Y1256536D01*
X839532Y1262176D01*
X840588Y1261571D01*
X840642Y1261490D01*
X840328Y1259910D01*
Y1251200D01*
X837910D01*
Y1220800D01*
X851310D01*
Y1251200D01*
X848892D01*
Y1258136D01*
X874066Y1283310D01*
X875895D01*
X876381Y1282137D01*
X856582Y1262338D01*
X855653Y1260948D01*
X855328Y1259310D01*
Y1251200D01*
X852910D01*
Y1220800D01*
X866310D01*
Y1251200D01*
X863892D01*
Y1257536D01*
X882966Y1276610D01*
X886795D01*
X887281Y1275437D01*
X871582Y1259738D01*
X870654Y1258348D01*
X870328Y1256710D01*
Y1251200D01*
X867910D01*
Y1220800D01*
X881310D01*
Y1251200D01*
X878892D01*
Y1254936D01*
X893866Y1269910D01*
X896495D01*
X896981Y1268737D01*
X886582Y1258338D01*
X885653Y1256948D01*
X885328Y1255310D01*
Y1251200D01*
X882910D01*
Y1220800D01*
X896310D01*
Y1222323D01*
X896732Y1222451D01*
X903195Y1228914D01*
X904610Y1227500D01*
X906024Y1228914D01*
X911865Y1223073D01*
X912249Y1225000D01*
Y1247000D01*
X911865Y1248927D01*
X906024Y1243086D01*
X904610Y1244500D01*
X903195Y1243086D01*
X896732Y1249549D01*
X896310Y1249677D01*
Y1251200D01*
X893892D01*
Y1253536D01*
X903566Y1263210D01*
X1062835D01*
X1063091Y1261966D01*
X1062817Y1261848D01*
X1062676Y1261751D01*
X1062519Y1261684D01*
X1058420Y1258864D01*
X1058301Y1258741D01*
X1058160Y1258645D01*
X1056435Y1256872D01*
X1022381Y1222818D01*
X1022005Y1222256D01*
X1021873Y1221592D01*
X1022005Y1220929D01*
X1022381Y1220367D01*
X1056241Y1186506D01*
X1056241Y1186506D01*
X1058010Y1184737D01*
X1058152Y1184642D01*
X1058273Y1184522D01*
X1062433Y1181742D01*
X1062591Y1181677D01*
X1062733Y1181582D01*
X1067355Y1179667D01*
X1067523Y1179634D01*
X1067680Y1179568D01*
X1072588Y1178592D01*
X1072758D01*
X1072926Y1178559D01*
X1075427Y1178559D01*
X1082014D01*
X1082417Y1178506D01*
X1253317D01*
X1255927Y1178850D01*
X1258360Y1179857D01*
X1260265Y1181319D01*
X1261535Y1180994D01*
Y1177524D01*
X1260904Y1176893D01*
X1260036Y1174798D01*
Y1172530D01*
X1260514Y1171376D01*
X1259471Y1170575D01*
X1258360Y1171428D01*
X1255927Y1172436D01*
X1253317Y1172779D01*
X1082417D01*
X1082014Y1172726D01*
X1075427D01*
X1075416Y1172724D01*
X1075404Y1172726D01*
X1072916Y1172692D01*
X1072749Y1172657D01*
X1072579Y1172655D01*
X1067712Y1171618D01*
X1067555Y1171551D01*
X1067388Y1171515D01*
X1062817Y1169549D01*
X1062676Y1169452D01*
X1062519Y1169385D01*
X1058420Y1166564D01*
X1058301Y1166442D01*
X1058160Y1166345D01*
X1056435Y1164573D01*
X1022381Y1130519D01*
X1022005Y1129956D01*
X1021873Y1129293D01*
X1022005Y1128630D01*
X1022381Y1128067D01*
X1056241Y1094207D01*
X1056241Y1094207D01*
X1058010Y1092438D01*
X1058152Y1092343D01*
X1058273Y1092222D01*
X1062433Y1089443D01*
X1062591Y1089377D01*
X1062733Y1089282D01*
X1067355Y1087368D01*
X1067523Y1087334D01*
X1067680Y1087269D01*
X1072588Y1086293D01*
X1072758D01*
X1072926Y1086260D01*
X1075427Y1086260D01*
X1082014D01*
X1082417Y1086207D01*
X1253317D01*
X1255927Y1086551D01*
X1258360Y1087558D01*
X1260449Y1089161D01*
X1261098Y1090006D01*
X1262368Y1089575D01*
Y1077710D01*
X1261098Y1077279D01*
X1260449Y1078124D01*
X1258360Y1079727D01*
X1255927Y1080735D01*
X1253317Y1081079D01*
X1082417D01*
X1082014Y1081026D01*
X1075427D01*
X1075416Y1081023D01*
X1075404Y1081026D01*
X1072916Y1080992D01*
X1072749Y1080956D01*
X1072579Y1080954D01*
X1067712Y1079917D01*
X1067555Y1079850D01*
X1067388Y1079814D01*
X1062817Y1077848D01*
X1062676Y1077751D01*
X1062519Y1077684D01*
X1059629Y1075696D01*
X1058813Y1076676D01*
X1062819Y1080682D01*
X1063195Y1081244D01*
X1063327Y1081908D01*
X1063195Y1082571D01*
X1062819Y1083133D01*
X1028959Y1116994D01*
X1028959Y1116994D01*
X1027190Y1118763D01*
X1027048Y1118857D01*
X1026927Y1118978D01*
X1022767Y1121758D01*
X1022609Y1121823D01*
X1022467Y1121918D01*
X1017845Y1123833D01*
X1017677Y1123866D01*
X1017520Y1123931D01*
X1012612Y1124908D01*
X1012442D01*
X1012274Y1124941D01*
X1009773Y1124941D01*
X1009773Y1124941D01*
X1003186D01*
X1002783Y1124994D01*
X831883D01*
X829273Y1124650D01*
X826840Y1123643D01*
X824751Y1122040D01*
X823148Y1119951D01*
X822141Y1117518D01*
X821797Y1114908D01*
Y1048508D01*
X822141Y1045897D01*
X823148Y1043464D01*
X824751Y1041375D01*
X826840Y1039772D01*
X829273Y1038765D01*
X831883Y1038421D01*
X1002783D01*
X1003186Y1038474D01*
X1009773D01*
X1009784Y1038476D01*
X1009796Y1038474D01*
X1012284Y1038508D01*
X1012451Y1038544D01*
X1012622Y1038546D01*
X1017488Y1039583D01*
X1017645Y1039650D01*
X1017812Y1039686D01*
X1022383Y1041652D01*
X1022524Y1041749D01*
X1022681Y1041816D01*
X1025571Y1043804D01*
X1026387Y1042824D01*
X1022381Y1038818D01*
X1022005Y1038256D01*
X1021873Y1037592D01*
X1022005Y1036929D01*
X1022381Y1036367D01*
X1056241Y1002506D01*
X1056241Y1002506D01*
X1058010Y1000737D01*
X1058152Y1000642D01*
X1058273Y1000522D01*
X1062433Y997742D01*
X1062591Y997677D01*
X1062733Y997582D01*
X1067355Y995667D01*
X1067523Y995634D01*
X1067680Y995568D01*
X1072588Y994592D01*
X1072758D01*
X1072926Y994559D01*
X1075427Y994559D01*
X1082014D01*
X1082417Y994506D01*
X1253317D01*
X1255927Y994850D01*
X1258360Y995857D01*
X1260449Y997460D01*
X1261098Y998306D01*
X1262368Y997875D01*
Y985710D01*
X1261098Y985279D01*
X1260449Y986124D01*
X1258360Y987727D01*
X1255927Y988735D01*
X1253317Y989079D01*
X1082417D01*
X1082014Y989026D01*
X1075427D01*
X1075416Y989023D01*
X1075404Y989026D01*
X1072916Y988992D01*
X1072749Y988956D01*
X1072579Y988954D01*
X1067712Y987917D01*
X1067555Y987850D01*
X1067388Y987814D01*
X1062817Y985848D01*
X1062676Y985751D01*
X1062519Y985684D01*
X1059629Y983696D01*
X1058813Y984676D01*
X1062819Y988682D01*
X1063195Y989244D01*
X1063327Y989908D01*
X1063195Y990571D01*
X1062819Y991133D01*
X1028959Y1024994D01*
X1028959Y1024994D01*
X1027190Y1026763D01*
X1027048Y1026858D01*
X1026927Y1026978D01*
X1022767Y1029758D01*
X1022609Y1029823D01*
X1022467Y1029918D01*
X1017845Y1031833D01*
X1017677Y1031866D01*
X1017520Y1031931D01*
X1012612Y1032907D01*
X1012442D01*
X1012274Y1032941D01*
X1009773Y1032941D01*
X1009773Y1032941D01*
X1003186D01*
X1002783Y1032994D01*
X831883D01*
X829273Y1032650D01*
X826840Y1031643D01*
X824751Y1030040D01*
X823148Y1027951D01*
X822141Y1025518D01*
X821797Y1022907D01*
Y956507D01*
X822141Y953897D01*
X823148Y951464D01*
X824751Y949375D01*
X826840Y947773D01*
X829273Y946765D01*
X831883Y946421D01*
X1002783D01*
X1003186Y946474D01*
X1009773D01*
X1009784Y946477D01*
X1009796Y946474D01*
X1012284Y946508D01*
X1012451Y946544D01*
X1012622Y946546D01*
X1017488Y947582D01*
X1017645Y947650D01*
X1017812Y947685D01*
X1022383Y949652D01*
X1022524Y949749D01*
X1022681Y949816D01*
X1025571Y951804D01*
X1026387Y950824D01*
X1022381Y946818D01*
X1022005Y946256D01*
X1021873Y945592D01*
X1022005Y944929D01*
X1022381Y944367D01*
X1056241Y910506D01*
X1056241Y910506D01*
X1058010Y908737D01*
X1058152Y908643D01*
X1058273Y908522D01*
X1062433Y905742D01*
X1062591Y905677D01*
X1062733Y905582D01*
X1067355Y903667D01*
X1067523Y903634D01*
X1067680Y903568D01*
X1072588Y902592D01*
X1072758D01*
X1072926Y902559D01*
X1075427Y902559D01*
X1082014D01*
X1082417Y902506D01*
X1253317D01*
X1255927Y902850D01*
X1258360Y903857D01*
X1260449Y905460D01*
X1261098Y906306D01*
X1262368Y905875D01*
Y893643D01*
X1261098Y893212D01*
X1260422Y894092D01*
X1258333Y895695D01*
X1255901Y896702D01*
X1253290Y897046D01*
X1082390D01*
X1081988Y896993D01*
X1075401D01*
X1075389Y896991D01*
X1075377Y896993D01*
X1072890Y896959D01*
X1072723Y896924D01*
X1072552Y896922D01*
X1067685Y895885D01*
X1067528Y895817D01*
X1067361Y895782D01*
X1062790Y893816D01*
X1062650Y893719D01*
X1062493Y893652D01*
X1058624Y890990D01*
X1057808Y891970D01*
X1062819Y896981D01*
X1063195Y897544D01*
X1063327Y898207D01*
X1063195Y898870D01*
X1062819Y899433D01*
X1028959Y933293D01*
X1028959Y933293D01*
X1027190Y935062D01*
X1027048Y935157D01*
X1026927Y935278D01*
X1022767Y938057D01*
X1022609Y938123D01*
X1022467Y938217D01*
X1017845Y940132D01*
X1017677Y940165D01*
X1017520Y940231D01*
X1012612Y941207D01*
X1012442D01*
X1012274Y941240D01*
X1009773Y941240D01*
X1009773Y941240D01*
X1003186D01*
X1002783Y941293D01*
X831883D01*
X829273Y940949D01*
X826840Y939942D01*
X824751Y938339D01*
X823148Y936250D01*
X822141Y933817D01*
X821797Y931207D01*
Y864807D01*
X822141Y862196D01*
X823148Y859764D01*
X824751Y857675D01*
X826840Y856072D01*
X829273Y855064D01*
X831883Y854721D01*
X1002783D01*
X1003186Y854774D01*
X1009773D01*
X1009784Y854776D01*
X1009796Y854774D01*
X1012284Y854807D01*
X1012451Y854843D01*
X1012622Y854845D01*
X1017488Y855882D01*
X1017645Y855949D01*
X1017812Y855985D01*
X1022383Y857951D01*
X1022524Y858048D01*
X1022681Y858115D01*
X1026549Y860777D01*
X1027365Y859797D01*
X1022354Y854786D01*
X1021978Y854223D01*
X1021846Y853560D01*
X1021978Y852897D01*
X1022354Y852334D01*
X1056215Y818474D01*
X1056215Y818474D01*
X1057984Y816705D01*
X1058126Y816610D01*
X1058246Y816489D01*
X1062406Y813709D01*
X1062564Y813644D01*
X1062706Y813549D01*
X1067329Y811635D01*
X1067496Y811601D01*
X1067654Y811536D01*
X1072561Y810560D01*
X1072732D01*
X1072899Y810527D01*
X1075401Y810527D01*
X1081988D01*
X1082390Y810474D01*
X1253029D01*
X1253743Y809391D01*
X1243457Y799105D01*
X1242529Y797716D01*
X1242203Y796077D01*
Y786771D01*
X1239785D01*
Y756371D01*
X1253185D01*
Y786771D01*
X1250767D01*
Y794303D01*
X1255972Y799508D01*
X1256622Y799338D01*
X1257203Y798943D01*
Y786771D01*
X1254785D01*
Y756371D01*
X1268185D01*
Y786771D01*
X1265767D01*
Y797411D01*
X1276378Y808022D01*
X1277306Y809411D01*
X1277632Y811050D01*
Y818661D01*
X1278902Y818914D01*
X1279148Y818321D01*
X1280222Y816921D01*
X1297542Y799602D01*
X1298941Y798528D01*
X1300571Y797852D01*
X1302320Y797622D01*
X1380680D01*
X1382429Y797852D01*
X1384059Y798528D01*
X1385458Y799602D01*
X1402045Y816189D01*
X1403120Y817588D01*
X1403795Y819218D01*
X1404025Y820967D01*
Y876879D01*
X1403795Y878628D01*
X1403120Y880258D01*
X1402046Y881658D01*
X1392458Y891245D01*
Y1008100D01*
X1392227Y1009849D01*
X1391552Y1011479D01*
X1390478Y1012878D01*
X1385678Y1017678D01*
X1342527Y1060830D01*
X1342625Y1061067D01*
X1342856Y1062816D01*
X1342625Y1064565D01*
X1341950Y1066195D01*
X1340876Y1067594D01*
X1339477Y1068668D01*
X1337847Y1069343D01*
X1336098Y1069574D01*
X1317302D01*
X1315553Y1069343D01*
X1313923Y1068668D01*
X1313654Y1068462D01*
X1312384Y1069088D01*
Y1082428D01*
X1331056Y1101100D01*
X1331834D01*
X1333929Y1101968D01*
X1335532Y1103571D01*
X1336400Y1105666D01*
Y1107934D01*
X1335532Y1110029D01*
X1333929Y1111632D01*
X1331834Y1112500D01*
X1331588D01*
X1331102Y1113673D01*
X1342948Y1125520D01*
X1343910Y1125918D01*
X1345513Y1127522D01*
X1345911Y1128483D01*
X1360527Y1143098D01*
X1361873Y1142649D01*
X1362568Y1140971D01*
X1364171Y1139368D01*
X1365625Y1138766D01*
X1366403Y1137327D01*
X1366150Y1136715D01*
Y1134447D01*
X1367018Y1132352D01*
X1368621Y1130749D01*
X1368842Y1130657D01*
Y1106584D01*
X1367458Y1105200D01*
X1366366D01*
X1364271Y1104332D01*
X1362668Y1102729D01*
X1361800Y1100634D01*
Y1098366D01*
X1362668Y1096271D01*
X1364271Y1094668D01*
X1366366Y1093800D01*
X1368634D01*
X1370729Y1094668D01*
X1372332Y1096271D01*
X1373200Y1098366D01*
Y1100634D01*
X1372672Y1101907D01*
X1373977Y1103211D01*
X1374629Y1104187D01*
X1374858Y1105338D01*
Y1130657D01*
X1375079Y1130749D01*
X1376682Y1132352D01*
X1376759Y1132537D01*
X1378004Y1132785D01*
X1378371Y1132418D01*
X1380466Y1131550D01*
X1382734D01*
X1384829Y1132418D01*
X1386432Y1134021D01*
X1386524Y1134242D01*
X1422850D01*
X1424001Y1134471D01*
X1424977Y1135123D01*
X1436130Y1146276D01*
X1436782Y1147251D01*
X1437011Y1148402D01*
Y1175502D01*
X1436782Y1176653D01*
X1436130Y1177629D01*
X1429682Y1184077D01*
X1428707Y1184729D01*
X1427556Y1184958D01*
X1426587D01*
Y1187140D01*
X1426588Y1187150D01*
X1426611Y1188410D01*
X1427427D01*
Y1197662D01*
X1422802Y1193036D01*
X1419973Y1195864D01*
X1424599Y1200490D01*
X1408176D01*
X1412802Y1195864D01*
X1409973Y1193036D01*
X1405347Y1197662D01*
Y1188410D01*
X1406163D01*
X1406187Y1187150D01*
X1406187Y1187140D01*
Y1176750D01*
X1426587D01*
Y1177005D01*
X1427761Y1177491D01*
X1430995Y1174257D01*
Y1170223D01*
X1429822Y1169737D01*
X1427982Y1171577D01*
X1427007Y1172229D01*
X1426587Y1172312D01*
Y1174650D01*
X1406187D01*
Y1164250D01*
X1425894D01*
X1426458Y1163200D01*
X1425894Y1162150D01*
X1416900D01*
X1416387Y1162252D01*
X1415875Y1162150D01*
X1406187D01*
Y1157643D01*
X1379702D01*
Y1222645D01*
X1405975D01*
X1408004Y1223049D01*
X1408089Y1223106D01*
X1408899Y1222120D01*
X1397069Y1210290D01*
X1397043Y1210300D01*
X1394775D01*
X1392680Y1209432D01*
X1391077Y1207829D01*
X1390209Y1205734D01*
Y1203466D01*
X1391077Y1201372D01*
X1392680Y1199768D01*
X1394775Y1198900D01*
X1397043D01*
X1399138Y1199768D01*
X1400741Y1201372D01*
X1401609Y1203466D01*
Y1205734D01*
X1401437Y1206150D01*
X1419027Y1223740D01*
X1419679Y1224716D01*
X1419908Y1225867D01*
Y1242176D01*
X1420129Y1242268D01*
X1421732Y1243871D01*
X1422600Y1245966D01*
Y1248234D01*
X1421732Y1250329D01*
X1420129Y1251932D01*
X1418034Y1252800D01*
X1415766D01*
X1413671Y1251932D01*
X1412068Y1250329D01*
X1411200Y1248234D01*
Y1245966D01*
X1412068Y1243871D01*
X1413671Y1242268D01*
X1413892Y1242176D01*
Y1236431D01*
X1412719Y1235944D01*
X1412679Y1235984D01*
X1410584Y1236852D01*
X1408316D01*
X1406221Y1235984D01*
X1404618Y1234381D01*
X1404149Y1233249D01*
X1363075D01*
X1362333Y1234519D01*
X1362952Y1236014D01*
Y1238281D01*
X1362425Y1239555D01*
X1366263Y1243392D01*
X1380876D01*
X1380968Y1243171D01*
X1382571Y1241568D01*
X1384666Y1240700D01*
X1386934D01*
X1389029Y1241568D01*
X1390632Y1243171D01*
X1391500Y1245266D01*
Y1247534D01*
X1390632Y1249629D01*
X1389029Y1251232D01*
X1386934Y1252100D01*
X1384666D01*
X1382571Y1251232D01*
X1380968Y1249629D01*
X1380876Y1249408D01*
X1365017D01*
X1363866Y1249179D01*
X1362890Y1248527D01*
X1362890Y1248527D01*
X1357211Y1242847D01*
X1356119D01*
X1354024Y1241980D01*
X1352420Y1240376D01*
X1352001Y1239364D01*
X1350628Y1239015D01*
X1349895Y1239614D01*
Y1247909D01*
X1349492Y1249938D01*
X1348342Y1251658D01*
X1339804Y1260196D01*
Y1264900D01*
X1339401Y1266928D01*
X1338251Y1268649D01*
X1334151Y1272749D01*
X1332431Y1273898D01*
X1330402Y1274302D01*
X1317000D01*
X1314971Y1273898D01*
X1313251Y1272749D01*
X1303578Y1263076D01*
X1302308Y1263602D01*
Y1265862D01*
X1301982Y1267501D01*
X1301054Y1268890D01*
X1272623Y1297320D01*
X1271234Y1298249D01*
X1269595Y1298575D01*
D02*
G37*
G36*
X1002810Y1217326D02*
X831910D01*
X829299Y1216983D01*
X826867Y1215975D01*
X824778Y1214372D01*
X823175Y1212283D01*
X822167Y1209850D01*
X821824Y1207240D01*
Y1140840D01*
X822167Y1138230D01*
X823175Y1135797D01*
X824778Y1133708D01*
X826867Y1132105D01*
X829299Y1131097D01*
X831910Y1130754D01*
X1002810D01*
X1003212Y1130807D01*
X1009799D01*
X1009811Y1130809D01*
X1009823Y1130807D01*
X1012310Y1130841D01*
X1012477Y1130876D01*
X1012648Y1130878D01*
X1017515Y1131915D01*
X1017672Y1131982D01*
X1017839Y1132018D01*
X1022410Y1133984D01*
X1022550Y1134081D01*
X1022707Y1134148D01*
X1026807Y1136969D01*
X1026926Y1137091D01*
X1027066Y1137188D01*
X1028792Y1138960D01*
X1062846Y1173014D01*
X1063222Y1173577D01*
X1063354Y1174240D01*
X1063222Y1174903D01*
X1062846Y1175466D01*
X1028985Y1209326D01*
X1028985Y1209326D01*
X1027216Y1211095D01*
X1027075Y1211190D01*
X1026954Y1211311D01*
X1022794Y1214090D01*
X1022636Y1214156D01*
X1022494Y1214251D01*
X1017871Y1216165D01*
X1017704Y1216199D01*
X1017546Y1216264D01*
X1012639Y1217240D01*
X1012468D01*
X1012301Y1217273D01*
X1009799Y1217273D01*
X1009799Y1217273D01*
X1003212D01*
X1002810Y1217326D01*
D02*
G37*
G36*
X1188985Y786853D02*
X1183985D01*
X1182346Y786527D01*
X1180957Y785599D01*
X1180029Y784210D01*
X1179703Y782571D01*
Y776873D01*
X1113966D01*
X1113005Y777271D01*
X1110737D01*
X1108642Y776403D01*
X1107039Y774800D01*
X1106171Y772705D01*
Y770437D01*
X1107039Y768342D01*
X1108642Y766739D01*
X1110737Y765871D01*
X1113005D01*
X1113966Y766269D01*
X1179703D01*
Y760571D01*
X1180029Y758932D01*
X1180957Y757543D01*
X1182346Y756615D01*
X1183985Y756289D01*
X1188985D01*
X1190624Y756615D01*
X1192013Y757543D01*
X1192941Y758932D01*
X1193267Y760571D01*
Y782571D01*
X1192941Y784210D01*
X1192013Y785599D01*
X1190624Y786527D01*
X1188985Y786853D01*
D02*
G37*
G36*
X1002783Y848994D02*
X831883D01*
X829273Y848650D01*
X826840Y847643D01*
X824751Y846040D01*
X823148Y843951D01*
X822141Y841518D01*
X821797Y838907D01*
Y772507D01*
X822141Y769897D01*
X823148Y767464D01*
X824751Y765375D01*
X826840Y763773D01*
X829273Y762765D01*
X831883Y762421D01*
X1002783D01*
X1003186Y762474D01*
X1009773D01*
X1009784Y762477D01*
X1009796Y762474D01*
X1012284Y762508D01*
X1012451Y762544D01*
X1012622Y762546D01*
X1017488Y763583D01*
X1017645Y763650D01*
X1017812Y763686D01*
X1022383Y765652D01*
X1022524Y765749D01*
X1022681Y765816D01*
X1026780Y768636D01*
X1026899Y768759D01*
X1027040Y768855D01*
X1028765Y770628D01*
X1062819Y804682D01*
X1063195Y805244D01*
X1063327Y805908D01*
X1063195Y806571D01*
X1062819Y807133D01*
X1028959Y840994D01*
X1028959Y840994D01*
X1027190Y842763D01*
X1027048Y842858D01*
X1026927Y842978D01*
X1022767Y845758D01*
X1022609Y845823D01*
X1022467Y845918D01*
X1017845Y847833D01*
X1017677Y847866D01*
X1017520Y847931D01*
X1012612Y848907D01*
X1012442D01*
X1012274Y848941D01*
X1009773Y848941D01*
X1009773Y848941D01*
X1003186D01*
X1002783Y848994D01*
D02*
G37*
G36*
X1208185Y786771D02*
X1194785D01*
Y756371D01*
X1196930D01*
Y754162D01*
X1196380Y753612D01*
X1195513Y751517D01*
Y749250D01*
X1196380Y747155D01*
X1197984Y745551D01*
X1200079Y744684D01*
X1202346D01*
X1204442Y745551D01*
X1206045Y747155D01*
X1206913Y749250D01*
Y751517D01*
X1206045Y753612D01*
X1205495Y754162D01*
Y756371D01*
X1208185D01*
Y786771D01*
D02*
G37*
G36*
X1448437Y782958D02*
X1444163D01*
X1439970Y782124D01*
X1436021Y780488D01*
X1432467Y778113D01*
X1429444Y775091D01*
X1427070Y771536D01*
X1425434Y767587D01*
X1424600Y763395D01*
Y759120D01*
X1425434Y754928D01*
X1427070Y750979D01*
X1429444Y747425D01*
X1432467Y744402D01*
X1436021Y742027D01*
X1439970Y740392D01*
X1444163Y739558D01*
X1448437D01*
X1452630Y740392D01*
X1456579Y742027D01*
X1460133Y744402D01*
X1463156Y747425D01*
X1465530Y750979D01*
X1467166Y754928D01*
X1468000Y759120D01*
Y763395D01*
X1467166Y767587D01*
X1465530Y771536D01*
X1463156Y775091D01*
X1460133Y778113D01*
X1456579Y780488D01*
X1452630Y782124D01*
X1448437Y782958D01*
D02*
G37*
G36*
X801537D02*
X797263D01*
X793070Y782124D01*
X789121Y780488D01*
X785567Y778113D01*
X782544Y775091D01*
X780170Y771536D01*
X778534Y767587D01*
X777700Y763395D01*
Y759120D01*
X778534Y754928D01*
X780170Y750979D01*
X782544Y747425D01*
X785567Y744402D01*
X789121Y742027D01*
X793070Y740392D01*
X797263Y739558D01*
X801537D01*
X805730Y740392D01*
X809679Y742027D01*
X813233Y744402D01*
X816255Y747425D01*
X818630Y750979D01*
X820266Y754928D01*
X821100Y759120D01*
Y763395D01*
X820266Y767587D01*
X818630Y771536D01*
X816255Y775091D01*
X813233Y778113D01*
X809679Y780488D01*
X805730Y782124D01*
X801537Y782958D01*
D02*
G37*
G36*
X1223185Y786771D02*
X1209785D01*
Y756371D01*
X1212203D01*
Y745962D01*
X1211653Y745412D01*
X1210785Y743317D01*
Y741050D01*
X1211653Y738955D01*
X1213256Y737351D01*
X1215351Y736484D01*
X1217619D01*
X1219714Y737351D01*
X1221317Y738955D01*
X1222185Y741050D01*
Y743317D01*
X1221317Y745412D01*
X1220767Y745962D01*
Y756371D01*
X1223185D01*
Y786771D01*
D02*
G37*
%LPD*%
G36*
X1138906Y1180293D02*
X1075427D01*
X1072926Y1180292D01*
X1068018Y1181268D01*
X1063396Y1183183D01*
X1059236Y1185963D01*
X1057467Y1187732D01*
X1023606Y1221592D01*
X1057667Y1255653D01*
X1057667Y1255653D01*
X1059402Y1257436D01*
X1063502Y1260256D01*
X1068073Y1262222D01*
X1072940Y1263259D01*
X1075427Y1263292D01*
X1138906Y1263292D01*
Y1180293D01*
D02*
G37*
G36*
X1297466Y1213131D02*
X1299734D01*
X1301248Y1213758D01*
X1302518Y1213029D01*
Y1204905D01*
X1280987Y1183374D01*
X1279717Y1183901D01*
Y1185634D01*
X1278849Y1187729D01*
X1277982Y1188596D01*
Y1193497D01*
X1279252Y1194051D01*
X1281066Y1193300D01*
X1283334D01*
X1285429Y1194168D01*
X1287032Y1195771D01*
X1287900Y1197866D01*
Y1200134D01*
X1287032Y1202229D01*
X1286893Y1202367D01*
X1286991Y1203329D01*
X1288197Y1204043D01*
X1289266Y1203600D01*
X1291534D01*
X1293629Y1204468D01*
X1295232Y1206071D01*
X1296100Y1208166D01*
Y1210434D01*
X1295232Y1212529D01*
X1295842Y1213699D01*
X1295952Y1213758D01*
X1297466Y1213131D01*
D02*
G37*
G36*
X1138906Y1087993D02*
X1075427D01*
X1072926Y1087993D01*
X1068018Y1088969D01*
X1063396Y1090884D01*
X1059236Y1093663D01*
X1057467Y1095433D01*
X1023606Y1129293D01*
X1057667Y1163353D01*
X1057667Y1163353D01*
X1059402Y1165136D01*
X1063502Y1167956D01*
X1068073Y1169923D01*
X1072940Y1170959D01*
X1075427Y1170993D01*
X1138906Y1170993D01*
Y1087993D01*
D02*
G37*
G36*
X1339291Y1245713D02*
Y1236796D01*
X1339695Y1234767D01*
X1340844Y1233047D01*
X1349693Y1224198D01*
X1351413Y1223049D01*
X1353442Y1222645D01*
X1369098D01*
Y1159890D01*
X1364519D01*
X1362490Y1159487D01*
X1360770Y1158337D01*
X1338413Y1135981D01*
X1337452Y1135583D01*
X1335849Y1133979D01*
X1335450Y1133018D01*
X1330565Y1128132D01*
X1329426Y1128694D01*
X1329501Y1129266D01*
Y1151409D01*
X1362547Y1184455D01*
X1364422Y1186899D01*
X1365601Y1189746D01*
X1366003Y1192800D01*
X1365601Y1195854D01*
X1364422Y1198700D01*
X1362547Y1201144D01*
X1360103Y1203020D01*
X1357257Y1204199D01*
X1354202Y1204601D01*
X1351148Y1204199D01*
X1348302Y1203020D01*
X1345858Y1201144D01*
X1309355Y1164642D01*
X1307480Y1162198D01*
X1306722Y1160368D01*
X1305721Y1160428D01*
X1305472Y1160494D01*
Y1162761D01*
X1304604Y1164856D01*
X1303001Y1166460D01*
X1301468Y1167095D01*
X1301077Y1168501D01*
X1332048Y1199471D01*
X1332755Y1200530D01*
X1333003Y1201778D01*
Y1227938D01*
X1333174Y1228008D01*
X1334777Y1229612D01*
X1335645Y1231707D01*
Y1233975D01*
X1334777Y1236069D01*
X1333174Y1237673D01*
X1331079Y1238541D01*
X1328811D01*
X1327328Y1237926D01*
X1326189Y1238561D01*
X1326076Y1239640D01*
X1328736Y1242300D01*
X1330334D01*
X1332429Y1243168D01*
X1334032Y1244771D01*
X1334900Y1246866D01*
Y1248308D01*
X1336170Y1248835D01*
X1339291Y1245713D01*
D02*
G37*
G36*
X1017181Y1122231D02*
X1021804Y1120317D01*
X1025964Y1117537D01*
X1027733Y1115768D01*
X1061594Y1081908D01*
X1027533Y1047847D01*
X1027533D01*
X1025798Y1046064D01*
X1021698Y1043244D01*
X1017127Y1041278D01*
X1012260Y1040241D01*
X1009773Y1040208D01*
X946294D01*
Y1123207D01*
X1009773D01*
X1009773Y1123207D01*
X1012274Y1123207D01*
X1017181Y1122231D01*
D02*
G37*
G36*
X1294305Y1159932D02*
X1294848Y1158621D01*
Y1120822D01*
X1293578Y1120081D01*
X1292084Y1120700D01*
X1289816D01*
X1288283Y1120065D01*
X1287013Y1120783D01*
Y1154436D01*
X1292899Y1160322D01*
X1294305Y1159932D01*
D02*
G37*
G36*
X1138906Y996292D02*
X1075427D01*
X1072926Y996292D01*
X1068018Y997269D01*
X1063396Y999183D01*
X1059236Y1001963D01*
X1057467Y1003732D01*
X1023606Y1037592D01*
X1057667Y1071653D01*
X1057667Y1071653D01*
X1059402Y1073436D01*
X1063502Y1076256D01*
X1068073Y1078222D01*
X1072940Y1079259D01*
X1075427Y1079292D01*
X1138906Y1079293D01*
Y996292D01*
D02*
G37*
G36*
X1017181Y1030231D02*
X1021804Y1028317D01*
X1025964Y1025537D01*
X1027733Y1023768D01*
X1061594Y989908D01*
X1027533Y955847D01*
X1027533D01*
X1025798Y954064D01*
X1021698Y951244D01*
X1017127Y949278D01*
X1012260Y948241D01*
X1009773Y948207D01*
X946294D01*
Y1031208D01*
X1009773D01*
X1009773Y1031208D01*
X1012274Y1031208D01*
X1017181Y1030231D01*
D02*
G37*
G36*
X1138906Y904293D02*
X1075427D01*
X1072926Y904293D01*
X1068018Y905268D01*
X1063396Y907183D01*
X1059236Y909963D01*
X1057467Y911732D01*
X1023606Y945592D01*
X1057667Y979653D01*
X1057667Y979653D01*
X1059402Y981436D01*
X1063502Y984256D01*
X1068073Y986222D01*
X1072940Y987259D01*
X1075427Y987292D01*
X1138906Y987292D01*
Y904293D01*
D02*
G37*
G36*
X1017181Y938531D02*
X1021804Y936616D01*
X1025964Y933836D01*
X1027733Y932067D01*
X1061594Y898207D01*
X1027533Y864147D01*
X1027533D01*
X1025798Y862364D01*
X1021698Y859543D01*
X1017127Y857577D01*
X1012260Y856541D01*
X1009773Y856507D01*
X946294D01*
Y939507D01*
X1009773D01*
X1009773Y939507D01*
X1012274Y939507D01*
X1017181Y938531D01*
D02*
G37*
G36*
X1280900Y1002386D02*
Y1000166D01*
X1281768Y998071D01*
X1283371Y996468D01*
X1285466Y995600D01*
X1287548D01*
X1287920Y995101D01*
X1288171Y994427D01*
X1281320Y987576D01*
X1280392Y986187D01*
X1280066Y984548D01*
Y925830D01*
X1279516Y925281D01*
X1278902Y923798D01*
X1277632Y924051D01*
Y1003994D01*
X1278805Y1004480D01*
X1280900Y1002386D01*
D02*
G37*
G36*
X1138880Y812260D02*
X1075401D01*
X1072899Y812260D01*
X1067992Y813236D01*
X1063369Y815151D01*
X1059209Y817931D01*
X1057440Y819699D01*
X1023580Y853560D01*
X1057640Y887620D01*
X1057640Y887620D01*
X1059376Y889403D01*
X1063475Y892224D01*
X1068046Y894190D01*
X1072913Y895226D01*
X1075401Y895260D01*
X1138880Y895260D01*
Y812260D01*
D02*
G37*
G36*
X1313923Y1056964D02*
X1315553Y1056288D01*
X1317302Y1056058D01*
X1328185D01*
X1376122Y1008121D01*
X1378942Y1005301D01*
Y933103D01*
X1378868Y933029D01*
X1378000Y930934D01*
Y928666D01*
X1378868Y926571D01*
X1378942Y926497D01*
Y888446D01*
X1379173Y886697D01*
X1379848Y885067D01*
X1380921Y883668D01*
X1384573Y880017D01*
X1384117Y878676D01*
X1383751Y878627D01*
X1382121Y877952D01*
X1380721Y876878D01*
X1379648Y875479D01*
X1378972Y873849D01*
X1378742Y872100D01*
Y837319D01*
X1362281Y820858D01*
X1361207Y819459D01*
X1360532Y817829D01*
X1360302Y816080D01*
X1360532Y814331D01*
X1361207Y812701D01*
X1361433Y812408D01*
X1360806Y811138D01*
X1335214D01*
X1334587Y812408D01*
X1334812Y812701D01*
X1335488Y814331D01*
X1335718Y816080D01*
X1335488Y817829D01*
X1334812Y819459D01*
X1333738Y820858D01*
X1320658Y833939D01*
Y879263D01*
X1321928Y879603D01*
X1322639Y878372D01*
X1324072Y876938D01*
X1325828Y875925D01*
X1327786Y875400D01*
X1329814D01*
X1331772Y875925D01*
X1333528Y876938D01*
X1334962Y878372D01*
X1335975Y880128D01*
X1336500Y882086D01*
Y884114D01*
X1335975Y886072D01*
X1335040Y887691D01*
Y890882D01*
X1335875Y892328D01*
X1336091Y893134D01*
X1340578Y897621D01*
X1341529Y898860D01*
X1342107Y898818D01*
X1342799Y898508D01*
Y840700D01*
X1343201Y837646D01*
X1344042Y835615D01*
X1343470Y834233D01*
Y832427D01*
X1343707Y831855D01*
X1346596Y834744D01*
X1349424Y831916D01*
X1346535Y829027D01*
X1347107Y828790D01*
X1348913D01*
X1350582Y829481D01*
X1350737Y829636D01*
X1351546Y829301D01*
X1354600Y828899D01*
X1357654Y829301D01*
X1359750Y830169D01*
X1360438Y829481D01*
X1362107Y828790D01*
X1363913D01*
X1364485Y829027D01*
X1361596Y831916D01*
X1364424Y834744D01*
X1367313Y831855D01*
X1367550Y832427D01*
Y834233D01*
X1366859Y835902D01*
X1365740Y837020D01*
X1365999Y837646D01*
X1366401Y840700D01*
Y845300D01*
X1366859Y845758D01*
X1367550Y847427D01*
Y849233D01*
X1366859Y850902D01*
X1366401Y851359D01*
Y942300D01*
Y953700D01*
X1365999Y956754D01*
X1364820Y959600D01*
X1362944Y962045D01*
X1360500Y963920D01*
X1357654Y965099D01*
X1354600Y965501D01*
X1351546Y965099D01*
X1348699Y963920D01*
X1346255Y962045D01*
X1344380Y959600D01*
X1343201Y956754D01*
X1342799Y953700D01*
Y942300D01*
Y938438D01*
X1342107Y938129D01*
X1341529Y938086D01*
X1340578Y939325D01*
X1337210Y942693D01*
Y957058D01*
X1337245Y957118D01*
X1337770Y959076D01*
Y961104D01*
X1337245Y963062D01*
X1336232Y964818D01*
X1334798Y966252D01*
X1333042Y967265D01*
X1331084Y967790D01*
X1329056D01*
X1327098Y967265D01*
X1325342Y966252D01*
X1323908Y964818D01*
X1322895Y963062D01*
X1322370Y961104D01*
Y959076D01*
X1322895Y957118D01*
X1323695Y955732D01*
Y939893D01*
X1323925Y938145D01*
X1324119Y937677D01*
X1324118Y937658D01*
X1323293Y936351D01*
X1322351Y936227D01*
X1320721Y935552D01*
X1319321Y934478D01*
X1309122Y924278D01*
X1308048Y922879D01*
X1307372Y921249D01*
X1307142Y919500D01*
Y831140D01*
X1307372Y829391D01*
X1308048Y827761D01*
X1309122Y826361D01*
X1323075Y812408D01*
X1322549Y811138D01*
X1305119D01*
X1289778Y826479D01*
X1288379Y827552D01*
X1286749Y828227D01*
X1285000Y828458D01*
X1283251Y828227D01*
X1281621Y827552D01*
X1280222Y826479D01*
X1279148Y825079D01*
X1278902Y824486D01*
X1277632Y824739D01*
Y920052D01*
X1278902Y920305D01*
X1279516Y918823D01*
X1281120Y917219D01*
X1283215Y916352D01*
X1285482D01*
X1287577Y917219D01*
X1289180Y918823D01*
X1290048Y920918D01*
Y923186D01*
X1289180Y925281D01*
X1288722Y925739D01*
X1288848Y926914D01*
X1289975Y927364D01*
X1290271Y927068D01*
X1292366Y926200D01*
X1294634D01*
X1296729Y927068D01*
X1298332Y928671D01*
X1299200Y930766D01*
Y933034D01*
X1298332Y935129D01*
X1297182Y936279D01*
Y977226D01*
X1305228Y985272D01*
X1306156Y986661D01*
X1306482Y988300D01*
Y1008102D01*
X1306452Y1008253D01*
Y1031599D01*
X1311130Y1036276D01*
X1312058Y1037666D01*
X1312384Y1039304D01*
Y1056544D01*
X1313654Y1057170D01*
X1313923Y1056964D01*
D02*
G37*
%LPC*%
G36*
X1333913Y852870D02*
X1332107D01*
X1331535Y852633D01*
X1333010Y851158D01*
X1334485Y852633D01*
X1333913Y852870D01*
D02*
G37*
G36*
X1328707Y849805D02*
X1328470Y849233D01*
Y847427D01*
X1328707Y846855D01*
X1330181Y848330D01*
X1328707Y849805D01*
D02*
G37*
G36*
X1337313D02*
X1335838Y848330D01*
X1337313Y846855D01*
X1337550Y847427D01*
Y849233D01*
X1337313Y849805D01*
D02*
G37*
G36*
X1333010Y845501D02*
X1331535Y844027D01*
X1332107Y843790D01*
X1333913D01*
X1334485Y844027D01*
X1333010Y845501D01*
D02*
G37*
G36*
X1333913Y837870D02*
X1332107D01*
X1331535Y837633D01*
X1333010Y836158D01*
X1334485Y837633D01*
X1333913Y837870D01*
D02*
G37*
G36*
X1328707Y834805D02*
X1328470Y834233D01*
Y832427D01*
X1328707Y831855D01*
X1330181Y833330D01*
X1328707Y834805D01*
D02*
G37*
G36*
X1337313D02*
X1335838Y833330D01*
X1337313Y831855D01*
X1337550Y832427D01*
Y834233D01*
X1337313Y834805D01*
D02*
G37*
G36*
X1333010Y830501D02*
X1331535Y829027D01*
X1332107Y828790D01*
X1333913D01*
X1334485Y829027D01*
X1333010Y830501D01*
D02*
G37*
%LPD*%
G36*
X1017208Y1214564D02*
X1021831Y1212649D01*
X1025991Y1209870D01*
X1027760Y1208101D01*
X1061620Y1174240D01*
X1027560Y1140180D01*
X1027560D01*
X1025824Y1138397D01*
X1021725Y1135576D01*
X1017154Y1133610D01*
X1012287Y1132574D01*
X1009799Y1132540D01*
X946320D01*
Y1215540D01*
X1009799D01*
X1009799Y1215540D01*
X1012301Y1215540D01*
X1017208Y1214564D01*
D02*
G37*
G36*
X1017181Y846231D02*
X1021804Y844317D01*
X1025964Y841537D01*
X1027733Y839768D01*
X1061594Y805908D01*
X1027533Y771847D01*
X1027533D01*
X1025798Y770064D01*
X1021698Y767244D01*
X1017127Y765278D01*
X1012260Y764241D01*
X1009773Y764208D01*
X946294D01*
Y847207D01*
X1009773D01*
X1009773Y847207D01*
X1012274Y847207D01*
X1017181Y846231D01*
D02*
G37*
D10*
X1292900Y934621D02*
Y979000D01*
Y934621D02*
X1292926Y934595D01*
Y932474D02*
X1293500Y931900D01*
X1292926Y932474D02*
Y934595D01*
X1292900Y979000D02*
X1302200Y988300D01*
Y1008102D01*
X1284348Y984548D02*
X1295470Y995670D01*
X1284348Y922052D02*
Y984548D01*
X1302170Y1008132D02*
X1302200Y1008102D01*
X1295470Y995670D02*
Y1028530D01*
X1290500Y1033500D02*
X1295470Y1028530D01*
X1302170Y1033372D02*
X1308102Y1039304D01*
X1302170Y1008132D02*
Y1033372D01*
X1290500Y1033500D02*
Y1114550D01*
X1246485Y796077D02*
X1266650Y816242D01*
X1273350Y811050D02*
Y1160206D01*
X1266650Y816242D02*
Y1162982D01*
X1273350Y1160206D02*
X1315000Y1201857D01*
X1266650Y1162982D02*
X1306800Y1203132D01*
X1261485Y799185D02*
X1273350Y811050D01*
X1306800Y1203132D02*
Y1221984D01*
X1309616Y1224800D02*
X1309623D01*
X1316900Y1232077D01*
X1315000Y1201857D02*
Y1218588D01*
X1306800Y1221984D02*
X1309616Y1224800D01*
X1315000Y1218588D02*
X1315221Y1218809D01*
X1316900Y1232077D02*
Y1251046D01*
X1298026Y1219405D02*
Y1265862D01*
X1269595Y1294292D02*
X1298026Y1265862D01*
Y1219405D02*
X1298600Y1218831D01*
X1290400Y1209300D02*
Y1264013D01*
X1266820Y1287592D02*
X1290400Y1264013D01*
X1282200Y1199000D02*
Y1262737D01*
X1264045Y1280892D02*
X1282200Y1262737D01*
X1261270Y1274192D02*
X1273700Y1261762D01*
Y1184817D02*
X1274017Y1184500D01*
X1273700Y1184817D02*
Y1261762D01*
X1316900Y1251046D02*
X1324854Y1259000D01*
X1308102Y1039304D02*
Y1084202D01*
X1330700Y1106800D01*
X1290500Y1114550D02*
X1290950Y1115000D01*
X872292Y1287592D02*
X1266820D01*
X829610Y1258310D02*
X865592Y1294292D01*
X829610Y1236000D02*
Y1258310D01*
X865592Y1294292D02*
X1269595D01*
X1265817Y1173745D02*
Y1260170D01*
X1265736Y1173664D02*
X1265817Y1173745D01*
X1258494Y1267493D02*
X1265817Y1260170D01*
X901793Y1267493D02*
X1258494D01*
X889610Y1255310D02*
X901793Y1267493D01*
X889610Y1236000D02*
Y1255310D01*
X874610Y1256710D02*
X892092Y1274192D01*
X874610Y1236000D02*
Y1256710D01*
X892092Y1274192D02*
X1261270D01*
X859610Y1236000D02*
Y1259310D01*
X881192Y1280892D01*
X1264045D01*
X844610Y1259910D02*
X872292Y1287592D01*
X844610Y1236000D02*
Y1259910D01*
X1201213Y750384D02*
Y771299D01*
X1261485Y771571D02*
Y799185D01*
X1246485Y771571D02*
Y796077D01*
X1216485Y742184D02*
Y771571D01*
X1231485Y734843D02*
Y771571D01*
X1231200Y734558D02*
X1231485Y734843D01*
D16*
X1357253Y1238636D02*
X1365017Y1246400D01*
X1357253Y1237147D02*
Y1238636D01*
X1416387Y1181950D02*
X1427556D01*
X1434003Y1175502D01*
Y1148402D02*
Y1175502D01*
X1422850Y1137250D02*
X1434003Y1148402D01*
X1416387Y1169450D02*
X1425856D01*
X1429603Y1165702D01*
Y1150702D02*
Y1165702D01*
X1423100Y1144200D02*
X1429603Y1150702D01*
X1371850Y1105338D02*
Y1135581D01*
X1367500Y1099500D02*
Y1100988D01*
X1371850Y1105338D01*
X1365017Y1246400D02*
X1385800D01*
X1367400Y1144200D02*
X1423100D01*
X1395909Y1204600D02*
Y1204876D01*
X1416900Y1225867D01*
Y1247100D01*
X1381600Y1137250D02*
X1422850D01*
D30*
X1246485Y771571D02*
D03*
X1216485D02*
D03*
X1201485D02*
D03*
X859610Y1236000D02*
D03*
X829610D02*
D03*
X844610D02*
D03*
X874610D02*
D03*
X889610D02*
D03*
X1231485Y771571D02*
D03*
X1261485D02*
D03*
D69*
X1317700Y1156298D02*
X1354202Y1192800D01*
X1317700Y1129266D02*
Y1156298D01*
X1354600Y840700D02*
Y942300D01*
Y953700D01*
D71*
X1306226Y1258226D02*
X1317000Y1269000D01*
X1306226Y1233000D02*
Y1258226D01*
X1334502Y1258000D02*
X1344593Y1247909D01*
X1330402Y1269000D02*
X1334502Y1264900D01*
Y1258000D02*
Y1264900D01*
X1317000Y1269000D02*
X1330402D01*
X1344593Y1236796D02*
Y1247909D01*
X1353442Y1227947D02*
X1374400D01*
X1344593Y1236796D02*
X1353442Y1227947D01*
X1300150Y1043220D02*
Y1107532D01*
X1299601Y1042671D02*
X1300150Y1043220D01*
X1299601Y1042400D02*
Y1042671D01*
X1300150Y1107532D02*
Y1160543D01*
X1299964Y1160729D02*
Y1161436D01*
X1299772Y1161628D02*
X1299964Y1161436D01*
Y1160729D02*
X1300150Y1160543D01*
Y1107532D02*
X1317600D01*
X1374400Y1227947D02*
X1405975D01*
X1374400Y1154588D02*
Y1227947D01*
X1111871Y771571D02*
X1186485D01*
X1411778Y1152341D02*
X1416387Y1156950D01*
X1376918Y1152341D02*
X1411778D01*
X1374671Y1154588D02*
X1376918Y1152341D01*
X1374400Y1154588D02*
X1374671D01*
X1317600Y1107669D02*
X1340681Y1130751D01*
X1317600Y1107532D02*
Y1107669D01*
X1340681Y1130751D02*
X1364519Y1154588D01*
X1374400D01*
D73*
X1385700Y888446D02*
Y1008100D01*
X1332500Y1061300D02*
X1380900Y1012900D01*
X1285000Y821700D02*
X1302320Y804380D01*
X1380680D01*
X1397267Y820967D01*
Y876879D01*
X1367060Y816080D02*
X1385500Y834520D01*
Y872100D01*
X1328700Y895300D02*
X1335800Y902400D01*
X1328317Y894917D02*
X1328700Y895300D01*
X1313900Y831140D02*
X1328960Y816080D01*
X1313900Y919500D02*
X1324100Y929700D01*
X1313900Y831140D02*
Y919500D01*
X1328283Y884158D02*
Y893468D01*
X1328800Y883100D02*
Y883641D01*
X1328283Y893468D02*
X1328317Y893503D01*
X1328283Y884158D02*
X1328800Y883641D01*
X1328317Y893503D02*
Y894917D01*
X1335800Y902400D02*
Y934546D01*
X1330453Y939893D02*
X1335800Y934546D01*
X1330453Y939893D02*
Y959707D01*
X1330070Y960090D02*
X1330453Y959707D01*
X1385700Y888446D02*
X1397267Y876879D01*
X1380900Y1012900D02*
X1385700Y1008100D01*
X1317302Y1062816D02*
X1336098D01*
D74*
X1279050Y1008850D02*
Y1157734D01*
Y1008850D02*
X1286600Y1001300D01*
X1287100Y1017002D02*
Y1017910D01*
X1283750Y1021260D02*
X1287100Y1017910D01*
X1283750Y1021260D02*
Y1155788D01*
X1322600Y1240778D02*
X1329200Y1247378D01*
Y1248000D01*
X1322600Y1201284D02*
Y1240778D01*
X1279050Y1157734D02*
X1322600Y1201284D01*
X1329741Y1232636D02*
X1329945Y1232841D01*
X1329741Y1201778D02*
Y1232636D01*
X1283750Y1155788D02*
X1329741Y1201778D01*
D76*
X799400Y1269092D02*
D03*
Y761258D02*
D03*
X1446300D02*
D03*
Y1269092D02*
D03*
D77*
X1348010Y848330D02*
D03*
Y833330D02*
D03*
X1333010D02*
D03*
Y848330D02*
D03*
X1363010D02*
D03*
Y833330D02*
D03*
D79*
X1470000Y1246000D02*
D03*
Y1218000D02*
D03*
Y1190000D02*
D03*
Y1162000D02*
D03*
Y1134000D02*
D03*
Y1106000D02*
D03*
Y1078000D02*
D03*
Y1050000D02*
D03*
Y1022000D02*
D03*
Y994000D02*
D03*
Y966000D02*
D03*
Y938000D02*
D03*
Y910000D02*
D03*
Y882000D02*
D03*
Y854000D02*
D03*
Y826000D02*
D03*
Y798000D02*
D03*
X1463000Y1232000D02*
D03*
X1456000Y1218000D02*
D03*
X1463000Y1204000D02*
D03*
X1456000Y1190000D02*
D03*
X1463000Y1176000D02*
D03*
X1456000Y1162000D02*
D03*
X1463000Y1148000D02*
D03*
X1456000Y1134000D02*
D03*
X1463000Y1120000D02*
D03*
X1456000Y1106000D02*
D03*
X1463000Y1092000D02*
D03*
X1456000Y1078000D02*
D03*
X1463000Y1064000D02*
D03*
X1456000Y1050000D02*
D03*
X1463000Y1036000D02*
D03*
X1456000Y1022000D02*
D03*
X1463000Y1008000D02*
D03*
X1456000Y994000D02*
D03*
X1463000Y980000D02*
D03*
X1456000Y966000D02*
D03*
X1463000Y952000D02*
D03*
X1456000Y938000D02*
D03*
X1463000Y924000D02*
D03*
X1456000Y910000D02*
D03*
X1463000Y896000D02*
D03*
X1456000Y882000D02*
D03*
X1463000Y868000D02*
D03*
X1456000Y854000D02*
D03*
X1463000Y840000D02*
D03*
X1456000Y826000D02*
D03*
X1463000Y812000D02*
D03*
X1456000Y798000D02*
D03*
X1463000Y784000D02*
D03*
X1449000Y1232000D02*
D03*
X1442000Y1218000D02*
D03*
X1449000Y1204000D02*
D03*
X1442000Y1190000D02*
D03*
X1449000Y1176000D02*
D03*
X1442000Y1162000D02*
D03*
X1449000Y1148000D02*
D03*
X1442000Y1134000D02*
D03*
X1449000Y1120000D02*
D03*
X1442000Y1106000D02*
D03*
X1449000Y1092000D02*
D03*
X1442000Y1078000D02*
D03*
X1449000Y1064000D02*
D03*
X1442000Y1050000D02*
D03*
X1449000Y1036000D02*
D03*
X1442000Y1022000D02*
D03*
X1449000Y1008000D02*
D03*
X1442000Y994000D02*
D03*
X1449000Y980000D02*
D03*
X1442000Y966000D02*
D03*
X1449000Y952000D02*
D03*
X1442000Y938000D02*
D03*
X1449000Y924000D02*
D03*
X1442000Y910000D02*
D03*
X1449000Y896000D02*
D03*
X1442000Y882000D02*
D03*
X1449000Y868000D02*
D03*
X1442000Y854000D02*
D03*
X1449000Y840000D02*
D03*
X1442000Y826000D02*
D03*
X1449000Y812000D02*
D03*
X1442000Y798000D02*
D03*
X1435000Y1232000D02*
D03*
Y1204000D02*
D03*
Y1120000D02*
D03*
X1428000Y1106000D02*
D03*
X1435000Y1092000D02*
D03*
X1428000Y1078000D02*
D03*
X1435000Y1064000D02*
D03*
X1428000Y1050000D02*
D03*
X1435000Y1036000D02*
D03*
X1428000Y1022000D02*
D03*
X1435000Y1008000D02*
D03*
X1428000Y994000D02*
D03*
X1435000Y980000D02*
D03*
X1428000Y966000D02*
D03*
X1435000Y952000D02*
D03*
X1428000Y938000D02*
D03*
X1435000Y924000D02*
D03*
X1428000Y910000D02*
D03*
X1435000Y896000D02*
D03*
X1428000Y882000D02*
D03*
X1435000Y868000D02*
D03*
X1428000Y854000D02*
D03*
X1435000Y840000D02*
D03*
X1428000Y826000D02*
D03*
X1435000Y812000D02*
D03*
X1428000Y798000D02*
D03*
X1435000Y784000D02*
D03*
X1428000Y742000D02*
D03*
X1421000Y1288000D02*
D03*
X1414000Y1274000D02*
D03*
X1421000Y1120000D02*
D03*
Y1092000D02*
D03*
Y1064000D02*
D03*
Y1036000D02*
D03*
Y1008000D02*
D03*
Y980000D02*
D03*
Y952000D02*
D03*
Y924000D02*
D03*
Y896000D02*
D03*
Y868000D02*
D03*
Y840000D02*
D03*
Y812000D02*
D03*
Y784000D02*
D03*
Y756000D02*
D03*
X1414000Y742000D02*
D03*
X1407000Y1288000D02*
D03*
X1400000Y1274000D02*
D03*
Y1246000D02*
D03*
X1393000Y1288000D02*
D03*
X1386000Y1274000D02*
D03*
X1379000Y1288000D02*
D03*
X1372000Y1274000D02*
D03*
Y938000D02*
D03*
Y770000D02*
D03*
X1365000Y1288000D02*
D03*
X1351000D02*
D03*
X1344000Y1274000D02*
D03*
X1337000Y1288000D02*
D03*
X1323000D02*
D03*
X1309000D02*
D03*
X1302000Y1274000D02*
D03*
Y938000D02*
D03*
Y910000D02*
D03*
Y882000D02*
D03*
Y854000D02*
D03*
Y826000D02*
D03*
X1295000Y1288000D02*
D03*
X1288000Y910000D02*
D03*
X1295000Y896000D02*
D03*
X1288000Y882000D02*
D03*
X1295000Y868000D02*
D03*
X1288000Y854000D02*
D03*
X1295000Y840000D02*
D03*
X1148000Y798000D02*
D03*
X1134000D02*
D03*
X1141000Y784000D02*
D03*
X1127000D02*
D03*
X1099000D02*
D03*
X1092000Y770000D02*
D03*
X1085000Y784000D02*
D03*
X1078000Y770000D02*
D03*
X1071000Y784000D02*
D03*
X1064000Y770000D02*
D03*
X1057000Y784000D02*
D03*
X1050000Y770000D02*
D03*
X1036000Y1246000D02*
D03*
Y770000D02*
D03*
X1022000Y1246000D02*
D03*
X1008000D02*
D03*
X1015000Y1232000D02*
D03*
X1001000D02*
D03*
X987000D02*
D03*
X952000Y1246000D02*
D03*
X938000D02*
D03*
X924000D02*
D03*
X931000Y1232000D02*
D03*
X917000D02*
D03*
X896000Y742000D02*
D03*
X889000Y756000D02*
D03*
X882000Y742000D02*
D03*
X875000Y756000D02*
D03*
X868000Y742000D02*
D03*
X861000Y756000D02*
D03*
X854000Y742000D02*
D03*
X847000Y1288000D02*
D03*
Y756000D02*
D03*
X840000Y742000D02*
D03*
X833000Y1288000D02*
D03*
X826000Y1274000D02*
D03*
X833000Y756000D02*
D03*
X826000Y742000D02*
D03*
X819000Y1288000D02*
D03*
X812000Y1246000D02*
D03*
X819000Y1232000D02*
D03*
X812000Y1218000D02*
D03*
Y1190000D02*
D03*
Y1162000D02*
D03*
Y1134000D02*
D03*
X819000Y1120000D02*
D03*
X812000Y1106000D02*
D03*
Y1078000D02*
D03*
Y1050000D02*
D03*
X819000Y1036000D02*
D03*
X812000Y1022000D02*
D03*
Y994000D02*
D03*
Y966000D02*
D03*
X819000Y952000D02*
D03*
X812000Y938000D02*
D03*
Y910000D02*
D03*
Y882000D02*
D03*
Y854000D02*
D03*
Y826000D02*
D03*
Y798000D02*
D03*
X805000Y1232000D02*
D03*
X798000Y1218000D02*
D03*
X805000Y1204000D02*
D03*
X798000Y1190000D02*
D03*
X805000Y1176000D02*
D03*
X798000Y1162000D02*
D03*
X805000Y1148000D02*
D03*
X798000Y1134000D02*
D03*
X805000Y1120000D02*
D03*
X798000Y1106000D02*
D03*
X805000Y1092000D02*
D03*
X798000Y1078000D02*
D03*
X805000Y1064000D02*
D03*
X798000Y1050000D02*
D03*
X805000Y1036000D02*
D03*
X798000Y1022000D02*
D03*
X805000Y1008000D02*
D03*
X798000Y994000D02*
D03*
X805000Y980000D02*
D03*
X798000Y966000D02*
D03*
X805000Y952000D02*
D03*
X798000Y938000D02*
D03*
X805000Y924000D02*
D03*
X798000Y910000D02*
D03*
X805000Y896000D02*
D03*
X798000Y882000D02*
D03*
X805000Y868000D02*
D03*
X798000Y854000D02*
D03*
X805000Y840000D02*
D03*
X798000Y826000D02*
D03*
X805000Y812000D02*
D03*
X798000Y798000D02*
D03*
X784000Y1246000D02*
D03*
X791000Y1232000D02*
D03*
X784000Y1218000D02*
D03*
X791000Y1204000D02*
D03*
X784000Y1190000D02*
D03*
X791000Y1176000D02*
D03*
X784000Y1162000D02*
D03*
X791000Y1148000D02*
D03*
X784000Y1134000D02*
D03*
X791000Y1120000D02*
D03*
X784000Y1106000D02*
D03*
X791000Y1092000D02*
D03*
X784000Y1078000D02*
D03*
X791000Y1064000D02*
D03*
X784000Y1050000D02*
D03*
X791000Y1036000D02*
D03*
X784000Y1022000D02*
D03*
X791000Y1008000D02*
D03*
X784000Y994000D02*
D03*
X791000Y980000D02*
D03*
X784000Y966000D02*
D03*
X791000Y952000D02*
D03*
X784000Y938000D02*
D03*
X791000Y924000D02*
D03*
X784000Y910000D02*
D03*
X791000Y896000D02*
D03*
X784000Y882000D02*
D03*
X791000Y868000D02*
D03*
X784000Y854000D02*
D03*
X791000Y840000D02*
D03*
X784000Y826000D02*
D03*
X791000Y812000D02*
D03*
X784000Y798000D02*
D03*
D80*
X1293500Y931900D02*
D03*
X1287100Y1017002D02*
D03*
X1286600Y1001300D02*
D03*
X1284348Y922052D02*
D03*
X1285000Y821700D02*
D03*
X1315221Y1218809D02*
D03*
X1306226Y1233000D02*
D03*
X1298600Y1218831D02*
D03*
X1290400Y1209300D02*
D03*
X1324854Y1259000D02*
D03*
X1334502Y1258000D02*
D03*
X1329200Y1248000D02*
D03*
X1329945Y1232841D02*
D03*
X1290950Y1115000D02*
D03*
X1357253Y1237147D02*
D03*
X1282200Y1199000D02*
D03*
X1265736Y1173664D02*
D03*
X1274017Y1184500D02*
D03*
X1201213Y750384D02*
D03*
X1111871Y771571D02*
D03*
X1299601Y1042400D02*
D03*
X1328960Y816080D02*
D03*
X1324100Y929700D02*
D03*
X1216485Y742184D02*
D03*
X1231200Y734558D02*
D03*
X1385800Y1246400D02*
D03*
X1317600Y1107532D02*
D03*
X1367500Y1099500D02*
D03*
X1330700Y1106800D02*
D03*
X1380900Y1012900D02*
D03*
X1340681Y1130751D02*
D03*
X1367060Y816080D02*
D03*
X1385500Y872100D02*
D03*
X1374400Y1154588D02*
D03*
X1383700Y929800D02*
D03*
X1336098Y1062816D02*
D03*
X1317302D02*
D03*
X1416900Y1247100D02*
D03*
X1381600Y1137250D02*
D03*
X1409450Y1231152D02*
D03*
X1395909Y1204600D02*
D03*
X1371850Y1135581D02*
D03*
X1367400Y1144200D02*
D03*
X1299772Y1161628D02*
D03*
X1317600Y1124532D02*
D03*
D81*
X1328700Y895300D02*
D03*
X1328800Y883100D02*
D03*
X909333Y1057308D02*
D03*
Y965307D02*
D03*
Y873607D02*
D03*
Y781308D02*
D03*
X1175867Y1246192D02*
D03*
Y1153893D02*
D03*
Y1062193D02*
D03*
Y970192D02*
D03*
X1175840Y878160D02*
D03*
X909360Y1149640D02*
D03*
X1354202Y1192800D02*
D03*
X1330070Y960090D02*
D03*
X1352600Y841100D02*
D03*
X1354600Y956000D02*
D03*
Y942300D02*
D03*
X1354570Y928770D02*
D03*
D82*
X1186485Y771571D02*
D03*
X904610Y1236000D02*
D03*
D83*
X917360Y1174040D02*
D03*
X917333Y805707D02*
D03*
Y898007D02*
D03*
Y989707D02*
D03*
Y1081708D02*
D03*
X1167867Y945792D02*
D03*
Y1037793D02*
D03*
Y1129493D02*
D03*
X1167840Y853760D02*
D03*
X1167867Y1221793D02*
D03*
D84*
X1416387Y1156950D02*
D03*
Y1169450D02*
D03*
Y1181950D02*
D03*
Y1194450D02*
D03*
M02*
