G04*
G04 #@! TF.GenerationSoftware,Altium Limited,Altium Designer,21.6.1 (37)*
G04*
G04 Layer_Color=8388736*
%FSLAX44Y44*%
%MOMM*%
G71*
G04*
G04 #@! TF.SameCoordinates,ED4FE337-CE33-4479-A5C8-1B7B9E4D1B90*
G04*
G04*
G04 #@! TF.FilePolarity,Negative*
G04*
G01*
G75*
%ADD41R,1.3500X2.0200*%
%ADD42R,0.4600X1.2800*%
%ADD43R,1.0500X0.8000*%
%ADD44R,1.2000X1.0000*%
%ADD45R,1.0000X1.2000*%
%ADD46R,1.1000X0.8000*%
G04:AMPARAMS|DCode=47|XSize=0.8mm|YSize=1.1mm|CornerRadius=0.25mm|HoleSize=0mm|Usage=FLASHONLY|Rotation=90.000|XOffset=0mm|YOffset=0mm|HoleType=Round|Shape=RoundedRectangle|*
%AMROUNDEDRECTD47*
21,1,0.8000,0.6000,0,0,90.0*
21,1,0.3000,1.1000,0,0,90.0*
1,1,0.5000,0.3000,0.1500*
1,1,0.5000,0.3000,-0.1500*
1,1,0.5000,-0.3000,-0.1500*
1,1,0.5000,-0.3000,0.1500*
%
%ADD47ROUNDEDRECTD47*%
%ADD48R,0.7250X0.5000*%
%ADD49R,1.1000X0.9000*%
%ADD50R,0.7588X1.5208*%
%ADD51R,1.0000X1.0000*%
%ADD52R,0.6000X2.2000*%
%ADD53R,1.1300X1.0900*%
%ADD54R,1.2000X2.9000*%
%ADD55R,2.0000X4.0000*%
%ADD56R,1.2800X0.4600*%
%ADD57R,3.9000X3.9000*%
%ADD58R,2.4000X2.5000*%
%ADD59R,2.1050X2.9940*%
%ADD60R,0.8000X2.1700*%
%ADD61R,3.2000X2.3300*%
%ADD62R,1.2000X2.9000*%
%ADD63R,0.8000X1.9000*%
%ADD64R,1.5800X2.0200*%
%ADD65R,1.8500X2.6500*%
%ADD66C,4.2000*%
%ADD67C,0.6000*%
%ADD68C,1.1000*%
G36*
X1323560Y830330D02*
Y851330D01*
X1371010D01*
Y830330D01*
X1323560D01*
D02*
G37*
D41*
X1384720Y789910D02*
D03*
X1355020D02*
D03*
Y764510D02*
D03*
X1384720D02*
D03*
D42*
X1354202Y1220950D02*
D03*
X1359202D02*
D03*
X1364203D02*
D03*
X1369202D02*
D03*
X1374203D02*
D03*
Y1164650D02*
D03*
X1369202D02*
D03*
X1364203D02*
D03*
X1359202D02*
D03*
X1354202D02*
D03*
X1349203D02*
D03*
X1344202D02*
D03*
X1339203D02*
D03*
X1334202D02*
D03*
Y1220950D02*
D03*
X1339203D02*
D03*
X1344202D02*
D03*
X1349203D02*
D03*
D43*
X1329100Y786656D02*
D03*
Y799100D02*
D03*
X1315100Y786656D02*
D03*
Y799100D02*
D03*
D44*
X1123567Y1046492D02*
D03*
Y1029492D02*
D03*
Y954492D02*
D03*
Y937493D02*
D03*
Y1230492D02*
D03*
Y1213492D02*
D03*
Y1138193D02*
D03*
Y1121193D02*
D03*
X1123540Y862460D02*
D03*
Y845460D02*
D03*
X1306500Y1161650D02*
D03*
Y1178650D02*
D03*
X1293000Y1161650D02*
D03*
Y1178650D02*
D03*
X1305500Y1042400D02*
D03*
Y1059400D02*
D03*
X961660Y1182340D02*
D03*
Y1165340D02*
D03*
X961633Y1090007D02*
D03*
Y1073008D02*
D03*
Y998008D02*
D03*
Y981008D02*
D03*
Y906307D02*
D03*
Y889307D02*
D03*
Y814007D02*
D03*
Y797008D02*
D03*
X1402500Y1214170D02*
D03*
Y1231170D02*
D03*
X1416400Y1214135D02*
D03*
Y1231135D02*
D03*
X1377900Y1106800D02*
D03*
Y1123800D02*
D03*
X1324070Y929220D02*
D03*
Y912220D02*
D03*
X1317600Y1107532D02*
D03*
Y1124532D02*
D03*
D45*
X1162167Y1061892D02*
D03*
X1145167D02*
D03*
X1162167Y1153593D02*
D03*
X1145167D02*
D03*
X1162167Y969893D02*
D03*
X1145167D02*
D03*
X1162167Y1245892D02*
D03*
X1145167D02*
D03*
X1162140Y877860D02*
D03*
X1145140D02*
D03*
X923060Y1149940D02*
D03*
X940060D02*
D03*
X923033Y1057607D02*
D03*
X940033D02*
D03*
X923033Y965608D02*
D03*
X940033D02*
D03*
X923033Y873907D02*
D03*
X940033D02*
D03*
X923033Y781608D02*
D03*
X940033D02*
D03*
X1318200Y1047300D02*
D03*
X1335200D02*
D03*
D46*
X1164767Y1139191D02*
D03*
Y1129691D02*
D03*
X1141767Y1139191D02*
D03*
Y1129691D02*
D03*
Y1120191D02*
D03*
X1164767Y1231490D02*
D03*
Y1221990D02*
D03*
X1141767Y1231490D02*
D03*
Y1221990D02*
D03*
Y1212490D02*
D03*
X1164767Y1047490D02*
D03*
Y1037990D02*
D03*
X1141767Y1047490D02*
D03*
Y1037990D02*
D03*
Y1028490D02*
D03*
X1164767Y955490D02*
D03*
Y945990D02*
D03*
X1141767Y955490D02*
D03*
Y945990D02*
D03*
Y936490D02*
D03*
X1164740Y863457D02*
D03*
Y853958D02*
D03*
X1141740Y863457D02*
D03*
Y853958D02*
D03*
Y844457D02*
D03*
X920460Y1173842D02*
D03*
Y1164342D02*
D03*
X943460D02*
D03*
Y1173842D02*
D03*
Y1183343D02*
D03*
X920433Y1081510D02*
D03*
Y1072010D02*
D03*
X943433D02*
D03*
Y1081510D02*
D03*
Y1091010D02*
D03*
X920433Y989510D02*
D03*
Y980010D02*
D03*
X943433D02*
D03*
Y989510D02*
D03*
Y999010D02*
D03*
X920433Y897809D02*
D03*
Y888309D02*
D03*
X943433D02*
D03*
Y897809D02*
D03*
Y907309D02*
D03*
X920433Y805510D02*
D03*
Y796010D02*
D03*
X943433D02*
D03*
Y805510D02*
D03*
Y815010D02*
D03*
D47*
X1164767Y1120191D02*
D03*
Y1212490D02*
D03*
Y1028490D02*
D03*
Y936490D02*
D03*
X1164740Y844457D02*
D03*
X920460Y1183343D02*
D03*
X920433Y1091010D02*
D03*
Y999010D02*
D03*
Y907309D02*
D03*
Y815010D02*
D03*
D48*
X1340578Y1119450D02*
D03*
Y1112950D02*
D03*
X1367827Y1125950D02*
D03*
Y1119450D02*
D03*
Y1112950D02*
D03*
Y1106450D02*
D03*
X1340578Y1125950D02*
D03*
Y1106450D02*
D03*
D49*
X1304200Y1123532D02*
D03*
Y1108532D02*
D03*
X1305500Y1015300D02*
D03*
Y1030300D02*
D03*
Y985300D02*
D03*
Y1000300D02*
D03*
X1416900Y1261935D02*
D03*
Y1246935D02*
D03*
X1385900Y1261935D02*
D03*
Y1246935D02*
D03*
X1383570Y914720D02*
D03*
Y929720D02*
D03*
X1385570Y871930D02*
D03*
Y856930D02*
D03*
X1364903Y914720D02*
D03*
Y929720D02*
D03*
X1330700Y1123532D02*
D03*
Y1108532D02*
D03*
D50*
X1317302Y1062816D02*
D03*
X1326700D02*
D03*
X1336098D02*
D03*
Y1086184D02*
D03*
X1317302D02*
D03*
D51*
X1305750Y1089200D02*
D03*
Y1074200D02*
D03*
D52*
X1342202Y1254300D02*
D03*
X1354202D02*
D03*
X1366202D02*
D03*
D53*
X1344387Y913370D02*
D03*
Y928770D02*
D03*
D54*
X1187168Y839769D02*
D03*
X1202168D02*
D03*
X1217168D02*
D03*
X1232168D02*
D03*
X1247168D02*
D03*
X1262168D02*
D03*
D55*
X1164668Y792769D02*
D03*
X1284668D02*
D03*
D56*
X1382352Y1212800D02*
D03*
X1326052D02*
D03*
X1382352Y1207800D02*
D03*
Y1202800D02*
D03*
Y1197800D02*
D03*
Y1192800D02*
D03*
Y1187800D02*
D03*
Y1182800D02*
D03*
Y1177800D02*
D03*
Y1172800D02*
D03*
X1326052D02*
D03*
Y1177800D02*
D03*
Y1182800D02*
D03*
Y1187800D02*
D03*
Y1192800D02*
D03*
Y1197800D02*
D03*
Y1202800D02*
D03*
Y1207800D02*
D03*
D57*
X1354202Y1192800D02*
D03*
D58*
X1329070Y960090D02*
D03*
X1378070D02*
D03*
D59*
X1379867Y1014190D02*
D03*
X1329067D02*
D03*
D60*
X1328960Y816080D02*
D03*
X1341660D02*
D03*
X1354360D02*
D03*
X1367060D02*
D03*
Y865580D02*
D03*
X1354360D02*
D03*
X1341660D02*
D03*
X1328960D02*
D03*
D61*
X1348010Y840830D02*
D03*
D62*
X1261565Y782033D02*
D03*
X1187065D02*
D03*
D63*
X1243065Y814034D02*
D03*
X1230565D02*
D03*
X1205565D02*
D03*
X1218065D02*
D03*
D64*
X1355215Y1055340D02*
D03*
X1382595D02*
D03*
X1355215Y1082010D02*
D03*
X1382595D02*
D03*
D65*
X1354202Y1116200D02*
D03*
D66*
X799400Y1269092D02*
D03*
Y761258D02*
D03*
X1446300D02*
D03*
Y1269092D02*
D03*
D67*
X1348010Y848330D02*
D03*
Y833330D02*
D03*
X1333010D02*
D03*
Y848330D02*
D03*
X1363010D02*
D03*
Y833330D02*
D03*
D68*
X1416387Y1156950D02*
D03*
Y1169450D02*
D03*
Y1181950D02*
D03*
Y1194450D02*
D03*
M02*
